<svg xmlns="http://www.w3.org/2000/svg">
<defs>
<font id="Podkova-Medium" horiz-adv-x="0" >
  <font-face 
    font-family="Podkova Medium"
    font-weight="500"
    font-stretch="normal"
    units-per-em="1000"
    panose-1="0 0 0 0 0 0 0 0 0 0"
    ascent="800"
    descent="-200"
    x-height="434"
    cap-height="589"
    bbox="-171 -309 1018 980"
    underline-thickness="50"
    underline-position="-75"
    unicode-range="U+000D-U+FB02"
  />
<missing-glyph horiz-adv-x="966" 
d="M942 570c2.66699 0 3.32715 -1.00488 1.99414 -3.00488l-64 -66l-1 1c0 -24.667 -3 -52.5 -9 -83.5s-17.167 -64 -33.5 -99s-40.333 -70.833 -72 -107.5s-73.834 -73 -126.501 -109c0 -3.33301 -1.16699 -8.16602 -3.5 -14.499s-7.16602 -9.5 -14.499 -9.5l-12 -12
c15.333 -5.33301 31.166 -11.166 47.499 -17.499s32.166 -13.166 47.499 -20.499c10.667 0 23.334 -0.166992 38.001 -0.5s29.667 -6.16602 45 -17.499c0 -2.66699 -0.333008 -4.16699 -1 -4.5s-1.66699 -1.16602 -3 -2.49902
c-9.33301 4.66699 -18.166 8.33398 -26.499 11.001s-18.833 3.33398 -31.5 2.00098c6.66699 -3.33301 13.167 -7.16602 19.5 -11.499s12.166 -10.5 17.499 -18.5c-0.666992 -2.66699 -3.66699 -4.66699 -9 -6c-9.33301 9.33301 -19.166 17.166 -29.499 23.499
s-21.833 9.16602 -34.5 8.49902c-10.667 0 -19 -1 -25 -3s-14.667 -5.66699 -26 -11c-1.33301 1.33301 -2.5 1.83301 -3.5 1.5s-1.83301 1.16699 -2.5 4.5c6.66699 7.33301 13 11.833 19 13.5s14 4.16699 24 7.5c-21.333 12 -41.166 20.333 -59.499 25s-27.5 9 -27.5 13
s3.66699 9 11 15c-5.33301 0 -9.66602 2.66699 -12.999 8s-5.33301 9 -6 11h-27c-9.33301 0 -18.5 0.333008 -27.5 1s-18.167 1.66699 -27.5 3c-1.33301 -4 -4.16602 -9.16699 -8.49902 -15.5s-10.5 -8.83301 -18.5 -7.5c-8 -4.66699 -13 -8 -15 -10l41.5 -26.5
c14.333 -9 28.5 -19.167 42.5 -30.5c11.333 -2.66699 23.333 -5 36 -7s24.667 -10.667 36 -26c0 -2.66699 -0.5 -4.16699 -1.5 -4.5s-2.16699 -1.16602 -3.5 -2.49902c-8 7.33301 -14.833 12.5 -20.5 15.5s-15.167 5.5 -28.5 7.5c13.333 -8 22.333 -21 27 -39

<glyph glyph-name="fi" unicode="fi" horiz-adv-x="684" 
d="M122 489c0 55.333 15.667 98.167 47 128.5s76 45.5 134 45.5c25.333 0 49.333 -3.66699 72 -11s41.667 -17.666 57 -30.999l-33 -62c-26 21.333 -58 32 -96 32c-29.333 0 -52.333 -9.83301 -69 -29.5s-25 -47.834 -25 -84.501v-43h124v-70h-124v-294h90v-70h-261v70h84
v294h-84v70h84v55zM406 434.001h172v-364h83v-70h-255v70h83v294h-83v70zM523 648.001c19.333 0 34.833 -5.83301 46.5 -17.5s17.5 -27.167 17.5 -46.5s-5.83301 -34.833 -17.5 -46.5s-27.167 -17.5 -46.5 -17.5s-34.666 5.83301 -45.999 17.5s-17 27.167 -17 46.5
s5.66699 34.833 17 46.5s26.666 17.5 45.999 17.5z" />
    <glyph glyph-name="fl" unicode="fl" horiz-adv-x="658" 
d="M551 70l84.001 0.000976562v-70h-256v70h84v484c-20 13.333 -40.333 23.666 -61 30.999s-43.667 11 -69 11c-34.667 0 -63.834 -9.5 -87.501 -28.5s-35.5 -49.167 -35.5 -90.5v-43h124v-70h-124v-294h90v-70h-262v70h84v294h-84v70h84v55c0 35.333 9 66.833 27 94.5
s43 49.5 75 65.5s68.667 24 110 24c42.667 0 81.5 -6.5 116.5 -19.5s68.5 -32.833 100.5 -59.5v-524z" />
    <glyph glyph-name=".notdef" horiz-adv-x="966" 
d="M942 570c2.66699 0 3.32715 -1.00488 1.99414 -3.00488l-64 -66l-1 1c0 -24.667 -3 -52.5 -9 -83.5s-17.167 -64 -33.5 -99s-40.333 -70.833 -72 -107.5s-73.834 -73 -126.501 -109c0 -3.33301 -1.16699 -8.16602 -3.5 -14.499s-7.16602 -9.5 -14.499 -9.5l-12 -12
c15.333 -5.33301 31.166 -11.166 47.499 -17.499s32.166 -13.166 47.499 -20.499c10.667 0 23.334 -0.166992 38.001 -0.5s29.667 -6.16602 45 -17.499c0 -2.66699 -0.333008 -4.16699 -1 -4.5s-1.66699 -1.16602 -3 -2.49902
c-9.33301 4.66699 -18.166 8.33398 -26.499 11.001s-18.833 3.33398 -31.5 2.00098c6.66699 -3.33301 13.167 -7.16602 19.5 -11.499s12.166 -10.5 17.499 -18.5c-0.666992 -2.66699 -3.66699 -4.66699 -9 -6c-9.33301 9.33301 -19.166 17.166 -29.499 23.499
s-21.833 9.16602 -34.5 8.49902c-10.667 0 -19 -1 -25 -3s-14.667 -5.66699 -26 -11c-1.33301 1.33301 -2.5 1.83301 -3.5 1.5s-1.83301 1.16699 -2.5 4.5c6.66699 7.33301 13 11.833 19 13.5s14 4.16699 24 7.5c-21.333 12 -41.166 20.333 -59.499 25s-27.5 9 -27.5 13
s3.66699 9 11 15c-5.33301 0 -9.66602 2.66699 -12.999 8s-5.33301 9 -6 11h-27c-9.33301 0 -18.5 0.333008 -27.5 1s-18.167 1.66699 -27.5 3c-1.33301 -4 -4.16602 -9.16699 -8.49902 -15.5s-10.5 -8.83301 -18.5 -7.5c-8 -4.66699 -13 -8 -15 -10l41.5 -26.5
c14.333 -9 28.5 -19.167 42.5 -30.5c11.333 -2.66699 23.333 -5 36 -7s24.667 -10.667 36 -26c0 -2.66699 -0.5 -4.16699 -1.5 -4.5s-2.16699 -1.16602 -3.5 -2.49902c-8 7.33301 -14.833 12.5 -20.5 15.5s-15.167 5.5 -28.5 7.5c13.333 -8 22.333 -21 27 -39
c-1.33301 -3.33301 -4 -4.66602 -8 -3.99902c-6.66699 10.667 -14.167 20.5 -22.5 29.5s-18.5 14.833 -30.5 17.5c-20.667 2.66699 -44 1 -70 -5c-2 3.33301 -3 6 -3 8c8 5.33301 16.833 8.5 26.5 9.5s19.834 1.83301 30.501 2.5c-16.667 14 -33.334 25.667 -50.001 35
s-25 16.666 -25 21.999c0 3.33301 1.16699 5.66602 3.5 6.99902s5.5 3.66602 9.5 6.99902c-4.66699 4.66699 -7.16699 10.167 -7.5 16.5s-0.166016 11.5 0.500977 15.5c-38.667 21.333 -71.667 45.833 -99 73.5s-50.166 55.334 -68.499 83.001l-46.5 71.5l-103.5 36.5
c-33.667 12.333 -61.167 27.166 -82.5 44.499c-4.66699 4 -6.5 8.66699 -5.5 14s4.83301 8 11.5 8l256 -22l182.5 36c45.667 8.66699 80.5 17.167 104.5 25.5s40.667 19.5 50 33.5c20 35.333 40.5 60.5 61.5 75.5s45.833 22.5 74.5 22.5c9.33301 0 17.833 -0.666992 25.5 -2
s14.834 -3 21.501 -5v1l74 26c2 0 3 -0.666992 3 -2v-1l-25 -69zM660.993 187.995c2 0.666992 5.16309 3.33105 9.49609 7.99805s8.5 9.83398 12.5 15.501s5.66699 9.16699 5 10.5c-8 7.33301 -20.167 17.833 -36.5 31.5l-53.5 46.5l43.5 57.5l29.5 39.5l-16.5 13.5
c-7 5.66699 -13.833 9.83398 -20.5 12.501l-74 -93l-56.5 43.5l-40.5 29.5c-3.33301 -4 -7.66602 -9.5 -12.999 -16.5s-9.66602 -14.5 -12.999 -22.5l91 -72l-72 -93c0.666992 -2 3.33398 -5.16699 8.00098 -9.5s9.83398 -8.33301 15.501 -12s9.16699 -5.5 10.5 -5.5l78 88z
" />
    <glyph glyph-name="NULL" 
 />
    <glyph glyph-name="NULL" 
 />
    <glyph glyph-name="CR" unicode="&#xd;" horiz-adv-x="248" 
 />
    <glyph glyph-name="space" unicode=" " horiz-adv-x="248" 
 />
    <glyph glyph-name="exclam" unicode="!" horiz-adv-x="215" 
d="M61 593h94l-16 -404h-65zM107 118c18 0 33.667 -6.66699 47 -20s20 -29.333 20 -48c0 -17.333 -6.66699 -32.666 -20 -45.999s-29 -20 -47 -20c-18.667 0 -34.5 6.66699 -47.5 20s-19.5 28.666 -19.5 45.999c0 18.667 6.5 34.667 19.5 48s28.833 20 47.5 20z" />
    <glyph glyph-name="quotedbl" unicode="&#x22;" horiz-adv-x="342" 
d="M200 593h87l-21 -189h-45zM55 593h87l-21 -189h-45z" />
    <glyph glyph-name="numbersign" unicode="#" horiz-adv-x="605" 
d="M258 589h70l-53 -192h128l54 192h70l-53 -192h123v-63h-141l-42 -153h149v-63h-166l-51 -187h-71l50 187h-127l-51 -187h-72l52 187h-119v63h136l43 153h-145v63h162zM258 334l-43 -153h128l42 153h-127z" />
    <glyph glyph-name="dollar" unicode="$" horiz-adv-x="454" 
d="M107 88c14 -5.33301 28.165 -9.83691 42.498 -13.5039s27.5 -6.16699 39.5 -7.5v189c-48 6.66699 -86 24 -114 52s-42 63.333 -42 106c0 30.667 6.16699 57 18.5 79s30.166 39.333 53.499 52s51.333 20.334 84 23.001v90h70v-90c21.333 -0.666992 39.333 -2.5 54 -5.5
s28.334 -7 41.001 -12s26 -11.5 40 -19.5l16 -118l-68 -7l-13 76c-10 5.33301 -21 9.5 -33 12.5s-24.333 4.83301 -37 5.5v-182l22 -3c46.667 -6.66699 82.334 -21.667 107.001 -45s37 -56.666 37 -99.999c0 -53.333 -14 -94.166 -42 -122.499s-69.667 -44.5 -125 -48.5v-82
h-69v83c-25.333 2.66699 -48.333 6.83398 -69 12.501s-37.667 11 -51 16s-21.666 8.16699 -24.999 9.5l-17 109l69 8zM257.998 66.9961c30 5.33301 52.499 16 67.499 32s22.5 37 22.5 63s-7.66699 46 -23 60s-37.666 22 -66.999 24v-179zM188.997 500.996
c-28 -3.33301 -49.167 -12 -63.5 -26s-21.5 -33 -21.5 -57c0 -50 28.333 -79.667 85 -89v172z" />
    <glyph glyph-name="percent" unicode="%" horiz-adv-x="780" 
d="M490 608h77l-286 -629h-78zM193 609c40 0 72.5 -13.1689 97.5 -39.502s37.5 -72.166 37.5 -137.499s-12.5 -111.166 -37.5 -137.499s-57.5 -39.5 -97.5 -39.5c-26.667 0 -50.167 5.66699 -70.5 17s-36.166 29.833 -47.499 55.5s-17 60.5 -17 104.5
s5.66699 78.833 17 104.5s27.166 44.167 47.499 55.5s43.833 17 70.5 17zM193 537.998c-11.333 0 -21.833 -2.66699 -31.5 -8s-17.5 -15.833 -23.5 -31.5s-9 -37.834 -9 -66.501s3 -50.667 9 -66s13.833 -25.833 23.5 -31.5s20.167 -8.5 31.5 -8.5
c12 0 22.667 2.83301 32 8.5s17 16.167 23 31.5s9 37.333 9 66s-3 50.834 -9 66.501s-13.667 26.167 -23 31.5s-20 8 -32 8zM587 335.998c40 0 72.5 -13.001 97.5 -39.001s37.5 -72 37.5 -138c0 -65.333 -12.5 -111 -37.5 -137s-57.5 -39 -97.5 -39
c-26 0 -49.167 5.5 -69.5 16.5s-36.333 29.5 -48 55.5s-17.5 60.667 -17.5 104c0 44.667 5.83301 79.834 17.5 105.501s27.667 44 48 55s43.5 16.5 69.5 16.5zM587 265.997c-11.333 0 -21.833 -2.83301 -31.5 -8.5s-17.5 -16.167 -23.5 -31.5s-9 -37.666 -9 -66.999
c0 -28.667 3 -50.667 9 -66s13.833 -25.833 23.5 -31.5s20.167 -8.5 31.5 -8.5c12 0 22.667 2.83301 32 8.5s17 16.167 23 31.5s9 37.333 9 66c0 29.333 -3 51.666 -9 66.999s-13.667 25.833 -23 31.5s-20 8.5 -32 8.5z" />
    <glyph glyph-name="ampersand" unicode="&#x26;" horiz-adv-x="713" 
d="M481 85c-23.333 -30.667 -52.666 -55.833 -87.999 -75.5s-79.333 -29.5 -132 -29.5c-19.333 0 -41 2.66699 -65 8s-47 14.833 -69 28.5s-40 32.167 -54 55.5s-21 53.666 -21 90.999c0 34 7 62.5 21 85.5s32 42.833 54 59.5s45.333 32 70 46
c-17.333 23.333 -30.833 45.833 -40.5 67.5s-14.5 42.5 -14.5 62.5c0 26 4.16699 47.167 12.5 63.5s19.333 28.833 33 37.5s28.167 14.834 43.5 18.501s30 5.5 44 5.5c24 0 46 -4.16699 66 -12.5s36.167 -20.833 48.5 -37.5s18.5 -38 18.5 -64
c0 -34 -10.667 -62.833 -32 -86.5s-46.333 -45.167 -75 -64.5c22 -25.333 47 -50.666 75 -75.999s56.667 -50 86 -74c12.667 29.333 23.334 60.166 32.001 92.499s16 63.833 22 94.5l117 37l22 -68l-73 -25l-25.5 -84.5c-9.66699 -31 -22.167 -61.833 -37.5 -92.5l85 -61.5
c25.333 -18.333 46.333 -32.833 63 -43.5l-38 -65c-4.66699 4 -20.834 15.5 -48.501 34.5s-60.834 43.167 -99.501 72.5zM238 301.001c-26.667 -18 -49.668 -37.833 -69.001 -59.5s-29 -47.834 -29 -78.501c0 -24 4.83301 -43.5 14.5 -58.5s21.5 -26.667 35.5 -35
s27.833 -14.166 41.5 -17.499s24.834 -5 33.501 -5c36.667 0 67.834 7.66699 93.501 23s47.5 35.333 65.5 60c-32 25.333 -64.333 52.833 -97 82.5s-62.334 59.167 -89.001 88.5zM275.999 549.001c-19.333 0 -33.167 -5.83301 -41.5 -17.5s-12.5 -27.167 -12.5 -46.5
c0 -14 3.5 -28.833 10.5 -44.5s16.5 -32.5 28.5 -50.5c20 13.333 36.833 27.5 50.5 42.5s20.5 33.833 20.5 56.5c0 20 -4.16699 35 -12.5 45s-22.833 15 -43.5 15z" />
    <glyph glyph-name="quotesingle" unicode="'" horiz-adv-x="197" 
d="M53 593h95l-15 -209h-66z" />
    <glyph glyph-name="parenleft" unicode="(" horiz-adv-x="228" 
d="M236 603c-29.333 -28.667 -52.666 -58.832 -69.999 -90.499s-30.666 -63.167 -39.999 -94.5s-15.5 -60.333 -18.5 -87s-4.5 -49.334 -4.5 -68.001c0 -18 1.5 -40.333 4.5 -67s9.16699 -55.667 18.5 -87s22.666 -62.833 39.999 -94.5s40.666 -61.834 69.999 -90.501
l-44 -56c-22.667 14.667 -44.5 35.167 -65.5 61.5s-40.167 57 -57.5 92s-31 72.833 -41 113.5s-15 83.334 -15 128.001s5 87.5 15 128.5s23.667 79 41 114s36.5 65.667 57.5 92s42.833 46.833 65.5 61.5z" />
    <glyph glyph-name="parenright" unicode=")" horiz-adv-x="228" 
d="M36 659c22.667 -14.667 44.5 -35.1689 65.5 -61.502s40.167 -57 57.5 -92s31 -73 41 -114s15 -83.833 15 -128.5s-5 -87.334 -15 -128.001s-23.667 -78.5 -41 -113.5s-36.5 -65.667 -57.5 -92s-42.833 -46.833 -65.5 -61.5l-44 56
c29.333 28.667 52.666 58.834 69.999 90.501s30.666 63.167 39.999 94.5s15.5 60.333 18.5 87s4.5 49 4.5 67c0 18.667 -1.5 41.334 -4.5 68.001s-9.16699 55.667 -18.5 87s-22.666 62.833 -39.999 94.5s-40.666 61.834 -69.999 90.501z" />
    <glyph glyph-name="asterisk" unicode="*" horiz-adv-x="416" 
d="M162 653h85l-10 -146l139 57l28 -82l-146 -36l94 -112l-70 -52l-76 123l-77 -123l-71 50l97 115l-142 34l26 83l134 -56z" />
    <glyph glyph-name="plus" unicode="+" horiz-adv-x="474" 
d="M195 488h84v-146h145v-76h-145v-145h-84v145h-145v76h145v146z" />
    <glyph glyph-name="comma" unicode="," horiz-adv-x="218" 
d="M89 -125l-35.998 32.001l8 12.5l19.5 31c7.66699 12.333 14.167 24.166 19.5 35.499c-18.667 2.66699 -33 10 -43 22s-15 25.333 -15 40c0 20 6.66699 36 20 48s29.666 18 48.999 18s36.166 -7 50.499 -21s21.5 -31 21.5 -51s-4.33301 -39.667 -13 -59
s-19.167 -37 -31.5 -53s-23.333 -28.833 -33 -38.5z" />
    <glyph glyph-name="hyphen" unicode="-" horiz-adv-x="403" 
d="M45 267h313v-75h-313v75z" />
    <glyph glyph-name="period" unicode="." horiz-adv-x="230" 
d="M115 118c18 0 33.667 -6.66699 47 -20s20 -29.333 20 -48c0 -17.333 -6.66699 -32.666 -20 -45.999s-29 -20 -47 -20s-33.667 6.66699 -47 20s-20 28.666 -20 45.999c0 18.667 6.66699 34.667 20 48s29 20 47 20z" />
    <glyph glyph-name="slash" unicode="/" horiz-adv-x="360" 
d="M301 589h85l-327 -720h-85z" />
    <glyph glyph-name="zero" unicode="0" horiz-adv-x="598" 
d="M299 605c35.333 0 67.5 -5.16699 96.5 -15.5s54.333 -27.5 76 -51.5s38.5 -56 50.5 -96s18 -89.333 18 -148c0 -58 -6 -107 -18 -147s-28.833 -72 -50.5 -96s-47 -41.167 -76 -51.5s-61.167 -15.5 -96.5 -15.5s-67.666 5.16699 -96.999 15.5s-54.666 27.5 -75.999 51.5
s-37.833 56 -49.5 96s-17.5 89 -17.5 147c0 58.667 5.83301 108 17.5 148s28.167 72 49.5 96s46.666 41.167 75.999 51.5s61.666 15.5 96.999 15.5zM299 527c-19.333 0 -37.833 -3.16699 -55.5 -9.5s-33 -17.666 -46 -33.999s-23.333 -39.833 -31 -70.5
s-11.5 -70.334 -11.5 -119.001c0 -48 3.83301 -87.167 11.5 -117.5s18 -53.833 31 -70.5s28.333 -28.167 46 -34.5s36.167 -9.5 55.5 -9.5c20 0 38.667 3.16699 56 9.5s32.666 17.833 45.999 34.5s23.833 40.167 31.5 70.5s11.5 69.5 11.5 117.5
c0 48.667 -3.83301 88.334 -11.5 119.001s-18.167 54.167 -31.5 70.5s-28.666 27.666 -45.999 33.999s-36 9.5 -56 9.5z" />
    <glyph glyph-name="one" unicode="1" horiz-adv-x="494" 
d="M258 593h56l-1 -515h154v-78h-407v78h164l1 383l-136 -112l-50 62z" />
    <glyph glyph-name="two" unicode="2" horiz-adv-x="545" 
d="M60 0l-26.001 81c48.667 44.667 94.834 84.667 138.501 120s81.5 68.666 113.5 99.999c23.333 22 41.166 43.333 53.499 64s18.833 42 19.5 64c0.666992 32.667 -9.66602 57.334 -30.999 74.001s-48 25 -80 25c-23.333 0 -47.666 -5.16699 -72.999 -15.5
s-48 -25.166 -68 -44.499l-56 54c30 30.667 62.5 52.834 97.5 66.501s70.5 20.5 106.5 20.5s69.167 -6.83301 99.5 -20.5s54.666 -33.334 72.999 -59.001s27.5 -56.834 27.5 -93.501c0 -31.333 -10.5 -62 -31.5 -92s-47.833 -60.333 -80.5 -91
c-30 -28.667 -63 -57.5 -99 -86.5l-106 -88.5h255l51 81l64 -35l-72 -124h-376z" />
    <glyph glyph-name="three" unicode="3" horiz-adv-x="512" 
d="M248 342c30.667 0 55.166 9.16602 73.499 27.499s27.5 42.5 27.5 72.5c0 26 -9.66699 46.667 -29 62s-44.666 23.333 -75.999 24c-26 0.666992 -51.833 -4 -77.5 -14s-46.834 -23.333 -63.501 -40l-59 57c23.333 24.667 52.666 43.167 87.999 55.5s73.333 18.5 114 18.5
c60 0 107.5 -14.833 142.5 -44.5s52.5 -68.167 52.5 -115.5c0 -22 -4 -42.333 -12 -61s-19.5 -35 -34.5 -49s-32.167 -24.667 -51.5 -32c37.333 -6.66699 67.666 -22.667 90.999 -48s35 -56 35 -92s-9.16699 -67.5 -27.5 -94.5s-44 -47.833 -77 -62.5
s-71.833 -22 -116.5 -22c-32 0 -60.833 2.66699 -86.5 8s-49 13.5 -70 24.5s-40.5 24.167 -58.5 39.5l56 65c26.667 -20.667 51.834 -35.667 75.501 -45s51.834 -14 84.501 -14c38 0 68.333 9.16699 91 27.5s34 42.833 34 73.5s-13.167 55.334 -39.5 74.001
s-61.166 28 -104.499 28h-50v77h68z" />
    <glyph glyph-name="four" unicode="4" horiz-adv-x="555" 
d="M219 0v78h109v88h-303l-1 51l210 406l72 -41l-177 -341h199v253h90v-253l89 1v-76h-89v-88h85v-78h-284z" />
    <glyph glyph-name="five" unicode="5" horiz-adv-x="520" 
d="M168 362c18.667 12 37.6699 20.667 57.0029 26s38.666 8 57.999 8c36.667 0 69.5 -7.33301 98.5 -22s52.167 -36.5 69.5 -65.5s26 -64.5 26 -106.5c0 -70.667 -19.833 -124.667 -59.5 -162s-95.5 -56 -167.5 -56c-38.667 0 -76 7.16699 -112 21.5s-66.333 35.5 -91 63.5
l64 51c18 -19.333 39.167 -34.166 63.5 -44.499s50.5 -15.5 78.5 -15.5c43.333 0 76 11.667 98 35s33 56 33 98c0 27.333 -5.83301 50.666 -17.5 69.999s-27.334 33.833 -47.001 43.5s-40.834 14.5 -63.501 14.5c-21.333 0 -43 -4.66699 -65 -14s-41.667 -23 -59 -41l-53 24
v299h354v-79h-265v-148z" />
    <glyph glyph-name="six" unicode="6" horiz-adv-x="555" 
d="M445 493l-23.001 11.001c-12.667 6 -27.5 11.5 -44.5 16.5s-33.833 7.5 -50.5 7.5c-32 0 -59 -6.66699 -81 -20s-39.667 -31 -53 -53s-23.166 -46.167 -29.499 -72.5s-9.83301 -52.166 -10.5 -77.499c14.667 17.333 36.167 33 64.5 47s59.833 21 94.5 21
c34 0 66.167 -5.66699 96.5 -17s55.166 -31 74.499 -59s29 -67.333 29 -118c0 -17.333 -3.16699 -37.333 -9.5 -60s-17.5 -44.334 -33.5 -65.001s-38.5 -37.5 -67.5 -50.5s-66.167 -19.5 -111.5 -19.5c-78.667 0 -136.834 26.167 -174.501 78.5s-56.5 128.166 -56.5 227.499
c0 58 10.833 110.833 32.5 158.5s52.334 85.667 92.001 114s86.834 42.5 141.501 42.5c28 0 53.333 -3.5 76 -10.5s41.167 -14.167 55.5 -21.5s22.5 -12 24.5 -14zM305.999 299.001c-34 0 -64.668 -5.83105 -92.001 -17.498s-47 -28.167 -59 -49.5
c4 -49.333 13.333 -86.333 28 -111s32 -41 52 -49s40.667 -12 62 -12c28.667 0 52 6.16699 70 18.5s31.333 27.666 40 45.999s13 36.5 13 54.5c0 39.333 -9.66699 69.166 -29 89.499s-47.666 30.5 -84.999 30.5z" />
    <glyph glyph-name="seven" unicode="7" horiz-adv-x="510" 
d="M493 539c-50 -62.667 -90.001 -126.333 -120.001 -191s-52 -126.834 -66 -186.501s-22 -113.5 -24 -161.5h-91c4.66699 50.667 13.834 103.5 27.501 158.5s33.5 111.833 59.5 170.5s58.667 119.334 98 182.001h-254l-15 -64l-78 17l23 125h440v-50z" />
    <glyph glyph-name="eight" unicode="8" horiz-adv-x="536" 
d="M267 605c37.333 0 71.168 -6.33301 101.501 -19s54.666 -31.5 72.999 -56.5s27.5 -56.5 27.5 -94.5c0 -18 -3.83301 -36 -11.5 -54s-19 -33.833 -34 -47.5s-33.167 -23.5 -54.5 -29.5c23.333 -4 43.333 -13 60 -27s29.5 -31 38.5 -51s13.5 -41 13.5 -63
c0 -40.667 -10 -74.334 -30 -101.001s-46.167 -46.334 -78.5 -59.001s-67.166 -19 -104.499 -19c-36.667 0 -71.334 6.33301 -104.001 19s-59 32.334 -79 59.001s-30 60.334 -30 101.001c0 22 4.5 43 13.5 63s21.833 37 38.5 51s36.667 23 60 27
c-21.333 6 -39.5 15.833 -54.5 29.5s-26.333 29.5 -34 47.5s-11.5 36 -11.5 54c0 38 9 69.5 27 94.5s42.333 43.833 73 56.5s64 19 100 19zM268.002 266c-39.333 0 -68.6689 -10 -88.002 -30s-29 -44.333 -29 -73c0 -30.667 10.833 -55.667 32.5 -75s49.834 -29 84.501 -29
s62.834 9.66699 84.501 29s32.5 44.333 32.5 75c0 28.667 -9.5 53 -28.5 73s-48.5 30 -88.5 30zM267.999 530c-34 0 -60.333 -9 -79 -27s-28 -40.667 -28 -68s9.33301 -50.333 28 -69s45 -28 79 -28s60.333 9.33301 79 28s28 41.667 28 69s-9.33301 50 -28 68s-45 27 -79 27
z" />
    <glyph glyph-name="nine" unicode="9" horiz-adv-x="554" 
d="M117 96c2.66699 -1.33301 10.5 -4.99609 23.5 -10.9961s29 -11.5 48 -16.5s38.5 -7.5 58.5 -7.5c30.667 0 56.167 5.83301 76.5 17.5s36.5 27.5 48.5 47.5s20.833 42.167 26.5 66.5s8.83398 48.5 9.50098 72.5c-15.333 -18 -36.833 -34.333 -64.5 -49
s-59.167 -22 -94.5 -22c-33.333 0 -65.333 6.16699 -96 18.5s-55.667 33.666 -75 63.999s-29 72.833 -29 127.5c0 18.667 3.16699 39.5 9.5 62.5s17.5 45.167 33.5 66.5s38.5 38.666 67.5 51.999s66.167 20 111.5 20c78.667 0 137.5 -26.333 176.5 -79
s58.5 -128.667 58.5 -228c0 -60.667 -7.83301 -111.334 -23.5 -152.001s-36.667 -72.834 -63 -96.501s-55 -40.5 -86 -50.5s-61.5 -15 -91.5 -15c-29.333 0 -55.833 3.5 -79.5 10.5s-42.834 14.167 -57.501 21.5s-23 12 -25 14zM264 529.004
c-28 0 -51.167 -6.16699 -69.5 -18.5s-31.833 -28.833 -40.5 -49.5s-13 -43 -13 -67c0 -36 9.66699 -66 29 -90s47.333 -36 84 -36c38.667 0 71 7.16699 97 21.5s44.667 32.833 56 55.5c-2 40 -7.5 72.167 -16.5 96.5s-20.167 42.833 -33.5 55.5s-28 21.167 -44 25.5
s-32.333 6.5 -49 6.5z" />
    <glyph glyph-name="colon" unicode=":" horiz-adv-x="216" 
d="M108 448c18 0 33.667 -6.66699 47 -20s20 -29 20 -47s-6.66699 -33.667 -20 -47s-29 -20 -47 -20s-33.667 6.66699 -47 20s-20 29 -20 47s6.66699 33.667 20 47s29 20 47 20zM108 118c18 0 33.667 -6.66797 47 -20.001s20 -29.333 20 -48
c0 -17.333 -6.66699 -32.666 -20 -45.999s-29 -20 -47 -20s-33.667 6.66699 -47 20s-20 29 -20 47s6.66699 33.667 20 47s29 20 47 20z" />
    <glyph glyph-name="semicolon" unicode=";" horiz-adv-x="215" 
d="M51 -93l8.00195 12.5l19.5 31c7.66699 12.333 14.167 24.5 19.5 36.5c-18.667 2 -33 9 -43 21s-15 25.333 -15 40c0 20 6.66699 36 20 48s29.666 18 48.999 18s36.166 -7 50.499 -21s21.5 -31 21.5 -51s-4.33301 -39.5 -13 -58.5s-19.167 -36.667 -31.5 -53
s-23.333 -29.333 -33 -39l-16.5 -16.5zM107.002 448c18 0 33.667 -6.66699 47 -20s20 -29 20 -47s-6.66699 -33.667 -20 -47s-29 -20 -47 -20s-33.667 6.66699 -47 20s-20 29 -20 47s6.66699 33.667 20 47s29 20 47 20z" />
    <glyph glyph-name="less" unicode="&#x3c;" horiz-adv-x="474" 
d="M398 523l-357 -176v-67l356 -195l36 71l-285 152v5l285 139z" />
    <glyph glyph-name="equal" unicode="=" horiz-adv-x="474" 
d="M50 349v76h374v-76h-374zM50 189v76h374v-76h-374z" />
    <glyph glyph-name="greater" unicode="&#x3e;" horiz-adv-x="474" 
d="M76 523l357 -176v-67l-356 -195l-36 71l285 152v5l-285 139z" />
    <glyph glyph-name="question" unicode="?" horiz-adv-x="377" 
d="M21 565c14.667 11.333 37.665 20.8311 68.998 28.498s63.333 11.5 96 11.5c58 0 103.5 -12.833 136.5 -38.5s49.5 -59.834 49.5 -102.501c0 -30 -9 -55 -27 -75s-45 -39.667 -81 -59c-22 -11.333 -38.833 -21 -50.5 -29s-19.667 -15.167 -24 -21.5s-6.5 -13.5 -6.5 -21.5
s3 -15.667 9 -23s15.667 -15.666 29 -24.999l-46 -49c-31.333 18.667 -51.333 36.5 -60 53.5s-13 33.167 -13 48.5c0 16.667 3.16699 31.167 9.5 43.5s16.833 24.333 31.5 36s34 23.834 58 36.501c23.333 13.333 40.833 24.333 52.5 33s19.5 17.334 23.5 26.001
s6 18.667 6 30c0 19.333 -9.5 35.166 -28.5 47.499s-44.167 18.5 -75.5 18.5c-17.333 0 -33.166 -1.66699 -47.499 -5s-28.166 -7.66602 -41.499 -12.999l-13 -84l-73 8zM180.998 117.998c18 0 33.667 -6.66699 47 -20s20 -29.333 20 -48
c0 -17.333 -6.5 -32.666 -19.5 -45.999s-28.833 -20 -47.5 -20c-18 0 -33.667 6.66699 -47 20s-20 28.666 -20 45.999c0 18.667 6.66699 34.667 20 48s29 20 47 20z" />
    <glyph glyph-name="at" unicode="@" horiz-adv-x="762" 
d="M541 -65l-18.499 -11.998c-12.333 -8 -30.5 -15.833 -54.5 -23.5s-53 -11.5 -87 -11.5c-71.333 0 -130.333 14.5 -177 43.5s-81.667 68 -105 117s-35 103.833 -35 164.5c0 35.333 6.16699 72 18.5 110s31.5 73.333 57.5 106s59.667 59.167 101 79.5
s90.666 30.5 147.999 30.5c52 0 97.5 -8.5 136.5 -25.5s71.667 -40.167 98 -69.5s46.166 -62.833 59.499 -100.5s20 -76.834 20 -117.501c0 -42.667 -7.16699 -78.5 -21.5 -107.5s-32.833 -51.167 -55.5 -66.5s-46.334 -23 -71.001 -23
c-17.333 0 -33.166 3.66699 -47.499 11s-27.5 18.333 -39.5 33l-12 -11.5c-6.66699 -6.33301 -16.167 -12.5 -28.5 -18.5s-27.833 -9 -46.5 -9c-25.333 0 -49 5.5 -71 16.5s-40 28.833 -54 53.5s-21 57 -21 97c0 30.667 4.5 56.667 13.5 78s21.333 38.666 37 51.999
s33.334 23.166 53.001 29.499s40.167 9.5 61.5 9.5c19.333 0 37.5 -2.83301 54.5 -8.5s31.167 -11.5 42.5 -17.5s18 -10 20 -12v-220c3.33301 -5.33301 8.5 -10 15.5 -14s14.833 -6 23.5 -6c10 0 20.167 4 30.5 12s18.833 21.667 25.5 41s10 46 10 80
c0 30.667 -4.16699 60.5 -12.5 89.5s-21.666 55.167 -39.999 78.5s-42.333 41.833 -72 55.5s-65.834 20.5 -108.501 20.5c-44.667 0 -85.167 -10.333 -121.5 -31s-65 -50 -86 -88s-31.5 -83.667 -31.5 -137c0 -48.667 6.5 -89.5 19.5 -122.5s30.5 -59.167 52.5 -78.5
s46.833 -33.166 74.5 -41.499s56.5 -12.5 86.5 -12.5c20 0 39 2.33301 57 7s32.833 9.5 44.5 14.5s18.167 7.83301 19.5 8.5zM447.001 295.002c-1.33301 0.666992 -6.66797 2.66699 -16.001 6s-20 5 -32 5c-26.667 0 -47.167 -8.33301 -61.5 -25s-21.5 -43.667 -21.5 -81
c0 -36 7.33301 -62.167 22 -78.5s31.334 -24.5 50.001 -24.5c14.667 0 26 2.16699 34 6.5s13.833 8.5 17.5 12.5s6.16699 6.33301 7.5 7v172z" />
    <glyph glyph-name="A" unicode="A" horiz-adv-x="659" 
d="M9 0v78h97l162 433h-97v78h204l181 -511h94v-78h-248v78h61l-32 90h-211l-33 -90h62v-78h-240zM246 239h160l-76 245z" />
    <glyph glyph-name="B" unicode="B" horiz-adv-x="566" 
d="M38 0l-0.000976562 77.998h92v433h-92v78h257c73.333 0 129.166 -13.333 167.499 -40s57.5 -65 57.5 -115c0 -27.333 -7 -52.666 -21 -75.999s-33.667 -41.666 -59 -54.999c28.667 -10 52.334 -27.167 71.001 -51.5s28 -54.5 28 -90.5c0 -47.333 -16.167 -86 -48.5 -116
s-82.166 -45 -149.499 -45h-303zM219.999 78.998l113 0.000976562c36 0 63.5 7.83301 82.5 23.5s28.5 39.167 28.5 70.5c0 29.333 -9 51.666 -27 66.999s-44 23 -78 23h-119v-184zM219.999 330.999l120 0.000976562c28 0 49.167 8.16699 63.5 24.5s21.5 38.166 21.5 65.499
c0 60 -39.667 90 -119 90h-86v-180z" />
    <glyph glyph-name="C" unicode="C" horiz-adv-x="584" 
d="M445 507c-5.33301 3.33301 -13.333 6.66895 -24 10.002s-23.5 6.16602 -38.5 8.49902s-31.833 3.5 -50.5 3.5c-62.667 0 -110.5 -20.667 -143.5 -62s-49.5 -98.666 -49.5 -171.999c0 -74 17 -131.667 51 -173s81.333 -62 142 -62c16.667 0 32.334 1.33301 47.001 4
s27.834 5.66699 39.501 9s20.5 6.33301 26.5 9l20 82l76 -18l-26 -123l-22.5 -10c-15 -6.66699 -36.333 -13.167 -64 -19.5s-59.834 -9.5 -96.501 -9.5c-58 0 -108.5 12.333 -151.5 37s-76.5 60.167 -100.5 106.5s-36 102.166 -36 167.499c0 63.333 11.667 118.333 35 165
s56.666 82.667 99.999 108s94 37.666 152 36.999c44 0 79.667 -3.83301 107 -11.5s47.5 -15.5 60.5 -23.5s19.5 -12.333 19.5 -13l24 -123l-76 -17z" />
    <glyph glyph-name="D" unicode="D" horiz-adv-x="655" 
d="M306 589c96.667 0 171.833 -26.834 225.5 -80.501s80.5 -128.167 80.5 -223.5c0 -89.333 -26.167 -159.166 -78.5 -209.499s-125.5 -75.5 -219.5 -75.5h-276v78h92v433h-92v78h268zM295.999 77.999c73.333 0 128.5 17.5 165.5 52.5s55.5 86.167 55.5 153.5
c0 74.667 -17.833 131.167 -53.5 169.5s-88.167 57.5 -157.5 57.5h-86v-433h76z" />
    <glyph glyph-name="E" unicode="E" horiz-adv-x="593" 
d="M39 589h447l53 -160l-73 -25l-40 107h-204v-169h182v-78h-182l-1 -186h227l39 105l73 -25l-53 -158h-469v78h93l1 433h-93v78z" />
    <glyph glyph-name="F" unicode="F" horiz-adv-x="567" 
d="M39 589h446l54 -162l-73 -25l-40 109h-205v-174h162v-78h-163v-181h124v-78h-306v78h93l1 433h-93v78z" />
    <glyph glyph-name="G" unicode="G" horiz-adv-x="601" 
d="M541 55c-22.667 -16 -43.8311 -29.3301 -63.498 -39.9971s-41.334 -18.5 -65.001 -23.5s-52.167 -7.5 -85.5 -7.5c-54 0 -102.333 11.667 -145 35s-76.5 58 -101.5 104s-37.5 103.333 -37.5 172c0 63.333 12 118.166 36 164.499s57.667 82.166 101 107.499
s94.666 38 153.999 38c37.333 0 71.833 -4.66699 103.5 -14s59.834 -23.666 84.501 -42.999l25 -114l-77 -18l-19 83c-15.333 9.33301 -31.333 16.833 -48 22.5s-39 8.5 -67 8.5c-34 0 -66.167 -9.33301 -96.5 -28s-54.833 -45.334 -73.5 -80.001s-28 -77 -28 -127
c0 -54.667 8.66699 -99.334 26 -134.001s40.333 -60.167 69 -76.5s59.667 -24.5 93 -24.5c30.667 0 55.167 3 73.5 9s37.166 15 56.499 27v122h-128v76h213v-239z" />
    <glyph glyph-name="H" unicode="H" horiz-adv-x="720" 
d="M39 589h245v-78h-62l-1 -172h278l1 172h-62v78h244v-78h-92l-2 -433h93v-78h-244v78h62v184h-278l-1 -184h62v-78h-244v78h93l1 433h-93v78z" />
    <glyph glyph-name="I" unicode="I" horiz-adv-x="357" 
d="M39 589h280v-78h-93l-2 -433h95v-78h-281v78h97v433h-96v78z" />
    <glyph glyph-name="J" unicode="J" horiz-adv-x="518" 
d="M399 237c0 -53.333 -7.83203 -98.834 -23.499 -136.501s-38.667 -66.5 -69 -86.5s-67.833 -30 -112.5 -30c-23.333 0 -46.833 3 -70.5 9s-47.834 14 -72.501 24l-27 130l77 18l21 -91c13.333 -5.33301 26 -9.33301 38 -12s23 -4 33 -4c36 0 64.167 14.333 84.5 43
s30.5 70.334 30.5 125.001l1 285h-130v78h311v-78h-91v-274z" />
    <glyph glyph-name="K" unicode="K" horiz-adv-x="676" 
d="M38 589h243v-78h-62v-176h87l130 176h-67v78h250v-78h-92l-147 -197l162 -236h100v-78h-276v78h78l-122 180h-103v-180h62v-78h-243v78h92v433h-92v78z" />
    <glyph glyph-name="L" unicode="L" horiz-adv-x="555" 
d="M38 589h310v-78h-110l-2 -433h181l38 104l74 -25l-55 -157h-436v78h109l1 433h-110v78z" />
    <glyph glyph-name="M" unicode="M" horiz-adv-x="852" 
d="M41 589h233l158 -411l154 411h228v-78h-92v-433h92v-78h-246v78h64v438l-44 -131l-117 -314h-86l-126 319l-44 124l-3 -436h66v-78h-241v78h93l1 433h-90v78z" />
    <glyph glyph-name="N" unicode="N" horiz-adv-x="724" 
d="M39 589h232l243 -455v377h-82v78h265v-78h-96v-511h-108l-276 511l2 -433h84v-78h-265v78h94l-1 433h-92v78z" />
    <glyph glyph-name="O" unicode="O" horiz-adv-x="645" 
d="M321 605c56.667 0 105.833 -12.667 147.5 -38s74.167 -61.166 97.5 -107.499s35 -101.166 35 -164.499s-11.667 -118.166 -35 -164.499s-55.833 -82.333 -97.5 -108s-90.5 -38.5 -146.5 -38.5c-55.333 0 -103.833 12.833 -145.5 38.5s-74.167 61.667 -97.5 108
s-35 101.166 -35 164.499s11.5 118.166 34.5 164.499s55.333 82.166 97 107.499s90.167 38 145.5 38zM321.999 528c-58 0 -103 -20.333 -135 -61s-48 -98 -48 -172c0 -74.667 16 -132.334 48 -173.001s77 -61 135 -61c58.667 0 104.167 20.333 136.5 61
s48.5 98.334 48.5 173.001c0 74 -16.167 131.333 -48.5 172s-77.833 61 -136.5 61z" />
    <glyph glyph-name="P" unicode="P" horiz-adv-x="547" 
d="M302 589c72.667 0 128.334 -15.832 167.001 -47.499s58 -77.834 58 -138.501c0 -62 -19.333 -109.167 -58 -141.5s-94.334 -48.5 -167.001 -48.5h-83v-135h114v-78h-295v78h91v433h-91v78h264zM301 289.001c87.333 0 131 37.333 131 112c0 73.333 -43.667 110 -131 110
h-81v-222h81z" />
    <glyph glyph-name="Q" unicode="Q" horiz-adv-x="671" 
d="M469 22c-42.667 -25.333 -91.666 -38.001 -146.999 -38.001c-54.667 0 -102.834 12.5 -144.501 37.5s-74.334 60.833 -98.001 107.5s-35.5 102 -35.5 166c0 64.667 11.667 120.167 35 166.5s55.833 81.833 97.5 106.5s89.834 37 144.501 37c56 0 105 -12.333 147 -37
s74.667 -60.167 98 -106.5s35 -101.833 35 -166.5c0 -48.667 -6.83301 -92.167 -20.5 -130.5s-33.167 -71.166 -58.5 -98.499l130 -76l-59 -73zM322.001 528.999c-61.333 0 -107.166 -20.333 -137.499 -61s-45.5 -98.334 -45.5 -173.001s15.167 -132.5 45.5 -173.5
s76.166 -61.5 137.499 -61.5c62 0 108.333 20.5 139 61.5s46 98.833 46 173.5s-15.333 132.334 -46 173.001s-77 61 -139 61z" />
    <glyph glyph-name="R" unicode="R" horiz-adv-x="618" 
d="M38 0l0.000976562 78h91v433h-91v78h265c56 0 100.167 -7 132.5 -21s55.333 -34.5 69 -61.5s20.5 -60.167 20.5 -99.5c0 -60.667 -16.333 -106.667 -49 -138s-88.334 -47 -167.001 -47h-90v-144h60v-78h-241zM220.001 301l81.998 0.00195312
c28.667 0 52.334 2.66699 71.001 8s32.834 15.666 42.501 30.999s14.5 37.333 14.5 66s-5 50.667 -15 66s-24.5 25.666 -43.5 30.999s-42.167 8 -69.5 8h-82v-210zM434.999 0.00195312l-125 229l91 12l96 -163h93v-78h-155z" />
    <glyph glyph-name="S" unicode="S" horiz-adv-x="543" 
d="M275 -16c-47.333 0 -88.6689 4.16895 -124.002 12.502s-65 16.833 -89 25.5l-19 126l74 8l13 -75c20 -6.66699 41 -12 63 -16s48.667 -6 80 -6c24.667 0 47.5 3.33301 68.5 10s38 17.5 51 32.5s19.5 34.833 19.5 59.5c0 25.333 -6.83301 47 -20.5 65s-40.5 30 -80.5 36
l-75 11c-58 9.33301 -102.5 28.666 -133.5 57.999s-46.5 66.333 -46.5 111c0 32.667 8.33301 61.167 25 85.5s41.334 43.333 74.001 57s72.334 20.5 119.001 20.5c24.667 0 47.334 -1 68.001 -3s40.667 -5.5 60 -10.5s39.666 -11.833 60.999 -20.5l18 -130l-76 -8l-13 83
c-13.333 4.66699 -30 8.5 -50 11.5s-43 4.5 -69 4.5c-41.333 0 -74.166 -7.5 -98.499 -22.5s-36.5 -36.167 -36.5 -63.5c0 -26.667 8.83301 -47.334 26.5 -62.001s43.5 -24.667 77.5 -30l87 -14c58.667 -8.66699 101.667 -27.667 129 -57s41 -66 41 -110
c0 -32.667 -6.33301 -61.167 -19 -85.5s-29.5 -44 -50.5 -59s-44.833 -26.167 -71.5 -33.5s-54.334 -11 -83.001 -11z" />
    <glyph glyph-name="T" unicode="T" horiz-adv-x="591" 
d="M34 589h520v-174h-83v96h-131l-2 -433h92v-78h-274v78h92l1 433h-131v-96h-84v174z" />
    <glyph glyph-name="U" unicode="U" horiz-adv-x="681" 
d="M560 214c0 -70 -18 -125.833 -54 -167.5s-92.333 -62.5 -169 -62.5c-74.667 0 -129.5 20.833 -164.5 62.5s-52.5 97.5 -52.5 167.5v297h-93v78h246v-78h-63v-322c0 -45.333 11.5 -78.333 34.5 -99s53.833 -31 92.5 -31c40.667 0 73 11.333 97 34s36 58 36 106v312h-62v78
h245v-78h-93v-297z" />
    <glyph glyph-name="V" unicode="V" horiz-adv-x="662" 
d="M5 589h252v-78h-64l100 -263l49 -151l45 145l96 269h-65v78h239v-78h-88l-178 -511h-99l-196 511h-91v78z" />
    <glyph glyph-name="W" unicode="W" horiz-adv-x="918" 
d="M2 589h251v-78h-62l78 -270l40 -142l29 138l79 277h103l70 -272l30 -142l39 142l84 269h-64v78h237v-78h-89l-161 -511h-104l-68 268l-31 133l-37 -136l-70 -265h-99l-162 511h-93v78z" />
    <glyph glyph-name="X" unicode="X" horiz-adv-x="674" 
d="M22 0v77h89l167 222l-170 212h-85v78h257v-78h-62l119 -149l114 149h-65v78h253v-78h-93l-158 -209l179 -225h91v-77h-269v77h70l-130 161l-123 -161h68v-77h-252z" />
    <glyph glyph-name="Y" unicode="Y" horiz-adv-x="654" 
d="M5 589h248v-78h-56l135 -189l147 189h-72v78h243v-78h-69l-208 -259l-1 -174h94v-78h-277v78h94l1 171l-197 262h-82v78z" />
    <glyph glyph-name="Z" unicode="Z" horiz-adv-x="543" 
d="M61 589h427v-58l-329 -453h238l38 104l75 -25l-53 -157h-414v63l325 448h-242l-19 -95l-74 11z" />
    <glyph glyph-name="bracketleft" unicode="[" horiz-adv-x="238" 
d="M56 655h185v-71h-99v-640h99v-71h-185v782z" />
    <glyph glyph-name="backslash" unicode="\" horiz-adv-x="360" 
d="M-26 589h84l328 -720h-85z" />
    <glyph glyph-name="bracketright" unicode="]" horiz-adv-x="237" 
d="M-3 655h184v-782h-184v71h99v640h-99v71z" />
    <glyph glyph-name="asciicircum" unicode="^" horiz-adv-x="474" 
d="M277 717l188 -288l-63 -47l-153 231h-7l-152 -231l-63 47l188 288h62z" />
    <glyph glyph-name="underscore" unicode="_" horiz-adv-x="597" 
d="M64 -18h469v-77h-469v77z" />
    <glyph glyph-name="grave" unicode="`" horiz-adv-x="288" 
d="M199 491l-151 169l64 48l127 -188z" />
    <glyph glyph-name="a" unicode="a" horiz-adv-x="532" 
d="M355 27c-44.667 -28.667 -91.999 -43 -141.999 -43c-57.333 0 -101 11.5 -131 34.5s-45.333 56.5 -46 100.5c-0.666992 88.667 56.333 133 171 133h124c0 43.333 -8.33301 75.5 -25 96.5s-41 31.5 -73 31.5c-15.333 0 -30.333 -1 -45 -3s-28.667 -5 -42 -9l-10 -54
l-72 13l17 95c25.333 9.33301 50.666 16.333 75.999 21s50.333 7 75 7c61.333 0 107.833 -16.5 139.5 -49.5s47.5 -81.5 47.5 -145.5v-172l92 -30l-23 -72zM210.001 186c-26.667 0 -47.333 -5.66797 -62 -17.001s-22 -27.666 -22 -48.999c0 -44 30.333 -66 91 -66
c43.333 0 81.333 11.667 114 35v96z" />
    <glyph glyph-name="b" unicode="b" horiz-adv-x="525" 
d="M260 -16c-36 0 -70.834 4.66797 -104.501 14.001s-63.5 23.333 -89.5 42v511l-96 33l24 71l159 -54v-183c39.333 21.333 77.333 32 114 32c73.333 0 127.5 -18.333 162.5 -55s52.5 -92.667 52.5 -168c0 -82.667 -18.167 -143.834 -54.5 -183.501
s-92.166 -59.5 -167.499 -59.5zM258.999 56.001c45.333 0 78.834 13.832 100.501 41.499s32.5 70.834 32.5 129.501c0 52 -10.333 90.167 -31 114.5s-52.334 36.5 -95.001 36.5c-38 0 -75.667 -12 -113 -36v-264c28 -14.667 63.333 -22 106 -22z" />
    <glyph glyph-name="c" unicode="c" horiz-adv-x="477" 
d="M355 369c-14.667 4.66699 -28.3369 8.00098 -41.0039 10.001s-27 3 -43 3c-43.333 0 -77.666 -13.833 -102.999 -41.5s-38 -69.167 -38 -124.5c0 -52 13.833 -91.5 41.5 -118.5s60.834 -40.5 99.501 -40.5c21.333 0 42.833 3.66699 64.5 11s43.167 18 64.5 32l37 -54
c-17.333 -12.667 -34.166 -23.667 -50.499 -33s-34.166 -16.5 -53.499 -21.5s-42.666 -7.5 -69.999 -7.5c-44 0 -82.833 9.16699 -116.5 27.5s-59.834 45 -78.501 80s-28 76.5 -28 124.5c0 51.333 10 94.5 30 129.5s47.5 61.5 82.5 79.5s74.833 27 119.5 27
c26 0 50.833 -2.83301 74.5 -8.5s49.5 -12.834 77.5 -21.501l17 -114l-73 -16z" />
    <glyph glyph-name="d" unicode="d" horiz-adv-x="570" 
d="M526 -19l-131.002 45.999c-40 -28.667 -83.667 -43 -131 -43c-70.667 0 -125.5 21.333 -164.5 64s-58.5 101.667 -58.5 177c0 70.667 19.5 125.834 58.5 165.501s93.833 59.5 164.5 59.5c16.667 0 34.334 -1.66699 53.001 -5s36.334 -8.33301 53.001 -15v121l-96 33
l24 71l160 -54v-515l91 -32zM264.998 55.999c16 0 33.499 3 52.499 9s36.5 14 52.5 24v266c-14 6.66699 -30.667 12.167 -50 16.5s-37.666 6.5 -54.999 6.5c-40 0 -72.333 -13.833 -97 -41.5s-37 -64.5 -37 -110.5c0 -51.333 12.333 -92.5 37 -123.5s57 -46.5 97 -46.5z" />
    <glyph glyph-name="e" unicode="e" horiz-adv-x="499" 
d="M454 52c-27.333 -23.333 -55.5 -40.501 -84.5 -51.501s-60.833 -16.5 -95.5 -16.5c-47.333 0 -88.833 9.5 -124.5 28.5s-63.167 45.833 -82.5 80.5s-29 76 -29 124c0 46.667 9.16699 87.5 27.5 122.5s44.333 62.167 78 81.5s72.5 29 116.5 29c42 0 78 -8.83301 108 -26.5
s53.333 -42.334 70 -74.001s25 -69.167 25 -112.5c0 -6.66699 -0.333008 -13.667 -1 -21l-2 -22l-336 -2c2 -31.333 10 -57.166 24 -77.499s32 -35.166 54 -44.499s45.333 -14 70 -14c28.667 0 55 4.16699 79 12.5s46 20.5 66 36.5zM376 258.999
c-0.666992 36.667 -11.332 66.167 -31.999 88.5s-48.334 33.5 -83.001 33.5c-34 0 -64 -11.167 -90 -33.5s-41.333 -51.833 -46 -88.5h251z" />
    <glyph glyph-name="f" unicode="f" horiz-adv-x="361" 
d="M122 489c0 55.333 15.667 98.167 47 128.5s76 45.5 134 45.5c25.333 0 49.333 -3.66699 72 -11s41.667 -17.666 57 -30.999l-33 -62c-26 21.333 -58 32 -96 32c-29.333 0 -52.333 -9.83301 -69 -29.5s-25 -47.834 -25 -84.501v-43h124v-70h-124v-294h90v-70h-261v70h84
v294h-84v70h84v55z" />
    <glyph glyph-name="g" unicode="g" horiz-adv-x="546" 
d="M234 117c-62.667 0 -111.831 14.3301 -147.498 42.9971s-53.5 68.334 -53.5 119.001c0 52.667 18.167 94.334 54.5 125.001s85.5 46 147.5 46c25.333 0 47.666 -2.16699 66.999 -6.5s37.666 -11.166 54.999 -20.499l145 53l26 -76l-119 -25
c10 -12 17.5 -25.833 22.5 -41.5s7.5 -32.167 7.5 -49.5c0 -35.333 -8.66699 -65.5 -26 -90.5s-41.5 -44 -72.5 -57s-66.5 -19.5 -106.5 -19.5zM242.003 -228.003c-26 0 -53.501 2.50195 -82.501 7.50195s-55.833 11.333 -80.5 19s-43.334 15.167 -56.001 22.5l32 67
c26 -12.667 56 -22.667 90 -30s66.333 -11 97 -11c28.667 0 52.667 2.16699 72 6.5s34 11 44 20s15 19.833 15 32.5c0 19.333 -8 33.666 -24 42.999s-40.333 14 -73 14h-147v196l80 -23v-102h86c54.667 0 95.834 -10.5 123.501 -31.5s41.5 -51.5 41.5 -91.5
c0 -30 -9.16699 -55.333 -27.5 -76s-43.666 -36.334 -75.999 -47.001s-70.5 -16 -114.5 -16zM236.002 186.999c36 0 64.333 9 85 27s31 41 31 69c0 30.667 -9.83301 54.5 -29.5 71.5s-48.5 25.5 -86.5 25.5s-66.833 -8.5 -86.5 -25.5s-29.5 -40.833 -29.5 -71.5
c0 -28 10.333 -51 31 -69s49 -27 85 -27z" />
    <glyph glyph-name="h" unicode="h" horiz-adv-x="611" 
d="M21 0v70h84v483l-95 33l23 70l160 -55v-192c43.333 27.333 88.333 41 135 41c59.333 0 103.333 -14.167 132 -42.5s43 -71.833 43 -130.5v-207h84v-70h-216v70h44v191c0 40.667 -8 70.167 -24 88.5s-41.667 27.5 -77 27.5c-20 0 -41.167 -2.83301 -63.5 -8.5
s-41.5 -13.5 -57.5 -23.5v-275h44v-70h-216z" />
    <glyph glyph-name="i" unicode="i" horiz-adv-x="315" 
d="M37 434h172v-364h83v-70h-255v70h83v294h-83v70zM154 648c19.333 0 34.833 -5.83301 46.5 -17.5s17.5 -27.167 17.5 -46.5s-5.83301 -34.833 -17.5 -46.5s-27.167 -17.5 -46.5 -17.5s-34.666 5.83301 -45.999 17.5s-17 27.167 -17 46.5s5.66699 34.833 17 46.5
s26.666 17.5 45.999 17.5z" />
    <glyph glyph-name="j" unicode="j" horiz-adv-x="262" 
d="M195 -32c0 -21.333 -1.16699 -43.3311 -3.5 -65.998s-9 -43.834 -20 -63.501s-29 -35.667 -54 -48s-60.5 -18.5 -106.5 -18.5c-8.66699 0 -18.5 0.666992 -29.5 2s-19.833 2.66602 -26.5 3.99902l11 68c6.66699 -0.666992 14 -1.16699 22 -1.5s15.667 -0.5 23 -0.5
c26 0 45.667 3.66699 59 11s22.5 17 27.5 29s7.83301 24.667 8.5 38s1 26 1 38v404h-84v70h172v-466zM142 648.002c19.333 0 34.833 -5.83301 46.5 -17.5s17.5 -27.167 17.5 -46.5s-5.83301 -34.833 -17.5 -46.5s-27.167 -17.5 -46.5 -17.5s-34.666 5.83301 -45.999 17.5
s-17 27.167 -17 46.5s5.66699 34.833 17 46.5s26.666 17.5 45.999 17.5z" />
    <glyph glyph-name="k" unicode="k" horiz-adv-x="561" 
d="M36 657l159 -55v-348h86l65 110h-52v70h219v-70h-82l-84 -140l95 -154h85v-70h-135l-112 184h-85v-114h42v-70h-214v70h84v484l-95 33z" />
    <glyph glyph-name="l" unicode="l" horiz-adv-x="304" 
d="M25 0v70h84v492l-99 24l20 72l167 -43v-545h84v-70h-256z" />
    <glyph glyph-name="m" unicode="m" horiz-adv-x="894" 
d="M43 0l0.000976562 70.001h84v276l-96 32l23 70l135 -46c19.333 15.333 41.333 27.166 66 35.499s48.667 12.5 72 12.5c32 0 60 -4.33301 84 -13s43.333 -22 58 -40c17.333 15.333 39.166 28 65.499 38s52.5 15 78.5 15c60.667 0 104.667 -13.833 132 -41.5
s41 -72.5 41 -134.5v-204h85v-70h-216v70h43v191c0 42 -7 71.833 -21 89.5s-38 26.5 -72 26.5c-20 0 -39.667 -3.16699 -59 -9.5s-34.333 -14.5 -45 -24.5v-273h43v-70h-175v70h44v191c0 42 -7.16699 71.833 -21.5 89.5s-38.5 26.5 -72.5 26.5
c-20 0 -39.667 -3.16699 -59 -9.5s-34.333 -14.5 -45 -24.5v-273h44v-70h-216z" />
    <glyph glyph-name="n" unicode="n" horiz-adv-x="632" 
d="M43 0l-0.000976562 70h84v275l-96 33l23 70l135 -47c24 16 49.167 28.167 75.5 36.5s53.833 12.5 82.5 12.5c34.667 0 65.334 -6.66699 92.001 -20s47.667 -33 63 -59s23 -57.667 23 -95v-206h83v-70h-215v70h44v190c0 40 -9.83301 69.333 -29.5 88s-45.5 28 -77.5 28
c-18.667 0 -38 -2.83301 -58 -8.5s-39 -14.167 -57 -25.5v-272h44v-70h-216z" />
    <glyph glyph-name="o" unicode="o" horiz-adv-x="530" 
d="M264 450c46 0 85.832 -9.33398 119.499 -28.001s59.834 -45.334 78.501 -80.001s28 -76.667 28 -126c0 -72 -20.5 -128.667 -61.5 -170s-95.833 -62 -164.5 -62c-44.667 0 -83.667 9.33301 -117 28s-59.166 45.334 -77.499 80.001s-27.5 76 -27.5 124
c0 49.333 9.16699 91.333 27.5 126s44.166 61.334 77.499 80.001s72.333 28 117 28zM264.999 377.999c-44.667 0 -78.167 -14 -100.5 -42s-33.5 -68 -33.5 -120c0 -51.333 11.167 -90.833 33.5 -118.5s55.833 -41.5 100.5 -41.5c45.333 0 79.333 13.833 102 41.5
s34 67.167 34 118.5c0 52 -11.333 92 -34 120s-56.667 42 -102 42z" />
    <glyph glyph-name="p" unicode="p" horiz-adv-x="571" 
d="M30 -211v68.999h84v491l-94 31l23 72l136 -47c21.333 14 44 25 68 33s46.333 12 67 12c67.333 0 120.333 -19.667 159 -59s58 -93.666 58 -162.999c0 -48 -9.33301 -90.5 -28 -127.5s-44.667 -65.667 -78 -86s-72.333 -30.5 -117 -30.5c-36.667 0 -72 5 -106 15v-141h84
v-69h-256zM307 54.999c42 0 74.834 15.168 98.501 45.501s35.5 72.833 35.5 127.5c0 49.333 -10.833 86.666 -32.5 111.999s-53.834 38 -96.501 38c-20 0 -40.333 -3.33301 -61 -10s-37 -15.667 -49 -27v-263c11.333 -6.66699 26.833 -12.167 46.5 -16.5
s39.167 -6.5 58.5 -6.5z" />
    <glyph glyph-name="q" unicode="q" horiz-adv-x="523" 
d="M283 -211v68.998h87v156c-16 -9.33301 -33.833 -16.666 -53.5 -21.999s-38.167 -8 -55.5 -8c-69.333 0 -123.333 21.5 -162 64.5s-58 102.167 -58 177.5c0 70.667 21 125.667 63 165s98.667 59 170 59c35.333 0 69 -4.66699 101 -14s60 -23.666 84 -42.999v-535h80v-69
h-256zM264 55.998c17.333 0 35.667 2.99902 55 8.99902s36.333 14 51 24v263c-14 8 -29.333 14.333 -46 19s-36.667 7 -60 7c-40 0 -72.167 -13.833 -96.5 -41.5s-36.5 -64.167 -36.5 -109.5c0 -51.333 12.167 -92.666 36.5 -123.999s56.5 -47 96.5 -47z" />
    <glyph glyph-name="r" unicode="r" horiz-adv-x="433" 
d="M192 400c24 16.667 50.001 29.167 78.001 37.5s56 12.5 84 12.5c24 0 39.667 -2 47 -6l17 -110l-73 -15l-10 55c-21.333 -0.666992 -42.333 -4 -63 -10s-39.334 -14.333 -56.001 -25l-1 -269h98v-70h-269v70h84v274l-96 33l23 70z" />
    <glyph glyph-name="s" unicode="s" horiz-adv-x="454" 
d="M314 367c-14 5.33301 -27.4951 9.50293 -40.4951 12.5029s-29.167 4.5 -48.5 4.5c-24.667 0 -46.834 -5.16699 -66.501 -15.5s-29.5 -25.5 -29.5 -45.5c0 -18.667 7.5 -33.334 22.5 -44.001s37.833 -17.667 68.5 -21l47 -6c54 -5.33301 92.167 -18.833 114.5 -40.5
s33.5 -50.834 33.5 -87.501c0 -28.667 -8 -53.667 -24 -75s-37.833 -37.5 -65.5 -48.5s-59.5 -16.5 -95.5 -16.5c-34 0 -66.333 4.16699 -97 12.5s-57.334 19.166 -80.001 32.499l-18 102l77 17l13 -66c15.333 -8 31.666 -14.167 48.999 -18.5s34.666 -6.5 51.999 -6.5
c29.333 0 54.833 5.5 76.5 16.5s32.5 27.167 32.5 48.5c0 18.667 -6.33301 32.167 -19 40.5s-35 14.5 -67 18.5l-48 6c-48.667 6 -86.167 20.5 -112.5 43.5s-39.5 51.833 -39.5 86.5c0 29.333 8.16699 54 24.5 74s38 35 65 45s55.833 15 86.5 15
c31.333 0 59.666 -3.16699 84.999 -9.5s49.333 -15.833 72 -28.5l18 -95l-69 -15z" />
    <glyph glyph-name="t" unicode="t" horiz-adv-x="374" 
d="M254 -16c-26.667 0 -51.168 5.16699 -73.501 15.5s-40.166 27.833 -53.499 52.5s-20 58.334 -20 101.001v211h-83v70h83v94l86 22v-116h124v-70h-124v-171c0 -42.667 4.5 -76.834 13.5 -102.501s27.5 -38.5 55.5 -38.5c20 0 43 6.33301 69 19l17 -64
c-14.667 -6 -30 -11.333 -46 -16s-32 -7 -48 -7z" />
    <glyph glyph-name="u" unicode="u" horiz-adv-x="617" 
d="M437 28c-21.333 -13.333 -45.333 -24 -72 -32s-51.667 -12 -75 -12c-63.333 0 -109.833 14 -139.5 42s-44.5 71.667 -44.5 131v207h-83v70h171v-260c0 -40.667 8 -70.167 24 -88.5s41.667 -27.5 77 -27.5c19.333 0 40.5 3 63.5 9s42.167 13.667 57.5 23v274h-83v70h171
v-348l92 -31l-23 -74z" />
    <glyph glyph-name="v" unicode="v" horiz-adv-x="581" 
d="M3 434h219v-70h-48l84 -199l36 -88l36 88l84 199h-47v70h211v-70h-74l-164 -364h-98l-159 364h-80v70z" />
    <glyph glyph-name="w" unicode="w" horiz-adv-x="755" 
d="M201 0l-119 364h-79v70h230v-70h-63l51 -166l32 -105l30 103l54 176h87l55 -180l30 -101l29 97l56 176h-56v70h214v-70h-79l-120 -364h-89l-84 268l-88 -268h-91z" />
    <glyph glyph-name="x" unicode="x" horiz-adv-x="599" 
d="M27 0v70h87l128 150l-139 144h-76v70h233v-70h-49l97 -103l86 103h-42v70h208v-70h-75l-128 -151l139 -143h82v-70h-234v70h45l-97 101l-87 -101h43v-70h-221z" />
    <glyph glyph-name="y" unicode="y" horiz-adv-x="558" 
d="M151 -229c-10.667 0 -22 1 -34 3s-24.667 5.33301 -38 10l15 68c9.33301 -3.33301 18.333 -5.83301 27 -7.5s17 -2.5 25 -2.5c18 0 32.833 3.16699 44.5 9.5s22.5 18 32.5 35s20.667 41.833 32 74.5l144 403h-54l1 70h210v-70h-74l-168 -450
c-18 -47.333 -40.167 -83 -66.5 -107s-58.5 -36 -96.5 -36zM277 -69l-203 433h-72v70h218v-70h-56l150 -345z" />
    <glyph glyph-name="z" unicode="z" horiz-adv-x="464" 
d="M44 0v60l263 304h-190l-11 -56l-75 15l21 111h358v-57l-265 -307h200l10 61l77 -14l-23 -117h-365z" />
    <glyph glyph-name="braceleft" unicode="{" horiz-adv-x="244" 
d="M54 287c9.33301 0 15.833 4.50195 19.5 13.502s5.83398 19.667 6.50098 32s1 23.5 1 33.5v113c0 34.667 5.16699 64.334 15.5 89.001s27.166 44.167 50.499 58.5s54 22.833 92 25.5l9 -71c-24.667 -2.66699 -43.334 -9.33398 -56.001 -20.001
s-21.334 -24.334 -26.001 -41.001s-7 -35.667 -7 -57v-121c0 -24 -5 -42.667 -15 -56s-22.667 -23.666 -38 -30.999c15.333 -6.66699 28 -16.834 38 -30.501s15 -32.167 15 -55.5v-113c0 -21.333 2.33301 -40.333 7 -57s13.334 -30.334 26.001 -41.001
s31.334 -17.667 56.001 -21l-9 -70c-38 2.66699 -68.667 11.167 -92 25.5s-40.166 34 -50.499 59s-15.5 54.5 -15.5 88.5v105c0 11.333 -0.333008 23 -1 35s-2.83398 22.333 -6.50098 31s-10.167 13 -19.5 13h-67v63h67z" />
    <glyph glyph-name="bar" unicode="|" horiz-adv-x="297" 
d="M108 653h80v-864h-80v864z" />
    <glyph glyph-name="braceright" unicode="}" horiz-adv-x="245" 
d="M191 224c-9.33301 0 -15.833 -4.33496 -19.5 -13.002s-5.83398 -19 -6.50098 -31s-1 -23.667 -1 -35v-105c0 -34 -5.33301 -63.5 -16 -88.5s-27.5 -44.667 -50.5 -59s-53.5 -22.833 -91.5 -25.5l-10 70c25.333 3.33301 44.333 10.333 57 21s21.167 24.334 25.5 41.001
s6.5 35.667 6.5 57v113c0 23.333 5 41.833 15 55.5s23 23.834 39 30.501c-16 7.33301 -29 17.666 -39 30.999s-15 32 -15 56v121c0 21.333 -2.16699 40.333 -6.5 57s-12.833 30.334 -25.5 41.001s-31.667 17.334 -57 20.001l10 71c38 -2.66699 68.5 -11.167 91.5 -25.5
s39.833 -33.833 50.5 -58.5s16 -54.334 16 -89.001v-113c0 -10 0.333008 -21.167 1 -33.5s2.83398 -23 6.50098 -32s10.167 -13.5 19.5 -13.5h67v-63h-67z" />
    <glyph glyph-name="asciitilde" unicode="~" horiz-adv-x="474" 
d="M85 247l-42.002 55.998c20.667 15.333 39.667 27.666 57 36.999s38.333 14 63 14c20.667 0 39.834 -3.5 57.501 -10.5s34.334 -14.167 50.001 -21.5s31.5 -11 47.5 -11c10.667 0 21.667 1.83301 33 5.5s25 12.834 41 27.501l39 -55
c-17.333 -13.333 -32 -23.666 -44 -30.999s-23.833 -12.666 -35.5 -15.999s-25.5 -5 -41.5 -5c-15.333 0 -30.833 3.33301 -46.5 10l-47 21c-15.667 7.33301 -31.5 11 -47.5 11c-16.667 0 -31 -2.66699 -43 -8s-25.667 -13.333 -41 -24z" />
    <glyph glyph-name="uni00A0" unicode="&#xa0;" horiz-adv-x="248" 
 />
    <glyph glyph-name="exclamdown" unicode="&#xa1;" horiz-adv-x="215" 
d="M74 240h66l15 -443h-93zM107 445c18 0 33.667 -6.5 47 -19.5s20 -28.833 20 -47.5c0 -18 -6.66699 -33.667 -20 -47s-29 -20 -47 -20s-33.667 6.66699 -47 20s-20 29 -20 47c0 18.667 6.66699 34.5 20 47.5s29 19.5 47 19.5z" />
    <glyph glyph-name="cent" unicode="&#xa2;" horiz-adv-x="437" 
d="M323 441c-4 2.66699 -10.333 5.33301 -19 8s-17.667 4 -27 4v-319c17.333 3.33301 36 9 56 17s36.333 16.333 49 25l37 -54c-26 -16.667 -51 -30.167 -75 -40.5s-46.333 -16.833 -67 -19.5v-94h-73v95c-56.667 8.66699 -101.167 33.167 -133.5 73.5
s-48.5 92.166 -48.5 155.499c0 62.667 16.167 114.667 48.5 156s76.833 66 133.5 74v97h73v-95c22 -1.33301 43.333 -4.16602 64 -8.49902s36 -9.5 46 -15.5l22 -113l-73 -16zM204 448.999c-62.667 -16 -94 -68.333 -94 -157c0 -88 31.333 -140 94 -156v313z" />
    <glyph glyph-name="sterling" unicode="&#xa3;" horiz-adv-x="543" 
d="M208 302c8 -37.333 11.6729 -68.001 11.0059 -92.001s-6.83398 -45.667 -18.501 -65s-30.834 -41.333 -57.501 -66l2 -3c14 9.33301 28 15.666 42 18.999s28.667 5 44 5c22.667 0 42.667 -3.16699 60 -9.5l51 -19c16.667 -6.33301 34.667 -9.5 54 -9.5
c14.667 0 29.5 3 44.5 9s28.833 14 41.5 24l40 -63c-16.667 -14 -37.334 -25.5 -62.001 -34.5s-47.667 -13.5 -69 -13.5c-24 0 -44.333 2.16699 -61 6.5s-31.834 9.33301 -45.501 15s-27.334 10.834 -41.001 15.501s-29.5 7 -47.5 7c-22 0 -43 -3.33301 -63 -10
s-41.667 -18 -65 -34l-43 58c30.667 21.333 54.667 43.333 72 66s28.333 48.334 33 77.001s3.66699 61 -3 97c-14.667 70 -17.334 129.167 -8.00098 177.5s30.5 84.833 63.5 109.5s77.5 37 133.5 37c22 0 41.5 -1.5 58.5 -4.5s34 -8 51 -15s35.833 -16.5 56.5 -28.5l21 -133
l-70 -11l-22 101c-15.333 10 -30.5 16.5 -45.5 19.5s-32.833 4.83301 -53.5 5.5c-28.667 0.666992 -53 -7.5 -73 -24.5s-33 -43.167 -39 -78.5s-3.33301 -80.333 8 -135zM368.006 324.999v-63h-329v63h329z" />
    <glyph glyph-name="currency" unicode="&#xa4;" horiz-adv-x="503" 
d="M82 95l-41.001 59.998l67 44c-20 28.667 -29.833 60.834 -29.5 96.501s10.5 67.834 30.5 96.501l-67 45l40 60l82 -56c25.333 14 53.833 21.167 85.5 21.5s60.834 -6.5 87.501 -20.5l81 55l40 -59l-65 -44c15.333 -20 25.333 -41.667 30 -65
s4.83398 -46.5 0.500977 -69.5s-13.5 -43.5 -27.5 -61.5l63 -42l-41 -60l-79 53c-26.667 -14 -56.334 -21 -89.001 -21s-61.667 7.33301 -87 22zM250.999 190.998c29.333 0 53.833 10.167 73.5 30.5s29.5 44.5 29.5 72.5c0 28.667 -9.83301 53.334 -29.5 74.001
s-44.167 31 -73.5 31c-28 0 -52 -10.333 -72 -31s-30 -45.334 -30 -74.001c0 -28 10 -52.167 30 -72.5s44 -30.5 72 -30.5z" />
    <glyph glyph-name="yen" unicode="&#xa5;" horiz-adv-x="661" 
d="M192 0v78h94v55h-159v60h159v42h-159v60h140l-177 216h-82v78h248v-78h-54l135 -173l128 173h-55v78h243v-78h-93l-166 -216h140v-60h-158v-42h158v-60h-158l-1 -55h94v-78h-277z" />
    <glyph glyph-name="brokenbar" unicode="&#xa6;" horiz-adv-x="296" 
d="M108 658h80v-360h-80v360zM108 146h80v-358h-80v358z" />
    <glyph glyph-name="section" unicode="&#xa7;" horiz-adv-x="520" 
d="M277 206c57.333 -17.333 98.0029 -38.0029 122.003 -62.0029s35.667 -54.667 35 -92c0 -28 -8.66699 -52.5 -26 -73.5s-39.833 -37.167 -67.5 -48.5s-57.834 -17 -90.501 -17c-30.667 0 -60.334 4 -89.001 12s-55.334 20.667 -80.001 38l-15 90l69 14l12 -54
c11.333 -10 25.166 -17.5 41.499 -22.5s36.5 -7.5 60.5 -7.5c30.667 0 54.834 5.83301 72.501 17.5s26.5 28.834 26.5 51.501c0 19.333 -10.667 35.833 -32 49.5s-53 26.834 -95 39.501c-42.667 13.333 -76.334 32.333 -101.001 57s-37 52.667 -37 84
c0 26 7.83301 48.333 23.5 67s35.834 31.334 60.501 38.001l50 -24c-17.333 -4 -30.333 -12.333 -39 -25s-13 -26.667 -13 -42c0 -19.333 9 -36 27 -50s46.333 -27.333 85 -40zM287.003 152.997c44.667 22 67 51.998 67 89.998c0 22 -8.16699 41.333 -24.5 58
s-45.5 31.334 -87.5 44.001c-46.667 14 -82.667 33.167 -108 57.5s-38 51.833 -38 82.5c0 29.333 8 53.833 24 73.5s37.333 34.334 64 44.001s56.334 14.5 89.001 14.5c28 0 55.667 -4.33301 83 -13s51.333 -20.667 72 -36l14 -94l-75 -13l-12 67c-26 14 -53.333 21 -82 21
s-51.5 -4.5 -68.5 -13.5s-25.5 -23.5 -25.5 -43.5c0 -16 8.66699 -30.667 26 -44s45.666 -26.333 84.999 -39c46 -14.667 82.167 -35 108.5 -61s39.5 -56.667 39.5 -92c0 -50.667 -29.667 -92.667 -89 -126z" />
    <glyph glyph-name="dieresis" unicode="&#xa8;" horiz-adv-x="381" 
d="M280 616c16 0 29.833 -5.83301 41.5 -17.5s17.5 -25.834 17.5 -42.501c0 -16 -5.83301 -29.833 -17.5 -41.5s-25.5 -17.5 -41.5 -17.5s-30 5.83301 -42 17.5s-18 25.5 -18 41.5c0 16.667 6 30.834 18 42.501s26 17.5 42 17.5zM98 616
c16.667 0 30.834 -5.83301 42.501 -17.5s17.5 -25.834 17.5 -42.501c0 -16 -5.83301 -29.833 -17.5 -41.5s-25.834 -17.5 -42.501 -17.5c-16 0 -29.833 5.83301 -41.5 17.5s-17.5 25.5 -17.5 41.5c0 16.667 5.83301 30.834 17.5 42.501s25.5 17.5 41.5 17.5z" />
    <glyph glyph-name="copyright" unicode="&#xa9;" horiz-adv-x="847" 
d="M425 657c52.667 0 101 -9 145 -27s82 -43.167 114 -75.5s57 -70.666 75 -114.999s27 -93.166 27 -146.499c0 -52 -9 -100 -27 -144s-43 -82.167 -75 -114.5s-70 -57.5 -114 -75.5s-92.333 -27 -145 -27s-101.167 9 -145.5 27s-82.833 43.167 -115.5 75.5
s-58 70.5 -76 114.5s-27 92 -27 144c0 53.333 9 102.166 27 146.499s43.333 82.666 76 114.999s71.167 57.5 115.5 75.5s92.833 27 145.5 27zM504 413c-2 0 -8 2.16504 -18 6.49805s-25 6.5 -45 6.5c-42.667 0 -73.667 -12.167 -93 -36.5s-29 -55.833 -29 -94.5
c0 -38 10 -69.5 30 -94.5s50.667 -37.5 92 -37.5c15.333 0 29.333 2 42 6s20 6.66699 22 8l16 51l63 -19l-26 -84l-15 -6.5c-10 -4.33301 -24.167 -8.66602 -42.5 -12.999s-39.833 -6.5 -64.5 -6.5c-58.667 0 -105.5 16.333 -140.5 49s-52.833 81.334 -53.5 146.001
c0 64.667 17.5 113.5 52.5 146.5s82.167 49.5 141.5 49.5c26.667 0 49.167 -2.83301 67.5 -8.5s32.333 -11.5 42 -17.5l14.5 -9l23 -78l-60 -18zM421 587.998c-57.333 0 -107.833 -13.333 -151.5 -40s-77.5 -62.667 -101.5 -108s-36 -96 -36 -152
c0 -53.333 12 -101.833 36 -145.5s57.833 -78.167 101.5 -103.5s94.167 -38 151.5 -38s108.166 12.667 152.499 38s79.166 59.833 104.499 103.5s38 92.167 38 145.5c0 56 -12.667 106.667 -38 152s-60.166 81.333 -104.499 108s-95.166 40 -152.499 40z" />
    <glyph glyph-name="ordfeminine" unicode="&#xaa;" horiz-adv-x="365" 
d="M318 156l-68 26.999c-15.333 -8 -30.333 -14.5 -45 -19.5s-30.667 -7.5 -48 -7.5c-35.333 0 -63 8.33301 -83 25s-30 37.667 -30 63c0 30 10.167 51.5 30.5 64.5s46.5 19.5 78.5 19.5h73c0 26 -4 44.333 -12 55s-23 16 -45 16c-10.667 0 -20 -0.833008 -28 -2.5l-21 -4.5
l-8 -34l-52 10l11 63l33 10.5c18 5.66699 39 8.5 63 8.5c27.333 0 49.333 -3.33301 66 -10s29 -16 37 -28s13.167 -25.167 15.5 -39.5s3.5 -29.166 3.5 -44.499v-104l46 -16zM160 206.999c15.333 0 28.5 2.83301 39.5 8.5s19.833 10.834 26.5 15.501v49h-71
c-12.667 0 -23.5 -2.33301 -32.5 -7s-13.5 -14.334 -13.5 -29.001c0 -11.333 5 -20.333 15 -27s22 -10 36 -10z" />
    <glyph glyph-name="guillemotleft" unicode="&#xab;" horiz-adv-x="323" 
d="M151 436l57 -40l-126 -179l126 -179l-57 -40l-158 219zM254 365l59 -38l-73 -110l73 -110l-59 -38l-97 148z" />
    <glyph glyph-name="logicalnot" unicode="&#xac;" horiz-adv-x="474" 
d="M50 342h374v-216h-88v140h-286v76z" />
    <glyph glyph-name="uni00AD" unicode="&#xad;" horiz-adv-x="362" 
d="M46 315h270v-83h-270v83z" />
    <glyph glyph-name="registered" unicode="&#xae;" horiz-adv-x="657" 
d="M328 69c-50 0 -94.833 11.333 -134.5 34s-70.834 53.667 -93.501 93s-34 84.333 -34 135c0 50 11.333 95 34 135s53.834 71.333 93.501 94s84.5 34 134.5 34c51.333 0 96.666 -11.333 135.999 -34s70.333 -54 93 -94s34 -85 34 -135c0 -50.667 -11.333 -95.667 -34 -135
s-53.667 -70.333 -93 -93s-84.666 -34 -135.999 -34zM327 124c39.333 0 74.166 9 104.499 27s54 42.333 71 73s25.5 65 25.5 103c0 40 -8.5 75.833 -25.5 107.5s-40.667 56.667 -71 75s-65.166 27.5 -104.499 27.5s-73.833 -9.16699 -103.5 -27.5
s-52.834 -43.333 -69.501 -75s-25 -67.5 -25 -107.5c0 -38 8.33301 -72.333 25 -103s39.834 -55 69.501 -73s64.167 -27 103.5 -27zM212 197v47h40v181h-40v45h124c39.333 0 66.5 -7.16699 81.5 -21.5s22.5 -36.5 22.5 -66.5c0 -20 -4.16699 -36.167 -12.5 -48.5
s-20.833 -21.5 -37.5 -27.5l35 -62h45v-47h-79l-52 100h-35v-53h28v-47h-120zM305 343h31.999c12.667 0 24 2.16699 34 6.5s15 14.833 15 31.5c0 18.667 -4.66699 30.667 -14 36s-21.666 8 -36.999 8h-30v-82z" />
    <glyph glyph-name="macron" unicode="&#xaf;" horiz-adv-x="399" 
d="M47 597h309v-64h-309v64z" />
    <glyph glyph-name="degree" unicode="&#xb0;" horiz-adv-x="381" 
d="M190 607c28 0 52.667 -9 74 -27s32 -44.333 32 -79c0 -34 -10.667 -60 -32 -78s-46 -27 -74 -27c-27.333 0 -51.666 9 -72.999 27s-32 44 -32 78c0 34.667 10.667 61 32 79s45.666 27 72.999 27zM190 557c-13.333 0 -25 -4.83301 -35 -14.5s-15 -23.5 -15 -41.5
c0 -17.333 5 -30.833 15 -40.5s21.667 -14.5 35 -14.5s24.833 4.83301 34.5 14.5s14.5 23.167 14.5 40.5c0 18 -4.83301 31.833 -14.5 41.5s-21.167 14.5 -34.5 14.5z" />
    <glyph glyph-name="plusminus" unicode="&#xb1;" horiz-adv-x="474" 
d="M195 488h84v-125h145v-76h-145v-105h-84v105h-145v76h145v125zM424 145v-76h-374v76h374z" />
    <glyph glyph-name="uni00B2" unicode="&#xb2;" horiz-adv-x="392" 
d="M53 218l-26.001 74.999l78.5 47.5c23.667 14.333 44.5 27.833 62.5 40.5c26.667 19.333 45.834 38 57.501 56s17.5 34.667 17.5 50c0 16.667 -6.33301 29 -19 37s-28.334 12 -47.001 12c-17.333 0 -35.666 -3.5 -54.999 -10.5s-37 -17.5 -53 -31.5l-47 49
c24.667 20.667 48.667 36 72 46s49.666 15 78.999 15c30 0 56.333 -4.66699 79 -14s40.334 -22.333 53.001 -39s19 -37 19 -61c0 -28.667 -9.5 -54.667 -28.5 -78s-43.167 -44.666 -72.5 -63.999c-16.667 -12 -34.667 -23.333 -54 -34l-58 -32h161l38 52l56 -34l-55 -82
h-258z" />
    <glyph glyph-name="uni00B3" unicode="&#xb3;" horiz-adv-x="388" 
d="M183 439c20.667 0 37.168 4.83398 49.501 14.501s18.5 21.834 18.5 36.501s-6.66699 26.167 -20 34.5s-31 12.5 -53 12.5c-18.667 0 -37.167 -2.83301 -55.5 -8.5s-33.833 -13.834 -46.5 -24.501l-45 48c18.667 17.333 40.834 30 66.501 38s52.5 12 80.5 12
c47.333 0 84.166 -9.83301 110.499 -29.5s39.5 -44.5 39.5 -74.5c0 -20.667 -6.66699 -38.834 -20 -54.501s-31 -26.167 -53 -31.5c27.333 -6 49.333 -16.5 66 -31.5s25 -34.167 25 -57.5c0 -22.667 -6.83301 -43 -20.5 -61s-32.334 -32 -56.001 -42
s-51.834 -15 -84.501 -15c-34.667 0 -65 4.33301 -91 13s-49.667 21.334 -71 38.001l44 58c18 -13.333 35.833 -23.833 53.5 -31.5s38.834 -11.5 63.501 -11.5c25.333 0 45.333 5.16699 60 15.5s22 23.166 22 38.499s-7 28 -21 38s-34.333 15 -61 15h-49v61h48z" />
    <glyph glyph-name="acute" unicode="&#xb4;" horiz-adv-x="288" 
d="M176 708l64 -48l-151 -169l-40 29z" />
    <glyph glyph-name="uni00B5" unicode="&#xb5;" horiz-adv-x="629" 
d="M252 -224c-53.333 0 -92.002 15.499 -116.002 46.499s-36 80.833 -36 149.5v462h88v-221c0 -58.667 8 -99.5 24 -122.5s42.333 -34.5 79 -34.5c20 0 41.5 4 64.5 12s41.167 18.333 54.5 31v335h88v-347l92 -32l-23 -72l-136 47c-21.333 -14 -45.166 -25 -71.499 -33
s-51.5 -12 -75.5 -12c-42.667 0 -77 13.333 -103 40v-56c0 -45.333 6.83301 -77.166 20.5 -95.499s34.834 -27.5 63.501 -27.5c18.667 0 36.667 3.33301 54 10l14 -68c-12.667 -4 -26.167 -7 -40.5 -9s-27.833 -3 -40.5 -3z" />
    <glyph glyph-name="paragraph" unicode="&#xb6;" horiz-adv-x="612" 
d="M227 293c-62.667 0 -107.499 12.667 -134.499 38s-40.5 63 -40.5 113c0 48 15.167 84.167 45.5 108.5s69.166 36.5 116.499 36.5h360v-77h-92v-436h88v-76h-164v512h-71v-512h-172v76h97v217h-33z" />
    <glyph glyph-name="periodcentered" unicode="&#xb7;" horiz-adv-x="229" 
d="M115 287c18 0 33.5 -6.5 46.5 -19.5s19.5 -28.833 19.5 -47.5c0 -18 -6.5 -33.667 -19.5 -47s-28.5 -20 -46.5 -20s-33.667 6.66699 -47 20s-20 29 -20 47c0 18.667 6.66699 34.5 20 47.5s29 19.5 47 19.5z" />
    <glyph glyph-name="cedilla" unicode="&#xb8;" horiz-adv-x="279" 
d="M137 -226c-20.667 0 -38.999 2.99805 -54.999 8.99805s-28.833 12.167 -38.5 18.5s-15.834 10.166 -18.501 11.499l25 40c12 -7.33301 25.667 -13.666 41 -18.999s30 -8 44 -8c18 0 31.167 3 39.5 9s12.5 14.667 12.5 26c0 12 -4.66699 20.667 -14 26s-25.333 8 -48 8
h-43v105h56v-60c38 0.666992 66.333 -5.66602 85 -18.999s28 -33.666 28 -60.999c0 -18 -4.66699 -33.5 -14 -46.5s-22.5 -22.833 -39.5 -29.5s-37.167 -10 -60.5 -10z" />
    <glyph glyph-name="uni00B9" unicode="&#xb9;" horiz-adv-x="368" 
d="M191 589h49l-2 -307h113v-64h-305v64h116l1 206l-99 -66l-35 48z" />
    <glyph glyph-name="ordmasculine" unicode="&#xba;" horiz-adv-x="370" 
d="M184 450c42.667 0 76.834 -12.667 102.501 -38s38.5 -61.333 38.5 -108c0 -45.333 -12.833 -80.833 -38.5 -106.5s-59.834 -38.5 -102.501 -38.5c-40.667 0 -74 12.667 -100 38s-39 61 -39 107c0 46.667 13 82.667 39 108s59.333 38 100 38zM185 395
c-24.667 0 -43.334 -8 -56.001 -24s-19 -38.333 -19 -67c0 -28 6.33301 -50 19 -66s31.334 -24 56.001 -24s43.334 8 56.001 24s19 38 19 66c0 28.667 -6.33301 51 -19 67s-31.334 24 -56.001 24z" />
    <glyph glyph-name="guillemotright" unicode="&#xbb;" horiz-adv-x="323" 
d="M68 365l98 -148l-98 -148l-58 38l74 110l-74 110zM171 436l159 -219l-159 -219l-55 40l125 179l-125 179z" />
    <glyph glyph-name="onequarter" unicode="&#xbc;" horiz-adv-x="950" 
d="M191 589h49l-2 -307h113v-64h-305v64h116l1 206l-99 -66l-35 48zM658 652h75l-440 -728h-76zM689 0v64h83v42h-221l-1 63l165 232l58 -42l-140 -189h139v127h77v-127h63v-64h-63v-42h61v-64h-221z" />
    <glyph glyph-name="onehalf" unicode="&#xbd;" horiz-adv-x="954" 
d="M191 589h49l-2 -307h113v-64h-305v64h116l1 206l-99 -66l-35 48zM658 652h75l-440 -728h-76zM615 0l-26.001 74.999l78.5 47.5c23.667 14.333 44.5 27.833 62.5 40.5c26.667 19.333 45.834 38 57.501 56s17.5 34.667 17.5 50c0 16.667 -6.33301 29 -19 37
s-28.334 12 -47.001 12c-17.333 0 -35.666 -3.5 -54.999 -10.5s-37 -17.5 -53 -31.5l-47 49c24.667 20.667 48.667 36 72 46s49.666 15 78.999 15c30 0 56.333 -4.66699 79 -14s40.334 -22.333 53.001 -39s19 -37 19 -61c0 -28.667 -9.5 -54.667 -28.5 -78
s-43.167 -44.666 -72.5 -63.999c-16.667 -12 -34.667 -23.333 -54 -34l-58 -32h161l38 52l56 -34l-55 -82h-258z" />
    <glyph glyph-name="threequarters" unicode="&#xbe;" horiz-adv-x="932" 
d="M183 439c20.667 0 37.168 4.83398 49.501 14.501s18.5 21.834 18.5 36.501s-6.66699 26.167 -20 34.5s-31 12.5 -53 12.5c-18.667 0 -37.167 -2.83301 -55.5 -8.5s-33.833 -13.834 -46.5 -24.501l-45 48c18.667 17.333 40.834 30 66.501 38s52.5 12 80.5 12
c47.333 0 84.166 -9.83301 110.499 -29.5s39.5 -44.5 39.5 -74.5c0 -20.667 -6.66699 -38.834 -20 -54.501s-31 -26.167 -53 -31.5c27.333 -6 49.333 -16.5 66 -31.5s25 -34.167 25 -57.5c0 -22.667 -6.83301 -43 -20.5 -61s-32.334 -32 -56.001 -42
s-51.834 -15 -84.501 -15c-34.667 0 -65 4.33301 -91 13s-49.667 21.334 -71 38.001l44 58c18 -13.333 35.833 -23.833 53.5 -31.5s38.834 -11.5 63.501 -11.5c25.333 0 45.333 5.16699 60 15.5s22 23.166 22 38.499s-7 28 -21 38s-34.333 15 -61 15h-49v61h48z
M640.001 652.001h75l-440 -728h-76zM671.001 0.000976562v64h83v42h-221l-1 63l165 232l58 -42l-140 -189h139v127h77v-127h63v-64h-63v-42h61v-64h-221z" />
    <glyph glyph-name="questiondown" unicode="&#xbf;" horiz-adv-x="377" 
d="M356 -183c-14.667 -11.333 -37.665 -20.8311 -68.998 -28.498s-63.333 -11.5 -96 -11.5c-58 0 -103.5 12.833 -136.5 38.5s-49.5 59.834 -49.5 102.501c0 30 9 55 27 75s45 39.667 81 59c22 11.333 38.833 21 50.5 29s19.667 15.167 24 21.5s6.5 13.5 6.5 21.5
s-3 15.667 -9 23s-15.667 15.666 -29 24.999l46 49c31.333 -18.667 51.333 -36.5 60 -53.5s13 -33.167 13 -48.5c0 -16.667 -3.16699 -31.167 -9.5 -43.5s-16.833 -24.333 -31.5 -36s-34 -23.834 -58 -36.501c-23.333 -13.333 -40.833 -24.333 -52.5 -33
s-19.5 -17.334 -23.5 -26.001s-6 -18.667 -6 -30c0 -19.333 9.5 -35.166 28.5 -47.499s44.167 -18.5 75.5 -18.5c17.333 0 33.166 1.66699 47.499 5s28.166 7.66602 41.499 12.999l13 84l73 -8zM196.002 264.002c-18 0 -33.667 6.66699 -47 20s-20 29.333 -20 48
c0 17.333 6.5 32.666 19.5 45.999s28.833 20 47.5 20c18 0 33.667 -6.66699 47 -20s20 -28.666 20 -45.999c0 -18.667 -6.66699 -34.667 -20 -48s-29 -20 -47 -20z" />
    <glyph glyph-name="Agrave" unicode="&#xc0;" horiz-adv-x="659" 
d="M9 0v78h97l162 433h-97v78h204l181 -511h94v-78h-248v78h61l-32 90h-211l-33 -90h62v-78h-240zM246 239h160l-76 245zM141 771l244 -86l-11 -38l-253 45z" />
    <glyph glyph-name="Aacute" unicode="&#xc1;" horiz-adv-x="659" 
d="M9 0v78h97l162 433h-97v78h204l181 -511h94v-78h-248v78h61l-32 90h-211l-33 -90h62v-78h-240zM246 239h160l-76 245zM475 775l20 -79l-252 -45l-11 38z" />
    <glyph glyph-name="Acircumflex" unicode="&#xc2;" horiz-adv-x="659" 
d="M9 0v78h97l162 433h-97v78h204l181 -511h94v-78h-248v78h61l-32 90h-211l-33 -90h62v-78h-240zM246 239h160l-76 245zM322 783l174 -99l-22 -35l-152 57l-153 -57l-21 35z" />
    <glyph glyph-name="Atilde" unicode="&#xc3;" horiz-adv-x="659" 
d="M9 0v78h97l162 433h-97v78h204l181 -511h94v-78h-248v78h61l-32 90h-211l-33 -90h62v-78h-240zM246 239h160l-76 245zM196 661l-23 55.001c21.333 14.667 39.666 25.5 54.999 32.5s34.666 10.5 57.999 10.5c19.333 0 36 -3.33301 50 -10s26.833 -13.334 38.5 -20.001
s24.167 -10 37.5 -10c12 0 22.5 2.5 31.5 7.5s21.5 13.167 37.5 24.5l25 -58c-19.333 -16.667 -36.166 -28.167 -50.499 -34.5s-30.166 -9.83301 -47.499 -10.5c-14.667 -0.666992 -28.5 2.5 -41.5 9.5l-39 21c-13 7 -26.833 10.5 -41.5 10.5
c-17.333 0 -31.833 -2.33301 -43.5 -7s-27.167 -11.667 -46.5 -21z" />
    <glyph glyph-name="Adieresis" unicode="&#xc4;" horiz-adv-x="659" 
d="M9 0v78h97l162 433h-97v78h204l181 -511h94v-78h-248v78h61l-32 90h-211l-33 -90h62v-78h-240zM246 239h160l-76 245zM412 785c16 0 29.833 -5.83301 41.5 -17.5s17.5 -25.834 17.5 -42.501c0 -16 -5.83301 -29.833 -17.5 -41.5s-25.5 -17.5 -41.5 -17.5
s-30 5.83301 -42 17.5s-18 25.5 -18 41.5c0 16.667 6 30.834 18 42.501s26 17.5 42 17.5zM230 785c16.667 0 30.834 -5.83301 42.501 -17.5s17.5 -25.834 17.5 -42.501c0 -16 -5.83301 -29.833 -17.5 -41.5s-25.834 -17.5 -42.501 -17.5c-16 0 -29.833 5.83301 -41.5 17.5
s-17.5 25.5 -17.5 41.5c0 16.667 5.83301 30.834 17.5 42.501s25.5 17.5 41.5 17.5z" />
    <glyph glyph-name="Aring" unicode="&#xc5;" horiz-adv-x="659" 
d="M9 0v78h97l162 433h-97v78h204l181 -511h94v-78h-248v78h61l-32 90h-211l-33 -90h62v-78h-240zM246 239h160l-76 245zM338 748c28 0 50.333 -8.33301 67 -25s25 -38.667 25 -66s-8.33301 -49.333 -25 -66s-39 -25 -67 -25c-27.333 0 -49.166 8.33301 -65.499 25
s-24.5 38.667 -24.5 66s8.16699 49.333 24.5 66s38.166 25 65.499 25zM338 699c-12 0 -21.833 -4 -29.5 -12s-11.5 -18 -11.5 -30c0 -12.667 3.83301 -22.834 11.5 -30.501s17.5 -11.5 29.5 -11.5c12.667 0 22.834 3.83301 30.501 11.5s11.5 17.834 11.5 30.501
c0 12 -3.83301 22 -11.5 30s-17.834 12 -30.501 12z" />
    <glyph glyph-name="AE" unicode="&#xc6;" horiz-adv-x="925" 
d="M27 0v78h99l273 433h-101v78h518l55 -160l-75 -25l-39 107h-183v-177h161v-77h-162v-179h205l39 105l74 -25l-53 -158h-447v78h92v85h-214l-53 -85h57v-78h-246zM316 241h167l1 270z" />
    <glyph glyph-name="Ccedilla" unicode="&#xc7;" horiz-adv-x="584" 
d="M445 507c-5.33301 3.33301 -13.333 6.66895 -24 10.002s-23.5 6.16602 -38.5 8.49902s-31.833 3.5 -50.5 3.5c-62.667 0 -110.5 -20.667 -143.5 -62s-49.5 -98.666 -49.5 -171.999c0 -74 17 -131.667 51 -173s81.333 -62 142 -62c16.667 0 32.334 1.33301 47.001 4
s27.834 5.66699 39.501 9s20.5 6.33301 26.5 9l20 82l76 -18l-26 -123l-22.5 -10c-15 -6.66699 -36.333 -13.167 -64 -19.5s-59.834 -9.5 -96.501 -9.5c-58 0 -108.5 12.333 -151.5 37s-76.5 60.167 -100.5 106.5s-36 102.166 -36 167.499c0 63.333 11.667 118.333 35 165
s56.666 82.667 99.999 108s94 37.666 152 36.999c44 0 79.667 -3.83301 107 -11.5s47.5 -15.5 60.5 -23.5s19.5 -12.333 19.5 -13l24 -123l-76 -17zM362 -225.997c-20.667 0 -38.999 2.99805 -54.999 8.99805s-28.833 12.167 -38.5 18.5s-15.834 10.166 -18.501 11.499
l25 40c12 -7.33301 25.667 -13.666 41 -18.999s30 -8 44 -8c18 0 31.167 3 39.5 9s12.5 14.667 12.5 26c0 12 -4.66699 20.667 -14 26s-25.333 8 -48 8h-43v105h56v-60c38 0.666992 66.333 -5.66602 85 -18.999s28 -33.666 28 -60.999c0 -18 -4.66699 -33.5 -14 -46.5
s-22.5 -22.833 -39.5 -29.5s-37.167 -10 -60.5 -10z" />
    <glyph glyph-name="Egrave" unicode="&#xc8;" horiz-adv-x="593" 
d="M39 589h447l53 -160l-73 -25l-40 107h-204v-169h182v-78h-182l-1 -186h227l39 105l73 -25l-53 -158h-469v78h93l1 433h-93v78zM114 771l244 -86l-11 -38l-253 45z" />
    <glyph glyph-name="Eacute" unicode="&#xc9;" horiz-adv-x="593" 
d="M39 589h447l53 -160l-73 -25l-40 107h-204v-169h182v-78h-182l-1 -186h227l39 105l73 -25l-53 -158h-469v78h93l1 433h-93v78zM448 775l20 -79l-252 -45l-11 38z" />
    <glyph glyph-name="Ecircumflex" unicode="&#xca;" horiz-adv-x="593" 
d="M39 589h447l53 -160l-73 -25l-40 107h-204v-169h182v-78h-182l-1 -186h227l39 105l73 -25l-53 -158h-469v78h93l1 433h-93v78zM294 783l174 -99l-22 -35l-152 57l-153 -57l-21 35z" />
    <glyph glyph-name="Edieresis" unicode="&#xcb;" horiz-adv-x="593" 
d="M39 589h447l53 -160l-73 -25l-40 107h-204v-169h182v-78h-182l-1 -186h227l39 105l73 -25l-53 -158h-469v78h93l1 433h-93v78zM385 785c16 0 29.833 -5.83301 41.5 -17.5s17.5 -25.834 17.5 -42.501c0 -16 -5.83301 -29.833 -17.5 -41.5s-25.5 -17.5 -41.5 -17.5
s-30 5.83301 -42 17.5s-18 25.5 -18 41.5c0 16.667 6 30.834 18 42.501s26 17.5 42 17.5zM203 785c16.667 0 30.834 -5.83301 42.501 -17.5s17.5 -25.834 17.5 -42.501c0 -16 -5.83301 -29.833 -17.5 -41.5s-25.834 -17.5 -42.501 -17.5c-16 0 -29.833 5.83301 -41.5 17.5
s-17.5 25.5 -17.5 41.5c0 16.667 5.83301 30.834 17.5 42.501s25.5 17.5 41.5 17.5z" />
    <glyph glyph-name="Igrave" unicode="&#xcc;" horiz-adv-x="357" 
d="M39 589h280v-78h-93l-2 -433h95v-78h-281v78h97v433h-96v78zM-1 771l244 -86l-11 -38l-253 45z" />
    <glyph glyph-name="Iacute" unicode="&#xcd;" horiz-adv-x="357" 
d="M39 589h280v-78h-93l-2 -433h95v-78h-281v78h97v433h-96v78zM332 775l20 -79l-252 -45l-11 38z" />
    <glyph glyph-name="Icircumflex" unicode="&#xce;" horiz-adv-x="357" 
d="M39 589h280v-78h-93l-2 -433h95v-78h-281v78h97v433h-96v78zM179 783l174 -99l-22 -35l-152 57l-153 -57l-21 35z" />
    <glyph glyph-name="Idieresis" unicode="&#xcf;" horiz-adv-x="357" 
d="M39 589h280v-78h-93l-2 -433h95v-78h-281v78h97v433h-96v78zM270 785c16 0 29.833 -5.83301 41.5 -17.5s17.5 -25.834 17.5 -42.501c0 -16 -5.83301 -29.833 -17.5 -41.5s-25.5 -17.5 -41.5 -17.5s-30 5.83301 -42 17.5s-18 25.5 -18 41.5c0 16.667 6 30.834 18 42.501
s26 17.5 42 17.5zM88 785c16.667 0 30.834 -5.83301 42.501 -17.5s17.5 -25.834 17.5 -42.501c0 -16 -5.83301 -29.833 -17.5 -41.5s-25.834 -17.5 -42.501 -17.5c-16 0 -29.833 5.83301 -41.5 17.5s-17.5 25.5 -17.5 41.5c0 16.667 5.83301 30.834 17.5 42.501
s25.5 17.5 41.5 17.5z" />
    <glyph glyph-name="Eth" unicode="&#xd0;" horiz-adv-x="668" 
d="M319 589c61.333 0 115 -9.33398 161 -28.001s81.667 -50.167 107 -94.5s38 -104.833 38 -181.5c0 -61.333 -13 -113.166 -39 -155.499s-61.5 -74.5 -106.5 -96.5s-95.833 -33 -152.5 -33h-276v78h92v189h-92v74h92v170h-92v78h268zM309 77.999
c48.667 0 89.5 7.33203 122.5 21.999s57.667 37.334 74 68.001s24.5 69.334 24.5 116.001c0 62 -8.16699 109.167 -24.5 141.5s-40 54.666 -71 66.999s-69.5 18.5 -115.5 18.5h-86v-170h108v-74h-108v-189h76z" />
    <glyph glyph-name="Ntilde" unicode="&#xd1;" horiz-adv-x="724" 
d="M39 589h232l243 -455v377h-82v78h265v-78h-96v-511h-108l-276 511l2 -433h84v-78h-265v78h94l-1 433h-92v78zM237 661l-23 55.001c21.333 14.667 39.666 25.5 54.999 32.5s34.666 10.5 57.999 10.5c19.333 0 36 -3.33301 50 -10s26.833 -13.334 38.5 -20.001
s24.167 -10 37.5 -10c12 0 22.5 2.5 31.5 7.5s21.5 13.167 37.5 24.5l25 -58c-19.333 -16.667 -36.166 -28.167 -50.499 -34.5s-30.166 -9.83301 -47.499 -10.5c-14.667 -0.666992 -28.5 2.5 -41.5 9.5l-39 21c-13 7 -26.833 10.5 -41.5 10.5
c-17.333 0 -31.833 -2.33301 -43.5 -7s-27.167 -11.667 -46.5 -21z" />
    <glyph glyph-name="Ograve" unicode="&#xd2;" horiz-adv-x="645" 
d="M321 605c56.667 0 105.833 -12.667 147.5 -38s74.167 -61.166 97.5 -107.499s35 -101.166 35 -164.499s-11.667 -118.166 -35 -164.499s-55.833 -82.333 -97.5 -108s-90.5 -38.5 -146.5 -38.5c-55.333 0 -103.833 12.833 -145.5 38.5s-74.167 61.667 -97.5 108
s-35 101.166 -35 164.499s11.5 118.166 34.5 164.499s55.333 82.166 97 107.499s90.167 38 145.5 38zM321.999 528c-58 0 -103 -20.333 -135 -61s-48 -98 -48 -172c0 -74.667 16 -132.334 48 -173.001s77 -61 135 -61c58.667 0 104.167 20.333 136.5 61
s48.5 98.334 48.5 173.001c0 74 -16.167 131.333 -48.5 172s-77.833 61 -136.5 61zM141.999 771l244 -86l-11 -38l-253 45z" />
    <glyph glyph-name="Oacute" unicode="&#xd3;" horiz-adv-x="645" 
d="M321 605c56.667 0 105.833 -12.667 147.5 -38s74.167 -61.166 97.5 -107.499s35 -101.166 35 -164.499s-11.667 -118.166 -35 -164.499s-55.833 -82.333 -97.5 -108s-90.5 -38.5 -146.5 -38.5c-55.333 0 -103.833 12.833 -145.5 38.5s-74.167 61.667 -97.5 108
s-35 101.166 -35 164.499s11.5 118.166 34.5 164.499s55.333 82.166 97 107.499s90.167 38 145.5 38zM321.999 528c-58 0 -103 -20.333 -135 -61s-48 -98 -48 -172c0 -74.667 16 -132.334 48 -173.001s77 -61 135 -61c58.667 0 104.167 20.333 136.5 61
s48.5 98.334 48.5 173.001c0 74 -16.167 131.333 -48.5 172s-77.833 61 -136.5 61zM474.999 775l20 -79l-252 -45l-11 38z" />
    <glyph glyph-name="Ocircumflex" unicode="&#xd4;" horiz-adv-x="645" 
d="M321 605c56.667 0 105.833 -12.667 147.5 -38s74.167 -61.166 97.5 -107.499s35 -101.166 35 -164.499s-11.667 -118.166 -35 -164.499s-55.833 -82.333 -97.5 -108s-90.5 -38.5 -146.5 -38.5c-55.333 0 -103.833 12.833 -145.5 38.5s-74.167 61.667 -97.5 108
s-35 101.166 -35 164.499s11.5 118.166 34.5 164.499s55.333 82.166 97 107.499s90.167 38 145.5 38zM321.999 528c-58 0 -103 -20.333 -135 -61s-48 -98 -48 -172c0 -74.667 16 -132.334 48 -173.001s77 -61 135 -61c58.667 0 104.167 20.333 136.5 61
s48.5 98.334 48.5 173.001c0 74 -16.167 131.333 -48.5 172s-77.833 61 -136.5 61zM321.999 783l174 -99l-22 -35l-152 57l-153 -57l-21 35z" />
    <glyph glyph-name="Otilde" unicode="&#xd5;" horiz-adv-x="645" 
d="M321 605c56.667 0 105.833 -12.667 147.5 -38s74.167 -61.166 97.5 -107.499s35 -101.166 35 -164.499s-11.667 -118.166 -35 -164.499s-55.833 -82.333 -97.5 -108s-90.5 -38.5 -146.5 -38.5c-55.333 0 -103.833 12.833 -145.5 38.5s-74.167 61.667 -97.5 108
s-35 101.166 -35 164.499s11.5 118.166 34.5 164.499s55.333 82.166 97 107.499s90.167 38 145.5 38zM321.999 528c-58 0 -103 -20.333 -135 -61s-48 -98 -48 -172c0 -74.667 16 -132.334 48 -173.001s77 -61 135 -61c58.667 0 104.167 20.333 136.5 61
s48.5 98.334 48.5 173.001c0 74 -16.167 131.333 -48.5 172s-77.833 61 -136.5 61zM196.999 661l-23 55.001c21.333 14.667 39.666 25.5 54.999 32.5s34.666 10.5 57.999 10.5c19.333 0 36 -3.33301 50 -10s26.833 -13.334 38.5 -20.001s24.167 -10 37.5 -10
c12 0 22.5 2.5 31.5 7.5s21.5 13.167 37.5 24.5l25 -58c-19.333 -16.667 -36.166 -28.167 -50.499 -34.5s-30.166 -9.83301 -47.499 -10.5c-14.667 -0.666992 -28.5 2.5 -41.5 9.5l-39 21c-13 7 -26.833 10.5 -41.5 10.5c-17.333 0 -31.833 -2.33301 -43.5 -7
s-27.167 -11.667 -46.5 -21z" />
    <glyph glyph-name="Odieresis" unicode="&#xd6;" horiz-adv-x="645" 
d="M321 605c56.667 0 105.833 -12.667 147.5 -38s74.167 -61.166 97.5 -107.499s35 -101.166 35 -164.499s-11.667 -118.166 -35 -164.499s-55.833 -82.333 -97.5 -108s-90.5 -38.5 -146.5 -38.5c-55.333 0 -103.833 12.833 -145.5 38.5s-74.167 61.667 -97.5 108
s-35 101.166 -35 164.499s11.5 118.166 34.5 164.499s55.333 82.166 97 107.499s90.167 38 145.5 38zM321.999 528c-58 0 -103 -20.333 -135 -61s-48 -98 -48 -172c0 -74.667 16 -132.334 48 -173.001s77 -61 135 -61c58.667 0 104.167 20.333 136.5 61
s48.5 98.334 48.5 173.001c0 74 -16.167 131.333 -48.5 172s-77.833 61 -136.5 61zM412.999 785c16 0 29.833 -5.83301 41.5 -17.5s17.5 -25.834 17.5 -42.501c0 -16 -5.83301 -29.833 -17.5 -41.5s-25.5 -17.5 -41.5 -17.5s-30 5.83301 -42 17.5s-18 25.5 -18 41.5
c0 16.667 6 30.834 18 42.501s26 17.5 42 17.5zM230.999 785c16.667 0 30.834 -5.83301 42.501 -17.5s17.5 -25.834 17.5 -42.501c0 -16 -5.83301 -29.833 -17.5 -41.5s-25.834 -17.5 -42.501 -17.5c-16 0 -29.833 5.83301 -41.5 17.5s-17.5 25.5 -17.5 41.5
c0 16.667 5.83301 30.834 17.5 42.501s25.5 17.5 41.5 17.5z" />
    <glyph glyph-name="multiply" unicode="&#xd7;" horiz-adv-x="474" 
d="M136 462l102 -102l104 103l54 -53l-104 -104l103 -103l-57 -56l-102 102l-105 -103l-53 53l104 104l-103 103z" />
    <glyph glyph-name="Oslash" unicode="&#xd8;" horiz-adv-x="645" 
d="M126 -69l50 110l25 42l202 442l23 39l39 87h80l-57 -125l-23 -36l-203 -447l-19 -32l-37 -80h-80zM321 605c56.667 0 105.833 -12.667 147.5 -38s74.167 -61.166 97.5 -107.499s35 -101.166 35 -164.499s-11.667 -118.166 -35 -164.499s-55.833 -82.333 -97.5 -108
s-90.5 -38.5 -146.5 -38.5c-55.333 0 -103.833 12.833 -145.5 38.5s-74.167 61.667 -97.5 108s-35 101.166 -35 164.499s11.5 118.166 34.5 164.499s55.333 82.166 97 107.499s90.167 38 145.5 38zM321.999 528c-58 0 -103 -20.333 -135 -61s-48 -98 -48 -172
c0 -74.667 16 -132.334 48 -173.001s77 -61 135 -61c58.667 0 104.167 20.333 136.5 61s48.5 98.334 48.5 173.001c0 74 -16.167 131.333 -48.5 172s-77.833 61 -136.5 61z" />
    <glyph glyph-name="Ugrave" unicode="&#xd9;" horiz-adv-x="681" 
d="M560 214c0 -70 -18 -125.833 -54 -167.5s-92.333 -62.5 -169 -62.5c-74.667 0 -129.5 20.833 -164.5 62.5s-52.5 97.5 -52.5 167.5v297h-93v78h246v-78h-63v-322c0 -45.333 11.5 -78.333 34.5 -99s53.833 -31 92.5 -31c40.667 0 73 11.333 97 34s36 58 36 106v312h-62v78
h245v-78h-93v-297zM160 771l244 -86l-11 -38l-253 45z" />
    <glyph glyph-name="Uacute" unicode="&#xda;" horiz-adv-x="681" 
d="M560 214c0 -70 -18 -125.833 -54 -167.5s-92.333 -62.5 -169 -62.5c-74.667 0 -129.5 20.833 -164.5 62.5s-52.5 97.5 -52.5 167.5v297h-93v78h246v-78h-63v-322c0 -45.333 11.5 -78.333 34.5 -99s53.833 -31 92.5 -31c40.667 0 73 11.333 97 34s36 58 36 106v312h-62v78
h245v-78h-93v-297zM493 775l20 -79l-252 -45l-11 38z" />
    <glyph glyph-name="Ucircumflex" unicode="&#xdb;" horiz-adv-x="681" 
d="M560 214c0 -70 -18 -125.833 -54 -167.5s-92.333 -62.5 -169 -62.5c-74.667 0 -129.5 20.833 -164.5 62.5s-52.5 97.5 -52.5 167.5v297h-93v78h246v-78h-63v-322c0 -45.333 11.5 -78.333 34.5 -99s53.833 -31 92.5 -31c40.667 0 73 11.333 97 34s36 58 36 106v312h-62v78
h245v-78h-93v-297zM340 783l174 -99l-22 -35l-152 57l-153 -57l-21 35z" />
    <glyph glyph-name="Udieresis" unicode="&#xdc;" horiz-adv-x="681" 
d="M560 214c0 -70 -18 -125.833 -54 -167.5s-92.333 -62.5 -169 -62.5c-74.667 0 -129.5 20.833 -164.5 62.5s-52.5 97.5 -52.5 167.5v297h-93v78h246v-78h-63v-322c0 -45.333 11.5 -78.333 34.5 -99s53.833 -31 92.5 -31c40.667 0 73 11.333 97 34s36 58 36 106v312h-62v78
h245v-78h-93v-297zM431 785c16 0 29.833 -5.83301 41.5 -17.5s17.5 -25.834 17.5 -42.501c0 -16 -5.83301 -29.833 -17.5 -41.5s-25.5 -17.5 -41.5 -17.5s-30 5.83301 -42 17.5s-18 25.5 -18 41.5c0 16.667 6 30.834 18 42.501s26 17.5 42 17.5zM249 785
c16.667 0 30.834 -5.83301 42.501 -17.5s17.5 -25.834 17.5 -42.501c0 -16 -5.83301 -29.833 -17.5 -41.5s-25.834 -17.5 -42.501 -17.5c-16 0 -29.833 5.83301 -41.5 17.5s-17.5 25.5 -17.5 41.5c0 16.667 5.83301 30.834 17.5 42.501s25.5 17.5 41.5 17.5z" />
    <glyph glyph-name="Yacute" unicode="&#xdd;" horiz-adv-x="654" 
d="M5 589h248v-78h-56l135 -189l147 189h-72v78h243v-78h-69l-208 -259l-1 -174h94v-78h-277v78h94l1 171l-197 262h-82v78zM480 775l20 -79l-252 -45l-11 38z" />
    <glyph glyph-name="Thorn" unicode="&#xde;" horiz-adv-x="545" 
d="M38 0v78.001h91v437h-91v74h274v-74h-93v-62h104c42.667 0 79.167 -4.66699 109.5 -14s53.333 -24.833 69 -46.5s23.5 -50.834 23.5 -87.501c0 -34.667 -8 -64 -24 -88s-38.5 -42.167 -67.5 -54.5s-62.833 -18.5 -101.5 -18.5h-113v-66h117v-78h-298zM220 221.001h99.001
c33.333 0 60.333 5.33301 81 16s31 31 31 61c0 33.333 -10.333 55 -31 65s-48.334 15 -83.001 15h-97v-157z" />
    <glyph glyph-name="germandbls" unicode="&#xdf;" horiz-adv-x="591" 
d="M413 -15c-25.333 0 -50.333 4.16699 -75 12.5s-43 19.166 -55 32.499l-16 88l72 15l9 -57c6.66699 -6 16 -11 28 -15s24.333 -6 37 -6c20 0 36 5.33301 48 16s18 25 18 43s-6.33301 33.5 -19 46.5s-32.667 24.5 -60 34.5c-25.333 9.33301 -47 20.666 -65 33.999
s-31.667 27.833 -41 43.5s-14 32.834 -14 51.501c0 22.667 4 41.5 12 56.5s17.833 28 29.5 39s23.167 21 34.5 30s20.833 18.5 28.5 28.5s11.5 22 11.5 36c0 18 -8.16699 33 -24.5 45s-36.5 18 -60.5 18c-37.333 0 -63.5 -8.83301 -78.5 -26.5s-22.5 -48.834 -22.5 -93.501
v-457h-172v72h84v290h-84v72h84v43c0 58 15.167 100.833 45.5 128.5s76.5 41.5 138.5 41.5c52.667 0 94.5 -12 125.5 -36s46.5 -56.333 46.5 -97c0 -20.667 -3.83301 -38.167 -11.5 -52.5s-17 -27.166 -28 -38.499s-22.167 -21.666 -33.5 -30.999
s-20.666 -18.666 -27.999 -27.999s-11 -20 -11 -32c0 -14.667 5.66699 -26.834 17 -36.501s32.333 -20.167 63 -31.5c76 -28.667 114 -78 114 -148c0 -38 -13.833 -69.333 -41.5 -94s-62.834 -37 -105.501 -37z" />
    <glyph glyph-name="agrave" unicode="&#xe0;" horiz-adv-x="532" 
d="M355 27c-44.667 -28.667 -91.999 -43 -141.999 -43c-57.333 0 -101 11.5 -131 34.5s-45.333 56.5 -46 100.5c-0.666992 88.667 56.333 133 171 133h124c0 43.333 -8.33301 75.5 -25 96.5s-41 31.5 -73 31.5c-15.333 0 -30.333 -1 -45 -3s-28.667 -5 -42 -9l-10 -54
l-72 13l17 95c25.333 9.33301 50.666 16.333 75.999 21s50.333 7 75 7c61.333 0 107.833 -16.5 139.5 -49.5s47.5 -81.5 47.5 -145.5v-172l92 -30l-23 -72zM210.001 186c-26.667 0 -47.333 -5.66797 -62 -17.001s-22 -27.666 -22 -48.999c0 -44 30.333 -66 91 -66
c43.333 0 81.333 11.667 114 35v96zM233.002 490.999l-151 169l64 48l127 -188z" />
    <glyph glyph-name="aacute" unicode="&#xe1;" horiz-adv-x="532" 
d="M355 27c-44.667 -28.667 -91.999 -43 -141.999 -43c-57.333 0 -101 11.5 -131 34.5s-45.333 56.5 -46 100.5c-0.666992 88.667 56.333 133 171 133h124c0 43.333 -8.33301 75.5 -25 96.5s-41 31.5 -73 31.5c-15.333 0 -30.333 -1 -45 -3s-28.667 -5 -42 -9l-10 -54
l-72 13l17 95c25.333 9.33301 50.666 16.333 75.999 21s50.333 7 75 7c61.333 0 107.833 -16.5 139.5 -49.5s47.5 -81.5 47.5 -145.5v-172l92 -30l-23 -72zM210.001 186c-26.667 0 -47.333 -5.66797 -62 -17.001s-22 -27.666 -22 -48.999c0 -44 30.333 -66 91 -66
c43.333 0 81.333 11.667 114 35v96zM313.002 707.999l64 -48l-151 -169l-40 29z" />
    <glyph glyph-name="acircumflex" unicode="&#xe2;" horiz-adv-x="532" 
d="M355 27c-44.667 -28.667 -91.999 -43 -141.999 -43c-57.333 0 -101 11.5 -131 34.5s-45.333 56.5 -46 100.5c-0.666992 88.667 56.333 133 171 133h124c0 43.333 -8.33301 75.5 -25 96.5s-41 31.5 -73 31.5c-15.333 0 -30.333 -1 -45 -3s-28.667 -5 -42 -9l-10 -54
l-72 13l17 95c25.333 9.33301 50.666 16.333 75.999 21s50.333 7 75 7c61.333 0 107.833 -16.5 139.5 -49.5s47.5 -81.5 47.5 -145.5v-172l92 -30l-23 -72zM210.001 186c-26.667 0 -47.333 -5.66797 -62 -17.001s-22 -27.666 -22 -48.999c0 -44 30.333 -66 91 -66
c43.333 0 81.333 11.667 114 35v96zM239.002 641.999l153 -103l-26 -46l-127 68l-128 -66l-29 44z" />
    <glyph glyph-name="atilde" unicode="&#xe3;" horiz-adv-x="532" 
d="M355 27c-44.667 -28.667 -91.999 -43 -141.999 -43c-57.333 0 -101 11.5 -131 34.5s-45.333 56.5 -46 100.5c-0.666992 88.667 56.333 133 171 133h124c0 43.333 -8.33301 75.5 -25 96.5s-41 31.5 -73 31.5c-15.333 0 -30.333 -1 -45 -3s-28.667 -5 -42 -9l-10 -54
l-72 13l17 95c25.333 9.33301 50.666 16.333 75.999 21s50.333 7 75 7c61.333 0 107.833 -16.5 139.5 -49.5s47.5 -81.5 47.5 -145.5v-172l92 -30l-23 -72zM210.001 186c-26.667 0 -47.333 -5.66797 -62 -17.001s-22 -27.666 -22 -48.999c0 -44 30.333 -66 91 -66
c43.333 0 81.333 11.667 114 35v96zM112.002 505.999l-23 55.001c21.333 14.667 39.666 25.5 54.999 32.5s34.666 10.5 57.999 10.5c19.333 0 36 -3.33301 50 -10s26.833 -13.334 38.5 -20.001s24.167 -10 37.5 -10c12 0 22.5 2.5 31.5 7.5s21.5 13.167 37.5 24.5l25 -58
c-19.333 -16.667 -36.166 -28.167 -50.499 -34.5s-30.166 -9.83301 -47.499 -10.5c-14.667 -0.666992 -28.5 2.5 -41.5 9.5l-39 21c-13 7 -26.833 10.5 -41.5 10.5c-17.333 0 -31.833 -2.33301 -43.5 -7s-27.167 -11.667 -46.5 -21z" />
    <glyph glyph-name="adieresis" unicode="&#xe4;" horiz-adv-x="532" 
d="M355 27c-44.667 -28.667 -91.999 -43 -141.999 -43c-57.333 0 -101 11.5 -131 34.5s-45.333 56.5 -46 100.5c-0.666992 88.667 56.333 133 171 133h124c0 43.333 -8.33301 75.5 -25 96.5s-41 31.5 -73 31.5c-15.333 0 -30.333 -1 -45 -3s-28.667 -5 -42 -9l-10 -54
l-72 13l17 95c25.333 9.33301 50.666 16.333 75.999 21s50.333 7 75 7c61.333 0 107.833 -16.5 139.5 -49.5s47.5 -81.5 47.5 -145.5v-172l92 -30l-23 -72zM210.001 186c-26.667 0 -47.333 -5.66797 -62 -17.001s-22 -27.666 -22 -48.999c0 -44 30.333 -66 91 -66
c43.333 0 81.333 11.667 114 35v96zM328.002 629.999c16 0 29.833 -5.83301 41.5 -17.5s17.5 -25.834 17.5 -42.501c0 -16 -5.83301 -29.833 -17.5 -41.5s-25.5 -17.5 -41.5 -17.5s-30 5.83301 -42 17.5s-18 25.5 -18 41.5c0 16.667 6 30.834 18 42.501s26 17.5 42 17.5z
M146.002 629.999c16.667 0 30.834 -5.83301 42.501 -17.5s17.5 -25.834 17.5 -42.501c0 -16 -5.83301 -29.833 -17.5 -41.5s-25.834 -17.5 -42.501 -17.5c-16 0 -29.833 5.83301 -41.5 17.5s-17.5 25.5 -17.5 41.5c0 16.667 5.83301 30.834 17.5 42.501s25.5 17.5 41.5 17.5
z" />
    <glyph glyph-name="aring" unicode="&#xe5;" horiz-adv-x="532" 
d="M355 27c-44.667 -28.667 -91.999 -43 -141.999 -43c-57.333 0 -101 11.5 -131 34.5s-45.333 56.5 -46 100.5c-0.666992 88.667 56.333 133 171 133h124c0 43.333 -8.33301 75.5 -25 96.5s-41 31.5 -73 31.5c-15.333 0 -30.333 -1 -45 -3s-28.667 -5 -42 -9l-10 -54
l-72 13l17 95c25.333 9.33301 50.666 16.333 75.999 21s50.333 7 75 7c61.333 0 107.833 -16.5 139.5 -49.5s47.5 -81.5 47.5 -145.5v-172l92 -30l-23 -72zM210.001 186c-26.667 0 -47.333 -5.66797 -62 -17.001s-22 -27.666 -22 -48.999c0 -44 30.333 -66 91 -66
c43.333 0 81.333 11.667 114 35v96zM237.002 683.999c28 0 50.333 -8.33301 67 -25s25 -38.667 25 -66s-8.33301 -49.333 -25 -66s-39 -25 -67 -25c-27.333 0 -49.166 8.33301 -65.499 25s-24.5 38.667 -24.5 66s8.16699 49.333 24.5 66s38.166 25 65.499 25z
M237.002 634.999c-12 0 -21.833 -4 -29.5 -12s-11.5 -18 -11.5 -30c0 -12.667 3.83301 -22.834 11.5 -30.501s17.5 -11.5 29.5 -11.5c12.667 0 22.834 3.83301 30.501 11.5s11.5 17.834 11.5 30.501c0 12 -3.83301 22 -11.5 30s-17.834 12 -30.501 12z" />
    <glyph glyph-name="ae" unicode="&#xe6;" horiz-adv-x="784" 
d="M80 419c24 9.33301 46.8301 16.4971 68.4971 21.4971s48.167 7.5 79.5 7.5c44.667 0 80 -8.5 106 -25.5s44 -39.833 54 -68.5c19.333 29.333 43.833 52.333 73.5 69s62.834 25 99.501 25c26.667 0 51.667 -4.66699 75 -14s43.333 -24.166 60 -44.499
s29 -46.666 37 -78.999s9 -71.166 3 -116.499l-319 -2c3.33301 -44 16.5 -77.833 39.5 -101.5s54.833 -35.5 95.5 -35.5c30 0 55.833 3.83301 77.5 11.5s38.834 15.334 51.501 23.001s19.667 12.167 21 13.5l40 -51c0 -0.666992 -4.16699 -4.33398 -12.5 -11.001
s-20.5 -14.5 -36.5 -23.5s-36 -16.833 -60 -23.5s-51.333 -10 -82 -10c-32.667 0 -62.667 5 -90 15s-51.333 25.333 -72 46c-11.333 -8 -27.166 -16.833 -47.499 -26.5s-42 -17.834 -65 -24.501s-44.167 -10 -63.5 -10c-55.333 0 -98.666 12.667 -129.999 38
s-47 57.666 -47 96.999c0 32.667 7.5 58.834 22.5 78.501s35.5 34 61.5 43s55 13.5 87 13.5h126c0 26.667 -2.66699 48.834 -8 66.501s-15 31 -29 40s-35.333 13.5 -64 13.5c-18.667 0 -35.334 -1.16699 -50.001 -3.5s-26.667 -4.83301 -36 -7.5l-10 -53l-73 13z
M209.997 184.997c-14.667 0 -28.501 -1.49902 -41.501 -4.49902s-23.333 -9 -31 -18s-11.5 -23.167 -11.5 -42.5c0 -22 9.16699 -38.333 27.5 -49s39.5 -16 63.5 -16c15.333 0 31.5 2.33301 48.5 7s33.333 10.167 49 16.5s28.834 12.833 39.501 19.5
c-6 13.333 -10.833 27.166 -14.5 41.499s-6.16699 29.5 -7.5 45.5h-122zM661.996 260.998c0 36.667 -8.33105 65 -24.998 85s-43.334 30 -80.001 30s-67.334 -10 -92.001 -30s-40 -48.667 -46 -86z" />
    <glyph glyph-name="ccedilla" unicode="&#xe7;" horiz-adv-x="477" 
d="M355 369c-14.667 4.66699 -28.3369 8.00098 -41.0039 10.001s-27 3 -43 3c-43.333 0 -77.666 -13.833 -102.999 -41.5s-38 -69.167 -38 -124.5c0 -52 13.833 -91.5 41.5 -118.5s60.834 -40.5 99.501 -40.5c21.333 0 42.833 3.66699 64.5 11s43.167 18 64.5 32l37 -54
c-17.333 -12.667 -34.166 -23.667 -50.499 -33s-34.166 -16.5 -53.499 -21.5s-42.666 -7.5 -69.999 -7.5c-44 0 -82.833 9.16699 -116.5 27.5s-59.834 45 -78.501 80s-28 76.5 -28 124.5c0 51.333 10 94.5 30 129.5s47.5 61.5 82.5 79.5s74.833 27 119.5 27
c26 0 50.833 -2.83301 74.5 -8.5s49.5 -12.834 77.5 -21.501l17 -114l-73 -16zM309.997 -225.999c-20.667 0 -38.999 2.99805 -54.999 8.99805s-28.833 12.167 -38.5 18.5s-15.834 10.166 -18.501 11.499l25 40c12 -7.33301 25.667 -13.666 41 -18.999s30 -8 44 -8
c18 0 31.167 3 39.5 9s12.5 14.667 12.5 26c0 12 -4.66699 20.667 -14 26s-25.333 8 -48 8h-43v105h56v-60c38 0.666992 66.333 -5.66602 85 -18.999s28 -33.666 28 -60.999c0 -18 -4.66699 -33.5 -14 -46.5s-22.5 -22.833 -39.5 -29.5s-37.167 -10 -60.5 -10z" />
    <glyph glyph-name="egrave" unicode="&#xe8;" horiz-adv-x="499" 
d="M454 52c-27.333 -23.333 -55.5 -40.501 -84.5 -51.501s-60.833 -16.5 -95.5 -16.5c-47.333 0 -88.833 9.5 -124.5 28.5s-63.167 45.833 -82.5 80.5s-29 76 -29 124c0 46.667 9.16699 87.5 27.5 122.5s44.333 62.167 78 81.5s72.5 29 116.5 29c42 0 78 -8.83301 108 -26.5
s53.333 -42.334 70 -74.001s25 -69.167 25 -112.5c0 -6.66699 -0.333008 -13.667 -1 -21l-2 -22l-336 -2c2 -31.333 10 -57.166 24 -77.499s32 -35.166 54 -44.499s45.333 -14 70 -14c28.667 0 55 4.16699 79 12.5s46 20.5 66 36.5zM376 258.999
c-0.666992 36.667 -11.332 66.167 -31.999 88.5s-48.334 33.5 -83.001 33.5c-34 0 -64 -11.167 -90 -33.5s-41.333 -51.833 -46 -88.5h251zM252.002 490.999l-151 169l64 48l127 -188z" />
    <glyph glyph-name="eacute" unicode="&#xe9;" horiz-adv-x="499" 
d="M454 52c-27.333 -23.333 -55.5 -40.501 -84.5 -51.501s-60.833 -16.5 -95.5 -16.5c-47.333 0 -88.833 9.5 -124.5 28.5s-63.167 45.833 -82.5 80.5s-29 76 -29 124c0 46.667 9.16699 87.5 27.5 122.5s44.333 62.167 78 81.5s72.5 29 116.5 29c42 0 78 -8.83301 108 -26.5
s53.333 -42.334 70 -74.001s25 -69.167 25 -112.5c0 -6.66699 -0.333008 -13.667 -1 -21l-2 -22l-336 -2c2 -31.333 10 -57.166 24 -77.499s32 -35.166 54 -44.499s45.333 -14 70 -14c28.667 0 55 4.16699 79 12.5s46 20.5 66 36.5zM376 258.999
c-0.666992 36.667 -11.332 66.167 -31.999 88.5s-48.334 33.5 -83.001 33.5c-34 0 -64 -11.167 -90 -33.5s-41.333 -51.833 -46 -88.5h251zM332.002 707.999l64 -48l-151 -169l-40 29z" />
    <glyph glyph-name="ecircumflex" unicode="&#xea;" horiz-adv-x="499" 
d="M454 52c-27.333 -23.333 -55.5 -40.501 -84.5 -51.501s-60.833 -16.5 -95.5 -16.5c-47.333 0 -88.833 9.5 -124.5 28.5s-63.167 45.833 -82.5 80.5s-29 76 -29 124c0 46.667 9.16699 87.5 27.5 122.5s44.333 62.167 78 81.5s72.5 29 116.5 29c42 0 78 -8.83301 108 -26.5
s53.333 -42.334 70 -74.001s25 -69.167 25 -112.5c0 -6.66699 -0.333008 -13.667 -1 -21l-2 -22l-336 -2c2 -31.333 10 -57.166 24 -77.499s32 -35.166 54 -44.499s45.333 -14 70 -14c28.667 0 55 4.16699 79 12.5s46 20.5 66 36.5zM376 258.999
c-0.666992 36.667 -11.332 66.167 -31.999 88.5s-48.334 33.5 -83.001 33.5c-34 0 -64 -11.167 -90 -33.5s-41.333 -51.833 -46 -88.5h251zM258.002 641.999l153 -103l-26 -46l-127 68l-128 -66l-29 44z" />
    <glyph glyph-name="edieresis" unicode="&#xeb;" horiz-adv-x="499" 
d="M454 52c-27.333 -23.333 -55.5 -40.501 -84.5 -51.501s-60.833 -16.5 -95.5 -16.5c-47.333 0 -88.833 9.5 -124.5 28.5s-63.167 45.833 -82.5 80.5s-29 76 -29 124c0 46.667 9.16699 87.5 27.5 122.5s44.333 62.167 78 81.5s72.5 29 116.5 29c42 0 78 -8.83301 108 -26.5
s53.333 -42.334 70 -74.001s25 -69.167 25 -112.5c0 -6.66699 -0.333008 -13.667 -1 -21l-2 -22l-336 -2c2 -31.333 10 -57.166 24 -77.499s32 -35.166 54 -44.499s45.333 -14 70 -14c28.667 0 55 4.16699 79 12.5s46 20.5 66 36.5zM376 258.999
c-0.666992 36.667 -11.332 66.167 -31.999 88.5s-48.334 33.5 -83.001 33.5c-34 0 -64 -11.167 -90 -33.5s-41.333 -51.833 -46 -88.5h251zM347.002 629.999c16 0 29.833 -5.83301 41.5 -17.5s17.5 -25.834 17.5 -42.501c0 -16 -5.83301 -29.833 -17.5 -41.5
s-25.5 -17.5 -41.5 -17.5s-30 5.83301 -42 17.5s-18 25.5 -18 41.5c0 16.667 6 30.834 18 42.501s26 17.5 42 17.5zM165.002 629.999c16.667 0 30.834 -5.83301 42.501 -17.5s17.5 -25.834 17.5 -42.501c0 -16 -5.83301 -29.833 -17.5 -41.5s-25.834 -17.5 -42.501 -17.5
c-16 0 -29.833 5.83301 -41.5 17.5s-17.5 25.5 -17.5 41.5c0 16.667 5.83301 30.834 17.5 42.501s25.5 17.5 41.5 17.5z" />
    <glyph glyph-name="igrave" unicode="&#xec;" horiz-adv-x="315" 
d="M37 434h172v-364h83v-70h-255v70h83v294h-83v70zM151 491l-151 169l64 48l127 -188z" />
    <glyph glyph-name="iacute" unicode="&#xed;" horiz-adv-x="315" 
d="M37 434h172v-364h83v-70h-255v70h83v294h-83v70zM231 708l64 -48l-151 -169l-40 29z" />
    <glyph glyph-name="icircumflex" unicode="&#xee;" horiz-adv-x="315" 
d="M37 434h172v-364h83v-70h-255v70h83v294h-83v70zM157 642l153 -103l-26 -46l-127 68l-128 -66l-29 44z" />
    <glyph glyph-name="idieresis" unicode="&#xef;" horiz-adv-x="315" 
d="M37 434h172v-364h83v-70h-255v70h83v294h-83v70zM246 630c16 0 29.833 -5.83301 41.5 -17.5s17.5 -25.834 17.5 -42.501c0 -16 -5.83301 -29.833 -17.5 -41.5s-25.5 -17.5 -41.5 -17.5s-30 5.83301 -42 17.5s-18 25.5 -18 41.5c0 16.667 6 30.834 18 42.501
s26 17.5 42 17.5zM64 630c16.667 0 30.834 -5.83301 42.501 -17.5s17.5 -25.834 17.5 -42.501c0 -16 -5.83301 -29.833 -17.5 -41.5s-25.834 -17.5 -42.501 -17.5c-16 0 -29.833 5.83301 -41.5 17.5s-17.5 25.5 -17.5 41.5c0 16.667 5.83301 30.834 17.5 42.501
s25.5 17.5 41.5 17.5z" />
    <glyph glyph-name="eth" unicode="&#xf0;" horiz-adv-x="532" 
d="M301 580c36 -18.667 67.8281 -44.6631 95.4951 -77.9961s49.334 -70.833 65.001 -112.5s24.167 -84.167 25.5 -127.5c0 -64.667 -10 -117.5 -30 -158.5s-47 -71.333 -81 -91s-72 -29.5 -114 -29.5c-38.667 0 -75 8.16699 -109 24.5s-61.5 41.666 -82.5 75.999
s-31.5 78.166 -31.5 131.499c0 35.333 5.66699 66.666 17 93.999s26.833 50.833 46.5 70.5s42.834 34.5 69.501 44.5s55.334 15 86.001 15c14.667 0 31.334 -1.5 50.001 -4.5s36 -7.83301 52 -14.5c-14 23.333 -30 43.833 -48 61.5s-37.667 33.167 -59 46.5l-45 -50l-46 44
l33 37c-14 6.66699 -29.167 13.167 -45.5 19.5s-33.166 12.5 -50.499 18.5l15 59l71.5 -22c21 -6.66699 40.167 -14.334 57.5 -23.001l46 52l46 -45zM264.995 371.004c-44.667 0 -78.499 -13.668 -101.499 -41.001s-34.5 -66.333 -34.5 -117
c0 -51.333 11.333 -90.5 34 -117.5s56 -40.5 100 -40.5c29.333 0 54.166 7.66699 74.499 23s35.5 37.5 45.5 66.5s15 62.833 15 101.5c0 18 -1.16699 34.333 -3.5 49s-5.83301 29.334 -10.5 44.001c-13.333 10 -31 17.833 -53 23.5s-44 8.5 -66 8.5z" />
    <glyph glyph-name="ntilde" unicode="&#xf1;" horiz-adv-x="632" 
d="M43 0l-0.000976562 70h84v275l-96 33l23 70l135 -47c24 16 49.167 28.167 75.5 36.5s53.833 12.5 82.5 12.5c34.667 0 65.334 -6.66699 92.001 -20s47.667 -33 63 -59s23 -57.667 23 -95v-206h83v-70h-215v70h44v190c0 40 -9.83301 69.333 -29.5 88s-45.5 28 -77.5 28
c-18.667 0 -38 -2.83301 -58 -8.5s-39 -14.167 -57 -25.5v-272h44v-70h-216zM187.999 506l-23 55.001c21.333 14.667 39.666 25.5 54.999 32.5s34.666 10.5 57.999 10.5c19.333 0 36 -3.33301 50 -10s26.833 -13.334 38.5 -20.001s24.167 -10 37.5 -10
c12 0 22.5 2.5 31.5 7.5s21.5 13.167 37.5 24.5l25 -58c-19.333 -16.667 -36.166 -28.167 -50.499 -34.5s-30.166 -9.83301 -47.499 -10.5c-14.667 -0.666992 -28.5 2.5 -41.5 9.5l-39 21c-13 7 -26.833 10.5 -41.5 10.5c-17.333 0 -31.833 -2.33301 -43.5 -7
s-27.167 -11.667 -46.5 -21z" />
    <glyph glyph-name="ograve" unicode="&#xf2;" horiz-adv-x="530" 
d="M264 450c46 0 85.832 -9.33398 119.499 -28.001s59.834 -45.334 78.501 -80.001s28 -76.667 28 -126c0 -72 -20.5 -128.667 -61.5 -170s-95.833 -62 -164.5 -62c-44.667 0 -83.667 9.33301 -117 28s-59.166 45.334 -77.499 80.001s-27.5 76 -27.5 124
c0 49.333 9.16699 91.333 27.5 126s44.166 61.334 77.499 80.001s72.333 28 117 28zM264.999 377.999c-44.667 0 -78.167 -14 -100.5 -42s-33.5 -68 -33.5 -120c0 -51.333 11.167 -90.833 33.5 -118.5s55.833 -41.5 100.5 -41.5c45.333 0 79.333 13.833 102 41.5
s34 67.167 34 118.5c0 52 -11.333 92 -34 120s-56.667 42 -102 42zM260.999 490.999l-151 169l64 48l127 -188z" />
    <glyph glyph-name="oacute" unicode="&#xf3;" horiz-adv-x="530" 
d="M264 450c46 0 85.832 -9.33398 119.499 -28.001s59.834 -45.334 78.501 -80.001s28 -76.667 28 -126c0 -72 -20.5 -128.667 -61.5 -170s-95.833 -62 -164.5 -62c-44.667 0 -83.667 9.33301 -117 28s-59.166 45.334 -77.499 80.001s-27.5 76 -27.5 124
c0 49.333 9.16699 91.333 27.5 126s44.166 61.334 77.499 80.001s72.333 28 117 28zM264.999 377.999c-44.667 0 -78.167 -14 -100.5 -42s-33.5 -68 -33.5 -120c0 -51.333 11.167 -90.833 33.5 -118.5s55.833 -41.5 100.5 -41.5c45.333 0 79.333 13.833 102 41.5
s34 67.167 34 118.5c0 52 -11.333 92 -34 120s-56.667 42 -102 42zM340.999 707.999l64 -48l-151 -169l-40 29z" />
    <glyph glyph-name="ocircumflex" unicode="&#xf4;" horiz-adv-x="530" 
d="M264 450c46 0 85.832 -9.33398 119.499 -28.001s59.834 -45.334 78.501 -80.001s28 -76.667 28 -126c0 -72 -20.5 -128.667 -61.5 -170s-95.833 -62 -164.5 -62c-44.667 0 -83.667 9.33301 -117 28s-59.166 45.334 -77.499 80.001s-27.5 76 -27.5 124
c0 49.333 9.16699 91.333 27.5 126s44.166 61.334 77.499 80.001s72.333 28 117 28zM264.999 377.999c-44.667 0 -78.167 -14 -100.5 -42s-33.5 -68 -33.5 -120c0 -51.333 11.167 -90.833 33.5 -118.5s55.833 -41.5 100.5 -41.5c45.333 0 79.333 13.833 102 41.5
s34 67.167 34 118.5c0 52 -11.333 92 -34 120s-56.667 42 -102 42zM266.999 641.999l153 -103l-26 -46l-127 68l-128 -66l-29 44z" />
    <glyph glyph-name="otilde" unicode="&#xf5;" horiz-adv-x="530" 
d="M264 450c46 0 85.832 -9.33398 119.499 -28.001s59.834 -45.334 78.501 -80.001s28 -76.667 28 -126c0 -72 -20.5 -128.667 -61.5 -170s-95.833 -62 -164.5 -62c-44.667 0 -83.667 9.33301 -117 28s-59.166 45.334 -77.499 80.001s-27.5 76 -27.5 124
c0 49.333 9.16699 91.333 27.5 126s44.166 61.334 77.499 80.001s72.333 28 117 28zM264.999 377.999c-44.667 0 -78.167 -14 -100.5 -42s-33.5 -68 -33.5 -120c0 -51.333 11.167 -90.833 33.5 -118.5s55.833 -41.5 100.5 -41.5c45.333 0 79.333 13.833 102 41.5
s34 67.167 34 118.5c0 52 -11.333 92 -34 120s-56.667 42 -102 42zM139.999 505.999l-23 55.001c21.333 14.667 39.666 25.5 54.999 32.5s34.666 10.5 57.999 10.5c19.333 0 36 -3.33301 50 -10s26.833 -13.334 38.5 -20.001s24.167 -10 37.5 -10c12 0 22.5 2.5 31.5 7.5
s21.5 13.167 37.5 24.5l25 -58c-19.333 -16.667 -36.166 -28.167 -50.499 -34.5s-30.166 -9.83301 -47.499 -10.5c-14.667 -0.666992 -28.5 2.5 -41.5 9.5l-39 21c-13 7 -26.833 10.5 -41.5 10.5c-17.333 0 -31.833 -2.33301 -43.5 -7s-27.167 -11.667 -46.5 -21z" />
    <glyph glyph-name="odieresis" unicode="&#xf6;" horiz-adv-x="530" 
d="M264 450c46 0 85.832 -9.33398 119.499 -28.001s59.834 -45.334 78.501 -80.001s28 -76.667 28 -126c0 -72 -20.5 -128.667 -61.5 -170s-95.833 -62 -164.5 -62c-44.667 0 -83.667 9.33301 -117 28s-59.166 45.334 -77.499 80.001s-27.5 76 -27.5 124
c0 49.333 9.16699 91.333 27.5 126s44.166 61.334 77.499 80.001s72.333 28 117 28zM264.999 377.999c-44.667 0 -78.167 -14 -100.5 -42s-33.5 -68 -33.5 -120c0 -51.333 11.167 -90.833 33.5 -118.5s55.833 -41.5 100.5 -41.5c45.333 0 79.333 13.833 102 41.5
s34 67.167 34 118.5c0 52 -11.333 92 -34 120s-56.667 42 -102 42zM355.999 629.999c16 0 29.833 -5.83301 41.5 -17.5s17.5 -25.834 17.5 -42.501c0 -16 -5.83301 -29.833 -17.5 -41.5s-25.5 -17.5 -41.5 -17.5s-30 5.83301 -42 17.5s-18 25.5 -18 41.5
c0 16.667 6 30.834 18 42.501s26 17.5 42 17.5zM173.999 629.999c16.667 0 30.834 -5.83301 42.501 -17.5s17.5 -25.834 17.5 -42.501c0 -16 -5.83301 -29.833 -17.5 -41.5s-25.834 -17.5 -42.501 -17.5c-16 0 -29.833 5.83301 -41.5 17.5s-17.5 25.5 -17.5 41.5
c0 16.667 5.83301 30.834 17.5 42.501s25.5 17.5 41.5 17.5z" />
    <glyph glyph-name="divide" unicode="&#xf7;" horiz-adv-x="474" 
d="M237 201c17.333 0 32.666 -6.5 45.999 -19.5s20 -28.167 20 -45.5c0 -18 -6.66699 -33.5 -20 -46.5s-28.666 -19.5 -45.999 -19.5c-18 0 -33.5 6.5 -46.5 19.5s-19.5 28.5 -19.5 46.5c0 17.333 6.5 32.5 19.5 45.5s28.5 19.5 46.5 19.5zM237 526
c17.333 0 32.666 -6.5 45.999 -19.5s20 -28.167 20 -45.5c0 -18 -6.66699 -33.5 -20 -46.5s-28.666 -19.5 -45.999 -19.5c-18 0 -33.5 6.5 -46.5 19.5s-19.5 28.5 -19.5 46.5c0 17.333 6.5 32.5 19.5 45.5s28.5 19.5 46.5 19.5zM424 342v-76h-374v76h374z" />
    <glyph glyph-name="oslash" unicode="&#xf8;" horiz-adv-x="530" 
d="M171 -71h-53l241 574h53zM264 450c46 0 85.832 -9.33398 119.499 -28.001s59.834 -45.334 78.501 -80.001s28 -76.667 28 -126c0 -72 -20.5 -128.667 -61.5 -170s-95.833 -62 -164.5 -62c-44.667 0 -83.667 9.33301 -117 28s-59.166 45.334 -77.499 80.001
s-27.5 76 -27.5 124c0 49.333 9.16699 91.333 27.5 126s44.166 61.334 77.499 80.001s72.333 28 117 28zM264.999 377.999c-44.667 0 -78.167 -14 -100.5 -42s-33.5 -68 -33.5 -120c0 -51.333 11.167 -90.833 33.5 -118.5s55.833 -41.5 100.5 -41.5
c45.333 0 79.333 13.833 102 41.5s34 67.167 34 118.5c0 52 -11.333 92 -34 120s-56.667 42 -102 42z" />
    <glyph glyph-name="ugrave" unicode="&#xf9;" horiz-adv-x="617" 
d="M437 28c-21.333 -13.333 -45.333 -24 -72 -32s-51.667 -12 -75 -12c-63.333 0 -109.833 14 -139.5 42s-44.5 71.667 -44.5 131v207h-83v70h171v-260c0 -40.667 8 -70.167 24 -88.5s41.667 -27.5 77 -27.5c19.333 0 40.5 3 63.5 9s42.167 13.667 57.5 23v274h-83v70h171
v-348l92 -31l-23 -74zM280 491l-151 169l64 48l127 -188z" />
    <glyph glyph-name="uacute" unicode="&#xfa;" horiz-adv-x="617" 
d="M437 28c-21.333 -13.333 -45.333 -24 -72 -32s-51.667 -12 -75 -12c-63.333 0 -109.833 14 -139.5 42s-44.5 71.667 -44.5 131v207h-83v70h171v-260c0 -40.667 8 -70.167 24 -88.5s41.667 -27.5 77 -27.5c19.333 0 40.5 3 63.5 9s42.167 13.667 57.5 23v274h-83v70h171
v-348l92 -31l-23 -74zM360 708l64 -48l-151 -169l-40 29z" />
    <glyph glyph-name="ucircumflex" unicode="&#xfb;" horiz-adv-x="617" 
d="M437 28c-21.333 -13.333 -45.333 -24 -72 -32s-51.667 -12 -75 -12c-63.333 0 -109.833 14 -139.5 42s-44.5 71.667 -44.5 131v207h-83v70h171v-260c0 -40.667 8 -70.167 24 -88.5s41.667 -27.5 77 -27.5c19.333 0 40.5 3 63.5 9s42.167 13.667 57.5 23v274h-83v70h171
v-348l92 -31l-23 -74zM286 642l153 -103l-26 -46l-127 68l-128 -66l-29 44z" />
    <glyph glyph-name="udieresis" unicode="&#xfc;" horiz-adv-x="617" 
d="M437 28c-21.333 -13.333 -45.333 -24 -72 -32s-51.667 -12 -75 -12c-63.333 0 -109.833 14 -139.5 42s-44.5 71.667 -44.5 131v207h-83v70h171v-260c0 -40.667 8 -70.167 24 -88.5s41.667 -27.5 77 -27.5c19.333 0 40.5 3 63.5 9s42.167 13.667 57.5 23v274h-83v70h171
v-348l92 -31l-23 -74zM375 630c16 0 29.833 -5.83301 41.5 -17.5s17.5 -25.834 17.5 -42.501c0 -16 -5.83301 -29.833 -17.5 -41.5s-25.5 -17.5 -41.5 -17.5s-30 5.83301 -42 17.5s-18 25.5 -18 41.5c0 16.667 6 30.834 18 42.501s26 17.5 42 17.5zM193 630
c16.667 0 30.834 -5.83301 42.501 -17.5s17.5 -25.834 17.5 -42.501c0 -16 -5.83301 -29.833 -17.5 -41.5s-25.834 -17.5 -42.501 -17.5c-16 0 -29.833 5.83301 -41.5 17.5s-17.5 25.5 -17.5 41.5c0 16.667 5.83301 30.834 17.5 42.501s25.5 17.5 41.5 17.5z" />
    <glyph glyph-name="yacute" unicode="&#xfd;" horiz-adv-x="558" 
d="M151 -229c-10.667 0 -22 1 -34 3s-24.667 5.33301 -38 10l15 68c9.33301 -3.33301 18.333 -5.83301 27 -7.5s17 -2.5 25 -2.5c18 0 32.833 3.16699 44.5 9.5s22.5 18 32.5 35s20.667 41.833 32 74.5l144 403h-54l1 70h210v-70h-74l-168 -450
c-18 -47.333 -40.167 -83 -66.5 -107s-58.5 -36 -96.5 -36zM277 -69l-203 433h-72v70h218v-70h-56l150 -345zM357 708l64 -48l-151 -169l-40 29z" />
    <glyph glyph-name="thorn" unicode="&#xfe;" horiz-adv-x="526" 
d="M157 419c15.333 8 32.502 14.999 51.502 20.999s39.167 9 60.5 9c65.333 0 118 -19.167 158 -57.5s60 -93.166 60 -164.499c0 -48 -9.33301 -90.333 -28 -127s-44.834 -65.167 -78.501 -85.5s-72.834 -30.5 -117.501 -30.5c-20.667 0 -39.667 1.5 -57 4.5
s-33.333 6.5 -48 10.5v-141h84v-69h-256v69h84v695l-96 32l24 73l159 -55v-184zM157.002 77.999c2.66699 -0.666992 13.167 -4.66602 31.5 -11.999s42.833 -11 73.5 -11c44.667 0 78.167 15.833 100.5 47.5s33.5 73.167 33.5 124.5c0 49.333 -10.833 86.666 -32.5 111.999
s-54.167 38 -97.5 38c-20 0 -38 -2.66699 -54 -8s-28.667 -11 -38 -17l-17 -11v-263z" />
    <glyph glyph-name="ydieresis" unicode="&#xff;" horiz-adv-x="558" 
d="M151 -229c-10.667 0 -22 1 -34 3s-24.667 5.33301 -38 10l15 68c9.33301 -3.33301 18.333 -5.83301 27 -7.5s17 -2.5 25 -2.5c18 0 32.833 3.16699 44.5 9.5s22.5 18 32.5 35s20.667 41.833 32 74.5l144 403h-54l1 70h210v-70h-74l-168 -450
c-18 -47.333 -40.167 -83 -66.5 -107s-58.5 -36 -96.5 -36zM277 -69l-203 433h-72v70h218v-70h-56l150 -345zM372 630c16 0 29.833 -5.83301 41.5 -17.5s17.5 -25.834 17.5 -42.501c0 -16 -5.83301 -29.833 -17.5 -41.5s-25.5 -17.5 -41.5 -17.5s-30 5.83301 -42 17.5
s-18 25.5 -18 41.5c0 16.667 6 30.834 18 42.501s26 17.5 42 17.5zM190 630c16.667 0 30.834 -5.83301 42.501 -17.5s17.5 -25.834 17.5 -42.501c0 -16 -5.83301 -29.833 -17.5 -41.5s-25.834 -17.5 -42.501 -17.5c-16 0 -29.833 5.83301 -41.5 17.5s-17.5 25.5 -17.5 41.5
c0 16.667 5.83301 30.834 17.5 42.501s25.5 17.5 41.5 17.5z" />
    <glyph glyph-name="Amacron" unicode="&#x100;" horiz-adv-x="659" 
d="M9 0v78h97l162 433h-97v78h204l181 -511h94v-78h-248v78h61l-32 90h-211l-33 -90h62v-78h-240zM246 239h160l-76 245zM167 752h309v-64h-309v64z" />
    <glyph glyph-name="amacron" unicode="&#x101;" horiz-adv-x="532" 
d="M355 27c-44.667 -28.667 -91.999 -43 -141.999 -43c-57.333 0 -101 11.5 -131 34.5s-45.333 56.5 -46 100.5c-0.666992 88.667 56.333 133 171 133h124c0 43.333 -8.33301 75.5 -25 96.5s-41 31.5 -73 31.5c-15.333 0 -30.333 -1 -45 -3s-28.667 -5 -42 -9l-10 -54
l-72 13l17 95c25.333 9.33301 50.666 16.333 75.999 21s50.333 7 75 7c61.333 0 107.833 -16.5 139.5 -49.5s47.5 -81.5 47.5 -145.5v-172l92 -30l-23 -72zM210.001 186c-26.667 0 -47.333 -5.66797 -62 -17.001s-22 -27.666 -22 -48.999c0 -44 30.333 -66 91 -66
c43.333 0 81.333 11.667 114 35v96zM82.002 596.999h309v-64h-309v64z" />
    <glyph glyph-name="Abreve" unicode="&#x102;" horiz-adv-x="659" 
d="M9 0v78h97l162 433h-97v78h204l181 -511h94v-78h-248v78h61l-32 90h-211l-33 -90h62v-78h-240zM246 239h160l-76 245zM321 652c-92 0 -145.667 42 -161 126l69 11c6 -46.667 36.667 -70 92 -70c56.667 0 87.667 23.333 93 70l69 -11c-15.333 -84 -69.333 -126 -162 -126z
" />
    <glyph glyph-name="abreve" unicode="&#x103;" horiz-adv-x="532" 
d="M355 27c-44.667 -28.667 -91.999 -43 -141.999 -43c-57.333 0 -101 11.5 -131 34.5s-45.333 56.5 -46 100.5c-0.666992 88.667 56.333 133 171 133h124c0 43.333 -8.33301 75.5 -25 96.5s-41 31.5 -73 31.5c-15.333 0 -30.333 -1 -45 -3s-28.667 -5 -42 -9l-10 -54
l-72 13l17 95c25.333 9.33301 50.666 16.333 75.999 21s50.333 7 75 7c61.333 0 107.833 -16.5 139.5 -49.5s47.5 -81.5 47.5 -145.5v-172l92 -30l-23 -72zM210.001 186c-26.667 0 -47.333 -5.66797 -62 -17.001s-22 -27.666 -22 -48.999c0 -44 30.333 -66 91 -66
c43.333 0 81.333 11.667 114 35v96zM236.002 496.999c-92 0 -145.667 42 -161 126l69 11c6 -46.667 36.667 -70 92 -70c56.667 0 87.667 23.333 93 70l69 -11c-15.333 -84 -69.333 -126 -162 -126z" />
    <glyph glyph-name="Aogonek" unicode="&#x104;" horiz-adv-x="659" 
d="M9 0v78h97l162 433h-97v78h204l181 -511h94v-78h-248v78h61l-32 90h-211l-33 -90h62v-78h-240zM246 239h160l-76 245zM527 22l24.001 -22c-28 -14.667 -48.167 -30.667 -60.5 -48s-18.5 -36.333 -18.5 -57c0 -14.667 5.5 -26 16.5 -34s25.5 -12 43.5 -12
c16 0 32.333 3 49 9v-64c-13.333 -6.66699 -27 -11.5 -41 -14.5s-27.667 -4.5 -41 -4.5c-32.667 0 -60.167 8.33301 -82.5 25s-33.5 39 -33.5 67c0 33.333 11.667 62.5 35 87.5s59.666 47.5 108.999 67.5z" />
    <glyph glyph-name="aogonek" unicode="&#x105;" horiz-adv-x="532" 
d="M355 27c-44.667 -28.667 -91.999 -43 -141.999 -43c-57.333 0 -101 11.5 -131 34.5s-45.333 56.5 -46 100.5c-0.666992 88.667 56.333 133 171 133h124c0 43.333 -8.33301 75.5 -25 96.5s-41 31.5 -73 31.5c-15.333 0 -30.333 -1 -45 -3s-28.667 -5 -42 -9l-10 -54
l-72 13l17 95c25.333 9.33301 50.666 16.333 75.999 21s50.333 7 75 7c61.333 0 107.833 -16.5 139.5 -49.5s47.5 -81.5 47.5 -145.5v-172l92 -30l-23 -72zM210.001 186c-26.667 0 -47.333 -5.66797 -62 -17.001s-22 -27.666 -22 -48.999c0 -44 30.333 -66 91 -66
c43.333 0 81.333 11.667 114 35v96zM465.002 2.99902l24.001 -22c-28 -14.667 -48.167 -30.667 -60.5 -48s-18.5 -36.333 -18.5 -57c0 -14.667 5.5 -26 16.5 -34s25.5 -12 43.5 -12c16 0 32.333 3 49 9v-64c-13.333 -6.66699 -27 -11.5 -41 -14.5s-27.667 -4.5 -41 -4.5
c-32.667 0 -60.167 8.33301 -82.5 25s-33.5 39 -33.5 67c0 33.333 11.667 62.5 35 87.5s59.666 47.5 108.999 67.5z" />
    <glyph glyph-name="Cacute" unicode="&#x106;" horiz-adv-x="584" 
d="M445 507c-5.33301 3.33301 -13.333 6.66895 -24 10.002s-23.5 6.16602 -38.5 8.49902s-31.833 3.5 -50.5 3.5c-62.667 0 -110.5 -20.667 -143.5 -62s-49.5 -98.666 -49.5 -171.999c0 -74 17 -131.667 51 -173s81.333 -62 142 -62c16.667 0 32.334 1.33301 47.001 4
s27.834 5.66699 39.501 9s20.5 6.33301 26.5 9l20 82l76 -18l-26 -123l-22.5 -10c-15 -6.66699 -36.333 -13.167 -64 -19.5s-59.834 -9.5 -96.501 -9.5c-58 0 -108.5 12.333 -151.5 37s-76.5 60.167 -100.5 106.5s-36 102.166 -36 167.499c0 63.333 11.667 118.333 35 165
s56.666 82.667 99.999 108s94 37.666 152 36.999c44 0 79.667 -3.83301 107 -11.5s47.5 -15.5 60.5 -23.5s19.5 -12.333 19.5 -13l24 -123l-76 -17zM484 775.003l20 -79l-252 -45l-11 38z" />
    <glyph glyph-name="cacute" unicode="&#x107;" horiz-adv-x="477" 
d="M355 369c-14.667 4.66699 -28.3369 8.00098 -41.0039 10.001s-27 3 -43 3c-43.333 0 -77.666 -13.833 -102.999 -41.5s-38 -69.167 -38 -124.5c0 -52 13.833 -91.5 41.5 -118.5s60.834 -40.5 99.501 -40.5c21.333 0 42.833 3.66699 64.5 11s43.167 18 64.5 32l37 -54
c-17.333 -12.667 -34.166 -23.667 -50.499 -33s-34.166 -16.5 -53.499 -21.5s-42.666 -7.5 -69.999 -7.5c-44 0 -82.833 9.16699 -116.5 27.5s-59.834 45 -78.501 80s-28 76.5 -28 124.5c0 51.333 10 94.5 30 129.5s47.5 61.5 82.5 79.5s74.833 27 119.5 27
c26 0 50.833 -2.83301 74.5 -8.5s49.5 -12.834 77.5 -21.501l17 -114l-73 -16zM347.997 708.001l64 -48l-151 -169l-40 29z" />
    <glyph glyph-name="Ccircumflex" unicode="&#x108;" horiz-adv-x="584" 
d="M445 507c-5.33301 3.33301 -13.333 6.66895 -24 10.002s-23.5 6.16602 -38.5 8.49902s-31.833 3.5 -50.5 3.5c-62.667 0 -110.5 -20.667 -143.5 -62s-49.5 -98.666 -49.5 -171.999c0 -74 17 -131.667 51 -173s81.333 -62 142 -62c16.667 0 32.334 1.33301 47.001 4
s27.834 5.66699 39.501 9s20.5 6.33301 26.5 9l20 82l76 -18l-26 -123l-22.5 -10c-15 -6.66699 -36.333 -13.167 -64 -19.5s-59.834 -9.5 -96.501 -9.5c-58 0 -108.5 12.333 -151.5 37s-76.5 60.167 -100.5 106.5s-36 102.166 -36 167.499c0 63.333 11.667 118.333 35 165
s56.666 82.667 99.999 108s94 37.666 152 36.999c44 0 79.667 -3.83301 107 -11.5s47.5 -15.5 60.5 -23.5s19.5 -12.333 19.5 -13l24 -123l-76 -17zM331 783.003l174 -99l-22 -35l-152 57l-153 -57l-21 35z" />
    <glyph glyph-name="ccircumflex" unicode="&#x109;" horiz-adv-x="477" 
d="M355 369c-14.667 4.66699 -28.3369 8.00098 -41.0039 10.001s-27 3 -43 3c-43.333 0 -77.666 -13.833 -102.999 -41.5s-38 -69.167 -38 -124.5c0 -52 13.833 -91.5 41.5 -118.5s60.834 -40.5 99.501 -40.5c21.333 0 42.833 3.66699 64.5 11s43.167 18 64.5 32l37 -54
c-17.333 -12.667 -34.166 -23.667 -50.499 -33s-34.166 -16.5 -53.499 -21.5s-42.666 -7.5 -69.999 -7.5c-44 0 -82.833 9.16699 -116.5 27.5s-59.834 45 -78.501 80s-28 76.5 -28 124.5c0 51.333 10 94.5 30 129.5s47.5 61.5 82.5 79.5s74.833 27 119.5 27
c26 0 50.833 -2.83301 74.5 -8.5s49.5 -12.834 77.5 -21.501l17 -114l-73 -16zM273.997 642.001l153 -103l-26 -46l-127 68l-128 -66l-29 44z" />
    <glyph glyph-name="Cdotaccent" unicode="&#x10a;" horiz-adv-x="584" 
d="M445 507c-5.33301 3.33301 -13.333 6.66895 -24 10.002s-23.5 6.16602 -38.5 8.49902s-31.833 3.5 -50.5 3.5c-62.667 0 -110.5 -20.667 -143.5 -62s-49.5 -98.666 -49.5 -171.999c0 -74 17 -131.667 51 -173s81.333 -62 142 -62c16.667 0 32.334 1.33301 47.001 4
s27.834 5.66699 39.501 9s20.5 6.33301 26.5 9l20 82l76 -18l-26 -123l-22.5 -10c-15 -6.66699 -36.333 -13.167 -64 -19.5s-59.834 -9.5 -96.501 -9.5c-58 0 -108.5 12.333 -151.5 37s-76.5 60.167 -100.5 106.5s-36 102.166 -36 167.499c0 63.333 11.667 118.333 35 165
s56.666 82.667 99.999 108s94 37.666 152 36.999c44 0 79.667 -3.83301 107 -11.5s47.5 -15.5 60.5 -23.5s19.5 -12.333 19.5 -13l24 -123l-76 -17zM330 803.003c19.333 0 34.833 -5.83301 46.5 -17.5s17.5 -27.167 17.5 -46.5s-5.83301 -34.833 -17.5 -46.5
s-27.167 -17.5 -46.5 -17.5s-34.666 5.83301 -45.999 17.5s-17 27.167 -17 46.5s5.66699 34.833 17 46.5s26.666 17.5 45.999 17.5z" />
    <glyph glyph-name="cdotaccent" unicode="&#x10b;" horiz-adv-x="477" 
d="M355 369c-14.667 4.66699 -28.3369 8.00098 -41.0039 10.001s-27 3 -43 3c-43.333 0 -77.666 -13.833 -102.999 -41.5s-38 -69.167 -38 -124.5c0 -52 13.833 -91.5 41.5 -118.5s60.834 -40.5 99.501 -40.5c21.333 0 42.833 3.66699 64.5 11s43.167 18 64.5 32l37 -54
c-17.333 -12.667 -34.166 -23.667 -50.499 -33s-34.166 -16.5 -53.499 -21.5s-42.666 -7.5 -69.999 -7.5c-44 0 -82.833 9.16699 -116.5 27.5s-59.834 45 -78.501 80s-28 76.5 -28 124.5c0 51.333 10 94.5 30 129.5s47.5 61.5 82.5 79.5s74.833 27 119.5 27
c26 0 50.833 -2.83301 74.5 -8.5s49.5 -12.834 77.5 -21.501l17 -114l-73 -16zM270.997 648.001c19.333 0 34.833 -5.83301 46.5 -17.5s17.5 -27.167 17.5 -46.5s-5.83301 -34.833 -17.5 -46.5s-27.167 -17.5 -46.5 -17.5s-34.666 5.83301 -45.999 17.5s-17 27.167 -17 46.5
s5.66699 34.833 17 46.5s26.666 17.5 45.999 17.5z" />
    <glyph glyph-name="Ccaron" unicode="&#x10c;" horiz-adv-x="584" 
d="M445 507c-5.33301 3.33301 -13.333 6.66895 -24 10.002s-23.5 6.16602 -38.5 8.49902s-31.833 3.5 -50.5 3.5c-62.667 0 -110.5 -20.667 -143.5 -62s-49.5 -98.666 -49.5 -171.999c0 -74 17 -131.667 51 -173s81.333 -62 142 -62c16.667 0 32.334 1.33301 47.001 4
s27.834 5.66699 39.501 9s20.5 6.33301 26.5 9l20 82l76 -18l-26 -123l-22.5 -10c-15 -6.66699 -36.333 -13.167 -64 -19.5s-59.834 -9.5 -96.501 -9.5c-58 0 -108.5 12.333 -151.5 37s-76.5 60.167 -100.5 106.5s-36 102.166 -36 167.499c0 63.333 11.667 118.333 35 165
s56.666 82.667 99.999 108s94 37.666 152 36.999c44 0 79.667 -3.83301 107 -11.5s47.5 -15.5 60.5 -23.5s19.5 -12.333 19.5 -13l24 -123l-76 -17zM332 638.003l-157 103l29 44l128 -66l127 68l26 -46z" />
    <glyph glyph-name="ccaron" unicode="&#x10d;" horiz-adv-x="477" 
d="M355 369c-14.667 4.66699 -28.3369 8.00098 -41.0039 10.001s-27 3 -43 3c-43.333 0 -77.666 -13.833 -102.999 -41.5s-38 -69.167 -38 -124.5c0 -52 13.833 -91.5 41.5 -118.5s60.834 -40.5 99.501 -40.5c21.333 0 42.833 3.66699 64.5 11s43.167 18 64.5 32l37 -54
c-17.333 -12.667 -34.166 -23.667 -50.499 -33s-34.166 -16.5 -53.499 -21.5s-42.666 -7.5 -69.999 -7.5c-44 0 -82.833 9.16699 -116.5 27.5s-59.834 45 -78.501 80s-28 76.5 -28 124.5c0 51.333 10 94.5 30 129.5s47.5 61.5 82.5 79.5s74.833 27 119.5 27
c26 0 50.833 -2.83301 74.5 -8.5s49.5 -12.834 77.5 -21.501l17 -114l-73 -16zM273.997 483.001l-157 103l29 44l128 -66l127 68l26 -46z" />
    <glyph glyph-name="Dcaron" unicode="&#x10e;" horiz-adv-x="655" 
d="M306 589c96.667 0 171.833 -26.834 225.5 -80.501s80.5 -128.167 80.5 -223.5c0 -89.333 -26.167 -159.166 -78.5 -209.499s-125.5 -75.5 -219.5 -75.5h-276v78h92v433h-92v78h268zM295.999 77.999c73.333 0 128.5 17.5 165.5 52.5s55.5 86.167 55.5 153.5
c0 74.667 -17.833 131.167 -53.5 169.5s-88.167 57.5 -157.5 57.5h-86v-433h76zM288.999 644.999l-174 99l21 35l153 -57l152 57l22 -35z" />
    <glyph glyph-name="dcaron" unicode="&#x10f;" horiz-adv-x="570" 
d="M526 -19l-131.002 45.999c-40 -28.667 -83.667 -43 -131 -43c-70.667 0 -125.5 21.333 -164.5 64s-58.5 101.667 -58.5 177c0 70.667 19.5 125.834 58.5 165.501s93.833 59.5 164.5 59.5c16.667 0 34.334 -1.66699 53.001 -5s36.334 -8.33301 53.001 -15v121l-96 33
l24 71l160 -54v-515l91 -32zM264.998 55.999c16 0 33.499 3 52.499 9s36.5 14 52.5 24v266c-14 6.66699 -30.667 12.167 -50 16.5s-37.666 6.5 -54.999 6.5c-40 0 -72.333 -13.833 -97 -41.5s-37 -64.5 -37 -110.5c0 -51.333 12.333 -92.5 37 -123.5s57 -46.5 97 -46.5z
M413.997 646.999l-157 103l29 44l128 -66l127 68l26 -46z" />
    <glyph glyph-name="Dcroat" unicode="&#x110;" horiz-adv-x="668" 
d="M319 589c61.333 0 115 -9.33398 161 -28.001s81.667 -50.167 107 -94.5s38 -104.833 38 -181.5c0 -61.333 -13 -113.166 -39 -155.499s-61.5 -74.5 -106.5 -96.5s-95.833 -33 -152.5 -33h-276v78h92v189h-92v74h92v170h-92v78h268zM309 77.999
c48.667 0 89.5 7.33203 122.5 21.999s57.667 37.334 74 68.001s24.5 69.334 24.5 116.001c0 62 -8.16699 109.167 -24.5 141.5s-40 54.666 -71 66.999s-69.5 18.5 -115.5 18.5h-86v-170h108v-74h-108v-189h76z" />
    <glyph glyph-name="dcroat" unicode="&#x111;" horiz-adv-x="570" 
d="M526 -19l-131.002 46c-40 -28.667 -83.667 -43 -131 -43c-70.667 0 -125.5 20.167 -164.5 60.5s-58.5 96.5 -58.5 168.5c0 66.667 19.5 119.5 58.5 158.5s93.833 58.5 164.5 58.5c16.667 0 34.334 -1.66699 53.001 -5s36.334 -8.33301 53.001 -15v141l-96 33l24 71
l160 -54v-515l91 -32zM264.998 56c19.333 0 37.666 3.00098 54.999 9.00098s34 14 50 24v245c-14 7.33301 -30.667 13.166 -50 17.499s-37.666 6.5 -54.999 6.5c-40 0 -72.333 -13.5 -97 -40.5s-37 -61.5 -37 -103.5c0 -48 12.333 -86.333 37 -115s57 -43 97 -43z
M224.998 524.001h313v-60h-313v60z" />
    <glyph glyph-name="Emacron" unicode="&#x112;" horiz-adv-x="593" 
d="M39 589h447l53 -160l-73 -25l-40 107h-204v-169h182v-78h-182l-1 -186h227l39 105l73 -25l-53 -158h-469v78h93l1 433h-93v78zM140 752h309v-64h-309v64z" />
    <glyph glyph-name="emacron" unicode="&#x113;" horiz-adv-x="499" 
d="M454 52c-27.333 -23.333 -55.5 -40.501 -84.5 -51.501s-60.833 -16.5 -95.5 -16.5c-47.333 0 -88.833 9.5 -124.5 28.5s-63.167 45.833 -82.5 80.5s-29 76 -29 124c0 46.667 9.16699 87.5 27.5 122.5s44.333 62.167 78 81.5s72.5 29 116.5 29c42 0 78 -8.83301 108 -26.5
s53.333 -42.334 70 -74.001s25 -69.167 25 -112.5c0 -6.66699 -0.333008 -13.667 -1 -21l-2 -22l-336 -2c2 -31.333 10 -57.166 24 -77.499s32 -35.166 54 -44.499s45.333 -14 70 -14c28.667 0 55 4.16699 79 12.5s46 20.5 66 36.5zM376 258.999
c-0.666992 36.667 -11.332 66.167 -31.999 88.5s-48.334 33.5 -83.001 33.5c-34 0 -64 -11.167 -90 -33.5s-41.333 -51.833 -46 -88.5h251zM102.002 596.999h309v-64h-309v64z" />
    <glyph glyph-name="Ebreve" unicode="&#x114;" horiz-adv-x="593" 
d="M39 589h447l53 -160l-73 -25l-40 107h-204v-169h182v-78h-182l-1 -186h227l39 105l73 -25l-53 -158h-469v78h93l1 433h-93v78zM294 652c-92 0 -145.667 42 -161 126l69 11c6 -46.667 36.667 -70 92 -70c56.667 0 87.667 23.333 93 70l69 -11
c-15.333 -84 -69.333 -126 -162 -126z" />
    <glyph glyph-name="ebreve" unicode="&#x115;" horiz-adv-x="499" 
d="M454 52c-27.333 -23.333 -55.5 -40.501 -84.5 -51.501s-60.833 -16.5 -95.5 -16.5c-47.333 0 -88.833 9.5 -124.5 28.5s-63.167 45.833 -82.5 80.5s-29 76 -29 124c0 46.667 9.16699 87.5 27.5 122.5s44.333 62.167 78 81.5s72.5 29 116.5 29c42 0 78 -8.83301 108 -26.5
s53.333 -42.334 70 -74.001s25 -69.167 25 -112.5c0 -6.66699 -0.333008 -13.667 -1 -21l-2 -22l-336 -2c2 -31.333 10 -57.166 24 -77.499s32 -35.166 54 -44.499s45.333 -14 70 -14c28.667 0 55 4.16699 79 12.5s46 20.5 66 36.5zM376 258.999
c-0.666992 36.667 -11.332 66.167 -31.999 88.5s-48.334 33.5 -83.001 33.5c-34 0 -64 -11.167 -90 -33.5s-41.333 -51.833 -46 -88.5h251zM256.002 496.999c-92 0 -145.667 42 -161 126l69 11c6 -46.667 36.667 -70 92 -70c56.667 0 87.667 23.333 93 70l69 -11
c-15.333 -84 -69.333 -126 -162 -126z" />
    <glyph glyph-name="Edotaccent" unicode="&#x116;" horiz-adv-x="593" 
d="M39 589h447l53 -160l-73 -25l-40 107h-204v-169h182v-78h-182l-1 -186h227l39 105l73 -25l-53 -158h-469v78h93l1 433h-93v78zM294 803c19.333 0 34.833 -5.83301 46.5 -17.5s17.5 -27.167 17.5 -46.5s-5.83301 -34.833 -17.5 -46.5s-27.167 -17.5 -46.5 -17.5
s-34.666 5.83301 -45.999 17.5s-17 27.167 -17 46.5s5.66699 34.833 17 46.5s26.666 17.5 45.999 17.5z" />
    <glyph glyph-name="edotaccent" unicode="&#x117;" horiz-adv-x="499" 
d="M454 52c-27.333 -23.333 -55.5 -40.501 -84.5 -51.501s-60.833 -16.5 -95.5 -16.5c-47.333 0 -88.833 9.5 -124.5 28.5s-63.167 45.833 -82.5 80.5s-29 76 -29 124c0 46.667 9.16699 87.5 27.5 122.5s44.333 62.167 78 81.5s72.5 29 116.5 29c42 0 78 -8.83301 108 -26.5
s53.333 -42.334 70 -74.001s25 -69.167 25 -112.5c0 -6.66699 -0.333008 -13.667 -1 -21l-2 -22l-336 -2c2 -31.333 10 -57.166 24 -77.499s32 -35.166 54 -44.499s45.333 -14 70 -14c28.667 0 55 4.16699 79 12.5s46 20.5 66 36.5zM376 258.999
c-0.666992 36.667 -11.332 66.167 -31.999 88.5s-48.334 33.5 -83.001 33.5c-34 0 -64 -11.167 -90 -33.5s-41.333 -51.833 -46 -88.5h251zM256.002 647.999c19.333 0 34.833 -5.83301 46.5 -17.5s17.5 -27.167 17.5 -46.5s-5.83301 -34.833 -17.5 -46.5
s-27.167 -17.5 -46.5 -17.5s-34.666 5.83301 -45.999 17.5s-17 27.167 -17 46.5s5.66699 34.833 17 46.5s26.666 17.5 45.999 17.5z" />
    <glyph glyph-name="Eogonek" unicode="&#x118;" horiz-adv-x="593" 
d="M39 589h447l53 -160l-73 -25l-40 107h-204v-169h182v-78h-182l-1 -186h227l39 105l73 -25l-53 -158h-469v78h93l1 433h-93v78zM484 22l24.001 -22c-28 -14.667 -48.167 -30.667 -60.5 -48s-18.5 -36.333 -18.5 -57c0 -14.667 5.5 -26 16.5 -34s25.5 -12 43.5 -12
c16 0 32.333 3 49 9v-64c-13.333 -6.66699 -27 -11.5 -41 -14.5s-27.667 -4.5 -41 -4.5c-32.667 0 -60.167 8.33301 -82.5 25s-33.5 39 -33.5 67c0 33.333 11.667 62.5 35 87.5s59.666 47.5 108.999 67.5z" />
    <glyph glyph-name="eogonek" unicode="&#x119;" horiz-adv-x="499" 
d="M454 52c-27.333 -23.333 -55.5 -40.501 -84.5 -51.501s-60.833 -16.5 -95.5 -16.5c-47.333 0 -88.833 9.5 -124.5 28.5s-63.167 45.833 -82.5 80.5s-29 76 -29 124c0 46.667 9.16699 87.5 27.5 122.5s44.333 62.167 78 81.5s72.5 29 116.5 29c42 0 78 -8.83301 108 -26.5
s53.333 -42.334 70 -74.001s25 -69.167 25 -112.5c0 -6.66699 -0.333008 -13.667 -1 -21l-2 -22l-336 -2c2 -31.333 10 -57.166 24 -77.499s32 -35.166 54 -44.499s45.333 -14 70 -14c28.667 0 55 4.16699 79 12.5s46 20.5 66 36.5zM376 258.999
c-0.666992 36.667 -11.332 66.167 -31.999 88.5s-48.334 33.5 -83.001 33.5c-34 0 -64 -11.167 -90 -33.5s-41.333 -51.833 -46 -88.5h251zM394.002 47.999l24.001 -22c-28 -14.667 -48.167 -30.667 -60.5 -48s-18.5 -36.333 -18.5 -57c0 -14.667 5.5 -26 16.5 -34
s25.5 -12 43.5 -12c16 0 32.333 3 49 9v-64c-13.333 -6.66699 -27 -11.5 -41 -14.5s-27.667 -4.5 -41 -4.5c-32.667 0 -60.167 8.33301 -82.5 25s-33.5 39 -33.5 67c0 33.333 11.667 62.5 35 87.5s59.666 47.5 108.999 67.5z" />
    <glyph glyph-name="Ecaron" unicode="&#x11a;" horiz-adv-x="593" 
d="M39 589h447l53 -160l-73 -25l-40 107h-204v-169h182v-78h-182l-1 -186h227l39 105l73 -25l-53 -158h-469v78h93l1 433h-93v78zM296 638l-157 103l29 44l128 -66l127 68l26 -46z" />
    <glyph glyph-name="ecaron" unicode="&#x11b;" horiz-adv-x="499" 
d="M454 52c-27.333 -23.333 -55.5 -40.501 -84.5 -51.501s-60.833 -16.5 -95.5 -16.5c-47.333 0 -88.833 9.5 -124.5 28.5s-63.167 45.833 -82.5 80.5s-29 76 -29 124c0 46.667 9.16699 87.5 27.5 122.5s44.333 62.167 78 81.5s72.5 29 116.5 29c42 0 78 -8.83301 108 -26.5
s53.333 -42.334 70 -74.001s25 -69.167 25 -112.5c0 -6.66699 -0.333008 -13.667 -1 -21l-2 -22l-336 -2c2 -31.333 10 -57.166 24 -77.499s32 -35.166 54 -44.499s45.333 -14 70 -14c28.667 0 55 4.16699 79 12.5s46 20.5 66 36.5zM376 258.999
c-0.666992 36.667 -11.332 66.167 -31.999 88.5s-48.334 33.5 -83.001 33.5c-34 0 -64 -11.167 -90 -33.5s-41.333 -51.833 -46 -88.5h251zM258.002 482.999l-157 103l29 44l128 -66l127 68l26 -46z" />
    <glyph glyph-name="Gcircumflex" unicode="&#x11c;" horiz-adv-x="601" 
d="M541 55c-22.667 -16 -43.8311 -29.3301 -63.498 -39.9971s-41.334 -18.5 -65.001 -23.5s-52.167 -7.5 -85.5 -7.5c-54 0 -102.333 11.667 -145 35s-76.5 58 -101.5 104s-37.5 103.333 -37.5 172c0 63.333 12 118.166 36 164.499s57.667 82.166 101 107.499
s94.666 38 153.999 38c37.333 0 71.833 -4.66699 103.5 -14s59.834 -23.666 84.501 -42.999l25 -114l-77 -18l-19 83c-15.333 9.33301 -31.333 16.833 -48 22.5s-39 8.5 -67 8.5c-34 0 -66.167 -9.33301 -96.5 -28s-54.833 -45.334 -73.5 -80.001s-28 -77 -28 -127
c0 -54.667 8.66699 -99.334 26 -134.001s40.333 -60.167 69 -76.5s59.667 -24.5 93 -24.5c30.667 0 55.167 3 73.5 9s37.166 15 56.499 27v122h-128v76h213v-239zM339.003 783.003l174 -99l-22 -35l-152 57l-153 -57l-21 35z" />
    <glyph glyph-name="gcircumflex" unicode="&#x11d;" horiz-adv-x="546" 
d="M234 117c-62.667 0 -111.831 14.3301 -147.498 42.9971s-53.5 68.334 -53.5 119.001c0 52.667 18.167 94.334 54.5 125.001s85.5 46 147.5 46c25.333 0 47.666 -2.16699 66.999 -6.5s37.666 -11.166 54.999 -20.499l145 53l26 -76l-119 -25
c10 -12 17.5 -25.833 22.5 -41.5s7.5 -32.167 7.5 -49.5c0 -35.333 -8.66699 -65.5 -26 -90.5s-41.5 -44 -72.5 -57s-66.5 -19.5 -106.5 -19.5zM242.003 -228.003c-26 0 -53.501 2.50195 -82.501 7.50195s-55.833 11.333 -80.5 19s-43.334 15.167 -56.001 22.5l32 67
c26 -12.667 56 -22.667 90 -30s66.333 -11 97 -11c28.667 0 52.667 2.16699 72 6.5s34 11 44 20s15 19.833 15 32.5c0 19.333 -8 33.666 -24 42.999s-40.333 14 -73 14h-147v196l80 -23v-102h86c54.667 0 95.834 -10.5 123.501 -31.5s41.5 -51.5 41.5 -91.5
c0 -30 -9.16699 -55.333 -27.5 -76s-43.666 -36.334 -75.999 -47.001s-70.5 -16 -114.5 -16zM236.002 186.999c36 0 64.333 9 85 27s31 41 31 69c0 30.667 -9.83301 54.5 -29.5 71.5s-48.5 25.5 -86.5 25.5s-66.833 -8.5 -86.5 -25.5s-29.5 -40.833 -29.5 -71.5
c0 -28 10.333 -51 31 -69s49 -27 85 -27zM238.002 641.999l153 -103l-26 -46l-127 68l-128 -66l-29 44z" />
    <glyph glyph-name="Gbreve" unicode="&#x11e;" horiz-adv-x="601" 
d="M541 55c-22.667 -16 -43.8311 -29.3301 -63.498 -39.9971s-41.334 -18.5 -65.001 -23.5s-52.167 -7.5 -85.5 -7.5c-54 0 -102.333 11.667 -145 35s-76.5 58 -101.5 104s-37.5 103.333 -37.5 172c0 63.333 12 118.166 36 164.499s57.667 82.166 101 107.499
s94.666 38 153.999 38c37.333 0 71.833 -4.66699 103.5 -14s59.834 -23.666 84.501 -42.999l25 -114l-77 -18l-19 83c-15.333 9.33301 -31.333 16.833 -48 22.5s-39 8.5 -67 8.5c-34 0 -66.167 -9.33301 -96.5 -28s-54.833 -45.334 -73.5 -80.001s-28 -77 -28 -127
c0 -54.667 8.66699 -99.334 26 -134.001s40.333 -60.167 69 -76.5s59.667 -24.5 93 -24.5c30.667 0 55.167 3 73.5 9s37.166 15 56.499 27v122h-128v76h213v-239zM338.003 652.003c-92 0 -145.667 42 -161 126l69 11c6 -46.667 36.667 -70 92 -70
c56.667 0 87.667 23.333 93 70l69 -11c-15.333 -84 -69.333 -126 -162 -126z" />
    <glyph glyph-name="gbreve" unicode="&#x11f;" horiz-adv-x="546" 
d="M234 117c-62.667 0 -111.831 14.3301 -147.498 42.9971s-53.5 68.334 -53.5 119.001c0 52.667 18.167 94.334 54.5 125.001s85.5 46 147.5 46c25.333 0 47.666 -2.16699 66.999 -6.5s37.666 -11.166 54.999 -20.499l145 53l26 -76l-119 -25
c10 -12 17.5 -25.833 22.5 -41.5s7.5 -32.167 7.5 -49.5c0 -35.333 -8.66699 -65.5 -26 -90.5s-41.5 -44 -72.5 -57s-66.5 -19.5 -106.5 -19.5zM242.003 -228.003c-26 0 -53.501 2.50195 -82.501 7.50195s-55.833 11.333 -80.5 19s-43.334 15.167 -56.001 22.5l32 67
c26 -12.667 56 -22.667 90 -30s66.333 -11 97 -11c28.667 0 52.667 2.16699 72 6.5s34 11 44 20s15 19.833 15 32.5c0 19.333 -8 33.666 -24 42.999s-40.333 14 -73 14h-147v196l80 -23v-102h86c54.667 0 95.834 -10.5 123.501 -31.5s41.5 -51.5 41.5 -91.5
c0 -30 -9.16699 -55.333 -27.5 -76s-43.666 -36.334 -75.999 -47.001s-70.5 -16 -114.5 -16zM236.002 186.999c36 0 64.333 9 85 27s31 41 31 69c0 30.667 -9.83301 54.5 -29.5 71.5s-48.5 25.5 -86.5 25.5s-66.833 -8.5 -86.5 -25.5s-29.5 -40.833 -29.5 -71.5
c0 -28 10.333 -51 31 -69s49 -27 85 -27zM236.002 496.999c-92 0 -145.667 42 -161 126l69 11c6 -46.667 36.667 -70 92 -70c56.667 0 87.667 23.333 93 70l69 -11c-15.333 -84 -69.333 -126 -162 -126z" />
    <glyph glyph-name="Gdotaccent" unicode="&#x120;" horiz-adv-x="601" 
d="M541 55c-22.667 -16 -43.8311 -29.3301 -63.498 -39.9971s-41.334 -18.5 -65.001 -23.5s-52.167 -7.5 -85.5 -7.5c-54 0 -102.333 11.667 -145 35s-76.5 58 -101.5 104s-37.5 103.333 -37.5 172c0 63.333 12 118.166 36 164.499s57.667 82.166 101 107.499
s94.666 38 153.999 38c37.333 0 71.833 -4.66699 103.5 -14s59.834 -23.666 84.501 -42.999l25 -114l-77 -18l-19 83c-15.333 9.33301 -31.333 16.833 -48 22.5s-39 8.5 -67 8.5c-34 0 -66.167 -9.33301 -96.5 -28s-54.833 -45.334 -73.5 -80.001s-28 -77 -28 -127
c0 -54.667 8.66699 -99.334 26 -134.001s40.333 -60.167 69 -76.5s59.667 -24.5 93 -24.5c30.667 0 55.167 3 73.5 9s37.166 15 56.499 27v122h-128v76h213v-239zM338.003 803.003c19.333 0 34.833 -5.83301 46.5 -17.5s17.5 -27.167 17.5 -46.5
s-5.83301 -34.833 -17.5 -46.5s-27.167 -17.5 -46.5 -17.5s-34.666 5.83301 -45.999 17.5s-17 27.167 -17 46.5s5.66699 34.833 17 46.5s26.666 17.5 45.999 17.5z" />
    <glyph glyph-name="gdotaccent" unicode="&#x121;" horiz-adv-x="546" 
d="M234 117c-62.667 0 -111.831 14.3301 -147.498 42.9971s-53.5 68.334 -53.5 119.001c0 52.667 18.167 94.334 54.5 125.001s85.5 46 147.5 46c25.333 0 47.666 -2.16699 66.999 -6.5s37.666 -11.166 54.999 -20.499l145 53l26 -76l-119 -25
c10 -12 17.5 -25.833 22.5 -41.5s7.5 -32.167 7.5 -49.5c0 -35.333 -8.66699 -65.5 -26 -90.5s-41.5 -44 -72.5 -57s-66.5 -19.5 -106.5 -19.5zM242.003 -228.003c-26 0 -53.501 2.50195 -82.501 7.50195s-55.833 11.333 -80.5 19s-43.334 15.167 -56.001 22.5l32 67
c26 -12.667 56 -22.667 90 -30s66.333 -11 97 -11c28.667 0 52.667 2.16699 72 6.5s34 11 44 20s15 19.833 15 32.5c0 19.333 -8 33.666 -24 42.999s-40.333 14 -73 14h-147v196l80 -23v-102h86c54.667 0 95.834 -10.5 123.501 -31.5s41.5 -51.5 41.5 -91.5
c0 -30 -9.16699 -55.333 -27.5 -76s-43.666 -36.334 -75.999 -47.001s-70.5 -16 -114.5 -16zM236.002 186.999c36 0 64.333 9 85 27s31 41 31 69c0 30.667 -9.83301 54.5 -29.5 71.5s-48.5 25.5 -86.5 25.5s-66.833 -8.5 -86.5 -25.5s-29.5 -40.833 -29.5 -71.5
c0 -28 10.333 -51 31 -69s49 -27 85 -27zM235.002 647.999c19.333 0 34.833 -5.83301 46.5 -17.5s17.5 -27.167 17.5 -46.5s-5.83301 -34.833 -17.5 -46.5s-27.167 -17.5 -46.5 -17.5s-34.666 5.83301 -45.999 17.5s-17 27.167 -17 46.5s5.66699 34.833 17 46.5
s26.666 17.5 45.999 17.5z" />
    <glyph glyph-name="uni0122" unicode="&#x122;" horiz-adv-x="601" 
d="M541 55c-22.667 -16 -43.8311 -29.3301 -63.498 -39.9971s-41.334 -18.5 -65.001 -23.5s-52.167 -7.5 -85.5 -7.5c-54 0 -102.333 11.667 -145 35s-76.5 58 -101.5 104s-37.5 103.333 -37.5 172c0 63.333 12 118.166 36 164.499s57.667 82.166 101 107.499
s94.666 38 153.999 38c37.333 0 71.833 -4.66699 103.5 -14s59.834 -23.666 84.501 -42.999l25 -114l-77 -18l-19 83c-15.333 9.33301 -31.333 16.833 -48 22.5s-39 8.5 -67 8.5c-34 0 -66.167 -9.33301 -96.5 -28s-54.833 -45.334 -73.5 -80.001s-28 -77 -28 -127
c0 -54.667 8.66699 -99.334 26 -134.001s40.333 -60.167 69 -76.5s59.667 -24.5 93 -24.5c30.667 0 55.167 3 73.5 9s37.166 15 56.499 27v122h-128v76h213v-239zM314.003 -308.997l-35.998 32.001l8 12.5l19.5 31c7.66699 12.333 14.167 24.166 19.5 35.499
c-18.667 2.66699 -33 10 -43 22s-15 25.333 -15 40c0 20 6.66699 36 20 48s29.666 18 48.999 18s36.166 -7 50.499 -21s21.5 -31 21.5 -51s-4.33301 -39.667 -13 -59s-19.167 -37 -31.5 -53s-23.333 -28.833 -33 -38.5z" />
    <glyph glyph-name="uni0123" unicode="&#x123;" horiz-adv-x="546" 
d="M234 117c-62.667 0 -111.831 14.3301 -147.498 42.9971s-53.5 68.334 -53.5 119.001c0 52.667 18.167 94.334 54.5 125.001s85.5 46 147.5 46c25.333 0 47.666 -2.16699 66.999 -6.5s37.666 -11.166 54.999 -20.499l145 53l26 -76l-119 -25
c10 -12 17.5 -25.833 22.5 -41.5s7.5 -32.167 7.5 -49.5c0 -35.333 -8.66699 -65.5 -26 -90.5s-41.5 -44 -72.5 -57s-66.5 -19.5 -106.5 -19.5zM242.003 -228.003c-26 0 -53.501 2.50195 -82.501 7.50195s-55.833 11.333 -80.5 19s-43.334 15.167 -56.001 22.5l32 67
c26 -12.667 56 -22.667 90 -30s66.333 -11 97 -11c28.667 0 52.667 2.16699 72 6.5s34 11 44 20s15 19.833 15 32.5c0 19.333 -8 33.666 -24 42.999s-40.333 14 -73 14h-147v196l80 -23v-102h86c54.667 0 95.834 -10.5 123.501 -31.5s41.5 -51.5 41.5 -91.5
c0 -30 -9.16699 -55.333 -27.5 -76s-43.666 -36.334 -75.999 -47.001s-70.5 -16 -114.5 -16zM236.002 186.999c36 0 64.333 9 85 27s31 41 31 69c0 30.667 -9.83301 54.5 -29.5 71.5s-48.5 25.5 -86.5 25.5s-66.833 -8.5 -86.5 -25.5s-29.5 -40.833 -29.5 -71.5
c0 -28 10.333 -51 31 -69s49 -27 85 -27zM260.002 736.999l35.998 -32.001l-8 -12.5l-19.5 -31c-7.66699 -12.333 -14.167 -24.166 -19.5 -35.499c18.667 -2.66699 33 -10 43 -22s15 -25.333 15 -40c0 -20 -6.66699 -36 -20 -48s-29.666 -18 -48.999 -18
s-36.166 7 -50.499 21s-21.5 31 -21.5 51s4.33301 39.667 13 59s19.167 37 31.5 53s23.333 28.833 33 38.5z" />
    <glyph glyph-name="Hcircumflex" unicode="&#x124;" horiz-adv-x="720" 
d="M39 589h245v-78h-62l-1 -172h278l1 172h-62v78h244v-78h-92l-2 -433h93v-78h-244v78h62v184h-278l-1 -184h62v-78h-244v78h93l1 433h-93v78zM360 783l174 -99l-22 -35l-152 57l-153 -57l-21 35z" />
    <glyph glyph-name="hcircumflex" unicode="&#x125;" horiz-adv-x="611" 
d="M21 0v70h84v483l-95 33l23 70l160 -55v-192c43.333 27.333 88.333 41 135 41c59.333 0 103.333 -14.167 132 -42.5s43 -71.833 43 -130.5v-207h84v-70h-216v70h44v191c0 40.667 -8 70.167 -24 88.5s-41.667 27.5 -77 27.5c-20 0 -41.167 -2.83301 -63.5 -8.5
s-41.5 -13.5 -57.5 -23.5v-275h44v-70h-216zM114 793l174 -99l-22 -35l-152 57l-153 -57l-21 35z" />
    <glyph glyph-name="Hbar" unicode="&#x126;" horiz-adv-x="720" 
d="M50 455h614v-54h-614v54zM39 589h245v-78h-62l-1 -172h278l1 172h-62v78h244v-78h-92l-2 -433h93v-78h-244v78h62v184h-278l-1 -184h62v-78h-244v78h93l1 433h-93v78z" />
    <glyph glyph-name="hbar" unicode="&#x127;" horiz-adv-x="611" 
d="M21 0v70h84v483l-95 33l23 70l160 -55v-216c43.333 27.333 88.333 41 135 41c59.333 0 103.333 -14.167 132 -42.5s43 -71.833 43 -130.5v-183h84v-70h-216v70h44v167c0 40.667 -8 70.167 -24 88.5s-41.667 27.5 -77 27.5c-20 0 -41.167 -3 -63.5 -9
s-41.5 -13.667 -57.5 -23v-251h44v-70h-216zM15 524h311v-60h-311v60z" />
    <glyph glyph-name="Itilde" unicode="&#x128;" horiz-adv-x="357" 
d="M39 589h280v-78h-93l-2 -433h95v-78h-281v78h97v433h-96v78zM54 661l-23 55.001c21.333 14.667 39.666 25.5 54.999 32.5s34.666 10.5 57.999 10.5c19.333 0 36 -3.33301 50 -10s26.833 -13.334 38.5 -20.001s24.167 -10 37.5 -10c12 0 22.5 2.5 31.5 7.5
s21.5 13.167 37.5 24.5l25 -58c-19.333 -16.667 -36.166 -28.167 -50.499 -34.5s-30.166 -9.83301 -47.499 -10.5c-14.667 -0.666992 -28.5 2.5 -41.5 9.5l-39 21c-13 7 -26.833 10.5 -41.5 10.5c-17.333 0 -31.833 -2.33301 -43.5 -7s-27.167 -11.667 -46.5 -21z" />
    <glyph glyph-name="itilde" unicode="&#x129;" horiz-adv-x="315" 
d="M37 434h172v-364h83v-70h-255v70h83v294h-83v70zM45 506l-21.998 55c18 14.667 33.833 25.5 47.5 32.5s29.834 10.5 48.501 10.5c16 0 29.5 -3.33301 40.5 -10l32 -20c10.333 -6.66699 21.166 -10 32.499 -10c10.667 0 20.167 2.5 28.5 7.5s19.166 13.167 32.499 24.5
l22 -58c-15.333 -16.667 -29.5 -28.167 -42.5 -34.5s-28.167 -9.83301 -45.5 -10.5c-12.667 -0.666992 -24.334 2.5 -35.001 9.5l-32.5 21c-11 7 -22.833 10.5 -35.5 10.5s-23.667 -2.33301 -33 -7s-22 -11.667 -38 -21z" />
    <glyph glyph-name="Imacron" unicode="&#x12a;" horiz-adv-x="357" 
d="M39 589h280v-78h-93l-2 -433h95v-78h-281v78h97v433h-96v78zM24 752h309v-64h-309v64z" />
    <glyph glyph-name="imacron" unicode="&#x12b;" horiz-adv-x="315" 
d="M37 434h172v-364h83v-70h-255v70h83v294h-83v70zM30 597h249v-64h-249v64z" />
    <glyph glyph-name="Ibreve" unicode="&#x12c;" horiz-adv-x="357" 
d="M39 589h280v-78h-93l-2 -433h95v-78h-281v78h97v433h-96v78zM178 652c-92 0 -145.667 42 -161 126l69 11c6 -46.667 36.667 -70 92 -70c56.667 0 87.667 23.333 93 70l69 -11c-15.333 -84 -69.333 -126 -162 -126z" />
    <glyph glyph-name="ibreve" unicode="&#x12d;" horiz-adv-x="315" 
d="M37 434h172v-364h83v-70h-255v70h83v294h-83v70zM154 497c-80.667 0 -127.666 42 -140.999 126l68 11c5.33301 -46.667 29.666 -70 72.999 -70c44.667 0 69 23.333 73 70l69 -11c-14 -84 -61.333 -126 -142 -126z" />
    <glyph glyph-name="Iogonek" unicode="&#x12e;" horiz-adv-x="357" 
d="M39 589h280v-78h-93l-2 -433h95v-78h-281v78h97v433h-96v78zM296 22l24.001 -22c-28 -14.667 -48.167 -30.667 -60.5 -48s-18.5 -36.333 -18.5 -57c0 -14.667 5.5 -26 16.5 -34s25.5 -12 43.5 -12c16 0 32.333 3 49 9v-64c-13.333 -6.66699 -27 -11.5 -41 -14.5
s-27.667 -4.5 -41 -4.5c-32.667 0 -60.167 8.33301 -82.5 25s-33.5 39 -33.5 67c0 33.333 11.667 62.5 35 87.5s59.666 47.5 108.999 67.5z" />
    <glyph glyph-name="iogonek" unicode="&#x12f;" horiz-adv-x="315" 
d="M37 434h172v-364h83v-70h-255v70h83v294h-83v70zM154 648c19.333 0 34.833 -5.83301 46.5 -17.5s17.5 -27.167 17.5 -46.5s-5.83301 -34.833 -17.5 -46.5s-27.167 -17.5 -46.5 -17.5s-34.666 5.83301 -45.999 17.5s-17 27.167 -17 46.5s5.66699 34.833 17 46.5
s26.666 17.5 45.999 17.5zM204 22l24.001 -22c-28 -14.667 -48.167 -30.667 -60.5 -48s-18.5 -36.333 -18.5 -57c0 -14.667 5.5 -26 16.5 -34s25.5 -12 43.5 -12c16 0 32.333 3 49 9v-64c-13.333 -6.66699 -27 -11.5 -41 -14.5s-27.667 -4.5 -41 -4.5
c-32.667 0 -60.167 8.33301 -82.5 25s-33.5 39 -33.5 67c0 33.333 11.667 62.5 35 87.5s59.666 47.5 108.999 67.5z" />
    <glyph glyph-name="Idotaccent" unicode="&#x130;" horiz-adv-x="357" 
d="M39 589h280v-78h-93l-2 -433h95v-78h-281v78h97v433h-96v78zM178 803c19.333 0 34.833 -5.83301 46.5 -17.5s17.5 -27.167 17.5 -46.5s-5.83301 -34.833 -17.5 -46.5s-27.167 -17.5 -46.5 -17.5s-34.666 5.83301 -45.999 17.5s-17 27.167 -17 46.5
s5.66699 34.833 17 46.5s26.666 17.5 45.999 17.5z" />
    <glyph glyph-name="dotlessi" unicode="&#x131;" horiz-adv-x="315" 
d="M37 434h172v-364h83v-70h-255v70h83v294h-83v70z" />
    <glyph glyph-name="Jcircumflex" unicode="&#x134;" horiz-adv-x="518" 
d="M399 237c0 -53.333 -7.83203 -98.834 -23.499 -136.501s-38.667 -66.5 -69 -86.5s-67.833 -30 -112.5 -30c-23.333 0 -46.833 3 -70.5 9s-47.834 14 -72.501 24l-27 130l77 18l21 -91c13.333 -5.33301 26 -9.33301 38 -12s23 -4 33 -4c36 0 64.167 14.333 84.5 43
s30.5 70.334 30.5 125.001l1 285h-130v78h311v-78h-91v-274zM348.001 782.999l174 -99l-22 -35l-152 57l-153 -57l-21 35z" />
    <glyph glyph-name="jcircumflex" unicode="&#x135;" horiz-adv-x="262" 
d="M195 -32c0 -21.333 -1.16699 -43.3311 -3.5 -65.998s-9 -43.834 -20 -63.501s-29 -35.667 -54 -48s-60.5 -18.5 -106.5 -18.5c-8.66699 0 -18.5 0.666992 -29.5 2s-19.833 2.66602 -26.5 3.99902l11 68c6.66699 -0.666992 14 -1.16699 22 -1.5s15.667 -0.5 23 -0.5
c26 0 45.667 3.66699 59 11s22.5 17 27.5 29s7.83301 24.667 8.5 38s1 26 1 38v404h-84v70h172v-466zM145 642.002l153 -103l-26 -46l-127 68l-128 -66l-29 44z" />
    <glyph glyph-name="uni0136" unicode="&#x136;" horiz-adv-x="676" 
d="M38 589h243v-78h-62v-176h87l130 176h-67v78h250v-78h-92l-147 -197l162 -236h100v-78h-276v78h78l-122 180h-103v-180h62v-78h-243v78h92v433h-92v78zM301 -309l-35.998 32.001l8 12.5l19.5 31c7.66699 12.333 14.167 24.166 19.5 35.499c-18.667 2.66699 -33 10 -43 22
s-15 25.333 -15 40c0 20 6.66699 36 20 48s29.666 18 48.999 18s36.166 -7 50.499 -21s21.5 -31 21.5 -51s-4.33301 -39.667 -13 -59s-19.167 -37 -31.5 -53s-23.333 -28.833 -33 -38.5z" />
    <glyph glyph-name="uni0137" unicode="&#x137;" horiz-adv-x="561" 
d="M36 657l159 -55v-348h86l65 110h-52v70h219v-70h-82l-84 -140l95 -154h85v-70h-135l-112 184h-85v-114h42v-70h-214v70h84v484l-95 33zM284 -309l-35.998 32.001l8 12.5l19.5 31c7.66699 12.333 14.167 24.166 19.5 35.499c-18.667 2.66699 -33 10 -43 22
s-15 25.333 -15 40c0 20 6.66699 36 20 48s29.666 18 48.999 18s36.166 -7 50.499 -21s21.5 -31 21.5 -51s-4.33301 -39.667 -13 -59s-19.167 -37 -31.5 -53s-23.333 -28.833 -33 -38.5z" />
    <glyph glyph-name="kgreenlandic" unicode="&#x138;" horiz-adv-x="583" 
d="M43 434h214v-70h-42v-115h87l74 115h-51v70h218v-70h-81l-94 -145l96 -149h85v-70h-138l-115 179h-81v-109h42v-70h-214v70h84v294h-84v70z" />
    <glyph glyph-name="Lacute" unicode="&#x139;" horiz-adv-x="555" 
d="M38 589h310v-78h-110l-2 -433h181l38 104l74 -25l-55 -157h-436v78h109l1 433h-110v78zM353 775l20 -79l-252 -45l-11 38z" />
    <glyph glyph-name="lacute" unicode="&#x13a;" horiz-adv-x="304" 
d="M25 0v70h84v492l-99 24l20 72l167 -43v-545h84v-70h-256zM292 813l20 -79l-252 -45l-11 38z" />
    <glyph glyph-name="uni013B" unicode="&#x13b;" horiz-adv-x="555" 
d="M38 589h310v-78h-110l-2 -433h181l38 104l74 -25l-55 -157h-436v78h109l1 433h-110v78zM244 -309l-35.998 32.001l8 12.5l19.5 31c7.66699 12.333 14.167 24.166 19.5 35.499c-18.667 2.66699 -33 10 -43 22s-15 25.333 -15 40c0 20 6.66699 36 20 48
s29.666 18 48.999 18s36.166 -7 50.499 -21s21.5 -31 21.5 -51s-4.33301 -39.667 -13 -59s-19.167 -37 -31.5 -53s-23.333 -28.833 -33 -38.5z" />
    <glyph glyph-name="uni013C" unicode="&#x13c;" horiz-adv-x="304" 
d="M25 0v70h84v492l-99 24l20 72l167 -43v-545h84v-70h-256zM127 -309l-35.998 32.001l8 12.5l19.5 31c7.66699 12.333 14.167 24.166 19.5 35.499c-18.667 2.66699 -33 10 -43 22s-15 25.333 -15 40c0 20 6.66699 36 20 48s29.666 18 48.999 18s36.166 -7 50.499 -21
s21.5 -31 21.5 -51s-4.33301 -39.667 -13 -59s-19.167 -37 -31.5 -53s-23.333 -28.833 -33 -38.5z" />
    <glyph glyph-name="Lcaron" unicode="&#x13d;" horiz-adv-x="555" 
d="M38 589h310v-78h-110l-2 -433h181l38 104l74 -25l-55 -157h-436v78h109l1 433h-110v78zM443 610l78 -18l-70 -216l-48 11z" />
    <glyph glyph-name="lcaron" unicode="&#x13e;" horiz-adv-x="304" 
d="M25 0v70h84v418l-99 24l20 71l167 -42v-471h84v-70h-256zM7 747l132 -65l132 65l24 -37l-156 -109l-157 109z" />
    <glyph glyph-name="Ldot" unicode="&#x13f;" horiz-adv-x="600" 
d="M38 589h310v-78h-110l-2 -433h181l38 104l74 -25l-55 -157h-436v78h109l1 433h-110v78zM359 397c18 0 33.5 -6.5 46.5 -19.5s19.5 -28.833 19.5 -47.5c0 -18 -6.5 -33.667 -19.5 -47s-28.5 -20 -46.5 -20s-33.667 6.66699 -47 20s-20 29 -20 47
c0 18.667 6.66699 34.5 20 47.5s29 19.5 47 19.5z" />
    <glyph glyph-name="ldot" unicode="&#x140;" horiz-adv-x="383" 
d="M25 0v70h84v492l-99 24l20 72l167 -43v-545h84v-70h-256zM297 359c18 0 33.5 -6.5 46.5 -19.5s19.5 -28.833 19.5 -47.5c0 -18 -6.5 -33.667 -19.5 -47s-28.5 -20 -46.5 -20s-33.667 6.66699 -47 20s-20 29 -20 47c0 18.667 6.66699 34.5 20 47.5s29 19.5 47 19.5z" />
    <glyph glyph-name="Lslash" unicode="&#x141;" horiz-adv-x="555" 
d="M76 237l336 192v-76l-336 -192v76zM38 589h310v-78h-110l-2 -433h181l38 104l74 -25l-55 -157h-436v78h109l1 433h-110v78z" />
    <glyph glyph-name="lslash" unicode="&#x142;" horiz-adv-x="304" 
d="M38 265l234 202v-77l-234 -203v78zM25 0v70h84v492l-99 24l20 72l167 -43v-545h84v-70h-256z" />
    <glyph glyph-name="Nacute" unicode="&#x143;" horiz-adv-x="724" 
d="M39 589h232l243 -455v377h-82v78h265v-78h-96v-511h-108l-276 511l2 -433h84v-78h-265v78h94l-1 433h-92v78zM516 775l20 -79l-252 -45l-11 38z" />
    <glyph glyph-name="nacute" unicode="&#x144;" horiz-adv-x="632" 
d="M43 0l-0.000976562 70h84v275l-96 33l23 70l135 -47c24 16 49.167 28.167 75.5 36.5s53.833 12.5 82.5 12.5c34.667 0 65.334 -6.66699 92.001 -20s47.667 -33 63 -59s23 -57.667 23 -95v-206h83v-70h-215v70h44v190c0 40 -9.83301 69.333 -29.5 88s-45.5 28 -77.5 28
c-18.667 0 -38 -2.83301 -58 -8.5s-39 -14.167 -57 -25.5v-272h44v-70h-216zM388.999 708l64 -48l-151 -169l-40 29z" />
    <glyph glyph-name="uni0145" unicode="&#x145;" horiz-adv-x="724" 
d="M39 589h232l243 -455v377h-82v78h265v-78h-96v-511h-108l-276 511l2 -433h84v-78h-265v78h94l-1 433h-92v78zM338 -309l-35.998 32.001l8 12.5l19.5 31c7.66699 12.333 14.167 24.166 19.5 35.499c-18.667 2.66699 -33 10 -43 22s-15 25.333 -15 40
c0 20 6.66699 36 20 48s29.666 18 48.999 18s36.166 -7 50.499 -21s21.5 -31 21.5 -51s-4.33301 -39.667 -13 -59s-19.167 -37 -31.5 -53s-23.333 -28.833 -33 -38.5z" />
    <glyph glyph-name="uni0146" unicode="&#x146;" horiz-adv-x="632" 
d="M43 0l-0.000976562 70h84v275l-96 33l23 70l135 -47c24 16 49.167 28.167 75.5 36.5s53.833 12.5 82.5 12.5c34.667 0 65.334 -6.66699 92.001 -20s47.667 -33 63 -59s23 -57.667 23 -95v-206h83v-70h-215v70h44v190c0 40 -9.83301 69.333 -29.5 88s-45.5 28 -77.5 28
c-18.667 0 -38 -2.83301 -58 -8.5s-39 -14.167 -57 -25.5v-272h44v-70h-216zM288.999 -309l-35.998 32.001l8 12.5l19.5 31c7.66699 12.333 14.167 24.166 19.5 35.499c-18.667 2.66699 -33 10 -43 22s-15 25.333 -15 40c0 20 6.66699 36 20 48s29.666 18 48.999 18
s36.166 -7 50.499 -21s21.5 -31 21.5 -51s-4.33301 -39.667 -13 -59s-19.167 -37 -31.5 -53s-23.333 -28.833 -33 -38.5z" />
    <glyph glyph-name="Ncaron" unicode="&#x147;" horiz-adv-x="724" 
d="M39 589h232l243 -455v377h-82v78h265v-78h-96v-511h-108l-276 511l2 -433h84v-78h-265v78h94l-1 433h-92v78zM364 638l-157 103l29 44l128 -66l127 68l26 -46z" />
    <glyph glyph-name="ncaron" unicode="&#x148;" horiz-adv-x="632" 
d="M43 0l-0.000976562 70h84v275l-96 33l23 70l135 -47c24 16 49.167 28.167 75.5 36.5s53.833 12.5 82.5 12.5c34.667 0 65.334 -6.66699 92.001 -20s47.667 -33 63 -59s23 -57.667 23 -95v-206h83v-70h-215v70h44v190c0 40 -9.83301 69.333 -29.5 88s-45.5 28 -77.5 28
c-18.667 0 -38 -2.83301 -58 -8.5s-39 -14.167 -57 -25.5v-272h44v-70h-216zM314.999 483l-157 103l29 44l128 -66l127 68l26 -46z" />
    <glyph glyph-name="Eng" unicode="&#x14a;" horiz-adv-x="724" 
d="M426 -228c-20 0 -40.668 2.33301 -62.001 7s-43.666 12 -66.999 22l20 67c18 -6 34.833 -10.667 50.5 -14s29.834 -5 42.501 -5c31.333 0 55.666 9.83301 72.999 29.5s27.333 50.167 30 91.5l-296 541l2 -433h84v-78h-265v78h94l-1 433h-92v78h232l243 -455v377h-82v78
h265v-78h-96v-514c-2 -72 -18.333 -127.5 -49 -166.5s-72.667 -58.5 -126 -58.5z" />
    <glyph glyph-name="eng" unicode="&#x14b;" horiz-adv-x="575" 
d="M347 450c54 0 97.167 -15.5 129.5 -46.5s48.5 -73.5 48.5 -127.5v-261c0 -78 -15.167 -138 -45.5 -180s-73.166 -63 -128.499 -63c-20 0 -40.5 2.33301 -61.5 7s-43.5 12 -67.5 22l21 67c18 -6 34.667 -10.667 50 -14s29.666 -5 42.999 -5
c32.667 0 57.667 11.833 75 35.5s26 60.5 26 110.5v265c0 38 -9.16699 66.833 -27.5 86.5s-44.833 29.5 -79.5 29.5c-18 0 -37 -2.83301 -57 -8.5s-39.333 -14.167 -58 -25.5v-272h44v-70h-216v70h84v275l-96 33l23 70l135 -47c24.667 17.333 50.167 29.833 76.5 37.5
s53.5 11.5 81.5 11.5z" />
    <glyph glyph-name="Omacron" unicode="&#x14c;" horiz-adv-x="645" 
d="M321 605c56.667 0 105.833 -12.667 147.5 -38s74.167 -61.166 97.5 -107.499s35 -101.166 35 -164.499s-11.667 -118.166 -35 -164.499s-55.833 -82.333 -97.5 -108s-90.5 -38.5 -146.5 -38.5c-55.333 0 -103.833 12.833 -145.5 38.5s-74.167 61.667 -97.5 108
s-35 101.166 -35 164.499s11.5 118.166 34.5 164.499s55.333 82.166 97 107.499s90.167 38 145.5 38zM321.999 528c-58 0 -103 -20.333 -135 -61s-48 -98 -48 -172c0 -74.667 16 -132.334 48 -173.001s77 -61 135 -61c58.667 0 104.167 20.333 136.5 61
s48.5 98.334 48.5 173.001c0 74 -16.167 131.333 -48.5 172s-77.833 61 -136.5 61zM167.999 752h309v-64h-309v64z" />
    <glyph glyph-name="omacron" unicode="&#x14d;" horiz-adv-x="530" 
d="M264 450c46 0 85.832 -9.33398 119.499 -28.001s59.834 -45.334 78.501 -80.001s28 -76.667 28 -126c0 -72 -20.5 -128.667 -61.5 -170s-95.833 -62 -164.5 -62c-44.667 0 -83.667 9.33301 -117 28s-59.166 45.334 -77.499 80.001s-27.5 76 -27.5 124
c0 49.333 9.16699 91.333 27.5 126s44.166 61.334 77.499 80.001s72.333 28 117 28zM264.999 377.999c-44.667 0 -78.167 -14 -100.5 -42s-33.5 -68 -33.5 -120c0 -51.333 11.167 -90.833 33.5 -118.5s55.833 -41.5 100.5 -41.5c45.333 0 79.333 13.833 102 41.5
s34 67.167 34 118.5c0 52 -11.333 92 -34 120s-56.667 42 -102 42zM110.999 596.999h309v-64h-309v64z" />
    <glyph glyph-name="Obreve" unicode="&#x14e;" horiz-adv-x="645" 
d="M321 605c56.667 0 105.833 -12.667 147.5 -38s74.167 -61.166 97.5 -107.499s35 -101.166 35 -164.499s-11.667 -118.166 -35 -164.499s-55.833 -82.333 -97.5 -108s-90.5 -38.5 -146.5 -38.5c-55.333 0 -103.833 12.833 -145.5 38.5s-74.167 61.667 -97.5 108
s-35 101.166 -35 164.499s11.5 118.166 34.5 164.499s55.333 82.166 97 107.499s90.167 38 145.5 38zM321.999 528c-58 0 -103 -20.333 -135 -61s-48 -98 -48 -172c0 -74.667 16 -132.334 48 -173.001s77 -61 135 -61c58.667 0 104.167 20.333 136.5 61
s48.5 98.334 48.5 173.001c0 74 -16.167 131.333 -48.5 172s-77.833 61 -136.5 61zM321.999 652c-92 0 -145.667 42 -161 126l69 11c6 -46.667 36.667 -70 92 -70c56.667 0 87.667 23.333 93 70l69 -11c-15.333 -84 -69.333 -126 -162 -126z" />
    <glyph glyph-name="obreve" unicode="&#x14f;" horiz-adv-x="530" 
d="M264 450c46 0 85.832 -9.33398 119.499 -28.001s59.834 -45.334 78.501 -80.001s28 -76.667 28 -126c0 -72 -20.5 -128.667 -61.5 -170s-95.833 -62 -164.5 -62c-44.667 0 -83.667 9.33301 -117 28s-59.166 45.334 -77.499 80.001s-27.5 76 -27.5 124
c0 49.333 9.16699 91.333 27.5 126s44.166 61.334 77.499 80.001s72.333 28 117 28zM264.999 377.999c-44.667 0 -78.167 -14 -100.5 -42s-33.5 -68 -33.5 -120c0 -51.333 11.167 -90.833 33.5 -118.5s55.833 -41.5 100.5 -41.5c45.333 0 79.333 13.833 102 41.5
s34 67.167 34 118.5c0 52 -11.333 92 -34 120s-56.667 42 -102 42zM264.999 496.999c-92 0 -145.667 42 -161 126l69 11c6 -46.667 36.667 -70 92 -70c56.667 0 87.667 23.333 93 70l69 -11c-15.333 -84 -69.333 -126 -162 -126z" />
    <glyph glyph-name="Ohungarumlaut" unicode="&#x150;" horiz-adv-x="645" 
d="M321 605c56.667 0 105.833 -12.667 147.5 -38s74.167 -61.166 97.5 -107.499s35 -101.166 35 -164.499s-11.667 -118.166 -35 -164.499s-55.833 -82.333 -97.5 -108s-90.5 -38.5 -146.5 -38.5c-55.333 0 -103.833 12.833 -145.5 38.5s-74.167 61.667 -97.5 108
s-35 101.166 -35 164.499s11.5 118.166 34.5 164.499s55.333 82.166 97 107.499s90.167 38 145.5 38zM321.999 528c-58 0 -103 -20.333 -135 -61s-48 -98 -48 -172c0 -74.667 16 -132.334 48 -173.001s77 -61 135 -61c58.667 0 104.167 20.333 136.5 61
s48.5 98.334 48.5 173.001c0 74 -16.167 131.333 -48.5 172s-77.833 61 -136.5 61zM396.999 814l45 -59l-166 -105l-23 29zM551.999 771l27 -69l-191 -50l-15 33z" />
    <glyph glyph-name="ohungarumlaut" unicode="&#x151;" horiz-adv-x="530" 
d="M264 450c46 0 85.832 -9.33398 119.499 -28.001s59.834 -45.334 78.501 -80.001s28 -76.667 28 -126c0 -72 -20.5 -128.667 -61.5 -170s-95.833 -62 -164.5 -62c-44.667 0 -83.667 9.33301 -117 28s-59.166 45.334 -77.499 80.001s-27.5 76 -27.5 124
c0 49.333 9.16699 91.333 27.5 126s44.166 61.334 77.499 80.001s72.333 28 117 28zM264.999 377.999c-44.667 0 -78.167 -14 -100.5 -42s-33.5 -68 -33.5 -120c0 -51.333 11.167 -90.833 33.5 -118.5s55.833 -41.5 100.5 -41.5c45.333 0 79.333 13.833 102 41.5
s34 67.167 34 118.5c0 52 -11.333 92 -34 120s-56.667 42 -102 42zM280.999 707.999l64 -48l-151 -169l-40 29zM455.999 687.999l53 -59l-179 -138l-34 36z" />
    <glyph glyph-name="OE" unicode="&#x152;" horiz-adv-x="879" 
d="M339 0c-56 0 -106.332 11.334 -150.999 34.001s-79.834 56 -105.501 100s-38.5 98 -38.5 162c0 75.333 12.5 134.166 37.5 176.499s60.167 72.333 105.5 90s98 26.5 158 26.5h426l55 -161l-75 -24l-39 107h-203v-169h181v-78h-182v-186h225l39 105l75 -25l-55 -158h-453z
M345.001 512.001c-32 0 -60.667 -2.66699 -86 -8s-47 -15.5 -65 -30.5s-31.667 -36.833 -41 -65.5s-14 -66 -14 -112c0 -73.333 18.333 -128.333 55 -165s90 -54.667 160 -54l65 1v434h-74z" />
    <glyph glyph-name="oe" unicode="&#x153;" horiz-adv-x="759" 
d="M715 52c0 -0.666992 -4.33301 -4.33594 -13 -11.0029s-21 -14.5 -37 -23.5s-36 -16.833 -60 -23.5s-51.333 -10 -82 -10c-50.667 0 -94.334 13.333 -131.001 40c-16 -10.667 -35 -20 -57 -28s-46 -12 -72 -12c-44 0 -82.833 9.66699 -116.5 29s-59.834 47 -78.501 83
s-28 78 -28 126c0 45.333 9.66699 84.833 29 118.5s45.833 60 79.5 79s71.834 28.5 114.501 28.5c29.333 0 55.833 -3.5 79.5 -10.5s43.5 -15.167 59.5 -24.5c18 11.333 37.167 20 57.5 26s41.833 9 64.5 9c35.333 0 67.5 -6.33301 96.5 -19s52.167 -34 69.5 -64
s26 -70.667 26 -122c0 -9.33301 -0.166992 -18.166 -0.5 -26.499s-1.16602 -16.5 -2.49902 -24.5l-320 -2c3.33301 -43.333 16 -76.666 38 -99.999s53 -35 93 -35c30 0 56 3.83301 78 11.5s39.167 15.334 51.5 23.001s19.5 12.167 21.5 13.5zM264 375.998
c-42 0 -74.833 -14.333 -98.5 -43s-35.5 -65.334 -35.5 -110.001c0 -51.333 11.167 -92.166 33.5 -122.499s55.833 -45.5 100.5 -45.5c16 0 30.667 2 44 6s25.333 8.66699 36 14c-12 18 -21.333 38.833 -28 62.5s-10 49.5 -10 77.5c0 30 3.66699 57.333 11 82
s17.666 46 30.999 64c-9.33301 4 -21.166 7.5 -35.499 10.5s-30.5 4.5 -48.5 4.5zM636 260.998c0 36.667 -9.49805 65 -28.498 85s-46.833 30 -83.5 30s-65.834 -10 -87.501 -30s-35.834 -48.667 -42.501 -86z" />
    <glyph glyph-name="Racute" unicode="&#x154;" horiz-adv-x="618" 
d="M38 0l0.000976562 78h91v433h-91v78h265c56 0 100.167 -7 132.5 -21s55.333 -34.5 69 -61.5s20.5 -60.167 20.5 -99.5c0 -60.667 -16.333 -106.667 -49 -138s-88.334 -47 -167.001 -47h-90v-144h60v-78h-241zM220.001 301l81.998 0.00195312
c28.667 0 52.334 2.66699 71.001 8s32.834 15.666 42.501 30.999s14.5 37.333 14.5 66s-5 50.667 -15 66s-24.5 25.666 -43.5 30.999s-42.167 8 -69.5 8h-82v-210zM434.999 0.00195312l-125 229l91 12l96 -163h93v-78h-155zM429.999 775.002l20 -79l-252 -45l-11 38z" />
    <glyph glyph-name="racute" unicode="&#x155;" horiz-adv-x="433" 
d="M192 400c24 16.667 50.001 29.167 78.001 37.5s56 12.5 84 12.5c24 0 39.667 -2 47 -6l17 -110l-73 -15l-10 55c-21.333 -0.666992 -42.333 -4 -63 -10s-39.334 -14.333 -56.001 -25l-1 -269h98v-70h-269v70h84v274l-96 33l23 70zM290.001 708l64 -48l-151 -169l-40 29z
" />
    <glyph glyph-name="uni0156" unicode="&#x156;" horiz-adv-x="618" 
d="M38 0l0.000976562 78h91v433h-91v78h265c56 0 100.167 -7 132.5 -21s55.333 -34.5 69 -61.5s20.5 -60.167 20.5 -99.5c0 -60.667 -16.333 -106.667 -49 -138s-88.334 -47 -167.001 -47h-90v-144h60v-78h-241zM220.001 301l81.998 0.00195312
c28.667 0 52.334 2.66699 71.001 8s32.834 15.666 42.501 30.999s14.5 37.333 14.5 66s-5 50.667 -15 66s-24.5 25.666 -43.5 30.999s-42.167 8 -69.5 8h-82v-210zM434.999 0.00195312l-125 229l91 12l96 -163h93v-78h-155zM284.999 -308.998l-35.998 32.001l8 12.5l19.5 31
c7.66699 12.333 14.167 24.166 19.5 35.499c-18.667 2.66699 -33 10 -43 22s-15 25.333 -15 40c0 20 6.66699 36 20 48s29.666 18 48.999 18s36.166 -7 50.499 -21s21.5 -31 21.5 -51s-4.33301 -39.667 -13 -59s-19.167 -37 -31.5 -53s-23.333 -28.833 -33 -38.5z" />
    <glyph glyph-name="uni0157" unicode="&#x157;" horiz-adv-x="433" 
d="M192 400c24 16.667 50.001 29.167 78.001 37.5s56 12.5 84 12.5c24 0 39.667 -2 47 -6l17 -110l-73 -15l-10 55c-21.333 -0.666992 -42.333 -4 -63 -10s-39.334 -14.333 -56.001 -25l-1 -269h98v-70h-269v70h84v274l-96 33l23 70zM150.001 -309l-35.998 32.001l8 12.5
l19.5 31c7.66699 12.333 14.167 24.166 19.5 35.499c-18.667 2.66699 -33 10 -43 22s-15 25.333 -15 40c0 20 6.66699 36 20 48s29.666 18 48.999 18s36.166 -7 50.499 -21s21.5 -31 21.5 -51s-4.33301 -39.667 -13 -59s-19.167 -37 -31.5 -53s-23.333 -28.833 -33 -38.5z
" />
    <glyph glyph-name="Rcaron" unicode="&#x158;" horiz-adv-x="618" 
d="M38 0l0.000976562 78h91v433h-91v78h265c56 0 100.167 -7 132.5 -21s55.333 -34.5 69 -61.5s20.5 -60.167 20.5 -99.5c0 -60.667 -16.333 -106.667 -49 -138s-88.334 -47 -167.001 -47h-90v-144h60v-78h-241zM220.001 301l81.998 0.00195312
c28.667 0 52.334 2.66699 71.001 8s32.834 15.666 42.501 30.999s14.5 37.333 14.5 66s-5 50.667 -15 66s-24.5 25.666 -43.5 30.999s-42.167 8 -69.5 8h-82v-210zM434.999 0.00195312l-125 229l91 12l96 -163h93v-78h-155zM278.999 638.002l-157 103l29 44l128 -66l127 68
l26 -46z" />
    <glyph glyph-name="rcaron" unicode="&#x159;" horiz-adv-x="433" 
d="M192 400c24 16.667 50.001 29.167 78.001 37.5s56 12.5 84 12.5c24 0 39.667 -2 47 -6l17 -110l-73 -15l-10 55c-21.333 -0.666992 -42.333 -4 -63 -10s-39.334 -14.333 -56.001 -25l-1 -269h98v-70h-269v70h84v274l-96 33l23 70zM216.001 483l-157 103l29 44l128 -66
l127 68l26 -46z" />
    <glyph glyph-name="Sacute" unicode="&#x15a;" horiz-adv-x="543" 
d="M275 -16c-47.333 0 -88.6689 4.16895 -124.002 12.502s-65 16.833 -89 25.5l-19 126l74 8l13 -75c20 -6.66699 41 -12 63 -16s48.667 -6 80 -6c24.667 0 47.5 3.33301 68.5 10s38 17.5 51 32.5s19.5 34.833 19.5 59.5c0 25.333 -6.83301 47 -20.5 65s-40.5 30 -80.5 36
l-75 11c-58 9.33301 -102.5 28.666 -133.5 57.999s-46.5 66.333 -46.5 111c0 32.667 8.33301 61.167 25 85.5s41.334 43.333 74.001 57s72.334 20.5 119.001 20.5c24.667 0 47.334 -1 68.001 -3s40.667 -5.5 60 -10.5s39.666 -11.833 60.999 -20.5l18 -130l-76 -8l-13 83
c-13.333 4.66699 -30 8.5 -50 11.5s-43 4.5 -69 4.5c-41.333 0 -74.166 -7.5 -98.499 -22.5s-36.5 -36.167 -36.5 -63.5c0 -26.667 8.83301 -47.334 26.5 -62.001s43.5 -24.667 77.5 -30l87 -14c58.667 -8.66699 101.667 -27.667 129 -57s41 -66 41 -110
c0 -32.667 -6.33301 -61.167 -19 -85.5s-29.5 -44 -50.5 -59s-44.833 -26.167 -71.5 -33.5s-54.334 -11 -83.001 -11zM423.997 775.002l20 -79l-252 -45l-11 38z" />
    <glyph glyph-name="sacute" unicode="&#x15b;" horiz-adv-x="454" 
d="M314 367c-14 5.33301 -27.4951 9.50293 -40.4951 12.5029s-29.167 4.5 -48.5 4.5c-24.667 0 -46.834 -5.16699 -66.501 -15.5s-29.5 -25.5 -29.5 -45.5c0 -18.667 7.5 -33.334 22.5 -44.001s37.833 -17.667 68.5 -21l47 -6c54 -5.33301 92.167 -18.833 114.5 -40.5
s33.5 -50.834 33.5 -87.501c0 -28.667 -8 -53.667 -24 -75s-37.833 -37.5 -65.5 -48.5s-59.5 -16.5 -95.5 -16.5c-34 0 -66.333 4.16699 -97 12.5s-57.334 19.166 -80.001 32.499l-18 102l77 17l13 -66c15.333 -8 31.666 -14.167 48.999 -18.5s34.666 -6.5 51.999 -6.5
c29.333 0 54.833 5.5 76.5 16.5s32.5 27.167 32.5 48.5c0 18.667 -6.33301 32.167 -19 40.5s-35 14.5 -67 18.5l-48 6c-48.667 6 -86.167 20.5 -112.5 43.5s-39.5 51.833 -39.5 86.5c0 29.333 8.16699 54 24.5 74s38 35 65 45s55.833 15 86.5 15
c31.333 0 59.666 -3.16699 84.999 -9.5s49.333 -15.833 72 -28.5l18 -95l-69 -15zM301.005 708.003l64 -48l-151 -169l-40 29z" />
    <glyph glyph-name="Scircumflex" unicode="&#x15c;" horiz-adv-x="543" 
d="M275 -16c-47.333 0 -88.6689 4.16895 -124.002 12.502s-65 16.833 -89 25.5l-19 126l74 8l13 -75c20 -6.66699 41 -12 63 -16s48.667 -6 80 -6c24.667 0 47.5 3.33301 68.5 10s38 17.5 51 32.5s19.5 34.833 19.5 59.5c0 25.333 -6.83301 47 -20.5 65s-40.5 30 -80.5 36
l-75 11c-58 9.33301 -102.5 28.666 -133.5 57.999s-46.5 66.333 -46.5 111c0 32.667 8.33301 61.167 25 85.5s41.334 43.333 74.001 57s72.334 20.5 119.001 20.5c24.667 0 47.334 -1 68.001 -3s40.667 -5.5 60 -10.5s39.666 -11.833 60.999 -20.5l18 -130l-76 -8l-13 83
c-13.333 4.66699 -30 8.5 -50 11.5s-43 4.5 -69 4.5c-41.333 0 -74.166 -7.5 -98.499 -22.5s-36.5 -36.167 -36.5 -63.5c0 -26.667 8.83301 -47.334 26.5 -62.001s43.5 -24.667 77.5 -30l87 -14c58.667 -8.66699 101.667 -27.667 129 -57s41 -66 41 -110
c0 -32.667 -6.33301 -61.167 -19 -85.5s-29.5 -44 -50.5 -59s-44.833 -26.167 -71.5 -33.5s-54.334 -11 -83.001 -11zM270.997 783.002l174 -99l-22 -35l-152 57l-153 -57l-21 35z" />
    <glyph glyph-name="scircumflex" unicode="&#x15d;" horiz-adv-x="454" 
d="M314 367c-14 5.33301 -27.4951 9.50293 -40.4951 12.5029s-29.167 4.5 -48.5 4.5c-24.667 0 -46.834 -5.16699 -66.501 -15.5s-29.5 -25.5 -29.5 -45.5c0 -18.667 7.5 -33.334 22.5 -44.001s37.833 -17.667 68.5 -21l47 -6c54 -5.33301 92.167 -18.833 114.5 -40.5
s33.5 -50.834 33.5 -87.501c0 -28.667 -8 -53.667 -24 -75s-37.833 -37.5 -65.5 -48.5s-59.5 -16.5 -95.5 -16.5c-34 0 -66.333 4.16699 -97 12.5s-57.334 19.166 -80.001 32.499l-18 102l77 17l13 -66c15.333 -8 31.666 -14.167 48.999 -18.5s34.666 -6.5 51.999 -6.5
c29.333 0 54.833 5.5 76.5 16.5s32.5 27.167 32.5 48.5c0 18.667 -6.33301 32.167 -19 40.5s-35 14.5 -67 18.5l-48 6c-48.667 6 -86.167 20.5 -112.5 43.5s-39.5 51.833 -39.5 86.5c0 29.333 8.16699 54 24.5 74s38 35 65 45s55.833 15 86.5 15
c31.333 0 59.666 -3.16699 84.999 -9.5s49.333 -15.833 72 -28.5l18 -95l-69 -15zM227.005 642.003l153 -103l-26 -46l-127 68l-128 -66l-29 44z" />
    <glyph glyph-name="Scedilla" unicode="&#x15e;" horiz-adv-x="543" 
d="M275 -16c-47.333 0 -88.6689 4.16895 -124.002 12.502s-65 16.833 -89 25.5l-19 126l74 8l13 -75c20 -6.66699 41 -12 63 -16s48.667 -6 80 -6c24.667 0 47.5 3.33301 68.5 10s38 17.5 51 32.5s19.5 34.833 19.5 59.5c0 25.333 -6.83301 47 -20.5 65s-40.5 30 -80.5 36
l-75 11c-58 9.33301 -102.5 28.666 -133.5 57.999s-46.5 66.333 -46.5 111c0 32.667 8.33301 61.167 25 85.5s41.334 43.333 74.001 57s72.334 20.5 119.001 20.5c24.667 0 47.334 -1 68.001 -3s40.667 -5.5 60 -10.5s39.666 -11.833 60.999 -20.5l18 -130l-76 -8l-13 83
c-13.333 4.66699 -30 8.5 -50 11.5s-43 4.5 -69 4.5c-41.333 0 -74.166 -7.5 -98.499 -22.5s-36.5 -36.167 -36.5 -63.5c0 -26.667 8.83301 -47.334 26.5 -62.001s43.5 -24.667 77.5 -30l87 -14c58.667 -8.66699 101.667 -27.667 129 -57s41 -66 41 -110
c0 -32.667 -6.33301 -61.167 -19 -85.5s-29.5 -44 -50.5 -59s-44.833 -26.167 -71.5 -33.5s-54.334 -11 -83.001 -11zM326.997 -225.998c-20.667 0 -38.999 2.99805 -54.999 8.99805s-28.833 12.167 -38.5 18.5s-15.834 10.166 -18.501 11.499l25 40
c12 -7.33301 25.667 -13.666 41 -18.999s30 -8 44 -8c18 0 31.167 3 39.5 9s12.5 14.667 12.5 26c0 12 -4.66699 20.667 -14 26s-25.333 8 -48 8h-43v105h56v-60c38 0.666992 66.333 -5.66602 85 -18.999s28 -33.666 28 -60.999c0 -18 -4.66699 -33.5 -14 -46.5
s-22.5 -22.833 -39.5 -29.5s-37.167 -10 -60.5 -10z" />
    <glyph glyph-name="scedilla" unicode="&#x15f;" horiz-adv-x="454" 
d="M314 367c-14 5.33301 -27.4951 9.50293 -40.4951 12.5029s-29.167 4.5 -48.5 4.5c-24.667 0 -46.834 -5.16699 -66.501 -15.5s-29.5 -25.5 -29.5 -45.5c0 -18.667 7.5 -33.334 22.5 -44.001s37.833 -17.667 68.5 -21l47 -6c54 -5.33301 92.167 -18.833 114.5 -40.5
s33.5 -50.834 33.5 -87.501c0 -28.667 -8 -53.667 -24 -75s-37.833 -37.5 -65.5 -48.5s-59.5 -16.5 -95.5 -16.5c-34 0 -66.333 4.16699 -97 12.5s-57.334 19.166 -80.001 32.499l-18 102l77 17l13 -66c15.333 -8 31.666 -14.167 48.999 -18.5s34.666 -6.5 51.999 -6.5
c29.333 0 54.833 5.5 76.5 16.5s32.5 27.167 32.5 48.5c0 18.667 -6.33301 32.167 -19 40.5s-35 14.5 -67 18.5l-48 6c-48.667 6 -86.167 20.5 -112.5 43.5s-39.5 51.833 -39.5 86.5c0 29.333 8.16699 54 24.5 74s38 35 65 45s55.833 15 86.5 15
c31.333 0 59.666 -3.16699 84.999 -9.5s49.333 -15.833 72 -28.5l18 -95l-69 -15zM280.005 -225.997c-20.667 0 -38.999 2.99805 -54.999 8.99805s-28.833 12.167 -38.5 18.5s-15.834 10.166 -18.501 11.499l25 40c12 -7.33301 25.667 -13.666 41 -18.999s30 -8 44 -8
c18 0 31.167 3 39.5 9s12.5 14.667 12.5 26c0 12 -4.66699 20.667 -14 26s-25.333 8 -48 8h-43v105h56v-60c38 0.666992 66.333 -5.66602 85 -18.999s28 -33.666 28 -60.999c0 -18 -4.66699 -33.5 -14 -46.5s-22.5 -22.833 -39.5 -29.5s-37.167 -10 -60.5 -10z" />
    <glyph glyph-name="Scaron" unicode="&#x160;" horiz-adv-x="543" 
d="M275 -16c-47.333 0 -88.6689 4.16895 -124.002 12.502s-65 16.833 -89 25.5l-19 126l74 8l13 -75c20 -6.66699 41 -12 63 -16s48.667 -6 80 -6c24.667 0 47.5 3.33301 68.5 10s38 17.5 51 32.5s19.5 34.833 19.5 59.5c0 25.333 -6.83301 47 -20.5 65s-40.5 30 -80.5 36
l-75 11c-58 9.33301 -102.5 28.666 -133.5 57.999s-46.5 66.333 -46.5 111c0 32.667 8.33301 61.167 25 85.5s41.334 43.333 74.001 57s72.334 20.5 119.001 20.5c24.667 0 47.334 -1 68.001 -3s40.667 -5.5 60 -10.5s39.666 -11.833 60.999 -20.5l18 -130l-76 -8l-13 83
c-13.333 4.66699 -30 8.5 -50 11.5s-43 4.5 -69 4.5c-41.333 0 -74.166 -7.5 -98.499 -22.5s-36.5 -36.167 -36.5 -63.5c0 -26.667 8.83301 -47.334 26.5 -62.001s43.5 -24.667 77.5 -30l87 -14c58.667 -8.66699 101.667 -27.667 129 -57s41 -66 41 -110
c0 -32.667 -6.33301 -61.167 -19 -85.5s-29.5 -44 -50.5 -59s-44.833 -26.167 -71.5 -33.5s-54.334 -11 -83.001 -11zM272.997 638.002l-157 103l29 44l128 -66l127 68l26 -46z" />
    <glyph glyph-name="scaron" unicode="&#x161;" horiz-adv-x="454" 
d="M314 367c-14 5.33301 -27.4951 9.50293 -40.4951 12.5029s-29.167 4.5 -48.5 4.5c-24.667 0 -46.834 -5.16699 -66.501 -15.5s-29.5 -25.5 -29.5 -45.5c0 -18.667 7.5 -33.334 22.5 -44.001s37.833 -17.667 68.5 -21l47 -6c54 -5.33301 92.167 -18.833 114.5 -40.5
s33.5 -50.834 33.5 -87.501c0 -28.667 -8 -53.667 -24 -75s-37.833 -37.5 -65.5 -48.5s-59.5 -16.5 -95.5 -16.5c-34 0 -66.333 4.16699 -97 12.5s-57.334 19.166 -80.001 32.499l-18 102l77 17l13 -66c15.333 -8 31.666 -14.167 48.999 -18.5s34.666 -6.5 51.999 -6.5
c29.333 0 54.833 5.5 76.5 16.5s32.5 27.167 32.5 48.5c0 18.667 -6.33301 32.167 -19 40.5s-35 14.5 -67 18.5l-48 6c-48.667 6 -86.167 20.5 -112.5 43.5s-39.5 51.833 -39.5 86.5c0 29.333 8.16699 54 24.5 74s38 35 65 45s55.833 15 86.5 15
c31.333 0 59.666 -3.16699 84.999 -9.5s49.333 -15.833 72 -28.5l18 -95l-69 -15zM227.005 483.003l-157 103l29 44l128 -66l127 68l26 -46z" />
    <glyph glyph-name="uni0162" unicode="&#x162;" horiz-adv-x="591" 
d="M34 589h520v-174h-83v96h-131l-2 -433h92v-78h-274v78h92l1 433h-131v-96h-84v174zM350 -226c-20.667 0 -38.999 2.99805 -54.999 8.99805s-28.833 12.167 -38.5 18.5s-15.834 10.166 -18.501 11.499l25 40c12 -7.33301 25.667 -13.666 41 -18.999s30 -8 44 -8
c18 0 31.167 3 39.5 9s12.5 14.667 12.5 26c0 12 -4.66699 20.667 -14 26s-25.333 8 -48 8h-43v105h56v-60c38 0.666992 66.333 -5.66602 85 -18.999s28 -33.666 28 -60.999c0 -18 -4.66699 -33.5 -14 -46.5s-22.5 -22.833 -39.5 -29.5s-37.167 -10 -60.5 -10z" />
    <glyph glyph-name="uni0163" unicode="&#x163;" horiz-adv-x="374" 
d="M254 -16c-26.667 0 -51.168 5.16699 -73.501 15.5s-40.166 27.833 -53.499 52.5s-20 58.334 -20 101.001v211h-83v70h83v94l86 22v-116h124v-70h-124v-171c0 -42.667 4.5 -76.834 13.5 -102.501s27.5 -38.5 55.5 -38.5c20 0 43 6.33301 69 19l17 -64
c-14.667 -6 -30 -11.333 -46 -16s-32 -7 -48 -7zM235.999 -226c-20.667 0 -38.999 2.99805 -54.999 8.99805s-28.833 12.167 -38.5 18.5s-15.834 10.166 -18.501 11.499l25 40c12 -7.33301 25.667 -13.666 41 -18.999s30 -8 44 -8c18 0 31.167 3 39.5 9s12.5 14.667 12.5 26
c0 12 -4.66699 20.667 -14 26s-25.333 8 -48 8h-43v105h56v-60c38 0.666992 66.333 -5.66602 85 -18.999s28 -33.666 28 -60.999c0 -18 -4.66699 -33.5 -14 -46.5s-22.5 -22.833 -39.5 -29.5s-37.167 -10 -60.5 -10z" />
    <glyph glyph-name="Tcaron" unicode="&#x164;" horiz-adv-x="591" 
d="M34 589h520v-174h-83v96h-131l-2 -433h92v-78h-274v78h92l1 433h-131v-96h-84v174zM296 638l-157 103l29 44l128 -66l127 68l26 -46z" />
    <glyph glyph-name="tcaron" unicode="&#x165;" horiz-adv-x="374" 
d="M254 -16c-26.667 0 -51.168 5.16699 -73.501 15.5s-40.166 27.833 -53.499 52.5s-20 58.334 -20 101.001v211h-83v70h83v94l86 22v-116h124v-70h-124v-171c0 -42.667 4.5 -76.834 13.5 -102.501s27.5 -38.5 55.5 -38.5c20 0 43 6.33301 69 19l17 -64
c-14.667 -6 -30 -11.333 -46 -16s-32 -7 -48 -7zM160.999 554l-157 103l29 44l128 -66l127 68l26 -46z" />
    <glyph glyph-name="Tbar" unicode="&#x166;" horiz-adv-x="591" 
d="M34 589h520v-174h-83v96h-131l-2 -433h92v-78h-274v78h92l1 433h-131v-96h-84v174zM138 330h313v-65h-313v65z" />
    <glyph glyph-name="tbar" unicode="&#x167;" horiz-adv-x="374" 
d="M254 -16c-26.667 0 -51.168 5.16699 -73.501 15.5s-40.166 27.833 -53.499 52.5s-20 58.334 -20 101.001v211h-83v70h83v94l86 22v-116h124v-70h-124v-171c0 -42.667 4.5 -76.834 13.5 -102.501s27.5 -38.5 55.5 -38.5c20 0 43 6.33301 69 19l17 -64
c-14.667 -6 -30 -11.333 -46 -16s-32 -7 -48 -7zM19.999 317h313v-65h-313v65z" />
    <glyph glyph-name="Utilde" unicode="&#x168;" horiz-adv-x="681" 
d="M560 214c0 -70 -18 -125.833 -54 -167.5s-92.333 -62.5 -169 -62.5c-74.667 0 -129.5 20.833 -164.5 62.5s-52.5 97.5 -52.5 167.5v297h-93v78h246v-78h-63v-322c0 -45.333 11.5 -78.333 34.5 -99s53.833 -31 92.5 -31c40.667 0 73 11.333 97 34s36 58 36 106v312h-62v78
h245v-78h-93v-297zM215 661l-23 55.001c21.333 14.667 39.666 25.5 54.999 32.5s34.666 10.5 57.999 10.5c19.333 0 36 -3.33301 50 -10s26.833 -13.334 38.5 -20.001s24.167 -10 37.5 -10c12 0 22.5 2.5 31.5 7.5s21.5 13.167 37.5 24.5l25 -58
c-19.333 -16.667 -36.166 -28.167 -50.499 -34.5s-30.166 -9.83301 -47.499 -10.5c-14.667 -0.666992 -28.5 2.5 -41.5 9.5l-39 21c-13 7 -26.833 10.5 -41.5 10.5c-17.333 0 -31.833 -2.33301 -43.5 -7s-27.167 -11.667 -46.5 -21z" />
    <glyph glyph-name="utilde" unicode="&#x169;" horiz-adv-x="617" 
d="M437 28c-21.333 -13.333 -45.333 -24 -72 -32s-51.667 -12 -75 -12c-63.333 0 -109.833 14 -139.5 42s-44.5 71.667 -44.5 131v207h-83v70h171v-260c0 -40.667 8 -70.167 24 -88.5s41.667 -27.5 77 -27.5c19.333 0 40.5 3 63.5 9s42.167 13.667 57.5 23v274h-83v70h171
v-348l92 -31l-23 -74zM159 506l-23 55.001c21.333 14.667 39.666 25.5 54.999 32.5s34.666 10.5 57.999 10.5c19.333 0 36 -3.33301 50 -10s26.833 -13.334 38.5 -20.001s24.167 -10 37.5 -10c12 0 22.5 2.5 31.5 7.5s21.5 13.167 37.5 24.5l25 -58
c-19.333 -16.667 -36.166 -28.167 -50.499 -34.5s-30.166 -9.83301 -47.499 -10.5c-14.667 -0.666992 -28.5 2.5 -41.5 9.5l-39 21c-13 7 -26.833 10.5 -41.5 10.5c-17.333 0 -31.833 -2.33301 -43.5 -7s-27.167 -11.667 -46.5 -21z" />
    <glyph glyph-name="Umacron" unicode="&#x16a;" horiz-adv-x="681" 
d="M560 214c0 -70 -18 -125.833 -54 -167.5s-92.333 -62.5 -169 -62.5c-74.667 0 -129.5 20.833 -164.5 62.5s-52.5 97.5 -52.5 167.5v297h-93v78h246v-78h-63v-322c0 -45.333 11.5 -78.333 34.5 -99s53.833 -31 92.5 -31c40.667 0 73 11.333 97 34s36 58 36 106v312h-62v78
h245v-78h-93v-297zM186 752h309v-64h-309v64z" />
    <glyph glyph-name="umacron" unicode="&#x16b;" horiz-adv-x="617" 
d="M437 28c-21.333 -13.333 -45.333 -24 -72 -32s-51.667 -12 -75 -12c-63.333 0 -109.833 14 -139.5 42s-44.5 71.667 -44.5 131v207h-83v70h171v-260c0 -40.667 8 -70.167 24 -88.5s41.667 -27.5 77 -27.5c19.333 0 40.5 3 63.5 9s42.167 13.667 57.5 23v274h-83v70h171
v-348l92 -31l-23 -74zM130 597h309v-64h-309v64z" />
    <glyph glyph-name="Ubreve" unicode="&#x16c;" horiz-adv-x="681" 
d="M560 214c0 -70 -18 -125.833 -54 -167.5s-92.333 -62.5 -169 -62.5c-74.667 0 -129.5 20.833 -164.5 62.5s-52.5 97.5 -52.5 167.5v297h-93v78h246v-78h-63v-322c0 -45.333 11.5 -78.333 34.5 -99s53.833 -31 92.5 -31c40.667 0 73 11.333 97 34s36 58 36 106v312h-62v78
h245v-78h-93v-297zM340 652c-92 0 -145.667 42 -161 126l69 11c6 -46.667 36.667 -70 92 -70c56.667 0 87.667 23.333 93 70l69 -11c-15.333 -84 -69.333 -126 -162 -126z" />
    <glyph glyph-name="ubreve" unicode="&#x16d;" horiz-adv-x="617" 
d="M437 28c-21.333 -13.333 -45.333 -24 -72 -32s-51.667 -12 -75 -12c-63.333 0 -109.833 14 -139.5 42s-44.5 71.667 -44.5 131v207h-83v70h171v-260c0 -40.667 8 -70.167 24 -88.5s41.667 -27.5 77 -27.5c19.333 0 40.5 3 63.5 9s42.167 13.667 57.5 23v274h-83v70h171
v-348l92 -31l-23 -74zM284 497c-92 0 -145.667 42 -161 126l69 11c6 -46.667 36.667 -70 92 -70c56.667 0 87.667 23.333 93 70l69 -11c-15.333 -84 -69.333 -126 -162 -126z" />
    <glyph glyph-name="Uring" unicode="&#x16e;" horiz-adv-x="681" 
d="M560 214c0 -70 -18 -125.833 -54 -167.5s-92.333 -62.5 -169 -62.5c-74.667 0 -129.5 20.833 -164.5 62.5s-52.5 97.5 -52.5 167.5v297h-93v78h246v-78h-63v-322c0 -45.333 11.5 -78.333 34.5 -99s53.833 -31 92.5 -31c40.667 0 73 11.333 97 34s36 58 36 106v312h-62v78
h245v-78h-93v-297zM340 839c28 0 50.333 -8.33301 67 -25s25 -38.667 25 -66s-8.33301 -49.333 -25 -66s-39 -25 -67 -25c-27.333 0 -49.166 8.33301 -65.499 25s-24.5 38.667 -24.5 66s8.16699 49.333 24.5 66s38.166 25 65.499 25zM340 790c-12 0 -21.833 -4 -29.5 -12
s-11.5 -18 -11.5 -30c0 -12.667 3.83301 -22.834 11.5 -30.501s17.5 -11.5 29.5 -11.5c12.667 0 22.834 3.83301 30.501 11.5s11.5 17.834 11.5 30.501c0 12 -3.83301 22 -11.5 30s-17.834 12 -30.501 12z" />
    <glyph glyph-name="uring" unicode="&#x16f;" horiz-adv-x="617" 
d="M437 28c-21.333 -13.333 -45.333 -24 -72 -32s-51.667 -12 -75 -12c-63.333 0 -109.833 14 -139.5 42s-44.5 71.667 -44.5 131v207h-83v70h171v-260c0 -40.667 8 -70.167 24 -88.5s41.667 -27.5 77 -27.5c19.333 0 40.5 3 63.5 9s42.167 13.667 57.5 23v274h-83v70h171
v-348l92 -31l-23 -74zM284 684c28 0 50.333 -8.33301 67 -25s25 -38.667 25 -66s-8.33301 -49.333 -25 -66s-39 -25 -67 -25c-27.333 0 -49.166 8.33301 -65.499 25s-24.5 38.667 -24.5 66s8.16699 49.333 24.5 66s38.166 25 65.499 25zM284 635c-12 0 -21.833 -4 -29.5 -12
s-11.5 -18 -11.5 -30c0 -12.667 3.83301 -22.834 11.5 -30.501s17.5 -11.5 29.5 -11.5c12.667 0 22.834 3.83301 30.501 11.5s11.5 17.834 11.5 30.501c0 12 -3.83301 22 -11.5 30s-17.834 12 -30.501 12z" />
    <glyph glyph-name="Uhungarumlaut" unicode="&#x170;" horiz-adv-x="681" 
d="M560 214c0 -70 -18 -125.833 -54 -167.5s-92.333 -62.5 -169 -62.5c-74.667 0 -129.5 20.833 -164.5 62.5s-52.5 97.5 -52.5 167.5v297h-93v78h246v-78h-63v-322c0 -45.333 11.5 -78.333 34.5 -99s53.833 -31 92.5 -31c40.667 0 73 11.333 97 34s36 58 36 106v312h-62v78
h245v-78h-93v-297zM415 814l45 -59l-166 -105l-23 29zM570 771l27 -69l-191 -50l-15 33z" />
    <glyph glyph-name="uhungarumlaut" unicode="&#x171;" horiz-adv-x="617" 
d="M437 28c-21.333 -13.333 -45.333 -24 -72 -32s-51.667 -12 -75 -12c-63.333 0 -109.833 14 -139.5 42s-44.5 71.667 -44.5 131v207h-83v70h171v-260c0 -40.667 8 -70.167 24 -88.5s41.667 -27.5 77 -27.5c19.333 0 40.5 3 63.5 9s42.167 13.667 57.5 23v274h-83v70h171
v-348l92 -31l-23 -74zM300 708l64 -48l-151 -169l-40 29zM475 688l53 -59l-179 -138l-34 36z" />
    <glyph glyph-name="Uogonek" unicode="&#x172;" horiz-adv-x="681" 
d="M560 214c0 -70 -18 -125.833 -54 -167.5s-92.333 -62.5 -169 -62.5c-74.667 0 -129.5 20.833 -164.5 62.5s-52.5 97.5 -52.5 167.5v297h-93v78h246v-78h-63v-322c0 -45.333 11.5 -78.333 34.5 -99s53.833 -31 92.5 -31c40.667 0 73 11.333 97 34s36 58 36 106v312h-62v78
h245v-78h-93v-297zM428 32l24.001 -22c-28 -14.667 -48.167 -30.667 -60.5 -48s-18.5 -36.333 -18.5 -57c0 -14.667 5.5 -26 16.5 -34s25.5 -12 43.5 -12c16 0 32.333 3 49 9v-64c-13.333 -6.66699 -27 -11.5 -41 -14.5s-27.667 -4.5 -41 -4.5
c-32.667 0 -60.167 8.33301 -82.5 25s-33.5 39 -33.5 67c0 33.333 11.667 62.5 35 87.5s59.666 47.5 108.999 67.5z" />
    <glyph glyph-name="uogonek" unicode="&#x173;" horiz-adv-x="617" 
d="M437 28c-21.333 -13.333 -45.333 -24 -72 -32s-51.667 -12 -75 -12c-63.333 0 -109.833 14 -139.5 42s-44.5 71.667 -44.5 131v207h-83v70h171v-260c0 -40.667 8 -70.167 24 -88.5s41.667 -27.5 77 -27.5c19.333 0 40.5 3 63.5 9s42.167 13.667 57.5 23v274h-83v70h171
v-348l92 -31l-23 -74zM550 3l24.001 -22c-28 -14.667 -48.167 -30.667 -60.5 -48s-18.5 -36.333 -18.5 -57c0 -14.667 5.5 -26 16.5 -34s25.5 -12 43.5 -12c16 0 32.333 3 49 9v-64c-13.333 -6.66699 -27 -11.5 -41 -14.5s-27.667 -4.5 -41 -4.5
c-32.667 0 -60.167 8.33301 -82.5 25s-33.5 39 -33.5 67c0 33.333 11.667 62.5 35 87.5s59.666 47.5 108.999 67.5z" />
    <glyph glyph-name="Wcircumflex" unicode="&#x174;" horiz-adv-x="918" 
d="M2 589h251v-78h-62l78 -270l40 -142l29 138l79 277h103l70 -272l30 -142l39 142l84 269h-64v78h237v-78h-89l-161 -511h-104l-68 268l-31 133l-37 -136l-70 -265h-99l-162 511h-93v78zM464 783l174 -99l-22 -35l-152 57l-153 -57l-21 35z" />
    <glyph glyph-name="wcircumflex" unicode="&#x175;" horiz-adv-x="755" 
d="M201 0l-119 364h-79v70h230v-70h-63l51 -166l32 -105l30 103l54 176h87l55 -180l30 -101l29 97l56 176h-56v70h214v-70h-79l-120 -364h-89l-84 268l-88 -268h-91zM381 642l153 -103l-26 -46l-127 68l-128 -66l-29 44z" />
    <glyph glyph-name="Ycircumflex" unicode="&#x176;" horiz-adv-x="654" 
d="M5 589h248v-78h-56l135 -189l147 189h-72v78h243v-78h-69l-208 -259l-1 -174h94v-78h-277v78h94l1 171l-197 262h-82v78zM326 783l174 -99l-22 -35l-152 57l-153 -57l-21 35z" />
    <glyph glyph-name="ycircumflex" unicode="&#x177;" horiz-adv-x="558" 
d="M151 -229c-10.667 0 -22 1 -34 3s-24.667 5.33301 -38 10l15 68c9.33301 -3.33301 18.333 -5.83301 27 -7.5s17 -2.5 25 -2.5c18 0 32.833 3.16699 44.5 9.5s22.5 18 32.5 35s20.667 41.833 32 74.5l144 403h-54l1 70h210v-70h-74l-168 -450
c-18 -47.333 -40.167 -83 -66.5 -107s-58.5 -36 -96.5 -36zM277 -69l-203 433h-72v70h218v-70h-56l150 -345zM283 642l153 -103l-26 -46l-127 68l-128 -66l-29 44z" />
    <glyph glyph-name="Ydieresis" unicode="&#x178;" horiz-adv-x="654" 
d="M5 589h248v-78h-56l135 -189l147 189h-72v78h243v-78h-69l-208 -259l-1 -174h94v-78h-277v78h94l1 171l-197 262h-82v78zM417 785c16 0 29.833 -5.83301 41.5 -17.5s17.5 -25.834 17.5 -42.501c0 -16 -5.83301 -29.833 -17.5 -41.5s-25.5 -17.5 -41.5 -17.5
s-30 5.83301 -42 17.5s-18 25.5 -18 41.5c0 16.667 6 30.834 18 42.501s26 17.5 42 17.5zM235 785c16.667 0 30.834 -5.83301 42.501 -17.5s17.5 -25.834 17.5 -42.501c0 -16 -5.83301 -29.833 -17.5 -41.5s-25.834 -17.5 -42.501 -17.5c-16 0 -29.833 5.83301 -41.5 17.5
s-17.5 25.5 -17.5 41.5c0 16.667 5.83301 30.834 17.5 42.501s25.5 17.5 41.5 17.5z" />
    <glyph glyph-name="Zacute" unicode="&#x179;" horiz-adv-x="543" 
d="M61 589h427v-58l-329 -453h238l38 104l75 -25l-53 -157h-414v63l325 448h-242l-19 -95l-74 11zM422 775l20 -79l-252 -45l-11 38z" />
    <glyph glyph-name="zacute" unicode="&#x17a;" horiz-adv-x="464" 
d="M44 0v60l263 304h-190l-11 -56l-75 15l21 111h358v-57l-265 -307h200l10 61l77 -14l-23 -117h-365zM307 708l64 -48l-151 -169l-40 29z" />
    <glyph glyph-name="Zdotaccent" unicode="&#x17b;" horiz-adv-x="543" 
d="M61 589h427v-58l-329 -453h238l38 104l75 -25l-53 -157h-414v63l325 448h-242l-19 -95l-74 11zM269 803c19.333 0 34.833 -5.83301 46.5 -17.5s17.5 -27.167 17.5 -46.5s-5.83301 -34.833 -17.5 -46.5s-27.167 -17.5 -46.5 -17.5s-34.666 5.83301 -45.999 17.5
s-17 27.167 -17 46.5s5.66699 34.833 17 46.5s26.666 17.5 45.999 17.5z" />
    <glyph glyph-name="zdotaccent" unicode="&#x17c;" horiz-adv-x="464" 
d="M44 0v60l263 304h-190l-11 -56l-75 15l21 111h358v-57l-265 -307h200l10 61l77 -14l-23 -117h-365zM231 648c19.333 0 34.833 -5.83301 46.5 -17.5s17.5 -27.167 17.5 -46.5s-5.83301 -34.833 -17.5 -46.5s-27.167 -17.5 -46.5 -17.5s-34.666 5.83301 -45.999 17.5
s-17 27.167 -17 46.5s5.66699 34.833 17 46.5s26.666 17.5 45.999 17.5z" />
    <glyph glyph-name="Zcaron" unicode="&#x17d;" horiz-adv-x="543" 
d="M61 589h427v-58l-329 -453h238l38 104l75 -25l-53 -157h-414v63l325 448h-242l-19 -95l-74 11zM271 638l-157 103l29 44l128 -66l127 68l26 -46z" />
    <glyph glyph-name="zcaron" unicode="&#x17e;" horiz-adv-x="464" 
d="M44 0v60l263 304h-190l-11 -56l-75 15l21 111h358v-57l-265 -307h200l10 61l77 -14l-23 -117h-365zM233 483l-157 103l29 44l128 -66l127 68l26 -46z" />
    <glyph glyph-name="uni018F" unicode="&#x18f;" horiz-adv-x="609" 
d="M272 605c58.667 0.666992 109.499 -11.6709 152.499 -37.0039s76.333 -61.333 100 -108s35.5 -101.667 35.5 -165s-11.667 -118.166 -35 -164.499s-55.666 -82.333 -96.999 -108s-89.333 -38.5 -144 -38.5c-50.667 0 -95.5 12.167 -134.5 36.5s-69.667 58.833 -92 103.5
s-33.5 97.334 -33.5 158.001v39h442c-5.33301 68 -24.166 119.667 -56.499 155s-78.5 53 -138.5 53c-30 0 -56 -2.66699 -78 -8s-39 -10.666 -51 -15.999l-19 -84l-77 17l23 119c4 2.66699 13.167 7.83398 27.5 15.501s35.666 15 63.999 22s65.5 10.5 111.5 10.5z
M283.999 60.9951c34.667 0 65.5 7.33301 92.5 22s48.333 36 64 64s23.5 61.667 23.5 101h-351c0 -60.667 16 -107 48 -139s73 -48 123 -48z" />
    <glyph glyph-name="florin" unicode="&#x192;" horiz-adv-x="482" 
d="M125 -8c-18.667 0 -36.668 3.33105 -54.001 9.99805s-33 17.334 -47 32.001l43 62c20 -18 40.333 -27 61 -27c21.333 0 39.5 9 54.5 27s24.833 44.333 29.5 79l26 189h-84l10 70h84l8 55c7.33301 55.333 28.166 98.5 62.499 129.5s78.166 46.5 131.499 46.5
c20.667 0 40.334 -3.83301 59.001 -11.5s33.334 -18.5 44.001 -32.5l-41 -58c-10 10 -20.833 16.833 -32.5 20.5s-23.5 5.5 -35.5 5.5c-27.333 0 -49.666 -8.33301 -66.999 -25s-28 -38.667 -32 -66l-9 -64h101l-11 -70h-100l-28 -207
c-8 -59.333 -27.333 -101.666 -58 -126.999s-69 -38 -115 -38z" />
    <glyph glyph-name="Ohorn" unicode="&#x1a0;" horiz-adv-x="645" 
d="M321 605c56.667 0 105.833 -12.667 147.5 -38s74.167 -61.166 97.5 -107.499s35 -101.166 35 -164.499s-11.667 -118.166 -35 -164.499s-55.833 -82.333 -97.5 -108s-90.5 -38.5 -146.5 -38.5c-55.333 0 -103.833 12.833 -145.5 38.5s-74.167 61.667 -97.5 108
s-35 101.166 -35 164.499s11.5 118.166 34.5 164.499s55.333 82.166 97 107.499s90.167 38 145.5 38zM321.999 528c-58 0 -103 -20.333 -135 -61s-48 -98 -48 -172c0 -74.667 16 -132.334 48 -173.001s77 -61 135 -61c58.667 0 104.167 20.333 136.5 61
s48.5 98.334 48.5 173.001c0 74 -16.167 131.333 -48.5 172s-77.833 61 -136.5 61zM405.999 519v70c46 0 69 26.333 69 79h70c0 -49.333 -11.667 -86.5 -35 -111.5s-58 -37.5 -104 -37.5z" />
    <glyph glyph-name="ohorn" unicode="&#x1a1;" horiz-adv-x="530" 
d="M264 450c46 0 85.832 -9.33398 119.499 -28.001s59.834 -45.334 78.501 -80.001s28 -76.667 28 -126c0 -72 -20.5 -128.667 -61.5 -170s-95.833 -62 -164.5 -62c-44.667 0 -83.667 9.33301 -117 28s-59.166 45.334 -77.499 80.001s-27.5 76 -27.5 124
c0 49.333 9.16699 91.333 27.5 126s44.166 61.334 77.499 80.001s72.333 28 117 28zM264.999 377.999c-44.667 0 -78.167 -14 -100.5 -42s-33.5 -68 -33.5 -120c0 -51.333 11.167 -90.833 33.5 -118.5s55.833 -41.5 100.5 -41.5c45.333 0 79.333 13.833 102 41.5
s34 67.167 34 118.5c0 52 -11.333 92 -34 120s-56.667 42 -102 42zM350.999 363.999v70c46 0 69 26.333 69 79h70c0 -49.333 -11.667 -86.5 -35 -111.5s-58 -37.5 -104 -37.5z" />
    <glyph glyph-name="Uhorn" unicode="&#x1af;" horiz-adv-x="699" 
d="M560 214c0 -70 -18 -125.833 -54 -167.5s-92.333 -62.5 -169 -62.5c-74.667 0 -129.5 20.833 -164.5 62.5s-52.5 97.5 -52.5 167.5v297h-93v78h246v-78h-63v-322c0 -45.333 11.5 -78.333 34.5 -99s53.833 -31 92.5 -31c40.667 0 73 11.333 97 34s36 58 36 106v312h-62v78
h152v-375zM516 511v78c46 0 69 26.333 69 79h70c0 -52.667 -11.667 -92 -35 -118s-58 -39 -104 -39z" />
    <glyph glyph-name="uhorn" unicode="&#x1b0;" horiz-adv-x="631" 
d="M437 28c-21.333 -13.333 -45.333 -24 -72 -32s-51.667 -12 -75 -12c-63.333 0 -109.833 14 -139.5 42s-44.5 71.667 -44.5 131v207h-83v70h171v-260c0 -40.667 8 -70.167 24 -88.5s41.667 -27.5 77 -27.5c19.333 0 40.5 3 63.5 9s42.167 13.667 57.5 23v274h-83v70h171
v-348l92 -31l-23 -74zM461 364v70c46 0 69 26.333 69 79h70c0 -49.333 -11.667 -86.5 -35 -111.5s-58 -37.5 -104 -37.5z" />
    <glyph glyph-name="Gcaron" unicode="&#x1e6;" horiz-adv-x="601" 
d="M541 55c-22.667 -16 -43.8311 -29.3301 -63.498 -39.9971s-41.334 -18.5 -65.001 -23.5s-52.167 -7.5 -85.5 -7.5c-54 0 -102.333 11.667 -145 35s-76.5 58 -101.5 104s-37.5 103.333 -37.5 172c0 63.333 12 118.166 36 164.499s57.667 82.166 101 107.499
s94.666 38 153.999 38c37.333 0 71.833 -4.66699 103.5 -14s59.834 -23.666 84.501 -42.999l25 -114l-77 -18l-19 83c-15.333 9.33301 -31.333 16.833 -48 22.5s-39 8.5 -67 8.5c-34 0 -66.167 -9.33301 -96.5 -28s-54.833 -45.334 -73.5 -80.001s-28 -77 -28 -127
c0 -54.667 8.66699 -99.334 26 -134.001s40.333 -60.167 69 -76.5s59.667 -24.5 93 -24.5c30.667 0 55.167 3 73.5 9s37.166 15 56.499 27v122h-128v76h213v-239zM340.003 638.003l-157 103l29 44l128 -66l127 68l26 -46z" />
    <glyph glyph-name="gcaron" unicode="&#x1e7;" horiz-adv-x="546" 
d="M234 117c-62.667 0 -111.831 14.3301 -147.498 42.9971s-53.5 68.334 -53.5 119.001c0 52.667 18.167 94.334 54.5 125.001s85.5 46 147.5 46c25.333 0 47.666 -2.16699 66.999 -6.5s37.666 -11.166 54.999 -20.499l145 53l26 -76l-119 -25
c10 -12 17.5 -25.833 22.5 -41.5s7.5 -32.167 7.5 -49.5c0 -35.333 -8.66699 -65.5 -26 -90.5s-41.5 -44 -72.5 -57s-66.5 -19.5 -106.5 -19.5zM242.003 -228.003c-26 0 -53.501 2.50195 -82.501 7.50195s-55.833 11.333 -80.5 19s-43.334 15.167 -56.001 22.5l32 67
c26 -12.667 56 -22.667 90 -30s66.333 -11 97 -11c28.667 0 52.667 2.16699 72 6.5s34 11 44 20s15 19.833 15 32.5c0 19.333 -8 33.666 -24 42.999s-40.333 14 -73 14h-147v196l80 -23v-102h86c54.667 0 95.834 -10.5 123.501 -31.5s41.5 -51.5 41.5 -91.5
c0 -30 -9.16699 -55.333 -27.5 -76s-43.666 -36.334 -75.999 -47.001s-70.5 -16 -114.5 -16zM236.002 186.999c36 0 64.333 9 85 27s31 41 31 69c0 30.667 -9.83301 54.5 -29.5 71.5s-48.5 25.5 -86.5 25.5s-66.833 -8.5 -86.5 -25.5s-29.5 -40.833 -29.5 -71.5
c0 -28 10.333 -51 31 -69s49 -27 85 -27zM238.002 482.999l-157 103l29 44l128 -66l127 68l26 -46z" />
    <glyph glyph-name="uni01EA" unicode="&#x1ea;" horiz-adv-x="645" 
d="M321 605c56.667 0 105.833 -12.667 147.5 -38s74.167 -61.166 97.5 -107.499s35 -101.166 35 -164.499s-11.667 -118.166 -35 -164.499s-55.833 -82.333 -97.5 -108s-90.5 -38.5 -146.5 -38.5c-55.333 0 -103.833 12.833 -145.5 38.5s-74.167 61.667 -97.5 108
s-35 101.166 -35 164.499s11.5 118.166 34.5 164.499s55.333 82.166 97 107.499s90.167 38 145.5 38zM321.999 528c-58 0 -103 -20.333 -135 -61s-48 -98 -48 -172c0 -74.667 16 -132.334 48 -173.001s77 -61 135 -61c58.667 0 104.167 20.333 136.5 61
s48.5 98.334 48.5 173.001c0 74 -16.167 131.333 -48.5 172s-77.833 61 -136.5 61zM418.999 32l24.001 -22c-28 -14.667 -48.167 -30.667 -60.5 -48s-18.5 -36.333 -18.5 -57c0 -14.667 5.5 -26 16.5 -34s25.5 -12 43.5 -12c16 0 32.333 3 49 9v-64
c-13.333 -6.66699 -27 -11.5 -41 -14.5s-27.667 -4.5 -41 -4.5c-32.667 0 -60.167 8.33301 -82.5 25s-33.5 39 -33.5 67c0 33.333 11.667 62.5 35 87.5s59.666 47.5 108.999 67.5z" />
    <glyph glyph-name="uni01EB" unicode="&#x1eb;" horiz-adv-x="530" 
d="M264 450c46 0 85.832 -9.33398 119.499 -28.001s59.834 -45.334 78.501 -80.001s28 -76.667 28 -126c0 -72 -20.5 -128.667 -61.5 -170s-95.833 -62 -164.5 -62c-44.667 0 -83.667 9.33301 -117 28s-59.166 45.334 -77.499 80.001s-27.5 76 -27.5 124
c0 49.333 9.16699 91.333 27.5 126s44.166 61.334 77.499 80.001s72.333 28 117 28zM264.999 377.999c-44.667 0 -78.167 -14 -100.5 -42s-33.5 -68 -33.5 -120c0 -51.333 11.167 -90.833 33.5 -118.5s55.833 -41.5 100.5 -41.5c45.333 0 79.333 13.833 102 41.5
s34 67.167 34 118.5c0 52 -11.333 92 -34 120s-56.667 42 -102 42zM375.999 42.999l24.001 -22c-28 -14.667 -48.167 -30.667 -60.5 -48s-18.5 -36.333 -18.5 -57c0 -14.667 5.5 -26 16.5 -34s25.5 -12 43.5 -12c16 0 32.333 3 49 9v-64
c-13.333 -6.66699 -27 -11.5 -41 -14.5s-27.667 -4.5 -41 -4.5c-32.667 0 -60.167 8.33301 -82.5 25s-33.5 39 -33.5 67c0 33.333 11.667 62.5 35 87.5s59.666 47.5 108.999 67.5z" />
    <glyph glyph-name="Aringacute" unicode="&#x1fa;" horiz-adv-x="659" 
d="M9 0v78h97l162 433h-97v78h204l181 -511h94v-78h-248v78h61l-32 90h-211l-33 -90h62v-78h-240zM246 239h160l-76 245zM338 748c28 0 50.333 -8.33301 67 -25s25 -38.667 25 -66s-8.33301 -49.333 -25 -66s-39 -25 -67 -25c-27.333 0 -49.166 8.33301 -65.499 25
s-24.5 38.667 -24.5 66s8.16699 49.333 24.5 66s38.166 25 65.499 25zM338 699c-12 0 -21.833 -4 -29.5 -12s-11.5 -18 -11.5 -30c0 -12.667 3.83301 -22.834 11.5 -30.501s17.5 -11.5 29.5 -11.5c12.667 0 22.834 3.83301 30.501 11.5s11.5 17.834 11.5 30.501
c0 12 -3.83301 22 -11.5 30s-17.834 12 -30.501 12zM487 897l20 -79l-252 -45l-11 38z" />
    <glyph glyph-name="aringacute" unicode="&#x1fb;" horiz-adv-x="532" 
d="M355 27c-44.667 -28.667 -91.999 -43 -141.999 -43c-57.333 0 -101 11.5 -131 34.5s-45.333 56.5 -46 100.5c-0.666992 88.667 56.333 133 171 133h124c0 43.333 -8.33301 75.5 -25 96.5s-41 31.5 -73 31.5c-15.333 0 -30.333 -1 -45 -3s-28.667 -5 -42 -9l-10 -54
l-72 13l17 95c25.333 9.33301 50.666 16.333 75.999 21s50.333 7 75 7c61.333 0 107.833 -16.5 139.5 -49.5s47.5 -81.5 47.5 -145.5v-172l92 -30l-23 -72zM210.001 186c-26.667 0 -47.333 -5.66797 -62 -17.001s-22 -27.666 -22 -48.999c0 -44 30.333 -66 91 -66
c43.333 0 81.333 11.667 114 35v96zM237.002 683.999c28 0 50.333 -8.33301 67 -25s25 -38.667 25 -66s-8.33301 -49.333 -25 -66s-39 -25 -67 -25c-27.333 0 -49.166 8.33301 -65.499 25s-24.5 38.667 -24.5 66s8.16699 49.333 24.5 66s38.166 25 65.499 25z
M237.002 634.999c-12 0 -21.833 -4 -29.5 -12s-11.5 -18 -11.5 -30c0 -12.667 3.83301 -22.834 11.5 -30.501s17.5 -11.5 29.5 -11.5c12.667 0 22.834 3.83301 30.501 11.5s11.5 17.834 11.5 30.501c0 12 -3.83301 22 -11.5 30s-17.834 12 -30.501 12zM313.002 957.999
l64 -48l-151 -169l-40 29z" />
    <glyph glyph-name="AEacute" unicode="&#x1fc;" horiz-adv-x="925" 
d="M27 0v78h99l273 433h-101v78h518l55 -160l-75 -25l-39 107h-183v-177h161v-77h-162v-179h205l39 105l74 -25l-53 -158h-447v78h92v85h-214l-53 -85h57v-78h-246zM316 241h167l1 270zM676 775l20 -79l-252 -45l-11 38z" />
    <glyph glyph-name="aeacute" unicode="&#x1fd;" horiz-adv-x="784" 
d="M80 419c24 9.33301 46.8301 16.4971 68.4971 21.4971s48.167 7.5 79.5 7.5c44.667 0 80 -8.5 106 -25.5s44 -39.833 54 -68.5c19.333 29.333 43.833 52.333 73.5 69s62.834 25 99.501 25c26.667 0 51.667 -4.66699 75 -14s43.333 -24.166 60 -44.499
s29 -46.666 37 -78.999s9 -71.166 3 -116.499l-319 -2c3.33301 -44 16.5 -77.833 39.5 -101.5s54.833 -35.5 95.5 -35.5c30 0 55.833 3.83301 77.5 11.5s38.834 15.334 51.501 23.001s19.667 12.167 21 13.5l40 -51c0 -0.666992 -4.16699 -4.33398 -12.5 -11.001
s-20.5 -14.5 -36.5 -23.5s-36 -16.833 -60 -23.5s-51.333 -10 -82 -10c-32.667 0 -62.667 5 -90 15s-51.333 25.333 -72 46c-11.333 -8 -27.166 -16.833 -47.499 -26.5s-42 -17.834 -65 -24.501s-44.167 -10 -63.5 -10c-55.333 0 -98.666 12.667 -129.999 38
s-47 57.666 -47 96.999c0 32.667 7.5 58.834 22.5 78.501s35.5 34 61.5 43s55 13.5 87 13.5h126c0 26.667 -2.66699 48.834 -8 66.501s-15 31 -29 40s-35.333 13.5 -64 13.5c-18.667 0 -35.334 -1.16699 -50.001 -3.5s-26.667 -4.83301 -36 -7.5l-10 -53l-73 13z
M209.997 184.997c-14.667 0 -28.501 -1.49902 -41.501 -4.49902s-23.333 -9 -31 -18s-11.5 -23.167 -11.5 -42.5c0 -22 9.16699 -38.333 27.5 -49s39.5 -16 63.5 -16c15.333 0 31.5 2.33301 48.5 7s33.333 10.167 49 16.5s28.834 12.833 39.501 19.5
c-6 13.333 -10.833 27.166 -14.5 41.499s-6.16699 29.5 -7.5 45.5h-122zM661.996 260.998c0 36.667 -8.33105 65 -24.998 85s-43.334 30 -80.001 30s-67.334 -10 -92.001 -30s-40 -48.667 -46 -86zM469.998 707.998l64 -48l-151 -169l-40 29z" />
    <glyph glyph-name="Oslashacute" unicode="&#x1fe;" horiz-adv-x="645" 
d="M126 -69l50 110l25 42l202 442l23 39l39 87h80l-57 -125l-23 -36l-203 -447l-19 -32l-37 -80h-80zM321 605c56.667 0 105.833 -12.667 147.5 -38s74.167 -61.166 97.5 -107.499s35 -101.166 35 -164.499s-11.667 -118.166 -35 -164.499s-55.833 -82.333 -97.5 -108
s-90.5 -38.5 -146.5 -38.5c-55.333 0 -103.833 12.833 -145.5 38.5s-74.167 61.667 -97.5 108s-35 101.166 -35 164.499s11.5 118.166 34.5 164.499s55.333 82.166 97 107.499s90.167 38 145.5 38zM321.999 528c-58 0 -103 -20.333 -135 -61s-48 -98 -48 -172
c0 -74.667 16 -132.334 48 -173.001s77 -61 135 -61c58.667 0 104.167 20.333 136.5 61s48.5 98.334 48.5 173.001c0 74 -16.167 131.333 -48.5 172s-77.833 61 -136.5 61zM474.999 775l20 -79l-252 -45l-11 38z" />
    <glyph glyph-name="oslashacute" unicode="&#x1ff;" horiz-adv-x="530" 
d="M171 -71h-53l241 574h53zM264 450c46 0 85.832 -9.33398 119.499 -28.001s59.834 -45.334 78.501 -80.001s28 -76.667 28 -126c0 -72 -20.5 -128.667 -61.5 -170s-95.833 -62 -164.5 -62c-44.667 0 -83.667 9.33301 -117 28s-59.166 45.334 -77.499 80.001
s-27.5 76 -27.5 124c0 49.333 9.16699 91.333 27.5 126s44.166 61.334 77.499 80.001s72.333 28 117 28zM264.999 377.999c-44.667 0 -78.167 -14 -100.5 -42s-33.5 -68 -33.5 -120c0 -51.333 11.167 -90.833 33.5 -118.5s55.833 -41.5 100.5 -41.5
c45.333 0 79.333 13.833 102 41.5s34 67.167 34 118.5c0 52 -11.333 92 -34 120s-56.667 42 -102 42zM340.999 707.999l64 -48l-151 -169l-40 29z" />
    <glyph glyph-name="uni0200" unicode="&#x200;" horiz-adv-x="659" 
d="M9 0v78h97l162 433h-97v78h204l181 -511h94v-78h-248v78h61l-32 90h-211l-33 -90h62v-78h-240zM246 239h160l-76 245zM247 814l145 -135l-23 -29l-167 105zM93 771l179 -86l-15 -33l-192 50z" />
    <glyph glyph-name="uni0201" unicode="&#x201;" horiz-adv-x="532" 
d="M355 27c-44.667 -28.667 -91.999 -43 -141.999 -43c-57.333 0 -101 11.5 -131 34.5s-45.333 56.5 -46 100.5c-0.666992 88.667 56.333 133 171 133h124c0 43.333 -8.33301 75.5 -25 96.5s-41 31.5 -73 31.5c-15.333 0 -30.333 -1 -45 -3s-28.667 -5 -42 -9l-10 -54
l-72 13l17 95c25.333 9.33301 50.666 16.333 75.999 21s50.333 7 75 7c61.333 0 107.833 -16.5 139.5 -49.5s47.5 -81.5 47.5 -145.5v-172l92 -30l-23 -72zM210.001 186c-26.667 0 -47.333 -5.66797 -62 -17.001s-22 -27.666 -22 -48.999c0 -44 30.333 -66 91 -66
c43.333 0 81.333 11.667 114 35v96zM223.002 707.999l127 -188l-40 -29l-151 169zM48.002 687.999l160 -161l-34 -36l-179 138z" />
    <glyph glyph-name="uni0202" unicode="&#x202;" horiz-adv-x="659" 
d="M9 0v78h97l162 433h-97v78h204l181 -511h94v-78h-248v78h61l-32 90h-211l-33 -90h62v-78h-240zM246 239h160l-76 245zM321 800c-92 0 -145.667 -42 -161 -126l69 -11c6 46.667 36.667 70 92 70c56.667 0 87.667 -23.333 93 -70l69 11c-15.333 84 -69.333 126 -162 126z
" />
    <glyph glyph-name="uni0203" unicode="&#x203;" horiz-adv-x="532" 
d="M355 27c-44.667 -28.667 -91.999 -43 -141.999 -43c-57.333 0 -101 11.5 -131 34.5s-45.333 56.5 -46 100.5c-0.666992 88.667 56.333 133 171 133h124c0 43.333 -8.33301 75.5 -25 96.5s-41 31.5 -73 31.5c-15.333 0 -30.333 -1 -45 -3s-28.667 -5 -42 -9l-10 -54
l-72 13l17 95c25.333 9.33301 50.666 16.333 75.999 21s50.333 7 75 7c61.333 0 107.833 -16.5 139.5 -49.5s47.5 -81.5 47.5 -145.5v-172l92 -30l-23 -72zM210.001 186c-26.667 0 -47.333 -5.66797 -62 -17.001s-22 -27.666 -22 -48.999c0 -44 30.333 -66 91 -66
c43.333 0 81.333 11.667 114 35v96zM236.002 644.999c-92 0 -145.667 -42 -161 -126l69 -11c6 46.667 36.667 70 92 70c56.667 0 87.667 -23.333 93 -70l69 11c-15.333 84 -69.333 126 -162 126z" />
    <glyph glyph-name="uni0204" unicode="&#x204;" horiz-adv-x="593" 
d="M39 589h447l53 -160l-73 -25l-40 107h-204v-169h182v-78h-182l-1 -186h227l39 105l73 -25l-53 -158h-469v78h93l1 433h-93v78zM281 863l127 -188l-40 -29l-151 169zM106 843l160 -161l-34 -36l-179 138z" />
    <glyph glyph-name="uni0205" unicode="&#x205;" horiz-adv-x="499" 
d="M454 52c-27.333 -23.333 -55.5 -40.501 -84.5 -51.501s-60.833 -16.5 -95.5 -16.5c-47.333 0 -88.833 9.5 -124.5 28.5s-63.167 45.833 -82.5 80.5s-29 76 -29 124c0 46.667 9.16699 87.5 27.5 122.5s44.333 62.167 78 81.5s72.5 29 116.5 29c42 0 78 -8.83301 108 -26.5
s53.333 -42.334 70 -74.001s25 -69.167 25 -112.5c0 -6.66699 -0.333008 -13.667 -1 -21l-2 -22l-336 -2c2 -31.333 10 -57.166 24 -77.499s32 -35.166 54 -44.499s45.333 -14 70 -14c28.667 0 55 4.16699 79 12.5s46 20.5 66 36.5zM376 258.999
c-0.666992 36.667 -11.332 66.167 -31.999 88.5s-48.334 33.5 -83.001 33.5c-34 0 -64 -11.167 -90 -33.5s-41.333 -51.833 -46 -88.5h251zM243.002 707.999l127 -188l-40 -29l-151 169zM68.002 687.999l160 -161l-34 -36l-179 138z" />
    <glyph glyph-name="uni0206" unicode="&#x206;" horiz-adv-x="593" 
d="M39 589h447l53 -160l-73 -25l-40 107h-204v-169h182v-78h-182l-1 -186h227l39 105l73 -25l-53 -158h-469v78h93l1 433h-93v78zM294 800c-92 0 -145.667 -42 -161 -126l69 -11c6 46.667 36.667 70 92 70c56.667 0 87.667 -23.333 93 -70l69 11
c-15.333 84 -69.333 126 -162 126z" />
    <glyph glyph-name="uni0207" unicode="&#x207;" horiz-adv-x="499" 
d="M454 52c-27.333 -23.333 -55.5 -40.501 -84.5 -51.501s-60.833 -16.5 -95.5 -16.5c-47.333 0 -88.833 9.5 -124.5 28.5s-63.167 45.833 -82.5 80.5s-29 76 -29 124c0 46.667 9.16699 87.5 27.5 122.5s44.333 62.167 78 81.5s72.5 29 116.5 29c42 0 78 -8.83301 108 -26.5
s53.333 -42.334 70 -74.001s25 -69.167 25 -112.5c0 -6.66699 -0.333008 -13.667 -1 -21l-2 -22l-336 -2c2 -31.333 10 -57.166 24 -77.499s32 -35.166 54 -44.499s45.333 -14 70 -14c28.667 0 55 4.16699 79 12.5s46 20.5 66 36.5zM376 258.999
c-0.666992 36.667 -11.332 66.167 -31.999 88.5s-48.334 33.5 -83.001 33.5c-34 0 -64 -11.167 -90 -33.5s-41.333 -51.833 -46 -88.5h251zM256.002 644.999c-92 0 -145.667 -42 -161 -126l69 -11c6 46.667 36.667 70 92 70c56.667 0 87.667 -23.333 93 -70l69 11
c-15.333 84 -69.333 126 -162 126z" />
    <glyph glyph-name="uni0208" unicode="&#x208;" horiz-adv-x="357" 
d="M39 589h280v-78h-93l-2 -433h95v-78h-281v78h97v433h-96v78zM165 863l127 -188l-40 -29l-151 169zM-10 843l160 -161l-34 -36l-179 138z" />
    <glyph glyph-name="uni0209" unicode="&#x209;" horiz-adv-x="315" 
d="M37 434h172v-364h83v-70h-255v70h83v294h-83v70zM141 708l127 -188l-40 -29l-151 169zM-34 688l160 -161l-34 -36l-179 138z" />
    <glyph glyph-name="uni020A" unicode="&#x20a;" horiz-adv-x="357" 
d="M39 589h280v-78h-93l-2 -433h95v-78h-281v78h97v433h-96v78zM178 800c-92 0 -145.667 -42 -161 -126l69 -11c6 46.667 36.667 70 92 70c56.667 0 87.667 -23.333 93 -70l69 11c-15.333 84 -69.333 126 -162 126z" />
    <glyph glyph-name="uni020B" unicode="&#x20b;" horiz-adv-x="315" 
d="M37 434h172v-364h83v-70h-255v70h83v294h-83v70zM154 644c80.667 0 126.33 -41.667 136.997 -125l-61 -12c-3.33301 47.333 -28.666 71 -75.999 71c-22.667 0 -40.5 -6 -53.5 -18s-20.167 -29.667 -21.5 -53l-61 12c4.66699 41.333 18.834 72.5 42.501 93.5
s54.834 31.5 93.501 31.5z" />
    <glyph glyph-name="uni020C" unicode="&#x20c;" horiz-adv-x="645" 
d="M321 605c56.667 0 105.833 -12.667 147.5 -38s74.167 -61.166 97.5 -107.499s35 -101.166 35 -164.499s-11.667 -118.166 -35 -164.499s-55.833 -82.333 -97.5 -108s-90.5 -38.5 -146.5 -38.5c-55.333 0 -103.833 12.833 -145.5 38.5s-74.167 61.667 -97.5 108
s-35 101.166 -35 164.499s11.5 118.166 34.5 164.499s55.333 82.166 97 107.499s90.167 38 145.5 38zM321.999 528c-58 0 -103 -20.333 -135 -61s-48 -98 -48 -172c0 -74.667 16 -132.334 48 -173.001s77 -61 135 -61c58.667 0 104.167 20.333 136.5 61
s48.5 98.334 48.5 173.001c0 74 -16.167 131.333 -48.5 172s-77.833 61 -136.5 61zM308.999 863l127 -188l-40 -29l-151 169zM133.999 843l160 -161l-34 -36l-179 138z" />
    <glyph glyph-name="uni020D" unicode="&#x20d;" horiz-adv-x="530" 
d="M264 450c46 0 85.832 -9.33398 119.499 -28.001s59.834 -45.334 78.501 -80.001s28 -76.667 28 -126c0 -72 -20.5 -128.667 -61.5 -170s-95.833 -62 -164.5 -62c-44.667 0 -83.667 9.33301 -117 28s-59.166 45.334 -77.499 80.001s-27.5 76 -27.5 124
c0 49.333 9.16699 91.333 27.5 126s44.166 61.334 77.499 80.001s72.333 28 117 28zM264.999 377.999c-44.667 0 -78.167 -14 -100.5 -42s-33.5 -68 -33.5 -120c0 -51.333 11.167 -90.833 33.5 -118.5s55.833 -41.5 100.5 -41.5c45.333 0 79.333 13.833 102 41.5
s34 67.167 34 118.5c0 52 -11.333 92 -34 120s-56.667 42 -102 42zM251.999 707.999l127 -188l-40 -29l-151 169zM76.999 687.999l160 -161l-34 -36l-179 138z" />
    <glyph glyph-name="uni020E" unicode="&#x20e;" horiz-adv-x="645" 
d="M321 605c56.667 0 105.833 -12.667 147.5 -38s74.167 -61.166 97.5 -107.499s35 -101.166 35 -164.499s-11.667 -118.166 -35 -164.499s-55.833 -82.333 -97.5 -108s-90.5 -38.5 -146.5 -38.5c-55.333 0 -103.833 12.833 -145.5 38.5s-74.167 61.667 -97.5 108
s-35 101.166 -35 164.499s11.5 118.166 34.5 164.499s55.333 82.166 97 107.499s90.167 38 145.5 38zM321.999 528c-58 0 -103 -20.333 -135 -61s-48 -98 -48 -172c0 -74.667 16 -132.334 48 -173.001s77 -61 135 -61c58.667 0 104.167 20.333 136.5 61
s48.5 98.334 48.5 173.001c0 74 -16.167 131.333 -48.5 172s-77.833 61 -136.5 61zM321.999 800c-92 0 -145.667 -42 -161 -126l69 -11c6 46.667 36.667 70 92 70c56.667 0 87.667 -23.333 93 -70l69 11c-15.333 84 -69.333 126 -162 126z" />
    <glyph glyph-name="uni020F" unicode="&#x20f;" horiz-adv-x="530" 
d="M264 450c46 0 85.832 -9.33398 119.499 -28.001s59.834 -45.334 78.501 -80.001s28 -76.667 28 -126c0 -72 -20.5 -128.667 -61.5 -170s-95.833 -62 -164.5 -62c-44.667 0 -83.667 9.33301 -117 28s-59.166 45.334 -77.499 80.001s-27.5 76 -27.5 124
c0 49.333 9.16699 91.333 27.5 126s44.166 61.334 77.499 80.001s72.333 28 117 28zM264.999 377.999c-44.667 0 -78.167 -14 -100.5 -42s-33.5 -68 -33.5 -120c0 -51.333 11.167 -90.833 33.5 -118.5s55.833 -41.5 100.5 -41.5c45.333 0 79.333 13.833 102 41.5
s34 67.167 34 118.5c0 52 -11.333 92 -34 120s-56.667 42 -102 42zM264.999 644.999c-92 0 -145.667 -42 -161 -126l69 -11c6 46.667 36.667 70 92 70c56.667 0 87.667 -23.333 93 -70l69 11c-15.333 84 -69.333 126 -162 126z" />
    <glyph glyph-name="uni0210" unicode="&#x210;" horiz-adv-x="618" 
d="M38 0l0.000976562 78h91v433h-91v78h265c56 0 100.167 -7 132.5 -21s55.333 -34.5 69 -61.5s20.5 -60.167 20.5 -99.5c0 -60.667 -16.333 -106.667 -49 -138s-88.334 -47 -167.001 -47h-90v-144h60v-78h-241zM220.001 301l81.998 0.00195312
c28.667 0 52.334 2.66699 71.001 8s32.834 15.666 42.501 30.999s14.5 37.333 14.5 66s-5 50.667 -15 66s-24.5 25.666 -43.5 30.999s-42.167 8 -69.5 8h-82v-210zM434.999 0.00195312l-125 229l91 12l96 -163h93v-78h-155zM262.999 863.002l127 -188l-40 -29l-151 169z
M87.999 843.002l160 -161l-34 -36l-179 138z" />
    <glyph glyph-name="uni0211" unicode="&#x211;" horiz-adv-x="433" 
d="M192 400c24 16.667 50.001 29.167 78.001 37.5s56 12.5 84 12.5c24 0 39.667 -2 47 -6l17 -110l-73 -15l-10 55c-21.333 -0.666992 -42.333 -4 -63 -10s-39.334 -14.333 -56.001 -25l-1 -269h98v-70h-269v70h84v274l-96 33l23 70zM201.001 708l127 -188l-40 -29l-151 169
zM26.001 688l160 -161l-34 -36l-179 138z" />
    <glyph glyph-name="uni0212" unicode="&#x212;" horiz-adv-x="618" 
d="M38 0l0.000976562 78h91v433h-91v78h265c56 0 100.167 -7 132.5 -21s55.333 -34.5 69 -61.5s20.5 -60.167 20.5 -99.5c0 -60.667 -16.333 -106.667 -49 -138s-88.334 -47 -167.001 -47h-90v-144h60v-78h-241zM220.001 301l81.998 0.00195312
c28.667 0 52.334 2.66699 71.001 8s32.834 15.666 42.501 30.999s14.5 37.333 14.5 66s-5 50.667 -15 66s-24.5 25.666 -43.5 30.999s-42.167 8 -69.5 8h-82v-210zM434.999 0.00195312l-125 229l91 12l96 -163h93v-78h-155zM275.999 800.002c-92 0 -145.667 -42 -161 -126
l69 -11c6 46.667 36.667 70 92 70c56.667 0 87.667 -23.333 93 -70l69 11c-15.333 84 -69.333 126 -162 126z" />
    <glyph glyph-name="uni0213" unicode="&#x213;" horiz-adv-x="433" 
d="M192 400c24 16.667 50.001 29.167 78.001 37.5s56 12.5 84 12.5c24 0 39.667 -2 47 -6l17 -110l-73 -15l-10 55c-21.333 -0.666992 -42.333 -4 -63 -10s-39.334 -14.333 -56.001 -25l-1 -269h98v-70h-269v70h84v274l-96 33l23 70zM214.001 645
c-92 0 -145.667 -42 -161 -126l69 -11c6 46.667 36.667 70 92 70c56.667 0 87.667 -23.333 93 -70l69 11c-15.333 84 -69.333 126 -162 126z" />
    <glyph glyph-name="uni0214" unicode="&#x214;" horiz-adv-x="681" 
d="M560 214c0 -70 -18 -125.833 -54 -167.5s-92.333 -62.5 -169 -62.5c-74.667 0 -129.5 20.833 -164.5 62.5s-52.5 97.5 -52.5 167.5v297h-93v78h246v-78h-63v-322c0 -45.333 11.5 -78.333 34.5 -99s53.833 -31 92.5 -31c40.667 0 73 11.333 97 34s36 58 36 106v312h-62v78
h245v-78h-93v-297zM327 863l127 -188l-40 -29l-151 169zM152 843l160 -161l-34 -36l-179 138z" />
    <glyph glyph-name="uni0215" unicode="&#x215;" horiz-adv-x="617" 
d="M437 28c-21.333 -13.333 -45.333 -24 -72 -32s-51.667 -12 -75 -12c-63.333 0 -109.833 14 -139.5 42s-44.5 71.667 -44.5 131v207h-83v70h171v-260c0 -40.667 8 -70.167 24 -88.5s41.667 -27.5 77 -27.5c19.333 0 40.5 3 63.5 9s42.167 13.667 57.5 23v274h-83v70h171
v-348l92 -31l-23 -74zM271 708l127 -188l-40 -29l-151 169zM96 688l160 -161l-34 -36l-179 138z" />
    <glyph glyph-name="uni0216" unicode="&#x216;" horiz-adv-x="681" 
d="M560 214c0 -70 -18 -125.833 -54 -167.5s-92.333 -62.5 -169 -62.5c-74.667 0 -129.5 20.833 -164.5 62.5s-52.5 97.5 -52.5 167.5v297h-93v78h246v-78h-63v-322c0 -45.333 11.5 -78.333 34.5 -99s53.833 -31 92.5 -31c40.667 0 73 11.333 97 34s36 58 36 106v312h-62v78
h245v-78h-93v-297zM340 800c-92 0 -145.667 -42 -161 -126l69 -11c6 46.667 36.667 70 92 70c56.667 0 87.667 -23.333 93 -70l69 11c-15.333 84 -69.333 126 -162 126z" />
    <glyph glyph-name="uni0217" unicode="&#x217;" horiz-adv-x="617" 
d="M437 28c-21.333 -13.333 -45.333 -24 -72 -32s-51.667 -12 -75 -12c-63.333 0 -109.833 14 -139.5 42s-44.5 71.667 -44.5 131v207h-83v70h171v-260c0 -40.667 8 -70.167 24 -88.5s41.667 -27.5 77 -27.5c19.333 0 40.5 3 63.5 9s42.167 13.667 57.5 23v274h-83v70h171
v-348l92 -31l-23 -74zM284 645c-92 0 -145.667 -42 -161 -126l69 -11c6 46.667 36.667 70 92 70c56.667 0 87.667 -23.333 93 -70l69 11c-15.333 84 -69.333 126 -162 126z" />
    <glyph glyph-name="uni0218" unicode="&#x218;" horiz-adv-x="543" 
d="M275 -16c-47.333 0 -88.6689 4.16895 -124.002 12.502s-65 16.833 -89 25.5l-19 126l74 8l13 -75c20 -6.66699 41 -12 63 -16s48.667 -6 80 -6c24.667 0 47.5 3.33301 68.5 10s38 17.5 51 32.5s19.5 34.833 19.5 59.5c0 25.333 -6.83301 47 -20.5 65s-40.5 30 -80.5 36
l-75 11c-58 9.33301 -102.5 28.666 -133.5 57.999s-46.5 66.333 -46.5 111c0 32.667 8.33301 61.167 25 85.5s41.334 43.333 74.001 57s72.334 20.5 119.001 20.5c24.667 0 47.334 -1 68.001 -3s40.667 -5.5 60 -10.5s39.666 -11.833 60.999 -20.5l18 -130l-76 -8l-13 83
c-13.333 4.66699 -30 8.5 -50 11.5s-43 4.5 -69 4.5c-41.333 0 -74.166 -7.5 -98.499 -22.5s-36.5 -36.167 -36.5 -63.5c0 -26.667 8.83301 -47.334 26.5 -62.001s43.5 -24.667 77.5 -30l87 -14c58.667 -8.66699 101.667 -27.667 129 -57s41 -66 41 -110
c0 -32.667 -6.33301 -61.167 -19 -85.5s-29.5 -44 -50.5 -59s-44.833 -26.167 -71.5 -33.5s-54.334 -11 -83.001 -11zM246.997 -308.998l-35.998 32.001l8 12.5l19.5 31c7.66699 12.333 14.167 24.166 19.5 35.499c-18.667 2.66699 -33 10 -43 22s-15 25.333 -15 40
c0 20 6.66699 36 20 48s29.666 18 48.999 18s36.166 -7 50.499 -21s21.5 -31 21.5 -51s-4.33301 -39.667 -13 -59s-19.167 -37 -31.5 -53s-23.333 -28.833 -33 -38.5z" />
    <glyph glyph-name="uni0219" unicode="&#x219;" horiz-adv-x="454" 
d="M314 367c-14 5.33301 -27.4951 9.50293 -40.4951 12.5029s-29.167 4.5 -48.5 4.5c-24.667 0 -46.834 -5.16699 -66.501 -15.5s-29.5 -25.5 -29.5 -45.5c0 -18.667 7.5 -33.334 22.5 -44.001s37.833 -17.667 68.5 -21l47 -6c54 -5.33301 92.167 -18.833 114.5 -40.5
s33.5 -50.834 33.5 -87.501c0 -28.667 -8 -53.667 -24 -75s-37.833 -37.5 -65.5 -48.5s-59.5 -16.5 -95.5 -16.5c-34 0 -66.333 4.16699 -97 12.5s-57.334 19.166 -80.001 32.499l-18 102l77 17l13 -66c15.333 -8 31.666 -14.167 48.999 -18.5s34.666 -6.5 51.999 -6.5
c29.333 0 54.833 5.5 76.5 16.5s32.5 27.167 32.5 48.5c0 18.667 -6.33301 32.167 -19 40.5s-35 14.5 -67 18.5l-48 6c-48.667 6 -86.167 20.5 -112.5 43.5s-39.5 51.833 -39.5 86.5c0 29.333 8.16699 54 24.5 74s38 35 65 45s55.833 15 86.5 15
c31.333 0 59.666 -3.16699 84.999 -9.5s49.333 -15.833 72 -28.5l18 -95l-69 -15zM201.005 -308.997l-35.998 32.001l8 12.5l19.5 31c7.66699 12.333 14.167 24.166 19.5 35.499c-18.667 2.66699 -33 10 -43 22s-15 25.333 -15 40c0 20 6.66699 36 20 48
s29.666 18 48.999 18s36.166 -7 50.499 -21s21.5 -31 21.5 -51s-4.33301 -39.667 -13 -59s-19.167 -37 -31.5 -53s-23.333 -28.833 -33 -38.5z" />
    <glyph glyph-name="uni021A" unicode="&#x21a;" horiz-adv-x="591" 
d="M34 589h520v-174h-83v96h-131l-2 -433h92v-78h-274v78h92l1 433h-131v-96h-84v174zM271 -309l-35.998 32.001l8 12.5l19.5 31c7.66699 12.333 14.167 24.166 19.5 35.499c-18.667 2.66699 -33 10 -43 22s-15 25.333 -15 40c0 20 6.66699 36 20 48s29.666 18 48.999 18
s36.166 -7 50.499 -21s21.5 -31 21.5 -51s-4.33301 -39.667 -13 -59s-19.167 -37 -31.5 -53s-23.333 -28.833 -33 -38.5z" />
    <glyph glyph-name="uni021B" unicode="&#x21b;" horiz-adv-x="374" 
d="M254 -16c-26.667 0 -51.168 5.16699 -73.501 15.5s-40.166 27.833 -53.499 52.5s-20 58.334 -20 101.001v211h-83v70h83v94l86 22v-116h124v-70h-124v-171c0 -42.667 4.5 -76.834 13.5 -102.501s27.5 -38.5 55.5 -38.5c20 0 43 6.33301 69 19l17 -64
c-14.667 -6 -30 -11.333 -46 -16s-32 -7 -48 -7zM156.999 -309l-35.998 32.001l8 12.5l19.5 31c7.66699 12.333 14.167 24.166 19.5 35.499c-18.667 2.66699 -33 10 -43 22s-15 25.333 -15 40c0 20 6.66699 36 20 48s29.666 18 48.999 18s36.166 -7 50.499 -21
s21.5 -31 21.5 -51s-4.33301 -39.667 -13 -59s-19.167 -37 -31.5 -53s-23.333 -28.833 -33 -38.5z" />
    <glyph glyph-name="uni022A" unicode="&#x22a;" horiz-adv-x="645" 
d="M321 605c56.667 0 105.833 -12.667 147.5 -38s74.167 -61.166 97.5 -107.499s35 -101.166 35 -164.499s-11.667 -118.166 -35 -164.499s-55.833 -82.333 -97.5 -108s-90.5 -38.5 -146.5 -38.5c-55.333 0 -103.833 12.833 -145.5 38.5s-74.167 61.667 -97.5 108
s-35 101.166 -35 164.499s11.5 118.166 34.5 164.499s55.333 82.166 97 107.499s90.167 38 145.5 38zM321.999 528c-58 0 -103 -20.333 -135 -61s-48 -98 -48 -172c0 -74.667 16 -132.334 48 -173.001s77 -61 135 -61c58.667 0 104.167 20.333 136.5 61
s48.5 98.334 48.5 173.001c0 74 -16.167 131.333 -48.5 172s-77.833 61 -136.5 61zM412.999 785c16 0 29.833 -5.83301 41.5 -17.5s17.5 -25.834 17.5 -42.501c0 -16 -5.83301 -29.833 -17.5 -41.5s-25.5 -17.5 -41.5 -17.5s-30 5.83301 -42 17.5s-18 25.5 -18 41.5
c0 16.667 6 30.834 18 42.501s26 17.5 42 17.5zM230.999 785c16.667 0 30.834 -5.83301 42.501 -17.5s17.5 -25.834 17.5 -42.501c0 -16 -5.83301 -29.833 -17.5 -41.5s-25.834 -17.5 -42.501 -17.5c-16 0 -29.833 5.83301 -41.5 17.5s-17.5 25.5 -17.5 41.5
c0 16.667 5.83301 30.834 17.5 42.501s25.5 17.5 41.5 17.5zM167.999 890h309v-64h-309v64z" />
    </font>
</defs>
</svg>
