<svg xmlns="http://www.w3.org/2000/svg">
<defs>
<font id="Podkova-ExtraBold" horiz-adv-x="0" >
  <font-face 
    font-family="Podkova ExtraBold"
    font-weight="800"
    font-stretch="normal"
    units-per-em="1000"
    panose-1="0 0 0 0 0 0 0 0 0 0"
    ascent="800"
    descent="-200"
    x-height="454"
    cap-height="589"
    bbox="-178 -343.002 1079 1065"
    underline-thickness="50"
    underline-position="-75"
    unicode-range="U+000D-U+FB02"
  />
<missing-glyph horiz-adv-x="968" 
d="M938 570c2.66699 0 3.32715 -1.00488 1.99414 -3.00488l-64 -66l-1 1c0 -24.667 -3 -52.5 -9 -83.5s-17.167 -64 -33.5 -99s-40.333 -70.833 -72 -107.5s-73.834 -73 -126.501 -109c0 -3.33301 -1.16699 -8.16602 -3.5 -14.499s-7.16602 -9.5 -14.499 -9.5l-12 -12
c15.333 -5.33301 31.166 -11.166 47.499 -17.499s32.166 -13.166 47.499 -20.499c10.667 0 23.334 -0.166992 38.001 -0.5s29.667 -6.16602 45 -17.499c0 -2.66699 -0.333008 -4.16699 -1 -4.5s-1.66699 -1.16602 -3 -2.49902
c-9.33301 4.66699 -18.166 8.33398 -26.499 11.001s-18.833 3.33398 -31.5 2.00098c6.66699 -3.33301 13.167 -7.16602 19.5 -11.499s12.166 -10.5 17.499 -18.5c-0.666992 -2.66699 -3.66699 -4.66699 -9 -6c-9.33301 9.33301 -19.166 17.166 -29.499 23.499
s-21.833 9.16602 -34.5 8.49902c-10.667 0 -19 -1 -25 -3s-14.667 -5.66699 -26 -11c-1.33301 1.33301 -2.5 1.83301 -3.5 1.5s-1.83301 1.16699 -2.5 4.5c6.66699 7.33301 13 11.833 19 13.5s14 4.16699 24 7.5c-21.333 12 -41.166 20.333 -59.499 25s-27.5 9 -27.5 13
s3.66699 9 11 15c-5.33301 0 -9.66602 2.66699 -12.999 8s-5.33301 9 -6 11h-27c-9.33301 0 -18.5 0.333008 -27.5 1s-18.167 1.66699 -27.5 3c-1.33301 -4 -4.16602 -9.16699 -8.49902 -15.5s-10.5 -8.83301 -18.5 -7.5c-8 -4.66699 -13 -8 -15 -10l41.5 -26.5
c14.333 -9 28.5 -19.167 42.5 -30.5c11.333 -2.66699 23.333 -5 36 -7s24.667 -10.667 36 -26c0 -2.66699 -0.5 -4.16699 -1.5 -4.5s-2.16699 -1.16602 -3.5 -2.49902c-8 7.33301 -14.833 12.5 -20.5 15.5s-15.167 5.5 -28.5 7.5c13.333 -8 22.333 -21 27 -39

<glyph glyph-name="fi" unicode="fi" horiz-adv-x="768" 
d="M131 490c0 63.333 15.668 111.332 47.001 143.999s78.666 49 141.999 49c29.333 0 56.333 -3.5 81 -10.5s45.667 -17.5 63 -31.5l-42 -88c-32.667 17.333 -61 26 -85 26c-26 0 -46.5 -6.66699 -61.5 -20s-22.5 -35.666 -22.5 -66.999v-38h124v-101h-124v-252h90v-101
h-296v101h84v252h-84v101h84v36zM450.001 453.999h210v-353h83v-101h-293v101h83v252h-83v101zM586.001 671.999c21.333 0 38.666 -6.66699 51.999 -20s20 -30.666 20 -51.999s-6.66699 -38.5 -20 -51.5s-30.666 -19.5 -51.999 -19.5s-38.5 6.5 -51.5 19.5
s-19.5 30.167 -19.5 51.5s6.5 38.666 19.5 51.999s30.167 20 51.5 20z" />
    <glyph glyph-name="fl" unicode="fl" horiz-adv-x="724" 
d="M615 101l84 0.000976562v-101h-295v101h84v444c-17.333 14 -34.833 24.833 -52.5 32.5s-38.167 11.5 -61.5 11.5c-32 0 -59.333 -8.66699 -82 -26s-34 -41 -34 -71v-38h124v-101h-124v-252h90v-101h-301v101h84v252h-84v101h84v36c0 39.333 10.333 74.166 31 104.499
s49.5 54.333 86.5 72s79.167 26.5 126.5 26.5c55.333 0 102.5 -9.5 141.5 -28.5s71.833 -44.5 98.5 -76.5v-487z" />
    <glyph glyph-name=".notdef" horiz-adv-x="968" 
d="M938 570c2.66699 0 3.32715 -1.00488 1.99414 -3.00488l-64 -66l-1 1c0 -24.667 -3 -52.5 -9 -83.5s-17.167 -64 -33.5 -99s-40.333 -70.833 -72 -107.5s-73.834 -73 -126.501 -109c0 -3.33301 -1.16699 -8.16602 -3.5 -14.499s-7.16602 -9.5 -14.499 -9.5l-12 -12
c15.333 -5.33301 31.166 -11.166 47.499 -17.499s32.166 -13.166 47.499 -20.499c10.667 0 23.334 -0.166992 38.001 -0.5s29.667 -6.16602 45 -17.499c0 -2.66699 -0.333008 -4.16699 -1 -4.5s-1.66699 -1.16602 -3 -2.49902
c-9.33301 4.66699 -18.166 8.33398 -26.499 11.001s-18.833 3.33398 -31.5 2.00098c6.66699 -3.33301 13.167 -7.16602 19.5 -11.499s12.166 -10.5 17.499 -18.5c-0.666992 -2.66699 -3.66699 -4.66699 -9 -6c-9.33301 9.33301 -19.166 17.166 -29.499 23.499
s-21.833 9.16602 -34.5 8.49902c-10.667 0 -19 -1 -25 -3s-14.667 -5.66699 -26 -11c-1.33301 1.33301 -2.5 1.83301 -3.5 1.5s-1.83301 1.16699 -2.5 4.5c6.66699 7.33301 13 11.833 19 13.5s14 4.16699 24 7.5c-21.333 12 -41.166 20.333 -59.499 25s-27.5 9 -27.5 13
s3.66699 9 11 15c-5.33301 0 -9.66602 2.66699 -12.999 8s-5.33301 9 -6 11h-27c-9.33301 0 -18.5 0.333008 -27.5 1s-18.167 1.66699 -27.5 3c-1.33301 -4 -4.16602 -9.16699 -8.49902 -15.5s-10.5 -8.83301 -18.5 -7.5c-8 -4.66699 -13 -8 -15 -10l41.5 -26.5
c14.333 -9 28.5 -19.167 42.5 -30.5c11.333 -2.66699 23.333 -5 36 -7s24.667 -10.667 36 -26c0 -2.66699 -0.5 -4.16699 -1.5 -4.5s-2.16699 -1.16602 -3.5 -2.49902c-8 7.33301 -14.833 12.5 -20.5 15.5s-15.167 5.5 -28.5 7.5c13.333 -8 22.333 -21 27 -39
c-1.33301 -3.33301 -4 -4.66602 -8 -3.99902c-6.66699 10.667 -14.167 20.5 -22.5 29.5s-18.5 14.833 -30.5 17.5c-20.667 2.66699 -44 1 -70 -5c-2 3.33301 -3 6 -3 8c8 5.33301 16.833 8.5 26.5 9.5s19.834 1.83301 30.501 2.5c-16.667 14 -33.334 25.667 -50.001 35
s-25 16.666 -25 21.999c0 3.33301 1.16699 5.66602 3.5 6.99902s5.5 3.66602 9.5 6.99902c-4.66699 4.66699 -7.16699 10.167 -7.5 16.5s-0.166016 11.5 0.500977 15.5c-38.667 21.333 -71.667 45.833 -99 73.5s-50.166 55.334 -68.499 83.001l-46.5 71.5l-103.5 36.5
c-33.667 12.333 -61.167 27.166 -82.5 44.499c-4.66699 4 -6.5 8.66699 -5.5 14s4.83301 8 11.5 8l256 -22l182.5 36c45.667 8.66699 80.5 17.167 104.5 25.5s40.667 19.5 50 33.5c20 35.333 40.5 60.5 61.5 75.5s45.833 22.5 74.5 22.5c9.33301 0 17.833 -0.666992 25.5 -2
s14.834 -3 21.501 -5v1l74 26c2 0 3 -0.666992 3 -2v-1l-25 -69zM656.993 187.995c2 0.666992 5.16309 3.33105 9.49609 7.99805s8.5 9.83398 12.5 15.501s5.66699 9.16699 5 10.5c-8 7.33301 -20.167 17.833 -36.5 31.5l-53.5 46.5l43.5 57.5l29.5 39.5l-16.5 13.5
c-7 5.66699 -13.833 9.83398 -20.5 12.501l-74 -93l-56.5 43.5l-40.5 29.5c-3.33301 -4 -7.66602 -9.5 -12.999 -16.5s-9.66602 -14.5 -12.999 -22.5l91 -72l-72 -93c0.666992 -2 3.33398 -5.16699 8.00098 -9.5s9.83398 -8.33301 15.501 -12s9.16699 -5.5 10.5 -5.5l78 88z
" />
    <glyph glyph-name="NULL" 
 />
    <glyph glyph-name="NULL" 
 />
    <glyph glyph-name="CR" unicode="&#xd;" horiz-adv-x="234" 
 />
    <glyph glyph-name="space" unicode=" " horiz-adv-x="234" 
 />
    <glyph glyph-name="exclam" unicode="!" horiz-adv-x="252" 
d="M51 611h149l-28 -410h-96zM125 151c22.667 0 42.667 -8.66699 60 -26s26 -37.666 26 -60.999c0 -22.667 -8.66699 -42.667 -26 -60s-37.333 -26 -60 -26c-24 0 -44.333 8.66699 -61 26s-25 37.333 -25 60c0 23.333 8.33301 43.666 25 60.999s37 26 61 26z" />
    <glyph glyph-name="quotedbl" unicode="&#x22;" horiz-adv-x="374" 
d="M208 611h115l-29 -204h-57zM51 611h115l-29 -204h-57z" />
    <glyph glyph-name="numbersign" unicode="#" horiz-adv-x="648" 
d="M257 588h99l-49 -176h105l48 176h99l-49 -176h124v-98h-151l-32 -118h149v-97h-176l-48 -177h-99l49 177h-105l-48 -177h-99l49 177h-108v97h134l33 118h-132v98h159zM280 314l-32 -118h105l32 118h-105z" />
    <glyph glyph-name="dollar" unicode="$" horiz-adv-x="503" 
d="M136 113c13.333 -4.66699 25.001 -8.16602 35.001 -10.499s20 -4.16602 30 -5.49902v157c-60.667 9.33301 -105.834 29.333 -135.501 60s-44.5 69.334 -44.5 116.001c0 32 7.83301 59.833 23.5 83.5s37 42.167 64 55.5s57.833 20 92.5 20v90h89v-90
c16.667 0 33.167 -2 49.5 -6s32.5 -9.66699 48.5 -17s31 -16 45 -26l17 -143l-102 -10l-13 84c-6 5.33301 -12.167 9.16602 -18.5 11.499s-15.166 3.5 -26.499 3.5v-147l16 -3c53.333 -10 94.666 -27.833 123.999 -53.5s44 -63.834 44 -114.501c0 -48 -16 -87.333 -48 -118
s-77.333 -48.334 -136 -53.001v-80h-89v80c-19.333 1.33301 -37.833 3.5 -55.5 6.5s-34.667 6.66699 -51 11s-31.833 9.5 -46.5 15.5l-17 130l97 12zM290.001 99.001c26 4.66699 46.167 13.3311 60.5 25.998s21.5 28.334 21.5 47.001c0 23.333 -6.5 39.833 -19.5 49.5
s-33.833 15.834 -62.5 18.501v-141zM201.001 492.998c-26.667 0 -46.667 -5.33203 -60 -15.999s-20 -25.334 -20 -44.001c0 -38 26.667 -64.333 80 -79v139z" />
    <glyph glyph-name="percent" unicode="%" horiz-adv-x="804" 
d="M490 624h94l-267 -646h-95zM196 627c42.667 0 77.167 -13.332 103.5 -39.999s39.5 -73.667 39.5 -141s-13.167 -114.333 -39.5 -141s-60.833 -40 -103.5 -40c-27.333 0 -51.833 5.66699 -73.5 17s-38.5 30.333 -50.5 57s-18 62.334 -18 107.001
c0 45.333 6 81.166 18 107.499s28.833 45.166 50.5 56.499s46.167 17 73.5 17zM196 539.001c-8.66699 0 -16.5 -2.5 -23.5 -7.5s-12.667 -14.167 -17 -27.5s-6.5 -32.666 -6.5 -57.999c0 -24.667 2.16699 -43.667 6.5 -57s10 -22.5 17 -27.5s14.833 -7.5 23.5 -7.5
s16.667 2.5 24 7.5s13.166 14.167 17.499 27.5s6.5 32.333 6.5 57c0 25.333 -2.16699 44.666 -6.5 57.999s-10.166 22.5 -17.499 27.5s-15.333 7.5 -24 7.5zM607 341.001c42.667 0 77.167 -13.332 103.5 -39.999s39.5 -73.667 39.5 -141s-13.167 -114.333 -39.5 -141
s-60.833 -40 -103.5 -40c-28 0 -52.667 5.66699 -74 17s-38.166 30.333 -50.499 57s-18.5 62.334 -18.5 107.001c0 45.333 6.16699 81.166 18.5 107.499s29.166 45.166 50.499 56.499s46 17 74 17zM607 252.002c-8.66699 0 -16.5 -2.33301 -23.5 -7s-12.667 -13.667 -17 -27
s-6.5 -32.666 -6.5 -57.999s2.16699 -44.666 6.5 -57.999s10 -22.5 17 -27.5s14.833 -7.5 23.5 -7.5s16.5 2.5 23.5 7.5s12.667 14.167 17 27.5s6.5 32.666 6.5 57.999s-2.16699 44.666 -6.5 57.999s-10 22.333 -17 27s-14.833 7 -23.5 7z" />
    <glyph glyph-name="ampersand" unicode="&#x26;" horiz-adv-x="747" 
d="M502 58c-24.667 -30.667 -54.501 -54.6709 -89.501 -72.0039s-79.5 -26 -133.5 -26c-28.667 0 -56.667 3.33301 -84 10s-52 17.834 -74 33.501s-39.333 36.5 -52 62.5s-19 58.333 -19 97c0 36 6.16699 65.833 18.5 89.5s29 43.834 50 60.501s43.833 32.334 68.5 47.001
c-14.667 21.333 -26.167 42.333 -34.5 63s-12.5 41 -12.5 61c0 30 4.83301 54.5 14.5 73.5s22.334 33.5 38.001 43.5s32.334 17 50.001 21s34.5 6 50.5 6c28 0 53.5 -4.83301 76.5 -14.5s41.333 -24.334 55 -44.001s20.5 -44.5 20.5 -74.5c0 -35.333 -9.33301 -65 -28 -89
s-41.667 -45.667 -69 -65c17.333 -20 36.666 -39.667 57.999 -59l66 -57c9.33301 26 17.833 53.833 25.5 83.5s14.5 58.834 20.5 87.501l145 47l34 -106l-82 -27c-6 -22 -13.333 -47.167 -22 -75.5s-19 -55.166 -31 -80.499l75.5 -52.5l74.5 -52.5l-59 -98l-75 53.5z
M252.999 275.996c-20.667 -15.333 -38.499 -32.1689 -53.499 -50.502s-22.5 -39.166 -22.5 -62.499c0 -18 3.16699 -33.5 9.5 -46.5s14.666 -23.667 24.999 -32s22 -14.666 35 -18.999s26.167 -6.5 39.5 -6.5c34 0 60.167 6.33301 78.5 19s35.833 28 52.5 46
c-28 22.667 -56.333 47 -85 73s-55 52.333 -79 79zM297 546.993c-16.667 0 -28.834 -5.66699 -36.501 -17s-11.5 -25.666 -11.5 -42.999c0 -13.333 2.83301 -26.333 8.5 -39s13.834 -27.667 24.501 -45c15.333 11.333 30.333 24.333 45 39s22 32.667 22 54
c0 15.333 -4.5 27.666 -13.5 36.999s-21.833 14 -38.5 14z" />
    <glyph glyph-name="quotesingle" unicode="'" horiz-adv-x="217" 
d="M59 611h115l-19 -224h-78z" />
    <glyph glyph-name="parenleft" unicode="(" horiz-adv-x="270" 
d="M278 601c-30.667 -30 -55.167 -61.1641 -73.5 -93.4971s-32.333 -63.833 -42 -94.5s-16.167 -59 -19.5 -85s-5 -47.667 -5 -65s1.66699 -39 5 -65s9.83301 -54.333 19.5 -85s23.667 -62 42 -94s42.833 -63 73.5 -93l-66 -84c-25.333 16.667 -50 39.167 -74 67.5
s-45.667 61.166 -65 98.499s-34.666 77.666 -45.999 120.999s-17 88 -17 134s5.66699 90.667 17 134s26.666 83.666 45.999 120.999s41 70.333 65 99s48.667 51 74 67z" />
    <glyph glyph-name="parenright" unicode=")" horiz-adv-x="271" 
d="M58 684c25.333 -16 50.166 -38.3359 74.499 -67.0029s46.166 -61.667 65.499 -99s34.666 -77.666 45.999 -120.999s17 -88 17 -134s-5.66699 -90.667 -17 -134s-26.666 -83.666 -45.999 -120.999s-41.166 -70.166 -65.499 -98.499s-49.166 -50.833 -74.499 -67.5l-66 84
c30.667 30 55.167 61 73.5 93s32.333 63.333 42 94s16.167 59 19.5 85s5 47.667 5 65s-1.66699 39 -5 65s-9.83301 54.333 -19.5 85s-23.667 62.167 -42 94.5s-42.833 63.5 -73.5 93.5z" />
    <glyph glyph-name="asterisk" unicode="*" horiz-adv-x="455" 
d="M163 659h123l-20 -149l136 68l40 -117l-147 -27l99 -108l-98 -74l-70 126l-70 -126l-101 71l106 112l-146 24l36 119l134 -68z" />
    <glyph glyph-name="plus" unicode="+" horiz-adv-x="505" 
d="M195 506h115v-146h145v-104h-145v-145h-115v145h-145v104h145v146z" />
    <glyph glyph-name="comma" unicode="," horiz-adv-x="242" 
d="M91 -143l-38 42.998l9 12c6 8 12.833 17.833 20.5 29.5s14.167 23.167 19.5 34.5c-22.667 5.33301 -38.667 15.333 -48 30s-14 30 -14 46c0 24.667 8 44.5 24 59.5s36.333 22.5 61 22.5c22 0 41.833 -8.66699 59.5 -26s26.5 -37.666 26.5 -60.999
c0 -22.667 -4.83301 -44.167 -14.5 -64.5s-21.5 -38.666 -35.5 -54.999s-27.5 -30.5 -40.5 -42.5s-22.833 -21.333 -29.5 -28z" />
    <glyph glyph-name="hyphen" unicode="-" horiz-adv-x="427" 
d="M46 273h335v-101h-335v101z" />
    <glyph glyph-name="period" unicode="." horiz-adv-x="260" 
d="M130 151c22.667 0 42.667 -8.66699 60 -26s26 -37.666 26 -60.999c0 -22.667 -8.66699 -42.667 -26 -60s-37.333 -26 -60 -26c-24 0 -44.333 8.66699 -61 26s-25 37.333 -25 60c0 23.333 8.33301 43.666 25 60.999s37 26 61 26z" />
    <glyph glyph-name="slash" unicode="/" horiz-adv-x="401" 
d="M299 589h128l-325 -720h-128z" />
    <glyph glyph-name="zero" unicode="0" horiz-adv-x="610" 
d="M305 611c36 0 69.667 -4.83301 101 -14.5s59 -26.334 83 -50.001s42.667 -56 56 -97s20 -92.833 20 -155.5c0 -62 -6.66699 -113.5 -20 -154.5s-32 -73.167 -56 -96.5s-51.667 -40 -83 -50s-65 -15 -101 -15s-69.833 5 -101.5 15s-59.334 26.667 -83.001 50
s-42.167 55.5 -55.5 96.5s-20 92.5 -20 154.5c0 62.667 6.66699 114.5 20 155.5s31.833 73.333 55.5 97s51.334 40.334 83.001 50.001s65.5 14.5 101.5 14.5zM305 494c-16 0 -31.5 -2.16699 -46.5 -6.5s-28.5 -13.166 -40.5 -26.499s-21.333 -33.333 -28 -60
s-10 -62.334 -10 -107.001c0 -44 3.33301 -79.167 10 -105.5s16 -46.333 28 -60s25.5 -22.667 40.5 -27s30.5 -6.5 46.5 -6.5s31.5 2.16699 46.5 6.5s28.5 13.333 40.5 27s21.333 33.667 28 60s10 61.5 10 105.5c0 44.667 -3.33301 80.334 -10 107.001s-16 46.667 -28 60
s-25.5 22.166 -40.5 26.499s-30.5 6.5 -46.5 6.5z" />
    <glyph glyph-name="one" unicode="1" horiz-adv-x="494" 
d="M248 611h84v-499h149v-112h-435v112h157v308l-109 -91l-74 92z" />
    <glyph glyph-name="two" unicode="2" horiz-adv-x="547" 
d="M58 0l-25.001 86l117.5 112l116.5 111c22 21.333 38.5 41.833 49.5 61.5s16.5 39.5 16.5 59.5s-7 36.5 -21 49.5s-34.667 19.5 -62 19.5c-26 0 -52 -6.66699 -78 -20s-49 -30.333 -69 -51l-78 82c39.333 36 77 61.833 113 77.5s76.333 23.5 121 23.5
c41.333 0 77.833 -7.83301 109.5 -23.5s56.334 -37.5 74.001 -65.5s26.5 -60 26.5 -96c0 -32 -11.833 -63.5 -35.5 -94.5s-54.5 -62.167 -92.5 -93.5l-70 -62.5l-70 -63.5h179l47 73l95 -55l-80 -130h-384z" />
    <glyph glyph-name="three" unicode="3" horiz-adv-x="521" 
d="M245 359c25.333 0 46.502 6.50293 63.502 19.5029s25.5 29.833 25.5 50.5c0 22.667 -9.5 40.167 -28.5 52.5s-43.167 18.5 -72.5 18.5c-24.667 0 -49.5 -4.66699 -74.5 -14s-45.5 -22 -61.5 -38l-78 76c27.333 30 60 52 98 66s77.333 21 118 21
c70 0 124.167 -15.833 162.5 -47.5s57.5 -71.834 57.5 -120.501c0 -19.333 -4.5 -38.333 -13.5 -57s-21.5 -34.667 -37.5 -48s-34.333 -22.333 -55 -27c41.333 -10 74 -27.167 98 -51.5s36 -55.5 36 -93.5s-9.16699 -71 -27.5 -99s-44.833 -49.833 -79.5 -65.5
s-76.334 -23.5 -125.001 -23.5c-36.667 0 -68.834 3.66699 -96.501 11s-52.667 17.666 -75 30.999s-44.833 28.666 -67.5 45.999l72 94c24.667 -23.333 49.667 -40.666 75 -51.999s54.333 -17 87 -17c31.333 0 56.666 7.16699 75.999 21.5s29 33.166 29 56.499
s-9.66699 42.333 -29 57s-45.666 22 -78.999 22h-69v111h71z" />
    <glyph glyph-name="four" unicode="4" horiz-adv-x="569" 
d="M209 0v112h122v56h-311v105l239 353l98 -55l-208 -298h182v190h128v-190h73v-105h-73v-56h69v-112h-319z" />
    <glyph glyph-name="five" unicode="5" horiz-adv-x="541" 
d="M188 369c19.333 11.333 39.001 19.667 59.001 25s40 8 60 8c35.333 0 68 -8.16699 98 -24.5s54.333 -39.833 73 -70.5s28 -67.667 28 -111c0 -70.667 -23 -124.334 -69 -161.001s-107.667 -55 -185 -55c-36.667 0 -73.334 6.5 -110.001 19.5s-70.667 32.167 -102 57.5
l74 88c25.333 -18.667 50.5 -33 75.5 -43s47.833 -15 68.5 -15c41.333 0 72.333 9.33301 93 28s31 45.334 31 80.001c0 22 -5 40.833 -15 56.5s-23.5 27.667 -40.5 36s-35.5 12.5 -55.5 12.5c-20.667 0 -42 -5 -64 -15s-42.333 -26 -61 -48l-77 37v315h385v-112h-266v-108z
" />
    <glyph glyph-name="six" unicode="6" horiz-adv-x="569" 
d="M456 465c-11.333 8 -24.332 14.501 -38.999 19.501s-29.334 8.66699 -44.001 11s-28.334 3.5 -41.001 3.5c-23.333 0 -44.5 -4.33301 -63.5 -13s-35.5 -20.5 -49.5 -35.5s-24.667 -32.5 -32 -52.5s-11 -41 -11 -63c24 17.333 49.667 30.666 77 39.999s54.333 14 81 14
c34 0 66.5 -6.16699 97.5 -18.5s56.333 -33 76 -62s29.5 -68.833 29.5 -119.5c0 -19.333 -3.5 -41.166 -10.5 -65.499s-19.333 -47.5 -37 -69.5s-42.167 -40.167 -73.5 -54.5s-71.666 -21.5 -120.999 -21.5c-85.333 0 -149 26.167 -191 78.5s-63 131.166 -63 236.499
c0 62 11.833 117 35.5 165s57.167 85.5 100.5 112.5s94.333 40.5 153 40.5c20.667 0 41.5 -2.33301 62.5 -7s40.5 -10.5 58.5 -17.5s32.333 -14.5 43 -22.5zM308.001 292.001c-24 0 -47.999 -4.99902 -71.999 -14.999s-43 -21.667 -57 -35
c4 -42.667 12.333 -75.334 25 -98.001s27.667 -38.167 45 -46.5s35 -12.5 53 -12.5c24 0 43.667 5.5 59 16.5s26.666 24.5 33.999 40.5s11 31.667 11 47c0 38 -9.66699 64.667 -29 80s-42.333 23 -69 23z" />
    <glyph glyph-name="seven" unicode="7" horiz-adv-x="501" 
d="M497 513c-46 -62 -83.999 -122.833 -113.999 -182.5s-51.5 -117.167 -64.5 -172.5s-17.833 -108 -14.5 -158h-130c0.666992 53.333 6.66699 104.5 18 153.5s29.666 99.667 54.999 152s59 109.5 101 171.5h-200l-15 -73l-116 26l30 159h450v-76z" />
    <glyph glyph-name="eight" unicode="8" horiz-adv-x="551" 
d="M275 611c40 0 76.667 -5.99805 110 -17.998s59.833 -30.833 79.5 -56.5s29.5 -59.5 29.5 -101.5c0 -15.333 -4 -32 -12 -50s-19.5 -34.167 -34.5 -48.5s-33.833 -24.5 -56.5 -30.5c30.667 -9.33301 54.5 -22 71.5 -38s29 -33.333 36 -52s10.5 -36.334 10.5 -53.001
c0 -44.667 -10.833 -80.667 -32.5 -108s-50.167 -47 -85.5 -59s-73.333 -18 -114 -18c-41.333 0 -80 6 -116 18s-65 31.667 -87 59s-33 63.333 -33 108c0 17.333 3.5 35.166 10.5 53.499s19.167 35.5 36.5 51.5s41.333 28.667 72 38c-22.667 6 -41.5 16.167 -56.5 30.5
s-26.5 30.5 -34.5 48.5s-12 34.667 -12 50c0 42 9.83301 75.833 29.5 101.5s46 44.5 79 56.5s69.5 18 109.5 18zM277 250.002c-34.667 0 -60.167 -8.66699 -76.5 -26s-24.5 -37.666 -24.5 -60.999c0 -24.667 9.16699 -44.334 27.5 -59.001s41.833 -22 70.5 -22
c30.667 0 55.167 7.33301 73.5 22s27.5 34.334 27.5 59.001c0 23.333 -8.16699 43.666 -24.5 60.999s-40.833 26 -73.5 26zM274 507.002c-28 0 -49.667 -6.5 -65 -19.5s-23 -30.5 -23 -52.5s7.66699 -41 23 -57s37 -24 65 -24c29.333 0 51.666 8 66.999 24s23 35 23 57
s-7.66699 39.5 -23 52.5s-37.666 19.5 -66.999 19.5z" />
    <glyph glyph-name="nine" unicode="9" horiz-adv-x="559" 
d="M112 124c12 -8 25.167 -14.499 39.5 -19.499s28.833 -8.66699 43.5 -11s28.334 -3.5 41.001 -3.5c23.333 0 44.5 4.33301 63.5 13s35.5 20.5 49.5 35.5s24.833 32.333 32.5 52s11.5 40.5 11.5 62.5c-24.667 -16.667 -50.334 -29.667 -77.001 -39s-53.667 -14 -81 -14
c-34 0 -66.5 6.16699 -97.5 18.5s-56.333 33 -76 62s-29.5 68.5 -29.5 118.5c0 20 3.5 42 10.5 66s19.167 47.167 36.5 69.5s41.833 40.666 73.5 54.999s72.167 21.5 121.5 21.5c85.333 0 149 -26.167 191 -78.5s63 -131.166 63 -236.499
c0 -46.667 -6.66699 -89.334 -20 -128.001s-32.666 -72.167 -57.999 -100.5s-55.833 -50.333 -91.5 -66s-75.834 -23.5 -120.501 -23.5c-20 0 -40.5 2.33301 -61.5 7s-40.333 10.5 -58 17.5s-32.167 14.167 -43.5 21.5zM266 503.001
c-23.333 0 -42.6689 -5.33398 -58.002 -16.001s-26.666 -24 -33.999 -40s-11 -32 -11 -48c0 -37.333 9.66699 -63.666 29 -78.999s42 -23 68 -23c24 0 48 5 72 15s43 21.667 57 35c-2.66699 32 -8 58.333 -16 79s-17.667 36.5 -29 47.5s-23.666 18.667 -36.999 23
s-27 6.5 -41 6.5z" />
    <glyph glyph-name="colon" unicode=":" horiz-adv-x="249" 
d="M124 465c23.333 0 43.666 -8.5 60.999 -25.5s26 -37.167 26 -60.5s-8.66699 -43.666 -26 -60.999s-37.666 -26 -60.999 -26c-24 0 -44.333 8.66699 -61 26s-25 37.666 -25 60.999s8.33301 43.5 25 60.5s37 25.5 61 25.5zM124 151c23.333 0 43.666 -8.66699 60.999 -26
s26 -37.666 26 -60.999c0 -22.667 -8.66699 -42.667 -26 -60s-37.666 -26 -60.999 -26c-24 0 -44.333 8.66699 -61 26s-25 37.666 -25 60.999c0 22.667 8.33301 42.667 25 60s37 26 61 26z" />
    <glyph glyph-name="semicolon" unicode=";" horiz-adv-x="241" 
d="M52 -99l8.49902 11.999l20.5 29.5c8 11.667 14.333 23.167 19 34.5c-22.667 5.33301 -38.667 15.333 -48 30s-14 30 -14 46c0 24.667 8 44.5 24 59.5s36.333 22.5 61 22.5c22.667 0 42.834 -8.66699 60.501 -26s26.5 -37.666 26.5 -60.999s-4.83301 -45 -14.5 -65
s-21.5 -38.167 -35.5 -54.5s-27.5 -30.5 -40.5 -42.5s-22.833 -21.333 -29.5 -28zM121.999 464.999c23.333 0 43.666 -8.5 60.999 -25.5s26 -37.167 26 -60.5s-8.66699 -43.666 -26 -60.999s-37.666 -26 -60.999 -26c-24 0 -44.333 8.66699 -61 26s-25 37.666 -25 60.999
s8.33301 43.5 25 60.5s37 25.5 61 25.5z" />
    <glyph glyph-name="less" unicode="&#x3c;" horiz-adv-x="505" 
d="M414 547l-372 -193v-90l373 -195l48 100l-275 137v5l275 136z" />
    <glyph glyph-name="equal" unicode="=" horiz-adv-x="505" 
d="M50 356v104h405v-104h-405zM50 156v104h405v-104h-405z" />
    <glyph glyph-name="greater" unicode="&#x3e;" horiz-adv-x="505" 
d="M91 547l372 -193v-90l-373 -195l-48 100l275 137v5l-275 136z" />
    <glyph glyph-name="question" unicode="?" horiz-adv-x="392" 
d="M19 564c17.333 13.333 42.333 24.501 75 33.501s65.334 13.5 98.001 13.5c64 0 112.333 -12.833 145 -38.5s49 -63.167 49 -112.5c0 -28.667 -6.5 -52.334 -19.5 -71.001s-36.167 -36.667 -69.5 -54c-26 -13.333 -45.5 -24 -58.5 -32s-21.667 -15 -26 -21
s-6.5 -13.333 -6.5 -22c0 -5.33301 1.16699 -10.833 3.5 -16.5s6.83301 -13.5 13.5 -23.5l-74 -35c-16 15.333 -27.167 30.166 -33.5 44.499s-9.5 31.5 -9.5 51.5c0 16 3.16699 30 9.5 42s18 24.167 35 36.5s41.167 26.833 72.5 43.5
c12.667 6.66699 22.5 12.834 29.5 18.501s12 11.667 15 18s4.5 13.5 4.5 21.5c0 18 -6.16699 32.167 -18.5 42.5s-29.5 15.5 -51.5 15.5c-12.667 0 -26.834 -1.33301 -42.501 -4s-29.5 -6.66699 -41.5 -12l-12 -81l-101 11zM194 151.001
c23.333 0 43.666 -8.66699 60.999 -26s26 -37.666 26 -60.999c0 -22.667 -8.66699 -42.667 -26 -60s-37.666 -26 -60.999 -26c-22.667 0 -42.667 8.66699 -60 26s-26 37.333 -26 60c0 23.333 8.5 43.666 25.5 60.999s37.167 26 60.5 26z" />
    <glyph glyph-name="at" unicode="@" horiz-adv-x="805" 
d="M565 -85l-17.5039 -12.5c-11.667 -8.33301 -29.334 -16.833 -53.001 -25.5s-53.5 -13 -89.5 -13c-75.333 0 -138.833 15.667 -190.5 47s-90.5 73.333 -116.5 126s-39 111.334 -39 176.001c0 38.667 7 78.167 21 118.5s35.333 77.666 64 111.999
s65.334 62.166 110.001 83.499s97.334 32 158.001 32c53.333 0 101 -8.5 143 -25.5s77.5 -40.5 106.5 -70.5s51 -65.167 66 -105.5s22.5 -84.166 22.5 -131.499c0 -46.667 -8.16699 -85.167 -24.5 -115.5s-37.333 -53 -63 -68s-52.5 -22.5 -80.5 -22.5
c-23.333 0 -41.666 4 -54.999 12s-25.333 17 -36 27c-6 -4.66699 -13.167 -9.66699 -21.5 -15s-17.833 -9.83301 -28.5 -13.5s-22.667 -5.5 -36 -5.5c-32.667 0 -61.167 6 -85.5 18s-43.166 31 -56.499 57s-20 59.667 -20 101c0 34 5.66699 63 17 87
s26.166 43.5 44.499 58.5s38 26 59 33s41.167 10.5 60.5 10.5c16 0 32 -2.16699 48 -6.5s31.333 -10 46 -17s27.334 -14.833 38.001 -23.5v-236c4.66699 -2.66699 8.5 -4.66699 11.5 -6s6.5 -2 10.5 -2c9.33301 0 18.333 4.5 27 13.5s15.667 22.833 21 41.5
s8 42.334 8 71.001c0 40 -4.5 74.667 -13.5 104s-22.833 53.5 -41.5 72.5s-41.834 33.167 -69.501 42.5s-60.167 14 -97.5 14c-43.333 0 -82.666 -10.167 -117.999 -30.5s-63.166 -48.833 -83.499 -85.5s-30.5 -79.667 -30.5 -129c0 -44.667 6.5 -82.834 19.5 -114.501
s30.5 -57.334 52.5 -77.001s46.5 -34 73.5 -43s54.167 -13.5 81.5 -13.5c15.333 0 29.666 1.33301 42.999 4s25.333 5.83398 36 9.50098s19.334 7.16699 26.001 10.5zM462.996 300c-6 2 -12.333 3.33398 -19 4.00098s-12.334 1 -17.001 1c-23.333 0 -43 -8 -59 -24
s-24 -43 -24 -81c0 -32.667 6.83301 -56.334 20.5 -71.001s30.834 -22 51.501 -22c6.66699 0 12.5 0.333008 17.5 1s9.83301 1.66699 14.5 3s9.66699 3.33301 15 6v183z" />
    <glyph glyph-name="A" unicode="A" horiz-adv-x="690" 
d="M5 0v112h99l146 365h-78v112h240l185 -477h88v-112h-265v112h49l-30 85h-193l-30 -85h55v-112h-266zM276 279h135l-67 191z" />
    <glyph glyph-name="B" unicode="B" horiz-adv-x="606" 
d="M43 0l-0.000976562 112h81v365h-81v112h265c79.333 0 140 -13.833 182 -41.5s63 -67.167 63 -118.5c0 -30 -6.83301 -56 -20.5 -78s-33.167 -39.333 -58.5 -52c31.333 -8.66699 55.333 -24.667 72 -48s25 -53 25 -89c0 -52 -17.167 -92 -51.5 -120
s-84.166 -42 -149.499 -42h-327zM252.999 112h94c29.333 0 51.833 5.66699 67.5 17s23.5 28 23.5 50c0 21.333 -7.33301 37.5 -22 48.5s-35.667 16.5 -63 16.5h-100v-132zM252.999 345h101c21.333 0 37.5 5.66699 48.5 17s16.5 27.333 16.5 48c0 44.667 -33.333 67 -100 67
h-66v-132z" />
    <glyph glyph-name="C" unicode="C" horiz-adv-x="619" 
d="M446 487c0 0.666992 -5.00098 2.16504 -15.001 4.49805s-22.333 4.83301 -37 7.5s-29.334 4 -44.001 4c-56 0 -99 -17.667 -129 -53s-45 -86.666 -45 -153.999c0 -68 15.333 -120 46 -156s73.334 -54 128.001 -54c16.667 0 32.334 2.16699 47.001 6.5s26.5 8.5 35.5 12.5
l13.5 6l22 90l108 -25l-32 -151l-24.5 -11.5c-16.333 -7.66699 -39.166 -15.5 -68.499 -23.5s-63 -12 -101 -12c-60.667 0 -114.167 11.167 -160.5 33.5s-82.5 57 -108.5 104s-39 107.167 -39 180.5c0 66.667 12.667 123.334 38 170.001s61.166 82.5 107.499 107.5
s100.166 37.5 161.499 37.5c41.333 0 76.833 -4.33301 106.5 -13s52.334 -17.5 68.001 -26.5l23.5 -13.5l30 -150l-109 -24z" />
    <glyph glyph-name="D" unicode="D" horiz-adv-x="677" 
d="M319 589c100 0 178 -27 234 -81s84 -129 84 -225c0 -88.667 -27.333 -158 -82 -208s-130.667 -75 -228 -75h-284v112h81v365h-81v112h276zM309 112c63.333 0 111.5 14.333 144.5 43s49.5 71 49.5 127c0 64 -15.5 112.5 -46.5 145.5s-76.833 49.5 -137.5 49.5h-66v-365h56
z" />
    <glyph glyph-name="E" unicode="E" horiz-adv-x="617" 
d="M44 589h457l62 -185l-106 -36l-37 109h-166v-123h163v-111h-163v-131h193l35 98l105 -37l-60 -173h-484v112h81l1 365h-81v112z" />
    <glyph glyph-name="F" unicode="F" horiz-adv-x="592" 
d="M43 589h459l64 -193l-106 -36l-39 117h-168v-125h150v-112h-151v-128h129v-112h-338v112h82l1 365h-83v112z" />
    <glyph glyph-name="G" unicode="G" horiz-adv-x="638" 
d="M577 60c-20.667 -14.667 -41.835 -28.3291 -63.502 -40.9961s-45.667 -22.667 -72 -30s-57.166 -11 -92.499 -11c-60.667 0 -114.167 13.167 -160.5 39.5s-82.5 63.166 -108.5 110.499s-39 102.666 -39 165.999s12.333 118.666 37 165.999s60.167 84.166 106.5 110.499
s101.833 39.5 166.5 39.5c41.333 0 79 -5.5 113 -16.5s63.333 -25.5 88 -43.5l33 -144l-105 -27l-24 104c-16.667 8.66699 -33.5 14.5 -50.5 17.5s-34.167 4.5 -51.5 4.5c-31.333 0 -60.666 -8.66699 -87.999 -26s-49.333 -41.833 -66 -73.5s-25 -68.834 -25 -111.501
c0 -40.667 7.16699 -76.5 21.5 -107.5s34.5 -55 60.5 -72s56 -25.5 90 -25.5c20.667 0 39.5 2.33301 56.5 7s33.833 10.334 50.5 17.001v95h-128v100h251v-248z" />
    <glyph glyph-name="H" unicode="H" horiz-adv-x="745" 
d="M43 589l265 -1v-111h-55v-124h239v124h-55v112h265v-112h-81v-365h81v-112h-263v112h53v129h-239v-129h53v-112h-263v112h81v365h-81v112z" />
    <glyph glyph-name="I" unicode="I" horiz-adv-x="405" 
d="M44 589h318v-112h-95v-365h95v-112h-319v112h96v365h-95v112z" />
    <glyph glyph-name="J" unicode="J" horiz-adv-x="533" 
d="M421 240c0 -54 -6.66504 -100.5 -19.998 -139.5s-35 -69.167 -65 -90.5s-70.667 -32 -122 -32c-35.333 0 -65.5 5.16699 -90.5 15.5s-48.167 21.166 -69.5 32.499l-32 146l110 26l21 -102c9.33301 -3.33301 18.166 -6 26.499 -8s16.166 -3 23.499 -3
c29.333 0 51.5 12.333 66.5 37s22.5 56.334 22.5 95.001v260h-122v112h334v-112h-83v-237z" />
    <glyph glyph-name="K" unicode="K" horiz-adv-x="701" 
d="M43 589h264v-112h-55v-131h68l96 131h-41v112h265v-112h-94l-133 -165l151 -200h101v-112h-305v112h66l-94 126h-80v-126h55v-112h-264v112h81v365h-81v112z" />
    <glyph glyph-name="L" unicode="L" horiz-adv-x="565" 
d="M43 589h315v-112h-99v-365h148l35 98l106 -37l-60 -173h-445v112h89v365h-89v112z" />
    <glyph glyph-name="M" unicode="M" horiz-adv-x="878" 
d="M43 589h280l121 -342l105 342h286v-112h-81v-365h81v-112h-274v112h64v390l-39 -135l-100 -296h-84l-120 312l-38 110v-381h66v-112h-267v112h81v365h-81v112z" />
    <glyph glyph-name="N" unicode="N" horiz-adv-x="748" 
d="M44 589h272l198 -407v295h-74v112h279v-112h-92v-477h-148l-241 478v-366h84v-112h-279v112h83v365h-82v112z" />
    <glyph glyph-name="O" unicode="O" horiz-adv-x="680" 
d="M339 611c58.667 0 110.501 -12.167 155.501 -36.5s80.167 -59.833 105.5 -106.5s38 -104.334 38 -173.001c0 -68 -12.667 -125.667 -38 -173s-60.333 -83.166 -105 -107.499s-96.334 -36.5 -155.001 -36.5c-58 0 -109.5 12.167 -154.5 36.5
s-80.167 60.166 -105.5 107.499s-38 105 -38 173c0 68.667 12.667 126.334 38 173.001s60.333 82.167 105 106.5s96 36.5 154 36.5zM340.001 503c-54.667 0 -95.6689 -17.5 -123.002 -52.5s-41 -86.833 -41 -155.5s13.667 -120.667 41 -156s68.333 -53 123 -53
s95.834 17.667 123.501 53s41.5 87.333 41.5 156s-13.667 120.5 -41 155.5s-68.666 52.5 -123.999 52.5z" />
    <glyph glyph-name="P" unicode="P" horiz-adv-x="566" 
d="M302 589c79.333 0 139.833 -16.6689 181.5 -50.002s62.5 -81.666 62.5 -144.999c0 -65.333 -20.833 -115.166 -62.5 -149.499s-102.167 -51.5 -181.5 -51.5h-50v-81h94v-112h-303v112h80v365h-80v112h259zM301 291.998c74.667 0 112 33 112 99
c0 57.333 -37.333 86 -112 86h-48v-185h48z" />
    <glyph glyph-name="Q" unicode="Q" horiz-adv-x="701" 
d="M473 4c-40 -17.333 -84.333 -25.998 -133 -25.998c-58 0 -109.5 12.167 -154.5 36.5s-80.167 60.166 -105.5 107.499s-38 105 -38 173c0 68.667 12.667 126.334 38 173.001s60.333 82.167 105 106.5s96 36.5 154 36.5c58.667 0 110.5 -12.167 155.5 -36.5
s80.167 -59.833 105.5 -106.5s38 -104.334 38 -173.001c0 -48.667 -6.5 -91.834 -19.5 -129.501s-31.5 -70.167 -55.5 -97.5l113 -66l-81 -100zM340 503.002c-54.667 0 -95.6689 -17.5 -123.002 -52.5s-41 -86.833 -41 -155.5s13.667 -120.667 41 -156s68.333 -53 123 -53
s95.834 17.667 123.501 53s41.5 87.333 41.5 156s-13.667 120.5 -41 155.5s-68.666 52.5 -123.999 52.5z" />
    <glyph glyph-name="R" unicode="R" horiz-adv-x="633" 
d="M43 0v112.001h80v365h-80v112h264c63.333 0 112.333 -8.16699 147 -24.5s58.667 -39.5 72 -69.5s20 -65 20 -105c0 -66.667 -17.5 -116.334 -52.5 -149.001s-87.167 -49 -156.5 -49h-85v-80h48v-112h-257zM253 303.001l48.001 -0.000976562c28 0 50.167 2.66699 66.5 8
s28 14.333 35 27s10.5 30 10.5 52c0 22.667 -4.33301 40.334 -13 53.001s-21.334 21.5 -38.001 26.5s-37 7.5 -61 7.5h-48v-174zM425.001 0l-112 206l116 21l71 -115h104v-112h-179z" />
    <glyph glyph-name="S" unicode="S" horiz-adv-x="568" 
d="M285 -22c-50 0 -92.998 3.66504 -128.998 10.998s-67.333 16.333 -94 27l-18 142l104 13l10 -72c19.333 -6.66699 39 -11.5 59 -14.5s39.333 -4.5 58 -4.5c25.333 0 48.666 3 69.999 9s38.333 15 51 27s19 27 19 45c0 18.667 -6.33301 34.834 -19 48.501
s-40 24.167 -82 31.5l-71 13c-60.667 11.333 -107.334 31.5 -140.001 60.5s-49 67.833 -49 116.5c0 41.333 11.333 75.333 34 102s52.5 46.334 89.5 59.001s76.5 19 118.5 19c21.333 0 42.666 -1.5 63.999 -4.5s42.333 -7.33301 63 -13s40.334 -12.834 59.001 -21.501
l20 -155l-113 -12l-13 93c-14 4.66699 -28.167 8.16699 -42.5 10.5s-28.5 3.5 -42.5 3.5c-38 0 -67.667 -6.5 -89 -19.5s-32 -29.833 -32 -50.5c0 -22 7.66699 -39 23 -51s42.666 -21.667 81.999 -29l69 -12c67.333 -10 114.833 -29.5 142.5 -58.5s41.5 -67.167 41.5 -114.5
c0 -41.333 -7.66699 -75 -23 -101s-35.333 -46.167 -60 -60.5s-51.167 -24.166 -79.5 -29.499s-55.166 -8 -80.499 -8z" />
    <glyph glyph-name="T" unicode="T" horiz-adv-x="605" 
d="M28 589h539v-213h-112v101h-93v-365h81v-112h-293v112h82v365h-92v-101h-112v213z" />
    <glyph glyph-name="U" unicode="U" horiz-adv-x="692" 
d="M581 212c0 -76.667 -19.668 -134.834 -59.001 -174.501s-97.666 -59.5 -174.999 -59.5c-78 0 -137 19.833 -177 59.5s-60 97.834 -60 174.501v265h-81v112h265v-112h-55v-282c0 -40 9.16699 -68.5 27.5 -85.5s45.166 -25.5 80.499 -25.5c34.667 0 60.834 9.5 78.501 28.5
s26.5 49.833 26.5 92.5v272h-55v112h266v-112h-82v-265z" />
    <glyph glyph-name="V" unicode="V" horiz-adv-x="670" 
d="M7 589h280v-112h-63l88 -221l35 -126l36 127l82 220h-68v112h266v-112h-68l-183 -477h-132l-196 477h-77v112z" />
    <glyph glyph-name="W" unicode="W" horiz-adv-x="941" 
d="M7 589h281v-112h-52l51 -220l26 -127l23 127l69 258h160l70 -258l23 -127l22 127l50 220h-62v112h266v-112h-63l-152 -477h-150l-56 264l-27 125l-30 -119l-67 -270h-150l-150 477h-82v112z" />
    <glyph glyph-name="X" unicode="X" horiz-adv-x="712" 
d="M28 0v110h105l147 179l-158 188h-83v112h275v-112h-55l93 -111l98 111h-50v112h268v-112h-89l-151 -188l147 -179h112v-110h-300v110h54l-85 101l-90 -101h41v-110h-279z" />
    <glyph glyph-name="Y" unicode="Y" horiz-adv-x="667" 
d="M7 589h284v-112h-69l120 -161l115 161h-63v112h266v-112h-73l-185 -246v-120h94v-111h-316v111h95v120l-192 246h-76v112z" />
    <glyph glyph-name="Z" unicode="Z" horiz-adv-x="579" 
d="M63 589h455v-80l-298 -397h187l34 93l107 -36l-58 -169h-441v89l293 388h-180l-18 -86l-112 16z" />
    <glyph glyph-name="bracketleft" unicode="[" horiz-adv-x="263" 
d="M56 667h203v-103h-83v-601h83v-102h-203v806z" />
    <glyph glyph-name="backslash" unicode="\" horiz-adv-x="405" 
d="M-26 589h127l330 -719h-128z" />
    <glyph glyph-name="bracketright" unicode="]" horiz-adv-x="262" 
d="M4 667h202v-806h-202v102h83v601h-83v103z" />
    <glyph glyph-name="asciicircum" unicode="^" horiz-adv-x="505" 
d="M302 718l189 -283l-87 -66l-143 223h-5l-143 -223l-87 66l189 283h87z" />
    <glyph glyph-name="underscore" unicode="_" horiz-adv-x="636" 
d="M64 -15h508v-108h-508v108z" />
    <glyph glyph-name="grave" unicode="`" horiz-adv-x="299" 
d="M203 518l-162 190l84 62l131 -217z" />
    <glyph glyph-name="a" unicode="a" horiz-adv-x="560" 
d="M378 17c-48 -24.667 -96.001 -37 -144.001 -37c-64.667 0 -113.667 12.167 -147 36.5s-50 59.833 -50 106.5c0 95.333 63.333 143 190 143h105c0 38.667 -8.16699 67.167 -24.5 85.5s-36.5 27.5 -60.5 27.5c-14.667 0 -28.167 -1 -40.5 -3s-24.5 -5 -36.5 -9l-9 -47
l-105 13l19 112c27.333 9.33301 55.5 16.5 84.5 21.5s59.833 7.5 92.5 7.5c66.667 0 117.834 -17.5 153.501 -52.5s53.5 -86.5 53.5 -154.5v-163l81 -26l-35 -104zM229.999 187c-20.667 0 -36.499 -5.5 -47.499 -16.5s-16.5 -26.167 -16.5 -45.5c0 -35.333 24 -53 72 -53
c33.333 0 64.666 8.66699 93.999 26v89h-102z" />
    <glyph glyph-name="b" unicode="b" horiz-adv-x="560" 
d="M278 -20c-40.667 0 -78.999 4.66699 -114.999 14s-68.667 23.333 -98 42v501l-101 35l37 108l190 -65v-170c31.333 19.333 66.666 29 105.999 29c73.333 0 128.833 -20.667 166.5 -62s56.5 -102.333 56.5 -183c0 -82 -20.5 -144 -61.5 -186s-101.167 -63 -180.5 -63z
M277.001 81c37.333 0 65.667 12.5 85 37.5s29 61.833 29 110.5c0 46.667 -8 82 -24 106s-39.667 36 -71 36c-44.667 0 -79.667 -10.667 -105 -32v-245c23.333 -8.66699 52 -13 86 -13z" />
    <glyph glyph-name="c" unicode="c" horiz-adv-x="507" 
d="M347 369c-10.667 3.33301 -21.002 5.66504 -31.002 6.99805s-19.333 2 -28 2c-39.333 0 -69.166 -13.167 -89.499 -39.5s-30.5 -65.166 -30.5 -116.499c0 -43.333 11 -77.666 33 -102.999s49.333 -38 82 -38c22.667 0 46 4.5 70 13.5s47.667 21.833 71 38.5l51 -75
c-20.667 -16 -41 -29.833 -61 -41.5s-40.5 -20.667 -61.5 -27s-44.5 -9.5 -70.5 -9.5c-50 0 -93.167 9.16699 -129.5 27.5s-64.333 45.5 -84 81.5s-29.5 80.333 -29.5 133c0 55.333 9.33301 101.833 28 139.5s46.334 66 83.001 85s82 28.5 136 28.5
c26 0 52.167 -2.5 78.5 -7.5s51.833 -12.167 76.5 -21.5l28 -137l-107 -23z" />
    <glyph glyph-name="d" unicode="d" horiz-adv-x="597" 
d="M542 -26l-126 43c-37.333 -24.667 -82 -37 -134 -37c-76.667 0 -136.334 21.833 -179.001 65.5s-64 104.834 -64 183.501c0 77.333 21.333 137.5 64 180.5s102.334 64.5 179.001 64.5c12.667 0 26.5 -1.33301 41.5 -4s29.833 -6.33398 44.5 -11.001v78l-100 35l36 108
l191 -65v-504l82 -28zM283 81c13.333 0 27.835 1.83301 43.502 5.5s29.5 8.83398 41.5 15.501v251c-10.667 5.33301 -23.834 9.66602 -39.501 12.999s-30.834 5 -45.501 5c-34.667 0 -62.5 -13 -83.5 -39s-31.5 -60.333 -31.5 -103c0 -44.667 10.5 -80.5 31.5 -107.5
s48.833 -40.5 83.5 -40.5z" />
    <glyph glyph-name="e" unicode="e" horiz-adv-x="532" 
d="M484 56c-30.667 -26 -62.5039 -45.1689 -95.5039 -57.502s-65.5 -18.5 -97.5 -18.5c-52 0 -97.333 10.5 -136 31.5s-68.5 50 -89.5 87s-31.5 79.167 -31.5 126.5c0 50 10 93.667 30 131s47.667 66.333 83 87s76.333 31 123 31c48.667 0 90.834 -9.66699 126.501 -29
s63.334 -46.166 83.001 -80.499s29.5 -74.833 29.5 -121.5c0 -8.66699 -0.5 -18.667 -1.5 -30s-2.5 -22 -4.5 -32h-348c2.66699 -22.667 10.334 -41.667 23.001 -57s28.834 -26.666 48.501 -33.999s41.167 -11 64.5 -11c28 0 55 4.66699 81 14s49.667 22.333 71 39z
M382.996 264.998c0 31.333 -9.66602 56.833 -28.999 76.5s-46 29.5 -80 29.5c-30.667 0 -57.334 -9.83301 -80.001 -29.5s-34.667 -45.167 -36 -76.5h225z" />
    <glyph glyph-name="f" unicode="f" horiz-adv-x="408" 
d="M131 490c0 63.333 15.668 111.332 47.001 143.999s78.666 49 141.999 49c29.333 0 56.333 -3.5 81 -10.5s45.667 -17.5 63 -31.5l-42 -88c-32.667 17.333 -61 26 -85 26c-26 0 -46.5 -6.66699 -61.5 -20s-22.5 -35.666 -22.5 -66.999v-38h124v-101h-124v-252h90v-101
h-296v101h84v252h-84v101h84v36z" />
    <glyph glyph-name="g" unicode="g" horiz-adv-x="588" 
d="M252 114c-69.333 0 -123.5 14.5 -162.5 43.5s-58.5 70.833 -58.5 125.5c0 59.333 20.333 106 61 140s94.334 51 161.001 51c25.333 0 47.666 -1.83301 66.999 -5.5s38.333 -10.5 57 -20.5l154 53l39 -112l-123 -16c11.333 -12 19 -26 23 -42s6 -30 6 -42
c0 -43.333 -10.5 -77.833 -31.5 -103.5s-48.5 -44 -82.5 -55s-70.667 -16.5 -110 -16.5zM260 -248c-42 0 -78.333 3.16797 -109 9.50098s-56.334 13.666 -77.001 21.999s-37 15.5 -49 21.5l45 100c34 -14 65.5 -24.833 94.5 -32.5s60.833 -11.5 95.5 -11.5
c30.667 0 54.334 2.66699 71.001 8s28.167 12 34.5 20s9.5 15.667 9.5 23c0 11.333 -4.16699 21.166 -12.5 29.499s-28.5 12.5 -60.5 12.5h-163v194l96 -18v-70h78c61.333 0 107.333 -13.167 138 -39.5s46 -62.833 46 -109.5c0 -38.667 -11.167 -69.667 -33.5 -93
s-51.5 -40.166 -87.5 -50.499s-74.667 -15.5 -116 -15.5zM254 206.001c33.333 0 59.166 7.83301 77.499 23.5s27.5 36.167 27.5 61.5c0 29.333 -9.16699 51.5 -27.5 66.5s-44.166 22.5 -77.499 22.5c-32.667 0 -58.334 -7.5 -77.001 -22.5s-28 -37.167 -28 -66.5
c0 -25.333 9.33301 -45.833 28 -61.5s44.334 -23.5 77.001 -23.5z" />
    <glyph glyph-name="h" unicode="h" horiz-adv-x="652" 
d="M22 0l0.000976562 100.999h83v444l-95 32l33 102l189 -64v-177c42 24 91.667 36 149 36c51.333 0 91.166 -16.333 119.499 -49s42.5 -79 42.5 -139v-185h84v-101h-251v101h40v169c0 33.333 -6.5 57.833 -19.5 73.5s-33.5 23.5 -61.5 23.5
c-12.667 0 -28.5 -2.16699 -47.5 -6.5s-37.167 -10.166 -54.5 -17.499v-242h40v-101h-251z" />
    <glyph glyph-name="i" unicode="i" horiz-adv-x="360" 
d="M42 454h210v-353h83v-101h-293v101h83v252h-83v101zM178 672c21.333 0 38.666 -6.66699 51.999 -20s20 -30.666 20 -51.999s-6.66699 -38.5 -20 -51.5s-30.666 -19.5 -51.999 -19.5s-38.5 6.5 -51.5 19.5s-19.5 30.167 -19.5 51.5s6.5 38.666 19.5 51.999
s30.167 20 51.5 20z" />
    <glyph glyph-name="j" unicode="j" horiz-adv-x="291" 
d="M236 -36c0 -23.333 -1.16992 -47.502 -3.50293 -72.502s-9.16602 -48 -20.499 -69s-30.166 -38 -56.499 -51s-63.5 -19.5 -111.5 -19.5c-16.667 0 -32.334 1.5 -47.001 4.5l-38 7.5l13 100c8.66699 -1.33301 19.167 -2.5 31.5 -3.5s21.833 -1.5 28.5 -1.5
c18.667 0 33.334 2.66699 44.001 8s18.334 12.333 23.001 21s7.5 18.334 8.5 29.001s1.5 21.334 1.5 32.001v404h-84v101h211v-490zM163.997 671.998c21.333 0 38.666 -6.66699 51.999 -20s20 -30.666 20 -51.999s-6.66699 -38.5 -20 -51.5s-30.666 -19.5 -51.999 -19.5
s-38.5 6.5 -51.5 19.5s-19.5 30.167 -19.5 51.5s6.5 38.666 19.5 51.999s30.167 20 51.5 20z" />
    <glyph glyph-name="k" unicode="k" horiz-adv-x="599" 
d="M47 679l189 -64v-342h66l47 80h-50v101h252v-101h-73l-88 -128l88 -124h82v-101h-143l-110 173h-71v-72h29v-101h-240v101h84v444l-95 32z" />
    <glyph glyph-name="l" unicode="l" horiz-adv-x="351" 
d="M31 0v101h84v444l-95 32l33 102l189 -64v-514h84v-101h-295z" />
    <glyph glyph-name="m" unicode="m" horiz-adv-x="937" 
d="M46 0l0.00585938 101.997h83v231l-95 29l33 102l146 -46c21.333 18.667 45.166 32.667 71.499 42s52.833 14 79.5 14c25.333 0 49.666 -4.83301 72.999 -14.5s42.666 -24.167 57.999 -43.5c21.333 16.667 44.666 30.5 69.999 41.5s52.333 16.5 81 16.5
c63.333 0 109.333 -15.667 138 -47s43 -83.666 43 -156.999v-168h85v-102h-249v102h37v165c0 35.333 -5.5 60.333 -16.5 75s-30.167 22 -57.5 22c-12.667 0 -27 -3.16699 -43 -9.5s-29.667 -14.166 -41 -23.499v-229h37v-102h-203v102h39v165c0 35.333 -5.5 60.333 -16.5 75
s-30.167 22 -57.5 22c-12.667 0 -26.834 -3.16699 -42.501 -9.5s-29.834 -14.166 -42.501 -23.499v-229h40v-102h-250z" />
    <glyph glyph-name="n" unicode="n" horiz-adv-x="675" 
d="M46 0l-0.00292969 100.998h85v227l-96 33l33 102l141 -48c26.667 18 53.334 32.333 80.001 43s60.667 16 102 16c44 0 78.667 -8.66699 104 -26s43.5 -40.666 54.5 -69.999s16.5 -61.666 16.5 -96.999v-180h83v-101h-250v101h41v165c0 28 -5.66699 51 -17 69
s-32.666 27 -63.999 27c-20 0 -39.167 -3.5 -57.5 -10.5s-33.166 -14.833 -44.499 -23.5v-227h40v-101h-251z" />
    <glyph glyph-name="o" unicode="o" horiz-adv-x="567" 
d="M282 474c52 0 96 -9.83398 132 -29.501s63.333 -48 82 -85s28 -81.5 28 -133.5c0 -77.333 -21 -137.666 -63 -180.999s-101.667 -65 -179 -65c-50.667 0 -93.834 9.66699 -129.501 29s-62.667 47.5 -81 84.5s-27.5 81.167 -27.5 132.5c0 52 9.16699 96.5 27.5 133.5
s45.333 65.333 81 85s78.834 29.5 129.501 29.5zM283 370.999c-38 0 -66.667 -12.333 -86 -37s-29 -60.667 -29 -108s9.66699 -83.333 29 -108s48 -37 86 -37c38.667 0 67.834 12.333 87.501 37s29.5 60.667 29.5 108s-9.83301 83.333 -29.5 108s-48.834 37 -87.501 37z" />
    <glyph glyph-name="p" unicode="p" horiz-adv-x="609" 
d="M31 -224l-0.000976562 100.002h84v460l-95 32l33 102l144 -49c22.667 16.667 46.834 29.667 72.501 39s49.834 14 72.501 14c71.333 0 127.166 -21.833 167.499 -65.5s60.5 -103.834 60.5 -180.501c0 -50.667 -9.83301 -94.834 -29.5 -132.501s-47.667 -66.667 -84 -87
s-79.166 -30.5 -128.499 -30.5c-32.667 0 -61.334 3.33301 -86.001 10v-112h84v-100h-295zM325.999 79.002c36.667 0 64.834 12.832 84.501 38.499s29.5 61.834 29.5 108.501c0 46 -9.16699 81.667 -27.5 107s-44.166 38 -77.499 38c-18 0 -35.167 -3.16699 -51.5 -9.5
s-30.833 -15.166 -43.5 -26.499v-241c11.333 -4.66699 24.666 -8.33398 39.999 -11.001s30.666 -4 45.999 -4z" />
    <glyph glyph-name="q" unicode="q" horiz-adv-x="560" 
d="M266 -224l-0.000976562 100h102v124c-12.667 -6.66699 -28 -11.667 -46 -15s-36.333 -5 -55 -5c-71.333 0 -127.166 22.5 -167.499 67.5s-60.5 107.5 -60.5 187.5c0 75.333 22.333 134 67 176s106.667 63 186 63c30 0 63 -5 99 -15s71 -23.667 105 -41v-542h66v-100h-296
zM277.999 81c14.667 0 30.1641 1.33203 46.4971 3.99902s30.833 6.33398 43.5 11.001v250c-9.33301 7.33301 -22.166 13.333 -38.499 18s-33.166 7 -50.499 7c-33.333 0 -60.166 -12.333 -80.499 -37s-30.5 -57.667 -30.5 -99c0 -46 10.167 -83.167 30.5 -111.5
s46.833 -42.5 79.5 -42.5z" />
    <glyph glyph-name="r" unicode="r" horiz-adv-x="492" 
d="M220 414c29.333 19.333 56.667 33.666 82 42.999s50.333 14 75 14c25.333 0 53 -5.66699 83 -17l17 -131l-105 -22l-10 54c-22.667 -2.66699 -43 -7.16699 -61 -13.5s-32.667 -14.166 -44 -23.499l-1 -217h98v-101h-308v101h84v229l-96 32l33 102z" />
    <glyph glyph-name="s" unicode="s" horiz-adv-x="471" 
d="M311 371c-10.667 3.33301 -22.166 5.99902 -34.499 7.99902s-24.166 3 -35.499 3c-22.667 0 -42.667 -3.83301 -60 -11.5s-26 -20.167 -26 -37.5c0 -13.333 4.16699 -24.333 12.5 -33s27.833 -15.334 58.5 -20.001l67 -10c50.667 -7.33301 88 -22 112 -44
s36 -52.667 36 -92c0 -36 -9.66699 -65.5 -29 -88.5s-44.333 -39.833 -75 -50.5s-63.334 -16 -98.001 -16c-39.333 0 -73.5 3.83301 -102.5 11.5s-56.167 18.834 -81.5 33.501l-18 106l104 16l9 -49c14 -6 27.667 -10.5 41 -13.5s27 -4.5 41 -4.5
c26.667 0 49.5 4.33301 68.5 13s28.5 21.667 28.5 39c0 11.333 -4.33301 21.5 -13 30.5s-27.667 15.167 -57 18.5l-61 10c-48 8 -85.833 23.167 -113.5 45.5s-41.5 52.833 -41.5 91.5c0 29.333 8 55 24 77s38.667 39 68 51s64 18 104 18c30.667 0 59.667 -3.66699 87 -11
s52.666 -19.666 75.999 -36.999l18 -97l-93 -16z" />
    <glyph glyph-name="t" unicode="t" horiz-adv-x="415" 
d="M281 -20c-35.333 0 -65.667 6.83203 -91 20.499s-44.666 34.334 -57.999 62.001s-20 62.5 -20 104.5v186h-83v101h83v81l122 39v-120h120v-101h-120v-158c0 -36 5.5 -63.5 16.5 -82.5s27.5 -28.5 49.5 -28.5c18 0 39.667 6.66699 65 20l24 -94
c-16 -8 -33.333 -15 -52 -21s-37.334 -9 -56.001 -9z" />
    <glyph glyph-name="u" unicode="u" horiz-adv-x="646" 
d="M454 22c-22.667 -12.667 -47.333 -22.834 -74 -30.501s-51.667 -11.5 -75 -11.5c-70.667 0 -122.334 15.333 -155.001 46s-49 79 -49 145v182h-76v101h203v-266c0 -33.333 6.33301 -57.5 19 -72.5s33.334 -22.5 62.001 -22.5c13.333 0 29.5 2.33301 48.5 7
s36.833 10.334 53.5 17.001v236h-76v101h203v-336l87 -30l-35 -110z" />
    <glyph glyph-name="v" unicode="v" horiz-adv-x="602" 
d="M5 454h256v-101h-57l61 -147l36 -96l37 96l62 147h-58v101h254v-101h-63l-162 -353h-138l-157 353h-70z" />
    <glyph glyph-name="w" unicode="w" horiz-adv-x="809" 
d="M181 0l-117 353h-58v101h246v-101h-54l36 -147l28 -108l25 108l56 181h128l56 -181l25 -109l27 109l42 147h-64v101h246v-101h-56l-134 -353h-135l-73 258l-81 -258h-143z" />
    <glyph glyph-name="x" unicode="x" horiz-adv-x="630" 
d="M35 0v102h85l120 132l-124 119h-81v101h254v-101h-29l58 -63l61 63h-35v101h241v-101h-76l-114 -128l130 -123h77v-102h-256v102h41l-70 69l-67 -69h39v-102h-254z" />
    <glyph glyph-name="y" unicode="y" horiz-adv-x="616" 
d="M149 -249c-14.667 0 -29.999 1.83301 -45.999 5.5s-32.667 9.16699 -50 16.5l24 99c13.333 -5.33301 25.166 -9.33301 35.499 -12s21.833 -4 34.5 -4c15.333 0 28.333 4.16699 39 12.5s21.334 22.5 32.001 42.5s23 47 37 81l151 361h-50l6 101h248v-101h-79l-191 -424
c-28.667 -64 -57.834 -109.667 -87.501 -137s-64.167 -41 -103.5 -41zM276.001 -65l-196 418h-74v101h257v-101h-54l127 -306z" />
    <glyph glyph-name="z" unicode="z" horiz-adv-x="513" 
d="M53 0v86l242 267h-135l-12 -58l-113 22l28 137h385v-83l-246 -270h154l13 63l113 -21l-30 -143h-399z" />
    <glyph glyph-name="braceleft" unicode="{" horiz-adv-x="270" 
d="M41 303c7.33301 0 12.833 2.99707 16.5 8.99707s6.33398 14.833 8.00098 26.5s2.5 25.834 2.5 42.501v78c0 34 5.66699 65 17 93s30.5 51 57.5 69s63.833 28.333 110.5 31l15 -109c-25.333 -2.66699 -44.5 -7.66699 -57.5 -15s-21.833 -17.833 -26.5 -31.5
s-7 -31.5 -7 -53.5v-101c0 -24 -6.5 -42.667 -19.5 -56s-28.167 -23.666 -45.5 -30.999c17.333 -6.66699 32.5 -17 45.5 -31s19.5 -33 19.5 -57v-101c0 -21.333 2.33301 -38.833 7 -52.5s13.5 -24.167 26.5 -31.5s32.167 -12.666 57.5 -15.999l-15 -109
c-46.667 3.33301 -83.5 14 -110.5 32s-46.167 40.833 -57.5 68.5s-17 58.5 -17 92.5v78c0 22.667 -1 39.667 -3 51s-4.83301 18.833 -8.5 22.5s-8.83398 5.5 -15.501 5.5h-48v96h48z" />
    <glyph glyph-name="bar" unicode="|" horiz-adv-x="330" 
d="M105 653h120v-879h-120v879z" />
    <glyph glyph-name="braceright" unicode="}" horiz-adv-x="270" 
d="M229 207c-6 0 -11 -1.83008 -15 -5.49707s-7 -11.167 -9 -22.5s-3 -28.333 -3 -51v-78c0 -34 -5.66699 -64.833 -17 -92.5s-30.5 -50.5 -57.5 -68.5s-63.833 -28.667 -110.5 -32l-15 109c25.333 3.33301 44.5 8.66602 57.5 15.999s21.833 17.833 26.5 31.5
s7 31.167 7 52.5v101c0 24 6.5 43 19.5 57s28.167 24.333 45.5 31c-17.333 7.33301 -32.5 17.666 -45.5 30.999s-19.5 32 -19.5 56v101c0 22 -2.33301 39.833 -7 53.5s-13.5 24.167 -26.5 31.5s-32.167 12.333 -57.5 15l15 109c46.667 -2.66699 83.5 -13 110.5 -31
s46.167 -41 57.5 -69s17 -59 17 -93v-78c0 -16.667 0.833008 -30.834 2.5 -42.501s4.5 -20.5 8.5 -26.5s9.33301 -9 16 -9h48v-96h-48z" />
    <glyph glyph-name="asciitilde" unicode="~" horiz-adv-x="505" 
d="M117 218l-69.9971 64.9971c18 21.333 38.667 41.5 62 60.5s49.666 28.5 78.999 28.5c16 0 33.333 -4.16699 52 -12.5s36.167 -16.666 52.5 -24.999s29.5 -12.5 39.5 -12.5c8.66699 0 18.167 3.33301 28.5 10s22.833 18.334 37.5 35.001l60 -59
c-17.333 -19.333 -33.333 -35.666 -48 -48.999s-28.834 -23.333 -42.501 -30s-28.167 -10 -43.5 -10c-10 0 -22.833 4 -38.5 12s-31.834 15.833 -48.501 23.5s-31.667 11.5 -45 11.5c-9.33301 0 -19.833 -4 -31.5 -12s-26.167 -20 -43.5 -36z" />
    <glyph glyph-name="uni00A0" unicode="&#xa0;" horiz-adv-x="234" 
 />
    <glyph glyph-name="exclamdown" unicode="&#xa1;" horiz-adv-x="254" 
d="M78 227h96l28 -410h-149zM127 450c22.667 0 42.667 -8.66699 60 -26s26 -37.666 26 -60.999c0 -22.667 -8.66699 -42.667 -26 -60s-37.333 -26 -60 -26c-24 0 -44.333 8.66699 -61 26s-25 37.333 -25 60c0 23.333 8.33301 43.666 25 60.999s37 26 61 26z" />
    <glyph glyph-name="cent" unicode="&#xa2;" horiz-adv-x="486" 
d="M334 427c-1.33301 0.666992 -4.66895 2.16699 -10.002 4.5s-12.333 3.5 -21 3.5v-286c17.333 4 36 10.333 56 19s37.333 18.334 52 29.001l52 -75c-28.667 -22.667 -56.667 -40 -84 -52s-52.666 -19.667 -75.999 -23v-69h-89v71c-59.333 10 -105.333 35.667 -138 77
s-49 94.666 -49 159.999c0 68 16.333 123.5 49 166.5s78.667 69.833 138 80.5v78h89v-75c24.667 -1.33301 48.834 -4.5 72.501 -9.5s41.167 -10.5 52.5 -16.5l28 -137l-107 -23zM213.997 429c-45.333 -19.333 -68 -67 -68 -143c0 -70.667 22.667 -115 68 -133v276z" />
    <glyph glyph-name="sterling" unicode="&#xa3;" horiz-adv-x="568" 
d="M241 304c6 -28.667 8.66699 -54.3311 8 -76.998s-6.66699 -44.834 -18 -66.501s-30.333 -46.167 -57 -73.5l3 -3c15.333 8.66699 30.166 14.5 44.499 17.5s28.166 4.5 41.499 4.5s26.833 -2.16699 40.5 -6.5l41.5 -13c14 -4.33301 27.667 -6.5 41 -6.5
c19.333 0 36.5 3.33301 51.5 10s32.167 18 51.5 34l54 -85c-29.333 -22.667 -56.166 -38.5 -80.499 -47.5s-49.833 -13.5 -76.5 -13.5c-22.667 0 -42 1.83301 -58 5.5s-30.5 8 -43.5 13s-26.5 9.33301 -40.5 13s-30.333 5.5 -49 5.5c-16.667 0 -34.334 -3.5 -53.001 -10.5
s-40 -17.5 -64 -31.5l-54 77c34.667 25.333 61.667 50 81 74s31.833 50.5 37.5 79.5s4.16699 62.833 -4.5 101.5c-15.333 74 -18.166 133.5 -8.49902 178.5s31.167 77.667 64.5 98s77.333 30.5 132 30.5c20.667 0 40.334 -1.5 59.001 -4.5s37.5 -7.5 56.5 -13.5
s39.167 -14 60.5 -24l26 -146l-85 -16l-18 99c-12.667 7.33301 -27.167 12.666 -43.5 15.999s-34.833 5 -55.5 5c-33.333 0 -57.833 -7.83301 -73.5 -23.5s-24 -40 -25 -73s3.5 -75.5 13.5 -127.5zM399 331.003v-78h-345v78h345z" />
    <glyph glyph-name="currency" unicode="&#xa4;" horiz-adv-x="527" 
d="M98 81l-59.002 86.9971l63 42c-14.667 26.667 -21.667 55.334 -21 86.001s8 59.334 22 86.001l-63 43l58 88l84 -58c25.333 11.333 52.333 17.166 81 17.499s55.334 -5.16699 80.001 -16.5l83 56l59 -86l-61 -42c10.667 -18 17.834 -37.167 21.501 -57.5
s4 -40.666 1 -60.999s-9.83301 -39.5 -20.5 -57.5l60 -39l-59 -87l-82 54c-24.667 -12 -52.5 -17.667 -83.5 -17s-57.833 6.33398 -80.5 17.001zM263.998 207.997c24 0 44.333 8.5 61 25.5s25 37.5 25 61.5s-8.33301 44.667 -25 62s-37 26 -61 26s-44.333 -8.66699 -61 -26
s-25 -38 -25 -62s8.33301 -44.5 25 -61.5s37 -25.5 61 -25.5z" />
    <glyph glyph-name="yen" unicode="&#xa5;" horiz-adv-x="677" 
d="M185 0v111h95v27h-140v66h140v28h-140v66h98l-150 179h-76v112h284v-112h-59l110 -161l105 161h-53v112h266v-112h-83l-137 -179h102v-66h-140v-28h140v-66h-140v-27h94v-111h-316z" />
    <glyph glyph-name="brokenbar" unicode="&#xa6;" horiz-adv-x="329" 
d="M105 677h119v-387h-119v387zM105 154h119v-378h-119v378z" />
    <glyph glyph-name="section" unicode="&#xa7;" horiz-adv-x="524" 
d="M264 212c56 -21.333 99.5 -47.3301 130.5 -77.9971s46.5 -64 46.5 -100c0 -28.667 -8.33301 -53.834 -25 -75.501s-39.5 -38.667 -68.5 -51s-62.5 -18.5 -100.5 -18.5c-34.667 0 -66.167 5 -94.5 15s-52.166 24.333 -71.499 43l-19 100l102 19l13 -63
c9.33301 -6.66699 19.666 -11.667 30.999 -15s23 -5 35 -5c29.333 0 51.5 5.16699 66.5 15.5s22.5 24.833 22.5 43.5c0 17.333 -11 34.166 -33 50.499s-53.667 31.166 -95 44.499c-41.333 14 -72.833 32.667 -94.5 56s-32.5 50.333 -32.5 81
c0 27.333 8.16699 51.5 24.5 72.5s39.833 37.833 70.5 50.5l47 -34c-19.333 -10.667 -32.5 -21 -39.5 -31s-10.5 -22 -10.5 -36c0 -16 8.16699 -31 24.5 -45s39.833 -27 70.5 -39zM283 160.003c40.667 27.333 61.001 54.998 61.001 82.998
c0 23.333 -8.83301 43.666 -26.5 60.999s-43.5 31 -77.5 41c-46.667 13.333 -82.167 32.333 -106.5 57s-36.5 54 -36.5 88c0 26.667 7.16699 50.5 21.5 71.5s34.166 37.5 59.499 49.5s54.666 18 87.999 18c31.333 0 61.333 -4.33301 90 -13s54.334 -21 77.001 -37l15 -103
l-91 -17l-12 69c-21.333 11.333 -45 17 -71 17c-25.333 0 -44.833 -4.33301 -58.5 -13s-20.5 -21.334 -20.5 -38.001c0 -13.333 8.83301 -26.666 26.5 -39.999s43.5 -25.666 77.5 -36.999c48.667 -17.333 85.667 -39.666 111 -66.999s38 -58.666 38 -93.999
c0 -49.333 -29.667 -93.333 -89 -132z" />
    <glyph glyph-name="dieresis" unicode="&#xa8;" horiz-adv-x="489" 
d="M343 682c19.333 0 36.166 -7.33301 50.499 -22s21.5 -31.667 21.5 -51c0 -20 -7.16699 -37.167 -21.5 -51.5s-31.166 -21.5 -50.499 -21.5c-20.667 0 -38.167 7.16699 -52.5 21.5s-21.5 31.5 -21.5 51.5c0 19.333 7.16699 36.333 21.5 51s31.833 22 52.5 22zM147 682
c19.333 0 36.333 -7.33301 51 -22s22 -31.667 22 -51c0 -20 -7.33301 -37.167 -22 -51.5s-31.667 -21.5 -51 -21.5c-20 0 -37.167 7.16699 -51.5 21.5s-21.5 31.5 -21.5 51.5c0 19.333 7.16699 36.333 21.5 51s31.5 22 51.5 22z" />
    <glyph glyph-name="copyright" unicode="&#xa9;" horiz-adv-x="878" 
d="M441 676c55.333 0 106.166 -9.33301 152.499 -28s86.5 -45.167 120.5 -79.5s60.333 -74.833 79 -121.5s28 -98 28 -154c0 -54.667 -9.33301 -105.167 -28 -151.5s-45 -86.5 -79 -120.5s-74.167 -60.5 -120.5 -79.5s-97.166 -28.5 -152.499 -28.5s-106.5 9.5 -153.5 28.5
s-87.667 45.5 -122 79.5s-61 74.167 -80 120.5s-28.5 96.833 -28.5 151.5c0 56 9.5 107.333 28.5 154s45.667 87.167 80 121.5s75 60.833 122 79.5s98.167 28 153.5 28zM506 427c-10 2.66699 -19.1689 4.49805 -27.502 5.49805s-18.166 1.5 -29.499 1.5
c-36 0 -63.667 -11.5 -83 -34.5s-29 -56.167 -29 -99.5c0 -44 10 -78.5 30 -103.5s47.333 -37.5 82 -37.5c8 0 17 0.666992 27 2s20.333 3.33301 31 6l17 67l83 -25l-24 -100l-17 -8c-11.333 -5.33301 -27.166 -10.666 -47.499 -15.999s-43.5 -8 -69.5 -8
c-62 0 -112.833 18.167 -152.5 54.5s-59.5 92.5 -59.5 168.5c0 68 19.333 120.667 58 158s89.667 56 153 56c28.667 0 53.167 -3.16699 73.5 -9.5s36 -12.666 47 -18.999l16.5 -9.5l19 -101l-78 -22zM436.998 582.998c-56 0 -105 -13.333 -147 -40
s-74.667 -62.167 -98 -106.5s-35 -93.833 -35 -148.5c0 -52 11.667 -99.333 35 -142s56 -76.667 98 -102s91 -38 147 -38s105.333 12.667 148 38s76.167 59.333 100.5 102s36.5 90 36.5 142c0 54.667 -12.167 104.167 -36.5 148.5s-57.833 79.833 -100.5 106.5
s-92 40 -148 40z" />
    <glyph glyph-name="ordfeminine" unicode="&#xaa;" horiz-adv-x="408" 
d="M358 142l-85.0029 29.002c-16.667 -9.33301 -32.834 -16.333 -48.501 -21s-31.834 -7 -48.501 -7c-40.667 0 -73.167 9.16699 -97.5 27.5s-36.5 43.166 -36.5 74.499s10.5 54.666 31.5 69.999s53.833 23 98.5 23h68c0 23.333 -4.66699 40.5 -14 51.5
s-23.666 16.5 -42.999 16.5c-8.66699 0 -16.667 -0.5 -24 -1.5s-14.666 -2.5 -21.999 -4.5l-7 -33l-76 15l14 69c18.667 7.33301 38.334 13 59.001 17s39 6 55 6c25.333 0 47.333 -2.5 66 -7.5s33.834 -13 45.501 -24s20.334 -24.833 26.001 -41.5s8.5 -36.667 8.5 -60v-107
l55 -18zM178.997 213.002c12.667 0 24.332 2.50098 34.999 7.50098s19.334 9.5 26.001 13.5v41h-67c-12.667 0 -22.334 -2.5 -29.001 -7.5s-10 -12.167 -10 -21.5c0 -8.66699 4.33301 -16.334 13 -23.001s19.334 -10 32.001 -10z" />
    <glyph glyph-name="guillemotleft" unicode="&#xab;" horiz-adv-x="360" 
d="M148 451l82 -58l-117 -176l117 -174l-82 -59l-154 234zM282 366l71 -60l-53 -90l53 -87l-71 -60l-84 149z" />
    <glyph glyph-name="logicalnot" unicode="&#xac;" horiz-adv-x="505" 
d="M50 360h405v-256h-127v152h-278v104z" />
    <glyph glyph-name="uni00AD" unicode="&#xad;" horiz-adv-x="401" 
d="M46 334h309v-114h-309v114z" />
    <glyph glyph-name="registered" unicode="&#xae;" horiz-adv-x="688" 
d="M344 57c-54 0 -102.167 12.167 -144.5 36.5s-75.833 57.666 -100.5 99.999s-37 90.5 -37 144.5s12.333 102.333 37 145s58.167 76.334 100.5 101.001s90.5 37 144.5 37c54.667 0 103.167 -12.333 145.5 -37s75.666 -58.334 99.999 -101.001s36.5 -91 36.5 -145
s-12.167 -102.167 -36.5 -144.5s-57.666 -75.666 -99.999 -99.999s-90.833 -36.5 -145.5 -36.5zM343 133c40.667 0 76 8.83301 106 26.5s53.5 41.834 70.5 72.501s25.5 64.667 25.5 102c0 39.333 -8.5 74.833 -25.5 106.5s-40.5 56.667 -70.5 75s-65 27.5 -105 27.5
c-40.667 0 -76 -9.16699 -106 -27.5s-53.333 -43.333 -70 -75s-25 -67.167 -25 -106.5c0 -37.333 8.33301 -71.333 25 -102s40 -54.834 70 -72.501s65 -26.5 105 -26.5zM230 207l0.000976562 54.999h35v153h-35v55h116c37.333 0 64.666 -7.16699 81.999 -21.5
s26 -36.166 26 -65.499c0 -19.333 -3 -34.833 -9 -46.5s-17.333 -21.5 -34 -29.5l23 -45h46v-55h-79l-41 89h-33v-34h20v-55h-117zM328.001 344.999l17 0.000976562c15.333 0 26.833 2.16699 34.5 6.5s11.5 13.5 11.5 27.5c0 15.333 -3.83301 25.166 -11.5 29.499
s-19.167 6.5 -34.5 6.5h-17v-70z" />
    <glyph glyph-name="macron" unicode="&#xaf;" horiz-adv-x="525" 
d="M89 629h347v-82h-347v82z" />
    <glyph glyph-name="degree" unicode="&#xb0;" horiz-adv-x="397" 
d="M198 621c31.333 0 59 -10.333 83 -31s36 -50.334 36 -89.001s-12 -68.167 -36 -88.5s-51.667 -30.5 -83 -30.5c-30.667 0 -58.167 10.167 -82.5 30.5s-36.5 49.833 -36.5 88.5s12.167 68.334 36.5 89.001s51.833 31 82.5 31zM198 567c-14.667 0 -27.5 -5.66699 -38.5 -17
s-16.5 -27.666 -16.5 -48.999s5.5 -37.333 16.5 -48s23.833 -16 38.5 -16c15.333 0 28.333 5.33301 39 16s16 26.667 16 48s-5.33301 37.666 -16 48.999s-23.667 17 -39 17z" />
    <glyph glyph-name="plusminus" unicode="&#xb1;" horiz-adv-x="505" 
d="M195 508h115v-126h145v-104h-145v-105h-115v105h-145v104h145v126zM455 132v-104h-405v104h405z" />
    <glyph glyph-name="uni00B2" unicode="&#xb2;" horiz-adv-x="409" 
d="M51 219l-31.001 88.001l76.5 42.5c27 15 51.5 30.5 73.5 46.5c21.333 15.333 39 30.333 53 45s21 28.334 21 41.001c0 14 -4.66699 24.167 -14 30.5s-21.666 9.5 -36.999 9.5c-16.667 0 -35.667 -4.33301 -57 -13s-42 -21.667 -62 -39l-59 72
c25.333 23.333 52.666 41.666 81.999 54.999s59.333 20 90 20c28.667 0 55.5 -4.5 80.5 -13.5s45.167 -22.167 60.5 -39.5s23 -39 23 -65c0 -24.667 -6.5 -46.834 -19.5 -66.501s-30.5 -37.167 -52.5 -52.5c-18.667 -16 -40.667 -30.5 -66 -43.5
s-51.666 -25.5 -78.999 -37.5h144l42 58l74 -50l-61 -88h-282z" />
    <glyph glyph-name="uni00B3" unicode="&#xb3;" horiz-adv-x="368" 
d="M169 438c20 0 35.335 4.3291 46.002 12.9961s16 18.334 16 29.001c0 11.333 -5.66699 20.833 -17 28.5s-29 11.5 -53 11.5c-16.667 0 -34.334 -2.5 -53.001 -7.5s-35.667 -12.833 -51 -23.5l-47 67c23.333 17.333 47.333 30.5 72 39.5s50 13.5 76 13.5
c55.333 0 97.833 -10.833 127.5 -32.5s44.5 -48.167 44.5 -79.5c0 -23.333 -7.16699 -41.666 -21.5 -54.999s-32.833 -23.666 -55.5 -30.999c27.333 -7.33301 48.666 -17.5 63.999 -30.5s23 -31.167 23 -54.5c0 -22 -7 -42.5 -21 -61.5s-33.167 -34.333 -57.5 -46
s-52.166 -17.5 -83.499 -17.5c-36.667 0 -69 4.83301 -97 14.5s-54.333 23.834 -79 42.501l44 82c17.333 -13.333 36.166 -24.833 56.499 -34.5s42.833 -14.5 67.5 -14.5c23.333 0 40.5 4.16699 51.5 12.5s16.5 17.5 16.5 27.5c0 10.667 -5.16699 20.167 -15.5 28.5
s-25.5 12.5 -45.5 12.5h-50v66h42z" />
    <glyph glyph-name="acute" unicode="&#xb4;" horiz-adv-x="299" 
d="M174 770l84 -62l-162 -190l-53 35z" />
    <glyph glyph-name="uni00B5" unicode="&#xb5;" horiz-adv-x="655" 
d="M257 -226c-56.667 0 -97.666 19.667 -122.999 59s-38 97.333 -38 174l-1 447h127v-278c0 -32.667 9.16699 -56.167 27.5 -70.5s40.166 -21.5 65.499 -21.5c14.667 0 29.667 2.5 45 7.5s30.333 13.5 45 25.5v337h126v-336l87 -30l-35 -103l-135 47
c-24.667 -16.667 -49.667 -29 -75 -37s-49.333 -12 -72 -12c-44.667 0 -79.667 14.333 -105 43v-39c0 -38 8.5 -65.5 25.5 -82.5s36.833 -25.5 59.5 -25.5c18.667 0 41 5 67 15l22 -100c-21.333 -6.66699 -41.5 -11.667 -60.5 -15s-36.5 -5 -52.5 -5z" />
    <glyph glyph-name="paragraph" unicode="&#xb6;" horiz-adv-x="654" 
d="M223 267c-56 0 -98.5 13.168 -127.5 39.501s-43.5 65.166 -43.5 116.499c0 54.667 13.833 96 41.5 124s68.5 42 122.5 42h395v-106h-91v-378h87v-105h-195v483h-67v-483h-199v105h97v162h-20z" />
    <glyph glyph-name="periodcentered" unicode="&#xb7;" horiz-adv-x="261" 
d="M131 307c23.333 0 43.5 -8.66699 60.5 -26s25.5 -37.666 25.5 -60.999c0 -24 -8.5 -44.333 -25.5 -61s-37.167 -25 -60.5 -25c-24 0 -44.5 8.33301 -61.5 25s-25.5 37 -25.5 61c0 23.333 8.5 43.666 25.5 60.999s37.5 26 61.5 26z" />
    <glyph glyph-name="cedilla" unicode="&#xb8;" horiz-adv-x="378" 
d="M181 -239c-19.333 0 -37 2.50293 -53 7.50293s-30.5 11.167 -43.5 18.5s-24.833 14.666 -35.5 21.999l36 52c14 -8.66699 28.167 -15.834 42.5 -21.501s31.833 -8.5 52.5 -8.5c14 0 24 3.83301 30 11.5s9 17.167 9 28.5c0 7.33301 -3.33301 14.5 -10 21.5
s-19.667 10.5 -39 10.5h-65v97h78v-47c45.333 1.33301 78.833 -4.83398 100.5 -18.501s32.5 -36.834 32.5 -69.501c0 -24 -6.16699 -43.667 -18.5 -59s-28.833 -26.666 -49.5 -33.999s-43 -11 -67 -11z" />
    <glyph glyph-name="uni00B9" unicode="&#xb9;" horiz-adv-x="363" 
d="M183 590h59l2 -291h116v-80h-328v80h112v166l-90 -63l-44 63z" />
    <glyph glyph-name="ordmasculine" unicode="&#xba;" horiz-adv-x="407" 
d="M203 474c47.333 0 85.333 -14.167 114 -42.5s43 -68.5 43 -120.5c0 -46 -13.833 -84.333 -41.5 -115s-66.167 -46 -115.5 -46c-45.333 0 -82.666 14.167 -111.999 42.5s-44 67.833 -44 118.5c0 52 14.667 92.167 44 120.5s66.666 42.5 111.999 42.5zM204 390
c-19.333 0 -33.833 -7.33301 -43.5 -22s-14.5 -33.667 -14.5 -57c0 -22.667 4.83301 -41.334 14.5 -56.001s24.167 -22 43.5 -22c18.667 0 33 7.33301 43 22s15 33.334 15 56.001c0 23.333 -5 42.333 -15 57s-24.333 22 -43 22z" />
    <glyph glyph-name="guillemotright" unicode="&#xbb;" horiz-adv-x="359" 
d="M77 366l85 -148l-85 -149l-71 60l53 87l-53 90zM211 451l154 -233l-154 -234l-81 59l116 174l-116 176z" />
    <glyph glyph-name="onequarter" unicode="&#xbc;" horiz-adv-x="968" 
d="M183 590h59l2 -291h116v-80h-328v80h112v166l-90 -63l-44 63zM646 652h98l-441 -728h-98zM677 0v80h95v30h-228v100l195 212l64 -74l-162 -158h131v96h99l1 -96l69 -1v-79h-69v-30h67v-80h-262z" />
    <glyph glyph-name="onehalf" unicode="&#xbd;" horiz-adv-x="993" 
d="M183 590h59l2 -291h116v-80h-328v80h112v166l-90 -63l-44 63zM646 652h98l-441 -728h-98zM635 0l-31.001 88.001l76.5 42.5c27 15 51.5 30.5 73.5 46.5c21.333 15.333 39 30.333 53 45s21 28.334 21 41.001c0 14 -4.66699 24.167 -14 30.5s-21.666 9.5 -36.999 9.5
c-16.667 0 -35.667 -4.33301 -57 -13s-42 -21.667 -62 -39l-59 72c25.333 23.333 52.666 41.666 81.999 54.999s59.333 20 90 20c28.667 0 55.5 -4.5 80.5 -13.5s45.167 -22.167 60.5 -39.5s23 -39 23 -65c0 -24.667 -6.5 -46.834 -19.5 -66.501s-30.5 -37.167 -52.5 -52.5
c-18.667 -16 -40.667 -30.5 -66 -43.5s-51.666 -25.5 -78.999 -37.5h144l42 58l74 -50l-61 -88h-282z" />
    <glyph glyph-name="threequarters" unicode="&#xbe;" horiz-adv-x="943" 
d="M169 438c20 0 35.335 4.3291 46.002 12.9961s16 18.334 16 29.001c0 11.333 -5.66699 20.833 -17 28.5s-29 11.5 -53 11.5c-16.667 0 -34.334 -2.5 -53.001 -7.5s-35.667 -12.833 -51 -23.5l-47 67c23.333 17.333 47.333 30.5 72 39.5s50 13.5 76 13.5
c55.333 0 97.833 -10.833 127.5 -32.5s44.5 -48.167 44.5 -79.5c0 -23.333 -7.16699 -41.666 -21.5 -54.999s-32.833 -23.666 -55.5 -30.999c27.333 -7.33301 48.666 -17.5 63.999 -30.5s23 -31.167 23 -54.5c0 -22 -7 -42.5 -21 -61.5s-33.167 -34.333 -57.5 -46
s-52.166 -17.5 -83.499 -17.5c-36.667 0 -69 4.83301 -97 14.5s-54.333 23.834 -79 42.501l44 82c17.333 -13.333 36.166 -24.833 56.499 -34.5s42.833 -14.5 67.5 -14.5c23.333 0 40.5 4.16699 51.5 12.5s16.5 17.5 16.5 27.5c0 10.667 -5.16699 20.167 -15.5 28.5
s-25.5 12.5 -45.5 12.5h-50v66h42zM621.002 651.996h98l-441 -728h-98zM652.002 -0.00390625v80h95v30h-228v100l195 212l64 -74l-162 -158h131v96h99l1 -96l69 -1v-79h-69v-30h67v-80h-262z" />
    <glyph glyph-name="questiondown" unicode="&#xbf;" horiz-adv-x="392" 
d="M373 -198c-17.333 -13.333 -42.333 -24.501 -75 -33.501s-65.334 -13.5 -98.001 -13.5c-64 0 -112.333 12.833 -145 38.5s-49 63.167 -49 112.5c0 28.667 6.5 52.334 19.5 71.001s36.167 36.667 69.5 54c26 13.333 45.5 24 58.5 32s21.667 15 26 21s6.5 13.333 6.5 22
c0 5.33301 -1.16699 10.833 -3.5 16.5s-6.83301 13.5 -13.5 23.5l74 35c16 -15.333 27.167 -30.166 33.5 -44.499s9.5 -31.5 9.5 -51.5c0 -16 -3.16699 -30 -9.5 -42s-18 -24.167 -35 -36.5s-41.167 -26.833 -72.5 -43.5c-12.667 -6.66699 -22.5 -12.834 -29.5 -18.501
s-12 -11.667 -15 -18s-4.5 -13.5 -4.5 -21.5c0 -18 6.16699 -32.167 18.5 -42.5s29.5 -15.5 51.5 -15.5c12.667 0 26.834 1.33301 42.501 4s29.5 6.66699 41.5 12l12 81l101 -11zM198 214.999c-23.333 0 -43.666 8.66699 -60.999 26s-26 37.666 -26 60.999
c0 22.667 8.66699 42.667 26 60s37.666 26 60.999 26c22.667 0 42.667 -8.66699 60 -26s26 -37.333 26 -60c0 -23.333 -8.5 -43.666 -25.5 -60.999s-37.167 -26 -60.5 -26z" />
    <glyph glyph-name="Agrave" unicode="&#xc0;" horiz-adv-x="690" 
d="M5 0v112h99l146 365h-78v112h240l185 -477h88v-112h-265v112h49l-30 85h-193l-30 -85h55v-112h-266zM276 279h135l-67 191zM167 804l245 -90l-18 -49l-255 37z" />
    <glyph glyph-name="Aacute" unicode="&#xc1;" horiz-adv-x="690" 
d="M5 0v112h99l146 365h-78v112h240l185 -477h88v-112h-265v112h49l-30 85h-193l-30 -85h55v-112h-266zM276 279h135l-67 191zM493 801l28 -103l-253 -36l-18 48z" />
    <glyph glyph-name="Acircumflex" unicode="&#xc2;" horiz-adv-x="690" 
d="M5 0v112h99l146 365h-78v112h240l185 -477h88v-112h-265v112h49l-30 85h-193l-30 -85h55v-112h-266zM276 279h135l-67 191zM335 800l184 -106l-36 -47l-147 60l-152 -60l-32 47z" />
    <glyph glyph-name="Atilde" unicode="&#xc3;" horiz-adv-x="690" 
d="M5 0v112h99l146 365h-78v112h240l185 -477h88v-112h-265v112h49l-30 85h-193l-30 -85h55v-112h-266zM276 279h135l-67 191zM190 677l-32.0039 67.001c22.667 17.333 42.834 30.166 60.501 38.499s38.834 12.5 63.501 12.5c18 0 34.167 -3.33301 48.5 -10
s28 -13.5 41 -20.5s26.833 -10.5 41.5 -10.5s27.5 2 38.5 6s25.833 12 44.5 24l28 -67c-18.667 -18 -36.667 -31.167 -54 -39.5s-39.666 -12.833 -66.999 -13.5c-15.333 0 -29.833 3.33301 -43.5 10l-41 20.5c-13.667 7 -28.834 10.5 -45.501 10.5
c-13.333 0 -25.666 -2.33301 -36.999 -7s-26.666 -11.667 -45.999 -21z" />
    <glyph glyph-name="Adieresis" unicode="&#xc4;" horiz-adv-x="690" 
d="M5 0v112h99l146 365h-78v112h240l185 -477h88v-112h-265v112h49l-30 85h-193l-30 -85h55v-112h-266zM276 279h135l-67 191zM432 807c19.333 0 36.166 -7.33301 50.499 -22s21.5 -31.667 21.5 -51c0 -20 -7.16699 -37.167 -21.5 -51.5s-31.166 -21.5 -50.499 -21.5
c-20.667 0 -38.167 7.16699 -52.5 21.5s-21.5 31.5 -21.5 51.5c0 19.333 7.16699 36.333 21.5 51s31.833 22 52.5 22zM236 807c19.333 0 36.333 -7.33301 51 -22s22 -31.667 22 -51c0 -20 -7.33301 -37.167 -22 -51.5s-31.667 -21.5 -51 -21.5
c-20 0 -37.167 7.16699 -51.5 21.5s-21.5 31.5 -21.5 51.5c0 19.333 7.16699 36.333 21.5 51s31.5 22 51.5 22z" />
    <glyph glyph-name="Aring" unicode="&#xc5;" horiz-adv-x="690" 
d="M5 0v112h99l146 365h-78v112h240l185 -477h88v-112h-265v112h49l-30 85h-193l-30 -85h55v-112h-266zM276 279h135l-67 191zM356 784c33.333 0 60.166 -10.167 80.499 -30.5s30.5 -47.166 30.5 -80.499c0 -32.667 -10.167 -59.167 -30.5 -79.5
s-47.166 -30.5 -80.499 -30.5c-32.667 0 -59.167 10.167 -79.5 30.5s-30.5 46.833 -30.5 79.5c0 33.333 10.167 60.166 30.5 80.499s46.833 30.5 79.5 30.5zM356 726c-16 0 -28.833 -4.83301 -38.5 -14.5s-14.5 -22.5 -14.5 -38.5c0 -15.333 4.83301 -27.833 14.5 -37.5
s22.5 -14.5 38.5 -14.5s28.833 4.83301 38.5 14.5s14.5 22.167 14.5 37.5c0 16 -4.83301 28.833 -14.5 38.5s-22.5 14.5 -38.5 14.5z" />
    <glyph glyph-name="AE" unicode="&#xc6;" horiz-adv-x="946" 
d="M29 0v112h93l221 365h-90v112h577l62 -185l-107 -36l-36 109h-166v-123h162v-111h-162v-131h192l36 98l105 -37l-60 -173h-485v112h83v65h-171l-38 -65h51v-112h-267zM346 288h108v189z" />
    <glyph glyph-name="Ccedilla" unicode="&#xc7;" horiz-adv-x="619" 
d="M446 487c0 0.666992 -5.00098 2.16504 -15.001 4.49805s-22.333 4.83301 -37 7.5s-29.334 4 -44.001 4c-56 0 -99 -17.667 -129 -53s-45 -86.666 -45 -153.999c0 -68 15.333 -120 46 -156s73.334 -54 128.001 -54c16.667 0 32.334 2.16699 47.001 6.5s26.5 8.5 35.5 12.5
l13.5 6l22 90l108 -25l-32 -151l-24.5 -11.5c-16.333 -7.66699 -39.166 -15.5 -68.499 -23.5s-63 -12 -101 -12c-60.667 0 -114.167 11.167 -160.5 33.5s-82.5 57 -108.5 104s-39 107.167 -39 180.5c0 66.667 12.667 123.334 38 170.001s61.166 82.5 107.499 107.5
s100.166 37.5 161.499 37.5c41.333 0 76.833 -4.33301 106.5 -13s52.334 -17.5 68.001 -26.5l23.5 -13.5l30 -150l-109 -24zM381.999 -239.002c-19.333 0 -37 2.50293 -53 7.50293s-30.5 11.167 -43.5 18.5s-24.833 14.666 -35.5 21.999l36 52
c14 -8.66699 28.167 -15.834 42.5 -21.501s31.833 -8.5 52.5 -8.5c14 0 24 3.83301 30 11.5s9 17.167 9 28.5c0 7.33301 -3.33301 14.5 -10 21.5s-19.667 10.5 -39 10.5h-65v97h78v-47c45.333 1.33301 78.833 -4.83398 100.5 -18.501s32.5 -36.834 32.5 -69.501
c0 -24 -6.16699 -43.667 -18.5 -59s-28.833 -26.666 -49.5 -33.999s-43 -11 -67 -11z" />
    <glyph glyph-name="Egrave" unicode="&#xc8;" horiz-adv-x="617" 
d="M44 589h457l62 -185l-106 -36l-37 109h-166v-123h163v-111h-163v-131h193l35 98l105 -37l-60 -173h-484v112h81l1 365h-81v112zM132 804l245 -90l-18 -49l-255 37z" />
    <glyph glyph-name="Eacute" unicode="&#xc9;" horiz-adv-x="617" 
d="M44 589h457l62 -185l-106 -36l-37 109h-166v-123h163v-111h-163v-131h193l35 98l105 -37l-60 -173h-484v112h81l1 365h-81v112zM458 801l28 -103l-253 -36l-18 48z" />
    <glyph glyph-name="Ecircumflex" unicode="&#xca;" horiz-adv-x="617" 
d="M44 589h457l62 -185l-106 -36l-37 109h-166v-123h163v-111h-163v-131h193l35 98l105 -37l-60 -173h-484v112h81l1 365h-81v112zM300 800l184 -106l-36 -47l-147 60l-152 -60l-32 47z" />
    <glyph glyph-name="Edieresis" unicode="&#xcb;" horiz-adv-x="617" 
d="M44 589h457l62 -185l-106 -36l-37 109h-166v-123h163v-111h-163v-131h193l35 98l105 -37l-60 -173h-484v112h81l1 365h-81v112zM397 807c19.333 0 36.166 -7.33301 50.499 -22s21.5 -31.667 21.5 -51c0 -20 -7.16699 -37.167 -21.5 -51.5s-31.166 -21.5 -50.499 -21.5
c-20.667 0 -38.167 7.16699 -52.5 21.5s-21.5 31.5 -21.5 51.5c0 19.333 7.16699 36.333 21.5 51s31.833 22 52.5 22zM201 807c19.333 0 36.333 -7.33301 51 -22s22 -31.667 22 -51c0 -20 -7.33301 -37.167 -22 -51.5s-31.667 -21.5 -51 -21.5
c-20 0 -37.167 7.16699 -51.5 21.5s-21.5 31.5 -21.5 51.5c0 19.333 7.16699 36.333 21.5 51s31.5 22 51.5 22z" />
    <glyph glyph-name="Igrave" unicode="&#xcc;" horiz-adv-x="405" 
d="M44 589h318v-112h-95v-365h95v-112h-319v112h96v365h-95v112zM34 804l245 -90l-18 -49l-255 37z" />
    <glyph glyph-name="Iacute" unicode="&#xcd;" horiz-adv-x="405" 
d="M44 589h318v-112h-95v-365h95v-112h-319v112h96v365h-95v112zM360 801l28 -103l-253 -36l-18 48z" />
    <glyph glyph-name="Icircumflex" unicode="&#xce;" horiz-adv-x="405" 
d="M44 589h318v-112h-95v-365h95v-112h-319v112h96v365h-95v112zM202 800l184 -106l-36 -47l-147 60l-152 -60l-32 47z" />
    <glyph glyph-name="Idieresis" unicode="&#xcf;" horiz-adv-x="405" 
d="M44 589h318v-112h-95v-365h95v-112h-319v112h96v365h-95v112zM299 807c19.333 0 36.166 -7.33301 50.499 -22s21.5 -31.667 21.5 -51c0 -20 -7.16699 -37.167 -21.5 -51.5s-31.166 -21.5 -50.499 -21.5c-20.667 0 -38.167 7.16699 -52.5 21.5s-21.5 31.5 -21.5 51.5
c0 19.333 7.16699 36.333 21.5 51s31.833 22 52.5 22zM103 807c19.333 0 36.333 -7.33301 51 -22s22 -31.667 22 -51c0 -20 -7.33301 -37.167 -22 -51.5s-31.667 -21.5 -51 -21.5c-20 0 -37.167 7.16699 -51.5 21.5s-21.5 31.5 -21.5 51.5c0 19.333 7.16699 36.333 21.5 51
s31.5 22 51.5 22z" />
    <glyph glyph-name="Eth" unicode="&#xd0;" horiz-adv-x="695" 
d="M335 589c65.333 0 121.668 -10.001 169.001 -30.001s84 -52.333 110 -97s39 -104.334 39 -179.001c0 -71.333 -13.333 -127.666 -40 -168.999s-63.334 -70.666 -110.001 -87.999s-100 -26 -160 -26h-284v112h81v137h-81v111h81v117h-81v112h276zM325.002 111.999
c44.667 0 81.332 4.33203 109.999 12.999s49.834 25.334 63.501 50.001s20.5 60.334 20.5 107.001c0 49.333 -6.66699 88.166 -20 116.499s-33.5 48.5 -60.5 60.5s-61.5 18 -103.5 18h-66v-117h90v-111h-90v-137h56z" />
    <glyph glyph-name="Ntilde" unicode="&#xd1;" horiz-adv-x="748" 
d="M44 589h272l198 -407v295h-74v112h279v-112h-92v-477h-148l-241 478v-366h84v-112h-279v112h83v365h-82v112zM235 677l-32.0039 67.001c22.667 17.333 42.834 30.166 60.501 38.499s38.834 12.5 63.501 12.5c18 0 34.167 -3.33301 48.5 -10s28 -13.5 41 -20.5
s26.833 -10.5 41.5 -10.5s27.5 2 38.5 6s25.833 12 44.5 24l28 -67c-18.667 -18 -36.667 -31.167 -54 -39.5s-39.666 -12.833 -66.999 -13.5c-15.333 0 -29.833 3.33301 -43.5 10l-41 20.5c-13.667 7 -28.834 10.5 -45.501 10.5c-13.333 0 -25.666 -2.33301 -36.999 -7
s-26.666 -11.667 -45.999 -21z" />
    <glyph glyph-name="Ograve" unicode="&#xd2;" horiz-adv-x="680" 
d="M339 611c58.667 0 110.501 -12.167 155.501 -36.5s80.167 -59.833 105.5 -106.5s38 -104.334 38 -173.001c0 -68 -12.667 -125.667 -38 -173s-60.333 -83.166 -105 -107.499s-96.334 -36.5 -155.001 -36.5c-58 0 -109.5 12.167 -154.5 36.5
s-80.167 60.166 -105.5 107.499s-38 105 -38 173c0 68.667 12.667 126.334 38 173.001s60.333 82.167 105 106.5s96 36.5 154 36.5zM340.001 503c-54.667 0 -95.6689 -17.5 -123.002 -52.5s-41 -86.833 -41 -155.5s13.667 -120.667 41 -156s68.333 -53 123 -53
s95.834 17.667 123.501 53s41.5 87.333 41.5 156s-13.667 120.5 -41 155.5s-68.666 52.5 -123.999 52.5zM170.999 804l245 -90l-18 -49l-255 37z" />
    <glyph glyph-name="Oacute" unicode="&#xd3;" horiz-adv-x="680" 
d="M339 611c58.667 0 110.501 -12.167 155.501 -36.5s80.167 -59.833 105.5 -106.5s38 -104.334 38 -173.001c0 -68 -12.667 -125.667 -38 -173s-60.333 -83.166 -105 -107.499s-96.334 -36.5 -155.001 -36.5c-58 0 -109.5 12.167 -154.5 36.5
s-80.167 60.166 -105.5 107.499s-38 105 -38 173c0 68.667 12.667 126.334 38 173.001s60.333 82.167 105 106.5s96 36.5 154 36.5zM340.001 503c-54.667 0 -95.6689 -17.5 -123.002 -52.5s-41 -86.833 -41 -155.5s13.667 -120.667 41 -156s68.333 -53 123 -53
s95.834 17.667 123.501 53s41.5 87.333 41.5 156s-13.667 120.5 -41 155.5s-68.666 52.5 -123.999 52.5zM496.999 801l28 -103l-253 -36l-18 48z" />
    <glyph glyph-name="Ocircumflex" unicode="&#xd4;" horiz-adv-x="680" 
d="M339 611c58.667 0 110.501 -12.167 155.501 -36.5s80.167 -59.833 105.5 -106.5s38 -104.334 38 -173.001c0 -68 -12.667 -125.667 -38 -173s-60.333 -83.166 -105 -107.499s-96.334 -36.5 -155.001 -36.5c-58 0 -109.5 12.167 -154.5 36.5
s-80.167 60.166 -105.5 107.499s-38 105 -38 173c0 68.667 12.667 126.334 38 173.001s60.333 82.167 105 106.5s96 36.5 154 36.5zM340.001 503c-54.667 0 -95.6689 -17.5 -123.002 -52.5s-41 -86.833 -41 -155.5s13.667 -120.667 41 -156s68.333 -53 123 -53
s95.834 17.667 123.501 53s41.5 87.333 41.5 156s-13.667 120.5 -41 155.5s-68.666 52.5 -123.999 52.5zM338.999 800l184 -106l-36 -47l-147 60l-152 -60l-32 47z" />
    <glyph glyph-name="Otilde" unicode="&#xd5;" horiz-adv-x="680" 
d="M339 611c58.667 0 110.501 -12.167 155.501 -36.5s80.167 -59.833 105.5 -106.5s38 -104.334 38 -173.001c0 -68 -12.667 -125.667 -38 -173s-60.333 -83.166 -105 -107.499s-96.334 -36.5 -155.001 -36.5c-58 0 -109.5 12.167 -154.5 36.5
s-80.167 60.166 -105.5 107.499s-38 105 -38 173c0 68.667 12.667 126.334 38 173.001s60.333 82.167 105 106.5s96 36.5 154 36.5zM340.001 503c-54.667 0 -95.6689 -17.5 -123.002 -52.5s-41 -86.833 -41 -155.5s13.667 -120.667 41 -156s68.333 -53 123 -53
s95.834 17.667 123.501 53s41.5 87.333 41.5 156s-13.667 120.5 -41 155.5s-68.666 52.5 -123.999 52.5zM193.999 677l-32.0039 67.001c22.667 17.333 42.834 30.166 60.501 38.499s38.834 12.5 63.501 12.5c18 0 34.167 -3.33301 48.5 -10s28 -13.5 41 -20.5
s26.833 -10.5 41.5 -10.5s27.5 2 38.5 6s25.833 12 44.5 24l28 -67c-18.667 -18 -36.667 -31.167 -54 -39.5s-39.666 -12.833 -66.999 -13.5c-15.333 0 -29.833 3.33301 -43.5 10l-41 20.5c-13.667 7 -28.834 10.5 -45.501 10.5c-13.333 0 -25.666 -2.33301 -36.999 -7
s-26.666 -11.667 -45.999 -21z" />
    <glyph glyph-name="Odieresis" unicode="&#xd6;" horiz-adv-x="680" 
d="M339 611c58.667 0 110.501 -12.167 155.501 -36.5s80.167 -59.833 105.5 -106.5s38 -104.334 38 -173.001c0 -68 -12.667 -125.667 -38 -173s-60.333 -83.166 -105 -107.499s-96.334 -36.5 -155.001 -36.5c-58 0 -109.5 12.167 -154.5 36.5
s-80.167 60.166 -105.5 107.499s-38 105 -38 173c0 68.667 12.667 126.334 38 173.001s60.333 82.167 105 106.5s96 36.5 154 36.5zM340.001 503c-54.667 0 -95.6689 -17.5 -123.002 -52.5s-41 -86.833 -41 -155.5s13.667 -120.667 41 -156s68.333 -53 123 -53
s95.834 17.667 123.501 53s41.5 87.333 41.5 156s-13.667 120.5 -41 155.5s-68.666 52.5 -123.999 52.5zM435.999 807c19.333 0 36.166 -7.33301 50.499 -22s21.5 -31.667 21.5 -51c0 -20 -7.16699 -37.167 -21.5 -51.5s-31.166 -21.5 -50.499 -21.5
c-20.667 0 -38.167 7.16699 -52.5 21.5s-21.5 31.5 -21.5 51.5c0 19.333 7.16699 36.333 21.5 51s31.833 22 52.5 22zM239.999 807c19.333 0 36.333 -7.33301 51 -22s22 -31.667 22 -51c0 -20 -7.33301 -37.167 -22 -51.5s-31.667 -21.5 -51 -21.5
c-20 0 -37.167 7.16699 -51.5 21.5s-21.5 31.5 -21.5 51.5c0 19.333 7.16699 36.333 21.5 51s31.5 22 51.5 22z" />
    <glyph glyph-name="multiply" unicode="&#xd7;" horiz-adv-x="505" 
d="M151 487l103 -103l104 104l74 -73l-105 -105l103 -102l-78 -78l-102 103l-105 -105l-73 74l104 104l-103 103z" />
    <glyph glyph-name="Oslash" unicode="&#xd8;" horiz-adv-x="680" 
d="M133 -69l49 107l40 68l186 405l31 71l32 69h105l-51 -112l-46 -87l-182 -396l-24 -49l-35 -76h-105zM339 611c58.667 0 110.501 -12.167 155.501 -36.5s80.167 -59.833 105.5 -106.5s38 -104.334 38 -173.001c0 -68 -12.667 -125.667 -38 -173
s-60.333 -83.166 -105 -107.499s-96.334 -36.5 -155.001 -36.5c-58 0 -109.5 12.167 -154.5 36.5s-80.167 60.166 -105.5 107.499s-38 105 -38 173c0 68.667 12.667 126.334 38 173.001s60.333 82.167 105 106.5s96 36.5 154 36.5zM340.001 503
c-54.667 0 -95.6689 -17.5 -123.002 -52.5s-41 -86.833 -41 -155.5s13.667 -120.667 41 -156s68.333 -53 123 -53s95.834 17.667 123.501 53s41.5 87.333 41.5 156s-13.667 120.5 -41 155.5s-68.666 52.5 -123.999 52.5z" />
    <glyph glyph-name="Ugrave" unicode="&#xd9;" horiz-adv-x="692" 
d="M581 212c0 -76.667 -19.668 -134.834 -59.001 -174.501s-97.666 -59.5 -174.999 -59.5c-78 0 -137 19.833 -177 59.5s-60 97.834 -60 174.501v265h-81v112h265v-112h-55v-282c0 -40 9.16699 -68.5 27.5 -85.5s45.166 -25.5 80.499 -25.5c34.667 0 60.834 9.5 78.501 28.5
s26.5 49.833 26.5 92.5v272h-55v112h266v-112h-82v-265zM176.999 804l245 -90l-18 -49l-255 37z" />
    <glyph glyph-name="Uacute" unicode="&#xda;" horiz-adv-x="692" 
d="M581 212c0 -76.667 -19.668 -134.834 -59.001 -174.501s-97.666 -59.5 -174.999 -59.5c-78 0 -137 19.833 -177 59.5s-60 97.834 -60 174.501v265h-81v112h265v-112h-55v-282c0 -40 9.16699 -68.5 27.5 -85.5s45.166 -25.5 80.499 -25.5c34.667 0 60.834 9.5 78.501 28.5
s26.5 49.833 26.5 92.5v272h-55v112h266v-112h-82v-265zM502.999 801l28 -103l-253 -36l-18 48z" />
    <glyph glyph-name="Ucircumflex" unicode="&#xdb;" horiz-adv-x="692" 
d="M581 212c0 -76.667 -19.668 -134.834 -59.001 -174.501s-97.666 -59.5 -174.999 -59.5c-78 0 -137 19.833 -177 59.5s-60 97.834 -60 174.501v265h-81v112h265v-112h-55v-282c0 -40 9.16699 -68.5 27.5 -85.5s45.166 -25.5 80.499 -25.5c34.667 0 60.834 9.5 78.501 28.5
s26.5 49.833 26.5 92.5v272h-55v112h266v-112h-82v-265zM344.999 800l184 -106l-36 -47l-147 60l-152 -60l-32 47z" />
    <glyph glyph-name="Udieresis" unicode="&#xdc;" horiz-adv-x="692" 
d="M581 212c0 -76.667 -19.668 -134.834 -59.001 -174.501s-97.666 -59.5 -174.999 -59.5c-78 0 -137 19.833 -177 59.5s-60 97.834 -60 174.501v265h-81v112h265v-112h-55v-282c0 -40 9.16699 -68.5 27.5 -85.5s45.166 -25.5 80.499 -25.5c34.667 0 60.834 9.5 78.501 28.5
s26.5 49.833 26.5 92.5v272h-55v112h266v-112h-82v-265zM441.999 807c19.333 0 36.166 -7.33301 50.499 -22s21.5 -31.667 21.5 -51c0 -20 -7.16699 -37.167 -21.5 -51.5s-31.166 -21.5 -50.499 -21.5c-20.667 0 -38.167 7.16699 -52.5 21.5s-21.5 31.5 -21.5 51.5
c0 19.333 7.16699 36.333 21.5 51s31.833 22 52.5 22zM245.999 807c19.333 0 36.333 -7.33301 51 -22s22 -31.667 22 -51c0 -20 -7.33301 -37.167 -22 -51.5s-31.667 -21.5 -51 -21.5c-20 0 -37.167 7.16699 -51.5 21.5s-21.5 31.5 -21.5 51.5
c0 19.333 7.16699 36.333 21.5 51s31.5 22 51.5 22z" />
    <glyph glyph-name="Yacute" unicode="&#xdd;" horiz-adv-x="667" 
d="M7 589h284v-112h-69l120 -161l115 161h-63v112h266v-112h-73l-185 -246v-120h94v-111h-316v111h95v120l-192 246h-76v112zM490 801l28 -103l-253 -36l-18 48z" />
    <glyph glyph-name="Thorn" unicode="&#xde;" horiz-adv-x="566" 
d="M43 0l0.000976562 112.001h80v382h-80v95h279v-95h-70v-24h50c60.667 0 108.667 -6.33301 144 -19s60.833 -30 76.5 -52s23.5 -47.333 23.5 -76c0 -36 -8.16699 -65.333 -24.5 -88s-42.333 -39.334 -78 -50.001s-82.834 -16 -141.501 -16h-50v-57h109v-112h-318z
M253.001 271.001h48c36 0 63.667 3 83 9s29 20.333 29 43c0 18.667 -9.66699 31.5 -29 38.5s-47 10.5 -83 10.5h-48v-101z" />
    <glyph glyph-name="germandbls" unicode="&#xdf;" horiz-adv-x="617" 
d="M424 -17c-27.333 0 -53.8311 4.66309 -79.498 13.9961s-44.167 21.333 -55.5 36l-16 87l95 19l9 -50c4.66699 -4 11.167 -7.16699 19.5 -9.5s17.166 -3.5 26.499 -3.5c15.333 0 27.666 4.16699 36.999 12.5s14 18.833 14 31.5c0 13.333 -6 26.333 -18 39
s-29.333 24.334 -52 35.001c-28.667 14 -51 27 -67 39s-27.167 25.167 -33.5 39.5s-9.5 31.5 -9.5 51.5c0 22 4.16699 40.333 12.5 55s18.833 27.5 31.5 38.5s25.167 21.167 37.5 30.5s22.666 19.166 30.999 29.499s12.5 22.5 12.5 36.5
c0 18.667 -7.16699 33.167 -21.5 43.5s-34.5 15.5 -60.5 15.5c-30 0 -51 -8.5 -63 -25.5s-18 -47.167 -18 -90.5v-457h-211v112h84v231h-84v111h84v37c0 60.667 17.667 105.167 53 133.5s85.333 42.5 150 42.5c59.333 0 107.333 -14 144 -42s55 -65 55 -111
c0 -22.667 -4.16699 -41.667 -12.5 -57s-18.5 -28.166 -30.5 -38.499s-24.167 -19.666 -36.5 -27.999s-22.666 -16.666 -30.999 -24.999s-12.5 -18.166 -12.5 -29.499c0 -13.333 4.83301 -24.833 14.5 -34.5s27.167 -20.167 52.5 -31.5
c76.667 -36.667 115 -83.334 115 -140.001c0 -43.333 -15.333 -78.666 -46 -105.999s-70.667 -41 -120 -41z" />
    <glyph glyph-name="agrave" unicode="&#xe0;" horiz-adv-x="560" 
d="M378 17c-48 -24.667 -96.001 -37 -144.001 -37c-64.667 0 -113.667 12.167 -147 36.5s-50 59.833 -50 106.5c0 95.333 63.333 143 190 143h105c0 38.667 -8.16699 67.167 -24.5 85.5s-36.5 27.5 -60.5 27.5c-14.667 0 -28.167 -1 -40.5 -3s-24.5 -5 -36.5 -9l-9 -47
l-105 13l19 112c27.333 9.33301 55.5 16.5 84.5 21.5s59.833 7.5 92.5 7.5c66.667 0 117.834 -17.5 153.501 -52.5s53.5 -86.5 53.5 -154.5v-163l81 -26l-35 -104zM229.999 187c-20.667 0 -36.499 -5.5 -47.499 -16.5s-16.5 -26.167 -16.5 -45.5c0 -35.333 24 -53 72 -53
c33.333 0 64.666 8.66699 93.999 26v89h-102zM254 518l-162 190l84 62l131 -217z" />
    <glyph glyph-name="aacute" unicode="&#xe1;" horiz-adv-x="560" 
d="M378 17c-48 -24.667 -96.001 -37 -144.001 -37c-64.667 0 -113.667 12.167 -147 36.5s-50 59.833 -50 106.5c0 95.333 63.333 143 190 143h105c0 38.667 -8.16699 67.167 -24.5 85.5s-36.5 27.5 -60.5 27.5c-14.667 0 -28.167 -1 -40.5 -3s-24.5 -5 -36.5 -9l-9 -47
l-105 13l19 112c27.333 9.33301 55.5 16.5 84.5 21.5s59.833 7.5 92.5 7.5c66.667 0 117.834 -17.5 153.501 -52.5s53.5 -86.5 53.5 -154.5v-163l81 -26l-35 -104zM229.999 187c-20.667 0 -36.499 -5.5 -47.499 -16.5s-16.5 -26.167 -16.5 -45.5c0 -35.333 24 -53 72 -53
c33.333 0 64.666 8.66699 93.999 26v89h-102zM344 770l84 -62l-162 -190l-53 35z" />
    <glyph glyph-name="acircumflex" unicode="&#xe2;" horiz-adv-x="560" 
d="M378 17c-48 -24.667 -96.001 -37 -144.001 -37c-64.667 0 -113.667 12.167 -147 36.5s-50 59.833 -50 106.5c0 95.333 63.333 143 190 143h105c0 38.667 -8.16699 67.167 -24.5 85.5s-36.5 27.5 -60.5 27.5c-14.667 0 -28.167 -1 -40.5 -3s-24.5 -5 -36.5 -9l-9 -47
l-105 13l19 112c27.333 9.33301 55.5 16.5 84.5 21.5s59.833 7.5 92.5 7.5c66.667 0 117.834 -17.5 153.501 -52.5s53.5 -86.5 53.5 -154.5v-163l81 -26l-35 -104zM229.999 187c-20.667 0 -36.499 -5.5 -47.499 -16.5s-16.5 -26.167 -16.5 -45.5c0 -35.333 24 -53 72 -53
c33.333 0 64.666 8.66699 93.999 26v89h-102zM254 691l170 -120l-40 -53l-129 79l-139 -79l-35 53z" />
    <glyph glyph-name="atilde" unicode="&#xe3;" horiz-adv-x="560" 
d="M378 17c-48 -24.667 -96.001 -37 -144.001 -37c-64.667 0 -113.667 12.167 -147 36.5s-50 59.833 -50 106.5c0 95.333 63.333 143 190 143h105c0 38.667 -8.16699 67.167 -24.5 85.5s-36.5 27.5 -60.5 27.5c-14.667 0 -28.167 -1 -40.5 -3s-24.5 -5 -36.5 -9l-9 -47
l-105 13l19 112c27.333 9.33301 55.5 16.5 84.5 21.5s59.833 7.5 92.5 7.5c66.667 0 117.834 -17.5 153.501 -52.5s53.5 -86.5 53.5 -154.5v-163l81 -26l-35 -104zM229.999 187c-20.667 0 -36.499 -5.5 -47.499 -16.5s-16.5 -26.167 -16.5 -45.5c0 -35.333 24 -53 72 -53
c33.333 0 64.666 8.66699 93.999 26v89h-102zM107 542l-32.0039 67.001c22.667 17.333 42.834 30.166 60.501 38.499s38.834 12.5 63.501 12.5c18 0 34.167 -3.33301 48.5 -10s28 -13.5 41 -20.5s26.833 -10.5 41.5 -10.5s27.5 2 38.5 6s25.833 12 44.5 24l28 -67
c-18.667 -18 -36.667 -31.167 -54 -39.5s-39.666 -12.833 -66.999 -13.5c-15.333 0 -29.833 3.33301 -43.5 10l-41 20.5c-13.667 7 -28.834 10.5 -45.501 10.5c-13.333 0 -25.666 -2.33301 -36.999 -7s-26.666 -11.667 -45.999 -21z" />
    <glyph glyph-name="adieresis" unicode="&#xe4;" horiz-adv-x="560" 
d="M378 17c-48 -24.667 -96.001 -37 -144.001 -37c-64.667 0 -113.667 12.167 -147 36.5s-50 59.833 -50 106.5c0 95.333 63.333 143 190 143h105c0 38.667 -8.16699 67.167 -24.5 85.5s-36.5 27.5 -60.5 27.5c-14.667 0 -28.167 -1 -40.5 -3s-24.5 -5 -36.5 -9l-9 -47
l-105 13l19 112c27.333 9.33301 55.5 16.5 84.5 21.5s59.833 7.5 92.5 7.5c66.667 0 117.834 -17.5 153.501 -52.5s53.5 -86.5 53.5 -154.5v-163l81 -26l-35 -104zM229.999 187c-20.667 0 -36.499 -5.5 -47.499 -16.5s-16.5 -26.167 -16.5 -45.5c0 -35.333 24 -53 72 -53
c33.333 0 64.666 8.66699 93.999 26v89h-102zM349 672c19.333 0 36.166 -7.33301 50.499 -22s21.5 -31.667 21.5 -51c0 -20 -7.16699 -37.167 -21.5 -51.5s-31.166 -21.5 -50.499 -21.5c-20.667 0 -38.167 7.16699 -52.5 21.5s-21.5 31.5 -21.5 51.5
c0 19.333 7.16699 36.333 21.5 51s31.833 22 52.5 22zM153 672c19.333 0 36.333 -7.33301 51 -22s22 -31.667 22 -51c0 -20 -7.33301 -37.167 -22 -51.5s-31.667 -21.5 -51 -21.5c-20 0 -37.167 7.16699 -51.5 21.5s-21.5 31.5 -21.5 51.5c0 19.333 7.16699 36.333 21.5 51
s31.5 22 51.5 22z" />
    <glyph glyph-name="aring" unicode="&#xe5;" horiz-adv-x="560" 
d="M378 17c-48 -24.667 -96.001 -37 -144.001 -37c-64.667 0 -113.667 12.167 -147 36.5s-50 59.833 -50 106.5c0 95.333 63.333 143 190 143h105c0 38.667 -8.16699 67.167 -24.5 85.5s-36.5 27.5 -60.5 27.5c-14.667 0 -28.167 -1 -40.5 -3s-24.5 -5 -36.5 -9l-9 -47
l-105 13l19 112c27.333 9.33301 55.5 16.5 84.5 21.5s59.833 7.5 92.5 7.5c66.667 0 117.834 -17.5 153.501 -52.5s53.5 -86.5 53.5 -154.5v-163l81 -26l-35 -104zM229.999 187c-20.667 0 -36.499 -5.5 -47.499 -16.5s-16.5 -26.167 -16.5 -45.5c0 -35.333 24 -53 72 -53
c33.333 0 64.666 8.66699 93.999 26v89h-102zM252 749c33.333 0 60.166 -10.167 80.499 -30.5s30.5 -47.166 30.5 -80.499c0 -32.667 -10.167 -59.167 -30.5 -79.5s-47.166 -30.5 -80.499 -30.5c-32.667 0 -59.167 10.167 -79.5 30.5s-30.5 46.833 -30.5 79.5
c0 33.333 10.167 60.166 30.5 80.499s46.833 30.5 79.5 30.5zM252 691c-16 0 -28.833 -4.83301 -38.5 -14.5s-14.5 -22.5 -14.5 -38.5c0 -15.333 4.83301 -27.833 14.5 -37.5s22.5 -14.5 38.5 -14.5s28.833 4.83301 38.5 14.5s14.5 22.167 14.5 37.5
c0 16 -4.83301 28.833 -14.5 38.5s-22.5 14.5 -38.5 14.5z" />
    <glyph glyph-name="ae" unicode="&#xe6;" horiz-adv-x="810" 
d="M75 429c24.667 9.33301 50.1738 17.333 76.5068 24s55.166 10 86.499 10c47.333 0 85 -8 113 -24s46.333 -36.667 55 -62c22.667 28 48.667 49.333 78 64s59 22 89 22c35.333 0 66.166 -8 92.499 -24s47.666 -37.5 63.999 -64.5s27.333 -57 33 -90
s4.83398 -66.167 -2.49902 -99.5h-307c5.33301 -34 19.166 -60.333 41.499 -79s48.833 -28 79.5 -28c25.333 0 47.166 2.5 65.499 7.5s34 11 47 18s24.167 13.833 33.5 20.5l54 -70l-13.5 -13c-8.33301 -8 -20.666 -16.833 -36.999 -26.5s-37 -18.167 -62 -25.5
s-54.5 -11 -88.5 -11c-32.667 0 -62.834 3.83301 -90.501 11.5s-52.834 21.834 -75.501 42.501c-12.667 -9.33301 -28.834 -18.166 -48.501 -26.499s-40.167 -15 -61.5 -20s-42 -7.5 -62 -7.5c-61.333 0 -109.5 13 -144.5 39s-52.5 61.333 -52.5 106
c0 36.667 8.5 66.167 25.5 88.5s39.833 38.5 68.5 48.5s60.667 15 96 15h115c0 13.333 -2 25.666 -6 36.999s-13 20.666 -27 27.999s-36.333 11 -67 11c-10 0 -20.833 -0.5 -32.5 -1.5s-24.834 -2.5 -39.501 -4.5l-8 -48l-107 20zM231.007 183
c-10.667 0 -21.001 -1.66895 -31.001 -5.00195s-18 -9.16602 -24 -17.499s-9 -20.166 -9 -35.499c0 -16 7.33301 -27.667 22 -35s31.334 -11 50.001 -11c14 0 29 1.83301 45 5.5s30.667 8 44 13s23.333 9.5 30 13.5c-3.33301 11.333 -6.5 23 -9.5 35
s-4.83301 24.333 -5.5 37h-112zM660.006 276.998c0 23.333 -7.33203 43 -21.999 59s-39.334 24 -74.001 24c-27.333 0 -50.5 -7 -69.5 -21s-31.833 -34.667 -38.5 -62h204z" />
    <glyph glyph-name="ccedilla" unicode="&#xe7;" horiz-adv-x="507" 
d="M347 369c-10.667 3.33301 -21.002 5.66504 -31.002 6.99805s-19.333 2 -28 2c-39.333 0 -69.166 -13.167 -89.499 -39.5s-30.5 -65.166 -30.5 -116.499c0 -43.333 11 -77.666 33 -102.999s49.333 -38 82 -38c22.667 0 46 4.5 70 13.5s47.667 21.833 71 38.5l51 -75
c-20.667 -16 -41 -29.833 -61 -41.5s-40.5 -20.667 -61.5 -27s-44.5 -9.5 -70.5 -9.5c-50 0 -93.167 9.16699 -129.5 27.5s-64.333 45.5 -84 81.5s-29.5 80.333 -29.5 133c0 55.333 9.33301 101.833 28 139.5s46.334 66 83.001 85s82 28.5 136 28.5
c26 0 52.167 -2.5 78.5 -7.5s51.833 -12.167 76.5 -21.5l28 -137l-107 -23zM311.998 -239.001c-19.333 0 -37 2.50293 -53 7.50293s-30.5 11.167 -43.5 18.5s-24.833 14.666 -35.5 21.999l36 52c14 -8.66699 28.167 -15.834 42.5 -21.501s31.833 -8.5 52.5 -8.5
c14 0 24 3.83301 30 11.5s9 17.167 9 28.5c0 7.33301 -3.33301 14.5 -10 21.5s-19.667 10.5 -39 10.5h-65v97h78v-47c45.333 1.33301 78.833 -4.83398 100.5 -18.501s32.5 -36.834 32.5 -69.501c0 -24 -6.16699 -43.667 -18.5 -59s-28.833 -26.666 -49.5 -33.999
s-43 -11 -67 -11z" />
    <glyph glyph-name="egrave" unicode="&#xe8;" horiz-adv-x="532" 
d="M484 56c-30.667 -26 -62.5039 -45.1689 -95.5039 -57.502s-65.5 -18.5 -97.5 -18.5c-52 0 -97.333 10.5 -136 31.5s-68.5 50 -89.5 87s-31.5 79.167 -31.5 126.5c0 50 10 93.667 30 131s47.667 66.333 83 87s76.333 31 123 31c48.667 0 90.834 -9.66699 126.501 -29
s63.334 -46.166 83.001 -80.499s29.5 -74.833 29.5 -121.5c0 -8.66699 -0.5 -18.667 -1.5 -30s-2.5 -22 -4.5 -32h-348c2.66699 -22.667 10.334 -41.667 23.001 -57s28.834 -26.666 48.501 -33.999s41.167 -11 64.5 -11c28 0 55 4.66699 81 14s49.667 22.333 71 39z
M382.996 264.998c0 31.333 -9.66602 56.833 -28.999 76.5s-46 29.5 -80 29.5c-30.667 0 -57.334 -9.83301 -80.001 -29.5s-34.667 -45.167 -36 -76.5h225zM267.997 517.998l-162 190l84 62l131 -217z" />
    <glyph glyph-name="eacute" unicode="&#xe9;" horiz-adv-x="532" 
d="M484 56c-30.667 -26 -62.5039 -45.1689 -95.5039 -57.502s-65.5 -18.5 -97.5 -18.5c-52 0 -97.333 10.5 -136 31.5s-68.5 50 -89.5 87s-31.5 79.167 -31.5 126.5c0 50 10 93.667 30 131s47.667 66.333 83 87s76.333 31 123 31c48.667 0 90.834 -9.66699 126.501 -29
s63.334 -46.166 83.001 -80.499s29.5 -74.833 29.5 -121.5c0 -8.66699 -0.5 -18.667 -1.5 -30s-2.5 -22 -4.5 -32h-348c2.66699 -22.667 10.334 -41.667 23.001 -57s28.834 -26.666 48.501 -33.999s41.167 -11 64.5 -11c28 0 55 4.66699 81 14s49.667 22.333 71 39z
M382.996 264.998c0 31.333 -9.66602 56.833 -28.999 76.5s-46 29.5 -80 29.5c-30.667 0 -57.334 -9.83301 -80.001 -29.5s-34.667 -45.167 -36 -76.5h225zM357.997 769.998l84 -62l-162 -190l-53 35z" />
    <glyph glyph-name="ecircumflex" unicode="&#xea;" horiz-adv-x="532" 
d="M484 56c-30.667 -26 -62.5039 -45.1689 -95.5039 -57.502s-65.5 -18.5 -97.5 -18.5c-52 0 -97.333 10.5 -136 31.5s-68.5 50 -89.5 87s-31.5 79.167 -31.5 126.5c0 50 10 93.667 30 131s47.667 66.333 83 87s76.333 31 123 31c48.667 0 90.834 -9.66699 126.501 -29
s63.334 -46.166 83.001 -80.499s29.5 -74.833 29.5 -121.5c0 -8.66699 -0.5 -18.667 -1.5 -30s-2.5 -22 -4.5 -32h-348c2.66699 -22.667 10.334 -41.667 23.001 -57s28.834 -26.666 48.501 -33.999s41.167 -11 64.5 -11c28 0 55 4.66699 81 14s49.667 22.333 71 39z
M382.996 264.998c0 31.333 -9.66602 56.833 -28.999 76.5s-46 29.5 -80 29.5c-30.667 0 -57.334 -9.83301 -80.001 -29.5s-34.667 -45.167 -36 -76.5h225zM267.997 690.998l170 -120l-40 -53l-129 79l-139 -79l-35 53z" />
    <glyph glyph-name="edieresis" unicode="&#xeb;" horiz-adv-x="532" 
d="M484 56c-30.667 -26 -62.5039 -45.1689 -95.5039 -57.502s-65.5 -18.5 -97.5 -18.5c-52 0 -97.333 10.5 -136 31.5s-68.5 50 -89.5 87s-31.5 79.167 -31.5 126.5c0 50 10 93.667 30 131s47.667 66.333 83 87s76.333 31 123 31c48.667 0 90.834 -9.66699 126.501 -29
s63.334 -46.166 83.001 -80.499s29.5 -74.833 29.5 -121.5c0 -8.66699 -0.5 -18.667 -1.5 -30s-2.5 -22 -4.5 -32h-348c2.66699 -22.667 10.334 -41.667 23.001 -57s28.834 -26.666 48.501 -33.999s41.167 -11 64.5 -11c28 0 55 4.66699 81 14s49.667 22.333 71 39z
M382.996 264.998c0 31.333 -9.66602 56.833 -28.999 76.5s-46 29.5 -80 29.5c-30.667 0 -57.334 -9.83301 -80.001 -29.5s-34.667 -45.167 -36 -76.5h225zM362.997 671.998c19.333 0 36.166 -7.33301 50.499 -22s21.5 -31.667 21.5 -51c0 -20 -7.16699 -37.167 -21.5 -51.5
s-31.166 -21.5 -50.499 -21.5c-20.667 0 -38.167 7.16699 -52.5 21.5s-21.5 31.5 -21.5 51.5c0 19.333 7.16699 36.333 21.5 51s31.833 22 52.5 22zM166.997 671.998c19.333 0 36.333 -7.33301 51 -22s22 -31.667 22 -51c0 -20 -7.33301 -37.167 -22 -51.5
s-31.667 -21.5 -51 -21.5c-20 0 -37.167 7.16699 -51.5 21.5s-21.5 31.5 -21.5 51.5c0 19.333 7.16699 36.333 21.5 51s31.5 22 51.5 22z" />
    <glyph glyph-name="igrave" unicode="&#xec;" horiz-adv-x="360" 
d="M42 454h210v-353h83v-101h-293v101h83v252h-83v101zM180 518l-162 190l84 62l131 -217z" />
    <glyph glyph-name="iacute" unicode="&#xed;" horiz-adv-x="360" 
d="M42 454h210v-353h83v-101h-293v101h83v252h-83v101zM270 770l84 -62l-162 -190l-53 35z" />
    <glyph glyph-name="icircumflex" unicode="&#xee;" horiz-adv-x="360" 
d="M42 454h210v-353h83v-101h-293v101h83v252h-83v101zM180 691l170 -120l-40 -53l-129 79l-139 -79l-35 53z" />
    <glyph glyph-name="idieresis" unicode="&#xef;" horiz-adv-x="360" 
d="M42 454h210v-353h83v-101h-293v101h83v252h-83v101zM275 672c19.333 0 36.166 -7.33301 50.499 -22s21.5 -31.667 21.5 -51c0 -20 -7.16699 -37.167 -21.5 -51.5s-31.166 -21.5 -50.499 -21.5c-20.667 0 -38.167 7.16699 -52.5 21.5s-21.5 31.5 -21.5 51.5
c0 19.333 7.16699 36.333 21.5 51s31.833 22 52.5 22zM79 672c19.333 0 36.333 -7.33301 51 -22s22 -31.667 22 -51c0 -20 -7.33301 -37.167 -22 -51.5s-31.667 -21.5 -51 -21.5c-20 0 -37.167 7.16699 -51.5 21.5s-21.5 31.5 -21.5 51.5c0 19.333 7.16699 36.333 21.5 51
s31.5 22 51.5 22z" />
    <glyph glyph-name="eth" unicode="&#xf0;" horiz-adv-x="565" 
d="M327 589c40.667 -23.333 75.5039 -51.6699 104.504 -85.0029s51.333 -70.333 67 -111s23.5 -84 23.5 -130c0 -69.333 -10.833 -124.833 -32.5 -166.5s-51 -71.834 -88 -90.501s-78.167 -28 -123.5 -28c-42 0 -81.5 7.83301 -118.5 23.5s-67 41.334 -90 77.001
s-34.5 83.5 -34.5 143.5c0 32.667 6.66699 61.834 20 87.501s31 47.334 53 65.001s46 31.167 72 40.5s51.333 14 76 14c30 0 54.5 -2.33301 73.5 -7s32.833 -10 41.5 -16c-14.667 24 -31.334 45.333 -50.001 64s-38.334 34.667 -59.001 48l-42 -46l-66 59l28 32
c-10.667 5.33301 -22.834 10.833 -36.501 16.5s-27.834 11.167 -42.501 16.5l23 76c24.667 -6.66699 46.5 -13.167 65.5 -19.5s36.833 -13.166 53.5 -20.499l47 52l65 -61zM286.004 341.996c-38.667 0 -68.668 -11.167 -90.001 -33.5s-32 -54.166 -32 -95.499
c0 -44.667 9.66699 -77.834 29 -99.501s48 -32.5 86 -32.5c27.333 0 49.5 7.83301 66.5 23.5s29.667 36.5 38 62.5s12.5 53.667 12.5 83c0 11.333 -0.5 22.833 -1.5 34.5s-2.83301 22.834 -5.5 33.501c-12.667 7.33301 -28.167 13.166 -46.5 17.499s-37.166 6.5 -56.499 6.5
z" />
    <glyph glyph-name="ntilde" unicode="&#xf1;" horiz-adv-x="675" 
d="M46 0l-0.00292969 100.998h85v227l-96 33l33 102l141 -48c26.667 18 53.334 32.333 80.001 43s60.667 16 102 16c44 0 78.667 -8.66699 104 -26s43.5 -40.666 54.5 -69.999s16.5 -61.666 16.5 -96.999v-180h83v-101h-250v101h41v165c0 28 -5.66699 51 -17 69
s-32.666 27 -63.999 27c-20 0 -39.167 -3.5 -57.5 -10.5s-33.166 -14.833 -44.499 -23.5v-227h40v-101h-251zM197.997 541.998l-32.0039 67.001c22.667 17.333 42.834 30.166 60.501 38.499s38.834 12.5 63.501 12.5c18 0 34.167 -3.33301 48.5 -10s28 -13.5 41 -20.5
s26.833 -10.5 41.5 -10.5s27.5 2 38.5 6s25.833 12 44.5 24l28 -67c-18.667 -18 -36.667 -31.167 -54 -39.5s-39.666 -12.833 -66.999 -13.5c-15.333 0 -29.833 3.33301 -43.5 10l-41 20.5c-13.667 7 -28.834 10.5 -45.501 10.5c-13.333 0 -25.666 -2.33301 -36.999 -7
s-26.666 -11.667 -45.999 -21z" />
    <glyph glyph-name="ograve" unicode="&#xf2;" horiz-adv-x="567" 
d="M282 474c52 0 96 -9.83398 132 -29.501s63.333 -48 82 -85s28 -81.5 28 -133.5c0 -77.333 -21 -137.666 -63 -180.999s-101.667 -65 -179 -65c-50.667 0 -93.834 9.66699 -129.501 29s-62.667 47.5 -81 84.5s-27.5 81.167 -27.5 132.5c0 52 9.16699 96.5 27.5 133.5
s45.333 65.333 81 85s78.834 29.5 129.501 29.5zM283 370.999c-38 0 -66.667 -12.333 -86 -37s-29 -60.667 -29 -108s9.66699 -83.333 29 -108s48 -37 86 -37c38.667 0 67.834 12.333 87.501 37s29.5 60.667 29.5 108s-9.83301 83.333 -29.5 108s-48.834 37 -87.501 37z
M285 517.999l-162 190l84 62l131 -217z" />
    <glyph glyph-name="oacute" unicode="&#xf3;" horiz-adv-x="567" 
d="M282 474c52 0 96 -9.83398 132 -29.501s63.333 -48 82 -85s28 -81.5 28 -133.5c0 -77.333 -21 -137.666 -63 -180.999s-101.667 -65 -179 -65c-50.667 0 -93.834 9.66699 -129.501 29s-62.667 47.5 -81 84.5s-27.5 81.167 -27.5 132.5c0 52 9.16699 96.5 27.5 133.5
s45.333 65.333 81 85s78.834 29.5 129.501 29.5zM283 370.999c-38 0 -66.667 -12.333 -86 -37s-29 -60.667 -29 -108s9.66699 -83.333 29 -108s48 -37 86 -37c38.667 0 67.834 12.333 87.501 37s29.5 60.667 29.5 108s-9.83301 83.333 -29.5 108s-48.834 37 -87.501 37z
M375 769.999l84 -62l-162 -190l-53 35z" />
    <glyph glyph-name="ocircumflex" unicode="&#xf4;" horiz-adv-x="567" 
d="M282 474c52 0 96 -9.83398 132 -29.501s63.333 -48 82 -85s28 -81.5 28 -133.5c0 -77.333 -21 -137.666 -63 -180.999s-101.667 -65 -179 -65c-50.667 0 -93.834 9.66699 -129.501 29s-62.667 47.5 -81 84.5s-27.5 81.167 -27.5 132.5c0 52 9.16699 96.5 27.5 133.5
s45.333 65.333 81 85s78.834 29.5 129.501 29.5zM283 370.999c-38 0 -66.667 -12.333 -86 -37s-29 -60.667 -29 -108s9.66699 -83.333 29 -108s48 -37 86 -37c38.667 0 67.834 12.333 87.501 37s29.5 60.667 29.5 108s-9.83301 83.333 -29.5 108s-48.834 37 -87.501 37z
M285 690.999l170 -120l-40 -53l-129 79l-139 -79l-35 53z" />
    <glyph glyph-name="otilde" unicode="&#xf5;" horiz-adv-x="567" 
d="M282 474c52 0 96 -9.83398 132 -29.501s63.333 -48 82 -85s28 -81.5 28 -133.5c0 -77.333 -21 -137.666 -63 -180.999s-101.667 -65 -179 -65c-50.667 0 -93.834 9.66699 -129.501 29s-62.667 47.5 -81 84.5s-27.5 81.167 -27.5 132.5c0 52 9.16699 96.5 27.5 133.5
s45.333 65.333 81 85s78.834 29.5 129.501 29.5zM283 370.999c-38 0 -66.667 -12.333 -86 -37s-29 -60.667 -29 -108s9.66699 -83.333 29 -108s48 -37 86 -37c38.667 0 67.834 12.333 87.501 37s29.5 60.667 29.5 108s-9.83301 83.333 -29.5 108s-48.834 37 -87.501 37z
M138 541.999l-32.0039 67.001c22.667 17.333 42.834 30.166 60.501 38.499s38.834 12.5 63.501 12.5c18 0 34.167 -3.33301 48.5 -10s28 -13.5 41 -20.5s26.833 -10.5 41.5 -10.5s27.5 2 38.5 6s25.833 12 44.5 24l28 -67c-18.667 -18 -36.667 -31.167 -54 -39.5
s-39.666 -12.833 -66.999 -13.5c-15.333 0 -29.833 3.33301 -43.5 10l-41 20.5c-13.667 7 -28.834 10.5 -45.501 10.5c-13.333 0 -25.666 -2.33301 -36.999 -7s-26.666 -11.667 -45.999 -21z" />
    <glyph glyph-name="odieresis" unicode="&#xf6;" horiz-adv-x="567" 
d="M282 474c52 0 96 -9.83398 132 -29.501s63.333 -48 82 -85s28 -81.5 28 -133.5c0 -77.333 -21 -137.666 -63 -180.999s-101.667 -65 -179 -65c-50.667 0 -93.834 9.66699 -129.501 29s-62.667 47.5 -81 84.5s-27.5 81.167 -27.5 132.5c0 52 9.16699 96.5 27.5 133.5
s45.333 65.333 81 85s78.834 29.5 129.501 29.5zM283 370.999c-38 0 -66.667 -12.333 -86 -37s-29 -60.667 -29 -108s9.66699 -83.333 29 -108s48 -37 86 -37c38.667 0 67.834 12.333 87.501 37s29.5 60.667 29.5 108s-9.83301 83.333 -29.5 108s-48.834 37 -87.501 37z
M380 671.999c19.333 0 36.166 -7.33301 50.499 -22s21.5 -31.667 21.5 -51c0 -20 -7.16699 -37.167 -21.5 -51.5s-31.166 -21.5 -50.499 -21.5c-20.667 0 -38.167 7.16699 -52.5 21.5s-21.5 31.5 -21.5 51.5c0 19.333 7.16699 36.333 21.5 51s31.833 22 52.5 22z
M184 671.999c19.333 0 36.333 -7.33301 51 -22s22 -31.667 22 -51c0 -20 -7.33301 -37.167 -22 -51.5s-31.667 -21.5 -51 -21.5c-20 0 -37.167 7.16699 -51.5 21.5s-21.5 31.5 -21.5 51.5c0 19.333 7.16699 36.333 21.5 51s31.5 22 51.5 22z" />
    <glyph glyph-name="divide" unicode="&#xf7;" horiz-adv-x="505" 
d="M252 211c21.333 0 40 -8.16699 56 -24.5s24 -35.166 24 -56.499s-8 -40 -24 -56s-34.667 -24 -56 -24c-22.667 0 -41.834 8 -57.501 24s-23.5 34.667 -23.5 56s7.83301 40.166 23.5 56.499s34.834 24.5 57.501 24.5zM252 559c21.333 0 40 -8 56 -24s24 -34.667 24 -56
c0 -22 -8 -41 -24 -57s-34.667 -24 -56 -24c-22.667 0 -41.834 8 -57.501 24s-23.5 35 -23.5 57c0 21.333 7.83301 40 23.5 56s34.834 24 57.501 24zM455 360v-104h-405v104h405z" />
    <glyph glyph-name="oslash" unicode="&#xf8;" horiz-adv-x="567" 
d="M179 -78h-65l261 596h65zM282 474c52 0 96 -9.83398 132 -29.501s63.333 -48 82 -85s28 -81.5 28 -133.5c0 -77.333 -21 -137.666 -63 -180.999s-101.667 -65 -179 -65c-50.667 0 -93.834 9.66699 -129.501 29s-62.667 47.5 -81 84.5s-27.5 81.167 -27.5 132.5
c0 52 9.16699 96.5 27.5 133.5s45.333 65.333 81 85s78.834 29.5 129.501 29.5zM283 370.999c-38 0 -66.667 -12.333 -86 -37s-29 -60.667 -29 -108s9.66699 -83.333 29 -108s48 -37 86 -37c38.667 0 67.834 12.333 87.501 37s29.5 60.667 29.5 108
s-9.83301 83.333 -29.5 108s-48.834 37 -87.501 37z" />
    <glyph glyph-name="ugrave" unicode="&#xf9;" horiz-adv-x="646" 
d="M454 22c-22.667 -12.667 -47.333 -22.834 -74 -30.501s-51.667 -11.5 -75 -11.5c-70.667 0 -122.334 15.333 -155.001 46s-49 79 -49 145v182h-76v101h203v-266c0 -33.333 6.33301 -57.5 19 -72.5s33.334 -22.5 62.001 -22.5c13.333 0 29.5 2.33301 48.5 7
s36.833 10.334 53.5 17.001v236h-76v101h203v-336l87 -30l-35 -110zM300.001 518l-162 190l84 62l131 -217z" />
    <glyph glyph-name="uacute" unicode="&#xfa;" horiz-adv-x="646" 
d="M454 22c-22.667 -12.667 -47.333 -22.834 -74 -30.501s-51.667 -11.5 -75 -11.5c-70.667 0 -122.334 15.333 -155.001 46s-49 79 -49 145v182h-76v101h203v-266c0 -33.333 6.33301 -57.5 19 -72.5s33.334 -22.5 62.001 -22.5c13.333 0 29.5 2.33301 48.5 7
s36.833 10.334 53.5 17.001v236h-76v101h203v-336l87 -30l-35 -110zM390.001 770l84 -62l-162 -190l-53 35z" />
    <glyph glyph-name="ucircumflex" unicode="&#xfb;" horiz-adv-x="646" 
d="M454 22c-22.667 -12.667 -47.333 -22.834 -74 -30.501s-51.667 -11.5 -75 -11.5c-70.667 0 -122.334 15.333 -155.001 46s-49 79 -49 145v182h-76v101h203v-266c0 -33.333 6.33301 -57.5 19 -72.5s33.334 -22.5 62.001 -22.5c13.333 0 29.5 2.33301 48.5 7
s36.833 10.334 53.5 17.001v236h-76v101h203v-336l87 -30l-35 -110zM300.001 691l170 -120l-40 -53l-129 79l-139 -79l-35 53z" />
    <glyph glyph-name="udieresis" unicode="&#xfc;" horiz-adv-x="646" 
d="M454 22c-22.667 -12.667 -47.333 -22.834 -74 -30.501s-51.667 -11.5 -75 -11.5c-70.667 0 -122.334 15.333 -155.001 46s-49 79 -49 145v182h-76v101h203v-266c0 -33.333 6.33301 -57.5 19 -72.5s33.334 -22.5 62.001 -22.5c13.333 0 29.5 2.33301 48.5 7
s36.833 10.334 53.5 17.001v236h-76v101h203v-336l87 -30l-35 -110zM395.001 672c19.333 0 36.166 -7.33301 50.499 -22s21.5 -31.667 21.5 -51c0 -20 -7.16699 -37.167 -21.5 -51.5s-31.166 -21.5 -50.499 -21.5c-20.667 0 -38.167 7.16699 -52.5 21.5
s-21.5 31.5 -21.5 51.5c0 19.333 7.16699 36.333 21.5 51s31.833 22 52.5 22zM199.001 672c19.333 0 36.333 -7.33301 51 -22s22 -31.667 22 -51c0 -20 -7.33301 -37.167 -22 -51.5s-31.667 -21.5 -51 -21.5c-20 0 -37.167 7.16699 -51.5 21.5s-21.5 31.5 -21.5 51.5
c0 19.333 7.16699 36.333 21.5 51s31.5 22 51.5 22z" />
    <glyph glyph-name="yacute" unicode="&#xfd;" horiz-adv-x="616" 
d="M149 -249c-14.667 0 -29.999 1.83301 -45.999 5.5s-32.667 9.16699 -50 16.5l24 99c13.333 -5.33301 25.166 -9.33301 35.499 -12s21.833 -4 34.5 -4c15.333 0 28.333 4.16699 39 12.5s21.334 22.5 32.001 42.5s23 47 37 81l151 361h-50l6 101h248v-101h-79l-191 -424
c-28.667 -64 -57.834 -109.667 -87.501 -137s-64.167 -41 -103.5 -41zM276.001 -65l-196 418h-74v101h257v-101h-54l127 -306zM405.001 770l84 -62l-162 -190l-53 35z" />
    <glyph glyph-name="thorn" unicode="&#xfe;" horiz-adv-x="562" 
d="M194 445c12.667 7.33301 27.8291 13.002 45.4961 17.002s34.834 6 51.501 6c72.667 0 129.667 -21.333 171 -64s62 -101.334 62 -176.001c0 -50.667 -10 -94.834 -30 -132.501s-48.167 -66.667 -84.5 -87s-79.166 -30.5 -128.499 -30.5
c-15.333 0 -30.166 0.833008 -44.499 2.5s-28.166 4.16699 -41.499 7.5v-112h84v-100h-295v100h84v661l-101 35l37 108l190 -65v-170zM193.995 94.002c11.333 -4.66699 24.667 -8.33398 40 -11.001s30.333 -4 45 -4c37.333 0 65.833 12.833 85.5 38.5
s29.5 61.834 29.5 108.501c0 44 -9.66699 78.167 -29 102.5s-46.666 36.5 -81.999 36.5c-8.66699 0 -18.167 -1.33301 -28.5 -4s-20.833 -6.16699 -31.5 -10.5s-20.334 -9.5 -29.001 -15.5v-241z" />
    <glyph glyph-name="ydieresis" unicode="&#xff;" horiz-adv-x="616" 
d="M149 -249c-14.667 0 -29.999 1.83301 -45.999 5.5s-32.667 9.16699 -50 16.5l24 99c13.333 -5.33301 25.166 -9.33301 35.499 -12s21.833 -4 34.5 -4c15.333 0 28.333 4.16699 39 12.5s21.334 22.5 32.001 42.5s23 47 37 81l151 361h-50l6 101h248v-101h-79l-191 -424
c-28.667 -64 -57.834 -109.667 -87.501 -137s-64.167 -41 -103.5 -41zM276.001 -65l-196 418h-74v101h257v-101h-54l127 -306zM410.001 672c19.333 0 36.166 -7.33301 50.499 -22s21.5 -31.667 21.5 -51c0 -20 -7.16699 -37.167 -21.5 -51.5s-31.166 -21.5 -50.499 -21.5
c-20.667 0 -38.167 7.16699 -52.5 21.5s-21.5 31.5 -21.5 51.5c0 19.333 7.16699 36.333 21.5 51s31.833 22 52.5 22zM214.001 672c19.333 0 36.333 -7.33301 51 -22s22 -31.667 22 -51c0 -20 -7.33301 -37.167 -22 -51.5s-31.667 -21.5 -51 -21.5
c-20 0 -37.167 7.16699 -51.5 21.5s-21.5 31.5 -21.5 51.5c0 19.333 7.16699 36.333 21.5 51s31.5 22 51.5 22z" />
    <glyph glyph-name="Amacron" unicode="&#x100;" horiz-adv-x="690" 
d="M5 0v112h99l146 365h-78v112h240l185 -477h88v-112h-265v112h49l-30 85h-193l-30 -85h55v-112h-266zM276 279h135l-67 191zM162 764h347v-82h-347v82z" />
    <glyph glyph-name="amacron" unicode="&#x101;" horiz-adv-x="560" 
d="M378 17c-48 -24.667 -96.001 -37 -144.001 -37c-64.667 0 -113.667 12.167 -147 36.5s-50 59.833 -50 106.5c0 95.333 63.333 143 190 143h105c0 38.667 -8.16699 67.167 -24.5 85.5s-36.5 27.5 -60.5 27.5c-14.667 0 -28.167 -1 -40.5 -3s-24.5 -5 -36.5 -9l-9 -47
l-105 13l19 112c27.333 9.33301 55.5 16.5 84.5 21.5s59.833 7.5 92.5 7.5c66.667 0 117.834 -17.5 153.501 -52.5s53.5 -86.5 53.5 -154.5v-163l81 -26l-35 -104zM229.999 187c-20.667 0 -36.499 -5.5 -47.499 -16.5s-16.5 -26.167 -16.5 -45.5c0 -35.333 24 -53 72 -53
c33.333 0 64.666 8.66699 93.999 26v89h-102zM79 629h347v-82h-347v82z" />
    <glyph glyph-name="Abreve" unicode="&#x102;" horiz-adv-x="690" 
d="M5 0v112h99l146 365h-78v112h240l185 -477h88v-112h-265v112h49l-30 85h-193l-30 -85h55v-112h-266zM276 279h135l-67 191zM335 661c-108 0 -167.667 49 -179 147l82 10c3.33301 -52.667 35.666 -79 96.999 -79c62.667 0 95.667 26.333 99 79l82 -10
c-11.333 -98 -71.666 -147 -180.999 -147z" />
    <glyph glyph-name="abreve" unicode="&#x103;" horiz-adv-x="560" 
d="M378 17c-48 -24.667 -96.001 -37 -144.001 -37c-64.667 0 -113.667 12.167 -147 36.5s-50 59.833 -50 106.5c0 95.333 63.333 143 190 143h105c0 38.667 -8.16699 67.167 -24.5 85.5s-36.5 27.5 -60.5 27.5c-14.667 0 -28.167 -1 -40.5 -3s-24.5 -5 -36.5 -9l-9 -47
l-105 13l19 112c27.333 9.33301 55.5 16.5 84.5 21.5s59.833 7.5 92.5 7.5c66.667 0 117.834 -17.5 153.501 -52.5s53.5 -86.5 53.5 -154.5v-163l81 -26l-35 -104zM229.999 187c-20.667 0 -36.499 -5.5 -47.499 -16.5s-16.5 -26.167 -16.5 -45.5c0 -35.333 24 -53 72 -53
c33.333 0 64.666 8.66699 93.999 26v89h-102zM252 526c-108 0 -167.667 49 -179 147l82 10c3.33301 -52.667 35.666 -79 96.999 -79c62.667 0 95.667 26.333 99 79l82 -10c-11.333 -98 -71.666 -147 -180.999 -147z" />
    <glyph glyph-name="Aogonek" unicode="&#x104;" horiz-adv-x="690" 
d="M5 0v112h99l146 365h-78v112h240l185 -477h88v-112h-265v112h49l-30 85h-193l-30 -85h55v-112h-266zM276 279h135l-67 191zM537 35l36.002 -35.002c-32.667 -16.667 -55.334 -34.167 -68.001 -52.5s-19 -37.5 -19 -57.5c0 -14.667 5.66699 -26.667 17 -36
s25.666 -14 42.999 -14c14.667 0 31 3.66699 49 11v-76c-17.333 -7.33301 -33.833 -12.333 -49.5 -15s-30.167 -4 -43.5 -4c-44 0 -77 9.16699 -99 27.5s-33 40.833 -33 67.5c0 36.667 13 70.334 39 101.001s68.667 58.334 128 83.001z" />
    <glyph glyph-name="aogonek" unicode="&#x105;" horiz-adv-x="560" 
d="M378 17c-48 -24.667 -96.001 -37 -144.001 -37c-64.667 0 -113.667 12.167 -147 36.5s-50 59.833 -50 106.5c0 95.333 63.333 143 190 143h105c0 38.667 -8.16699 67.167 -24.5 85.5s-36.5 27.5 -60.5 27.5c-14.667 0 -28.167 -1 -40.5 -3s-24.5 -5 -36.5 -9l-9 -47
l-105 13l19 112c27.333 9.33301 55.5 16.5 84.5 21.5s59.833 7.5 92.5 7.5c66.667 0 117.834 -17.5 153.501 -52.5s53.5 -86.5 53.5 -154.5v-163l81 -26l-35 -104zM229.999 187c-20.667 0 -36.499 -5.5 -47.499 -16.5s-16.5 -26.167 -16.5 -45.5c0 -35.333 24 -53 72 -53
c33.333 0 64.666 8.66699 93.999 26v89h-102zM469 9l36.002 -35.002c-32.667 -16.667 -55.334 -34.167 -68.001 -52.5s-19 -37.5 -19 -57.5c0 -14.667 5.66699 -26.667 17 -36s25.666 -14 42.999 -14c14.667 0 31 3.66699 49 11v-76
c-17.333 -7.33301 -33.833 -12.333 -49.5 -15s-30.167 -4 -43.5 -4c-44 0 -77 9.16699 -99 27.5s-33 40.833 -33 67.5c0 36.667 13 70.334 39 101.001s68.667 58.334 128 83.001z" />
    <glyph glyph-name="Cacute" unicode="&#x106;" horiz-adv-x="619" 
d="M446 487c0 0.666992 -5.00098 2.16504 -15.001 4.49805s-22.333 4.83301 -37 7.5s-29.334 4 -44.001 4c-56 0 -99 -17.667 -129 -53s-45 -86.666 -45 -153.999c0 -68 15.333 -120 46 -156s73.334 -54 128.001 -54c16.667 0 32.334 2.16699 47.001 6.5s26.5 8.5 35.5 12.5
l13.5 6l22 90l108 -25l-32 -151l-24.5 -11.5c-16.333 -7.66699 -39.166 -15.5 -68.499 -23.5s-63 -12 -101 -12c-60.667 0 -114.167 11.167 -160.5 33.5s-82.5 57 -108.5 104s-39 107.167 -39 180.5c0 66.667 12.667 123.334 38 170.001s61.166 82.5 107.499 107.5
s100.166 37.5 161.499 37.5c41.333 0 76.833 -4.33301 106.5 -13s52.334 -17.5 68.001 -26.5l23.5 -13.5l30 -150l-109 -24zM502.999 800.998l28 -103l-253 -36l-18 48z" />
    <glyph glyph-name="cacute" unicode="&#x107;" horiz-adv-x="507" 
d="M347 369c-10.667 3.33301 -21.002 5.66504 -31.002 6.99805s-19.333 2 -28 2c-39.333 0 -69.166 -13.167 -89.499 -39.5s-30.5 -65.166 -30.5 -116.499c0 -43.333 11 -77.666 33 -102.999s49.333 -38 82 -38c22.667 0 46 4.5 70 13.5s47.667 21.833 71 38.5l51 -75
c-20.667 -16 -41 -29.833 -61 -41.5s-40.5 -20.667 -61.5 -27s-44.5 -9.5 -70.5 -9.5c-50 0 -93.167 9.16699 -129.5 27.5s-64.333 45.5 -84 81.5s-29.5 80.333 -29.5 133c0 55.333 9.33301 101.833 28 139.5s46.334 66 83.001 85s82 28.5 136 28.5
c26 0 52.167 -2.5 78.5 -7.5s51.833 -12.167 76.5 -21.5l28 -137l-107 -23zM376.998 769.999l84 -62l-162 -190l-53 35z" />
    <glyph glyph-name="Ccircumflex" unicode="&#x108;" horiz-adv-x="619" 
d="M446 487c0 0.666992 -5.00098 2.16504 -15.001 4.49805s-22.333 4.83301 -37 7.5s-29.334 4 -44.001 4c-56 0 -99 -17.667 -129 -53s-45 -86.666 -45 -153.999c0 -68 15.333 -120 46 -156s73.334 -54 128.001 -54c16.667 0 32.334 2.16699 47.001 6.5s26.5 8.5 35.5 12.5
l13.5 6l22 90l108 -25l-32 -151l-24.5 -11.5c-16.333 -7.66699 -39.166 -15.5 -68.499 -23.5s-63 -12 -101 -12c-60.667 0 -114.167 11.167 -160.5 33.5s-82.5 57 -108.5 104s-39 107.167 -39 180.5c0 66.667 12.667 123.334 38 170.001s61.166 82.5 107.499 107.5
s100.166 37.5 161.499 37.5c41.333 0 76.833 -4.33301 106.5 -13s52.334 -17.5 68.001 -26.5l23.5 -13.5l30 -150l-109 -24zM344.999 799.998l184 -106l-36 -47l-147 60l-152 -60l-32 47z" />
    <glyph glyph-name="ccircumflex" unicode="&#x109;" horiz-adv-x="507" 
d="M347 369c-10.667 3.33301 -21.002 5.66504 -31.002 6.99805s-19.333 2 -28 2c-39.333 0 -69.166 -13.167 -89.499 -39.5s-30.5 -65.166 -30.5 -116.499c0 -43.333 11 -77.666 33 -102.999s49.333 -38 82 -38c22.667 0 46 4.5 70 13.5s47.667 21.833 71 38.5l51 -75
c-20.667 -16 -41 -29.833 -61 -41.5s-40.5 -20.667 -61.5 -27s-44.5 -9.5 -70.5 -9.5c-50 0 -93.167 9.16699 -129.5 27.5s-64.333 45.5 -84 81.5s-29.5 80.333 -29.5 133c0 55.333 9.33301 101.833 28 139.5s46.334 66 83.001 85s82 28.5 136 28.5
c26 0 52.167 -2.5 78.5 -7.5s51.833 -12.167 76.5 -21.5l28 -137l-107 -23zM286.998 690.999l170 -120l-40 -53l-129 79l-139 -79l-35 53z" />
    <glyph glyph-name="Cdotaccent" unicode="&#x10a;" horiz-adv-x="619" 
d="M446 487c0 0.666992 -5.00098 2.16504 -15.001 4.49805s-22.333 4.83301 -37 7.5s-29.334 4 -44.001 4c-56 0 -99 -17.667 -129 -53s-45 -86.666 -45 -153.999c0 -68 15.333 -120 46 -156s73.334 -54 128.001 -54c16.667 0 32.334 2.16699 47.001 6.5s26.5 8.5 35.5 12.5
l13.5 6l22 90l108 -25l-32 -151l-24.5 -11.5c-16.333 -7.66699 -39.166 -15.5 -68.499 -23.5s-63 -12 -101 -12c-60.667 0 -114.167 11.167 -160.5 33.5s-82.5 57 -108.5 104s-39 107.167 -39 180.5c0 66.667 12.667 123.334 38 170.001s61.166 82.5 107.499 107.5
s100.166 37.5 161.499 37.5c41.333 0 76.833 -4.33301 106.5 -13s52.334 -17.5 68.001 -26.5l23.5 -13.5l30 -150l-109 -24zM344.999 806.998c21.333 0 38.666 -6.66699 51.999 -20s20 -30.666 20 -51.999s-6.66699 -38.5 -20 -51.5s-30.666 -19.5 -51.999 -19.5
s-38.5 6.5 -51.5 19.5s-19.5 30.167 -19.5 51.5s6.5 38.666 19.5 51.999s30.167 20 51.5 20z" />
    <glyph glyph-name="cdotaccent" unicode="&#x10b;" horiz-adv-x="507" 
d="M347 369c-10.667 3.33301 -21.002 5.66504 -31.002 6.99805s-19.333 2 -28 2c-39.333 0 -69.166 -13.167 -89.499 -39.5s-30.5 -65.166 -30.5 -116.499c0 -43.333 11 -77.666 33 -102.999s49.333 -38 82 -38c22.667 0 46 4.5 70 13.5s47.667 21.833 71 38.5l51 -75
c-20.667 -16 -41 -29.833 -61 -41.5s-40.5 -20.667 -61.5 -27s-44.5 -9.5 -70.5 -9.5c-50 0 -93.167 9.16699 -129.5 27.5s-64.333 45.5 -84 81.5s-29.5 80.333 -29.5 133c0 55.333 9.33301 101.833 28 139.5s46.334 66 83.001 85s82 28.5 136 28.5
c26 0 52.167 -2.5 78.5 -7.5s51.833 -12.167 76.5 -21.5l28 -137l-107 -23zM284.998 671.999c21.333 0 38.666 -6.66699 51.999 -20s20 -30.666 20 -51.999s-6.66699 -38.5 -20 -51.5s-30.666 -19.5 -51.999 -19.5s-38.5 6.5 -51.5 19.5s-19.5 30.167 -19.5 51.5
s6.5 38.666 19.5 51.999s30.167 20 51.5 20z" />
    <glyph glyph-name="Ccaron" unicode="&#x10c;" horiz-adv-x="619" 
d="M446 487c0 0.666992 -5.00098 2.16504 -15.001 4.49805s-22.333 4.83301 -37 7.5s-29.334 4 -44.001 4c-56 0 -99 -17.667 -129 -53s-45 -86.666 -45 -153.999c0 -68 15.333 -120 46 -156s73.334 -54 128.001 -54c16.667 0 32.334 2.16699 47.001 6.5s26.5 8.5 35.5 12.5
l13.5 6l22 90l108 -25l-32 -151l-24.5 -11.5c-16.333 -7.66699 -39.166 -15.5 -68.499 -23.5s-63 -12 -101 -12c-60.667 0 -114.167 11.167 -160.5 33.5s-82.5 57 -108.5 104s-39 107.167 -39 180.5c0 66.667 12.667 123.334 38 170.001s61.166 82.5 107.499 107.5
s100.166 37.5 161.499 37.5c41.333 0 76.833 -4.33301 106.5 -13s52.334 -17.5 68.001 -26.5l23.5 -13.5l30 -150l-109 -24zM345.999 643.998l-173 120l35 53l139 -79l129 79l40 -53z" />
    <glyph glyph-name="ccaron" unicode="&#x10d;" horiz-adv-x="507" 
d="M347 369c-10.667 3.33301 -21.002 5.66504 -31.002 6.99805s-19.333 2 -28 2c-39.333 0 -69.166 -13.167 -89.499 -39.5s-30.5 -65.166 -30.5 -116.499c0 -43.333 11 -77.666 33 -102.999s49.333 -38 82 -38c22.667 0 46 4.5 70 13.5s47.667 21.833 71 38.5l51 -75
c-20.667 -16 -41 -29.833 -61 -41.5s-40.5 -20.667 -61.5 -27s-44.5 -9.5 -70.5 -9.5c-50 0 -93.167 9.16699 -129.5 27.5s-64.333 45.5 -84 81.5s-29.5 80.333 -29.5 133c0 55.333 9.33301 101.833 28 139.5s46.334 66 83.001 85s82 28.5 136 28.5
c26 0 52.167 -2.5 78.5 -7.5s51.833 -12.167 76.5 -21.5l28 -137l-107 -23zM285.998 508.999l-173 120l35 53l139 -79l129 79l40 -53z" />
    <glyph glyph-name="Dcaron" unicode="&#x10e;" horiz-adv-x="677" 
d="M319 589c100 0 178 -27 234 -81s84 -129 84 -225c0 -88.667 -27.333 -158 -82 -208s-130.667 -75 -228 -75h-284v112h81v365h-81v112h276zM309 112c63.333 0 111.5 14.333 144.5 43s49.5 71 49.5 127c0 64 -15.5 112.5 -46.5 145.5s-76.833 49.5 -137.5 49.5h-66v-365h56
zM304 635l-183 106l32 47l152 -60l147 60l36 -47z" />
    <glyph glyph-name="dcaron" unicode="&#x10f;" horiz-adv-x="597" 
d="M542 -26l-126 43c-37.333 -24.667 -82 -37 -134 -37c-76.667 0 -136.334 21.833 -179.001 65.5s-64 104.834 -64 183.501c0 77.333 21.333 137.5 64 180.5s102.334 64.5 179.001 64.5c12.667 0 26.5 -1.33301 41.5 -4s29.833 -6.33398 44.5 -11.001v78l-100 35l36 108
l191 -65v-504l82 -28zM283 81c13.333 0 27.835 1.83301 43.502 5.5s29.5 8.83398 41.5 15.501v251c-10.667 5.33301 -23.834 9.66602 -39.501 12.999s-30.834 5 -45.501 5c-34.667 0 -62.5 -13 -83.5 -39s-31.5 -60.333 -31.5 -103c0 -44.667 10.5 -80.5 31.5 -107.5
s48.833 -40.5 83.5 -40.5zM424.002 690l-173 120l35 53l139 -79l129 79l40 -53z" />
    <glyph glyph-name="Dcroat" unicode="&#x110;" horiz-adv-x="695" 
d="M335 589c65.333 0 121.668 -10.001 169.001 -30.001s84 -52.333 110 -97s39 -104.334 39 -179.001c0 -71.333 -13.333 -127.666 -40 -168.999s-63.334 -70.666 -110.001 -87.999s-100 -26 -160 -26h-284v112h81v137h-81v111h81v117h-81v112h276zM325.002 111.999
c44.667 0 81.332 4.33203 109.999 12.999s49.834 25.334 63.501 50.001s20.5 60.334 20.5 107.001c0 49.333 -6.66699 88.166 -20 116.499s-33.5 48.5 -60.5 60.5s-61.5 18 -103.5 18h-66v-117h90v-111h-90v-137h56z" />
    <glyph glyph-name="dcroat" unicode="&#x111;" horiz-adv-x="597" 
d="M542 -26l-126 43c-37.333 -24.667 -82 -37 -134 -37c-76.667 0 -136.334 20.167 -179.001 60.5s-64 96.5 -64 168.5c0 70.667 21.333 125.834 64 165.501s102.334 59.5 179.001 59.5c12.667 0 26.5 -1.33301 41.5 -4s29.833 -6.33398 44.5 -11.001v118l-100 35l36 108
l191 -65v-504l82 -28zM283 81c13.333 0 27.835 1.83301 43.502 5.5s29.5 8.83398 41.5 15.501v211c-10.667 5.33301 -23.834 9.66602 -39.501 12.999s-30.834 5 -45.501 5c-34.667 0 -62.5 -11.167 -83.5 -33.5s-31.5 -51.833 -31.5 -88.5c0 -38.667 10.5 -69.667 31.5 -93
s48.833 -35 83.5 -35zM241.002 522h335v-61h-335v61z" />
    <glyph glyph-name="Emacron" unicode="&#x112;" horiz-adv-x="617" 
d="M44 589h457l62 -185l-106 -36l-37 109h-166v-123h163v-111h-163v-131h193l35 98l105 -37l-60 -173h-484v112h81l1 365h-81v112zM127 764h347v-82h-347v82z" />
    <glyph glyph-name="emacron" unicode="&#x113;" horiz-adv-x="532" 
d="M484 56c-30.667 -26 -62.5039 -45.1689 -95.5039 -57.502s-65.5 -18.5 -97.5 -18.5c-52 0 -97.333 10.5 -136 31.5s-68.5 50 -89.5 87s-31.5 79.167 -31.5 126.5c0 50 10 93.667 30 131s47.667 66.333 83 87s76.333 31 123 31c48.667 0 90.834 -9.66699 126.501 -29
s63.334 -46.166 83.001 -80.499s29.5 -74.833 29.5 -121.5c0 -8.66699 -0.5 -18.667 -1.5 -30s-2.5 -22 -4.5 -32h-348c2.66699 -22.667 10.334 -41.667 23.001 -57s28.834 -26.666 48.501 -33.999s41.167 -11 64.5 -11c28 0 55 4.66699 81 14s49.667 22.333 71 39z
M382.996 264.998c0 31.333 -9.66602 56.833 -28.999 76.5s-46 29.5 -80 29.5c-30.667 0 -57.334 -9.83301 -80.001 -29.5s-34.667 -45.167 -36 -76.5h225zM92.9971 628.998h347v-82h-347v82z" />
    <glyph glyph-name="Ebreve" unicode="&#x114;" horiz-adv-x="617" 
d="M44 589h457l62 -185l-106 -36l-37 109h-166v-123h163v-111h-163v-131h193l35 98l105 -37l-60 -173h-484v112h81l1 365h-81v112zM300 661c-108 0 -167.667 49 -179 147l82 10c3.33301 -52.667 35.666 -79 96.999 -79c62.667 0 95.667 26.333 99 79l82 -10
c-11.333 -98 -71.666 -147 -180.999 -147z" />
    <glyph glyph-name="ebreve" unicode="&#x115;" horiz-adv-x="532" 
d="M484 56c-30.667 -26 -62.5039 -45.1689 -95.5039 -57.502s-65.5 -18.5 -97.5 -18.5c-52 0 -97.333 10.5 -136 31.5s-68.5 50 -89.5 87s-31.5 79.167 -31.5 126.5c0 50 10 93.667 30 131s47.667 66.333 83 87s76.333 31 123 31c48.667 0 90.834 -9.66699 126.501 -29
s63.334 -46.166 83.001 -80.499s29.5 -74.833 29.5 -121.5c0 -8.66699 -0.5 -18.667 -1.5 -30s-2.5 -22 -4.5 -32h-348c2.66699 -22.667 10.334 -41.667 23.001 -57s28.834 -26.666 48.501 -33.999s41.167 -11 64.5 -11c28 0 55 4.66699 81 14s49.667 22.333 71 39z
M382.996 264.998c0 31.333 -9.66602 56.833 -28.999 76.5s-46 29.5 -80 29.5c-30.667 0 -57.334 -9.83301 -80.001 -29.5s-34.667 -45.167 -36 -76.5h225zM265.997 525.998c-108 0 -167.667 49 -179 147l82 10c3.33301 -52.667 35.666 -79 96.999 -79
c62.667 0 95.667 26.333 99 79l82 -10c-11.333 -98 -71.666 -147 -180.999 -147z" />
    <glyph glyph-name="Edotaccent" unicode="&#x116;" horiz-adv-x="617" 
d="M44 589h457l62 -185l-106 -36l-37 109h-166v-123h163v-111h-163v-131h193l35 98l105 -37l-60 -173h-484v112h81l1 365h-81v112zM300 807c21.333 0 38.666 -6.66699 51.999 -20s20 -30.666 20 -51.999s-6.66699 -38.5 -20 -51.5s-30.666 -19.5 -51.999 -19.5
s-38.5 6.5 -51.5 19.5s-19.5 30.167 -19.5 51.5s6.5 38.666 19.5 51.999s30.167 20 51.5 20z" />
    <glyph glyph-name="edotaccent" unicode="&#x117;" horiz-adv-x="532" 
d="M484 56c-30.667 -26 -62.5039 -45.1689 -95.5039 -57.502s-65.5 -18.5 -97.5 -18.5c-52 0 -97.333 10.5 -136 31.5s-68.5 50 -89.5 87s-31.5 79.167 -31.5 126.5c0 50 10 93.667 30 131s47.667 66.333 83 87s76.333 31 123 31c48.667 0 90.834 -9.66699 126.501 -29
s63.334 -46.166 83.001 -80.499s29.5 -74.833 29.5 -121.5c0 -8.66699 -0.5 -18.667 -1.5 -30s-2.5 -22 -4.5 -32h-348c2.66699 -22.667 10.334 -41.667 23.001 -57s28.834 -26.666 48.501 -33.999s41.167 -11 64.5 -11c28 0 55 4.66699 81 14s49.667 22.333 71 39z
M382.996 264.998c0 31.333 -9.66602 56.833 -28.999 76.5s-46 29.5 -80 29.5c-30.667 0 -57.334 -9.83301 -80.001 -29.5s-34.667 -45.167 -36 -76.5h225zM265.997 671.998c21.333 0 38.666 -6.66699 51.999 -20s20 -30.666 20 -51.999s-6.66699 -38.5 -20 -51.5
s-30.666 -19.5 -51.999 -19.5s-38.5 6.5 -51.5 19.5s-19.5 30.167 -19.5 51.5s6.5 38.666 19.5 51.999s30.167 20 51.5 20z" />
    <glyph glyph-name="Eogonek" unicode="&#x118;" horiz-adv-x="617" 
d="M44 589h457l62 -185l-106 -36l-37 109h-166v-123h163v-111h-163v-131h193l35 98l105 -37l-60 -173h-484v112h81l1 365h-81v112zM491 35l36.002 -35.002c-32.667 -16.667 -55.334 -34.167 -68.001 -52.5s-19 -37.5 -19 -57.5c0 -14.667 5.66699 -26.667 17 -36
s25.666 -14 42.999 -14c14.667 0 31 3.66699 49 11v-76c-17.333 -7.33301 -33.833 -12.333 -49.5 -15s-30.167 -4 -43.5 -4c-44 0 -77 9.16699 -99 27.5s-33 40.833 -33 67.5c0 36.667 13 70.334 39 101.001s68.667 58.334 128 83.001z" />
    <glyph glyph-name="eogonek" unicode="&#x119;" horiz-adv-x="532" 
d="M484 56c-30.667 -26 -62.5039 -45.1689 -95.5039 -57.502s-65.5 -18.5 -97.5 -18.5c-52 0 -97.333 10.5 -136 31.5s-68.5 50 -89.5 87s-31.5 79.167 -31.5 126.5c0 50 10 93.667 30 131s47.667 66.333 83 87s76.333 31 123 31c48.667 0 90.834 -9.66699 126.501 -29
s63.334 -46.166 83.001 -80.499s29.5 -74.833 29.5 -121.5c0 -8.66699 -0.5 -18.667 -1.5 -30s-2.5 -22 -4.5 -32h-348c2.66699 -22.667 10.334 -41.667 23.001 -57s28.834 -26.666 48.501 -33.999s41.167 -11 64.5 -11c28 0 55 4.66699 81 14s49.667 22.333 71 39z
M382.996 264.998c0 31.333 -9.66602 56.833 -28.999 76.5s-46 29.5 -80 29.5c-30.667 0 -57.334 -9.83301 -80.001 -29.5s-34.667 -45.167 -36 -76.5h225zM402.997 58.998l36.002 -35.002c-32.667 -16.667 -55.334 -34.167 -68.001 -52.5s-19 -37.5 -19 -57.5
c0 -14.667 5.66699 -26.667 17 -36s25.666 -14 42.999 -14c14.667 0 31 3.66699 49 11v-76c-17.333 -7.33301 -33.833 -12.333 -49.5 -15s-30.167 -4 -43.5 -4c-44 0 -77 9.16699 -99 27.5s-33 40.833 -33 67.5c0 36.667 13 70.334 39 101.001s68.667 58.334 128 83.001z
" />
    <glyph glyph-name="Ecaron" unicode="&#x11a;" horiz-adv-x="617" 
d="M44 589h457l62 -185l-106 -36l-37 109h-166v-123h163v-111h-163v-131h193l35 98l105 -37l-60 -173h-484v112h81l1 365h-81v112zM301 644l-173 120l35 53l139 -79l129 79l40 -53z" />
    <glyph glyph-name="ecaron" unicode="&#x11b;" horiz-adv-x="532" 
d="M484 56c-30.667 -26 -62.5039 -45.1689 -95.5039 -57.502s-65.5 -18.5 -97.5 -18.5c-52 0 -97.333 10.5 -136 31.5s-68.5 50 -89.5 87s-31.5 79.167 -31.5 126.5c0 50 10 93.667 30 131s47.667 66.333 83 87s76.333 31 123 31c48.667 0 90.834 -9.66699 126.501 -29
s63.334 -46.166 83.001 -80.499s29.5 -74.833 29.5 -121.5c0 -8.66699 -0.5 -18.667 -1.5 -30s-2.5 -22 -4.5 -32h-348c2.66699 -22.667 10.334 -41.667 23.001 -57s28.834 -26.666 48.501 -33.999s41.167 -11 64.5 -11c28 0 55 4.66699 81 14s49.667 22.333 71 39z
M382.996 264.998c0 31.333 -9.66602 56.833 -28.999 76.5s-46 29.5 -80 29.5c-30.667 0 -57.334 -9.83301 -80.001 -29.5s-34.667 -45.167 -36 -76.5h225zM266.997 508.998l-173 120l35 53l139 -79l129 79l40 -53z" />
    <glyph glyph-name="Gcircumflex" unicode="&#x11c;" horiz-adv-x="638" 
d="M577 60c-20.667 -14.667 -41.835 -28.3291 -63.502 -40.9961s-45.667 -22.667 -72 -30s-57.166 -11 -92.499 -11c-60.667 0 -114.167 13.167 -160.5 39.5s-82.5 63.166 -108.5 110.499s-39 102.666 -39 165.999s12.333 118.666 37 165.999s60.167 84.166 106.5 110.499
s101.833 39.5 166.5 39.5c41.333 0 79 -5.5 113 -16.5s63.333 -25.5 88 -43.5l33 -144l-105 -27l-24 104c-16.667 8.66699 -33.5 14.5 -50.5 17.5s-34.167 4.5 -51.5 4.5c-31.333 0 -60.666 -8.66699 -87.999 -26s-49.333 -41.833 -66 -73.5s-25 -68.834 -25 -111.501
c0 -40.667 7.16699 -76.5 21.5 -107.5s34.5 -55 60.5 -72s56 -25.5 90 -25.5c20.667 0 39.5 2.33301 56.5 7s33.833 10.334 50.5 17.001v95h-128v100h251v-248zM351.999 800.005l184 -106l-36 -47l-147 60l-152 -60l-32 47z" />
    <glyph glyph-name="gcircumflex" unicode="&#x11d;" horiz-adv-x="588" 
d="M252 114c-69.333 0 -123.5 14.5 -162.5 43.5s-58.5 70.833 -58.5 125.5c0 59.333 20.333 106 61 140s94.334 51 161.001 51c25.333 0 47.666 -1.83301 66.999 -5.5s38.333 -10.5 57 -20.5l154 53l39 -112l-123 -16c11.333 -12 19 -26 23 -42s6 -30 6 -42
c0 -43.333 -10.5 -77.833 -31.5 -103.5s-48.5 -44 -82.5 -55s-70.667 -16.5 -110 -16.5zM260 -248c-42 0 -78.333 3.16797 -109 9.50098s-56.334 13.666 -77.001 21.999s-37 15.5 -49 21.5l45 100c34 -14 65.5 -24.833 94.5 -32.5s60.833 -11.5 95.5 -11.5
c30.667 0 54.334 2.66699 71.001 8s28.167 12 34.5 20s9.5 15.667 9.5 23c0 11.333 -4.16699 21.166 -12.5 29.499s-28.5 12.5 -60.5 12.5h-163v194l96 -18v-70h78c61.333 0 107.333 -13.167 138 -39.5s46 -62.833 46 -109.5c0 -38.667 -11.167 -69.667 -33.5 -93
s-51.5 -40.166 -87.5 -50.499s-74.667 -15.5 -116 -15.5zM254 206.001c33.333 0 59.166 7.83301 77.499 23.5s27.5 36.167 27.5 61.5c0 29.333 -9.16699 51.5 -27.5 66.5s-44.166 22.5 -77.499 22.5c-32.667 0 -58.334 -7.5 -77.001 -22.5s-28 -37.167 -28 -66.5
c0 -25.333 9.33301 -45.833 28 -61.5s44.334 -23.5 77.001 -23.5zM254 691.001l170 -120l-40 -53l-129 79l-139 -79l-35 53z" />
    <glyph glyph-name="Gbreve" unicode="&#x11e;" horiz-adv-x="638" 
d="M577 60c-20.667 -14.667 -41.835 -28.3291 -63.502 -40.9961s-45.667 -22.667 -72 -30s-57.166 -11 -92.499 -11c-60.667 0 -114.167 13.167 -160.5 39.5s-82.5 63.166 -108.5 110.499s-39 102.666 -39 165.999s12.333 118.666 37 165.999s60.167 84.166 106.5 110.499
s101.833 39.5 166.5 39.5c41.333 0 79 -5.5 113 -16.5s63.333 -25.5 88 -43.5l33 -144l-105 -27l-24 104c-16.667 8.66699 -33.5 14.5 -50.5 17.5s-34.167 4.5 -51.5 4.5c-31.333 0 -60.666 -8.66699 -87.999 -26s-49.333 -41.833 -66 -73.5s-25 -68.834 -25 -111.501
c0 -40.667 7.16699 -76.5 21.5 -107.5s34.5 -55 60.5 -72s56 -25.5 90 -25.5c20.667 0 39.5 2.33301 56.5 7s33.833 10.334 50.5 17.001v95h-128v100h251v-248zM351.999 661.005c-108 0 -167.667 49 -179 147l82 10c3.33301 -52.667 35.666 -79 96.999 -79
c62.667 0 95.667 26.333 99 79l82 -10c-11.333 -98 -71.666 -147 -180.999 -147z" />
    <glyph glyph-name="gbreve" unicode="&#x11f;" horiz-adv-x="588" 
d="M252 114c-69.333 0 -123.5 14.5 -162.5 43.5s-58.5 70.833 -58.5 125.5c0 59.333 20.333 106 61 140s94.334 51 161.001 51c25.333 0 47.666 -1.83301 66.999 -5.5s38.333 -10.5 57 -20.5l154 53l39 -112l-123 -16c11.333 -12 19 -26 23 -42s6 -30 6 -42
c0 -43.333 -10.5 -77.833 -31.5 -103.5s-48.5 -44 -82.5 -55s-70.667 -16.5 -110 -16.5zM260 -248c-42 0 -78.333 3.16797 -109 9.50098s-56.334 13.666 -77.001 21.999s-37 15.5 -49 21.5l45 100c34 -14 65.5 -24.833 94.5 -32.5s60.833 -11.5 95.5 -11.5
c30.667 0 54.334 2.66699 71.001 8s28.167 12 34.5 20s9.5 15.667 9.5 23c0 11.333 -4.16699 21.166 -12.5 29.499s-28.5 12.5 -60.5 12.5h-163v194l96 -18v-70h78c61.333 0 107.333 -13.167 138 -39.5s46 -62.833 46 -109.5c0 -38.667 -11.167 -69.667 -33.5 -93
s-51.5 -40.166 -87.5 -50.499s-74.667 -15.5 -116 -15.5zM254 206.001c33.333 0 59.166 7.83301 77.499 23.5s27.5 36.167 27.5 61.5c0 29.333 -9.16699 51.5 -27.5 66.5s-44.166 22.5 -77.499 22.5c-32.667 0 -58.334 -7.5 -77.001 -22.5s-28 -37.167 -28 -66.5
c0 -25.333 9.33301 -45.833 28 -61.5s44.334 -23.5 77.001 -23.5zM252 526.001c-108 0 -167.667 49 -179 147l82 10c3.33301 -52.667 35.666 -79 96.999 -79c62.667 0 95.667 26.333 99 79l82 -10c-11.333 -98 -71.666 -147 -180.999 -147z" />
    <glyph glyph-name="Gdotaccent" unicode="&#x120;" horiz-adv-x="638" 
d="M577 60c-20.667 -14.667 -41.835 -28.3291 -63.502 -40.9961s-45.667 -22.667 -72 -30s-57.166 -11 -92.499 -11c-60.667 0 -114.167 13.167 -160.5 39.5s-82.5 63.166 -108.5 110.499s-39 102.666 -39 165.999s12.333 118.666 37 165.999s60.167 84.166 106.5 110.499
s101.833 39.5 166.5 39.5c41.333 0 79 -5.5 113 -16.5s63.333 -25.5 88 -43.5l33 -144l-105 -27l-24 104c-16.667 8.66699 -33.5 14.5 -50.5 17.5s-34.167 4.5 -51.5 4.5c-31.333 0 -60.666 -8.66699 -87.999 -26s-49.333 -41.833 -66 -73.5s-25 -68.834 -25 -111.501
c0 -40.667 7.16699 -76.5 21.5 -107.5s34.5 -55 60.5 -72s56 -25.5 90 -25.5c20.667 0 39.5 2.33301 56.5 7s33.833 10.334 50.5 17.001v95h-128v100h251v-248zM351.999 807.005c21.333 0 38.666 -6.66699 51.999 -20s20 -30.666 20 -51.999s-6.66699 -38.5 -20 -51.5
s-30.666 -19.5 -51.999 -19.5s-38.5 6.5 -51.5 19.5s-19.5 30.167 -19.5 51.5s6.5 38.666 19.5 51.999s30.167 20 51.5 20z" />
    <glyph glyph-name="gdotaccent" unicode="&#x121;" horiz-adv-x="588" 
d="M252 114c-69.333 0 -123.5 14.5 -162.5 43.5s-58.5 70.833 -58.5 125.5c0 59.333 20.333 106 61 140s94.334 51 161.001 51c25.333 0 47.666 -1.83301 66.999 -5.5s38.333 -10.5 57 -20.5l154 53l39 -112l-123 -16c11.333 -12 19 -26 23 -42s6 -30 6 -42
c0 -43.333 -10.5 -77.833 -31.5 -103.5s-48.5 -44 -82.5 -55s-70.667 -16.5 -110 -16.5zM260 -248c-42 0 -78.333 3.16797 -109 9.50098s-56.334 13.666 -77.001 21.999s-37 15.5 -49 21.5l45 100c34 -14 65.5 -24.833 94.5 -32.5s60.833 -11.5 95.5 -11.5
c30.667 0 54.334 2.66699 71.001 8s28.167 12 34.5 20s9.5 15.667 9.5 23c0 11.333 -4.16699 21.166 -12.5 29.499s-28.5 12.5 -60.5 12.5h-163v194l96 -18v-70h78c61.333 0 107.333 -13.167 138 -39.5s46 -62.833 46 -109.5c0 -38.667 -11.167 -69.667 -33.5 -93
s-51.5 -40.166 -87.5 -50.499s-74.667 -15.5 -116 -15.5zM254 206.001c33.333 0 59.166 7.83301 77.499 23.5s27.5 36.167 27.5 61.5c0 29.333 -9.16699 51.5 -27.5 66.5s-44.166 22.5 -77.499 22.5c-32.667 0 -58.334 -7.5 -77.001 -22.5s-28 -37.167 -28 -66.5
c0 -25.333 9.33301 -45.833 28 -61.5s44.334 -23.5 77.001 -23.5zM252 672.001c21.333 0 38.666 -6.66699 51.999 -20s20 -30.666 20 -51.999s-6.66699 -38.5 -20 -51.5s-30.666 -19.5 -51.999 -19.5s-38.5 6.5 -51.5 19.5s-19.5 30.167 -19.5 51.5s6.5 38.666 19.5 51.999
s30.167 20 51.5 20z" />
    <glyph glyph-name="uni0122" unicode="&#x122;" horiz-adv-x="638" 
d="M577 60c-20.667 -14.667 -41.835 -28.3291 -63.502 -40.9961s-45.667 -22.667 -72 -30s-57.166 -11 -92.499 -11c-60.667 0 -114.167 13.167 -160.5 39.5s-82.5 63.166 -108.5 110.499s-39 102.666 -39 165.999s12.333 118.666 37 165.999s60.167 84.166 106.5 110.499
s101.833 39.5 166.5 39.5c41.333 0 79 -5.5 113 -16.5s63.333 -25.5 88 -43.5l33 -144l-105 -27l-24 104c-16.667 8.66699 -33.5 14.5 -50.5 17.5s-34.167 4.5 -51.5 4.5c-31.333 0 -60.666 -8.66699 -87.999 -26s-49.333 -41.833 -66 -73.5s-25 -68.834 -25 -111.501
c0 -40.667 7.16699 -76.5 21.5 -107.5s34.5 -55 60.5 -72s56 -25.5 90 -25.5c20.667 0 39.5 2.33301 56.5 7s33.833 10.334 50.5 17.001v95h-128v100h251v-248zM317.999 -342.995l-38 42.998l9 12c6 8 12.833 17.833 20.5 29.5s14.167 23.167 19.5 34.5
c-22.667 5.33301 -38.667 15.333 -48 30s-14 30 -14 46c0 24.667 8 44.5 24 59.5s36.333 22.5 61 22.5c22 0 41.833 -8.66699 59.5 -26s26.5 -37.666 26.5 -60.999c0 -22.667 -4.83301 -44.167 -14.5 -64.5s-21.5 -38.666 -35.5 -54.999s-27.5 -30.5 -40.5 -42.5
s-22.833 -21.333 -29.5 -28z" />
    <glyph glyph-name="uni0123" unicode="&#x123;" horiz-adv-x="588" 
d="M252 114c-69.333 0 -123.5 14.5 -162.5 43.5s-58.5 70.833 -58.5 125.5c0 59.333 20.333 106 61 140s94.334 51 161.001 51c25.333 0 47.666 -1.83301 66.999 -5.5s38.333 -10.5 57 -20.5l154 53l39 -112l-123 -16c11.333 -12 19 -26 23 -42s6 -30 6 -42
c0 -43.333 -10.5 -77.833 -31.5 -103.5s-48.5 -44 -82.5 -55s-70.667 -16.5 -110 -16.5zM260 -248c-42 0 -78.333 3.16797 -109 9.50098s-56.334 13.666 -77.001 21.999s-37 15.5 -49 21.5l45 100c34 -14 65.5 -24.833 94.5 -32.5s60.833 -11.5 95.5 -11.5
c30.667 0 54.334 2.66699 71.001 8s28.167 12 34.5 20s9.5 15.667 9.5 23c0 11.333 -4.16699 21.166 -12.5 29.499s-28.5 12.5 -60.5 12.5h-163v194l96 -18v-70h78c61.333 0 107.333 -13.167 138 -39.5s46 -62.833 46 -109.5c0 -38.667 -11.167 -69.667 -33.5 -93
s-51.5 -40.166 -87.5 -50.499s-74.667 -15.5 -116 -15.5zM254 206.001c33.333 0 59.166 7.83301 77.499 23.5s27.5 36.167 27.5 61.5c0 29.333 -9.16699 51.5 -27.5 66.5s-44.166 22.5 -77.499 22.5c-32.667 0 -58.334 -7.5 -77.001 -22.5s-28 -37.167 -28 -66.5
c0 -25.333 9.33301 -45.833 28 -61.5s44.334 -23.5 77.001 -23.5zM287 797.001l38 -42.998l-9 -12c-6 -8 -12.833 -17.833 -20.5 -29.5s-14.167 -23.167 -19.5 -34.5c22.667 -5.33301 38.667 -15.333 48 -30s14 -30 14 -46c0 -24.667 -8 -44.5 -24 -59.5
s-36.333 -22.5 -61 -22.5c-22 0 -41.833 8.66699 -59.5 26s-26.5 37.666 -26.5 60.999c0 22.667 4.83301 44.167 14.5 64.5s21.5 38.666 35.5 54.999s27.5 30.5 40.5 42.5s22.833 21.333 29.5 28z" />
    <glyph glyph-name="Hcircumflex" unicode="&#x124;" horiz-adv-x="745" 
d="M43 589l265 -1v-111h-55v-124h239v124h-55v112h265v-112h-81v-365h81v-112h-263v112h53v129h-239v-129h53v-112h-263v112h81v365h-81v112zM372 800l184 -106l-36 -47l-147 60l-152 -60l-32 47z" />
    <glyph glyph-name="hcircumflex" unicode="&#x125;" horiz-adv-x="652" 
d="M22 0l0.000976562 100.999h83v444l-95 32l33 102l189 -64v-177c42 24 91.667 36 149 36c51.333 0 91.166 -16.333 119.499 -49s42.5 -79 42.5 -139v-185h84v-101h-251v101h40v169c0 33.333 -6.5 57.833 -19.5 73.5s-33.5 23.5 -61.5 23.5
c-12.667 0 -28.5 -2.16699 -47.5 -6.5s-37.167 -10.166 -54.5 -17.499v-242h40v-101h-251zM121.001 834.999l184 -106l-36 -47l-147 60l-152 -60l-32 47z" />
    <glyph glyph-name="Hbar" unicode="&#x126;" horiz-adv-x="745" 
d="M52 450h637v-59h-637v59zM43 589l265 -1v-111h-55v-124h239v124h-55v112h265v-112h-81v-365h81v-112h-263v112h53v129h-239v-129h53v-112h-263v112h81v365h-81v112z" />
    <glyph glyph-name="hbar" unicode="&#x127;" horiz-adv-x="652" 
d="M22 0l0.000976562 100.999h83v444l-95 32l33 102l189 -64v-237c42 24 91.667 36 149 36c51.333 0 91.166 -16.333 119.499 -49s42.5 -79 42.5 -139v-125h84v-101h-251v101h40v109c0 33.333 -6.5 57.833 -19.5 73.5s-33.5 23.5 -61.5 23.5
c-12.667 0 -28.5 -2.16699 -47.5 -6.5s-37.167 -10.166 -54.5 -17.499v-182h40v-101h-251zM16.001 521.999h325v-61h-325v61z" />
    <glyph glyph-name="Itilde" unicode="&#x128;" horiz-adv-x="405" 
d="M44 589h318v-112h-95v-365h95v-112h-319v112h96v365h-95v112zM57 677l-32.0039 67.001c22.667 17.333 42.834 30.166 60.501 38.499s38.834 12.5 63.501 12.5c18 0 34.167 -3.33301 48.5 -10s28 -13.5 41 -20.5s26.833 -10.5 41.5 -10.5s27.5 2 38.5 6s25.833 12 44.5 24
l28 -67c-18.667 -18 -36.667 -31.167 -54 -39.5s-39.666 -12.833 -66.999 -13.5c-15.333 0 -29.833 3.33301 -43.5 10l-41 20.5c-13.667 7 -28.834 10.5 -45.501 10.5c-13.333 0 -25.666 -2.33301 -36.999 -7s-26.666 -11.667 -45.999 -21z" />
    <glyph glyph-name="itilde" unicode="&#x129;" horiz-adv-x="360" 
d="M42 454h210v-353h83v-101h-293v101h83v252h-83v101zM47 542l-31.002 67.001c19.333 17.333 37.166 30.166 53.499 38.499s34.833 12.5 55.5 12.5c14.667 0 28 -3.33301 40 -10l35.5 -20.5c11.667 -7 23.834 -10.5 36.501 -10.5c13.333 0 25.333 2 36 6
s24.334 12 41.001 24l24 -67c-15.333 -18 -31 -31.167 -47 -39.5s-37.667 -12.833 -65 -13.5c-13.333 0 -25.833 3.33301 -37.5 10l-35.5 20.5c-12 7 -25.333 10.5 -40 10.5c-9.33301 0 -18.666 -2.33301 -27.999 -7s-22 -11.667 -38 -21z" />
    <glyph glyph-name="Imacron" unicode="&#x12a;" horiz-adv-x="405" 
d="M44 589h318v-112h-95v-365h95v-112h-319v112h96v365h-95v112zM29 764h347v-82h-347v82z" />
    <glyph glyph-name="imacron" unicode="&#x12b;" horiz-adv-x="360" 
d="M42 454h210v-353h83v-101h-293v101h83v252h-83v101zM35 629h287v-82h-287v82z" />
    <glyph glyph-name="Ibreve" unicode="&#x12c;" horiz-adv-x="405" 
d="M44 589h318v-112h-95v-365h95v-112h-319v112h96v365h-95v112zM202 661c-108 0 -167.667 49 -179 147l82 10c3.33301 -52.667 35.666 -79 96.999 -79c62.667 0 95.667 26.333 99 79l82 -10c-11.333 -98 -71.666 -147 -180.999 -147z" />
    <glyph glyph-name="ibreve" unicode="&#x12d;" horiz-adv-x="360" 
d="M42 454h210v-353h83v-101h-293v101h83v252h-83v101zM178 526c-94.667 0 -147.666 49 -158.999 147l82 10c3.33301 -52.667 29 -79 77 -79c49.333 0 75.666 26.333 78.999 79l82 -10c-11.333 -98 -65 -147 -161 -147z" />
    <glyph glyph-name="Iogonek" unicode="&#x12e;" horiz-adv-x="405" 
d="M44 589h318v-112h-95v-365h95v-112h-319v112h96v365h-95v112zM326 35l36.002 -35.002c-32.667 -16.667 -55.334 -34.167 -68.001 -52.5s-19 -37.5 -19 -57.5c0 -14.667 5.66699 -26.667 17 -36s25.666 -14 42.999 -14c14.667 0 31 3.66699 49 11v-76
c-17.333 -7.33301 -33.833 -12.333 -49.5 -15s-30.167 -4 -43.5 -4c-44 0 -77 9.16699 -99 27.5s-33 40.833 -33 67.5c0 36.667 13 70.334 39 101.001s68.667 58.334 128 83.001z" />
    <glyph glyph-name="iogonek" unicode="&#x12f;" horiz-adv-x="360" 
d="M42 454h210v-353h83v-101h-293v101h83v252h-83v101zM178 672c21.333 0 38.666 -6.66699 51.999 -20s20 -30.666 20 -51.999s-6.66699 -38.5 -20 -51.5s-30.666 -19.5 -51.999 -19.5s-38.5 6.5 -51.5 19.5s-19.5 30.167 -19.5 51.5s6.5 38.666 19.5 51.999
s30.167 20 51.5 20zM248 35l36.002 -35.002c-32.667 -16.667 -55.334 -34.167 -68.001 -52.5s-19 -37.5 -19 -57.5c0 -14.667 5.66699 -26.667 17 -36s25.666 -14 42.999 -14c14.667 0 31 3.66699 49 11v-76c-17.333 -7.33301 -33.833 -12.333 -49.5 -15
s-30.167 -4 -43.5 -4c-44 0 -77 9.16699 -99 27.5s-33 40.833 -33 67.5c0 36.667 13 70.334 39 101.001s68.667 58.334 128 83.001z" />
    <glyph glyph-name="Idotaccent" unicode="&#x130;" horiz-adv-x="405" 
d="M44 589h318v-112h-95v-365h95v-112h-319v112h96v365h-95v112zM202 807c21.333 0 38.666 -6.66699 51.999 -20s20 -30.666 20 -51.999s-6.66699 -38.5 -20 -51.5s-30.666 -19.5 -51.999 -19.5s-38.5 6.5 -51.5 19.5s-19.5 30.167 -19.5 51.5s6.5 38.666 19.5 51.999
s30.167 20 51.5 20z" />
    <glyph glyph-name="dotlessi" unicode="&#x131;" horiz-adv-x="360" 
d="M42 454h210v-353h83v-101h-293v101h83v252h-83v101z" />
    <glyph glyph-name="Jcircumflex" unicode="&#x134;" horiz-adv-x="533" 
d="M421 240c0 -54 -6.66504 -100.5 -19.998 -139.5s-35 -69.167 -65 -90.5s-70.667 -32 -122 -32c-35.333 0 -65.5 5.16699 -90.5 15.5s-48.167 21.166 -69.5 32.499l-32 146l110 26l21 -102c9.33301 -3.33301 18.166 -6 26.499 -8s16.166 -3 23.499 -3
c29.333 0 51.5 12.333 66.5 37s22.5 56.334 22.5 95.001v260h-122v112h334v-112h-83v-237zM346.002 800l184 -106l-36 -47l-147 60l-152 -60l-32 47z" />
    <glyph glyph-name="jcircumflex" unicode="&#x135;" horiz-adv-x="291" 
d="M236 -36c0 -23.333 -1.16992 -47.502 -3.50293 -72.502s-9.16602 -48 -20.499 -69s-30.166 -38 -56.499 -51s-63.5 -19.5 -111.5 -19.5c-16.667 0 -32.334 1.5 -47.001 4.5l-38 7.5l13 100c8.66699 -1.33301 19.167 -2.5 31.5 -3.5s21.833 -1.5 28.5 -1.5
c18.667 0 33.334 2.66699 44.001 8s18.334 12.333 23.001 21s7.5 18.334 8.5 29.001s1.5 21.334 1.5 32.001v404h-84v101h211v-490zM165.997 690.998l170 -120l-40 -53l-129 79l-139 -79l-35 53z" />
    <glyph glyph-name="uni0136" unicode="&#x136;" horiz-adv-x="701" 
d="M43 589h264v-112h-55v-131h68l96 131h-41v112h265v-112h-94l-133 -165l151 -200h101v-112h-305v112h66l-94 126h-80v-126h55v-112h-264v112h81v365h-81v112zM301 -343l-38 42.998l9 12c6 8 12.833 17.833 20.5 29.5s14.167 23.167 19.5 34.5
c-22.667 5.33301 -38.667 15.333 -48 30s-14 30 -14 46c0 24.667 8 44.5 24 59.5s36.333 22.5 61 22.5c22 0 41.833 -8.66699 59.5 -26s26.5 -37.666 26.5 -60.999c0 -22.667 -4.83301 -44.167 -14.5 -64.5s-21.5 -38.666 -35.5 -54.999s-27.5 -30.5 -40.5 -42.5
s-22.833 -21.333 -29.5 -28z" />
    <glyph glyph-name="uni0137" unicode="&#x137;" horiz-adv-x="599" 
d="M47 679l189 -64v-342h66l47 80h-50v101h252v-101h-73l-88 -128l88 -124h82v-101h-143l-110 173h-71v-72h29v-101h-240v101h84v444l-95 32zM274 -343l-38 42.998l9 12c6 8 12.833 17.833 20.5 29.5s14.167 23.167 19.5 34.5c-22.667 5.33301 -38.667 15.333 -48 30
s-14 30 -14 46c0 24.667 8 44.5 24 59.5s36.333 22.5 61 22.5c22 0 41.833 -8.66699 59.5 -26s26.5 -37.666 26.5 -60.999c0 -22.667 -4.83301 -44.167 -14.5 -64.5s-21.5 -38.666 -35.5 -54.999s-27.5 -30.5 -40.5 -42.5s-22.833 -21.333 -29.5 -28z" />
    <glyph glyph-name="kgreenlandic" unicode="&#x138;" horiz-adv-x="632" 
d="M48 454h240v-101h-29v-80h71l57 80h-51v101h252v-101h-73l-97 -128l92 -124h83v-101h-153l-125 173h-56v-72h29v-101h-240v101h84v252h-84v101z" />
    <glyph glyph-name="Lacute" unicode="&#x139;" horiz-adv-x="565" 
d="M43 589h315v-112h-99v-365h148l35 98l106 -37l-60 -173h-445v112h89v365h-89v112zM375 801l28 -103l-253 -36l-18 48z" />
    <glyph glyph-name="lacute" unicode="&#x13a;" horiz-adv-x="351" 
d="M31 0v101h84v444l-95 32l33 102l189 -64v-514h84v-101h-295zM318 848l28 -103l-253 -36l-18 48z" />
    <glyph glyph-name="uni013B" unicode="&#x13b;" horiz-adv-x="565" 
d="M43 589h315v-112h-99v-365h148l35 98l106 -37l-60 -173h-445v112h89v365h-89v112zM243 -343l-38 42.998l9 12c6 8 12.833 17.833 20.5 29.5s14.167 23.167 19.5 34.5c-22.667 5.33301 -38.667 15.333 -48 30s-14 30 -14 46c0 24.667 8 44.5 24 59.5s36.333 22.5 61 22.5
c22 0 41.833 -8.66699 59.5 -26s26.5 -37.666 26.5 -60.999c0 -22.667 -4.83301 -44.167 -14.5 -64.5s-21.5 -38.666 -35.5 -54.999s-27.5 -30.5 -40.5 -42.5s-22.833 -21.333 -29.5 -28z" />
    <glyph glyph-name="uni013C" unicode="&#x13c;" horiz-adv-x="351" 
d="M31 0v101h84v444l-95 32l33 102l189 -64v-514h84v-101h-295zM136 -343l-38 42.998l9 12c6 8 12.833 17.833 20.5 29.5s14.167 23.167 19.5 34.5c-22.667 5.33301 -38.667 15.333 -48 30s-14 30 -14 46c0 24.667 8 44.5 24 59.5s36.333 22.5 61 22.5
c22 0 41.833 -8.66699 59.5 -26s26.5 -37.666 26.5 -60.999c0 -22.667 -4.83301 -44.167 -14.5 -64.5s-21.5 -38.666 -35.5 -54.999s-27.5 -30.5 -40.5 -42.5s-22.833 -21.333 -29.5 -28z" />
    <glyph glyph-name="Lcaron" unicode="&#x13d;" horiz-adv-x="565" 
d="M43 589h315v-112h-99v-365h148l35 98l106 -37l-60 -173h-445v112h89v365h-89v112zM446 640l102 -23l-73 -239l-62 11z" />
    <glyph glyph-name="lcaron" unicode="&#x13e;" horiz-adv-x="351" 
d="M31 0v101h84v354l-95 32l33 102l189 -64v-424h84v-101h-295zM34 772l127 -61l131 61l45 -57l-176 -116l-177 116z" />
    <glyph glyph-name="Ldot" unicode="&#x13f;" horiz-adv-x="600" 
d="M43 589h315v-112h-99v-365h148l35 98l106 -37l-60 -173h-445v112h89v365h-89v112zM382 422c23.333 0 43.5 -8.66699 60.5 -26s25.5 -37.666 25.5 -60.999c0 -24 -8.5 -44.333 -25.5 -61s-37.167 -25 -60.5 -25c-24 0 -44.5 8.33301 -61.5 25s-25.5 37 -25.5 61
c0 23.333 8.5 43.666 25.5 60.999s37.5 26 61.5 26z" />
    <glyph glyph-name="ldot" unicode="&#x140;" horiz-adv-x="467" 
d="M31 0v101h84v444l-95 32l33 102l189 -64v-514h84v-101h-295zM361 379c23.333 0 43.5 -8.66699 60.5 -26s25.5 -37.666 25.5 -60.999c0 -24 -8.5 -44.333 -25.5 -61s-37.167 -25 -60.5 -25c-24 0 -44.5 8.33301 -61.5 25s-25.5 37 -25.5 61
c0 23.333 8.5 43.666 25.5 60.999s37.5 26 61.5 26z" />
    <glyph glyph-name="Lslash" unicode="&#x141;" horiz-adv-x="565" 
d="M73 253l388 197v-91l-388 -197v91zM43 589h315v-112h-99v-365h148l35 98l106 -37l-60 -173h-445v112h89v365h-89v112z" />
    <glyph glyph-name="lslash" unicode="&#x142;" horiz-adv-x="351" 
d="M43 273l278 247v-101l-278 -247v101zM31 0v101h84v444l-95 32l33 102l189 -64v-514h84v-101h-295z" />
    <glyph glyph-name="Nacute" unicode="&#x143;" horiz-adv-x="748" 
d="M44 589h272l198 -407v295h-74v112h279v-112h-92v-477h-148l-241 478v-366h84v-112h-279v112h83v365h-82v112zM538 801l28 -103l-253 -36l-18 48z" />
    <glyph glyph-name="nacute" unicode="&#x144;" horiz-adv-x="675" 
d="M46 0l-0.00292969 100.998h85v227l-96 33l33 102l141 -48c26.667 18 53.334 32.333 80.001 43s60.667 16 102 16c44 0 78.667 -8.66699 104 -26s43.5 -40.666 54.5 -69.999s16.5 -61.666 16.5 -96.999v-180h83v-101h-250v101h41v165c0 28 -5.66699 51 -17 69
s-32.666 27 -63.999 27c-20 0 -39.167 -3.5 -57.5 -10.5s-33.166 -14.833 -44.499 -23.5v-227h40v-101h-251zM434.997 769.998l84 -62l-162 -190l-53 35z" />
    <glyph glyph-name="uni0145" unicode="&#x145;" horiz-adv-x="748" 
d="M44 589h272l198 -407v295h-74v112h279v-112h-92v-477h-148l-241 478v-366h84v-112h-279v112h83v365h-82v112zM346 -343l-38 42.998l9 12c6 8 12.833 17.833 20.5 29.5s14.167 23.167 19.5 34.5c-22.667 5.33301 -38.667 15.333 -48 30s-14 30 -14 46
c0 24.667 8 44.5 24 59.5s36.333 22.5 61 22.5c22 0 41.833 -8.66699 59.5 -26s26.5 -37.666 26.5 -60.999c0 -22.667 -4.83301 -44.167 -14.5 -64.5s-21.5 -38.666 -35.5 -54.999s-27.5 -30.5 -40.5 -42.5s-22.833 -21.333 -29.5 -28z" />
    <glyph glyph-name="uni0146" unicode="&#x146;" horiz-adv-x="675" 
d="M46 0l-0.00292969 100.998h85v227l-96 33l33 102l141 -48c26.667 18 53.334 32.333 80.001 43s60.667 16 102 16c44 0 78.667 -8.66699 104 -26s43.5 -40.666 54.5 -69.999s16.5 -61.666 16.5 -96.999v-180h83v-101h-250v101h41v165c0 28 -5.66699 51 -17 69
s-32.666 27 -63.999 27c-20 0 -39.167 -3.5 -57.5 -10.5s-33.166 -14.833 -44.499 -23.5v-227h40v-101h-251zM308.997 -343.002l-38 42.998l9 12c6 8 12.833 17.833 20.5 29.5s14.167 23.167 19.5 34.5c-22.667 5.33301 -38.667 15.333 -48 30s-14 30 -14 46
c0 24.667 8 44.5 24 59.5s36.333 22.5 61 22.5c22 0 41.833 -8.66699 59.5 -26s26.5 -37.666 26.5 -60.999c0 -22.667 -4.83301 -44.167 -14.5 -64.5s-21.5 -38.666 -35.5 -54.999s-27.5 -30.5 -40.5 -42.5s-22.833 -21.333 -29.5 -28z" />
    <glyph glyph-name="Ncaron" unicode="&#x147;" horiz-adv-x="748" 
d="M44 589h272l198 -407v295h-74v112h279v-112h-92v-477h-148l-241 478v-366h84v-112h-279v112h83v365h-82v112zM381 644l-173 120l35 53l139 -79l129 79l40 -53z" />
    <glyph glyph-name="ncaron" unicode="&#x148;" horiz-adv-x="675" 
d="M46 0l-0.00292969 100.998h85v227l-96 33l33 102l141 -48c26.667 18 53.334 32.333 80.001 43s60.667 16 102 16c44 0 78.667 -8.66699 104 -26s43.5 -40.666 54.5 -69.999s16.5 -61.666 16.5 -96.999v-180h83v-101h-250v101h41v165c0 28 -5.66699 51 -17 69
s-32.666 27 -63.999 27c-20 0 -39.167 -3.5 -57.5 -10.5s-33.166 -14.833 -44.499 -23.5v-227h40v-101h-251zM343.997 508.998l-173 120l35 53l139 -79l129 79l40 -53z" />
    <glyph glyph-name="Eng" unicode="&#x14a;" horiz-adv-x="748" 
d="M428 -248c-30.667 0 -58.8311 2.33301 -84.498 7s-52.167 12.667 -79.5 24l32 89c19.333 -7.33301 37.666 -12.5 54.999 -15.5s33.333 -4.5 48 -4.5c29.333 0 54.166 7.66699 74.499 23s32.833 37.333 37.5 66l-273 537v-366h84v-112h-279v112h83v365h-82v112h272
l198 -407v295h-74v112h279v-112h-92v-486c0 -78 -17.667 -137.333 -53 -178s-84 -61 -146 -61z" />
    <glyph glyph-name="eng" unicode="&#x14b;" horiz-adv-x="616" 
d="M391 474c57.333 0 100.835 -16.501 130.502 -49.501s44.5 -80.833 44.5 -143.5v-290c0 -78 -17.667 -137.333 -53 -178s-84 -61 -146 -61c-30.667 0 -58.834 2.33301 -84.501 7s-52.167 12.667 -79.5 24l32 89c19.333 -7.33301 37.666 -12.5 54.999 -15.5
s33.333 -4.5 48 -4.5c31.333 0 56.166 10.333 74.499 31s27.5 50 27.5 88v295c0 32.667 -6.66699 56.834 -20 72.501s-33.666 23.5 -60.999 23.5c-16.667 0 -34.5 -3.16699 -53.5 -9.5s-35.167 -14.5 -48.5 -24.5v-227h40v-101h-251v101h85v227l-96 33l33 102l141 -48
c32 22 61.5 37.333 88.5 46s58.167 13 93.5 13z" />
    <glyph glyph-name="Omacron" unicode="&#x14c;" horiz-adv-x="680" 
d="M339 611c58.667 0 110.501 -12.167 155.501 -36.5s80.167 -59.833 105.5 -106.5s38 -104.334 38 -173.001c0 -68 -12.667 -125.667 -38 -173s-60.333 -83.166 -105 -107.499s-96.334 -36.5 -155.001 -36.5c-58 0 -109.5 12.167 -154.5 36.5
s-80.167 60.166 -105.5 107.499s-38 105 -38 173c0 68.667 12.667 126.334 38 173.001s60.333 82.167 105 106.5s96 36.5 154 36.5zM340.001 503c-54.667 0 -95.6689 -17.5 -123.002 -52.5s-41 -86.833 -41 -155.5s13.667 -120.667 41 -156s68.333 -53 123 -53
s95.834 17.667 123.501 53s41.5 87.333 41.5 156s-13.667 120.5 -41 155.5s-68.666 52.5 -123.999 52.5zM165.999 764h347v-82h-347v82z" />
    <glyph glyph-name="omacron" unicode="&#x14d;" horiz-adv-x="567" 
d="M282 474c52 0 96 -9.83398 132 -29.501s63.333 -48 82 -85s28 -81.5 28 -133.5c0 -77.333 -21 -137.666 -63 -180.999s-101.667 -65 -179 -65c-50.667 0 -93.834 9.66699 -129.501 29s-62.667 47.5 -81 84.5s-27.5 81.167 -27.5 132.5c0 52 9.16699 96.5 27.5 133.5
s45.333 65.333 81 85s78.834 29.5 129.501 29.5zM283 370.999c-38 0 -66.667 -12.333 -86 -37s-29 -60.667 -29 -108s9.66699 -83.333 29 -108s48 -37 86 -37c38.667 0 67.834 12.333 87.501 37s29.5 60.667 29.5 108s-9.83301 83.333 -29.5 108s-48.834 37 -87.501 37z
M110 628.999h347v-82h-347v82z" />
    <glyph glyph-name="Obreve" unicode="&#x14e;" horiz-adv-x="680" 
d="M339 611c58.667 0 110.501 -12.167 155.501 -36.5s80.167 -59.833 105.5 -106.5s38 -104.334 38 -173.001c0 -68 -12.667 -125.667 -38 -173s-60.333 -83.166 -105 -107.499s-96.334 -36.5 -155.001 -36.5c-58 0 -109.5 12.167 -154.5 36.5
s-80.167 60.166 -105.5 107.499s-38 105 -38 173c0 68.667 12.667 126.334 38 173.001s60.333 82.167 105 106.5s96 36.5 154 36.5zM340.001 503c-54.667 0 -95.6689 -17.5 -123.002 -52.5s-41 -86.833 -41 -155.5s13.667 -120.667 41 -156s68.333 -53 123 -53
s95.834 17.667 123.501 53s41.5 87.333 41.5 156s-13.667 120.5 -41 155.5s-68.666 52.5 -123.999 52.5zM338.999 661c-108 0 -167.667 49 -179 147l82 10c3.33301 -52.667 35.666 -79 96.999 -79c62.667 0 95.667 26.333 99 79l82 -10
c-11.333 -98 -71.666 -147 -180.999 -147z" />
    <glyph glyph-name="obreve" unicode="&#x14f;" horiz-adv-x="567" 
d="M282 474c52 0 96 -9.83398 132 -29.501s63.333 -48 82 -85s28 -81.5 28 -133.5c0 -77.333 -21 -137.666 -63 -180.999s-101.667 -65 -179 -65c-50.667 0 -93.834 9.66699 -129.501 29s-62.667 47.5 -81 84.5s-27.5 81.167 -27.5 132.5c0 52 9.16699 96.5 27.5 133.5
s45.333 65.333 81 85s78.834 29.5 129.501 29.5zM283 370.999c-38 0 -66.667 -12.333 -86 -37s-29 -60.667 -29 -108s9.66699 -83.333 29 -108s48 -37 86 -37c38.667 0 67.834 12.333 87.501 37s29.5 60.667 29.5 108s-9.83301 83.333 -29.5 108s-48.834 37 -87.501 37z
M283 525.999c-108 0 -167.667 49 -179 147l82 10c3.33301 -52.667 35.666 -79 96.999 -79c62.667 0 95.667 26.333 99 79l82 -10c-11.333 -98 -71.666 -147 -180.999 -147z" />
    <glyph glyph-name="Ohungarumlaut" unicode="&#x150;" horiz-adv-x="680" 
d="M339 611c58.667 0 110.501 -12.167 155.501 -36.5s80.167 -59.833 105.5 -106.5s38 -104.334 38 -173.001c0 -68 -12.667 -125.667 -38 -173s-60.333 -83.166 -105 -107.499s-96.334 -36.5 -155.001 -36.5c-58 0 -109.5 12.167 -154.5 36.5
s-80.167 60.166 -105.5 107.499s-38 105 -38 173c0 68.667 12.667 126.334 38 173.001s60.333 82.167 105 106.5s96 36.5 154 36.5zM340.001 503c-54.667 0 -95.6689 -17.5 -123.002 -52.5s-41 -86.833 -41 -155.5s13.667 -120.667 41 -156s68.333 -53 123 -53
s95.834 17.667 123.501 53s41.5 87.333 41.5 156s-13.667 120.5 -41 155.5s-68.666 52.5 -123.999 52.5zM378.999 842l64 -72l-168 -115l-34 33zM557.999 801l42 -87l-197 -56l-24 41z" />
    <glyph glyph-name="ohungarumlaut" unicode="&#x151;" horiz-adv-x="567" 
d="M282 474c52 0 96 -9.83398 132 -29.501s63.333 -48 82 -85s28 -81.5 28 -133.5c0 -77.333 -21 -137.666 -63 -180.999s-101.667 -65 -179 -65c-50.667 0 -93.834 9.66699 -129.501 29s-62.667 47.5 -81 84.5s-27.5 81.167 -27.5 132.5c0 52 9.16699 96.5 27.5 133.5
s45.333 65.333 81 85s78.834 29.5 129.501 29.5zM283 370.999c-38 0 -66.667 -12.333 -86 -37s-29 -60.667 -29 -108s9.66699 -83.333 29 -108s48 -37 86 -37c38.667 0 67.834 12.333 87.501 37s29.5 60.667 29.5 108s-9.83301 83.333 -29.5 108s-48.834 37 -87.501 37z
M275 769.999l84 -62l-162 -190l-53 35zM483 748.999l69 -75l-195 -156l-45 45z" />
    <glyph glyph-name="OE" unicode="&#x152;" horiz-adv-x="913" 
d="M339 0c-58.667 0 -110.333 10.001 -155 30.001s-79.5 52.167 -104.5 96.5s-37.5 102.5 -37.5 174.5c0 65.333 12.333 119.166 37 161.499s59.167 74 103.5 95s96.5 31.5 156.5 31.5h458l62 -186l-106 -36l-36 110h-167v-124h163v-110h-164v-131h194l35 98l106 -37
l-60 -173h-485zM342.001 477.001c-26.667 0 -50.333 -2.99707 -71 -8.99707s-38 -15.833 -52 -29.5s-24.667 -31.834 -32 -54.501s-11 -50.334 -11 -83.001c0 -66.667 14.5 -114.834 43.5 -144.501s69.833 -44.5 122.5 -44.5h79v365h-79z" />
    <glyph glyph-name="oe" unicode="&#x153;" horiz-adv-x="783" 
d="M734 54c-0.666992 -0.666992 -5.33301 -5.00098 -14 -13.001s-21.167 -16.833 -37.5 -26.5s-37 -18.167 -62 -25.5s-54.5 -11 -88.5 -11c-40 0 -77.667 11.667 -113 35c-16.667 -10.667 -36.834 -19.167 -60.501 -25.5s-49.5 -9.5 -77.5 -9.5
c-48 0 -90.167 9.16699 -126.5 27.5s-64.833 45.333 -85.5 81s-31 79.834 -31 132.501s10.333 97.167 31 133.5s49.167 63.833 85.5 82.5s78.5 28 126.5 28c29.333 0 56.333 -3.66699 81 -11s44.667 -16.666 60 -27.999c18.667 13.333 37.834 23.166 57.501 29.499
s38.834 9.5 57.501 9.5c44.667 0 82.334 -8.33301 113.001 -25s54 -41.667 70 -75s24 -75 24 -125c0 -16.667 -0.666992 -30 -2 -40s-2.66602 -17.667 -3.99902 -23h-311c5.33301 -30.667 16.666 -54.5 33.999 -71.5s41.333 -25.5 72 -25.5c25.333 0 47.166 2.5 65.499 7.5
s34.166 11 47.499 18s24.333 13.833 33 20.5zM282.001 359.999c-38 0 -66.667 -12.333 -86 -37s-29 -59.334 -29 -104.001s9.66699 -79.334 29 -104.001s48 -37 86 -37c11.333 0 22.833 1.16699 34.5 3.5s22.167 5.83301 31.5 10.5c-8.66699 15.333 -15.667 33.833 -21 55.5
s-8 45.834 -8 72.501c0 26 3 49.833 9 71.5s13.333 39.834 22 54.501c-9.33301 4.66699 -20 8.16699 -32 10.5s-24 3.5 -36 3.5zM630.001 276.999c0.666992 23.333 -6.66699 43 -22 59s-40.333 24 -75 24c-27.333 0 -49.5 -7 -66.5 -21s-29.167 -34.667 -36.5 -62h200z" />
    <glyph glyph-name="Racute" unicode="&#x154;" horiz-adv-x="633" 
d="M43 0v112.001h80v365h-80v112h264c63.333 0 112.333 -8.16699 147 -24.5s58.667 -39.5 72 -69.5s20 -65 20 -105c0 -66.667 -17.5 -116.334 -52.5 -149.001s-87.167 -49 -156.5 -49h-85v-80h48v-112h-257zM253 303.001l48.001 -0.000976562c28 0 50.167 2.66699 66.5 8
s28 14.333 35 27s10.5 30 10.5 52c0 22.667 -4.33301 40.334 -13 53.001s-21.334 21.5 -38.001 26.5s-37 7.5 -61 7.5h-48v-174zM425.001 0l-112 206l116 21l71 -115h104v-112h-179zM434.001 801l28 -103l-253 -36l-18 48z" />
    <glyph glyph-name="racute" unicode="&#x155;" horiz-adv-x="492" 
d="M220 414c29.333 19.333 56.667 33.666 82 42.999s50.333 14 75 14c25.333 0 53 -5.66699 83 -17l17 -131l-105 -22l-10 54c-22.667 -2.66699 -43 -7.16699 -61 -13.5s-32.667 -14.166 -44 -23.499l-1 -217h98v-101h-308v101h84v229l-96 32l33 102zM325.001 770l84 -62
l-162 -190l-53 35z" />
    <glyph glyph-name="uni0156" unicode="&#x156;" horiz-adv-x="633" 
d="M43 0v112.001h80v365h-80v112h264c63.333 0 112.333 -8.16699 147 -24.5s58.667 -39.5 72 -69.5s20 -65 20 -105c0 -66.667 -17.5 -116.334 -52.5 -149.001s-87.167 -49 -156.5 -49h-85v-80h48v-112h-257zM253 303.001l48.001 -0.000976562c28 0 50.167 2.66699 66.5 8
s28 14.333 35 27s10.5 30 10.5 52c0 22.667 -4.33301 40.334 -13 53.001s-21.334 21.5 -38.001 26.5s-37 7.5 -61 7.5h-48v-174zM425.001 0l-112 206l116 21l71 -115h104v-112h-179zM282.001 -343l-38 42.998l9 12c6 8 12.833 17.833 20.5 29.5s14.167 23.167 19.5 34.5
c-22.667 5.33301 -38.667 15.333 -48 30s-14 30 -14 46c0 24.667 8 44.5 24 59.5s36.333 22.5 61 22.5c22 0 41.833 -8.66699 59.5 -26s26.5 -37.666 26.5 -60.999c0 -22.667 -4.83301 -44.167 -14.5 -64.5s-21.5 -38.666 -35.5 -54.999s-27.5 -30.5 -40.5 -42.5
s-22.833 -21.333 -29.5 -28z" />
    <glyph glyph-name="uni0157" unicode="&#x157;" horiz-adv-x="492" 
d="M220 414c29.333 19.333 56.667 33.666 82 42.999s50.333 14 75 14c25.333 0 53 -5.66699 83 -17l17 -131l-105 -22l-10 54c-22.667 -2.66699 -43 -7.16699 -61 -13.5s-32.667 -14.166 -44 -23.499l-1 -217h98v-101h-308v101h84v229l-96 32l33 102zM148.001 -343
l-38 42.998l9 12c6 8 12.833 17.833 20.5 29.5s14.167 23.167 19.5 34.5c-22.667 5.33301 -38.667 15.333 -48 30s-14 30 -14 46c0 24.667 8 44.5 24 59.5s36.333 22.5 61 22.5c22 0 41.833 -8.66699 59.5 -26s26.5 -37.666 26.5 -60.999
c0 -22.667 -4.83301 -44.167 -14.5 -64.5s-21.5 -38.666 -35.5 -54.999s-27.5 -30.5 -40.5 -42.5s-22.833 -21.333 -29.5 -28z" />
    <glyph glyph-name="Rcaron" unicode="&#x158;" horiz-adv-x="633" 
d="M43 0v112.001h80v365h-80v112h264c63.333 0 112.333 -8.16699 147 -24.5s58.667 -39.5 72 -69.5s20 -65 20 -105c0 -66.667 -17.5 -116.334 -52.5 -149.001s-87.167 -49 -156.5 -49h-85v-80h48v-112h-257zM253 303.001l48.001 -0.000976562c28 0 50.167 2.66699 66.5 8
s28 14.333 35 27s10.5 30 10.5 52c0 22.667 -4.33301 40.334 -13 53.001s-21.334 21.5 -38.001 26.5s-37 7.5 -61 7.5h-48v-174zM425.001 0l-112 206l116 21l71 -115h104v-112h-179zM277.001 644l-173 120l35 53l139 -79l129 79l40 -53z" />
    <glyph glyph-name="rcaron" unicode="&#x159;" horiz-adv-x="492" 
d="M220 414c29.333 19.333 56.667 33.666 82 42.999s50.333 14 75 14c25.333 0 53 -5.66699 83 -17l17 -131l-105 -22l-10 54c-22.667 -2.66699 -43 -7.16699 -61 -13.5s-32.667 -14.166 -44 -23.499l-1 -217h98v-101h-308v101h84v229l-96 32l33 102zM234.001 509l-173 120
l35 53l139 -79l129 79l40 -53z" />
    <glyph glyph-name="Sacute" unicode="&#x15a;" horiz-adv-x="568" 
d="M285 -22c-50 0 -92.998 3.66504 -128.998 10.998s-67.333 16.333 -94 27l-18 142l104 13l10 -72c19.333 -6.66699 39 -11.5 59 -14.5s39.333 -4.5 58 -4.5c25.333 0 48.666 3 69.999 9s38.333 15 51 27s19 27 19 45c0 18.667 -6.33301 34.834 -19 48.501
s-40 24.167 -82 31.5l-71 13c-60.667 11.333 -107.334 31.5 -140.001 60.5s-49 67.833 -49 116.5c0 41.333 11.333 75.333 34 102s52.5 46.334 89.5 59.001s76.5 19 118.5 19c21.333 0 42.666 -1.5 63.999 -4.5s42.333 -7.33301 63 -13s40.334 -12.834 59.001 -21.501
l20 -155l-113 -12l-13 93c-14 4.66699 -28.167 8.16699 -42.5 10.5s-28.5 3.5 -42.5 3.5c-38 0 -67.667 -6.5 -89 -19.5s-32 -29.833 -32 -50.5c0 -22 7.66699 -39 23 -51s42.666 -21.667 81.999 -29l69 -12c67.333 -10 114.833 -29.5 142.5 -58.5s41.5 -67.167 41.5 -114.5
c0 -41.333 -7.66699 -75 -23 -101s-35.333 -46.167 -60 -60.5s-51.167 -24.166 -79.5 -29.499s-55.166 -8 -80.499 -8zM441.002 800.998l28 -103l-253 -36l-18 48z" />
    <glyph glyph-name="sacute" unicode="&#x15b;" horiz-adv-x="471" 
d="M311 371c-10.667 3.33301 -22.166 5.99902 -34.499 7.99902s-24.166 3 -35.499 3c-22.667 0 -42.667 -3.83301 -60 -11.5s-26 -20.167 -26 -37.5c0 -13.333 4.16699 -24.333 12.5 -33s27.833 -15.334 58.5 -20.001l67 -10c50.667 -7.33301 88 -22 112 -44
s36 -52.667 36 -92c0 -36 -9.66699 -65.5 -29 -88.5s-44.333 -39.833 -75 -50.5s-63.334 -16 -98.001 -16c-39.333 0 -73.5 3.83301 -102.5 11.5s-56.167 18.834 -81.5 33.501l-18 106l104 16l9 -49c14 -6 27.667 -10.5 41 -13.5s27 -4.5 41 -4.5
c26.667 0 49.5 4.33301 68.5 13s28.5 21.667 28.5 39c0 11.333 -4.33301 21.5 -13 30.5s-27.667 15.167 -57 18.5l-61 10c-48 8 -85.833 23.167 -113.5 45.5s-41.5 52.833 -41.5 91.5c0 29.333 8 55 24 77s38.667 39 68 51s64 18 104 18c30.667 0 59.667 -3.66699 87 -11
s52.666 -19.666 75.999 -36.999l18 -97l-93 -16zM324.001 769.999l84 -62l-162 -190l-53 35z" />
    <glyph glyph-name="Scircumflex" unicode="&#x15c;" horiz-adv-x="568" 
d="M285 -22c-50 0 -92.998 3.66504 -128.998 10.998s-67.333 16.333 -94 27l-18 142l104 13l10 -72c19.333 -6.66699 39 -11.5 59 -14.5s39.333 -4.5 58 -4.5c25.333 0 48.666 3 69.999 9s38.333 15 51 27s19 27 19 45c0 18.667 -6.33301 34.834 -19 48.501
s-40 24.167 -82 31.5l-71 13c-60.667 11.333 -107.334 31.5 -140.001 60.5s-49 67.833 -49 116.5c0 41.333 11.333 75.333 34 102s52.5 46.334 89.5 59.001s76.5 19 118.5 19c21.333 0 42.666 -1.5 63.999 -4.5s42.333 -7.33301 63 -13s40.334 -12.834 59.001 -21.501
l20 -155l-113 -12l-13 93c-14 4.66699 -28.167 8.16699 -42.5 10.5s-28.5 3.5 -42.5 3.5c-38 0 -67.667 -6.5 -89 -19.5s-32 -29.833 -32 -50.5c0 -22 7.66699 -39 23 -51s42.666 -21.667 81.999 -29l69 -12c67.333 -10 114.833 -29.5 142.5 -58.5s41.5 -67.167 41.5 -114.5
c0 -41.333 -7.66699 -75 -23 -101s-35.333 -46.167 -60 -60.5s-51.167 -24.166 -79.5 -29.499s-55.166 -8 -80.499 -8zM283.002 799.998l184 -106l-36 -47l-147 60l-152 -60l-32 47z" />
    <glyph glyph-name="scircumflex" unicode="&#x15d;" horiz-adv-x="471" 
d="M311 371c-10.667 3.33301 -22.166 5.99902 -34.499 7.99902s-24.166 3 -35.499 3c-22.667 0 -42.667 -3.83301 -60 -11.5s-26 -20.167 -26 -37.5c0 -13.333 4.16699 -24.333 12.5 -33s27.833 -15.334 58.5 -20.001l67 -10c50.667 -7.33301 88 -22 112 -44
s36 -52.667 36 -92c0 -36 -9.66699 -65.5 -29 -88.5s-44.333 -39.833 -75 -50.5s-63.334 -16 -98.001 -16c-39.333 0 -73.5 3.83301 -102.5 11.5s-56.167 18.834 -81.5 33.501l-18 106l104 16l9 -49c14 -6 27.667 -10.5 41 -13.5s27 -4.5 41 -4.5
c26.667 0 49.5 4.33301 68.5 13s28.5 21.667 28.5 39c0 11.333 -4.33301 21.5 -13 30.5s-27.667 15.167 -57 18.5l-61 10c-48 8 -85.833 23.167 -113.5 45.5s-41.5 52.833 -41.5 91.5c0 29.333 8 55 24 77s38.667 39 68 51s64 18 104 18c30.667 0 59.667 -3.66699 87 -11
s52.666 -19.666 75.999 -36.999l18 -97l-93 -16zM234.001 690.999l170 -120l-40 -53l-129 79l-139 -79l-35 53z" />
    <glyph glyph-name="Scedilla" unicode="&#x15e;" horiz-adv-x="568" 
d="M285 -22c-50 0 -92.998 3.66504 -128.998 10.998s-67.333 16.333 -94 27l-18 142l104 13l10 -72c19.333 -6.66699 39 -11.5 59 -14.5s39.333 -4.5 58 -4.5c25.333 0 48.666 3 69.999 9s38.333 15 51 27s19 27 19 45c0 18.667 -6.33301 34.834 -19 48.501
s-40 24.167 -82 31.5l-71 13c-60.667 11.333 -107.334 31.5 -140.001 60.5s-49 67.833 -49 116.5c0 41.333 11.333 75.333 34 102s52.5 46.334 89.5 59.001s76.5 19 118.5 19c21.333 0 42.666 -1.5 63.999 -4.5s42.333 -7.33301 63 -13s40.334 -12.834 59.001 -21.501
l20 -155l-113 -12l-13 93c-14 4.66699 -28.167 8.16699 -42.5 10.5s-28.5 3.5 -42.5 3.5c-38 0 -67.667 -6.5 -89 -19.5s-32 -29.833 -32 -50.5c0 -22 7.66699 -39 23 -51s42.666 -21.667 81.999 -29l69 -12c67.333 -10 114.833 -29.5 142.5 -58.5s41.5 -67.167 41.5 -114.5
c0 -41.333 -7.66699 -75 -23 -101s-35.333 -46.167 -60 -60.5s-51.167 -24.166 -79.5 -29.499s-55.166 -8 -80.499 -8zM360.002 -239.002c-19.333 0 -37 2.50293 -53 7.50293s-30.5 11.167 -43.5 18.5s-24.833 14.666 -35.5 21.999l36 52
c14 -8.66699 28.167 -15.834 42.5 -21.501s31.833 -8.5 52.5 -8.5c14 0 24 3.83301 30 11.5s9 17.167 9 28.5c0 7.33301 -3.33301 14.5 -10 21.5s-19.667 10.5 -39 10.5h-65v97h78v-47c45.333 1.33301 78.833 -4.83398 100.5 -18.501s32.5 -36.834 32.5 -69.501
c0 -24 -6.16699 -43.667 -18.5 -59s-28.833 -26.666 -49.5 -33.999s-43 -11 -67 -11z" />
    <glyph glyph-name="scedilla" unicode="&#x15f;" horiz-adv-x="471" 
d="M311 371c-10.667 3.33301 -22.166 5.99902 -34.499 7.99902s-24.166 3 -35.499 3c-22.667 0 -42.667 -3.83301 -60 -11.5s-26 -20.167 -26 -37.5c0 -13.333 4.16699 -24.333 12.5 -33s27.833 -15.334 58.5 -20.001l67 -10c50.667 -7.33301 88 -22 112 -44
s36 -52.667 36 -92c0 -36 -9.66699 -65.5 -29 -88.5s-44.333 -39.833 -75 -50.5s-63.334 -16 -98.001 -16c-39.333 0 -73.5 3.83301 -102.5 11.5s-56.167 18.834 -81.5 33.501l-18 106l104 16l9 -49c14 -6 27.667 -10.5 41 -13.5s27 -4.5 41 -4.5
c26.667 0 49.5 4.33301 68.5 13s28.5 21.667 28.5 39c0 11.333 -4.33301 21.5 -13 30.5s-27.667 15.167 -57 18.5l-61 10c-48 8 -85.833 23.167 -113.5 45.5s-41.5 52.833 -41.5 91.5c0 29.333 8 55 24 77s38.667 39 68 51s64 18 104 18c30.667 0 59.667 -3.66699 87 -11
s52.666 -19.666 75.999 -36.999l18 -97l-93 -16zM309.001 -239.001c-19.333 0 -37 2.50293 -53 7.50293s-30.5 11.167 -43.5 18.5s-24.833 14.666 -35.5 21.999l36 52c14 -8.66699 28.167 -15.834 42.5 -21.501s31.833 -8.5 52.5 -8.5c14 0 24 3.83301 30 11.5
s9 17.167 9 28.5c0 7.33301 -3.33301 14.5 -10 21.5s-19.667 10.5 -39 10.5h-65v97h78v-47c45.333 1.33301 78.833 -4.83398 100.5 -18.501s32.5 -36.834 32.5 -69.501c0 -24 -6.16699 -43.667 -18.5 -59s-28.833 -26.666 -49.5 -33.999s-43 -11 -67 -11z" />
    <glyph glyph-name="Scaron" unicode="&#x160;" horiz-adv-x="568" 
d="M285 -22c-50 0 -92.998 3.66504 -128.998 10.998s-67.333 16.333 -94 27l-18 142l104 13l10 -72c19.333 -6.66699 39 -11.5 59 -14.5s39.333 -4.5 58 -4.5c25.333 0 48.666 3 69.999 9s38.333 15 51 27s19 27 19 45c0 18.667 -6.33301 34.834 -19 48.501
s-40 24.167 -82 31.5l-71 13c-60.667 11.333 -107.334 31.5 -140.001 60.5s-49 67.833 -49 116.5c0 41.333 11.333 75.333 34 102s52.5 46.334 89.5 59.001s76.5 19 118.5 19c21.333 0 42.666 -1.5 63.999 -4.5s42.333 -7.33301 63 -13s40.334 -12.834 59.001 -21.501
l20 -155l-113 -12l-13 93c-14 4.66699 -28.167 8.16699 -42.5 10.5s-28.5 3.5 -42.5 3.5c-38 0 -67.667 -6.5 -89 -19.5s-32 -29.833 -32 -50.5c0 -22 7.66699 -39 23 -51s42.666 -21.667 81.999 -29l69 -12c67.333 -10 114.833 -29.5 142.5 -58.5s41.5 -67.167 41.5 -114.5
c0 -41.333 -7.66699 -75 -23 -101s-35.333 -46.167 -60 -60.5s-51.167 -24.166 -79.5 -29.499s-55.166 -8 -80.499 -8zM284.002 643.998l-173 120l35 53l139 -79l129 79l40 -53z" />
    <glyph glyph-name="scaron" unicode="&#x161;" horiz-adv-x="471" 
d="M311 371c-10.667 3.33301 -22.166 5.99902 -34.499 7.99902s-24.166 3 -35.499 3c-22.667 0 -42.667 -3.83301 -60 -11.5s-26 -20.167 -26 -37.5c0 -13.333 4.16699 -24.333 12.5 -33s27.833 -15.334 58.5 -20.001l67 -10c50.667 -7.33301 88 -22 112 -44
s36 -52.667 36 -92c0 -36 -9.66699 -65.5 -29 -88.5s-44.333 -39.833 -75 -50.5s-63.334 -16 -98.001 -16c-39.333 0 -73.5 3.83301 -102.5 11.5s-56.167 18.834 -81.5 33.501l-18 106l104 16l9 -49c14 -6 27.667 -10.5 41 -13.5s27 -4.5 41 -4.5
c26.667 0 49.5 4.33301 68.5 13s28.5 21.667 28.5 39c0 11.333 -4.33301 21.5 -13 30.5s-27.667 15.167 -57 18.5l-61 10c-48 8 -85.833 23.167 -113.5 45.5s-41.5 52.833 -41.5 91.5c0 29.333 8 55 24 77s38.667 39 68 51s64 18 104 18c30.667 0 59.667 -3.66699 87 -11
s52.666 -19.666 75.999 -36.999l18 -97l-93 -16zM233.001 508.999l-173 120l35 53l139 -79l129 79l40 -53z" />
    <glyph glyph-name="uni0162" unicode="&#x162;" horiz-adv-x="605" 
d="M28 589h539v-213h-112v101h-93v-365h81v-112h-293v112h82v365h-92v-101h-112v213zM374 -239c-19.333 0 -37 2.50293 -53 7.50293s-30.5 11.167 -43.5 18.5s-24.833 14.666 -35.5 21.999l36 52c14 -8.66699 28.167 -15.834 42.5 -21.501s31.833 -8.5 52.5 -8.5
c14 0 24 3.83301 30 11.5s9 17.167 9 28.5c0 7.33301 -3.33301 14.5 -10 21.5s-19.667 10.5 -39 10.5h-65v97h78v-47c45.333 1.33301 78.833 -4.83398 100.5 -18.501s32.5 -36.834 32.5 -69.501c0 -24 -6.16699 -43.667 -18.5 -59s-28.833 -26.666 -49.5 -33.999
s-43 -11 -67 -11z" />
    <glyph glyph-name="uni0163" unicode="&#x163;" horiz-adv-x="415" 
d="M281 -20c-35.333 0 -65.667 6.83203 -91 20.499s-44.666 34.334 -57.999 62.001s-20 62.5 -20 104.5v186h-83v101h83v81l122 39v-120h120v-101h-120v-158c0 -36 5.5 -63.5 16.5 -82.5s27.5 -28.5 49.5 -28.5c18 0 39.667 6.66699 65 20l24 -94
c-16 -8 -33.333 -15 -52 -21s-37.334 -9 -56.001 -9zM279.999 -239.001c-19.333 0 -37 2.50293 -53 7.50293s-30.5 11.167 -43.5 18.5s-24.833 14.666 -35.5 21.999l36 52c14 -8.66699 28.167 -15.834 42.5 -21.501s31.833 -8.5 52.5 -8.5c14 0 24 3.83301 30 11.5
s9 17.167 9 28.5c0 7.33301 -3.33301 14.5 -10 21.5s-19.667 10.5 -39 10.5h-65v97h78v-47c45.333 1.33301 78.833 -4.83398 100.5 -18.501s32.5 -36.834 32.5 -69.501c0 -24 -6.16699 -43.667 -18.5 -59s-28.833 -26.666 -49.5 -33.999s-43 -11 -67 -11z" />
    <glyph glyph-name="Tcaron" unicode="&#x164;" horiz-adv-x="605" 
d="M28 589h539v-213h-112v101h-93v-365h81v-112h-293v112h82v365h-92v-101h-112v213zM298 644l-173 120l35 53l139 -79l129 79l40 -53z" />
    <glyph glyph-name="tcaron" unicode="&#x165;" horiz-adv-x="415" 
d="M281 -20c-35.333 0 -65.667 6.83203 -91 20.499s-44.666 34.334 -57.999 62.001s-20 62.5 -20 104.5v186h-83v101h83v81l122 39v-120h120v-101h-120v-158c0 -36 5.5 -63.5 16.5 -82.5s27.5 -28.5 49.5 -28.5c18 0 39.667 6.66699 65 20l24 -94
c-16 -8 -33.333 -15 -52 -21s-37.334 -9 -56.001 -9zM183.999 579.999l-173 120l35 53l139 -79l129 79l40 -53z" />
    <glyph glyph-name="Tbar" unicode="&#x166;" horiz-adv-x="605" 
d="M28 589h539v-213h-112v101h-93v-365h81v-112h-293v112h82v365h-92v-101h-112v213zM130 335h335v-81h-335v81z" />
    <glyph glyph-name="tbar" unicode="&#x167;" horiz-adv-x="415" 
d="M281 -20c-35.333 0 -65.667 6.83203 -91 20.499s-44.666 34.334 -57.999 62.001s-20 62.5 -20 104.5v186h-83v101h83v81l122 39v-120h120v-101h-120v-158c0 -36 5.5 -63.5 16.5 -82.5s27.5 -28.5 49.5 -28.5c18 0 39.667 6.66699 65 20l24 -94
c-16 -8 -33.333 -15 -52 -21s-37.334 -9 -56.001 -9zM15.999 309.999h335v-81h-335v81z" />
    <glyph glyph-name="Utilde" unicode="&#x168;" horiz-adv-x="692" 
d="M581 212c0 -76.667 -19.668 -134.834 -59.001 -174.501s-97.666 -59.5 -174.999 -59.5c-78 0 -137 19.833 -177 59.5s-60 97.834 -60 174.501v265h-81v112h265v-112h-55v-282c0 -40 9.16699 -68.5 27.5 -85.5s45.166 -25.5 80.499 -25.5c34.667 0 60.834 9.5 78.501 28.5
s26.5 49.833 26.5 92.5v272h-55v112h266v-112h-82v-265zM199.999 677l-32.0039 67.001c22.667 17.333 42.834 30.166 60.501 38.499s38.834 12.5 63.501 12.5c18 0 34.167 -3.33301 48.5 -10s28 -13.5 41 -20.5s26.833 -10.5 41.5 -10.5s27.5 2 38.5 6s25.833 12 44.5 24
l28 -67c-18.667 -18 -36.667 -31.167 -54 -39.5s-39.666 -12.833 -66.999 -13.5c-15.333 0 -29.833 3.33301 -43.5 10l-41 20.5c-13.667 7 -28.834 10.5 -45.501 10.5c-13.333 0 -25.666 -2.33301 -36.999 -7s-26.666 -11.667 -45.999 -21z" />
    <glyph glyph-name="utilde" unicode="&#x169;" horiz-adv-x="646" 
d="M454 22c-22.667 -12.667 -47.333 -22.834 -74 -30.501s-51.667 -11.5 -75 -11.5c-70.667 0 -122.334 15.333 -155.001 46s-49 79 -49 145v182h-76v101h203v-266c0 -33.333 6.33301 -57.5 19 -72.5s33.334 -22.5 62.001 -22.5c13.333 0 29.5 2.33301 48.5 7
s36.833 10.334 53.5 17.001v236h-76v101h203v-336l87 -30l-35 -110zM153.001 542l-32.0039 67.001c22.667 17.333 42.834 30.166 60.501 38.499s38.834 12.5 63.501 12.5c18 0 34.167 -3.33301 48.5 -10s28 -13.5 41 -20.5s26.833 -10.5 41.5 -10.5s27.5 2 38.5 6
s25.833 12 44.5 24l28 -67c-18.667 -18 -36.667 -31.167 -54 -39.5s-39.666 -12.833 -66.999 -13.5c-15.333 0 -29.833 3.33301 -43.5 10l-41 20.5c-13.667 7 -28.834 10.5 -45.501 10.5c-13.333 0 -25.666 -2.33301 -36.999 -7s-26.666 -11.667 -45.999 -21z" />
    <glyph glyph-name="Umacron" unicode="&#x16a;" horiz-adv-x="692" 
d="M581 212c0 -76.667 -19.668 -134.834 -59.001 -174.501s-97.666 -59.5 -174.999 -59.5c-78 0 -137 19.833 -177 59.5s-60 97.834 -60 174.501v265h-81v112h265v-112h-55v-282c0 -40 9.16699 -68.5 27.5 -85.5s45.166 -25.5 80.499 -25.5c34.667 0 60.834 9.5 78.501 28.5
s26.5 49.833 26.5 92.5v272h-55v112h266v-112h-82v-265zM171.999 764h347v-82h-347v82z" />
    <glyph glyph-name="umacron" unicode="&#x16b;" horiz-adv-x="646" 
d="M454 22c-22.667 -12.667 -47.333 -22.834 -74 -30.501s-51.667 -11.5 -75 -11.5c-70.667 0 -122.334 15.333 -155.001 46s-49 79 -49 145v182h-76v101h203v-266c0 -33.333 6.33301 -57.5 19 -72.5s33.334 -22.5 62.001 -22.5c13.333 0 29.5 2.33301 48.5 7
s36.833 10.334 53.5 17.001v236h-76v101h203v-336l87 -30l-35 -110zM125.001 629h347v-82h-347v82z" />
    <glyph glyph-name="Ubreve" unicode="&#x16c;" horiz-adv-x="692" 
d="M581 212c0 -76.667 -19.668 -134.834 -59.001 -174.501s-97.666 -59.5 -174.999 -59.5c-78 0 -137 19.833 -177 59.5s-60 97.834 -60 174.501v265h-81v112h265v-112h-55v-282c0 -40 9.16699 -68.5 27.5 -85.5s45.166 -25.5 80.499 -25.5c34.667 0 60.834 9.5 78.501 28.5
s26.5 49.833 26.5 92.5v272h-55v112h266v-112h-82v-265zM344.999 661c-108 0 -167.667 49 -179 147l82 10c3.33301 -52.667 35.666 -79 96.999 -79c62.667 0 95.667 26.333 99 79l82 -10c-11.333 -98 -71.666 -147 -180.999 -147z" />
    <glyph glyph-name="ubreve" unicode="&#x16d;" horiz-adv-x="646" 
d="M454 22c-22.667 -12.667 -47.333 -22.834 -74 -30.501s-51.667 -11.5 -75 -11.5c-70.667 0 -122.334 15.333 -155.001 46s-49 79 -49 145v182h-76v101h203v-266c0 -33.333 6.33301 -57.5 19 -72.5s33.334 -22.5 62.001 -22.5c13.333 0 29.5 2.33301 48.5 7
s36.833 10.334 53.5 17.001v236h-76v101h203v-336l87 -30l-35 -110zM298.001 526c-108 0 -167.667 49 -179 147l82 10c3.33301 -52.667 35.666 -79 96.999 -79c62.667 0 95.667 26.333 99 79l82 -10c-11.333 -98 -71.666 -147 -180.999 -147z" />
    <glyph glyph-name="Uring" unicode="&#x16e;" horiz-adv-x="692" 
d="M581 212c0 -76.667 -19.668 -134.834 -59.001 -174.501s-97.666 -59.5 -174.999 -59.5c-78 0 -137 19.833 -177 59.5s-60 97.834 -60 174.501v265h-81v112h265v-112h-55v-282c0 -40 9.16699 -68.5 27.5 -85.5s45.166 -25.5 80.499 -25.5c34.667 0 60.834 9.5 78.501 28.5
s26.5 49.833 26.5 92.5v272h-55v112h266v-112h-82v-265zM344.999 884c33.333 0 60.166 -10.167 80.499 -30.5s30.5 -47.166 30.5 -80.499c0 -32.667 -10.167 -59.167 -30.5 -79.5s-47.166 -30.5 -80.499 -30.5c-32.667 0 -59.167 10.167 -79.5 30.5s-30.5 46.833 -30.5 79.5
c0 33.333 10.167 60.166 30.5 80.499s46.833 30.5 79.5 30.5zM344.999 826c-16 0 -28.833 -4.83301 -38.5 -14.5s-14.5 -22.5 -14.5 -38.5c0 -15.333 4.83301 -27.833 14.5 -37.5s22.5 -14.5 38.5 -14.5s28.833 4.83301 38.5 14.5s14.5 22.167 14.5 37.5
c0 16 -4.83301 28.833 -14.5 38.5s-22.5 14.5 -38.5 14.5z" />
    <glyph glyph-name="uring" unicode="&#x16f;" horiz-adv-x="646" 
d="M454 22c-22.667 -12.667 -47.333 -22.834 -74 -30.501s-51.667 -11.5 -75 -11.5c-70.667 0 -122.334 15.333 -155.001 46s-49 79 -49 145v182h-76v101h203v-266c0 -33.333 6.33301 -57.5 19 -72.5s33.334 -22.5 62.001 -22.5c13.333 0 29.5 2.33301 48.5 7
s36.833 10.334 53.5 17.001v236h-76v101h203v-336l87 -30l-35 -110zM298.001 749c33.333 0 60.166 -10.167 80.499 -30.5s30.5 -47.166 30.5 -80.499c0 -32.667 -10.167 -59.167 -30.5 -79.5s-47.166 -30.5 -80.499 -30.5c-32.667 0 -59.167 10.167 -79.5 30.5
s-30.5 46.833 -30.5 79.5c0 33.333 10.167 60.166 30.5 80.499s46.833 30.5 79.5 30.5zM298.001 691c-16 0 -28.833 -4.83301 -38.5 -14.5s-14.5 -22.5 -14.5 -38.5c0 -15.333 4.83301 -27.833 14.5 -37.5s22.5 -14.5 38.5 -14.5s28.833 4.83301 38.5 14.5
s14.5 22.167 14.5 37.5c0 16 -4.83301 28.833 -14.5 38.5s-22.5 14.5 -38.5 14.5z" />
    <glyph glyph-name="Uhungarumlaut" unicode="&#x170;" horiz-adv-x="692" 
d="M581 212c0 -76.667 -19.668 -134.834 -59.001 -174.501s-97.666 -59.5 -174.999 -59.5c-78 0 -137 19.833 -177 59.5s-60 97.834 -60 174.501v265h-81v112h265v-112h-55v-282c0 -40 9.16699 -68.5 27.5 -85.5s45.166 -25.5 80.499 -25.5c34.667 0 60.834 9.5 78.501 28.5
s26.5 49.833 26.5 92.5v272h-55v112h266v-112h-82v-265zM384.999 842l64 -72l-168 -115l-34 33zM563.999 801l42 -87l-197 -56l-24 41z" />
    <glyph glyph-name="uhungarumlaut" unicode="&#x171;" horiz-adv-x="646" 
d="M454 22c-22.667 -12.667 -47.333 -22.834 -74 -30.501s-51.667 -11.5 -75 -11.5c-70.667 0 -122.334 15.333 -155.001 46s-49 79 -49 145v182h-76v101h203v-266c0 -33.333 6.33301 -57.5 19 -72.5s33.334 -22.5 62.001 -22.5c13.333 0 29.5 2.33301 48.5 7
s36.833 10.334 53.5 17.001v236h-76v101h203v-336l87 -30l-35 -110zM290.001 770l84 -62l-162 -190l-53 35zM498.001 749l69 -75l-195 -156l-45 45z" />
    <glyph glyph-name="Uogonek" unicode="&#x172;" horiz-adv-x="692" 
d="M581 212c0 -76.667 -19.668 -134.834 -59.001 -174.501s-97.666 -59.5 -174.999 -59.5c-78 0 -137 19.833 -177 59.5s-60 97.834 -60 174.501v265h-81v112h265v-112h-55v-282c0 -40 9.16699 -68.5 27.5 -85.5s45.166 -25.5 80.499 -25.5c34.667 0 60.834 9.5 78.501 28.5
s26.5 49.833 26.5 92.5v272h-55v112h266v-112h-82v-265zM444.999 45l36.002 -35.002c-32.667 -16.667 -55.334 -34.167 -68.001 -52.5s-19 -37.5 -19 -57.5c0 -14.667 5.66699 -26.667 17 -36s25.666 -14 42.999 -14c14.667 0 31 3.66699 49 11v-76
c-17.333 -7.33301 -33.833 -12.333 -49.5 -15s-30.167 -4 -43.5 -4c-44 0 -77 9.16699 -99 27.5s-33 40.833 -33 67.5c0 36.667 13 70.334 39 101.001s68.667 58.334 128 83.001z" />
    <glyph glyph-name="uogonek" unicode="&#x173;" horiz-adv-x="646" 
d="M454 22c-22.667 -12.667 -47.333 -22.834 -74 -30.501s-51.667 -11.5 -75 -11.5c-70.667 0 -122.334 15.333 -155.001 46s-49 79 -49 145v182h-76v101h203v-266c0 -33.333 6.33301 -57.5 19 -72.5s33.334 -22.5 62.001 -22.5c13.333 0 29.5 2.33301 48.5 7
s36.833 10.334 53.5 17.001v236h-76v101h203v-336l87 -30l-35 -110zM554.001 13l36.002 -35.002c-32.667 -16.667 -55.334 -34.167 -68.001 -52.5s-19 -37.5 -19 -57.5c0 -14.667 5.66699 -26.667 17 -36s25.666 -14 42.999 -14c14.667 0 31 3.66699 49 11v-76
c-17.333 -7.33301 -33.833 -12.333 -49.5 -15s-30.167 -4 -43.5 -4c-44 0 -77 9.16699 -99 27.5s-33 40.833 -33 67.5c0 36.667 13 70.334 39 101.001s68.667 58.334 128 83.001z" />
    <glyph glyph-name="Wcircumflex" unicode="&#x174;" horiz-adv-x="941" 
d="M7 589h281v-112h-52l51 -220l26 -127l23 127l69 258h160l70 -258l23 -127l22 127l50 220h-62v112h266v-112h-63l-152 -477h-150l-56 264l-27 125l-30 -119l-67 -270h-150l-150 477h-82v112zM485 800l184 -106l-36 -47l-147 60l-152 -60l-32 47z" />
    <glyph glyph-name="wcircumflex" unicode="&#x175;" horiz-adv-x="809" 
d="M181 0l-117 353h-58v101h246v-101h-54l36 -147l28 -108l25 108l56 181h128l56 -181l25 -109l27 109l42 147h-64v101h246v-101h-56l-134 -353h-135l-73 258l-81 -258h-143zM401 691l170 -120l-40 -53l-129 79l-139 -79l-35 53z" />
    <glyph glyph-name="Ycircumflex" unicode="&#x176;" horiz-adv-x="667" 
d="M7 589h284v-112h-69l120 -161l115 161h-63v112h266v-112h-73l-185 -246v-120h94v-111h-316v111h95v120l-192 246h-76v112zM332 800l184 -106l-36 -47l-147 60l-152 -60l-32 47z" />
    <glyph glyph-name="ycircumflex" unicode="&#x177;" horiz-adv-x="616" 
d="M149 -249c-14.667 0 -29.999 1.83301 -45.999 5.5s-32.667 9.16699 -50 16.5l24 99c13.333 -5.33301 25.166 -9.33301 35.499 -12s21.833 -4 34.5 -4c15.333 0 28.333 4.16699 39 12.5s21.334 22.5 32.001 42.5s23 47 37 81l151 361h-50l6 101h248v-101h-79l-191 -424
c-28.667 -64 -57.834 -109.667 -87.501 -137s-64.167 -41 -103.5 -41zM276.001 -65l-196 418h-74v101h257v-101h-54l127 -306zM315.001 691l170 -120l-40 -53l-129 79l-139 -79l-35 53z" />
    <glyph glyph-name="Ydieresis" unicode="&#x178;" horiz-adv-x="667" 
d="M7 589h284v-112h-69l120 -161l115 161h-63v112h266v-112h-73l-185 -246v-120h94v-111h-316v111h95v120l-192 246h-76v112zM429 807c19.333 0 36.166 -7.33301 50.499 -22s21.5 -31.667 21.5 -51c0 -20 -7.16699 -37.167 -21.5 -51.5s-31.166 -21.5 -50.499 -21.5
c-20.667 0 -38.167 7.16699 -52.5 21.5s-21.5 31.5 -21.5 51.5c0 19.333 7.16699 36.333 21.5 51s31.833 22 52.5 22zM233 807c19.333 0 36.333 -7.33301 51 -22s22 -31.667 22 -51c0 -20 -7.33301 -37.167 -22 -51.5s-31.667 -21.5 -51 -21.5
c-20 0 -37.167 7.16699 -51.5 21.5s-21.5 31.5 -21.5 51.5c0 19.333 7.16699 36.333 21.5 51s31.5 22 51.5 22z" />
    <glyph glyph-name="Zacute" unicode="&#x179;" horiz-adv-x="579" 
d="M63 589h455v-80l-298 -397h187l34 93l107 -36l-58 -169h-441v89l293 388h-180l-18 -86l-112 16zM452 801l28 -103l-253 -36l-18 48z" />
    <glyph glyph-name="zacute" unicode="&#x17a;" horiz-adv-x="513" 
d="M53 0v86l242 267h-135l-12 -58l-113 22l28 137h385v-83l-246 -270h154l13 63l113 -21l-30 -143h-399zM348 770l84 -62l-162 -190l-53 35z" />
    <glyph glyph-name="Zdotaccent" unicode="&#x17b;" horiz-adv-x="579" 
d="M63 589h455v-80l-298 -397h187l34 93l107 -36l-58 -169h-441v89l293 388h-180l-18 -86l-112 16zM294 807c21.333 0 38.666 -6.66699 51.999 -20s20 -30.666 20 -51.999s-6.66699 -38.5 -20 -51.5s-30.666 -19.5 -51.999 -19.5s-38.5 6.5 -51.5 19.5
s-19.5 30.167 -19.5 51.5s6.5 38.666 19.5 51.999s30.167 20 51.5 20z" />
    <glyph glyph-name="zdotaccent" unicode="&#x17c;" horiz-adv-x="513" 
d="M53 0v86l242 267h-135l-12 -58l-113 22l28 137h385v-83l-246 -270h154l13 63l113 -21l-30 -143h-399zM256 672c21.333 0 38.666 -6.66699 51.999 -20s20 -30.666 20 -51.999s-6.66699 -38.5 -20 -51.5s-30.666 -19.5 -51.999 -19.5s-38.5 6.5 -51.5 19.5
s-19.5 30.167 -19.5 51.5s6.5 38.666 19.5 51.999s30.167 20 51.5 20z" />
    <glyph glyph-name="Zcaron" unicode="&#x17d;" horiz-adv-x="579" 
d="M63 589h455v-80l-298 -397h187l34 93l107 -36l-58 -169h-441v89l293 388h-180l-18 -86l-112 16zM295 644l-173 120l35 53l139 -79l129 79l40 -53z" />
    <glyph glyph-name="zcaron" unicode="&#x17e;" horiz-adv-x="513" 
d="M53 0v86l242 267h-135l-12 -58l-113 22l28 137h385v-83l-246 -270h154l13 63l113 -21l-30 -143h-399zM257 509l-173 120l35 53l139 -79l129 79l40 -53z" />
    <glyph glyph-name="uni018F" unicode="&#x18f;" horiz-adv-x="627" 
d="M270 611c62 0 116.001 -12.501 162.001 -37.501s81.833 -60.833 107.5 -107.5s38.5 -103.334 38.5 -170.001c0 -68 -12 -125.667 -36 -173s-57 -83.333 -99 -108s-90.333 -37 -145 -37c-50.667 0 -96.334 11.167 -137.001 33.5s-72.667 55.333 -96 99
s-35 97.167 -35 160.5v52h423c-4.66699 60 -23 105 -55 135s-75 45 -129 45c-16.667 0 -33.167 -1.33301 -49.5 -4s-31.5 -6.66699 -45.5 -12l-18 -84l-109 24l25 131c16.667 10.667 35 19.834 55 27.501s41.833 13.834 65.5 18.501s49.5 7 77.5 7zM295.001 85.999
c28.667 0 54.666 5.5 77.999 16.5s42 27.333 56 49s21 48.167 21 79.5h-296c0 -52.667 13.333 -90 40 -112s60.334 -33 101.001 -33z" />
    <glyph glyph-name="florin" unicode="&#x192;" horiz-adv-x="620" 
d="M181 -5c-29.333 0 -56.001 3.5 -80.001 10.5s-43.667 17.5 -59 31.5l55 98c27.333 -20.667 55 -31 83 -31c24 0 44.833 7.33301 62.5 22s28.834 38 33.501 70l22 157h-84l14 101h84l5 36c9.33301 62 34.833 111.333 76.5 148s95.167 55 160.5 55
c24.667 0 48 -4.33301 70 -13s39.333 -21.667 52 -39l-53 -81c-14 10 -27.167 16.833 -39.5 20.5s-27.166 5.5 -44.499 5.5c-24.667 0 -45.667 -8.83301 -63 -26.5s-28 -40.167 -32 -67.5l-5 -38h124l-14 -101h-124l-23 -165
c-8.66699 -63.333 -31.834 -111.333 -69.501 -144s-88.167 -49 -151.5 -49z" />
    <glyph glyph-name="Ohorn" unicode="&#x1a0;" horiz-adv-x="680" 
d="M339 611c58.667 0 110.501 -12.167 155.501 -36.5s80.167 -59.833 105.5 -106.5s38 -104.334 38 -173.001c0 -68 -12.667 -125.667 -38 -173s-60.333 -83.166 -105 -107.499s-96.334 -36.5 -155.001 -36.5c-58 0 -109.5 12.167 -154.5 36.5
s-80.167 60.166 -105.5 107.499s-38 105 -38 173c0 68.667 12.667 126.334 38 173.001s60.333 82.167 105 106.5s96 36.5 154 36.5zM340.001 503c-54.667 0 -95.6689 -17.5 -123.002 -52.5s-41 -86.833 -41 -155.5s13.667 -120.667 41 -156s68.333 -53 123 -53
s95.834 17.667 123.501 53s41.5 87.333 41.5 156s-13.667 120.5 -41 155.5s-68.666 52.5 -123.999 52.5zM453.999 488v101.001c46 0 69 26.333 69 79h102c0 -58.667 -14.5 -103.334 -43.5 -134.001s-71.5 -46 -127.5 -46z" />
    <glyph glyph-name="ohorn" unicode="&#x1a1;" horiz-adv-x="567" 
d="M282 474c52 0 96 -9.83398 132 -29.501s63.333 -48 82 -85s28 -81.5 28 -133.5c0 -77.333 -21 -137.666 -63 -180.999s-101.667 -65 -179 -65c-50.667 0 -93.834 9.66699 -129.501 29s-62.667 47.5 -81 84.5s-27.5 81.167 -27.5 132.5c0 52 9.16699 96.5 27.5 133.5
s45.333 65.333 81 85s78.834 29.5 129.501 29.5zM283 370.999c-38 0 -66.667 -12.333 -86 -37s-29 -60.667 -29 -108s9.66699 -83.333 29 -108s48 -37 86 -37c38.667 0 67.834 12.333 87.501 37s29.5 60.667 29.5 108s-9.83301 83.333 -29.5 108s-48.834 37 -87.501 37z
M373 352.999v101.001c46 0 69 26.333 69 79h102c0 -58.667 -14.5 -103.334 -43.5 -134.001s-71.5 -46 -127.5 -46z" />
    <glyph glyph-name="Uhorn" unicode="&#x1af;" horiz-adv-x="752" 
d="M581 212c0 -76.667 -19.668 -134.834 -59.001 -174.501s-97.666 -59.5 -174.999 -59.5c-78 0 -137 19.833 -177 59.5s-60 97.834 -60 174.501v265h-81v112h265v-112h-55v-282c0 -40 9.16699 -68.5 27.5 -85.5s45.166 -25.5 80.499 -25.5c34.667 0 60.834 9.5 78.501 28.5
s26.5 49.833 26.5 92.5v272h-55v112h184v-377zM520.999 477v112c46 0 69 26.333 69 79h102c0 -62.667 -14.5 -110.167 -43.5 -142.5s-71.5 -48.5 -127.5 -48.5z" />
    <glyph glyph-name="uhorn" unicode="&#x1b0;" horiz-adv-x="676" 
d="M454 22c-22.667 -12.667 -47.333 -22.834 -74 -30.501s-51.667 -11.5 -75 -11.5c-70.667 0 -122.334 15.333 -155.001 46s-49 79 -49 145v182h-76v101h203v-266c0 -33.333 6.33301 -57.5 19 -72.5s33.334 -22.5 62.001 -22.5c13.333 0 29.5 2.33301 48.5 7
s36.833 10.334 53.5 17.001v236h-76v101h203v-336l87 -30l-35 -110zM480.001 353v101.001c46 0 69 26.333 69 79h102c0 -58.667 -14.5 -103.334 -43.5 -134.001s-71.5 -46 -127.5 -46z" />
    <glyph glyph-name="Gcaron" unicode="&#x1e6;" horiz-adv-x="638" 
d="M577 60c-20.667 -14.667 -41.835 -28.3291 -63.502 -40.9961s-45.667 -22.667 -72 -30s-57.166 -11 -92.499 -11c-60.667 0 -114.167 13.167 -160.5 39.5s-82.5 63.166 -108.5 110.499s-39 102.666 -39 165.999s12.333 118.666 37 165.999s60.167 84.166 106.5 110.499
s101.833 39.5 166.5 39.5c41.333 0 79 -5.5 113 -16.5s63.333 -25.5 88 -43.5l33 -144l-105 -27l-24 104c-16.667 8.66699 -33.5 14.5 -50.5 17.5s-34.167 4.5 -51.5 4.5c-31.333 0 -60.666 -8.66699 -87.999 -26s-49.333 -41.833 -66 -73.5s-25 -68.834 -25 -111.501
c0 -40.667 7.16699 -76.5 21.5 -107.5s34.5 -55 60.5 -72s56 -25.5 90 -25.5c20.667 0 39.5 2.33301 56.5 7s33.833 10.334 50.5 17.001v95h-128v100h251v-248zM352.999 644.005l-173 120l35 53l139 -79l129 79l40 -53z" />
    <glyph glyph-name="gcaron" unicode="&#x1e7;" horiz-adv-x="588" 
d="M252 114c-69.333 0 -123.5 14.5 -162.5 43.5s-58.5 70.833 -58.5 125.5c0 59.333 20.333 106 61 140s94.334 51 161.001 51c25.333 0 47.666 -1.83301 66.999 -5.5s38.333 -10.5 57 -20.5l154 53l39 -112l-123 -16c11.333 -12 19 -26 23 -42s6 -30 6 -42
c0 -43.333 -10.5 -77.833 -31.5 -103.5s-48.5 -44 -82.5 -55s-70.667 -16.5 -110 -16.5zM260 -248c-42 0 -78.333 3.16797 -109 9.50098s-56.334 13.666 -77.001 21.999s-37 15.5 -49 21.5l45 100c34 -14 65.5 -24.833 94.5 -32.5s60.833 -11.5 95.5 -11.5
c30.667 0 54.334 2.66699 71.001 8s28.167 12 34.5 20s9.5 15.667 9.5 23c0 11.333 -4.16699 21.166 -12.5 29.499s-28.5 12.5 -60.5 12.5h-163v194l96 -18v-70h78c61.333 0 107.333 -13.167 138 -39.5s46 -62.833 46 -109.5c0 -38.667 -11.167 -69.667 -33.5 -93
s-51.5 -40.166 -87.5 -50.499s-74.667 -15.5 -116 -15.5zM254 206.001c33.333 0 59.166 7.83301 77.499 23.5s27.5 36.167 27.5 61.5c0 29.333 -9.16699 51.5 -27.5 66.5s-44.166 22.5 -77.499 22.5c-32.667 0 -58.334 -7.5 -77.001 -22.5s-28 -37.167 -28 -66.5
c0 -25.333 9.33301 -45.833 28 -61.5s44.334 -23.5 77.001 -23.5zM253 509.001l-173 120l35 53l139 -79l129 79l40 -53z" />
    <glyph glyph-name="uni01EA" unicode="&#x1ea;" horiz-adv-x="680" 
d="M339 611c58.667 0 110.501 -12.167 155.501 -36.5s80.167 -59.833 105.5 -106.5s38 -104.334 38 -173.001c0 -68 -12.667 -125.667 -38 -173s-60.333 -83.166 -105 -107.499s-96.334 -36.5 -155.001 -36.5c-58 0 -109.5 12.167 -154.5 36.5
s-80.167 60.166 -105.5 107.499s-38 105 -38 173c0 68.667 12.667 126.334 38 173.001s60.333 82.167 105 106.5s96 36.5 154 36.5zM340.001 503c-54.667 0 -95.6689 -17.5 -123.002 -52.5s-41 -86.833 -41 -155.5s13.667 -120.667 41 -156s68.333 -53 123 -53
s95.834 17.667 123.501 53s41.5 87.333 41.5 156s-13.667 120.5 -41 155.5s-68.666 52.5 -123.999 52.5zM447.999 45l36.002 -35.002c-32.667 -16.667 -55.334 -34.167 -68.001 -52.5s-19 -37.5 -19 -57.5c0 -14.667 5.66699 -26.667 17 -36s25.666 -14 42.999 -14
c14.667 0 31 3.66699 49 11v-76c-17.333 -7.33301 -33.833 -12.333 -49.5 -15s-30.167 -4 -43.5 -4c-44 0 -77 9.16699 -99 27.5s-33 40.833 -33 67.5c0 36.667 13 70.334 39 101.001s68.667 58.334 128 83.001z" />
    <glyph glyph-name="uni01EB" unicode="&#x1eb;" horiz-adv-x="567" 
d="M282 474c52 0 96 -9.83398 132 -29.501s63.333 -48 82 -85s28 -81.5 28 -133.5c0 -77.333 -21 -137.666 -63 -180.999s-101.667 -65 -179 -65c-50.667 0 -93.834 9.66699 -129.501 29s-62.667 47.5 -81 84.5s-27.5 81.167 -27.5 132.5c0 52 9.16699 96.5 27.5 133.5
s45.333 65.333 81 85s78.834 29.5 129.501 29.5zM283 370.999c-38 0 -66.667 -12.333 -86 -37s-29 -60.667 -29 -108s9.66699 -83.333 29 -108s48 -37 86 -37c38.667 0 67.834 12.333 87.501 37s29.5 60.667 29.5 108s-9.83301 83.333 -29.5 108s-48.834 37 -87.501 37z
M388 49.999l36.002 -35.002c-32.667 -16.667 -55.334 -34.167 -68.001 -52.5s-19 -37.5 -19 -57.5c0 -14.667 5.66699 -26.667 17 -36s25.666 -14 42.999 -14c14.667 0 31 3.66699 49 11v-76c-17.333 -7.33301 -33.833 -12.333 -49.5 -15s-30.167 -4 -43.5 -4
c-44 0 -77 9.16699 -99 27.5s-33 40.833 -33 67.5c0 36.667 13 70.334 39 101.001s68.667 58.334 128 83.001z" />
    <glyph glyph-name="Aringacute" unicode="&#x1fa;" horiz-adv-x="690" 
d="M5 0v112h99l146 365h-78v112h240l185 -477h88v-112h-265v112h49l-30 85h-193l-30 -85h55v-112h-266zM276 279h135l-67 191zM356 784c33.333 0 60.166 -10.167 80.499 -30.5s30.5 -47.166 30.5 -80.499c0 -32.667 -10.167 -59.167 -30.5 -79.5
s-47.166 -30.5 -80.499 -30.5c-32.667 0 -59.167 10.167 -79.5 30.5s-30.5 46.833 -30.5 79.5c0 33.333 10.167 60.166 30.5 80.499s46.833 30.5 79.5 30.5zM356 726c-16 0 -28.833 -4.83301 -38.5 -14.5s-14.5 -22.5 -14.5 -38.5c0 -15.333 4.83301 -27.833 14.5 -37.5
s22.5 -14.5 38.5 -14.5s28.833 4.83301 38.5 14.5s14.5 22.167 14.5 37.5c0 16 -4.83301 28.833 -14.5 38.5s-22.5 14.5 -38.5 14.5zM515 963l28 -103l-253 -36l-18 48z" />
    <glyph glyph-name="aringacute" unicode="&#x1fb;" horiz-adv-x="560" 
d="M378 17c-48 -24.667 -96.001 -37 -144.001 -37c-64.667 0 -113.667 12.167 -147 36.5s-50 59.833 -50 106.5c0 95.333 63.333 143 190 143h105c0 38.667 -8.16699 67.167 -24.5 85.5s-36.5 27.5 -60.5 27.5c-14.667 0 -28.167 -1 -40.5 -3s-24.5 -5 -36.5 -9l-9 -47
l-105 13l19 112c27.333 9.33301 55.5 16.5 84.5 21.5s59.833 7.5 92.5 7.5c66.667 0 117.834 -17.5 153.501 -52.5s53.5 -86.5 53.5 -154.5v-163l81 -26l-35 -104zM229.999 187c-20.667 0 -36.499 -5.5 -47.499 -16.5s-16.5 -26.167 -16.5 -45.5c0 -35.333 24 -53 72 -53
c33.333 0 64.666 8.66699 93.999 26v89h-102zM252 749c33.333 0 60.166 -10.167 80.499 -30.5s30.5 -47.166 30.5 -80.499c0 -32.667 -10.167 -59.167 -30.5 -79.5s-47.166 -30.5 -80.499 -30.5c-32.667 0 -59.167 10.167 -79.5 30.5s-30.5 46.833 -30.5 79.5
c0 33.333 10.167 60.166 30.5 80.499s46.833 30.5 79.5 30.5zM252 691c-16 0 -28.833 -4.83301 -38.5 -14.5s-14.5 -22.5 -14.5 -38.5c0 -15.333 4.83301 -27.833 14.5 -37.5s22.5 -14.5 38.5 -14.5s28.833 4.83301 38.5 14.5s14.5 22.167 14.5 37.5
c0 16 -4.83301 28.833 -14.5 38.5s-22.5 14.5 -38.5 14.5zM344 1065l84 -62l-162 -190l-53 35z" />
    <glyph glyph-name="AEacute" unicode="&#x1fc;" horiz-adv-x="946" 
d="M29 0v112h93l221 365h-90v112h577l62 -185l-107 -36l-36 109h-166v-123h162v-111h-162v-131h192l36 98l105 -37l-60 -173h-485v112h83v65h-171l-38 -65h51v-112h-267zM346 288h108v189zM690 801l28 -103l-253 -36l-18 48z" />
    <glyph glyph-name="aeacute" unicode="&#x1fd;" horiz-adv-x="810" 
d="M75 429c24.667 9.33301 50.1738 17.333 76.5068 24s55.166 10 86.499 10c47.333 0 85 -8 113 -24s46.333 -36.667 55 -62c22.667 28 48.667 49.333 78 64s59 22 89 22c35.333 0 66.166 -8 92.499 -24s47.666 -37.5 63.999 -64.5s27.333 -57 33 -90
s4.83398 -66.167 -2.49902 -99.5h-307c5.33301 -34 19.166 -60.333 41.499 -79s48.833 -28 79.5 -28c25.333 0 47.166 2.5 65.499 7.5s34 11 47 18s24.167 13.833 33.5 20.5l54 -70l-13.5 -13c-8.33301 -8 -20.666 -16.833 -36.999 -26.5s-37 -18.167 -62 -25.5
s-54.5 -11 -88.5 -11c-32.667 0 -62.834 3.83301 -90.501 11.5s-52.834 21.834 -75.501 42.501c-12.667 -9.33301 -28.834 -18.166 -48.501 -26.499s-40.167 -15 -61.5 -20s-42 -7.5 -62 -7.5c-61.333 0 -109.5 13 -144.5 39s-52.5 61.333 -52.5 106
c0 36.667 8.5 66.167 25.5 88.5s39.833 38.5 68.5 48.5s60.667 15 96 15h115c0 13.333 -2 25.666 -6 36.999s-13 20.666 -27 27.999s-36.333 11 -67 11c-10 0 -20.833 -0.5 -32.5 -1.5s-24.834 -2.5 -39.501 -4.5l-8 -48l-107 20zM231.007 183
c-10.667 0 -21.001 -1.66895 -31.001 -5.00195s-18 -9.16602 -24 -17.499s-9 -20.166 -9 -35.499c0 -16 7.33301 -27.667 22 -35s31.334 -11 50.001 -11c14 0 29 1.83301 45 5.5s30.667 8 44 13s23.333 9.5 30 13.5c-3.33301 11.333 -6.5 23 -9.5 35
s-4.83301 24.333 -5.5 37h-112zM660.006 276.998c0 23.333 -7.33203 43 -21.999 59s-39.334 24 -74.001 24c-27.333 0 -50.5 -7 -69.5 -21s-31.833 -34.667 -38.5 -62h204zM506.007 769.998l84 -62l-162 -190l-53 35z" />
    <glyph glyph-name="Oslashacute" unicode="&#x1fe;" horiz-adv-x="680" 
d="M133 -69l49 107l40 68l186 405l31 71l32 69h105l-51 -112l-46 -87l-182 -396l-24 -49l-35 -76h-105zM339 611c58.667 0 110.501 -12.167 155.501 -36.5s80.167 -59.833 105.5 -106.5s38 -104.334 38 -173.001c0 -68 -12.667 -125.667 -38 -173
s-60.333 -83.166 -105 -107.499s-96.334 -36.5 -155.001 -36.5c-58 0 -109.5 12.167 -154.5 36.5s-80.167 60.166 -105.5 107.499s-38 105 -38 173c0 68.667 12.667 126.334 38 173.001s60.333 82.167 105 106.5s96 36.5 154 36.5zM340.001 503
c-54.667 0 -95.6689 -17.5 -123.002 -52.5s-41 -86.833 -41 -155.5s13.667 -120.667 41 -156s68.333 -53 123 -53s95.834 17.667 123.501 53s41.5 87.333 41.5 156s-13.667 120.5 -41 155.5s-68.666 52.5 -123.999 52.5zM496.999 801l28 -103l-253 -36l-18 48z" />
    <glyph glyph-name="oslashacute" unicode="&#x1ff;" horiz-adv-x="567" 
d="M179 -78h-65l261 596h65zM282 474c52 0 96 -9.83398 132 -29.501s63.333 -48 82 -85s28 -81.5 28 -133.5c0 -77.333 -21 -137.666 -63 -180.999s-101.667 -65 -179 -65c-50.667 0 -93.834 9.66699 -129.501 29s-62.667 47.5 -81 84.5s-27.5 81.167 -27.5 132.5
c0 52 9.16699 96.5 27.5 133.5s45.333 65.333 81 85s78.834 29.5 129.501 29.5zM283 370.999c-38 0 -66.667 -12.333 -86 -37s-29 -60.667 -29 -108s9.66699 -83.333 29 -108s48 -37 86 -37c38.667 0 67.834 12.333 87.501 37s29.5 60.667 29.5 108
s-9.83301 83.333 -29.5 108s-48.834 37 -87.501 37zM375 769.999l84 -62l-162 -190l-53 35z" />
    <glyph glyph-name="uni0200" unicode="&#x200;" horiz-adv-x="690" 
d="M5 0v112h99l146 365h-78v112h240l185 -477h88v-112h-265v112h49l-30 85h-193l-30 -85h55v-112h-266zM276 279h135l-67 191zM297 842l138 -154l-34 -33l-168 115zM118 801l179 -102l-24 -41l-197 56z" />
    <glyph glyph-name="uni0201" unicode="&#x201;" horiz-adv-x="560" 
d="M378 17c-48 -24.667 -96.001 -37 -144.001 -37c-64.667 0 -113.667 12.167 -147 36.5s-50 59.833 -50 106.5c0 95.333 63.333 143 190 143h105c0 38.667 -8.16699 67.167 -24.5 85.5s-36.5 27.5 -60.5 27.5c-14.667 0 -28.167 -1 -40.5 -3s-24.5 -5 -36.5 -9l-9 -47
l-105 13l19 112c27.333 9.33301 55.5 16.5 84.5 21.5s59.833 7.5 92.5 7.5c66.667 0 117.834 -17.5 153.501 -52.5s53.5 -86.5 53.5 -154.5v-163l81 -26l-35 -104zM229.999 187c-20.667 0 -36.499 -5.5 -47.499 -16.5s-16.5 -26.167 -16.5 -45.5c0 -35.333 24 -53 72 -53
c33.333 0 64.666 8.66699 93.999 26v89h-102zM246 770l131 -217l-53 -35l-162 190zM38 749l171 -186l-45 -45l-195 156z" />
    <glyph glyph-name="uni0202" unicode="&#x202;" horiz-adv-x="690" 
d="M5 0v112h99l146 365h-78v112h240l185 -477h88v-112h-265v112h49l-30 85h-193l-30 -85h55v-112h-266zM276 279h135l-67 191zM335 828c-108 0 -167.667 -49 -179 -147l82 -10c3.33301 52.667 35.666 79 96.999 79c62.667 0 95.667 -26.333 99 -79l82 10
c-11.333 98 -71.666 147 -180.999 147z" />
    <glyph glyph-name="uni0203" unicode="&#x203;" horiz-adv-x="560" 
d="M378 17c-48 -24.667 -96.001 -37 -144.001 -37c-64.667 0 -113.667 12.167 -147 36.5s-50 59.833 -50 106.5c0 95.333 63.333 143 190 143h105c0 38.667 -8.16699 67.167 -24.5 85.5s-36.5 27.5 -60.5 27.5c-14.667 0 -28.167 -1 -40.5 -3s-24.5 -5 -36.5 -9l-9 -47
l-105 13l19 112c27.333 9.33301 55.5 16.5 84.5 21.5s59.833 7.5 92.5 7.5c66.667 0 117.834 -17.5 153.501 -52.5s53.5 -86.5 53.5 -154.5v-163l81 -26l-35 -104zM229.999 187c-20.667 0 -36.499 -5.5 -47.499 -16.5s-16.5 -26.167 -16.5 -45.5c0 -35.333 24 -53 72 -53
c33.333 0 64.666 8.66699 93.999 26v89h-102zM252 693c-108 0 -167.667 -49 -179 -147l82 -10c3.33301 52.667 35.666 79 96.999 79c62.667 0 95.667 -26.333 99 -79l82 10c-11.333 98 -71.666 147 -180.999 147z" />
    <glyph glyph-name="uni0204" unicode="&#x204;" horiz-adv-x="617" 
d="M44 589h457l62 -185l-106 -36l-37 109h-166v-123h163v-111h-163v-131h193l35 98l105 -37l-60 -173h-484v112h81l1 365h-81v112zM294 905l131 -217l-53 -35l-162 190zM86 884l171 -186l-45 -45l-195 156z" />
    <glyph glyph-name="uni0205" unicode="&#x205;" horiz-adv-x="532" 
d="M484 56c-30.667 -26 -62.5039 -45.1689 -95.5039 -57.502s-65.5 -18.5 -97.5 -18.5c-52 0 -97.333 10.5 -136 31.5s-68.5 50 -89.5 87s-31.5 79.167 -31.5 126.5c0 50 10 93.667 30 131s47.667 66.333 83 87s76.333 31 123 31c48.667 0 90.834 -9.66699 126.501 -29
s63.334 -46.166 83.001 -80.499s29.5 -74.833 29.5 -121.5c0 -8.66699 -0.5 -18.667 -1.5 -30s-2.5 -22 -4.5 -32h-348c2.66699 -22.667 10.334 -41.667 23.001 -57s28.834 -26.666 48.501 -33.999s41.167 -11 64.5 -11c28 0 55 4.66699 81 14s49.667 22.333 71 39z
M382.996 264.998c0 31.333 -9.66602 56.833 -28.999 76.5s-46 29.5 -80 29.5c-30.667 0 -57.334 -9.83301 -80.001 -29.5s-34.667 -45.167 -36 -76.5h225zM259.997 769.998l131 -217l-53 -35l-162 190zM51.9971 748.998l171 -186l-45 -45l-195 156z" />
    <glyph glyph-name="uni0206" unicode="&#x206;" horiz-adv-x="617" 
d="M44 589h457l62 -185l-106 -36l-37 109h-166v-123h163v-111h-163v-131h193l35 98l105 -37l-60 -173h-484v112h81l1 365h-81v112zM300 828c-108 0 -167.667 -49 -179 -147l82 -10c3.33301 52.667 35.666 79 96.999 79c62.667 0 95.667 -26.333 99 -79l82 10
c-11.333 98 -71.666 147 -180.999 147z" />
    <glyph glyph-name="uni0207" unicode="&#x207;" horiz-adv-x="532" 
d="M484 56c-30.667 -26 -62.5039 -45.1689 -95.5039 -57.502s-65.5 -18.5 -97.5 -18.5c-52 0 -97.333 10.5 -136 31.5s-68.5 50 -89.5 87s-31.5 79.167 -31.5 126.5c0 50 10 93.667 30 131s47.667 66.333 83 87s76.333 31 123 31c48.667 0 90.834 -9.66699 126.501 -29
s63.334 -46.166 83.001 -80.499s29.5 -74.833 29.5 -121.5c0 -8.66699 -0.5 -18.667 -1.5 -30s-2.5 -22 -4.5 -32h-348c2.66699 -22.667 10.334 -41.667 23.001 -57s28.834 -26.666 48.501 -33.999s41.167 -11 64.5 -11c28 0 55 4.66699 81 14s49.667 22.333 71 39z
M382.996 264.998c0 31.333 -9.66602 56.833 -28.999 76.5s-46 29.5 -80 29.5c-30.667 0 -57.334 -9.83301 -80.001 -29.5s-34.667 -45.167 -36 -76.5h225zM265.997 692.998c-108 0 -167.667 -49 -179 -147l82 -10c3.33301 52.667 35.666 79 96.999 79
c62.667 0 95.667 -26.333 99 -79l82 10c-11.333 98 -71.666 147 -180.999 147z" />
    <glyph glyph-name="uni0208" unicode="&#x208;" horiz-adv-x="405" 
d="M44 589h318v-112h-95v-365h95v-112h-319v112h96v365h-95v112zM196 905l131 -217l-53 -35l-162 190zM-12 884l171 -186l-45 -45l-195 156z" />
    <glyph glyph-name="uni0209" unicode="&#x209;" horiz-adv-x="360" 
d="M42 454h210v-353h83v-101h-293v101h83v252h-83v101zM172 770l131 -217l-53 -35l-162 190zM-36 749l171 -186l-45 -45l-195 156z" />
    <glyph glyph-name="uni020A" unicode="&#x20a;" horiz-adv-x="405" 
d="M44 589h318v-112h-95v-365h95v-112h-319v112h96v365h-95v112zM202 828c-108 0 -167.667 -49 -179 -147l82 -10c3.33301 52.667 35.666 79 96.999 79c62.667 0 95.667 -26.333 99 -79l82 10c-11.333 98 -71.666 147 -180.999 147z" />
    <glyph glyph-name="uni020B" unicode="&#x20b;" horiz-adv-x="360" 
d="M42 454h210v-353h83v-101h-293v101h83v252h-83v101zM178 693c98 0 150 -49.001 156 -147.001l-74 -10c-1.33301 52.667 -28.666 79 -81.999 79c-25.333 0 -45 -6.66699 -59 -20s-21 -33 -21 -59l-74 10c3.33301 48.667 18.166 85.334 44.499 110.001s62.833 37 109.5 37z
" />
    <glyph glyph-name="uni020C" unicode="&#x20c;" horiz-adv-x="680" 
d="M339 611c58.667 0 110.501 -12.167 155.501 -36.5s80.167 -59.833 105.5 -106.5s38 -104.334 38 -173.001c0 -68 -12.667 -125.667 -38 -173s-60.333 -83.166 -105 -107.499s-96.334 -36.5 -155.001 -36.5c-58 0 -109.5 12.167 -154.5 36.5
s-80.167 60.166 -105.5 107.499s-38 105 -38 173c0 68.667 12.667 126.334 38 173.001s60.333 82.167 105 106.5s96 36.5 154 36.5zM340.001 503c-54.667 0 -95.6689 -17.5 -123.002 -52.5s-41 -86.833 -41 -155.5s13.667 -120.667 41 -156s68.333 -53 123 -53
s95.834 17.667 123.501 53s41.5 87.333 41.5 156s-13.667 120.5 -41 155.5s-68.666 52.5 -123.999 52.5zM332.999 905l131 -217l-53 -35l-162 190zM124.999 884l171 -186l-45 -45l-195 156z" />
    <glyph glyph-name="uni020D" unicode="&#x20d;" horiz-adv-x="567" 
d="M282 474c52 0 96 -9.83398 132 -29.501s63.333 -48 82 -85s28 -81.5 28 -133.5c0 -77.333 -21 -137.666 -63 -180.999s-101.667 -65 -179 -65c-50.667 0 -93.834 9.66699 -129.501 29s-62.667 47.5 -81 84.5s-27.5 81.167 -27.5 132.5c0 52 9.16699 96.5 27.5 133.5
s45.333 65.333 81 85s78.834 29.5 129.501 29.5zM283 370.999c-38 0 -66.667 -12.333 -86 -37s-29 -60.667 -29 -108s9.66699 -83.333 29 -108s48 -37 86 -37c38.667 0 67.834 12.333 87.501 37s29.5 60.667 29.5 108s-9.83301 83.333 -29.5 108s-48.834 37 -87.501 37z
M277 769.999l131 -217l-53 -35l-162 190zM69 748.999l171 -186l-45 -45l-195 156z" />
    <glyph glyph-name="uni020E" unicode="&#x20e;" horiz-adv-x="680" 
d="M339 611c58.667 0 110.501 -12.167 155.501 -36.5s80.167 -59.833 105.5 -106.5s38 -104.334 38 -173.001c0 -68 -12.667 -125.667 -38 -173s-60.333 -83.166 -105 -107.499s-96.334 -36.5 -155.001 -36.5c-58 0 -109.5 12.167 -154.5 36.5
s-80.167 60.166 -105.5 107.499s-38 105 -38 173c0 68.667 12.667 126.334 38 173.001s60.333 82.167 105 106.5s96 36.5 154 36.5zM340.001 503c-54.667 0 -95.6689 -17.5 -123.002 -52.5s-41 -86.833 -41 -155.5s13.667 -120.667 41 -156s68.333 -53 123 -53
s95.834 17.667 123.501 53s41.5 87.333 41.5 156s-13.667 120.5 -41 155.5s-68.666 52.5 -123.999 52.5zM338.999 828c-108 0 -167.667 -49 -179 -147l82 -10c3.33301 52.667 35.666 79 96.999 79c62.667 0 95.667 -26.333 99 -79l82 10
c-11.333 98 -71.666 147 -180.999 147z" />
    <glyph glyph-name="uni020F" unicode="&#x20f;" horiz-adv-x="567" 
d="M282 474c52 0 96 -9.83398 132 -29.501s63.333 -48 82 -85s28 -81.5 28 -133.5c0 -77.333 -21 -137.666 -63 -180.999s-101.667 -65 -179 -65c-50.667 0 -93.834 9.66699 -129.501 29s-62.667 47.5 -81 84.5s-27.5 81.167 -27.5 132.5c0 52 9.16699 96.5 27.5 133.5
s45.333 65.333 81 85s78.834 29.5 129.501 29.5zM283 370.999c-38 0 -66.667 -12.333 -86 -37s-29 -60.667 -29 -108s9.66699 -83.333 29 -108s48 -37 86 -37c38.667 0 67.834 12.333 87.501 37s29.5 60.667 29.5 108s-9.83301 83.333 -29.5 108s-48.834 37 -87.501 37z
M283 692.999c-108 0 -167.667 -49 -179 -147l82 -10c3.33301 52.667 35.666 79 96.999 79c62.667 0 95.667 -26.333 99 -79l82 10c-11.333 98 -71.666 147 -180.999 147z" />
    <glyph glyph-name="uni0210" unicode="&#x210;" horiz-adv-x="633" 
d="M43 0v112.001h80v365h-80v112h264c63.333 0 112.333 -8.16699 147 -24.5s58.667 -39.5 72 -69.5s20 -65 20 -105c0 -66.667 -17.5 -116.334 -52.5 -149.001s-87.167 -49 -156.5 -49h-85v-80h48v-112h-257zM253 303.001l48.001 -0.000976562c28 0 50.167 2.66699 66.5 8
s28 14.333 35 27s10.5 30 10.5 52c0 22.667 -4.33301 40.334 -13 53.001s-21.334 21.5 -38.001 26.5s-37 7.5 -61 7.5h-48v-174zM425.001 0l-112 206l116 21l71 -115h104v-112h-179zM270.001 905l131 -217l-53 -35l-162 190zM62.001 884l171 -186l-45 -45l-195 156z" />
    <glyph glyph-name="uni0211" unicode="&#x211;" horiz-adv-x="492" 
d="M220 414c29.333 19.333 56.667 33.666 82 42.999s50.333 14 75 14c25.333 0 53 -5.66699 83 -17l17 -131l-105 -22l-10 54c-22.667 -2.66699 -43 -7.16699 -61 -13.5s-32.667 -14.166 -44 -23.499l-1 -217h98v-101h-308v101h84v229l-96 32l33 102zM227.001 770l131 -217
l-53 -35l-162 190zM19.001 749l171 -186l-45 -45l-195 156z" />
    <glyph glyph-name="uni0212" unicode="&#x212;" horiz-adv-x="633" 
d="M43 0v112.001h80v365h-80v112h264c63.333 0 112.333 -8.16699 147 -24.5s58.667 -39.5 72 -69.5s20 -65 20 -105c0 -66.667 -17.5 -116.334 -52.5 -149.001s-87.167 -49 -156.5 -49h-85v-80h48v-112h-257zM253 303.001l48.001 -0.000976562c28 0 50.167 2.66699 66.5 8
s28 14.333 35 27s10.5 30 10.5 52c0 22.667 -4.33301 40.334 -13 53.001s-21.334 21.5 -38.001 26.5s-37 7.5 -61 7.5h-48v-174zM425.001 0l-112 206l116 21l71 -115h104v-112h-179zM276.001 828c-108 0 -167.667 -49 -179 -147l82 -10c3.33301 52.667 35.666 79 96.999 79
c62.667 0 95.667 -26.333 99 -79l82 10c-11.333 98 -71.666 147 -180.999 147z" />
    <glyph glyph-name="uni0213" unicode="&#x213;" horiz-adv-x="492" 
d="M220 414c29.333 19.333 56.667 33.666 82 42.999s50.333 14 75 14c25.333 0 53 -5.66699 83 -17l17 -131l-105 -22l-10 54c-22.667 -2.66699 -43 -7.16699 -61 -13.5s-32.667 -14.166 -44 -23.499l-1 -217h98v-101h-308v101h84v229l-96 32l33 102zM233.001 693
c-108 0 -167.667 -49 -179 -147l82 -10c3.33301 52.667 35.666 79 96.999 79c62.667 0 95.667 -26.333 99 -79l82 10c-11.333 98 -71.666 147 -180.999 147z" />
    <glyph glyph-name="uni0214" unicode="&#x214;" horiz-adv-x="692" 
d="M581 212c0 -76.667 -19.668 -134.834 -59.001 -174.501s-97.666 -59.5 -174.999 -59.5c-78 0 -137 19.833 -177 59.5s-60 97.834 -60 174.501v265h-81v112h265v-112h-55v-282c0 -40 9.16699 -68.5 27.5 -85.5s45.166 -25.5 80.499 -25.5c34.667 0 60.834 9.5 78.501 28.5
s26.5 49.833 26.5 92.5v272h-55v112h266v-112h-82v-265zM338.999 905l131 -217l-53 -35l-162 190zM130.999 884l171 -186l-45 -45l-195 156z" />
    <glyph glyph-name="uni0215" unicode="&#x215;" horiz-adv-x="646" 
d="M454 22c-22.667 -12.667 -47.333 -22.834 -74 -30.501s-51.667 -11.5 -75 -11.5c-70.667 0 -122.334 15.333 -155.001 46s-49 79 -49 145v182h-76v101h203v-266c0 -33.333 6.33301 -57.5 19 -72.5s33.334 -22.5 62.001 -22.5c13.333 0 29.5 2.33301 48.5 7
s36.833 10.334 53.5 17.001v236h-76v101h203v-336l87 -30l-35 -110zM292.001 770l131 -217l-53 -35l-162 190zM84.001 749l171 -186l-45 -45l-195 156z" />
    <glyph glyph-name="uni0216" unicode="&#x216;" horiz-adv-x="692" 
d="M581 212c0 -76.667 -19.668 -134.834 -59.001 -174.501s-97.666 -59.5 -174.999 -59.5c-78 0 -137 19.833 -177 59.5s-60 97.834 -60 174.501v265h-81v112h265v-112h-55v-282c0 -40 9.16699 -68.5 27.5 -85.5s45.166 -25.5 80.499 -25.5c34.667 0 60.834 9.5 78.501 28.5
s26.5 49.833 26.5 92.5v272h-55v112h266v-112h-82v-265zM344.999 828c-108 0 -167.667 -49 -179 -147l82 -10c3.33301 52.667 35.666 79 96.999 79c62.667 0 95.667 -26.333 99 -79l82 10c-11.333 98 -71.666 147 -180.999 147z" />
    <glyph glyph-name="uni0217" unicode="&#x217;" horiz-adv-x="646" 
d="M454 22c-22.667 -12.667 -47.333 -22.834 -74 -30.501s-51.667 -11.5 -75 -11.5c-70.667 0 -122.334 15.333 -155.001 46s-49 79 -49 145v182h-76v101h203v-266c0 -33.333 6.33301 -57.5 19 -72.5s33.334 -22.5 62.001 -22.5c13.333 0 29.5 2.33301 48.5 7
s36.833 10.334 53.5 17.001v236h-76v101h203v-336l87 -30l-35 -110zM298.001 693c-108 0 -167.667 -49 -179 -147l82 -10c3.33301 52.667 35.666 79 96.999 79c62.667 0 95.667 -26.333 99 -79l82 10c-11.333 98 -71.666 147 -180.999 147z" />
    <glyph glyph-name="uni0218" unicode="&#x218;" horiz-adv-x="568" 
d="M285 -22c-50 0 -92.998 3.66504 -128.998 10.998s-67.333 16.333 -94 27l-18 142l104 13l10 -72c19.333 -6.66699 39 -11.5 59 -14.5s39.333 -4.5 58 -4.5c25.333 0 48.666 3 69.999 9s38.333 15 51 27s19 27 19 45c0 18.667 -6.33301 34.834 -19 48.501
s-40 24.167 -82 31.5l-71 13c-60.667 11.333 -107.334 31.5 -140.001 60.5s-49 67.833 -49 116.5c0 41.333 11.333 75.333 34 102s52.5 46.334 89.5 59.001s76.5 19 118.5 19c21.333 0 42.666 -1.5 63.999 -4.5s42.333 -7.33301 63 -13s40.334 -12.834 59.001 -21.501
l20 -155l-113 -12l-13 93c-14 4.66699 -28.167 8.16699 -42.5 10.5s-28.5 3.5 -42.5 3.5c-38 0 -67.667 -6.5 -89 -19.5s-32 -29.833 -32 -50.5c0 -22 7.66699 -39 23 -51s42.666 -21.667 81.999 -29l69 -12c67.333 -10 114.833 -29.5 142.5 -58.5s41.5 -67.167 41.5 -114.5
c0 -41.333 -7.66699 -75 -23 -101s-35.333 -46.167 -60 -60.5s-51.167 -24.166 -79.5 -29.499s-55.166 -8 -80.499 -8zM249.002 -343.002l-38 42.998l9 12c6 8 12.833 17.833 20.5 29.5s14.167 23.167 19.5 34.5c-22.667 5.33301 -38.667 15.333 -48 30s-14 30 -14 46
c0 24.667 8 44.5 24 59.5s36.333 22.5 61 22.5c22 0 41.833 -8.66699 59.5 -26s26.5 -37.666 26.5 -60.999c0 -22.667 -4.83301 -44.167 -14.5 -64.5s-21.5 -38.666 -35.5 -54.999s-27.5 -30.5 -40.5 -42.5s-22.833 -21.333 -29.5 -28z" />
    </font>
</defs>
</svg>
