<?xml version="1.0" standalone="no"?>
<!DOCTYPE svg PUBLIC "-//W3C//DTD SVG 1.1//EN" "http://www.w3.org/Graphics/SVG/1.1/DTD/svg11.dtd" >
<svg>
<metadata>
Created by FontForge 20090914 at Fri Aug  7 11:43:43 2020
 By www-data
Copyright 2013 The Exo 2 Project Authors (https://github.com/NDISCOVER/Exo-2.0)
</metadata>
<defs>
<font id="Exo2-MediumItalic" horiz-adv-x="569" >
  <font-face 
    font-family="Exo 2 Medium"
    font-weight="500"
    font-style="italic"
    font-stretch="normal"
    units-per-em="1000"
    panose-1="0 0 0 0 0 0 0 0 0 0"
    ascent="800"
    descent="-200"
    x-height="488"
    cap-height="690"
    bbox="-401 -280.676 1232 1058"
    underline-thickness="50"
    underline-position="-75"
    slope="-8"
    unicode-range="U+000D-U+FB02"
  />
<missing-glyph horiz-adv-x="618" 
d="M198 690l-98 -690h-41l98 690h41zM587 690l-98 -690h-41l98 690h41zM157 690h430l-5 -41h-430zM65 41h430l-6 -41h-430z" />
    <glyph glyph-name="fi" unicode="fi" horiz-adv-x="614" 
d="M313 718c10.667 0 23.501 -0.332031 38.501 -0.999023s30.167 -1.5 45.5 -2.5s28.666 -2.5 39.999 -4.5l-8 -69h-85c-30.667 0 -53.5 -6.83301 -68.5 -20.5s-24.833 -36.834 -29.5 -69.501l-87 -608c-6 -45.333 -21.667 -80.5 -47 -105.5s-62 -37.5 -110 -37.5
c-15.333 0 -33 0.5 -53 1.5s-42.333 3.16699 -67 6.5l15 69h74c30 0 52 5.5 66 16.5s23.333 32.5 28 64.5l86 608c4.66699 32.667 13 60.167 25 82.5s29.167 39.5 51.5 51.5s50.833 18 85.5 18zM477.001 488.001l-10 -72h-424l9 67l92 5h333zM565.001 488.001l-69 -488h-97
l69 488h97zM565.001 698.001c10.667 0 18.167 -2.83398 22.5 -8.50098s5.83301 -13.167 4.5 -22.5l-7 -57c-1.33301 -9.33301 -4.33301 -16.166 -9 -20.499s-12 -6.5 -22 -6.5h-45c-9.33301 0 -16.333 2.83301 -21 8.5s-6.66699 13.5 -6 23.5l8 55
c1.33301 9.33301 4.33301 16.333 9 21s11.667 7 21 7h45z" />
    <glyph glyph-name="fl" unicode="fl" horiz-adv-x="673" 
d="M312 718c14.667 0 31.668 -0.170898 51.001 -0.503906s40.166 -0.666016 62.499 -0.999023s44.5 -1.16602 66.5 -2.49902s42.667 -2.66602 62 -3.99902s36 -3.33301 50 -6l-78 -577c-2.66699 -20.667 0 -36 8 -46s22.333 -15 43 -15h48l4 -62
c-6 -3.33301 -15 -5.83301 -27 -7.5s-23.833 -3 -35.5 -4s-21.167 -1.5 -28.5 -1.5c-39.333 0 -69.166 10.5 -89.499 31.5s-27.833 49.833 -22.5 86.5l75 533h-157c-31.333 0 -54.5 -6.83301 -69.5 -20.5s-24.833 -37.167 -29.5 -70.5l-86 -608
c-6 -45.333 -21.667 -80.5 -47 -105.5s-62 -37.5 -110 -37.5c-15.333 0 -33 0.5 -53 1.5s-42.333 3.16699 -67 6.5l15 69h74c30 0 52 5.5 66 16.5s23.333 32.5 28 64.5l85 608c7.33301 48.667 23.166 86.334 47.499 113.001s62.5 39.667 114.5 39zM379.001 487.996l-10 -72
h-327l9 67l92 5h236z" />
    <glyph glyph-name="f_f" unicode="ff" horiz-adv-x="719" 
d="M312 705c11.333 0 25.498 -0.166992 42.498 -0.5s34.333 -1 52 -2s32.834 -2.5 45.501 -4.5l-14 -70h-95c-30.667 0 -53.167 -5.33301 -67.5 -16s-24.166 -32 -29.499 -64l-87 -605c-6.66699 -45.333 -22.5 -80.5 -47.5 -105.5s-61.5 -37.5 -109.5 -37.5
c-15.333 0 -33 0.5 -53 1.5s-42.333 3.16699 -67 6.5l15 69h74c30 0 52.167 5.5 66.5 16.5s23.5 32.5 27.5 64.5l87 605c6 45.333 22 80.333 48 105s63.333 37 112 37zM650.998 718c11.333 0 25.667 -0.333008 43 -1s35 -1.5 53 -2.5s33.333 -2.5 46 -4.5l-15 -69h-96
c-30.667 0 -53.167 -5.5 -67.5 -16.5s-24.166 -32.5 -29.499 -64.5l-85 -601c-6.66699 -45.333 -22.667 -80.5 -48 -105.5s-62 -37.5 -110 -37.5c-15.333 0 -32.833 0.5 -52.5 1.5s-41.834 3.16699 -66.501 6.5l15 69h72c30.667 0 53 5.5 67 16.5s23.333 32.5 28 64.5
l85 601c6.66699 45.333 23 80.5 49 105.5s63.333 37.5 112 37.5zM725.999 488l-10 -72h-674l9 67l92 5h583z" />
    <glyph glyph-name="f_f_i" unicode="ffi" horiz-adv-x="951" 
d="M312 705c11.333 0 25.498 -0.166992 42.498 -0.5s34.333 -1 52 -2s32.834 -2.5 45.501 -4.5l-14 -70h-95c-30.667 0 -53.167 -5.33301 -67.5 -16s-24.166 -32 -29.499 -64l-87 -605c-6.66699 -45.333 -22.5 -80.5 -47.5 -105.5s-61.5 -37.5 -109.5 -37.5
c-15.333 0 -33 0.5 -53 1.5s-42.333 3.16699 -67 6.5l15 69h74c30 0 52.167 5.5 66.5 16.5s23.5 32.5 27.5 64.5l87 605c6 45.333 22 80.333 48 105s63.333 37 112 37zM650.998 718c11.333 0 25.5 -0.333008 42.5 -1s34.167 -1.5 51.5 -2.5s32.333 -2.5 45 -4.5l-14 -69h-94
c-30.667 0 -53.167 -5.5 -67.5 -16.5s-24.166 -32.5 -29.499 -64.5l-85 -601c-6.66699 -45.333 -22.667 -80.5 -48 -105.5s-62 -37.5 -110 -37.5c-15.333 0 -32.833 0.5 -52.5 1.5s-41.834 3.16699 -66.501 6.5l15 69h72c30.667 0 53 5.5 67 16.5s23.333 32.5 28 64.5
l85 601c6.66699 45.333 23 80.5 49 105.5s63.333 37.5 112 37.5zM841.998 488l-10 -72h-790l9 67l92 5h699zM901.998 488l-69 -488h-97l69 488h97zM900.998 698c10.667 0 18.333 -2.83398 23 -8.50098s6.33398 -13.167 5.00098 -22.5l-7 -57
c-2 -9.33301 -5.16699 -16.166 -9.5 -20.499s-11.5 -6.5 -21.5 -6.5h-44c-10 0 -17.5 2.83301 -22.5 8.5s-6.83301 13.5 -5.5 23.5l8 55c1.33301 9.33301 4.16602 16.333 8.49902 21s11.5 7 21.5 7h44z" />
    <glyph glyph-name="f_f_l" unicode="ffl" horiz-adv-x="1011" 
d="M312 705c11.333 0 25.498 -0.166992 42.498 -0.5s34.333 -1 52 -2s32.834 -2.5 45.501 -4.5l-14 -70h-95c-30.667 0 -53.167 -5.33301 -67.5 -16s-24.166 -32 -29.499 -64l-87 -605c-6.66699 -45.333 -22.5 -80.5 -47.5 -105.5s-61.5 -37.5 -109.5 -37.5
c-15.333 0 -33 0.5 -53 1.5s-42.333 3.16699 -67 6.5l15 69h74c30 0 52.167 5.5 66.5 16.5s23.5 32.5 27.5 64.5l87 605c6 45.333 22 80.333 48 105s63.333 37 112 37zM715.998 488l-10 -72h-664l9 67l92 5h573zM648.998 718c14.667 0 31.8359 -0.170898 51.5029 -0.503906
s40.5 -0.666016 62.5 -0.999023s44 -1.16602 66 -2.49902s42.667 -2.66602 62 -3.99902s36 -3.33301 50 -6l-79 -577c-2.66699 -20.667 0.166016 -36 8.49902 -46s22.833 -15 43.5 -15h48l5 -62c-6.66699 -3.33301 -16 -5.83301 -28 -7.5s-23.833 -3 -35.5 -4
s-21.5 -1.5 -29.5 -1.5c-39.333 0 -68.833 10.5 -88.5 31.5s-27.167 49.833 -22.5 86.5l75 533h-158c-30.667 0 -53.334 -6.83301 -68.001 -20.5s-24.667 -37.167 -30 -70.5l-84 -592c-6.66699 -45.333 -22.667 -80.5 -48 -105.5s-62 -37.5 -110 -37.5
c-14.667 0 -32 0.5 -52 1.5s-42 3.16699 -66 6.5l14 69h73c30 0 52.167 5.5 66.5 16.5s23.5 32.5 27.5 64.5l84 592c7.33301 48.667 23.166 86.334 47.499 113.001s62.5 39.667 114.5 39z" />
    <glyph glyph-name=".notdef" horiz-adv-x="618" 
d="M198 690l-98 -690h-41l98 690h41zM587 690l-98 -690h-41l98 690h41zM157 690h430l-5 -41h-430zM65 41h430l-6 -41h-430z" />
    <glyph glyph-name="CR" unicode="&#xd;" horiz-adv-x="222" 
 />
    <glyph glyph-name="space" unicode=" " horiz-adv-x="222" 
 />
    <glyph glyph-name="exclam" unicode="!" horiz-adv-x="276" 
d="M242 695l-42 -299l-35 -183h-76l16 183l42 299h95zM125 124c12.667 0 21.666 -3 26.999 -9s7 -15.333 5 -28l-7 -53c-1.33301 -11.333 -5 -19.833 -11 -25.5s-14.667 -8.5 -26 -8.5h-25c-25.333 -0 -36.666 12.333 -33.999 37l8 55c3.33301 21.333 16 32 38 32h25z" />
    <glyph glyph-name="quotedbl" unicode="&#x22;" horiz-adv-x="354" 
d="M344 690l-36 -216h-64l24 216h76zM197 690l-37 -216h-64l25 216h76z" />
    <glyph glyph-name="numbersign" unicode="#" horiz-adv-x="688" 
d="M623 690l-217 -690h-75l217 690h75zM601 271l-19 -61h-553l20 61h552zM372 690l-217 -690h-75l217 690h75zM677 505l-21 -61h-552l21 61h552z" />
    <glyph glyph-name="dollar" unicode="$" horiz-adv-x="566" 
d="M335 702c34 -0.666992 68.835 -2.33496 104.502 -5.00195s70.167 -8 103.5 -16l-11 -71c-22 1.33301 -44 2.16602 -66 2.49902l-66 1c-22 0.333008 -45 0.5 -69 0.5c-21.333 0 -40.166 -0.5 -56.499 -1.5s-30.5 -4.16699 -42.5 -9.5s-21.667 -14.666 -29 -27.999
s-12.666 -32 -15.999 -56c-2.66699 -21.333 -2.5 -38.333 0.5 -51s9.66699 -22.667 20 -30s25.5 -14.666 45.5 -21.999l133 -51c34.667 -13.333 61 -28.666 79 -45.999s29.667 -38.166 35 -62.499s5.66602 -53.5 0.999023 -87.5c-6.66699 -50 -19.834 -88 -39.501 -114
s-47.334 -43.667 -83.001 -53s-81.5 -14 -137.5 -14c-21.333 0 -50.833 1.16699 -88.5 3.5s-79.834 7.83301 -126.501 16.5l12 73c39.333 -1.33301 71.333 -2.5 96 -3.5s45.167 -1.5 61.5 -1.5h44.5c37.333 0 66.833 2.5 88.5 7.5s38.167 14.5 49.5 28.5s19 36 23 66
c2.66699 22 2.5 39.167 -0.5 51.5s-9.66699 22.333 -20 30s-25.5 14.834 -45.5 21.501l-136 52c-32.667 12.667 -58 28.167 -76 46.5s-29.667 39.666 -35 63.999s-5.66602 52.166 -0.999023 83.499c5.33301 38.667 14.5 69.667 27.5 93s30 40.833 51 52.5
s45.667 19.5 74 23.5s60.166 6 95.499 6zM273.002 353.999l42 -2l-103 -477h-43zM421.002 797.999l-98 -446l-42 2l96 444h44z" />
    <glyph glyph-name="percent" unicode="%" horiz-adv-x="896" 
d="M759 690l-538 -690h-72l538 690h72zM258 644c-26 0 -46.332 -4.66699 -60.999 -14s-25.834 -25 -33.501 -47s-14.167 -51.333 -19.5 -88c-4.66699 -36 -6 -64.5 -4 -85.5s8.5 -35.833 19.5 -44.5s27.167 -13 48.5 -13c26 0 46.333 4.66699 61 14s26.167 25 34.5 47
s14.833 51.333 19.5 88c4.66699 36 6.16699 64.5 4.5 85.5s-8.16699 35.833 -19.5 44.5s-28 13 -50 13zM256.001 703c41.333 0 73.3301 -7.16699 95.9971 -21.5s37.334 -36.666 44.001 -66.999s6.66699 -70.166 0 -119.499c-6.66699 -48.667 -17.167 -87.834 -31.5 -117.501
s-33.666 -51.167 -57.999 -64.5s-56.5 -20 -96.5 -20s-71.333 7.16699 -94 21.5s-37.334 36.833 -44.001 67.5s-6.66699 70.334 0 119.001c7.33301 49.333 17.833 88.666 31.5 117.999s32.834 50.666 57.501 63.999s56.334 20 95.001 20zM700.998 341
c-25.333 0 -45.3311 -4.83203 -59.998 -14.499s-25.834 -25.5 -33.501 -47.5s-14.167 -51.667 -19.5 -89c-4.66699 -35.333 -6.16699 -63.5 -4.5 -84.5s8 -35.833 19 -44.5s27.5 -13 49.5 -13c26 0 46.333 4.66699 61 14s26.167 25.166 34.5 47.499s14.5 51.833 18.5 88.5
c5.33301 36 7.16602 64.333 5.49902 85s-8.16699 35.5 -19.5 44.5s-28.333 13.5 -51 13.5zM700 400.001c40.667 0 72.498 -7.16797 95.498 -21.501s37.833 -36.833 44.5 -67.5s6.33398 -71 -0.999023 -121c-6.66699 -48 -17.167 -86.667 -31.5 -116
s-33.666 -50.666 -57.999 -63.999s-56.5 -20 -96.5 -20s-71.333 7 -94 21s-37.334 36.333 -44.001 67s-6.33398 70.667 0.999023 120c6.66699 49.333 16.834 88.5 30.501 117.5s32.834 50.333 57.501 64s56.667 20.5 96 20.5z" />
    <glyph glyph-name="ampersand" unicode="&#x26;" horiz-adv-x="755" 
d="M379 700c27.333 0 54.334 -1.33203 81.001 -3.99902s56.334 -8.33398 89.001 -17.001l-17 -73c-21.333 5.33301 -45.333 9.16602 -72 11.499s-52.667 3.5 -78 3.5c-37.333 0 -67.5 -2.83301 -90.5 -8.5s-40.5 -16.834 -52.5 -33.501s-20.333 -41.334 -25 -74.001
c-4.66699 -29.333 -4.16699 -52.166 1.5 -68.499s17.834 -27.5 36.501 -33.5s44 -9 76 -9h402l-11 -73h-401c-36 0 -65.5 -3.66699 -88.5 -11s-41 -20.5 -54 -39.5s-22.5 -46.167 -28.5 -81.5c-3.33301 -23.333 -3.83301 -42.5 -1.5 -57.5s7.66602 -26.667 15.999 -35
s19.833 -14.333 34.5 -18s33 -5.5 55 -5.5c54.667 0 100.167 9.33301 136.5 28s65.833 45.334 88.5 80.001c27.333 40 44.833 88.5 52.5 145.5s11.167 120.833 10.5 191.5h86c1.33301 -77.333 -2.83398 -147.166 -12.501 -209.499s-28.834 -116.833 -57.501 -163.5
c-20 -34.667 -45.167 -63.5 -75.5 -86.5s-65.166 -40.167 -104.499 -51.5s-84 -17.333 -134 -18c-52 0 -93.667 6 -125 18s-53 32 -65 60s-15.333 65.333 -10 112c5.33301 36.667 14.833 67.667 28.5 93s32.167 45.166 55.5 59.499s52.333 22.5 87 24.5l1 5
c-28 2 -50.167 9.83301 -66.5 23.5s-26.833 32.334 -31.5 56.001s-4.33398 51.5 0.999023 83.5c8.66699 50.667 24 88.5 46 113.5s51.167 41.667 87.5 50s79.5 12.5 129.5 12.5z" />
    <glyph glyph-name="quotesingle" unicode="'" horiz-adv-x="207" 
d="M197 690l-37 -216h-64l25 216h76z" />
    <glyph glyph-name="parenleft" unicode="(" horiz-adv-x="358" 
d="M385 791l11.002 -47c-68.667 -31.333 -123.334 -82.333 -164.001 -153s-68.667 -164.334 -84 -281.001c-10.667 -73.333 -13.834 -138.166 -9.50098 -194.499s17.166 -104 38.499 -143s52 -69.833 92 -92.5l-12 -44c-87.333 34.667 -147.666 91.5 -180.999 170.5
s-41 182.5 -23 310.5c18.667 128 54.5 230.5 107.5 307.5s127.833 132.5 224.5 166.5z" />
    <glyph glyph-name="parenright" unicode=")" horiz-adv-x="358" 
d="M107 789c87.333 -33.333 147.833 -89.167 181.5 -167.5s41.167 -183.166 22.5 -314.499c-18.667 -127.333 -54.5 -229.333 -107.5 -306s-127.833 -132.334 -224.5 -167.001l-11 47c70 33.333 125 86.333 165 159s68 164.667 84 276c10.667 74 13.667 139.333 9 196
s-17.667 104.5 -39 143.5s-52.333 68.833 -93 89.5z" />
    <glyph glyph-name="asterisk" unicode="*" horiz-adv-x="449" 
d="M309 691l-32 -162l85 -129l-48 -34l-60 123l-93 -122l-44 35l120 127l14 162h58zM107 603l116 -46l-3 -25l-14 -15l-121 33zM423 603l12 -57l-128 -30l-11 16l2 25z" />
    <glyph glyph-name="plus" unicode="+" horiz-adv-x="544" 
d="M340 510l-59 -422h-74l59 422h74zM499 336l-10 -73h-441l10 73h441z" />
    <glyph glyph-name="comma" unicode="," horiz-adv-x="230" 
d="M106 124c13.333 0 22.333 -2.83398 27 -8.50098s6 -15.167 4 -28.5l-9 -64c-2 -17.333 -5.83301 -35.166 -11.5 -53.499s-12.5 -36.5 -20.5 -54.5s-17 -35 -27 -51l-46 17l18.5 57.5c5.66699 18.333 10.834 39.5 15.501 63.5
c-10.667 -0.666992 -18.334 1.83301 -23.001 7.5s-6.66699 13.5 -6 23.5l8 57c2.66699 13.333 7 22.333 13 27s16 7 30 7h27z" />
    <glyph glyph-name="hyphen" unicode="-" horiz-adv-x="441" 
d="M371 288l-9 -70h-304l10 70h303z" />
    <glyph glyph-name="period" unicode="." horiz-adv-x="228" 
d="M104 124c12.667 0 21.666 -3 26.999 -9s7 -15.333 5 -28l-7 -53c-1.33301 -11.333 -5 -19.833 -11 -25.5s-15 -8.5 -27 -8.5h-29c-25.333 -0 -36.666 12.333 -33.999 37l8 55c3.33301 21.333 16.333 32 39 32h29z" />
    <glyph glyph-name="slash" unicode="/" horiz-adv-x="531" 
d="M559 690l-499 -757h-82l499 757h82z" />
    <glyph glyph-name="zero" unicode="0" horiz-adv-x="606" 
d="M269 -13c-46.667 0 -85.667 7.83301 -117 23.5s-55 40.334 -71 74.001s-23.667 76.5 -23 128.5c0 44 2.5 89.167 7.5 135.5s13.5 90.666 25.5 132.999s29.167 80 51.5 113s50.333 59.333 84 79s75.167 29.5 124.5 29.5c48 0 87.667 -7.83301 119 -23.5
s54.833 -40 70.5 -73s23.5 -75.5 23.5 -127.5c0 -45.333 -2.33301 -91.5 -7 -138.5s-13 -91.667 -25 -134s-29 -80 -51 -113s-50.167 -59 -84.5 -78s-76.833 -28.5 -127.5 -28.5zM275 72c36.667 0 66.6689 8.66699 90.002 26s42 40.333 56 69s24.167 60.667 30.5 96
s10.5 71.5 12.5 108.5s3.33301 71.167 4 102.5c0 52 -10.333 89 -31 111s-52 33 -94 33c-34.667 0 -63.334 -8.66699 -86.001 -26s-41 -40.333 -55 -69s-24.333 -60.667 -31 -96s-11.167 -71.5 -13.5 -108.5s-3.5 -71.167 -3.5 -102.5
c-0.666992 -52 9.16602 -89 29.499 -111s50.833 -33 91.5 -33z" />
    <glyph glyph-name="one" unicode="1" horiz-adv-x="402" 
d="M350 690l-96.999 -690h-99l75 538c1.33301 10.667 3.16602 21.167 5.49902 31.5s4.83301 20.833 7.5 31.5l-175 -53l-3 71l186 71h100z" />
    <glyph glyph-name="two" unicode="2" horiz-adv-x="560" 
d="M323 702c40 0 75.1641 -3.16992 105.497 -9.50293s54 -18.666 71 -36.999s25.5 -45.166 25.5 -80.499c0 -36 -6.66699 -69.167 -20 -99.5s-31.666 -59.5 -54.999 -87.5s-50 -56.667 -80 -86l-222 -213c17.333 2 35.166 3.33301 53.499 4s35.833 1 52.5 1h230l-13 -94
h-460l9 62c1.33301 8.66699 3 16.5 5 23.5s5.66699 13.167 11 18.5l227 218c28 26 54.167 52.5 78.5 79.5s44 53.833 59 80.5s22.5 52.667 22.5 78c0 16.667 -4.16699 28.834 -12.5 36.501s-20.666 12.667 -36.999 15s-35.833 3.5 -58.5 3.5s-44.167 -0.333008 -64.5 -1
s-41.5 -2.16699 -63.5 -4.5s-48 -5.5 -78 -9.5v76c32.667 7.33301 61.334 12.833 86.001 16.5s47.334 6.16699 68.001 7.5s40.667 2 60 2z" />
    <glyph glyph-name="three" unicode="3" horiz-adv-x="552" 
d="M310 703c72 0 123.166 -11.167 153.499 -33.5s45.5 -56.833 45.5 -103.5c0 -30.667 -4.66699 -61 -14 -91s-23.333 -55.167 -42 -75.5s-42 -31.833 -70 -34.5l-1 -4c34.667 -6 60.5 -19.833 77.5 -41.5s25.5 -49.834 25.5 -84.501c0 -52 -10.5 -96.167 -31.5 -132.5
s-51.5 -64.333 -91.5 -84s-88.667 -30.167 -146 -31.5c-29.333 -0.666992 -61.333 0.5 -96 3.5s-70.667 7.83301 -108 14.5l11 76c24 -1.33301 46.167 -3 66.5 -5s40.5 -3.33301 60.5 -4s39.333 0 58 2c57.333 4 101.166 20 131.499 48s45.5 67 45.5 117
c0 16 -3.5 30.333 -10.5 43s-18.667 23 -35 31s-38.833 12 -67.5 12l-131 1l10 73h127c47.333 0.666992 81.833 13.834 103.5 39.501s32.5 63.167 32.5 112.5c0 26 -8.66699 43.5 -26 52.5s-50 13.5 -98 13.5c-26 0 -55.333 -0.833008 -88 -2.5l-86 -4.5l-2 75
c36.667 6 71.834 10.5 105.501 13.5s63.834 4.5 90.501 4.5z" />
    <glyph glyph-name="four" unicode="4" horiz-adv-x="614" 
d="M390 690l-244.999 -408c-8 -12 -10.5 -21.333 -7.5 -28s10.5 -10 22.5 -10h408l-10 -68l-91 -10h-360c-22.667 0 -40.834 5.83301 -54.501 17.5s-21.667 26.5 -24 44.5s2.16699 35.667 13.5 53l248 409h100zM524.001 558l-78 -558h-94l62 444l34 114h76z" />
    <glyph glyph-name="five" unicode="5" horiz-adv-x="535" 
d="M520 690l-17 -82.0029h-287l-34 -178l72 -7c47.333 -3.33301 87.333 -11.166 120 -23.499s57.5 -30.666 74.5 -54.999s25.5 -55.833 25.5 -94.5c0 -79.333 -22.5 -141.833 -67.5 -187.5s-108.5 -70.5 -190.5 -74.5c-28 -1.33301 -59.5 -0.166016 -94.5 3.50098
s-70.833 10.5 -107.5 20.5l17 80c30 -7.33301 59 -12.333 87 -15s53.667 -3.33398 77 -2.00098c58 3.33301 102.667 19 134 47s47 70 47 126c0 24 -6 42.833 -18 56.5s-31.333 23.334 -58 29.001s-61.334 9.5 -104.001 11.5l-69 6c-12.667 1.33301 -22.667 6.5 -30 15.5
s-9.66602 19.833 -6.99902 32.5l56 291h374z" />
    <glyph glyph-name="six" unicode="6" horiz-adv-x="572" 
d="M378 702c10 0 23.335 -0.163086 40.002 -0.496094s35.167 -1.5 55.5 -3.5s39.5 -6 57.5 -12l-18 -70c-14.667 1.33301 -28.834 2.33301 -42.501 3s-28.167 1 -43.5 1h-54c-30.667 0 -57.167 -4 -79.5 -12s-41.666 -22.333 -57.999 -43s-30.166 -50.334 -41.499 -89.001
s-21.333 -89 -30 -151c-6 -48 -10.333 -88.167 -13 -120.5s-1 -58.333 5 -78s17.667 -34 35 -43s42.666 -13.5 75.999 -13.5c38 0 68.5 9.16699 91.5 27.5s39.333 43.666 49 75.999s14.834 69.166 15.501 110.499c0 28.667 -6.33301 50.5 -19 65.5s-38 22.5 -76 22.5
c-33.333 0 -66 -8.83301 -98 -26.5s-67.667 -47.5 -107 -89.5l-1 58c25.333 33.333 49.666 60 72.999 80s47.833 34.333 73.5 43s54.5 13 86.5 13c56 0 97 -12.333 123 -37s39 -59.334 39 -104.001c0 -66.667 -8.83301 -124 -26.5 -172s-45.5 -84.833 -83.5 -110.5
s-88 -38.5 -150 -38.5c-45.333 0 -82.333 5.83301 -111 17.5s-50.334 30.667 -65.001 57s-22.834 61.333 -24.501 105s1.83301 97.5 10.5 161.5c11.333 78.667 25.333 142.5 42 191.5s37.5 86.667 62.5 113s54.5 44.333 88.5 54s73.333 14.5 118 14.5z" />
    <glyph glyph-name="seven" unicode="7" horiz-adv-x="514" 
d="M483 690c23.333 0 38.5 -5.83203 45.5 -17.499s5.83301 -27.834 -3.5 -48.501l-303 -624h-99l268 554c4.66699 9.33301 9.5 18.5 14.5 27.5s10.5 17.833 16.5 26.5l-341 -2l7 84h395z" />
    <glyph glyph-name="eight" unicode="8" horiz-adv-x="609" 
d="M354 700c60.667 0 106.666 -6.66699 137.999 -20s51.666 -33.5 60.999 -60.5s11 -61.833 5 -104.5c-4 -29.333 -10.833 -55.166 -20.5 -77.499s-22.5 -40.333 -38.5 -54s-36.667 -21.834 -62 -24.501l-2 -4c28.667 -2.66699 50.334 -12.167 65.001 -28.5
s23.667 -37.833 27 -64.5s2.33301 -57.667 -3 -93c-5.33301 -42 -16.166 -76.167 -32.499 -102.5s-42 -45.666 -77 -57.999s-83.833 -18.5 -146.5 -18.5c-60 0 -107 6.5 -141 19.5s-57.167 33.167 -69.5 60.5s-15.5 62.333 -9.5 105c4.66699 35.333 12.167 66 22.5 92
s24.833 47 43.5 63s43 25.333 73 28l2 4c-34 4 -57 20.167 -69 48.5s-14.667 65.166 -8 110.499c6 42 16.833 76.167 32.5 102.5s40 45.833 73 58.5s78.5 18.667 136.5 18zM306.999 320c-29.333 0 -53.499 -1.66699 -72.499 -5s-34.5 -9.5 -46.5 -18.5
s-21.333 -22.167 -28 -39.5s-12 -40 -16 -68c-3.33301 -30 -2.5 -53.333 2.5 -70s17.667 -28.667 38 -36s50.5 -11 90.5 -11c38 0 67.833 3.83301 89.5 11.5s37.667 20.667 48 39s17.5 42.833 21.5 73.5c3.33301 26 4.16602 47.167 2.49902 63.5s-7 28.833 -16 37.5
s-22.667 14.667 -41 18s-42.5 5 -72.5 5zM349 623c-37.333 0 -66.002 -3.66699 -86.002 -11s-34.333 -19.5 -43 -36.5s-15 -40.5 -19 -70.5c-4 -29.333 -3.66699 -52 1 -68s16.5 -26.833 35.5 -32.5s46.833 -8.5 83.5 -8.5c27.333 0 49.833 1.66699 67.5 5
s31.5 9.33301 41.5 18s17.833 20.5 23.5 35.5s9.83398 34.167 12.501 57.5c4.66699 28 4.83398 50.167 0.500977 66.5s-15.5 27.833 -33.5 34.5s-46 10 -84 10z" />
    <glyph glyph-name="nine" unicode="9" horiz-adv-x="572" 
d="M334 702c46 0 83.3389 -6.16699 112.006 -18.5s50 -32.166 64 -59.499s21.333 -63.5 22 -108.5s-4 -100.5 -14 -166.5c-12 -74.667 -26.167 -135.834 -42.5 -183.501s-36.5 -84.334 -60.5 -110.001s-53.167 -43.334 -87.5 -53.001s-75.166 -14.5 -122.499 -14.5
c-18.667 0 -42.167 1 -70.5 3s-58.5 6.33301 -90.5 13l13 71c15.333 -1.33301 30.666 -2.33301 45.999 -3s31.166 -1.16699 47.499 -1.5s32.833 -0.5 49.5 -0.5c37.333 1.33301 68.5 6.5 93.5 15.5s45.333 24.167 61 45.5s28.667 50.5 39 87.5s20.166 84.167 29.499 141.5
c8 50 13.167 91.667 15.5 125s0.5 59.833 -5.5 79.5s-17.5 33.834 -34.5 42.501s-40.833 13 -71.5 13c-36 0 -64.667 -5.5 -86 -16.5s-37.166 -28 -47.499 -51s-18.166 -53.167 -23.499 -90.5c-4.66699 -35.333 -4.83398 -63.666 -0.500977 -84.999
s14.166 -36.833 29.499 -46.5s37.333 -14.5 66 -14.5c23.333 0.666992 44.666 4.5 63.999 11.5s39.666 19 60.999 36s45.666 40.5 72.999 70.5l1 -55c-24 -35.333 -47.5 -63.166 -70.5 -83.499s-46.5 -34.666 -70.5 -42.999s-50.667 -12.833 -80 -13.5
c-37.333 -0.666992 -67.833 4.66602 -91.5 15.999s-41.667 27.333 -54 48s-19.833 45 -22.5 73s-2 58.333 2 91c5.33301 42 14.166 78.167 26.499 108.5s29 54.666 50 72.999s46.5 31.833 76.5 40.5s64.667 13 104 13z" />
    <glyph glyph-name="colon" unicode=":" horiz-adv-x="239" 
d="M152 442c12.667 0 21.666 -3 26.999 -9s7 -15.333 5 -28l-7 -53c-1.33301 -11.333 -5 -19.833 -11 -25.5s-15 -8.5 -27 -8.5h-29c-25.333 0 -36.666 12.333 -33.999 37l8 55c3.33301 21.333 16.333 32 39 32h29zM106.999 124c12.667 0 21.666 -3 26.999 -9
s7 -15.333 5 -28l-7 -53c-1.33301 -11.333 -5 -19.833 -11 -25.5s-15 -8.5 -27 -8.5h-29c-25.333 -0 -36.666 12.333 -33.999 37l8 55c3.33301 21.333 16.333 32 39 32h29z" />
    <glyph glyph-name="semicolon" unicode=";" horiz-adv-x="242" 
d="M154 442c12.667 0 21.666 -3 26.999 -9s7 -15.333 5 -28l-7 -53c-1.33301 -11.333 -5 -19.833 -11 -25.5s-15 -8.5 -27 -8.5h-29c-25.333 0 -36.666 12.333 -33.999 37l8 55c3.33301 21.333 16.333 32 39 32h29zM112.999 124c13.333 0 22.333 -2.83398 27 -8.50098
s6 -15.167 4 -28.5l-9 -64c-2 -17.333 -5.83301 -35.166 -11.5 -53.499s-12.5 -36.5 -20.5 -54.5s-17 -35 -27 -51l-46 17l18.5 57.5c5.66699 18.333 10.834 39.5 15.501 63.5c-10.667 -0.666992 -18.334 1.83301 -23.001 7.5s-6.66699 13.5 -6 23.5l8 57
c2.66699 13.333 7 22.333 13 27s16 7 30 7h27z" />
    <glyph glyph-name="less" unicode="&#x3c;" horiz-adv-x="524" 
d="M488 508l-11 -81l-345 -130l307 -132l-10 -75l-385 170l10 77z" />
    <glyph glyph-name="equal" unicode="=" horiz-adv-x="585" 
d="M533 435l-10 -72h-442l10 72h442zM504 224l-10 -73h-442l10 73h442z" />
    <glyph glyph-name="greater" unicode="&#x3e;" horiz-adv-x="524" 
d="M97 509l385 -172l-12 -77l-432 -170l11 81l343 132l-306 132z" />
    <glyph glyph-name="question" unicode="?" horiz-adv-x="503" 
d="M311 712c66.667 0 116.494 -12.9971 149.494 -38.9971s45.833 -65.667 38.5 -119c-4 -30 -13.5 -55.833 -28.5 -77.5s-32.667 -41.334 -53 -59.001l-61 -54.5c-20.333 -18.667 -38.666 -40.167 -54.999 -64.5s-27.5 -53.5 -33.5 -87.5l-81 1
c4.66699 36 14.167 67.167 28.5 93.5s30.833 49.666 49.5 69.999s37.334 39.166 56.001 56.499s34.834 34.833 48.501 52.5s21.834 37.167 24.501 58.5c6 34 0.833008 57.167 -15.5 69.5s-45.833 18.5 -88.5 18.5c-34.667 0 -62.667 -0.333008 -84 -1
s-40.666 -1.66699 -57.999 -3s-37.333 -3 -60 -5l-1 68c17.333 4 33.5 7.16699 48.5 9.5s30.333 4.5 46 6.5s33.834 3.5 54.501 4.5s45.667 1.5 75 1.5zM224.994 124.003c13.333 0 22.665 -3 27.998 -9s7.33301 -15.333 6 -28l-8 -53
c-0.666992 -11.333 -4.16699 -19.833 -10.5 -25.5s-15.166 -8.5 -26.499 -8.5h-25c-25.333 0 -36.666 12.333 -33.999 37l8 54c4 22 17 33 39 33h23z" />
    <glyph glyph-name="at" unicode="@" horiz-adv-x="777" 
d="M430 643c66.667 0.666992 120.829 -2.66797 162.496 -10.001s72.5 -22.166 92.5 -44.499s31.333 -55.333 34 -99s-1 -101.834 -11 -174.501c-8 -64 -17.167 -117 -27.5 -159s-23.5 -74.833 -39.5 -98.5s-36.167 -40.667 -60.5 -51s-54.5 -15.5 -90.5 -15.5
c-25.333 0 -46.166 3.83301 -62.499 11.5s-28.833 18.167 -37.5 31.5s-14.167 29.333 -16.5 48s-1.83301 38.667 1.5 60l45 286h93l-48 -310c-2 -17.333 -0.333008 -29.833 5 -37.5s15 -11.5 29 -11.5c18.667 0 34.334 4.16699 47.001 12.5s23.334 22 32.001 41
s16.167 44.833 22.5 77.5s12.833 73.334 19.5 122.001c6.66699 47.333 10.834 86.333 12.501 117s-0.5 54.667 -6.5 72s-16.833 29.833 -32.5 37.5s-37 12.5 -64 14.5s-60.833 3 -101.5 3h-320l7 69c34 2 68.833 3.5 104.5 4.5s71.167 1.83301 106.5 2.5s70 1 104 1z
M292.995 450.998c36 0 71.5 -1.99902 106.5 -5.99902s72.833 -9.66699 113.5 -17l-41 -56c-41.333 2 -73.333 3.33301 -96 4s-41 1 -55 1c-31.333 0 -57 -1.83301 -77 -5.5s-36.333 -10.834 -49 -21.501s-22.5 -26.167 -29.5 -46.5s-13.5 -47.5 -19.5 -81.5
c-6.66699 -39.333 -9.5 -70.333 -8.5 -93s6.83301 -38.667 17.5 -48s26.667 -14 48 -14c34.667 0 67.167 11.5 97.5 34.5s64.833 57.833 103.5 104.5l18 -42c-19.333 -30 -40.333 -58.5 -63 -85.5s-48.5 -48.833 -77.5 -65.5s-62.833 -25 -101.5 -25
c-28 0 -51.667 4.83301 -71 14.5s-34.166 24.334 -44.499 44.001s-16.333 44.667 -18 75s0.833008 66.166 7.5 107.499c8 48 18.667 86.833 32 116.5s29.666 52 48.999 67s42 25.167 68 30.5s56 8 90 8z" />
    <glyph glyph-name="A" unicode="A" horiz-adv-x="625" 
d="M419 690c9.33301 0 17.165 -2.83203 23.498 -8.49902s9.83301 -12.5 10.5 -20.5l125 -661h-100l-93 554l-4 30.5c-1.33301 10.333 -2.33301 20.166 -3 29.499h-30c-4 -8.66699 -8.16699 -18.5 -12.5 -29.5s-8.83301 -21.167 -13.5 -30.5l-248 -554h-106l312 664
c2.66699 9.33301 7.33398 16 14.001 20s14.334 6 23.001 6h102zM488.999 293.001l-10 -84h-352l11 84h351z" />
    <glyph glyph-name="B" unicode="B" horiz-adv-x="622" 
d="M366 698c55.333 0 99.6689 -5.32715 133.002 -15.9941s56.166 -29.334 68.499 -56.001s15.166 -63.667 8.49902 -111c-6.66699 -48.667 -20.5 -85.834 -41.5 -111.501s-53.167 -40.5 -96.5 -44.5l-1 -4c52 -4.66699 86 -23.5 102 -56.5s20 -76.167 12 -129.5
c-7.33301 -47.333 -20 -83.833 -38 -109.5s-43.333 -43.334 -76 -53.001s-75.334 -14.5 -128.001 -14.5c-41.333 0 -76.833 0.166992 -106.5 0.5s-57 1.16602 -82 2.49902s-51.167 3 -78.5 5l22 77c16 -0.666992 44.333 -1.33398 85 -2.00098s88.667 -1 144 -1
c36.667 0 65.834 3.16699 87.501 9.5s38 18.333 49 36s18.5 42.167 22.5 73.5c5.33301 34 5 60 -1 78s-18.5 30.667 -37.5 38s-46.5 11.333 -82.5 12h-230l10 73h224c31.333 0.666992 57 4.16699 77 10.5s35.333 17.833 46 34.5s18 40.334 22 71.001
c4.66699 29.333 3.83398 51.666 -2.49902 66.999s-18.833 25.666 -37.5 30.999s-45 8 -79 8h-91.5h-71c-20.333 0 -37.833 -0.666992 -52.5 -2l-7 76c24 2.66699 46.833 4.5 68.5 5.5s45.167 1.66699 70.5 2s54.666 0.5 87.999 0.5zM237.003 690.006l-97 -690h-98l97 690h98
z" />
    <glyph glyph-name="C" unicode="C" 
d="M384 702c30 0 55.9971 -0.664062 77.9971 -1.99707s41.833 -3.5 59.5 -6.5s35.5 -7.5 53.5 -13.5l-15 -74c-19.333 2 -37.666 3.5 -54.999 4.5s-35.666 1.83301 -54.999 2.5s-42 1 -68 1c-32.667 0 -60.5 -4.16699 -83.5 -12.5s-42.833 -22.333 -59.5 -42
s-30.5 -47.334 -41.5 -83.001s-20.167 -80.5 -27.5 -134.5c-9.33301 -68 -11.833 -121.167 -7.5 -159.5s17.333 -65.5 39 -81.5s53.5 -24.333 95.5 -25c44.667 0 81.834 1 111.501 3s58.834 4.66699 87.501 8l5 -76c-30.667 -8.66699 -61.5 -14.667 -92.5 -18
s-68.833 -5 -113.5 -5c-67.333 0 -119.833 12.333 -157.5 37s-62.167 63.667 -73.5 117s-11 122 1 206c10 66 22.833 121.667 38.5 167s35.667 81.666 60 108.999s54.666 47.166 90.999 59.499s79.5 18.5 129.5 18.5z" />
    <glyph glyph-name="D" unicode="D" horiz-adv-x="666" 
d="M370 699c71.333 0 127.001 -11.167 167.001 -33.5s66 -59.5 78 -111.5s11.667 -122.667 -1 -212c-10.667 -74.667 -24.334 -135 -41.001 -181s-38 -81.333 -64 -106s-58 -41.5 -96 -50.5s-83 -13.5 -135 -13.5c-36.667 0 -75.834 0.833008 -117.501 2.5
s-81.167 3.83398 -118.5 6.50098l51 80c27.333 -1.33301 58.333 -2.5 93 -3.5s65 -1.5 91 -1.5c37.333 0 69 3.66699 95 11s47.833 20.666 65.5 39.999s32.167 47 43.5 83s21 82.333 29 139c8 55.333 11.667 100.5 11 135.5s-6.33398 62 -17.001 81s-27.167 32.333 -49.5 40
s-51.166 11.5 -86.499 11.5c-17.333 0 -37.5 -0.166992 -60.5 -0.5l-70 -1c-23.667 -0.333008 -44.167 -0.833008 -61.5 -1.5l-37 77c22.667 2 47.834 3.66699 75.501 5s55 2.33301 82 3s51.5 1 73.5 1zM239.001 690l-97 -690h-100l97 690h100z" />
    <glyph glyph-name="E" unicode="E" horiz-adv-x="561" 
d="M264 691l103.5 -0.000976562c35 0 69.167 -0.5 102.5 -1.5s65.333 -2.5 96 -4.5l-13 -77h-272c-22 0 -38.167 -5.16699 -48.5 -15.5s-17.166 -27.166 -20.499 -50.499l-54 -397c-3.33301 -22 -0.833008 -38 7.5 -48s23.5 -15 45.5 -15h267l-2 -77
c-29.333 -2 -60 -3.33301 -92 -4s-64.333 -1.16699 -97 -1.5s-64.334 -0.5 -95.001 -0.5c-51.333 0 -88.5 12.833 -111.5 38.5s-31.167 60.167 -24.5 103.5l60 429c5.33301 38 20.333 67.667 45 89s59 32 103 32zM110 400.999h375l-10 -76h-376z" />
    <glyph glyph-name="F" unicode="F" horiz-adv-x="540" 
d="M267 691c50.667 0 101.168 -0.333984 151.501 -1.00098s97.5 -2.66699 141.5 -6l-13 -76h-254c-24.667 0 -42.834 -4.66699 -54.501 -14s-19.167 -26.666 -22.5 -51.999l-76 -542h-100l79 566c6 40.667 22 71.667 48 93s59.333 32 100 32zM111.001 388.999h368l-11 -74
l-368 -1z" />
    <glyph glyph-name="G" unicode="G" horiz-adv-x="628" 
d="M397 703c24 0 47.335 -0.665039 70.002 -1.99805s45.167 -3.66602 67.5 -6.99902s43.5 -8 63.5 -14l-14 -73c-20.667 2 -41.5 3.5 -62.5 4.5s-41.167 1.66699 -60.5 2s-37.666 0.5 -54.999 0.5c-38.667 0 -71.334 -3.83301 -98.001 -11.5s-48.834 -21.167 -66.501 -40.5
s-32.167 -47 -43.5 -83s-20.666 -81.667 -27.999 -137c-7.33301 -66 -9.16602 -118.667 -5.49902 -158s14.167 -67.333 31.5 -84s42.666 -25 75.999 -25c25.333 0 47.833 4.16699 67.5 12.5s39.167 20.166 58.5 35.499s39.666 33.666 60.999 54.999l11 -62
c-14.667 -18.667 -30.334 -35.834 -47.001 -51.501s-34.5 -29.5 -53.5 -41.5s-39.5 -21 -61.5 -27s-45.667 -9 -71 -9c-48 0 -86.333 12.333 -115 37s-47.667 63.667 -57 117s-9 122.333 1 207c9.33301 72 22.833 131.167 40.5 177.5s40.167 82.333 67.5 108
s59.5 43.667 96.5 54s79.167 15.5 126.5 15.5zM580.002 400.002l-57 -400h-72l1 108l-6 22l38 270h96z" />
    <glyph glyph-name="H" unicode="H" horiz-adv-x="670" 
d="M240 690l-97 -690h-101l97 690h101zM514 409l-11 -83h-323l12 83h322zM643 690l-97 -690h-99l97 690h99z" />
    <glyph glyph-name="I" unicode="I" horiz-adv-x="267" 
d="M240 690l-97 -690h-101l97 690h101z" />
    <glyph glyph-name="J" unicode="J" horiz-adv-x="344" 
d="M320 690l-77.999 -549.001c-6.66699 -49.333 -23.167 -86.666 -49.5 -111.999s-60.833 -38 -103.5 -38c-10 0 -21.333 0.666992 -34 2s-24.834 3 -36.501 5s-21.167 4.33301 -28.5 7l18 69h46c26.667 0 47.5 6.33301 62.5 19s24.167 30.667 27.5 54l75 543h101z" />
    <glyph glyph-name="K" unicode="K" horiz-adv-x="600" 
d="M628 690l-236 -285.997c-6.66699 -8.66699 -14 -16.834 -22 -24.501s-17 -14.834 -27 -21.501v-4c6 -6 12.167 -13.833 18.5 -23.5s11.833 -18.834 16.5 -27.501l165 -303h-112l-192 361l270 329h119zM239 690.003l-30.999 -214.999
c-2.66699 -20.667 -6.33398 -40.334 -11.001 -59.001s-11 -38 -19 -58c2 -19.333 2.83301 -38.333 2.5 -57s-1.83301 -37 -4.5 -55l-34 -246h-100l97 690h100zM295.001 398.004l-11 -77h-130l10 77h131z" />
    <glyph glyph-name="L" unicode="L" horiz-adv-x="513" 
d="M237 690l-77.002 -544.001c-2 -19.333 0.833008 -34.666 8.5 -45.999s22.834 -17 45.501 -17h248l-3 -78c-43.333 -2.66699 -88.5 -4.33398 -135.5 -5.00098s-92.833 -1 -137.5 -1c-28 0 -52.333 5.5 -73 16.5s-35.667 27.333 -45 49s-11.666 47.834 -6.99902 78.501
l75 547h101z" />
    <glyph glyph-name="M" unicode="M" horiz-adv-x="883" 
d="M797 690c13.333 0 23.332 -3.83301 29.999 -11.5s9.33398 -18.167 8.00098 -31.5l-63 -647h-98l63 609h-20l-214 -496c-4.66699 -11.333 -10.5 -19.5 -17.5 -24.5s-16.5 -7.5 -28.5 -7.5h-82c-11.333 0 -20.333 3.16699 -27 9.5s-11 15.166 -13 26.499l-81 492h-20
l-108 -609h-97l118 652c2.66699 12.667 7.33398 22.167 14.001 28.5s16.334 9.5 29.001 9.5h105c10.667 0 19.167 -3.16699 25.5 -9.5s10.166 -15.166 11.499 -26.499l68 -406c3.33301 -16 5.66602 -31.833 6.99902 -47.5s3 -31.5 5 -47.5h18l19 49
c6 15.333 12.333 30.333 19 45l177 411c4.66699 11.333 10.667 19.333 18 24s16.333 7 27 7z" />
    <glyph glyph-name="N" unicode="N" horiz-adv-x="706" 
d="M679 690l-93 -653.002c-1.33301 -12.667 -5 -22 -11 -28s-15.333 -9 -28 -9h-79c-11.333 0 -19.833 3 -25.5 9s-10.5 14 -14.5 24l-168 466c-4.66699 12.667 -9.5 27.334 -14.5 44.001s-9.5 32.334 -13.5 47.001h-16c0 -15.333 -0.666992 -30.833 -2 -46.5
s-3 -31.5 -5 -47.5l-69 -496h-98l91 653c2.66699 12.667 7.16699 22 13.5 28s15.5 9 27.5 9h78c11.333 0 19.833 -3 25.5 -9s10.167 -14 13.5 -24l164 -453c5.33301 -14.667 10.833 -31 16.5 -49l16.5 -53h18c0.666992 18 1.66699 35.333 3 52s3.33301 33.667 6 51l66 485
h98z" />
    <glyph glyph-name="O" unicode="O" horiz-adv-x="669" 
d="M387 703c64.667 0 116.334 -11.501 155.001 -34.501s64.167 -60.833 76.5 -113.5s12.166 -123.667 -0.500977 -213c-8.66699 -67.333 -21.167 -123.833 -37.5 -169.5s-36.833 -82.167 -61.5 -109.5s-55 -46.833 -91 -58.5s-79 -17.5 -129 -17.5
c-64.667 0 -116.334 11.333 -155.001 34s-64.5 60.334 -77.5 113.001s-13.5 124 -1.5 214c10 66 22.667 121.5 38 166.5s35.5 81.5 60.5 109.5s55.833 48.167 92.5 60.5s80.334 18.5 131.001 18.5zM382 615.999c-44 0 -79.832 -8.16699 -107.499 -24.5
s-49.5 -44.5 -65.5 -84.5s-29 -95 -39 -165c-9.33301 -68.667 -11.666 -122.334 -6.99902 -161.001s18.167 -66.167 40.5 -82.5s55.166 -24.5 98.499 -24.5c44 0 79.667 8.33301 107 25s49.166 45 65.499 85s29.5 94.667 39.5 164c10.667 70.667 13.5 125.334 8.5 164.001
s-18.833 65.667 -41.5 81s-55.667 23 -99 23z" />
    <glyph glyph-name="P" unicode="P" horiz-adv-x="593" 
d="M377 699c54.667 0 98.167 -7 130.5 -21s54.166 -37.167 65.499 -69.5s13 -75.833 5 -130.5c-8 -58.667 -21.167 -103.5 -39.5 -134.5s-44.166 -52 -77.499 -63s-76.666 -16.5 -129.999 -16.5c-26 0 -51.667 0.833008 -77 2.5s-48.833 3.83398 -70.5 6.50098
s-40.334 5.5 -56.001 8.5s-26.5 5.83301 -32.5 8.5l6 57h112.5h113.5c34.667 0 62 4 82 12s35.333 21.833 46 41.5s18.667 48.167 24 85.5c5.33301 34.667 5.33301 61.5 0 80.5s-16.5 32 -33.5 39s-40.833 10.5 -71.5 10.5c-56.667 0 -105.334 -0.333008 -146.001 -1
s-68.334 -1.66699 -83.001 -3l-6 78c25.333 2.66699 49.333 4.66699 72 6s46.834 2.16602 72.501 2.49902s56.834 0.5 93.501 0.5zM239 690l-97 -690h-100l97 690h100z" />
    <glyph glyph-name="Q" unicode="Q" horiz-adv-x="669" 
d="M387 703c64.667 0 116.334 -11.501 155.001 -34.501s64.167 -60.833 76.5 -113.5s12.166 -123.667 -0.500977 -213c-8.66699 -67.333 -21.167 -123.833 -37.5 -169.5s-36.833 -82.167 -61.5 -109.5s-55 -46.833 -91 -58.5s-79 -17.5 -129 -17.5
c-64.667 0 -116.334 11.333 -155.001 34s-64.5 60.334 -77.5 113.001s-13.5 124 -1.5 214c10 66 22.667 121.5 38 166.5s35.5 81.5 60.5 109.5s55.833 48.167 92.5 60.5s80.334 18.5 131.001 18.5zM242 -42.001c38 -18.667 78.833 -34.333 122.5 -47s90.5 -22.667 140.5 -30
l-39 -96c-53.333 12.667 -101.5 29 -144.5 49s-81.833 42.333 -116.5 67zM382 616c-44 0 -79.832 -8.16699 -107.499 -24.5s-49.5 -44.5 -65.5 -84.5s-29 -95 -39 -165c-9.33301 -68.667 -11.666 -122.334 -6.99902 -161.001s18.167 -66.167 40.5 -82.5
s55.166 -24.5 98.499 -24.5c44 0 79.667 8.33301 107 25s49.166 45 65.499 85s29.5 94.667 39.5 164c10.667 70.667 13.5 125.334 8.5 164.001s-18.833 65.667 -41.5 81s-55.667 23 -99 23z" />
    <glyph glyph-name="R" unicode="R" horiz-adv-x="623" 
d="M377 699c49.333 0 90.5049 -6 123.505 -18s57 -32.833 72 -62.5s18.833 -70.834 11.5 -123.501c-4.66699 -34 -13 -63.167 -25 -87.5s-28.5 -43.666 -49.5 -57.999s-47.833 -23.5 -80.5 -27.5l-1 -5c12.667 -3.33301 24 -9.16602 34 -17.499s18.5 -19.5 25.5 -33.5
s12.167 -31 15.5 -51l42 -215h-102l-39 217c-4.66699 25.333 -12.834 43 -24.501 53s-28.5 15 -50.5 15c-42.667 0.666992 -78.834 1.16699 -108.501 1.5s-54.5 0.666016 -74.5 0.999023s-37 0.5 -51 0.5l11 80h226c32.667 0.666992 59.167 4.83398 79.5 12.501
s36.166 20.667 47.499 39s19.333 44.5 24 78.5c4 30 3.5 53.667 -1.5 71s-16 29.5 -33 36.5s-41.5 10.5 -73.5 10.5c-58 0 -107.167 -0.333008 -147.5 -1s-67.833 -1 -82.5 -1l-6 76c25.333 2.66699 49.666 4.66699 72.999 6s48.166 2.16602 74.499 2.49902
s56.5 0.5 90.5 0.5zM237.005 690l-97 -690h-98l97 690h98z" />
    <glyph glyph-name="S" unicode="S" horiz-adv-x="564" 
d="M333 702c34 -0.666992 69.002 -2.33691 105.002 -5.00391s70.333 -8 103 -16l-9 -71c-22.667 1.33301 -45.167 2.16602 -67.5 2.49902l-66.5 1c-22 0.333008 -44.667 0.5 -68 0.5c-21.333 0 -40.333 -0.5 -57 -1.5s-31 -4.16699 -43 -9.5s-21.833 -14.666 -29.5 -27.999
s-13.167 -32 -16.5 -56c-2 -21.333 -1.66699 -38.333 1 -51s9.33398 -22.667 20.001 -30s26 -14.666 46 -21.999l133 -51c35.333 -13.333 62 -28.666 80 -45.999s29.5 -38.166 34.5 -62.499s5.16699 -53.5 0.5 -87.5c-6.66699 -50 -19.834 -88 -39.501 -114
s-47.334 -43.667 -83.001 -53s-81.5 -14 -137.5 -14c-21.333 0 -50.833 1.16699 -88.5 3.5s-79.834 7.83301 -126.501 16.5l12 73c39.333 -1.33301 71.333 -2.5 96 -3.5s45.334 -1.5 62.001 -1.5h45c36.667 0 66 2.5 88 7.5s38.667 14.5 50 28.5s19 36 23 66
c2.66699 22 2.5 39.167 -0.5 51.5s-9.83301 22.333 -20.5 30s-25.667 14.834 -45 21.501l-136 52c-32.667 12.667 -58 28 -76 46s-29.667 39.333 -35 64s-6 52.667 -2 84c4.66699 38.667 13.667 69.667 27 93s30.5 40.833 51.5 52.5s45.667 19.5 74 23.5s60.166 6 95.499 6z
" />
    <glyph glyph-name="T" unicode="T" horiz-adv-x="577" 
d="M394 690l-97 -690h-100l97 690h100zM613 690l-11 -86h-539l12 86h538z" />
    <glyph glyph-name="U" unicode="U" horiz-adv-x="667" 
d="M646 690l-59.998 -425.001c-9.33301 -67.333 -25.166 -121.5 -47.499 -162.5s-52.833 -70.5 -91.5 -88.5s-87.667 -27 -147 -27s-107.5 9.33301 -144.5 28s-62.167 48.667 -75.5 90s-15 96 -5 164l58 421h101l-60 -425c-6.66699 -48 -7.33398 -86.167 -2.00098 -114.5
s18.166 -48.166 38.499 -59.499s49.833 -17 88.5 -17c39.333 0 71.5 6 96.5 18s44.667 32.5 59 61.5s25.166 67.5 32.499 115.5l58 421h101z" />
    <glyph glyph-name="V" unicode="V" horiz-adv-x="611" 
d="M652 690l-300 -664.001c-6.66699 -17.333 -19.334 -26 -38.001 -26h-98c-8.66699 0 -16 3 -22 9s-9.66699 13 -11 21l-115 660h101l81 -538c2 -12.667 3.83301 -25.5 5.5 -38.5s2.83398 -25.833 3.50098 -38.5h26l14.5 39.5c5 13.667 10.167 26.834 15.5 39.501l232 536
h105z" />
    <glyph glyph-name="W" unicode="W" horiz-adv-x="948" 
d="M975 690l-230.001 -663c-2.66699 -8.66699 -7.33398 -15.334 -14.001 -20.001s-15 -7 -25 -7h-106c-10 0 -18.333 3 -25 9s-10.334 13.667 -11.001 23l-32 505c0 14 -0.666992 27.333 -2 40s-2.33301 25.667 -3 39h-20c-4.66699 -13.333 -9.16699 -27.166 -13.5 -41.499
s-8.83301 -27.833 -13.5 -40.5l-171 -506c-2.66699 -9.33301 -7.5 -16.333 -14.5 -21s-15.5 -7 -25.5 -7h-105c-10 0 -18.5 3 -25.5 9s-10.833 13.333 -11.5 22l-45 659h102l26 -528c1.33301 -14 1.83301 -28.333 1.5 -43s-0.166016 -30 0.500977 -46h23
c5.33301 16 10.333 31.833 15 47.5s9.33398 30.5 14.001 44.5l170 494c6 20.667 19.333 31 40 31h100c9.33301 0 17 -3.33301 23 -10s9.33301 -14.667 10 -24l38 -495l2 -44.5c0.666992 -15 1 -29.5 1 -43.5h24l13 45c4.66699 16 9.33398 31 14.001 45l172 527h104z" />
    <glyph glyph-name="X" unicode="X" horiz-adv-x="615" 
d="M193 690l129 -343l-229 -347h-114l244 357l-131 333h101zM379 394l-11 -73h-115l11 73h115zM638 690l-227 -333l142 -357h-101l-140 368l218 322h108z" />
    <glyph glyph-name="Y" unicode="Y" horiz-adv-x="573" 
d="M619 690l-297 -458.998h-91l-169 459h102l99 -286c4 -12.667 7.83301 -25.834 11.5 -39.501s6.16699 -27.167 7.5 -40.5h9c4 12.667 9.83301 26.667 17.5 42s15.167 28.666 22.5 39.999l179 284h109zM335 299.002l-42 -299h-101l43 299h100z" />
    <glyph glyph-name="Z" unicode="Z" horiz-adv-x="565" 
d="M448 609l112 -1l-434 -527l-111 1zM493 82l-12 -82h-477l11 82h478zM572 690l-12 -82h-465l12 82h465z" />
    <glyph glyph-name="bracketleft" unicode="[" horiz-adv-x="329" 
d="M357 768l-9.00195 -63.002h-94c-4.66699 0 -9.16699 -1.66699 -13.5 -5s-6.83301 -7.66602 -7.5 -12.999l-109 -774c-1.33301 -10 2.33398 -15 11.001 -15h100l-9 -63h-143c-16.667 0 -30.167 4.83301 -40.5 14.5s-14.166 24.834 -11.499 45.501l115 817
c2 17.333 8.83301 31 20.5 41s26.167 15 43.5 15h147z" />
    <glyph glyph-name="backslash" unicode="\" horiz-adv-x="515" 
d="M154 690l289 -757h-76l-289 757h76z" />
    <glyph glyph-name="bracketright" unicode="]" horiz-adv-x="329" 
d="M247 768c17.333 0 31.1689 -5.83203 41.502 -17.499s14.166 -25.834 11.499 -42.501l-115 -817c-2 -16.667 -9 -30.167 -21 -40.5s-26.333 -15.5 -43 -15.5h-147l8 63h94c4.66699 0 9.16699 1.83301 13.5 5.5s7.16602 8.16699 8.49902 13.5l108 773
c2 10 -1.66699 15 -11 15h-99l9 63h142z" />
    <glyph glyph-name="asciicircum" unicode="^" horiz-adv-x="433" 
d="M302 606l122 -215l-42 -23l-116 173h-8l-170 -173l-38 24l181 214h71z" />
    <glyph glyph-name="underscore" unicode="_" horiz-adv-x="439" 
d="M405 0l-11 -70h-439l11 70h439z" />
    <glyph glyph-name="grave" unicode="`" horiz-adv-x="321" 
d="M129 725l176 -147l-34 -43l-191 124z" />
    <glyph glyph-name="a" unicode="a" horiz-adv-x="577" 
d="M300 500c17.333 0 36.0029 -0.500977 56.0029 -1.50098s40.167 -2.66699 60.5 -5s40.333 -4.83301 60 -7.5s37.5 -5.66699 53.5 -9l-50 -58c-34.667 1.33301 -65.834 2.33301 -93.501 3s-49.5 1 -65.5 1c-31.333 0 -57.166 -2 -77.499 -6s-36.5 -12.167 -48.5 -24.5
s-21.833 -30.333 -29.5 -54s-14.167 -54.834 -19.5 -93.501c-6.66699 -47.333 -9.66699 -83.666 -9 -108.999s6.16699 -42.666 16.5 -51.999s26.166 -14 47.499 -14c23.333 0 46.333 5.33301 69 16s46.167 26.167 70.5 46.5s49.166 44.5 74.499 72.5l19 -43
c-16 -32 -37 -61 -63 -87s-55.333 -47 -88 -63s-68 -24 -106 -24c-39.333 0 -70 8.33301 -92 25s-35.833 44.334 -41.5 83.001s-3.83398 90 5.49902 154c8 55.333 18.833 99.666 32.5 132.999s30.667 58.5 51 75.5s44.333 28.167 72 33.5s59.5 8 95.5 8zM433.003 477.999
l97 -1l-67 -477h-76l6 114l-11 9z" />
    <glyph glyph-name="b" unicode="b" horiz-adv-x="577" 
d="M386 500c37.333 0 67.165 -7.66602 89.498 -22.999s36.833 -41.833 43.5 -79.5s5.33398 -90.5 -3.99902 -158.5c-7.33301 -53.333 -17.666 -96.5 -30.999 -129.5s-29.5 -58.333 -48.5 -76s-41.667 -29.834 -68 -36.501s-56.833 -10 -91.5 -10
c-18.667 0 -38.5 0.833008 -59.5 2.5s-42.333 4.16699 -64 7.5s-42.5 7.16602 -62.5 11.499s-38.667 9.5 -56 15.5l53 50c22 -2 43.333 -3.66699 64 -5s39.334 -2.33301 56.001 -3s30 -1 40 -1c31.333 0 56.666 2.16699 75.999 6.5s34.833 12.833 46.5 25.5s21 31 28 55
s13.167 55.333 18.5 94c7.33301 47.333 10.166 83.333 8.49902 108s-7.66699 41.5 -18 50.5s-26.166 13.5 -47.499 13.5c-25.333 0 -56.166 -10.667 -92.499 -32s-75.833 -51.666 -118.5 -90.999l-18 41c13.333 18.667 29.833 37.667 49.5 57s41 37 64 53s46.667 29 71 39
s48.166 15 71.499 15zM224.999 700.001l-26 -195c-3.33301 -22.667 -7 -43.667 -11 -63s-9.66699 -39.333 -17 -60l8 -12l-49 -351l-96 5l95 676h96z" />
    <glyph glyph-name="c" unicode="c" horiz-adv-x="489" 
d="M308 500c24.667 0 51.9961 -1.66406 81.9961 -4.99707s56.667 -10 80 -20l-15 -60c-22.667 2 -46.5 3.33301 -71.5 4s-45.167 1 -60.5 1c-38 0 -69 -4.83301 -93 -14.5s-42.667 -27.334 -56 -53.001s-23 -62.834 -29 -111.501c-6.66699 -48 -7.16699 -84.167 -1.5 -108.5
s18.334 -41 38.001 -50s47.5 -13.5 83.5 -13.5c10.667 0 24.334 0.333008 41.001 1s34.334 1.66699 53.001 3s36.667 3.33301 54 6l7 -65c-26 -9.33301 -54.167 -16 -84.5 -20s-59.5 -6 -87.5 -6c-56.667 0 -101.667 8.66699 -135 26s-55.333 45.166 -66 83.499
s-11.667 88.5 -3 150.5c9.33301 62 23.833 111.5 43.5 148.5s47.334 63.5 83.001 79.5s81.5 24 137.5 24z" />
    <glyph glyph-name="d" unicode="d" horiz-adv-x="576" 
d="M280 500c37.333 0 76.668 -2.33398 118.001 -7.00098s77.666 -10.667 108.999 -18l-23 -54c-35.333 1.33301 -67.166 2.33301 -95.499 3s-51.833 1 -70.5 1c-31.333 0 -56.833 -2.16699 -76.5 -6.5s-35.667 -12.5 -48 -24.5s-22 -30 -29 -54s-13.167 -55.667 -18.5 -95
c-6.66699 -44.667 -9.66699 -79.5 -9 -104.5s5.83398 -42.833 15.501 -53.5s25.167 -16 46.5 -16c34 0.666992 67.5 11.5 100.5 32.5s70.833 52.5 113.5 94.5l19 -45c-11.333 -16.667 -25.833 -34.5 -43.5 -53.5s-38 -37 -61 -54s-47.833 -30.833 -74.5 -41.5
s-54.667 -16 -84 -16c-34 0 -61.5 8.33301 -82.5 25s-34.833 44.334 -41.5 83.001s-5.66699 90 3 154c7.33301 54.667 17.666 98.5 30.999 131.5s29.666 58 48.999 75s41.5 28.5 66.5 34.5s53.5 9 85.5 9zM560.002 699.999l-98 -700h-76l6 112l-9 8l47 344l9 16
c0 17.333 0.666992 34 2 50s3.33301 33.333 6 52l17 118h96z" />
    <glyph glyph-name="e" unicode="e" horiz-adv-x="542" 
d="M315 500c53.333 0 94.3369 -5.83594 123.004 -17.5029s48 -29.334 58 -53.001s12 -52.834 6 -87.501c-4.66699 -31.333 -14.334 -56.333 -29.001 -75s-34.834 -32.5 -60.501 -41.5s-58.167 -15.167 -97.5 -18.5l-240 -22l9 67l225 22c21.333 2 38.5 5.33301 51.5 10
s23.333 12.334 31 23.001s13.167 25 16.5 43c3.33301 22.667 1.66602 39.334 -5.00098 50.001s-18.167 17.334 -34.5 20.001s-37.5 3.66699 -63.5 3c-25.333 0 -46.833 -2.16699 -64.5 -6.5s-32.5 -12.5 -44.5 -24.5s-21.833 -29 -29.5 -51s-14.5 -50.667 -20.5 -86
c-8 -52 -8.5 -91.5 -1.5 -118.5s20.5 -45.167 40.5 -54.5s46.333 -14 79 -14c18 0 37.667 0.5 59 1.5s42.666 2.5 63.999 4.5s41 4 59 6l7 -63c-17.333 -7.33301 -38.166 -13.166 -62.499 -17.499s-48.833 -7.33301 -73.5 -9s-47 -2.5 -67 -2.5
c-58 0 -103.167 9.5 -135.5 28.5s-53.833 48.333 -64.5 88s-12.334 89.834 -5.00098 150.501c6.66699 48.667 16.5 88.834 29.5 120.501s30.167 56.667 51.5 75s47.5 31.166 78.5 38.499s67.833 11 110.5 11z" />
    <glyph glyph-name="f" unicode="f" horiz-adv-x="381" 
d="M313 718c11.333 0 25.666 -0.333008 42.999 -1s35 -1.5 53 -2.5s33.333 -2.5 46 -4.5l-15 -69h-96c-30.667 0 -53.167 -5.5 -67.5 -16.5s-24.166 -32.5 -29.499 -64.5l-88 -617c-6 -45.333 -21.667 -80.5 -47 -105.5s-62 -37.5 -110 -37.5c-15.333 0 -33 0.5 -53 1.5
s-42.333 3.16699 -67 6.5l15 69h74c30 0 52.167 5.5 66.5 16.5s23.5 32.5 27.5 64.5l87 617c6.66699 45.333 23 80.5 49 105.5s63.333 37.5 112 37.5zM389 488l-11 -72h-335l9 67l92 5h245z" />
    <glyph glyph-name="g" unicode="g" horiz-adv-x="579" 
d="M436 478l97.002 -0.998047l-67 -460c-4 -36 -12.833 -68 -26.5 -96s-32 -51.667 -55 -71s-51 -34 -84 -44s-71.5 -15.333 -115.5 -16c-8.66699 0 -23.167 0.166992 -43.5 0.5s-42 2 -65 5s-43.833 6.83301 -62.5 11.5l9 63c14 -0.666992 28 -1.16699 42 -1.5
s30.167 -0.5 48.5 -0.5s39.833 0.333008 64.5 1c47.333 1.33301 88.666 11.166 123.999 29.499s57.666 50.166 66.999 95.499l15.5 65.5c5 21 13.167 40.5 24.5 58.5l-24 10zM287.002 500.002c27.333 0 55.4961 -1 84.4961 -3s57.333 -4.66699 85 -8s52.5 -7.33301 74.5 -12
l-49 -58c-35.333 1.33301 -66.833 2.33301 -94.5 3s-50.5 1 -68.5 1c-31.333 0 -56.833 -2.16699 -76.5 -6.5s-35.5 -12.5 -47.5 -24.5s-21.5 -29.833 -28.5 -53.5s-13.167 -54.834 -18.5 -93.501c-7.33301 -46.667 -10.666 -82.667 -9.99902 -108
s6.33398 -42.833 17.001 -52.5s26.334 -14.5 47.001 -14.5c23.333 0.666992 46.333 6.16699 69 16.5s46 25.5 70 45.5s49.333 44.333 76 73l19 -41c-16 -31.333 -37.167 -60.166 -63.5 -86.499s-56.166 -47.666 -89.499 -63.999s-69 -24.5 -107 -24.5
c-36 0 -65.167 8 -87.5 24s-36.833 43.167 -43.5 81.5s-5 90.166 5 155.499c8 56 18.833 100.5 32.5 133.5s30.167 58 49.5 75s42 28.167 68 33.5s55 8 87 8z" />
    <glyph glyph-name="h" unicode="h" horiz-adv-x="582" 
d="M405 500c41.333 0 72.6699 -11.332 94.0029 -33.999s29 -56.334 23 -101.001l-52 -365h-97l49 340c3.33301 30 1.33301 50.667 -6 62s-22 17 -44 17c-30.667 0 -61.834 -9.66699 -93.501 -29s-69.5 -46.333 -113.5 -81l-2 65c45.333 42 87.666 73.5 126.999 94.5
s77.666 31.5 114.999 31.5zM228.004 700.001l-27 -192c-3.33301 -27.333 -8 -54.833 -14 -82.5s-12 -49.5 -18 -65.5l8 -13l-48 -347h-97l99 700h97z" />
    <glyph glyph-name="i" unicode="i" horiz-adv-x="251" 
d="M201 488l-68 -488h-96l68 488h96zM202 697c10.667 0 18.333 -2.83301 23 -8.5s6 -13.167 4 -22.5l-7 -57c-2.66699 -18 -13 -27 -31 -27h-44c-20.667 0 -30 10.667 -28 32l8 55c2 18.667 12.333 28 31 28h44z" />
    <glyph glyph-name="j" unicode="j" horiz-adv-x="252" 
d="M201 488l-69.001 -495.998c-4 -26.667 -11.5 -52.167 -22.5 -76.5s-25.167 -46.5 -42.5 -66.5s-37 -37.333 -59 -52l-52 45c23.333 23.333 41.333 47.166 54 71.499s21.334 52.166 26.001 83.499l69 491h96zM201.999 697.002c10.667 0 18.334 -2.83301 23.001 -8.5
s6 -13.167 4 -22.5l-7 -57c-2.66699 -18 -13.334 -27 -32.001 -27h-43c-20.667 0 -30 10.667 -28 32l8 55c2 18.667 12.333 28 31 28h44z" />
    <glyph glyph-name="k" unicode="k" horiz-adv-x="529" 
d="M228 700l-44.999 -331.999c-2.66699 -22.667 -6.83398 -43.834 -12.501 -63.501s-13.167 -40.167 -22.5 -61.5c1.33301 -8.66699 3 -17.167 5 -25.5s3.66699 -16.5 5 -24.5l-29 -193h-96l98 700h97zM507.001 488.001c-15.333 -49.333 -36.832 -91.333 -64.499 -126
s-58.834 -64 -93.501 -88s-70.5 -44.5 -107.5 -61.5l-106.5 -47.5l-7 76c42 18 82.333 39.167 121 63.5s72.167 52 100.5 83s47.833 64.5 58.5 100.5h99zM329.002 284.001c8.66699 -10.667 16.833 -22.167 24.5 -34.5s14.167 -24.833 19.5 -37.5l96 -212h-103l-111 255z" />
    <glyph glyph-name="l" unicode="l" horiz-adv-x="299" 
d="M229 700l-80 -564.001c-3.33301 -21.333 -0.833008 -36.666 7.5 -45.999s23.833 -14 46.5 -14h48l4 -72c-6.66699 -3.33301 -16 -5.83301 -28 -7.5s-24 -3 -36 -4s-22 -1.5 -30 -1.5c-38.667 0 -68.167 11.167 -88.5 33.5s-27.833 53.5 -22.5 93.5l82 582h97z" />
    <glyph glyph-name="m" unicode="m" horiz-adv-x="873" 
d="M175 488l-5 -124l7 -14l-48 -350h-97l69 488h74zM381 500c42.667 0 73.834 -12.166 93.501 -36.499s26.5 -57.166 20.5 -98.499l-51 -365h-93l48 340c3.33301 27.333 1.16602 47.333 -6.50098 60s-24.167 19 -49.5 19c-16 0 -32.333 -3.66699 -49 -11
s-35.167 -18.833 -55.5 -34.5s-45.166 -36.834 -74.499 -63.501l-5 64c41.333 43.333 79.666 75.166 114.999 95.499s71 30.5 107 30.5zM697 500.001c44 0 75.834 -12.1689 95.501 -36.502s26.5 -57.166 20.5 -98.499l-51 -365h-95l47 340c4 30 1.16699 50.667 -8.5 62
s-25.167 17 -46.5 17c-16 0 -31.833 -3.5 -47.5 -10.5s-33.667 -18.167 -54 -33.5s-45.166 -36.666 -74.499 -63.999l-4 63c41.333 44 79.166 76 113.499 96s69.166 30 104.499 30z" />
    <glyph glyph-name="n" unicode="n" horiz-adv-x="582" 
d="M406 500c27.333 0 50.166 -4.99902 68.499 -14.999s31.833 -25 40.5 -45s11 -45 7 -75l-52 -365h-97l49 339c3.33301 30.667 1.33301 51.667 -6 63s-22.333 17 -45 17c-30 -0.666992 -60.833 -10.5 -92.5 -29.5s-69.5 -45.5 -113.5 -79.5l-2 64
c44.667 41.333 86.834 72.666 126.501 93.999s78.5 32 116.5 32zM178 488.001l-7 -127l6 -14l-48 -347h-97l69 488h77z" />
    <glyph glyph-name="o" unicode="o" 
d="M309 500c56 0 100.334 -8.49805 133.001 -25.498s54.667 -44.5 66 -82.5s12.333 -89 3 -153c-8.66699 -61.333 -22.834 -110.5 -42.501 -147.5s-47.334 -63.667 -83.001 -80s-81.5 -24.5 -137.5 -24.5c-55.333 0 -99.5 8.5 -132.5 25.5s-55.333 44.667 -67 83
s-13.167 88.833 -4.5 151.5c8.66699 61.333 22.834 110.666 42.501 147.999s47.5 64.166 83.5 80.499s82.333 24.5 139 24.5zM309.001 422.002c-34.667 0 -62.667 -5.16895 -84 -15.502s-38.166 -28.666 -50.499 -54.999s-22.166 -63.833 -29.499 -112.5
c-6.66699 -44.667 -8 -79.667 -4 -105s14.667 -43 32 -53s42.666 -15 75.999 -15c34.667 0 62.667 5.33301 84 16s38.166 29.334 50.499 56.001s21.833 63 28.5 109s8 81.5 4 106.5s-14.667 42.667 -32 53s-42.333 15.5 -75 15.5z" />
    <glyph glyph-name="p" unicode="p" horiz-adv-x="579" 
d="M389 500c38 0 68 -7.99902 90 -23.999s35.833 -43 41.5 -81s4.16699 -90.333 -4.5 -157c-8 -54.667 -18.5 -98.667 -31.5 -132s-29.333 -58.5 -49 -75.5s-42.5 -28.5 -68.5 -34.5s-55.667 -9 -89 -9c-16 0 -33.667 0.666992 -53 2s-38.833 3 -58.5 5
s-38.834 4.66699 -57.501 8s-35.667 7 -51 11l22 54l96.5 -3.5c28.333 -1 50.5 -1.5 66.5 -1.5c32 0 58.167 2.16699 78.5 6.5s36.5 12.833 48.5 25.5s21.5 30.834 28.5 54.501s13.5 55.167 19.5 94.5c6.66699 47.333 9.5 83.666 8.5 108.999s-6.66699 42.666 -17 51.999
s-25.833 14 -46.5 14c-16 0 -35.667 -5.16699 -59 -15.5s-48.333 -25 -75 -44s-53 -41.833 -79 -68.5l-18 43c12 18.667 27.833 37.667 47.5 57s41.334 37.333 65.001 54s48 30.167 73 40.5s48.833 15.5 71.5 15.5zM178 488.001l-5.99902 -110.999l9 -9l-46 -343l-9 -17
c-0.666992 -17.333 -1.33398 -33.833 -2.00098 -49.5s-2.66699 -32.834 -6 -51.501l-17 -108h-98l99 689h76z" />
    <glyph glyph-name="q" unicode="q" horiz-adv-x="574" 
d="M281 500c20 0 41 -0.830078 63 -2.49707s43.833 -4 65.5 -7s42.5 -6.5 62.5 -10.5s38.667 -8.66699 56 -14l-52 -52c-22.667 3.33301 -44.167 5.5 -64.5 6.5s-39 1.83301 -56 2.5s-31.5 1 -43.5 1c-29.333 0 -53.666 -2.16699 -72.999 -6.5s-34.833 -12.833 -46.5 -25.5
s-21.167 -30.834 -28.5 -54.501s-13.666 -54.834 -18.999 -93.501c-6 -45.333 -8.5 -80.666 -7.5 -105.999s6.66699 -42.833 17 -52.5s26.5 -14.5 48.5 -14.5c23.333 0 45.166 4.5 65.499 13.5s42.166 23 65.499 42s50 42.5 80 70.5l18 -44
c-17.333 -24.667 -39 -49.667 -65 -75s-55.167 -46.666 -87.5 -63.999s-67.833 -26 -106.5 -26c-34 0 -61.833 7.83301 -83.5 23.5s-36.334 42.5 -44.001 80.5s-7.16699 90.333 1.5 157c8 53.333 18.333 96.666 31 129.999s28.667 58.666 48 75.999
s41.833 29.166 67.5 35.499s54.834 9.5 87.501 9.5zM431 469.003l97 -2.99902l-95 -667h-97l27 183c3.33301 24.667 7.5 47.167 12.5 67.5s11.5 41.166 19.5 62.499l-13 8z" />
    <glyph glyph-name="r" unicode="r" horiz-adv-x="403" 
d="M175 488l-6 -131l7 -14l-47 -343h-97l69 488h74zM417 500l-23 -89.999h-27c-28 0 -57.333 -8.66699 -88 -26s-68.667 -42 -114 -74l-4 61c41.333 41.333 81.5 73.166 120.5 95.499s75.5 33.5 109.5 33.5h26z" />
    <glyph glyph-name="s" unicode="s" horiz-adv-x="510" 
d="M265 500c23.333 0 47.668 -0.838867 73.001 -2.50586s49.833 -3.5 73.5 -5.5s44.834 -4.33301 63.501 -7l-12 -67c-30.667 1.33301 -61.5 2.33301 -92.5 3s-64.167 1.33398 -99.5 2.00098c-27.333 0 -49.5 -0.833008 -66.5 -2.5s-29.667 -5.66699 -38 -12
s-13.166 -17.166 -14.499 -32.499c-2.66699 -18.667 1.16602 -32.167 11.499 -40.5s25.833 -17.166 46.5 -26.499l133 -57c25.333 -10 45.833 -21 61.5 -33s26.667 -26.333 33 -43s7.83301 -38 4.5 -64c-4.66699 -36.667 -16.667 -63.667 -36 -81
s-45.166 -28.666 -77.499 -33.999s-71.5 -8 -117.5 -8c-30 0 -54.5 0.666992 -73.5 2s-37.333 3 -55 5s-38.834 4.66699 -63.501 8l10 67c15.333 -1.33301 32.166 -2.16602 50.499 -2.49902l55 -1c18.333 -0.333008 35.833 -0.5 52.5 -0.5
c40.667 0.666992 72 2.33398 94 5.00098s38 7.83398 48 15.501s16.333 18.5 19 32.5c2 12.667 0.666992 22.5 -4 29.5s-11.834 12.833 -21.501 17.5l-36.5 17l-134 57c-23.333 10.667 -42.666 22.167 -57.999 34.5s-25.833 27.333 -31.5 45s-7.16699 38.5 -4.5 62.5
c4 32 14.167 56.5 30.5 73.5s39.166 28.667 68.499 35s65.333 9.16602 108 8.49902z" />
    <glyph glyph-name="t" unicode="t" horiz-adv-x="383" 
d="M255 631l-69.001 -495c-3.33301 -22 -1.16602 -37.5 6.50098 -46.5s22.834 -13.5 45.501 -13.5h74l4 -71c-11.333 -3.33301 -24.5 -6 -39.5 -8s-29.333 -3.5 -43 -4.5s-24.5 -1.5 -32.5 -1.5c-42.667 0 -73.834 11.667 -93.501 35s-26.167 56.333 -19.5 99l72 506h95z
M386.999 488l-11 -72h-336l9 67l96 5h242z" />
    <glyph glyph-name="u" unicode="u" horiz-adv-x="571" 
d="M195 488l-49.001 -340c-4 -28 -1.66699 -48 7 -60s24.667 -18 48 -18c30 0 59.167 9.33301 87.5 28s63.166 46.667 104.499 84l11 -63c-43.333 -44 -84.166 -77 -122.499 -99s-77.166 -33 -116.499 -33c-45.333 0 -78 12.167 -98 36.5s-26.667 57.833 -20 100.5l51 364
h97zM525.999 488l-69 -488h-75l8 134l-7 14l46 340h97z" />
    <glyph glyph-name="v" unicode="v" horiz-adv-x="538" 
d="M526 488c-6.66699 -32.667 -14.833 -65.6689 -24.5 -99.002s-20.167 -65 -31.5 -95s-22.333 -57.333 -33 -82c-14.667 -34 -29.667 -64.667 -45 -92s-28.333 -48.666 -39 -63.999c-8.66699 -13.333 -17.834 -24.166 -27.501 -32.499s-20.5 -14.333 -32.5 -18
s-27 -5.5 -45 -5.5h-82c-8 0 -14.833 2.5 -20.5 7.5s-9.16699 11.167 -10.5 18.5l-91 462h102l67 -415h15c12 0 22 2 30 6s16.333 12.667 25 26c8.66699 12 19.334 30 32.001 54s25.667 53 39 87c18.667 42.667 33.167 82.5 43.5 119.5s19.5 77.833 27.5 122.5h101z" />
    <glyph glyph-name="w" unicode="w" horiz-adv-x="857" 
d="M144 488l61.9961 -415h12c9.33301 0 17.5 2.66699 24.5 8s14.5 15.333 22.5 30s16.5 33.5 25.5 56.5s17.833 48.5 26.5 76.5c6.66699 20.667 12.667 41.334 18 62.001s10.333 43.5 15 68.5l16 89.5c1.33301 7.33301 4.33301 13.166 9 17.499s10.667 6.5 18 6.5h101
c6.66699 0 12.334 -2.16699 17.001 -6.5s7.33398 -9.83301 8.00098 -16.5l45 -392h11c9.33301 0 17.166 3.33301 23.499 10s12.166 15 17.499 25c12.667 20.667 24 40.667 34 60s20.667 45.666 32 78.999c14.667 38 26.834 76.667 36.501 116s17.834 81 24.501 125h100
c-6.66699 -31.333 -14.334 -62.833 -23.001 -94.5s-18 -62.667 -28 -93s-21 -59.833 -33 -88.5c-14 -32 -28.333 -62.167 -43 -90.5s-27.667 -50.166 -39 -65.499c-8.66699 -12.667 -17.5 -23.167 -26.5 -31.5s-19.167 -14.5 -30.5 -18.5s-25.333 -6 -42 -6h-58
c-8 0 -14.667 2.5 -20 7.5s-8.66602 11.167 -9.99902 18.5l-41 400h-13c-2 -17.333 -5 -37.666 -9 -60.999s-9 -47.333 -15 -72s-12.667 -48.667 -20 -72c-5.33301 -18.667 -11.5 -37.334 -18.5 -56.001s-14.167 -36.167 -21.5 -52.5s-14.666 -30.5 -21.999 -42.5
c-10 -18.667 -21 -33.167 -33 -43.5s-25 -17.333 -39 -21s-29 -5.5 -45 -5.5h-55c-8 0 -14.667 2.5 -20 7.5s-8.66602 11.167 -9.99902 18.5l-83 462h99z" />
    <glyph glyph-name="x" unicode="x" horiz-adv-x="533" 
d="M156 488l115 -245l-186 -243h-106l197 252l-115 236h95zM324 289l-11 -71h-113l10 71h114zM530 488l-183 -237l125 -251h-96l-125 259l176 229h103z" />
    <glyph glyph-name="y" unicode="y" horiz-adv-x="547" 
d="M533 488c-6.66699 -29.333 -13.665 -58.335 -20.998 -87.002s-15.5 -57 -24.5 -85s-19 -55.667 -30 -83s-22.667 -54.166 -35 -80.499s-25.5 -52.5 -39.5 -78.5c-35.333 -64 -70 -115.333 -104 -154s-69.333 -67.5 -106 -86.5s-77 -32.167 -121 -39.5l-15 66
c25.333 6 49.166 14.333 71.499 25s44.166 25 65.499 43s42.333 41.333 63 70s41.667 64 63 106c20.667 40.667 39 80.334 55 119.001s30.333 79.5 43 122.5s24 90.5 34 142.5h101zM145.002 487.998l70 -397c3.33301 -12 11 -18 23 -18h57l-39 -73h-65
c-14.667 0 -27 4.33301 -37 13s-16.667 19.667 -20 33l-91 442h102z" />
    <glyph glyph-name="z" unicode="z" horiz-adv-x="507" 
d="M364 413l112 -1l-349 -338l-113 1zM432 75l-11 -75h-416l10 75h417zM486 488l-11 -76h-408l10 76h409z" />
    <glyph glyph-name="braceleft" unicode="{" horiz-adv-x="323" 
d="M345 768l-4.00391 -61c-33.333 0 -57.5 -6.33301 -72.5 -19s-24.5 -34 -28.5 -64l-25 -174c-3.33301 -27.333 -8.5 -49.166 -15.5 -65.499s-17.5 -28.833 -31.5 -37.5s-34 -15.334 -60 -20.001c22.667 -7.33301 40.167 -15.833 52.5 -25.5s20.333 -22.334 24 -38.001
s3.83398 -35.167 0.500977 -58.5l-32 -230c-4.66699 -28.667 -2 -49 8 -61s32 -18 66 -18l-4 -61c-41.333 -3.33301 -74.833 -0.166016 -100.5 9.50098s-43.667 25.334 -54 47.001s-13.166 48.167 -8.49902 79.5l36 252c2.66699 17.333 2.33398 30 -0.999023 38
s-9.33301 14.333 -18 19s-20 9.66699 -34 15l8 68c16.667 5.33301 29.5 10 38.5 14s16 10.667 21 20s8.83301 24 11.5 44l28 195c4 31.333 13 57.666 27 78.999s34.833 36.5 62.5 45.5s62.834 11.5 105.501 7.5z" />
    <glyph glyph-name="bar" unicode="|" horiz-adv-x="248" 
d="M227 781l-133 -950h-70l133 950h70z" />
    <glyph glyph-name="braceright" unicode="}" horiz-adv-x="323" 
d="M105 768c44 4 78.6699 0.833008 104.003 -9.5s42.666 -26.5 51.999 -48.5s11.666 -47.667 6.99902 -77l-27 -196c-2.66699 -20.667 -3.16699 -35.5 -1.5 -44.5s6.66699 -15.167 15 -18.5s20.166 -7.66602 35.499 -12.999l-9 -68c-15.333 -5.33301 -28 -10.333 -38 -15
s-18 -11.334 -24 -20.001s-10.333 -21.667 -13 -39l-34 -252c-4 -31.333 -13.167 -57.5 -27.5 -78.5s-35 -36 -62 -45s-62.833 -11.833 -107.5 -8.5l4 61c34.667 0 59.167 6.33301 73.5 19s23.5 33.667 27.5 63l33 232c4 23.333 9.5 42.333 16.5 57s18 26.667 33 36
s35.833 18 62.5 26c-22.667 4.66699 -40 11.334 -52 20.001s-19.667 21.667 -23 39s-3 39.666 1 66.999l25 174c4 28 1 48 -9 60s-32 18 -66 18z" />
    <glyph glyph-name="asciitilde" unicode="~" horiz-adv-x="520" 
d="M153 351c17.333 -0.666992 34.835 -3.83105 52.502 -9.49805s35 -11.834 52 -18.501l49 -19c15.667 -6 30.5 -9.66699 44.5 -11c18.667 -2 32 1.5 40 10.5s13.667 23.5 17 43.5l47 -4c-0.666992 -41.333 -9.33398 -72 -26.001 -92s-37.667 -29.333 -63 -28
c-20 1.33301 -39 4.5 -57 9.5s-35.333 11 -52 18s-32.5 13.333 -47.5 19s-29.167 9.16699 -42.5 10.5c-18.667 2.66699 -32 -0.833008 -40 -10.5s-13.333 -24.834 -16 -45.501l-48 4c0.666992 29.333 5.16699 53 13.5 71s19.166 31.333 32.499 40s28 12.667 44 12z" />
    <glyph glyph-name="uni00A0" unicode="&#xa0;" horiz-adv-x="222" 
 />
    <glyph glyph-name="exclamdown" unicode="&#xa1;" horiz-adv-x="260" 
d="M167 283l-16 -183l-41 -294h-96l41 294l36 183h76zM169 496c12.667 0 21.667 -3.16699 27 -9.5s7 -15.5 5 -27.5l-7 -54c-1.33301 -11.333 -5 -19.833 -11 -25.5s-15 -8.5 -27 -8.5h-24c-26 0 -36.667 12.333 -32 37l6 54c3.33301 22.667 16.333 34 39 34h24z" />
    <glyph glyph-name="cent" unicode="&#xa2;" horiz-adv-x="508" 
d="M322 604c24 0 51.3379 -1.83594 82.0049 -5.50293s57.334 -10.5 80.001 -20.5l-15 -60c-22.667 2 -46.334 3.5 -71.001 4.5s-45.334 1.5 -62.001 1.5c-37.333 0 -67.833 -4.83301 -91.5 -14.5s-42.167 -27.167 -55.5 -52.5s-23 -62.666 -29 -111.999
c-6 -47.333 -6.33301 -83.5 -1 -108.5s17.666 -42 36.999 -51s46.666 -13.5 81.999 -13.5c11.333 0 25.333 0.333008 42 1s34.5 1.83398 53.5 3.50098s36.833 3.83398 53.5 6.50098l7 -66c-26 -8.66699 -54.167 -15.167 -84.5 -19.5s-59.833 -6.5 -88.5 -6.5
c-56.667 0 -101.334 8.83301 -134.001 26.5s-54.334 45.5 -65.001 83.5s-11.667 88 -3 150c9.33301 62 23.833 111.5 43.5 148.5s47.167 63.667 82.5 80s81 24.5 137 24.5zM272.005 136.997l-32 -137h-43l32 137h43zM368.005 550.997l-94 -416h-43l93 416h44z
M402.005 689.997l-34 -141h-43l34 141h43z" />
    <glyph glyph-name="sterling" unicode="&#xa3;" horiz-adv-x="571" 
d="M368 702c22 0 49.499 -0.827148 82.499 -2.49414s67.5 -4.16699 103.5 -7.5l-11 -78c-12.667 0.666992 -24.334 1.16699 -35.001 1.5s-22.167 0.666016 -34.5 0.999023s-26.666 0.666016 -42.999 0.999023s-36.833 0.5 -61.5 0.5c-39.333 0 -67.833 -7.33301 -85.5 -22
s-28.167 -41.334 -31.5 -80.001l-19 -250c-2.66699 -30.667 -7.66699 -57.334 -15 -80.001s-17.666 -42.5 -30.999 -59.5s-30.666 -32.833 -51.999 -47.5c10.667 2 21.667 3.33301 33 4s22.333 1 33 1h293l-11 -84h-466l11 85c37.333 17.333 63.666 42.166 78.999 74.499
s24.666 68.5 27.999 108.5l20 254c4 39.333 11.5 70.833 22.5 94.5s25.333 41.667 43 54s38.834 20.666 63.501 24.999s52.667 6.5 84 6.5zM448.999 392.006l-11 -56h-376l7 56h380z" />
    <glyph glyph-name="currency" unicode="&#xa4;" horiz-adv-x="594" 
d="M324 550c40.667 0 75.1689 -8.83203 103.502 -26.499s49 -41.5 62 -71.5s17.167 -64.333 12.5 -103s-16.834 -72.667 -36.501 -102s-44.834 -52 -75.501 -68s-66 -24 -106 -24c-38.667 0 -72.167 8.5 -100.5 25.5s-49.333 40.5 -63 70.5s-18.167 64.667 -13.5 104
c5.33301 39.333 17.5 73.666 36.5 102.999s44 52 75 68s66.167 24 105.5 24zM149.002 259.001l39 -46l-98 -89l-41 46zM442.002 240.001l78 -87l-44 -40l-77 86zM322.002 495.001c-44 0 -80 -13.167 -108 -39.5s-44.333 -61.5 -49 -105.5
c-4.66699 -42 3.83301 -75.667 25.5 -101s52.834 -38.333 93.501 -39c29.333 0 55.333 5.83301 78 17.5s41.167 28.5 55.5 50.5s23.166 48 26.499 78c3.33301 27.333 0.333008 51.5 -9 72.5s-23.5 37.333 -42.5 49s-42.5 17.5 -70.5 17.5zM137.002 595.001l74 -86l-45 -40
l-74 85zM519.002 583.001l40 -47l-92 -80l-41 44z" />
    <glyph glyph-name="yen" unicode="&#xa5;" horiz-adv-x="623" 
d="M644 690l-295.999 -450.999h-91l-169 451h101l100 -279c4 -12.667 7.66699 -25.834 11 -39.501s5.66602 -27.167 6.99902 -40.5h10c4 12.667 10 26.667 18 42s15.667 29 23 41l177 276h109zM361.001 306.001l-44 -306h-100l44 306h100zM522.001 212.001l-8 -56h-445l6 56
h447zM538.001 326.001l-8 -56h-445l6 56h447z" />
    <glyph glyph-name="brokenbar" unicode="&#xa6;" horiz-adv-x="248" 
d="M228 781l-56 -400h-71l57 400h70zM151 231l-56 -400h-71l56 400h71z" />
    <glyph glyph-name="section" unicode="&#xa7;" horiz-adv-x="544" 
d="M88 381l70.0039 -1.00293c-6 -28 -9.16699 -51.667 -9.5 -71s3.5 -35.833 11.5 -49.5s22 -26.834 42 -39.501l157 -97c13.333 -8 25.5 -16.833 36.5 -26.5s20.333 -20.5 28 -32.5s12.834 -26 15.501 -42s2.66699 -35 0 -57c-5.33301 -38.667 -17.333 -67.167 -36 -85.5
s-43 -30.333 -73 -36s-65 -8.5 -105 -8.5c-19.333 0.666992 -41.5 1.33398 -66.5 2.00098s-50.5 1.83398 -76.5 3.50098s-51.333 3.83398 -76 6.50098l12 74c32 -2 61.833 -3.5 89.5 -4.5s58.5 -1.83301 92.5 -2.5c25.333 0 47.666 1.16699 66.999 3.5
s35.166 7.83301 47.499 16.5s19.833 22.334 22.5 41.001c2.66699 22 -0.5 39.333 -9.5 52s-21.5 23.667 -37.5 33l-145 88c-30.667 18 -52.334 38 -65.001 60s-17.834 47.167 -15.501 75.5s10.166 60.833 23.499 97.5zM311.004 702.997
c19.333 0 42.002 -0.50293 68.002 -1.50293s52.667 -2.33301 80 -4s51.666 -3.83398 72.999 -6.50098l-12 -73c-18 1.33301 -35 2.33301 -51 3s-34.167 1.16699 -54.5 1.5s-46.166 0.5 -77.499 0.5c-28 0.666992 -51.667 -0.166016 -71 -2.49902
s-34.333 -7.66602 -45 -15.999s-17.334 -21.5 -20.001 -39.5c-3.33301 -21.333 -0.5 -38.333 8.5 -51s22.167 -24.334 39.5 -35.001l146 -89c30.667 -18 52 -38.333 64 -61s16.833 -48.167 14.5 -76.5s-10.166 -61.166 -23.499 -98.499l-70 1c6 28 9 52.167 9 72.5
s-4 37.833 -12 52.5s-22 28.334 -42 41.001l-156 97c-18.667 12 -34.834 24.833 -48.501 38.5s-23.334 29.834 -29.001 48.501s-6.5 42 -2.5 70c4.66699 36 16 63.333 34 82s42 31 72 37s65.333 9 106 9z" />
    <glyph glyph-name="dieresis" unicode="&#xa8;" horiz-adv-x="413" 
d="M201 696c10 0 16.6689 -2 20.002 -6s4.33301 -10 3 -18l-9 -57c-0.666992 -8.66699 -3.16699 -15 -7.5 -19s-10.833 -6 -19.5 -6h-33c-16.667 0 -24 8 -22 24l8 57c1.33301 8.66699 4.16602 15 8.49902 19s11.166 6 20.499 6h31zM372.002 696c10 0 16.501 -2 19.501 -6
s3.83301 -10 2.5 -18l-8 -57c-0.666992 -8.66699 -3.16699 -15 -7.5 -19s-11.166 -6 -20.499 -6h-33c-16 0 -23 8 -21 24l8 58c1.33301 8 4.16602 14 8.49902 18s11.166 6 20.499 6h31z" />
    <glyph glyph-name="copyright" unicode="&#xa9;" horiz-adv-x="830" 
d="M461 703c70 0 130.829 -15.168 182.496 -45.501s89.834 -72.5 114.501 -126.5s32.334 -117 23.001 -189c-8.66699 -68.667 -30.5 -129.667 -65.5 -183s-81 -95.333 -138 -126s-122.167 -46 -195.5 -46c-54 0 -102.167 8.83301 -144.5 26.5
s-77.666 42.834 -105.999 75.501s-48.5 71 -60.5 115s-14.667 92 -8 144c8.66699 68 30.334 128.667 65.001 182s80.5 95.5 137.5 126.5s122.167 46.5 195.5 46.5zM461.996 564.999c25.333 0 47.666 -1.16699 66.999 -3.5s39 -5.83301 59 -10.5l-10 -53
c-20.667 0.666992 -40 1.33398 -58 2.00098s-36 1 -54 1c-34.667 0 -62.667 -3.83301 -84 -11.5s-37.5 -22.667 -48.5 -45s-19.833 -55.833 -26.5 -100.5c-4.66699 -38.667 -5.16699 -68.834 -1.5 -90.501s13.334 -37 29.001 -46s37.834 -13.5 66.501 -13.5
c20 -0.666992 38.167 -0.833984 54.5 -0.500977s31.5 1 45.5 2s27.667 2.16699 41 3.5l5 -54c-21.333 -5.33301 -43 -9.33301 -65 -12s-46 -4 -72 -4c-52 0 -92 7 -120 21s-46.333 37.333 -55 70s-9.33398 76.334 -2.00098 131.001c8 54.667 20.333 97.5 37 128.5
s40.5 53 71.5 66s71.167 19.5 120.5 19.5zM463.996 654.999c-63.333 0 -119.999 -13.5 -169.999 -40.5s-90.5 -64 -121.5 -111s-50.5 -100.833 -58.5 -161.5c-6.66699 -62 0.166016 -116 20.499 -162s51.833 -81.5 94.5 -106.5s93.334 -37.5 152.001 -37.5
c62.667 0 119 13.333 169 40s90.667 63.5 122 110.5s50.666 100.833 57.999 161.5c8 60 2 113 -18 159s-51.167 82.167 -93.5 108.5s-93.833 39.5 -154.5 39.5z" />
    <glyph glyph-name="ordfeminine" unicode="&#xaa;" horiz-adv-x="446" 
d="M250 608c26 0 54.502 -1.49805 85.502 -4.49805s57.5 -7.16699 79.5 -12.5l-36 -43c-24 1.33301 -46.167 2 -66.5 2h-44.5c-26.667 0 -47.667 -2.16699 -63 -6.5s-26.833 -14.5 -34.5 -30.5s-14.167 -41.333 -19.5 -76c-4.66699 -31.333 -6.33398 -54.833 -5.00098 -70.5
s5.83301 -26 13.5 -31s18.5 -7.5 32.5 -7.5c20 0 41.667 7 65 21s48 33.667 74 59l15 -30c-9.33301 -18.667 -22.166 -36.834 -38.499 -54.501s-35.833 -31.834 -58.5 -42.501s-47.667 -16 -75 -16c-26 -0.666992 -47.333 4.5 -64 15.5s-27.834 29.167 -33.501 54.5
s-5.83398 60.333 -0.500977 105c6 38.667 14 69.167 24 91.5s22.5 39 37.5 50s32 18.167 51 21.5s39.5 5 61.5 5zM344.002 592.002l71 -1l-44 -319h-59l2 69l-5 7z" />
    <glyph glyph-name="guillemotleft" unicode="&#xab;" horiz-adv-x="484" 
d="M407 460l42 -36l-147 -174l105 -179l-49 -33l-137 206l1 22zM221 460l42 -36l-147 -174l105 -179l-49 -33l-137 206l1 22z" />
    <glyph glyph-name="logicalnot" unicode="&#xac;" horiz-adv-x="585" 
d="M517 335l-11 -73h-441l10 73h442zM517 335l-29 -202h-74l27 194z" />
    <glyph glyph-name="uni00AD" unicode="&#xad;" horiz-adv-x="441" 
d="M370 288l-9 -70h-304l10 70h303z" />
    <glyph glyph-name="registered" unicode="&#xae;" horiz-adv-x="548" 
d="M321 702c42 0 78.9941 -8.66504 110.994 -25.998s56.333 -43 73 -77s22.334 -75 17.001 -123c-4.66699 -44.667 -17.667 -83.334 -39 -116.001s-49.166 -58 -83.499 -76s-73.5 -27 -117.5 -27c-45.333 0 -84.166 9.66699 -116.499 29s-56.166 46.166 -71.499 80.499
s-20.666 73.833 -15.999 118.5c5.33301 44.667 18.833 83.167 40.5 115.5s49.834 57.333 84.501 75s74 26.5 118 26.5zM260.994 608.002l-35 -253h-44l36 253h43zM319.994 672.002c-62 0 -110.832 -18.0029 -146.499 -54.0029s-56.5 -82 -62.5 -138
c-4 -40.667 0.666992 -75.5 14 -104.5s33.666 -51.167 60.999 -66.5s59.333 -23 96 -23c40 0 74.833 8.33301 104.5 25s53.5 39.834 71.5 69.501s28.667 64.167 32 103.5c4 40.667 -0.666992 74.834 -14 102.501s-33.333 48.834 -60 63.501s-58.667 22 -96 22z
M323.995 610.999c20 0 37.668 -1.66406 53.001 -4.99707s27 -10.5 35 -21.5s10.333 -27.833 7 -50.5c-2 -17.333 -7.33301 -30.833 -16 -40.5s-23.334 -16.834 -44.001 -21.501v-2c6.66699 -2.66699 12 -6.66699 16 -12s7.33301 -14 10 -26l19 -77h-46l-18 78
c-2 10.667 -5.66699 17.5 -11 20.5s-12.333 4.5 -21 4.5c-23.333 0 -41.5 0.166992 -54.5 0.5s-23 0.666016 -30 0.999023s-13.167 0.5 -18.5 0.5l2 30h99c22 0.666992 38.333 3.5 49 8.5s17.334 17.5 20.001 37.5c2 18 -1 29.5 -9 34.5s-22 7.5 -42 7.5h-44.5
c-13.667 0 -25.334 -0.166992 -35.001 -0.5s-16.5 -0.5 -20.5 -0.5l-6 31c18 1.33301 34.5 2.16602 49.5 2.49902s33.833 0.5 56.5 0.5z" />
    <glyph glyph-name="macron" unicode="&#xaf;" horiz-adv-x="400" 
d="M401 676l-8 -69h-283l9 69h282z" />
    <glyph glyph-name="degree" unicode="&#xb0;" horiz-adv-x="360" 
d="M228 703c26.667 0 49.499 -6 68.499 -18s33.333 -27.833 43 -47.5s13.167 -42.167 10.5 -67.5c-3.33301 -37.333 -18.166 -67.333 -44.499 -90s-58.5 -34 -96.5 -34c-26.667 0 -49.5 6.16699 -68.5 18.5s-32.833 28.5 -41.5 48.5s-12 42 -10 66
c3.33301 36.667 17.833 66.5 43.5 89.5s57.5 34.5 95.5 34.5zM224.999 648c-21.333 0 -39.167 -6.66797 -53.5 -20.001s-22.833 -30.666 -25.5 -51.999c-2 -22.667 3.16699 -41 15.5 -55s29.5 -21 51.5 -21c21.333 0 39.333 6.83301 54 20.5s23 31.5 25 53.5
c2 21.333 -2.83301 39 -14.5 53s-29.167 21 -52.5 21z" />
    <glyph glyph-name="plusminus" unicode="&#xb1;" horiz-adv-x="582" 
d="M361 529l-47 -335h-73l46 335h74zM490 137l-11 -72h-440l10 72h441zM526 398l-10 -72h-441l10 72h441z" />
    <glyph glyph-name="uni00B2" unicode="&#xb2;" horiz-adv-x="416" 
d="M275 774c44.667 0 78.665 -5.1709 101.998 -15.5039s35 -31.166 35 -62.499c0 -20.667 -4.66699 -40.167 -14 -58.5s-21.666 -35.666 -36.999 -51.999s-31.666 -32.5 -48.999 -48.5l-133 -114c11.333 1.33301 21.833 2 31.5 2h31.5l150 -1l-11 -65h-310l6 40
c1.33301 6 3 11.667 5 17s5.66699 10.333 11 15l138 118c16 13.333 31.333 27.333 46 42s26.667 29.334 36 44.001s14 29 14 43s-5.83301 22.833 -17.5 26.5s-27.5 5.5 -47.5 5.5c-21.333 0 -41.833 -0.666992 -61.5 -2s-43.5 -3.33301 -71.5 -6l4 57
c31.333 6.66699 58.833 10.834 82.5 12.501s43.5 2.5 59.5 2.5z" />
    <glyph glyph-name="uni00B3" unicode="&#xb3;" horiz-adv-x="407" 
d="M268 775c47.333 0 81.667 -5.5 103 -16.5s32 -29.5 32 -55.5c0 -32 -7 -60 -21 -84s-36.333 -38.333 -67 -43v-2c25.333 -3.33301 43.166 -11.333 53.499 -24s15.5 -29.334 15.5 -50.001c0 -36 -6.16699 -65 -18.5 -87s-30.5 -37.833 -54.5 -47.5s-54 -14.5 -90 -14.5
c-27.333 0 -53.666 1.16699 -78.999 3.5s-49 5.16602 -71 8.49902l12 56c16 -1.33301 30.667 -2.5 44 -3.5s26.833 -1.66699 40.5 -2s27.5 -0.5 41.5 -0.5c33.333 0 58.166 6.33301 74.499 19s24.5 34.667 24.5 66c0 12.667 -4.66699 23.334 -14 32.001
s-28.333 13.334 -57 14.001h-85l7 54l86 1c28 0 48.5 6.33301 61.5 19s19.5 31.667 19.5 57c0 15.333 -5.5 25.5 -16.5 30.5s-30.5 7.5 -58.5 7.5c-22 0 -43.667 -0.5 -65 -1.5s-39.666 -2.5 -54.999 -4.5l3 55c24 4 46.833 7.16699 68.5 9.5s43.5 3.5 65.5 3.5z" />
    <glyph glyph-name="acute" unicode="&#xb4;" horiz-adv-x="321" 
d="M297 727l43 -74l-212 -118l-28 44z" />
    <glyph glyph-name="uni00B5" unicode="&#xb5;" horiz-adv-x="588" 
d="M207 488l-49.0029 -339.001c-3.33301 -25.333 -0.166016 -43.666 9.50098 -54.999s26.5 -17 50.5 -17c20.667 0 43.5 6.33301 68.5 19s48.5 33.5 70.5 62.5s37.667 68.5 47 118.5l-21 -174c-14 -22.667 -31 -42.667 -51 -60s-42 -31 -66 -41s-49 -15 -75 -15
c-31.333 0 -57.166 7.16699 -77.499 21.5s-35.166 33 -44.499 56s-12 47.167 -8 72.5l49 351h97zM529.997 487.999l-51.999 -375.001c-2.66699 -16.667 -2.83398 -29.5 -0.500977 -38.5s9.83301 -13.5 22.5 -13.5h40l-1 -56c-14 -4 -28.833 -7.5 -44.5 -10.5
s-30.5 -4.5 -44.5 -4.5c-26 0 -45.333 6.83301 -58 20.5s-17 35.834 -13 66.501l3 25l-1 14l53 372h96zM146.998 74.998l-20 -150l-31 -120h-82l53 379z" />
    <glyph glyph-name="paragraph" unicode="&#xb6;" horiz-adv-x="590" 
d="M392 702c23.333 0 50.1689 -1.33203 80.502 -3.99902s56.833 -7 79.5 -13l-11 -56c-15.333 3.33301 -33.333 5.66602 -54 6.99902s-40.834 2.33301 -60.501 3s-36.5 1 -50.5 1l-112 -440c-56 4.66699 -100.5 17 -133.5 37s-55.167 48.333 -66.5 85s-13.333 82 -6 136
c8.66699 62 25.5 110.667 50.5 146s60.667 60.5 107 75.5s105.166 22.5 176.499 22.5zM390.003 685.001l-126 -895h-71l126 895h71zM552.003 685.001l-96 -685h-71l97 685h70z" />
    <glyph glyph-name="periodcentered" unicode="&#xb7;" horiz-adv-x="236" 
d="M135 320c12.667 0 21.666 -3 26.999 -9s7 -15.333 5 -28l-7 -53c-1.33301 -11.333 -5 -19.833 -11 -25.5s-15 -8.5 -27 -8.5h-29c-25.333 0 -36.666 12.333 -33.999 37l8 55c3.33301 21.333 16.333 32 39 32h29z" />
    <glyph glyph-name="cedilla" unicode="&#xb8;" horiz-adv-x="237" 
d="M45 -42c26.667 2.66699 48.835 2.66602 66.502 -0.000976562s30.5 -9.33398 38.5 -20.001s9.66699 -27 5 -49c-4 -28.667 -14.833 -52.667 -32.5 -72s-39.834 -33.166 -66.501 -41.499s-56.334 -10.166 -89.001 -5.49902l17 48c26.667 -0.666992 49.834 5.5 69.501 18.5
s31.167 30.167 34.5 51.5c2 10.667 -0.333008 17.667 -7 21s-22.334 5.33301 -47.001 6z" />
    <glyph glyph-name="uni00B9" unicode="&#xb9;" horiz-adv-x="297" 
d="M290 768l-58 -409h-75l43 303c1.33301 6 2.5 12.333 3.5 19s2.83301 13.667 5.5 21l-111 -28l-2 52l118 42h76z" />
    <glyph glyph-name="ordmasculine" unicode="&#xba;" horiz-adv-x="440" 
d="M257 609c62 0 104.167 -13.3311 126.5 -39.998s28.833 -72.334 19.5 -137.001c-5.33301 -41.333 -15 -74.333 -29 -99s-33.333 -42.334 -58 -53.001s-56.334 -16 -95.001 -16c-60 0 -101.667 13.5 -125 40.5s-30.666 72.167 -21.999 135.5
c8.66699 62 26.667 105.667 54 131s70.333 38 129 38zM257 551.002c-24 0 -43.1689 -3.49902 -57.502 -10.499s-25.166 -19.167 -32.499 -36.5s-13.333 -41.333 -18 -72c-6 -42 -4 -70.667 6 -86s32.333 -23 67 -23c34 0 58.667 8.16699 74 24.5s26.333 47.166 33 92.499
c6.66699 44 4.83398 73.5 -5.49902 88.5s-32.5 22.5 -66.5 22.5z" />
    <glyph glyph-name="guillemotright" unicode="&#xbb;" horiz-adv-x="485" 
d="M65 36l-42 36l147 174l-105 179l49 33l137 -206l-1 -22zM251 36l-42 36l147 174l-105 179l49 33l137 -206l-1 -22z" />
    <glyph glyph-name="onequarter" unicode="&#xbc;" horiz-adv-x="867" 
d="M702 690l-538 -690h-70l540 690h68zM280 690l-58 -414.001h-76l43 309c1.33301 7.33301 2.5 14.333 3.5 21s2.83301 13.334 5.5 20.001l-113 -29l-1 50l120 43h76zM690 413.999l-151.004 -242c-3.33301 -5.33301 -4.16602 -10 -2.49902 -14s5.83398 -6 12.501 -6h263
l-8 -50l-60 -7h-252c-11.333 0 -21.166 3 -29.499 9s-13.166 14.167 -14.499 24.5s2 21.833 10 34.5l159 251h73zM785.996 334.999l-47 -335h-69l36 267l22 68h58z" />
    <glyph glyph-name="onehalf" unicode="&#xbd;" horiz-adv-x="884" 
d="M696 690l-538 -690h-69l538 690h69zM279 690l-58 -414.001h-76l44 309c1.33301 7.33301 2.5 14.333 3.5 21s2.83301 13.334 5.5 20.001l-113 -29l-1 50l120 43h75zM684 420.999c34 0 62.501 -2.49609 85.501 -7.49609s39.5 -14.667 49.5 -29s13 -35.833 9 -64.5
c-2.66699 -21.333 -11.667 -42.833 -27 -64.5s-38.666 -45.834 -69.999 -72.501l-145 -119c12 2 23.333 3 34 3h34l156 -1l-10 -66h-316l6 43c1.33301 6.66699 2.83301 12.667 4.5 18s4.83398 10 9.50098 14l140 119c30 25.333 53.667 48.166 71 68.499
s27.666 39.166 30.999 56.499c4 18 -0.166992 29 -12.5 33s-29.833 6 -52.5 6c-14.667 0 -28.834 -0.166992 -42.501 -0.5s-27.667 -1 -42 -2s-31.833 -2.5 -52.5 -4.5l-1 55c33.333 7.33301 61.166 11.666 83.499 12.999s41.5 2 57.5 2z" />
    <glyph glyph-name="threequarters" unicode="&#xbe;" horiz-adv-x="957" 
d="M802 690l-538 -690h-70l539 690h69zM246 695c57.333 0 96.334 -7.16797 117.001 -21.501s28.334 -40.166 23.001 -77.499c-2 -17.333 -6 -33.166 -12 -47.499s-14.833 -26 -26.5 -35s-27.834 -15.167 -48.501 -18.5l-5 -3c32 -4.66699 53.167 -16 63.5 -34
s13.833 -42.333 10.5 -73c-3.33301 -26.667 -10.666 -48.834 -21.999 -66.501s-28.5 -30.834 -51.5 -39.501s-53.167 -13 -90.5 -13c-26 0 -51.667 1.16699 -77 3.5s-50 4.83301 -74 7.5l5 56c17.333 -1.33301 32.833 -2.33301 46.5 -3s27.167 -1.16699 40.5 -1.5
s26.666 -0.5 39.999 -0.5c36 0 62.167 5.83301 78.5 17.5s26.166 30.834 29.499 57.501c2 11.333 1.83301 21.5 -0.5 30.5s-8.83301 16.167 -19.5 21.5s-27.334 8 -50.001 8h-88l6 54h86c22 0.666992 38.833 4.33398 50.5 11.001s20 15.167 25 25.5s7.83301 20.833 8.5 31.5
c3.33301 19.333 -0.166992 32.333 -10.5 39s-31.166 10 -62.499 10c-22 0 -43.667 -0.333008 -65 -1s-40.666 -1.33398 -57.999 -2.00098l-2 54c23.333 3.33301 46.166 5.83301 68.499 7.5s43.833 2.5 64.5 2.5zM779.001 413.999l-151.004 -242
c-3.33301 -5.33301 -4.16602 -9.83301 -2.49902 -13.5s5.83398 -5.5 12.501 -5.5h263l-7 -51l-61 -7h-252c-11.333 0 -21.166 3 -29.499 9s-13.166 14.167 -14.499 24.5s2 21.833 10 34.5l159 251h73zM872.997 334.999l-47 -335h-70l37 267l22 68h58z" />
    <glyph glyph-name="questiondown" unicode="&#xbf;" horiz-adv-x="498" 
d="M299 287c-4.66699 -36 -14.002 -67.3301 -28.002 -93.9971s-30.333 -50 -49 -70s-37.167 -38.5 -55.5 -55.5s-34.333 -34.167 -48 -51.5s-22.5 -36.666 -26.5 -57.999c-5.33301 -30 0.166992 -52 16.5 -66s45.833 -21 88.5 -21c34 0 62.167 0.166992 84.5 0.5
s42.333 1.16602 60 2.49902s36.834 3 57.501 5v-69c-17.333 -2.66699 -33.5 -5.33398 -48.5 -8.00098s-30.333 -5 -46 -7s-33.667 -3.5 -54 -4.5s-45.166 -1.5 -74.499 -1.5c-70 0 -120.5 14.5 -151.5 43.5s-43.167 67.5 -36.5 115.5c4 29.333 13.333 54.666 28 75.999
s32.167 41.166 52.5 59.499l62 55c21 18.333 39.5 39.5 55.5 63.5s27 52.333 33 85h80zM297.998 501.003c12.667 0 21.8301 -3 27.4971 -9s7.83398 -15.333 6.50098 -28l-8 -54c-1.33301 -12 -5 -20.5 -11 -25.5s-15 -7.5 -27 -7.5h-23c-25.333 0 -36.666 12.333 -33.999 37
l8 54c2.66699 22 15.334 33 38.001 33h23z" />
    <glyph glyph-name="Agrave" unicode="&#xc0;" horiz-adv-x="625" 
d="M419 690c9.33301 0 17.165 -2.83203 23.498 -8.49902s9.83301 -12.5 10.5 -20.5l125 -661h-100l-93 554l-4 30.5c-1.33301 10.333 -2.33301 20.166 -3 29.499h-30c-4 -8.66699 -8.16699 -18.5 -12.5 -29.5s-8.83301 -21.167 -13.5 -30.5l-248 -554h-106l312 664
c2.66699 9.33301 7.33398 16 14.001 20s14.334 6 23.001 6h102zM488.999 293.001l-10 -84h-352l11 84h351zM258.999 917.001l176 -147l-34 -43l-191 124z" />
    <glyph glyph-name="Aacute" unicode="&#xc1;" horiz-adv-x="625" 
d="M419 690c9.33301 0 17.165 -2.83203 23.498 -8.49902s9.83301 -12.5 10.5 -20.5l125 -661h-100l-93 554l-4 30.5c-1.33301 10.333 -2.33301 20.166 -3 29.499h-30c-4 -8.66699 -8.16699 -18.5 -12.5 -29.5s-8.83301 -21.167 -13.5 -30.5l-248 -554h-106l312 664
c2.66699 9.33301 7.33398 16 14.001 20s14.334 6 23.001 6h102zM488.999 293.001l-10 -84h-352l11 84h351zM508.999 919.001l43 -74l-212 -118l-28 44z" />
    <glyph glyph-name="Acircumflex" unicode="&#xc2;" horiz-adv-x="625" 
d="M419 690c9.33301 0 17.165 -2.83203 23.498 -8.49902s9.83301 -12.5 10.5 -20.5l125 -661h-100l-93 554l-4 30.5c-1.33301 10.333 -2.33301 20.166 -3 29.499h-30c-4 -8.66699 -8.16699 -18.5 -12.5 -29.5s-8.83301 -21.167 -13.5 -30.5l-248 -554h-106l312 664
c2.66699 9.33301 7.33398 16 14.001 20s14.334 6 23.001 6h102zM488.999 293.001l-10 -84h-352l11 84h351zM428.999 899.001l125 -134l-34 -36l-122 100h-8l-150 -99l-27 41l149 128h67z" />
    <glyph glyph-name="Atilde" unicode="&#xc3;" horiz-adv-x="625" 
d="M419 690c9.33301 0 17.165 -2.83203 23.498 -8.49902s9.83301 -12.5 10.5 -20.5l125 -661h-100l-93 554l-4 30.5c-1.33301 10.333 -2.33301 20.166 -3 29.499h-30c-4 -8.66699 -8.16699 -18.5 -12.5 -29.5s-8.83301 -21.167 -13.5 -30.5l-248 -554h-106l312 664
c2.66699 9.33301 7.33398 16 14.001 20s14.334 6 23.001 6h102zM488.999 293.001l-10 -84h-352l11 84h351zM309.999 883.001c15.333 -0.666992 29.001 -3.5 41.001 -8.5s23.333 -10.833 34 -17.5s21.167 -12.667 31.5 -18s22.166 -8.66602 35.499 -9.99902
c19.333 -2.66699 33.333 0.666016 42 9.99902s14.334 23.333 17.001 42l45 -4c-0.666992 -40 -9.5 -69.833 -26.5 -89.5s-38.167 -28.5 -63.5 -26.5c-16.667 1.33301 -31.5 4.5 -44.5 9.5s-25 10.833 -36 17.5l-31.5 18.5c-10 5.66699 -20.667 9.16699 -32 10.5
c-19.333 2 -33.333 -1.83301 -42 -11.5s-14.334 -24.167 -17.001 -43.5l-44 4c1.33301 42 10.833 72.5 28.5 91.5s38.5 27.5 62.5 25.5z" />
    <glyph glyph-name="Adieresis" unicode="&#xc4;" horiz-adv-x="625" 
d="M419 690c9.33301 0 17.165 -2.83203 23.498 -8.49902s9.83301 -12.5 10.5 -20.5l125 -661h-100l-93 554l-4 30.5c-1.33301 10.333 -2.33301 20.166 -3 29.499h-30c-4 -8.66699 -8.16699 -18.5 -12.5 -29.5s-8.83301 -21.167 -13.5 -30.5l-248 -554h-106l312 664
c2.66699 9.33301 7.33398 16 14.001 20s14.334 6 23.001 6h102zM488.999 293.001l-10 -84h-352l11 84h351zM324.999 873.001c10 0 16.6689 -2 20.002 -6s4.33301 -10 3 -18l-9 -57c-0.666992 -8.66699 -3.16699 -15 -7.5 -19s-10.833 -6 -19.5 -6h-33
c-16.667 0 -24 8 -22 24l8 57c1.33301 8.66699 4.16602 15 8.49902 19s11.166 6 20.499 6h31zM496.001 873.001c10 0 16.501 -2 19.501 -6s3.83301 -10 2.5 -18l-8 -57c-0.666992 -8.66699 -3.16699 -15 -7.5 -19s-11.166 -6 -20.499 -6h-33c-16 0 -23 8 -21 24l8 58
c1.33301 8 4.16602 14 8.49902 18s11.166 6 20.499 6h31z" />
    <glyph glyph-name="Aring" unicode="&#xc5;" horiz-adv-x="625" 
d="M419 690c9.33301 0 17.165 -2.83203 23.498 -8.49902s9.83301 -12.5 10.5 -20.5l125 -661h-100l-93 554l-4 30.5c-1.33301 10.333 -2.33301 20.166 -3 29.499h-30c-4 -8.66699 -8.16699 -18.5 -12.5 -29.5s-8.83301 -21.167 -13.5 -30.5l-248 -554h-106l312 664
c2.66699 9.33301 7.33398 16 14.001 20s14.334 6 23.001 6h102zM488.999 293.001l-10 -84h-352l11 84h351zM395.999 928.001c30.667 0 55.5 -9 74.5 -27s28.5 -41.333 28.5 -70c0 -33.333 -10.833 -61 -32.5 -83s-49.5 -33 -83.5 -33c-30 0 -54.667 9 -74 27
s-29 41.667 -29 71c0 32.667 11 60 33 82s49.667 33 83 33zM394.999 881.001c-20 0 -35.665 -6 -46.998 -18s-17 -27.333 -17 -46c0 -16 4.66699 -29.167 14 -39.5s22.666 -15.5 39.999 -15.5c19.333 0 34.666 6.33301 45.999 19s17 28 17 46c0 16 -4.66699 29 -14 39
s-22.333 15 -39 15z" />
    <glyph glyph-name="AE" unicode="&#xc6;" horiz-adv-x="916" 
d="M619 691c64 0 119.002 -0.332031 165.002 -0.999023s92 -2.33398 138 -5.00098l-14 -77h-252c-20.667 0 -37.5 -5.16699 -50.5 -15.5s-21.167 -27.166 -24.5 -50.499l-54 -397c-2.66699 -22 0 -38 8 -48s23 -15 45 -15h255l-4 -77
c-45.333 -2.66699 -91 -4.33398 -137 -5.00098s-92.333 -1 -139 -1c-42.667 0 -75.5 12.333 -98.5 37s-31.167 59 -24.5 103l58 416c1.33301 13.333 5.66602 26.5 12.999 39.5s15.666 22.833 24.999 29.5h-5c-9.33301 -5.33301 -19.5 -13.333 -30.5 -24
s-22.167 -24 -33.5 -40l-396 -560h-106l413 579c15.333 22.667 31 41.167 47 55.5s33.5 25.5 52.5 33.5s40.5 13.833 64.5 17.5s52.333 5.5 85 5.5zM480.002 300.001l-12 -82h-305l19 84zM482.002 401.001l359 -1l-10 -75h-361z" />
    <glyph glyph-name="Ccedilla" unicode="&#xc7;" 
d="M384 702c30 0 55.9971 -0.664062 77.9971 -1.99707s41.833 -3.5 59.5 -6.5s35.5 -7.5 53.5 -13.5l-15 -74c-19.333 2 -37.666 3.5 -54.999 4.5s-35.666 1.83301 -54.999 2.5s-42 1 -68 1c-32.667 0 -60.5 -4.16699 -83.5 -12.5s-42.833 -22.333 -59.5 -42
s-30.5 -47.334 -41.5 -83.001s-20.167 -80.5 -27.5 -134.5c-9.33301 -68 -11.833 -121.167 -7.5 -159.5s17.333 -65.5 39 -81.5s53.5 -24.333 95.5 -25c44.667 0 81.834 1 111.501 3s58.834 4.66699 87.501 8l5 -76c-30.667 -8.66699 -61.5 -14.667 -92.5 -18
s-68.833 -5 -113.5 -5c-67.333 0 -119.833 12.333 -157.5 37s-62.167 63.667 -73.5 117s-11 122 1 206c10 66 22.833 121.667 38.5 167s35.667 81.666 60 108.999s54.666 47.166 90.999 59.499s79.5 18.5 129.5 18.5zM224.997 -54.9971
c26.667 2.66699 48.835 2.66602 66.502 -0.000976562s30.5 -9.33398 38.5 -20.001s9.66699 -27 5 -49c-4 -28.667 -14.833 -52.667 -32.5 -72s-39.834 -33.166 -66.501 -41.499s-56.334 -10.166 -89.001 -5.49902l17 48c26.667 -0.666992 49.834 5.5 69.501 18.5
s31.167 30.167 34.5 51.5c2 10.667 -0.333008 17.667 -7 21s-22.334 5.33301 -47.001 6z" />
    <glyph glyph-name="Egrave" unicode="&#xc8;" horiz-adv-x="561" 
d="M264 691l103.5 -0.000976562c35 0 69.167 -0.5 102.5 -1.5s65.333 -2.5 96 -4.5l-13 -77h-272c-22 0 -38.167 -5.16699 -48.5 -15.5s-17.166 -27.166 -20.499 -50.499l-54 -397c-3.33301 -22 -0.833008 -38 7.5 -48s23.5 -15 45.5 -15h267l-2 -77
c-29.333 -2 -60 -3.33301 -92 -4s-64.333 -1.16699 -97 -1.5s-64.334 -0.5 -95.001 -0.5c-51.333 0 -88.5 12.833 -111.5 38.5s-31.167 60.167 -24.5 103.5l60 429c5.33301 38 20.333 67.667 45 89s59 32 103 32zM110 400.999h375l-10 -76h-376zM255 935.999l176 -147
l-34 -43l-191 124z" />
    <glyph glyph-name="Eacute" unicode="&#xc9;" horiz-adv-x="561" 
d="M264 691l103.5 -0.000976562c35 0 69.167 -0.5 102.5 -1.5s65.333 -2.5 96 -4.5l-13 -77h-272c-22 0 -38.167 -5.16699 -48.5 -15.5s-17.166 -27.166 -20.499 -50.499l-54 -397c-3.33301 -22 -0.833008 -38 7.5 -48s23.5 -15 45.5 -15h267l-2 -77
c-29.333 -2 -60 -3.33301 -92 -4s-64.333 -1.16699 -97 -1.5s-64.334 -0.5 -95.001 -0.5c-51.333 0 -88.5 12.833 -111.5 38.5s-31.167 60.167 -24.5 103.5l60 429c5.33301 38 20.333 67.667 45 89s59 32 103 32zM110 400.999h375l-10 -76h-376zM505 937.999l43 -74
l-212 -118l-28 44z" />
    <glyph glyph-name="Ecircumflex" unicode="&#xca;" horiz-adv-x="561" 
d="M264 691l103.5 -0.000976562c35 0 69.167 -0.5 102.5 -1.5s65.333 -2.5 96 -4.5l-13 -77h-272c-22 0 -38.167 -5.16699 -48.5 -15.5s-17.166 -27.166 -20.499 -50.499l-54 -397c-3.33301 -22 -0.833008 -38 7.5 -48s23.5 -15 45.5 -15h267l-2 -77
c-29.333 -2 -60 -3.33301 -92 -4s-64.333 -1.16699 -97 -1.5s-64.334 -0.5 -95.001 -0.5c-51.333 0 -88.5 12.833 -111.5 38.5s-31.167 60.167 -24.5 103.5l60 429c5.33301 38 20.333 67.667 45 89s59 32 103 32zM110 400.999h375l-10 -76h-376zM425 917.999l125 -134
l-34 -36l-122 100h-8l-150 -99l-27 41l149 128h67z" />
    <glyph glyph-name="Edieresis" unicode="&#xcb;" horiz-adv-x="561" 
d="M264 691l103.5 -0.000976562c35 0 69.167 -0.5 102.5 -1.5s65.333 -2.5 96 -4.5l-13 -77h-272c-22 0 -38.167 -5.16699 -48.5 -15.5s-17.166 -27.166 -20.499 -50.499l-54 -397c-3.33301 -22 -0.833008 -38 7.5 -48s23.5 -15 45.5 -15h267l-2 -77
c-29.333 -2 -60 -3.33301 -92 -4s-64.333 -1.16699 -97 -1.5s-64.334 -0.5 -95.001 -0.5c-51.333 0 -88.5 12.833 -111.5 38.5s-31.167 60.167 -24.5 103.5l60 429c5.33301 38 20.333 67.667 45 89s59 32 103 32zM110 400.999h375l-10 -76h-376zM322 890.999
c10 0 16.6689 -2 20.002 -6s4.33301 -10 3 -18l-9 -57c-0.666992 -8.66699 -3.16699 -15 -7.5 -19s-10.833 -6 -19.5 -6h-33c-16.667 0 -24 8 -22 24l8 57c1.33301 8.66699 4.16602 15 8.49902 19s11.166 6 20.499 6h31zM493.002 890.999c10 0 16.501 -2 19.501 -6
s3.83301 -10 2.5 -18l-8 -57c-0.666992 -8.66699 -3.16699 -15 -7.5 -19s-11.166 -6 -20.499 -6h-33c-16 0 -23 8 -21 24l8 58c1.33301 8 4.16602 14 8.49902 18s11.166 6 20.499 6h31z" />
    <glyph glyph-name="Igrave" unicode="&#xcc;" horiz-adv-x="267" 
d="M240 690l-97 -690h-101l97 690h101zM78 917l176 -147l-34 -43l-191 124z" />
    <glyph glyph-name="Iacute" unicode="&#xcd;" horiz-adv-x="267" 
d="M240 690l-97 -690h-101l97 690h101zM328 919l43 -74l-212 -118l-28 44z" />
    <glyph glyph-name="Icircumflex" unicode="&#xce;" horiz-adv-x="267" 
d="M240 690l-97 -690h-101l97 690h101zM248 899l125 -134l-34 -36l-122 100h-8l-150 -99l-27 41l149 128h67z" />
    <glyph glyph-name="Idieresis" unicode="&#xcf;" horiz-adv-x="267" 
d="M240 690l-97 -690h-101l97 690h101zM145 873c10 0 16.6689 -2 20.002 -6s4.33301 -10 3 -18l-9 -57c-0.666992 -8.66699 -3.16699 -15 -7.5 -19s-10.833 -6 -19.5 -6h-33c-16.667 0 -24 8 -22 24l8 57c1.33301 8.66699 4.16602 15 8.49902 19s11.166 6 20.499 6h31z
M316.002 873c10 0 16.501 -2 19.501 -6s3.83301 -10 2.5 -18l-8 -57c-0.666992 -8.66699 -3.16699 -15 -7.5 -19s-11.166 -6 -20.499 -6h-33c-16 0 -23 8 -21 24l8 58c1.33301 8 4.16602 14 8.49902 18s11.166 6 20.499 6h31z" />
    <glyph glyph-name="Eth" unicode="&#xd0;" horiz-adv-x="666" 
d="M345 393l-7 -54h-313l8 54h312zM370 699c71.333 0 127.001 -11.167 167.001 -33.5s66 -59.5 78 -111.5s11.667 -122.667 -1 -212c-10.667 -74.667 -24.334 -135 -41.001 -181s-38 -81.333 -64 -106s-58 -41.5 -96 -50.5s-83 -13.5 -135 -13.5
c-36.667 0 -75.834 0.833008 -117.501 2.5s-81.167 3.83398 -118.5 6.50098l51 80c27.333 -1.33301 58.333 -2.5 93 -3.5s65 -1.5 91 -1.5c37.333 0 69 3.66699 95 11s47.833 20.666 65.5 39.999s32.167 47 43.5 83s21 82.333 29 139c8 55.333 11.667 100.5 11 135.5
s-6.33398 62 -17.001 81s-27.167 32.333 -49.5 40s-51.166 11.5 -86.499 11.5c-17.333 0 -37.5 -0.166992 -60.5 -0.5l-70 -1c-23.667 -0.333008 -44.167 -0.833008 -61.5 -1.5l-37 77c22.667 2 47.834 3.66699 75.501 5s55 2.33301 82 3s51.5 1 73.5 1zM239.001 690
l-97 -690h-100l97 690h100z" />
    <glyph glyph-name="Ntilde" unicode="&#xd1;" horiz-adv-x="706" 
d="M679 690l-93 -653.002c-1.33301 -12.667 -5 -22 -11 -28s-15.333 -9 -28 -9h-79c-11.333 0 -19.833 3 -25.5 9s-10.5 14 -14.5 24l-168 466c-4.66699 12.667 -9.5 27.334 -14.5 44.001s-9.5 32.334 -13.5 47.001h-16c0 -15.333 -0.666992 -30.833 -2 -46.5
s-3 -31.5 -5 -47.5l-69 -496h-98l91 653c2.66699 12.667 7.16699 22 13.5 28s15.5 9 27.5 9h78c11.333 0 19.833 -3 25.5 -9s10.167 -14 13.5 -24l164 -453c5.33301 -14.667 10.833 -31 16.5 -49l16.5 -53h18c0.666992 18 1.66699 35.333 3 52s3.33301 33.667 6 51l66 485
h98zM355 882.998c15.333 -0.666992 29.001 -3.5 41.001 -8.5s23.333 -10.833 34 -17.5s21.167 -12.667 31.5 -18s22.166 -8.66602 35.499 -9.99902c19.333 -2.66699 33.333 0.666016 42 9.99902s14.334 23.333 17.001 42l45 -4c-0.666992 -40 -9.5 -69.833 -26.5 -89.5
s-38.167 -28.5 -63.5 -26.5c-16.667 1.33301 -31.5 4.5 -44.5 9.5s-25 10.833 -36 17.5l-31.5 18.5c-10 5.66699 -20.667 9.16699 -32 10.5c-19.333 2 -33.333 -1.83301 -42 -11.5s-14.334 -24.167 -17.001 -43.5l-44 4c1.33301 42 10.833 72.5 28.5 91.5
s38.5 27.5 62.5 25.5z" />
    <glyph glyph-name="Ograve" unicode="&#xd2;" horiz-adv-x="669" 
d="M387 703c64.667 0 116.334 -11.501 155.001 -34.501s64.167 -60.833 76.5 -113.5s12.166 -123.667 -0.500977 -213c-8.66699 -67.333 -21.167 -123.833 -37.5 -169.5s-36.833 -82.167 -61.5 -109.5s-55 -46.833 -91 -58.5s-79 -17.5 -129 -17.5
c-64.667 0 -116.334 11.333 -155.001 34s-64.5 60.334 -77.5 113.001s-13.5 124 -1.5 214c10 66 22.667 121.5 38 166.5s35.5 81.5 60.5 109.5s55.833 48.167 92.5 60.5s80.334 18.5 131.001 18.5zM382 615.999c-44 0 -79.832 -8.16699 -107.499 -24.5
s-49.5 -44.5 -65.5 -84.5s-29 -95 -39 -165c-9.33301 -68.667 -11.666 -122.334 -6.99902 -161.001s18.167 -66.167 40.5 -82.5s55.166 -24.5 98.499 -24.5c44 0 79.667 8.33301 107 25s49.166 45 65.499 85s29.5 94.667 39.5 164c10.667 70.667 13.5 125.334 8.5 164.001
s-18.833 65.667 -41.5 81s-55.667 23 -99 23zM274.001 916.999l176 -147l-34 -43l-191 124z" />
    <glyph glyph-name="Oacute" unicode="&#xd3;" horiz-adv-x="669" 
d="M387 703c64.667 0 116.334 -11.501 155.001 -34.501s64.167 -60.833 76.5 -113.5s12.166 -123.667 -0.500977 -213c-8.66699 -67.333 -21.167 -123.833 -37.5 -169.5s-36.833 -82.167 -61.5 -109.5s-55 -46.833 -91 -58.5s-79 -17.5 -129 -17.5
c-64.667 0 -116.334 11.333 -155.001 34s-64.5 60.334 -77.5 113.001s-13.5 124 -1.5 214c10 66 22.667 121.5 38 166.5s35.5 81.5 60.5 109.5s55.833 48.167 92.5 60.5s80.334 18.5 131.001 18.5zM382 615.999c-44 0 -79.832 -8.16699 -107.499 -24.5
s-49.5 -44.5 -65.5 -84.5s-29 -95 -39 -165c-9.33301 -68.667 -11.666 -122.334 -6.99902 -161.001s18.167 -66.167 40.5 -82.5s55.166 -24.5 98.499 -24.5c44 0 79.667 8.33301 107 25s49.166 45 65.499 85s29.5 94.667 39.5 164c10.667 70.667 13.5 125.334 8.5 164.001
s-18.833 65.667 -41.5 81s-55.667 23 -99 23zM525.001 918.999l43 -74l-212 -118l-28 44z" />
    <glyph glyph-name="Ocircumflex" unicode="&#xd4;" horiz-adv-x="669" 
d="M387 703c64.667 0 116.334 -11.501 155.001 -34.501s64.167 -60.833 76.5 -113.5s12.166 -123.667 -0.500977 -213c-8.66699 -67.333 -21.167 -123.833 -37.5 -169.5s-36.833 -82.167 -61.5 -109.5s-55 -46.833 -91 -58.5s-79 -17.5 -129 -17.5
c-64.667 0 -116.334 11.333 -155.001 34s-64.5 60.334 -77.5 113.001s-13.5 124 -1.5 214c10 66 22.667 121.5 38 166.5s35.5 81.5 60.5 109.5s55.833 48.167 92.5 60.5s80.334 18.5 131.001 18.5zM382 615.999c-44 0 -79.832 -8.16699 -107.499 -24.5
s-49.5 -44.5 -65.5 -84.5s-29 -95 -39 -165c-9.33301 -68.667 -11.666 -122.334 -6.99902 -161.001s18.167 -66.167 40.5 -82.5s55.166 -24.5 98.499 -24.5c44 0 79.667 8.33301 107 25s49.166 45 65.499 85s29.5 94.667 39.5 164c10.667 70.667 13.5 125.334 8.5 164.001
s-18.833 65.667 -41.5 81s-55.667 23 -99 23zM445.001 898.999l125 -134l-34 -36l-122 100h-8l-150 -99l-27 41l149 128h67z" />
    <glyph glyph-name="Otilde" unicode="&#xd5;" horiz-adv-x="669" 
d="M387 703c64.667 0 116.334 -11.501 155.001 -34.501s64.167 -60.833 76.5 -113.5s12.166 -123.667 -0.500977 -213c-8.66699 -67.333 -21.167 -123.833 -37.5 -169.5s-36.833 -82.167 -61.5 -109.5s-55 -46.833 -91 -58.5s-79 -17.5 -129 -17.5
c-64.667 0 -116.334 11.333 -155.001 34s-64.5 60.334 -77.5 113.001s-13.5 124 -1.5 214c10 66 22.667 121.5 38 166.5s35.5 81.5 60.5 109.5s55.833 48.167 92.5 60.5s80.334 18.5 131.001 18.5zM382 615.999c-44 0 -79.832 -8.16699 -107.499 -24.5
s-49.5 -44.5 -65.5 -84.5s-29 -95 -39 -165c-9.33301 -68.667 -11.666 -122.334 -6.99902 -161.001s18.167 -66.167 40.5 -82.5s55.166 -24.5 98.499 -24.5c44 0 79.667 8.33301 107 25s49.166 45 65.499 85s29.5 94.667 39.5 164c10.667 70.667 13.5 125.334 8.5 164.001
s-18.833 65.667 -41.5 81s-55.667 23 -99 23zM327.001 882.999c15.333 -0.666992 29.001 -3.5 41.001 -8.5s23.333 -10.833 34 -17.5s21.167 -12.667 31.5 -18s22.166 -8.66602 35.499 -9.99902c19.333 -2.66699 33.333 0.666016 42 9.99902s14.334 23.333 17.001 42l45 -4
c-0.666992 -40 -9.5 -69.833 -26.5 -89.5s-38.167 -28.5 -63.5 -26.5c-16.667 1.33301 -31.5 4.5 -44.5 9.5s-25 10.833 -36 17.5l-31.5 18.5c-10 5.66699 -20.667 9.16699 -32 10.5c-19.333 2 -33.333 -1.83301 -42 -11.5s-14.334 -24.167 -17.001 -43.5l-44 4
c1.33301 42 10.833 72.5 28.5 91.5s38.5 27.5 62.5 25.5z" />
    <glyph glyph-name="Odieresis" unicode="&#xd6;" horiz-adv-x="669" 
d="M387 703c64.667 0 116.334 -11.501 155.001 -34.501s64.167 -60.833 76.5 -113.5s12.166 -123.667 -0.500977 -213c-8.66699 -67.333 -21.167 -123.833 -37.5 -169.5s-36.833 -82.167 -61.5 -109.5s-55 -46.833 -91 -58.5s-79 -17.5 -129 -17.5
c-64.667 0 -116.334 11.333 -155.001 34s-64.5 60.334 -77.5 113.001s-13.5 124 -1.5 214c10 66 22.667 121.5 38 166.5s35.5 81.5 60.5 109.5s55.833 48.167 92.5 60.5s80.334 18.5 131.001 18.5zM382 615.999c-44 0 -79.832 -8.16699 -107.499 -24.5
s-49.5 -44.5 -65.5 -84.5s-29 -95 -39 -165c-9.33301 -68.667 -11.666 -122.334 -6.99902 -161.001s18.167 -66.167 40.5 -82.5s55.166 -24.5 98.499 -24.5c44 0 79.667 8.33301 107 25s49.166 45 65.499 85s29.5 94.667 39.5 164c10.667 70.667 13.5 125.334 8.5 164.001
s-18.833 65.667 -41.5 81s-55.667 23 -99 23zM342.001 872.999c10 0 16.6689 -2 20.002 -6s4.33301 -10 3 -18l-9 -57c-0.666992 -8.66699 -3.16699 -15 -7.5 -19s-10.833 -6 -19.5 -6h-33c-16.667 0 -24 8 -22 24l8 57c1.33301 8.66699 4.16602 15 8.49902 19
s11.166 6 20.499 6h31zM513.003 872.999c10 0 16.501 -2 19.501 -6s3.83301 -10 2.5 -18l-8 -57c-0.666992 -8.66699 -3.16699 -15 -7.5 -19s-11.166 -6 -20.499 -6h-33c-16 0 -23 8 -21 24l8 58c1.33301 8 4.16602 14 8.49902 18s11.166 6 20.499 6h31z" />
    <glyph glyph-name="multiply" unicode="&#xd7;" horiz-adv-x="525" 
d="M444 481l43 -61l-405 -321l-43 61zM132 475l311 -321l-52 -54l-312 322z" />
    <glyph glyph-name="Oslash" unicode="&#xd8;" horiz-adv-x="669" 
d="M561 753l44 -24l-480 -790l-43 25zM387 703c64.667 0 116.334 -11.501 155.001 -34.501s64.167 -60.833 76.5 -113.5s12.166 -123.667 -0.500977 -213c-8.66699 -67.333 -21.167 -123.833 -37.5 -169.5s-36.833 -82.167 -61.5 -109.5s-55 -46.833 -91 -58.5
s-79 -17.5 -129 -17.5c-64.667 0 -116.334 11.333 -155.001 34s-64.5 60.334 -77.5 113.001s-13.5 124 -1.5 214c10 66 22.667 121.5 38 166.5s35.5 81.5 60.5 109.5s55.833 48.167 92.5 60.5s80.334 18.5 131.001 18.5zM382 615.999c-44 0 -79.832 -8.16699 -107.499 -24.5
s-49.5 -44.5 -65.5 -84.5s-29 -95 -39 -165c-9.33301 -68.667 -11.666 -122.334 -6.99902 -161.001s18.167 -66.167 40.5 -82.5s55.166 -24.5 98.499 -24.5c44 0 79.667 8.33301 107 25s49.166 45 65.499 85s29.5 94.667 39.5 164c10.667 70.667 13.5 125.334 8.5 164.001
s-18.833 65.667 -41.5 81s-55.667 23 -99 23z" />
    <glyph glyph-name="Ugrave" unicode="&#xd9;" horiz-adv-x="667" 
d="M646 690l-59.998 -425.001c-9.33301 -67.333 -25.166 -121.5 -47.499 -162.5s-52.833 -70.5 -91.5 -88.5s-87.667 -27 -147 -27s-107.5 9.33301 -144.5 28s-62.167 48.667 -75.5 90s-15 96 -5 164l58 421h101l-60 -425c-6.66699 -48 -7.33398 -86.167 -2.00098 -114.5
s18.166 -48.166 38.499 -59.499s49.833 -17 88.5 -17c39.333 0 71.5 6 96.5 18s44.667 32.5 59 61.5s25.166 67.5 32.499 115.5l58 421h101zM274.002 916.999l176 -147l-34 -43l-191 124z" />
    <glyph glyph-name="Uacute" unicode="&#xda;" horiz-adv-x="667" 
d="M646 690l-59.998 -425.001c-9.33301 -67.333 -25.166 -121.5 -47.499 -162.5s-52.833 -70.5 -91.5 -88.5s-87.667 -27 -147 -27s-107.5 9.33301 -144.5 28s-62.167 48.667 -75.5 90s-15 96 -5 164l58 421h101l-60 -425c-6.66699 -48 -7.33398 -86.167 -2.00098 -114.5
s18.166 -48.166 38.499 -59.499s49.833 -17 88.5 -17c39.333 0 71.5 6 96.5 18s44.667 32.5 59 61.5s25.166 67.5 32.499 115.5l58 421h101zM525.002 918.999l43 -74l-212 -118l-28 44z" />
    <glyph glyph-name="Ucircumflex" unicode="&#xdb;" horiz-adv-x="667" 
d="M646 690l-59.998 -425.001c-9.33301 -67.333 -25.166 -121.5 -47.499 -162.5s-52.833 -70.5 -91.5 -88.5s-87.667 -27 -147 -27s-107.5 9.33301 -144.5 28s-62.167 48.667 -75.5 90s-15 96 -5 164l58 421h101l-60 -425c-6.66699 -48 -7.33398 -86.167 -2.00098 -114.5
s18.166 -48.166 38.499 -59.499s49.833 -17 88.5 -17c39.333 0 71.5 6 96.5 18s44.667 32.5 59 61.5s25.166 67.5 32.499 115.5l58 421h101zM445.002 898.999l125 -134l-34 -36l-122 100h-8l-150 -99l-27 41l149 128h67z" />
    <glyph glyph-name="Udieresis" unicode="&#xdc;" horiz-adv-x="667" 
d="M646 690l-59.998 -425.001c-9.33301 -67.333 -25.166 -121.5 -47.499 -162.5s-52.833 -70.5 -91.5 -88.5s-87.667 -27 -147 -27s-107.5 9.33301 -144.5 28s-62.167 48.667 -75.5 90s-15 96 -5 164l58 421h101l-60 -425c-6.66699 -48 -7.33398 -86.167 -2.00098 -114.5
s18.166 -48.166 38.499 -59.499s49.833 -17 88.5 -17c39.333 0 71.5 6 96.5 18s44.667 32.5 59 61.5s25.166 67.5 32.499 115.5l58 421h101zM342.002 872.999c10 0 16.6689 -2 20.002 -6s4.33301 -10 3 -18l-9 -57c-0.666992 -8.66699 -3.16699 -15 -7.5 -19
s-10.833 -6 -19.5 -6h-33c-16.667 0 -24 8 -22 24l8 57c1.33301 8.66699 4.16602 15 8.49902 19s11.166 6 20.499 6h31zM513.004 872.999c10 0 16.501 -2 19.501 -6s3.83301 -10 2.5 -18l-8 -57c-0.666992 -8.66699 -3.16699 -15 -7.5 -19s-11.166 -6 -20.499 -6h-33
c-16 0 -23 8 -21 24l8 58c1.33301 8 4.16602 14 8.49902 18s11.166 6 20.499 6h31z" />
    <glyph glyph-name="Yacute" unicode="&#xdd;" horiz-adv-x="573" 
d="M619 690l-297 -458.998h-91l-169 459h102l99 -286c4 -12.667 7.83301 -25.834 11.5 -39.501s6.16699 -27.167 7.5 -40.5h9c4 12.667 9.83301 26.667 17.5 42s15.167 28.666 22.5 39.999l179 284h109zM335 299.002l-42 -299h-101l43 299h100zM470 919.002l43 -74
l-212 -118l-28 44z" />
    <glyph glyph-name="Thorn" unicode="&#xde;" horiz-adv-x="593" 
d="M359 568c52 0 94.3359 -6.49707 127.003 -19.4971s55.167 -35.667 67.5 -68s14.166 -77.5 5.49902 -135.5c-8 -56.667 -21.167 -100.834 -39.5 -132.501s-43.666 -53.5 -75.999 -65.5s-73.5 -18 -123.5 -18c-38.667 0 -75 1.5 -109 4.5s-62.833 6.5 -86.5 10.5
s-39.834 7.33301 -48.501 10l6 58h113.5h112.5c32.667 0.666992 59.167 4.83398 79.5 12.501s36.166 21.667 47.499 42s19.666 49.166 24.999 86.499c5.33301 35.333 5.66602 62.666 0.999023 81.999s-15.5 32.666 -32.5 39.999s-41.167 11 -72.5 11
c-56.667 0 -105.167 -0.333008 -145.5 -1s-67.833 -1.66699 -82.5 -3l-7 78c26.667 2.66699 51 4.5 73 5.5s45.833 1.66699 71.5 2s56.834 0.5 93.501 0.5zM239.003 690.003l-97 -690h-100l97 690h100z" />
    <glyph glyph-name="germandbls" unicode="&#xdf;" horiz-adv-x="678" 
d="M396 723c58 0 104.007 -4.34375 138.007 -13.0107s57.167 -23 69.5 -43s16.166 -47.333 11.499 -82c-2 -16.667 -6.33301 -32.167 -13 -46.5s-17 -28.166 -31 -41.499s-32.333 -27 -55 -41l-49.5 -26.5c-15.667 -8.33301 -28.5 -17.166 -38.5 -26.499
s-16.333 -21 -19 -35s0.5 -25.333 9.5 -34s22.5 -19 40.5 -31l93 -57c27.333 -18 47 -36.333 59 -55s15.667 -45.334 11 -80.001c-4.66699 -33.333 -15 -58.833 -31 -76.5s-37.667 -29.667 -65 -36s-60.666 -9.5 -99.999 -9.5c-21.333 0 -45.5 0.666992 -72.5 2
s-56.167 4.33301 -87.5 9l10 71c24.667 -1.33301 48.5 -2.5 71.5 -3.5s43.167 -1.16699 60.5 -0.5c25.333 0 46.166 1.5 62.499 4.5s29 8.66699 38 17s14.5 20.5 16.5 36.5c2 12.667 1 23 -3 31s-9.83301 15.333 -17.5 22s-17.5 14 -29.5 22l-94 57
c-23.333 14 -40.833 30.333 -52.5 49s-15.834 40.334 -12.501 65.001c2.66699 20.667 9.83398 37.834 21.501 51.501s26.667 26.334 45 38.001s39.166 23.834 62.499 36.501c16 10.667 29.667 20.334 41 29.001s20 17.834 26 27.501s9.66699 20.834 11 33.501
s-0.666992 23.334 -6 32.001s-16.5 15.334 -33.5 20.001s-43.833 7 -80.5 7s-66 -3.16699 -88 -9.5s-38.333 -17.666 -49 -33.999s-18.334 -39.833 -23.001 -70.5l-83 -589c-4.66699 -32 -13.334 -58.5 -26.001 -79.5s-30.334 -36.833 -53.001 -47.5s-50.667 -16 -84 -16
c-10 0 -25.5 0.5 -46.5 1.5s-43.5 3.16699 -67.5 6.5l15 69h73c30 0 52.167 5.5 66.5 16.5s23.833 32.5 28.5 64.5l82 588c5.33301 39.333 14.666 70.5 27.999 93.5s30.333 40.667 51 53s45.167 20.5 73.5 24.5s60.166 6 95.499 6zM190.007 487.989l-11 -72h-137l9 66l93 6
h46z" />
    <glyph glyph-name="agrave" unicode="&#xe0;" horiz-adv-x="577" 
d="M300 500c17.333 0 36.0029 -0.500977 56.0029 -1.50098s40.167 -2.66699 60.5 -5s40.333 -4.83301 60 -7.5s37.5 -5.66699 53.5 -9l-50 -58c-34.667 1.33301 -65.834 2.33301 -93.501 3s-49.5 1 -65.5 1c-31.333 0 -57.166 -2 -77.499 -6s-36.5 -12.167 -48.5 -24.5
s-21.833 -30.333 -29.5 -54s-14.167 -54.834 -19.5 -93.501c-6.66699 -47.333 -9.66699 -83.666 -9 -108.999s6.16699 -42.666 16.5 -51.999s26.166 -14 47.499 -14c23.333 0 46.333 5.33301 69 16s46.167 26.167 70.5 46.5s49.166 44.5 74.499 72.5l19 -43
c-16 -32 -37 -61 -63 -87s-55.333 -47 -88 -63s-68 -24 -106 -24c-39.333 0 -70 8.33301 -92 25s-35.833 44.334 -41.5 83.001s-3.83398 90 5.49902 154c8 55.333 18.833 99.666 32.5 132.999s30.667 58.5 51 75.5s44.333 28.167 72 33.5s59.5 8 95.5 8zM433.003 477.999
l97 -1l-67 -477h-76l6 114l-11 9zM208.003 736.999l176 -147l-34 -43l-191 124z" />
    <glyph glyph-name="aacute" unicode="&#xe1;" horiz-adv-x="577" 
d="M300 500c17.333 0 36.0029 -0.500977 56.0029 -1.50098s40.167 -2.66699 60.5 -5s40.333 -4.83301 60 -7.5s37.5 -5.66699 53.5 -9l-50 -58c-34.667 1.33301 -65.834 2.33301 -93.501 3s-49.5 1 -65.5 1c-31.333 0 -57.166 -2 -77.499 -6s-36.5 -12.167 -48.5 -24.5
s-21.833 -30.333 -29.5 -54s-14.167 -54.834 -19.5 -93.501c-6.66699 -47.333 -9.66699 -83.666 -9 -108.999s6.16699 -42.666 16.5 -51.999s26.166 -14 47.499 -14c23.333 0 46.333 5.33301 69 16s46.167 26.167 70.5 46.5s49.166 44.5 74.499 72.5l19 -43
c-16 -32 -37 -61 -63 -87s-55.333 -47 -88 -63s-68 -24 -106 -24c-39.333 0 -70 8.33301 -92 25s-35.833 44.334 -41.5 83.001s-3.83398 90 5.49902 154c8 55.333 18.833 99.666 32.5 132.999s30.667 58.5 51 75.5s44.333 28.167 72 33.5s59.5 8 95.5 8zM433.003 477.999
l97 -1l-67 -477h-76l6 114l-11 9zM458.003 738.999l43 -74l-212 -118l-28 44z" />
    <glyph glyph-name="acircumflex" unicode="&#xe2;" horiz-adv-x="577" 
d="M300 500c17.333 0 36.0029 -0.500977 56.0029 -1.50098s40.167 -2.66699 60.5 -5s40.333 -4.83301 60 -7.5s37.5 -5.66699 53.5 -9l-50 -58c-34.667 1.33301 -65.834 2.33301 -93.501 3s-49.5 1 -65.5 1c-31.333 0 -57.166 -2 -77.499 -6s-36.5 -12.167 -48.5 -24.5
s-21.833 -30.333 -29.5 -54s-14.167 -54.834 -19.5 -93.501c-6.66699 -47.333 -9.66699 -83.666 -9 -108.999s6.16699 -42.666 16.5 -51.999s26.166 -14 47.499 -14c23.333 0 46.333 5.33301 69 16s46.167 26.167 70.5 46.5s49.166 44.5 74.499 72.5l19 -43
c-16 -32 -37 -61 -63 -87s-55.333 -47 -88 -63s-68 -24 -106 -24c-39.333 0 -70 8.33301 -92 25s-35.833 44.334 -41.5 83.001s-3.83398 90 5.49902 154c8 55.333 18.833 99.666 32.5 132.999s30.667 58.5 51 75.5s44.333 28.167 72 33.5s59.5 8 95.5 8zM433.003 477.999
l97 -1l-67 -477h-76l6 114l-11 9zM379.003 717.999l125 -134l-34 -36l-122 100h-8l-150 -99l-27 41l149 128h67z" />
    <glyph glyph-name="atilde" unicode="&#xe3;" horiz-adv-x="577" 
d="M300 500c17.333 0 36.0029 -0.500977 56.0029 -1.50098s40.167 -2.66699 60.5 -5s40.333 -4.83301 60 -7.5s37.5 -5.66699 53.5 -9l-50 -58c-34.667 1.33301 -65.834 2.33301 -93.501 3s-49.5 1 -65.5 1c-31.333 0 -57.166 -2 -77.499 -6s-36.5 -12.167 -48.5 -24.5
s-21.833 -30.333 -29.5 -54s-14.167 -54.834 -19.5 -93.501c-6.66699 -47.333 -9.66699 -83.666 -9 -108.999s6.16699 -42.666 16.5 -51.999s26.166 -14 47.499 -14c23.333 0 46.333 5.33301 69 16s46.167 26.167 70.5 46.5s49.166 44.5 74.499 72.5l19 -43
c-16 -32 -37 -61 -63 -87s-55.333 -47 -88 -63s-68 -24 -106 -24c-39.333 0 -70 8.33301 -92 25s-35.833 44.334 -41.5 83.001s-3.83398 90 5.49902 154c8 55.333 18.833 99.666 32.5 132.999s30.667 58.5 51 75.5s44.333 28.167 72 33.5s59.5 8 95.5 8zM433.003 477.999
l97 -1l-67 -477h-76l6 114l-11 9zM261.003 702.999c15.333 -0.666992 29.001 -3.5 41.001 -8.5s23.333 -10.833 34 -17.5s21.167 -12.667 31.5 -18s22.166 -8.66602 35.499 -9.99902c19.333 -2.66699 33.333 0.666016 42 9.99902s14.334 23.333 17.001 42l45 -4
c-0.666992 -40 -9.5 -69.833 -26.5 -89.5s-38.167 -28.5 -63.5 -26.5c-16.667 1.33301 -31.5 4.5 -44.5 9.5s-25 10.833 -36 17.5l-31.5 18.5c-10 5.66699 -20.667 9.16699 -32 10.5c-19.333 2 -33.333 -1.83301 -42 -11.5s-14.334 -24.167 -17.001 -43.5l-44 4
c1.33301 42 10.833 72.5 28.5 91.5s38.5 27.5 62.5 25.5z" />
    <glyph glyph-name="adieresis" unicode="&#xe4;" horiz-adv-x="577" 
d="M300 500c17.333 0 36.0029 -0.500977 56.0029 -1.50098s40.167 -2.66699 60.5 -5s40.333 -4.83301 60 -7.5s37.5 -5.66699 53.5 -9l-50 -58c-34.667 1.33301 -65.834 2.33301 -93.501 3s-49.5 1 -65.5 1c-31.333 0 -57.166 -2 -77.499 -6s-36.5 -12.167 -48.5 -24.5
s-21.833 -30.333 -29.5 -54s-14.167 -54.834 -19.5 -93.501c-6.66699 -47.333 -9.66699 -83.666 -9 -108.999s6.16699 -42.666 16.5 -51.999s26.166 -14 47.499 -14c23.333 0 46.333 5.33301 69 16s46.167 26.167 70.5 46.5s49.166 44.5 74.499 72.5l19 -43
c-16 -32 -37 -61 -63 -87s-55.333 -47 -88 -63s-68 -24 -106 -24c-39.333 0 -70 8.33301 -92 25s-35.833 44.334 -41.5 83.001s-3.83398 90 5.49902 154c8 55.333 18.833 99.666 32.5 132.999s30.667 58.5 51 75.5s44.333 28.167 72 33.5s59.5 8 95.5 8zM433.003 477.999
l97 -1l-67 -477h-76l6 114l-11 9zM276.003 691.999c10 0 16.6689 -2 20.002 -6s4.33301 -10 3 -18l-9 -57c-0.666992 -8.66699 -3.16699 -15 -7.5 -19s-10.833 -6 -19.5 -6h-33c-16.667 0 -24 8 -22 24l8 57c1.33301 8.66699 4.16602 15 8.49902 19s11.166 6 20.499 6h31z
M447.005 691.999c10 0 16.501 -2 19.501 -6s3.83301 -10 2.5 -18l-8 -57c-0.666992 -8.66699 -3.16699 -15 -7.5 -19s-11.166 -6 -20.499 -6h-33c-16 0 -23 8 -21 24l8 58c1.33301 8 4.16602 14 8.49902 18s11.166 6 20.499 6h31z" />
    <glyph glyph-name="aring" unicode="&#xe5;" horiz-adv-x="577" 
d="M300 500c17.333 0 36.0029 -0.500977 56.0029 -1.50098s40.167 -2.66699 60.5 -5s40.333 -4.83301 60 -7.5s37.5 -5.66699 53.5 -9l-50 -58c-34.667 1.33301 -65.834 2.33301 -93.501 3s-49.5 1 -65.5 1c-31.333 0 -57.166 -2 -77.499 -6s-36.5 -12.167 -48.5 -24.5
s-21.833 -30.333 -29.5 -54s-14.167 -54.834 -19.5 -93.501c-6.66699 -47.333 -9.66699 -83.666 -9 -108.999s6.16699 -42.666 16.5 -51.999s26.166 -14 47.499 -14c23.333 0 46.333 5.33301 69 16s46.167 26.167 70.5 46.5s49.166 44.5 74.499 72.5l19 -43
c-16 -32 -37 -61 -63 -87s-55.333 -47 -88 -63s-68 -24 -106 -24c-39.333 0 -70 8.33301 -92 25s-35.833 44.334 -41.5 83.001s-3.83398 90 5.49902 154c8 55.333 18.833 99.666 32.5 132.999s30.667 58.5 51 75.5s44.333 28.167 72 33.5s59.5 8 95.5 8zM433.003 477.999
l97 -1l-67 -477h-76l6 114l-11 9zM345.003 746.999c30.667 0 55.5 -9 74.5 -27s28.5 -41.333 28.5 -70c0 -33.333 -10.833 -61 -32.5 -83s-49.5 -33 -83.5 -33c-30 0 -54.667 9 -74 27s-29 41.667 -29 71c0 32.667 11 60 33 82s49.667 33 83 33zM344.003 699.999
c-20 0 -35.665 -6 -46.998 -18s-17 -27.333 -17 -46c0 -16 4.66699 -29.167 14 -39.5s22.666 -15.5 39.999 -15.5c19.333 0 34.666 6.33301 45.999 19s17 28 17 46c0 16 -4.66699 29 -14 39s-22.333 15 -39 15z" />
    <glyph glyph-name="ae" unicode="&#xe6;" horiz-adv-x="877" 
d="M293 500c26.667 0.666992 54.3281 -0.333984 82.9951 -3.00098s56.834 -5.83398 84.501 -9.50098s52.834 -8.16699 75.501 -13.5l-52 -57c-24 1.33301 -46.167 2.33301 -66.5 3s-38.833 1.33398 -55.5 2.00098s-31 1 -43 1c-30.667 0 -56 -2.16699 -76 -6.5
s-36 -12.666 -48 -24.999s-21.5 -30.333 -28.5 -54s-13.5 -54.5 -19.5 -92.5c-6 -46.667 -8.83301 -82.667 -8.5 -108s5.5 -42.833 15.5 -52.5s24.667 -14.5 44 -14.5c24 0 47.167 5.33301 69.5 16s45.166 26 68.499 46s48 44.333 74 73l18 -42
c-15.333 -32 -35.5 -61.167 -60.5 -87.5s-53.667 -47.5 -86 -63.5s-68.166 -24 -107.499 -24s-69.666 8.66699 -90.999 26s-34.666 45.333 -39.999 84s-3.66602 89.334 5.00098 152.001c8 55.333 18.667 99.666 32 132.999s30 58.5 50 75.5s43.667 28.167 71 33.5s58 8 92 8
zM650.994 499.999c53.333 0 94.3301 -5.83594 122.997 -17.5029s47.834 -29.334 57.501 -53.001s11.834 -52.834 6.50098 -87.501c-4.66699 -31.333 -14.334 -56.333 -29.001 -75s-34.834 -32.5 -60.501 -41.5s-58.167 -15.167 -97.5 -18.5l-240 -22l10 67l224 22
c20.667 2 37.667 5.33301 51 10s23.833 12.334 31.5 23.001s12.834 25 15.501 43c3.33301 22.667 1.83301 39.334 -4.5 50.001s-17.666 17.334 -33.999 20.001s-37.166 3.66699 -62.499 3c-26 0 -47.833 -2.16699 -65.5 -6.5s-32.5 -12.5 -44.5 -24.5s-22 -29 -30 -51
s-14.667 -50.667 -20 -86c-8 -52 -8.66699 -91.5 -2 -118.5s20.167 -45.167 40.5 -54.5s47.166 -14 80.499 -14c16.667 0 35.5 0.5 56.5 1.5s42.167 2.5 63.5 4.5s40.333 4 57 6l7 -63c-16.667 -7.33301 -37 -13.166 -61 -17.499s-48.167 -7.33301 -72.5 -9
s-46.5 -2.5 -66.5 -2.5c-56.667 0 -101.5 9.5 -134.5 28.5s-54.667 48.333 -65 88s-11.5 89.834 -3.5 150.501c6.66699 48.667 16.334 88.834 29.001 120.501s29.5 56.667 50.5 75s47.167 31.166 78.5 38.499s68.333 11 111 11z" />
    <glyph glyph-name="ccedilla" unicode="&#xe7;" horiz-adv-x="489" 
d="M308 500c24.667 0 51.9961 -1.66406 81.9961 -4.99707s56.667 -10 80 -20l-15 -60c-22.667 2 -46.5 3.33301 -71.5 4s-45.167 1 -60.5 1c-38 0 -69 -4.83301 -93 -14.5s-42.667 -27.334 -56 -53.001s-23 -62.834 -29 -111.501c-6.66699 -48 -7.16699 -84.167 -1.5 -108.5
s18.334 -41 38.001 -50s47.5 -13.5 83.5 -13.5c10.667 0 24.334 0.333008 41.001 1s34.334 1.66699 53.001 3s36.667 3.33301 54 6l7 -65c-26 -9.33301 -54.167 -16 -84.5 -20s-59.5 -6 -87.5 -6c-56.667 0 -101.667 8.66699 -135 26s-55.333 45.166 -66 83.499
s-11.667 88.5 -3 150.5c9.33301 62 23.833 111.5 43.5 148.5s47.334 63.5 83.001 79.5s81.5 24 137.5 24zM179.996 -53.9971c26.667 2.66699 48.835 2.66602 66.502 -0.000976562s30.5 -9.33398 38.5 -20.001s9.66699 -27 5 -49c-4 -28.667 -14.833 -52.667 -32.5 -72
s-39.834 -33.166 -66.501 -41.499s-56.334 -10.166 -89.001 -5.49902l17 48c26.667 -0.666992 49.834 5.5 69.501 18.5s31.167 30.167 34.5 51.5c2 10.667 -0.333008 17.667 -7 21s-22.334 5.33301 -47.001 6z" />
    <glyph glyph-name="egrave" unicode="&#xe8;" horiz-adv-x="542" 
d="M315 500c53.333 0 94.3369 -5.83594 123.004 -17.5029s48 -29.334 58 -53.001s12 -52.834 6 -87.501c-4.66699 -31.333 -14.334 -56.333 -29.001 -75s-34.834 -32.5 -60.501 -41.5s-58.167 -15.167 -97.5 -18.5l-240 -22l9 67l225 22c21.333 2 38.5 5.33301 51.5 10
s23.333 12.334 31 23.001s13.167 25 16.5 43c3.33301 22.667 1.66602 39.334 -5.00098 50.001s-18.167 17.334 -34.5 20.001s-37.5 3.66699 -63.5 3c-25.333 0 -46.833 -2.16699 -64.5 -6.5s-32.5 -12.5 -44.5 -24.5s-21.833 -29 -29.5 -51s-14.5 -50.667 -20.5 -86
c-8 -52 -8.5 -91.5 -1.5 -118.5s20.5 -45.167 40.5 -54.5s46.333 -14 79 -14c18 0 37.667 0.5 59 1.5s42.666 2.5 63.999 4.5s41 4 59 6l7 -63c-17.333 -7.33301 -38.166 -13.166 -62.499 -17.499s-48.833 -7.33301 -73.5 -9s-47 -2.5 -67 -2.5
c-58 0 -103.167 9.5 -135.5 28.5s-53.833 48.333 -64.5 88s-12.334 89.834 -5.00098 150.501c6.66699 48.667 16.5 88.834 29.5 120.501s30.167 56.667 51.5 75s47.5 31.166 78.5 38.499s67.833 11 110.5 11zM202.004 736.997l176 -147l-34 -43l-191 124z" />
    <glyph glyph-name="eacute" unicode="&#xe9;" horiz-adv-x="542" 
d="M315 500c53.333 0 94.3369 -5.83594 123.004 -17.5029s48 -29.334 58 -53.001s12 -52.834 6 -87.501c-4.66699 -31.333 -14.334 -56.333 -29.001 -75s-34.834 -32.5 -60.501 -41.5s-58.167 -15.167 -97.5 -18.5l-240 -22l9 67l225 22c21.333 2 38.5 5.33301 51.5 10
s23.333 12.334 31 23.001s13.167 25 16.5 43c3.33301 22.667 1.66602 39.334 -5.00098 50.001s-18.167 17.334 -34.5 20.001s-37.5 3.66699 -63.5 3c-25.333 0 -46.833 -2.16699 -64.5 -6.5s-32.5 -12.5 -44.5 -24.5s-21.833 -29 -29.5 -51s-14.5 -50.667 -20.5 -86
c-8 -52 -8.5 -91.5 -1.5 -118.5s20.5 -45.167 40.5 -54.5s46.333 -14 79 -14c18 0 37.667 0.5 59 1.5s42.666 2.5 63.999 4.5s41 4 59 6l7 -63c-17.333 -7.33301 -38.166 -13.166 -62.499 -17.499s-48.833 -7.33301 -73.5 -9s-47 -2.5 -67 -2.5
c-58 0 -103.167 9.5 -135.5 28.5s-53.833 48.333 -64.5 88s-12.334 89.834 -5.00098 150.501c6.66699 48.667 16.5 88.834 29.5 120.501s30.167 56.667 51.5 75s47.5 31.166 78.5 38.499s67.833 11 110.5 11zM453.004 738.997l43 -74l-212 -118l-28 44z" />
    <glyph glyph-name="ecircumflex" unicode="&#xea;" horiz-adv-x="542" 
d="M315 500c53.333 0 94.3369 -5.83594 123.004 -17.5029s48 -29.334 58 -53.001s12 -52.834 6 -87.501c-4.66699 -31.333 -14.334 -56.333 -29.001 -75s-34.834 -32.5 -60.501 -41.5s-58.167 -15.167 -97.5 -18.5l-240 -22l9 67l225 22c21.333 2 38.5 5.33301 51.5 10
s23.333 12.334 31 23.001s13.167 25 16.5 43c3.33301 22.667 1.66602 39.334 -5.00098 50.001s-18.167 17.334 -34.5 20.001s-37.5 3.66699 -63.5 3c-25.333 0 -46.833 -2.16699 -64.5 -6.5s-32.5 -12.5 -44.5 -24.5s-21.833 -29 -29.5 -51s-14.5 -50.667 -20.5 -86
c-8 -52 -8.5 -91.5 -1.5 -118.5s20.5 -45.167 40.5 -54.5s46.333 -14 79 -14c18 0 37.667 0.5 59 1.5s42.666 2.5 63.999 4.5s41 4 59 6l7 -63c-17.333 -7.33301 -38.166 -13.166 -62.499 -17.499s-48.833 -7.33301 -73.5 -9s-47 -2.5 -67 -2.5
c-58 0 -103.167 9.5 -135.5 28.5s-53.833 48.333 -64.5 88s-12.334 89.834 -5.00098 150.501c6.66699 48.667 16.5 88.834 29.5 120.501s30.167 56.667 51.5 75s47.5 31.166 78.5 38.499s67.833 11 110.5 11zM373.004 717.997l125 -134l-34 -36l-122 100h-8l-150 -99l-27 41
l149 128h67z" />
    <glyph glyph-name="edieresis" unicode="&#xeb;" horiz-adv-x="542" 
d="M315 500c53.333 0 94.3369 -5.83594 123.004 -17.5029s48 -29.334 58 -53.001s12 -52.834 6 -87.501c-4.66699 -31.333 -14.334 -56.333 -29.001 -75s-34.834 -32.5 -60.501 -41.5s-58.167 -15.167 -97.5 -18.5l-240 -22l9 67l225 22c21.333 2 38.5 5.33301 51.5 10
s23.333 12.334 31 23.001s13.167 25 16.5 43c3.33301 22.667 1.66602 39.334 -5.00098 50.001s-18.167 17.334 -34.5 20.001s-37.5 3.66699 -63.5 3c-25.333 0 -46.833 -2.16699 -64.5 -6.5s-32.5 -12.5 -44.5 -24.5s-21.833 -29 -29.5 -51s-14.5 -50.667 -20.5 -86
c-8 -52 -8.5 -91.5 -1.5 -118.5s20.5 -45.167 40.5 -54.5s46.333 -14 79 -14c18 0 37.667 0.5 59 1.5s42.666 2.5 63.999 4.5s41 4 59 6l7 -63c-17.333 -7.33301 -38.166 -13.166 -62.499 -17.499s-48.833 -7.33301 -73.5 -9s-47 -2.5 -67 -2.5
c-58 0 -103.167 9.5 -135.5 28.5s-53.833 48.333 -64.5 88s-12.334 89.834 -5.00098 150.501c6.66699 48.667 16.5 88.834 29.5 120.501s30.167 56.667 51.5 75s47.5 31.166 78.5 38.499s67.833 11 110.5 11zM270.004 691.997c10 0 16.6689 -2 20.002 -6s4.33301 -10 3 -18
l-9 -57c-0.666992 -8.66699 -3.16699 -15 -7.5 -19s-10.833 -6 -19.5 -6h-33c-16.667 0 -24 8 -22 24l8 57c1.33301 8.66699 4.16602 15 8.49902 19s11.166 6 20.499 6h31zM441.006 691.997c10 0 16.501 -2 19.501 -6s3.83301 -10 2.5 -18l-8 -57
c-0.666992 -8.66699 -3.16699 -15 -7.5 -19s-11.166 -6 -20.499 -6h-33c-16 0 -23 8 -21 24l8 58c1.33301 8 4.16602 14 8.49902 18s11.166 6 20.499 6h31z" />
    <glyph glyph-name="igrave" unicode="&#xec;" horiz-adv-x="252" 
d="M202 488l-69 -488h-97l69 488h97zM45 737l176 -147l-34 -43l-191 124z" />
    <glyph glyph-name="iacute" unicode="&#xed;" horiz-adv-x="252" 
d="M202 488l-69 -488h-97l69 488h97zM296 739l43 -74l-212 -118l-28 44z" />
    <glyph glyph-name="icircumflex" unicode="&#xee;" horiz-adv-x="252" 
d="M202 488l-69 -488h-97l69 488h97zM216 718l125 -134l-34 -36l-122 100h-8l-150 -99l-27 41l149 128h67z" />
    <glyph glyph-name="idieresis" unicode="&#xef;" horiz-adv-x="252" 
d="M202 488l-69 -488h-97l69 488h97zM113 692c10 0 16.6689 -2 20.002 -6s4.33301 -10 3 -18l-9 -57c-0.666992 -8.66699 -3.16699 -15 -7.5 -19s-10.833 -6 -19.5 -6h-33c-16.667 0 -24 8 -22 24l8 57c1.33301 8.66699 4.16602 15 8.49902 19s11.166 6 20.499 6h31z
M284.002 692c10 0 16.501 -2 19.501 -6s3.83301 -10 2.5 -18l-8 -57c-0.666992 -8.66699 -3.16699 -15 -7.5 -19s-11.166 -6 -20.499 -6h-33c-16 0 -23 8 -21 24l8 58c1.33301 8 4.16602 14 8.49902 18s11.166 6 20.499 6h31z" />
    <glyph glyph-name="eth" unicode="&#xf0;" horiz-adv-x="560" 
d="M183 698c39.333 1.33301 76.8359 -1.66895 112.503 -9.00195s67.834 -20.333 96.501 -39s52.5 -44.167 71.5 -76.5s31.833 -72.666 38.5 -120.999s5.66699 -106.166 -3 -173.499c-6 -45.333 -14.833 -86 -26.5 -122s-27.5 -66.667 -47.5 -92s-45.667 -44.666 -77 -57.999
s-69.666 -20 -114.999 -20c-50.667 0 -91.334 8.5 -122.001 25.5s-51.667 43 -63 78s-13.333 78.833 -6 131.5c9.33301 71.333 31.5 126.833 66.5 166.5s88.167 59.5 159.5 59.5c15.333 0 31.166 -1.33301 47.499 -4s32.333 -7.66699 48 -15s30.667 -18 45 -32
s27.166 -32.667 38.499 -56l-7 -39c-14.667 18 -30.167 32 -46.5 42s-33.166 17.167 -50.499 21.5s-35 6.5 -53 6.5c-32.667 0 -59 -6.16699 -79 -18.5s-35.333 -30 -46 -53s-18.334 -51.167 -23.001 -84.5c-8.66699 -55.333 -5.16699 -94.166 10.5 -116.499
s44.167 -33.5 85.5 -33.5c35.333 0 63.666 8 84.999 24s37.833 40.667 49.5 74s20.834 76 27.501 128c8 59.333 9.83301 109.333 5.5 150s-13.333 73.5 -27 98.5s-31.334 44.167 -53.001 57.5s-45.834 22.166 -72.501 26.499s-54.667 6.16602 -84 5.49902zM470.003 711.998
l27 -38l-230 -161l-25 36z" />
    <glyph glyph-name="ntilde" unicode="&#xf1;" horiz-adv-x="582" 
d="M406 500c27.333 0 50.166 -4.99902 68.499 -14.999s31.833 -25 40.5 -45s11 -45 7 -75l-52 -365h-97l49 339c3.33301 30.667 1.33301 51.667 -6 63s-22.333 17 -45 17c-30 -0.666992 -60.833 -10.5 -92.5 -29.5s-69.5 -45.5 -113.5 -79.5l-2 64
c44.667 41.333 86.834 72.666 126.501 93.999s78.5 32 116.5 32zM178 488.001l-7 -127l6 -14l-48 -347h-97l69 488h77zM264 703.001c15.333 -0.666992 29.001 -3.5 41.001 -8.5s23.333 -10.833 34 -17.5s21.167 -12.667 31.5 -18s22.166 -8.66602 35.499 -9.99902
c19.333 -2.66699 33.333 0.666016 42 9.99902s14.334 23.333 17.001 42l45 -4c-0.666992 -40 -9.5 -69.833 -26.5 -89.5s-38.167 -28.5 -63.5 -26.5c-16.667 1.33301 -31.5 4.5 -44.5 9.5s-25 10.833 -36 17.5l-31.5 18.5c-10 5.66699 -20.667 9.16699 -32 10.5
c-19.333 2 -33.333 -1.83301 -42 -11.5s-14.334 -24.167 -17.001 -43.5l-44 4c1.33301 42 10.833 72.5 28.5 91.5s38.5 27.5 62.5 25.5z" />
    <glyph glyph-name="ograve" unicode="&#xf2;" 
d="M309 500c56 0 100.334 -8.49805 133.001 -25.498s54.667 -44.5 66 -82.5s12.333 -89 3 -153c-8.66699 -61.333 -22.834 -110.5 -42.501 -147.5s-47.334 -63.667 -83.001 -80s-81.5 -24.5 -137.5 -24.5c-55.333 0 -99.5 8.5 -132.5 25.5s-55.333 44.667 -67 83
s-13.167 88.833 -4.5 151.5c8.66699 61.333 22.834 110.666 42.501 147.999s47.5 64.166 83.5 80.499s82.333 24.5 139 24.5zM309.001 422.002c-34.667 0 -62.667 -5.16895 -84 -15.502s-38.166 -28.666 -50.499 -54.999s-22.166 -63.833 -29.499 -112.5
c-6.66699 -44.667 -8 -79.667 -4 -105s14.667 -43 32 -53s42.666 -15 75.999 -15c34.667 0 62.667 5.33301 84 16s38.166 29.334 50.499 56.001s21.833 63 28.5 109s8 81.5 4 106.5s-14.667 42.667 -32 53s-42.333 15.5 -75 15.5zM202.001 737l176 -147l-34 -43l-191 124z
" />
    <glyph glyph-name="oacute" unicode="&#xf3;" 
d="M309 500c56 0 100.334 -8.49805 133.001 -25.498s54.667 -44.5 66 -82.5s12.333 -89 3 -153c-8.66699 -61.333 -22.834 -110.5 -42.501 -147.5s-47.334 -63.667 -83.001 -80s-81.5 -24.5 -137.5 -24.5c-55.333 0 -99.5 8.5 -132.5 25.5s-55.333 44.667 -67 83
s-13.167 88.833 -4.5 151.5c8.66699 61.333 22.834 110.666 42.501 147.999s47.5 64.166 83.5 80.499s82.333 24.5 139 24.5zM309.001 422.002c-34.667 0 -62.667 -5.16895 -84 -15.502s-38.166 -28.666 -50.499 -54.999s-22.166 -63.833 -29.499 -112.5
c-6.66699 -44.667 -8 -79.667 -4 -105s14.667 -43 32 -53s42.666 -15 75.999 -15c34.667 0 62.667 5.33301 84 16s38.166 29.334 50.499 56.001s21.833 63 28.5 109s8 81.5 4 106.5s-14.667 42.667 -32 53s-42.333 15.5 -75 15.5zM453.001 739l43 -74l-212 -118l-28 44z" />
    <glyph glyph-name="ocircumflex" unicode="&#xf4;" 
d="M309 500c56 0 100.334 -8.49805 133.001 -25.498s54.667 -44.5 66 -82.5s12.333 -89 3 -153c-8.66699 -61.333 -22.834 -110.5 -42.501 -147.5s-47.334 -63.667 -83.001 -80s-81.5 -24.5 -137.5 -24.5c-55.333 0 -99.5 8.5 -132.5 25.5s-55.333 44.667 -67 83
s-13.167 88.833 -4.5 151.5c8.66699 61.333 22.834 110.666 42.501 147.999s47.5 64.166 83.5 80.499s82.333 24.5 139 24.5zM309.001 422.002c-34.667 0 -62.667 -5.16895 -84 -15.502s-38.166 -28.666 -50.499 -54.999s-22.166 -63.833 -29.499 -112.5
c-6.66699 -44.667 -8 -79.667 -4 -105s14.667 -43 32 -53s42.666 -15 75.999 -15c34.667 0 62.667 5.33301 84 16s38.166 29.334 50.499 56.001s21.833 63 28.5 109s8 81.5 4 106.5s-14.667 42.667 -32 53s-42.333 15.5 -75 15.5zM373.001 718l125 -134l-34 -36l-122 100h-8
l-150 -99l-27 41l149 128h67z" />
    <glyph glyph-name="otilde" unicode="&#xf5;" 
d="M309 500c56 0 100.334 -8.49805 133.001 -25.498s54.667 -44.5 66 -82.5s12.333 -89 3 -153c-8.66699 -61.333 -22.834 -110.5 -42.501 -147.5s-47.334 -63.667 -83.001 -80s-81.5 -24.5 -137.5 -24.5c-55.333 0 -99.5 8.5 -132.5 25.5s-55.333 44.667 -67 83
s-13.167 88.833 -4.5 151.5c8.66699 61.333 22.834 110.666 42.501 147.999s47.5 64.166 83.5 80.499s82.333 24.5 139 24.5zM309.001 422.002c-34.667 0 -62.667 -5.16895 -84 -15.502s-38.166 -28.666 -50.499 -54.999s-22.166 -63.833 -29.499 -112.5
c-6.66699 -44.667 -8 -79.667 -4 -105s14.667 -43 32 -53s42.666 -15 75.999 -15c34.667 0 62.667 5.33301 84 16s38.166 29.334 50.499 56.001s21.833 63 28.5 109s8 81.5 4 106.5s-14.667 42.667 -32 53s-42.333 15.5 -75 15.5zM254.001 703
c15.333 -0.666992 29.001 -3.5 41.001 -8.5s23.333 -10.833 34 -17.5s21.167 -12.667 31.5 -18s22.166 -8.66602 35.499 -9.99902c19.333 -2.66699 33.333 0.666016 42 9.99902s14.334 23.333 17.001 42l45 -4c-0.666992 -40 -9.5 -69.833 -26.5 -89.5
s-38.167 -28.5 -63.5 -26.5c-16.667 1.33301 -31.5 4.5 -44.5 9.5s-25 10.833 -36 17.5l-31.5 18.5c-10 5.66699 -20.667 9.16699 -32 10.5c-19.333 2 -33.333 -1.83301 -42 -11.5s-14.334 -24.167 -17.001 -43.5l-44 4c1.33301 42 10.833 72.5 28.5 91.5
s38.5 27.5 62.5 25.5z" />
    <glyph glyph-name="odieresis" unicode="&#xf6;" 
d="M309 500c56 0 100.334 -8.49805 133.001 -25.498s54.667 -44.5 66 -82.5s12.333 -89 3 -153c-8.66699 -61.333 -22.834 -110.5 -42.501 -147.5s-47.334 -63.667 -83.001 -80s-81.5 -24.5 -137.5 -24.5c-55.333 0 -99.5 8.5 -132.5 25.5s-55.333 44.667 -67 83
s-13.167 88.833 -4.5 151.5c8.66699 61.333 22.834 110.666 42.501 147.999s47.5 64.166 83.5 80.499s82.333 24.5 139 24.5zM309.001 422.002c-34.667 0 -62.667 -5.16895 -84 -15.502s-38.166 -28.666 -50.499 -54.999s-22.166 -63.833 -29.499 -112.5
c-6.66699 -44.667 -8 -79.667 -4 -105s14.667 -43 32 -53s42.666 -15 75.999 -15c34.667 0 62.667 5.33301 84 16s38.166 29.334 50.499 56.001s21.833 63 28.5 109s8 81.5 4 106.5s-14.667 42.667 -32 53s-42.333 15.5 -75 15.5zM270.001 692c10 0 16.6689 -2 20.002 -6
s4.33301 -10 3 -18l-9 -57c-0.666992 -8.66699 -3.16699 -15 -7.5 -19s-10.833 -6 -19.5 -6h-33c-16.667 0 -24 8 -22 24l8 57c1.33301 8.66699 4.16602 15 8.49902 19s11.166 6 20.499 6h31zM441.003 692c10 0 16.501 -2 19.501 -6s3.83301 -10 2.5 -18l-8 -57
c-0.666992 -8.66699 -3.16699 -15 -7.5 -19s-11.166 -6 -20.499 -6h-33c-16 0 -23 8 -21 24l8 58c1.33301 8 4.16602 14 8.49902 18s11.166 6 20.499 6h31z" />
    <glyph glyph-name="divide" unicode="&#xf7;" horiz-adv-x="563" 
d="M509 331l-12 -72h-441l11 72h442zM274 176c13.333 0 22.832 -3.16797 28.499 -9.50098s7.5 -16.166 5.5 -29.499l-7 -45c-1.33301 -12 -5.16602 -20.667 -11.499 -26s-15.5 -8 -27.5 -8h-25c-13.333 0 -22.5 3.16699 -27.5 9.5s-6.5 16.166 -4.5 29.499l6 43
c2 12.667 6 21.834 12 27.501s14.667 8.5 26 8.5h25zM323.999 529.999c14 -0.666992 23.668 -3.83301 29.001 -9.5s6.66602 -15.167 3.99902 -28.5l-5 -46c-2 -12 -6.16699 -20.667 -12.5 -26s-15.5 -8 -27.5 -8h-24c-13.333 0 -22.833 3.16699 -28.5 9.5
s-7.5 15.833 -5.5 28.5l6 45c2 12.667 6 21.667 12 27s15.333 8 28 8h24z" />
    <glyph glyph-name="oslash" unicode="&#xf8;" 
d="M452 566l39 -22l-376 -621l-38 22zM309 500c56 0 100.334 -8.49805 133.001 -25.498s54.667 -44.5 66 -82.5s12.333 -89 3 -153c-8.66699 -61.333 -22.834 -110.5 -42.501 -147.5s-47.334 -63.667 -83.001 -80s-81.5 -24.5 -137.5 -24.5c-55.333 0 -99.5 8.5 -132.5 25.5
s-55.333 44.667 -67 83s-13.167 88.833 -4.5 151.5c8.66699 61.333 22.834 110.666 42.501 147.999s47.5 64.166 83.5 80.499s82.333 24.5 139 24.5zM309.001 422.002c-34.667 0 -62.667 -5.16895 -84 -15.502s-38.166 -28.666 -50.499 -54.999
s-22.166 -63.833 -29.499 -112.5c-6.66699 -44.667 -8 -79.667 -4 -105s14.667 -43 32 -53s42.666 -15 75.999 -15c34.667 0 62.667 5.33301 84 16s38.166 29.334 50.499 56.001s21.833 63 28.5 109s8 81.5 4 106.5s-14.667 42.667 -32 53s-42.333 15.5 -75 15.5z" />
    <glyph glyph-name="ugrave" unicode="&#xf9;" horiz-adv-x="571" 
d="M195 488l-49.001 -340c-4 -28 -1.66699 -48 7 -60s24.667 -18 48 -18c30 0 59.167 9.33301 87.5 28s63.166 46.667 104.499 84l11 -63c-43.333 -44 -84.166 -77 -122.499 -99s-77.166 -33 -116.499 -33c-45.333 0 -78 12.167 -98 36.5s-26.667 57.833 -20 100.5l51 364
h97zM525.999 488l-69 -488h-75l8 134l-7 14l46 340h97zM205.999 741l176 -147l-34 -43l-191 124z" />
    <glyph glyph-name="uacute" unicode="&#xfa;" horiz-adv-x="571" 
d="M195 488l-49.001 -340c-4 -28 -1.66699 -48 7 -60s24.667 -18 48 -18c30 0 59.167 9.33301 87.5 28s63.166 46.667 104.499 84l11 -63c-43.333 -44 -84.166 -77 -122.499 -99s-77.166 -33 -116.499 -33c-45.333 0 -78 12.167 -98 36.5s-26.667 57.833 -20 100.5l51 364
h97zM525.999 488l-69 -488h-75l8 134l-7 14l46 340h97zM455.999 743l43 -74l-212 -118l-28 44z" />
    <glyph glyph-name="ucircumflex" unicode="&#xfb;" horiz-adv-x="571" 
d="M195 488l-49.001 -340c-4 -28 -1.66699 -48 7 -60s24.667 -18 48 -18c30 0 59.167 9.33301 87.5 28s63.166 46.667 104.499 84l11 -63c-43.333 -44 -84.166 -77 -122.499 -99s-77.166 -33 -116.499 -33c-45.333 0 -78 12.167 -98 36.5s-26.667 57.833 -20 100.5l51 364
h97zM525.999 488l-69 -488h-75l8 134l-7 14l46 340h97zM375.999 723l125 -134l-34 -36l-122 100h-8l-150 -99l-27 41l149 128h67z" />
    <glyph glyph-name="udieresis" unicode="&#xfc;" horiz-adv-x="571" 
d="M195 488l-49.001 -340c-4 -28 -1.66699 -48 7 -60s24.667 -18 48 -18c30 0 59.167 9.33301 87.5 28s63.166 46.667 104.499 84l11 -63c-43.333 -44 -84.166 -77 -122.499 -99s-77.166 -33 -116.499 -33c-45.333 0 -78 12.167 -98 36.5s-26.667 57.833 -20 100.5l51 364
h97zM525.999 488l-69 -488h-75l8 134l-7 14l46 340h97zM272.999 697c10 0 16.6689 -2 20.002 -6s4.33301 -10 3 -18l-9 -57c-0.666992 -8.66699 -3.16699 -15 -7.5 -19s-10.833 -6 -19.5 -6h-33c-16.667 0 -24 8 -22 24l8 57c1.33301 8.66699 4.16602 15 8.49902 19
s11.166 6 20.499 6h31zM444.001 697c10 0 16.501 -2 19.501 -6s3.83301 -10 2.5 -18l-8 -57c-0.666992 -8.66699 -3.16699 -15 -7.5 -19s-11.166 -6 -20.499 -6h-33c-16 0 -23 8 -21 24l8 58c1.33301 8 4.16602 14 8.49902 18s11.166 6 20.499 6h31z" />
    <glyph glyph-name="yacute" unicode="&#xfd;" horiz-adv-x="547" 
d="M533 488c-6.66699 -29.333 -13.665 -58.335 -20.998 -87.002s-15.5 -57 -24.5 -85s-19 -55.667 -30 -83s-22.667 -54.166 -35 -80.499s-25.5 -52.5 -39.5 -78.5c-35.333 -64 -70 -115.333 -104 -154s-69.333 -67.5 -106 -86.5s-77 -32.167 -121 -39.5l-15 66
c25.333 6 49.166 14.333 71.499 25s44.166 25 65.499 43s42.333 41.333 63 70s41.667 64 63 106c20.667 40.667 39 80.334 55 119.001s30.333 79.5 43 122.5s24 90.5 34 142.5h101zM145.002 487.998l70 -397c3.33301 -12 11 -18 23 -18h57l-39 -73h-65
c-14.667 0 -27 4.33301 -37 13s-16.667 19.667 -20 33l-91 442h102zM427.002 738.998l43 -74l-212 -118l-28 44z" />
    <glyph glyph-name="thorn" unicode="&#xfe;" horiz-adv-x="577" 
d="M388 500c36.667 0 65.8359 -8.00098 87.5029 -24.001s36 -43 43 -81s6.16699 -90.333 -2.5 -157c-8 -54 -18.667 -97.5 -32 -130.5s-29.666 -58.167 -48.999 -75.5s-41.833 -29.166 -67.5 -35.499s-54.834 -9.5 -87.501 -9.5c-34.667 0 -72.334 2.5 -113.001 7.5
s-76.334 11.167 -107.001 18.5l22 55c35.333 -0.666992 67 -1.5 95 -2.5s50.333 -1.5 67 -1.5c31.333 0 57 2.16699 77 6.5s35.833 12.5 47.5 24.5s21 29.833 28 53.5s13.5 55.167 19.5 94.5c6.66699 47.333 9.66699 83.5 9 108.5s-5.83398 42.333 -15.501 52
s-25.167 14.5 -46.5 14.5c-23.333 0 -46.5 -5.33301 -69.5 -16s-46.167 -25.834 -69.5 -45.501s-48 -43.5 -74 -71.5l-18 44c16 30.667 36.833 58.834 62.5 84.501s55.167 46.5 88.5 62.5s68.333 24 105 24zM228.002 699.999l-25 -179.001
c-2.66699 -19.333 -5.5 -38 -8.5 -56s-7.16699 -36.667 -12.5 -56l2 -10l-47 -347l-6 -14c-0.666992 -18.667 -2 -37.167 -4 -55.5s-4.66699 -37.166 -8 -56.499l-18 -125h-96l126 899h97z" />
    <glyph glyph-name="ydieresis" unicode="&#xff;" horiz-adv-x="547" 
d="M533 488c-6.66699 -29.333 -13.665 -58.335 -20.998 -87.002s-15.5 -57 -24.5 -85s-19 -55.667 -30 -83s-22.667 -54.166 -35 -80.499s-25.5 -52.5 -39.5 -78.5c-35.333 -64 -70 -115.333 -104 -154s-69.333 -67.5 -106 -86.5s-77 -32.167 -121 -39.5l-15 66
c25.333 6 49.166 14.333 71.499 25s44.166 25 65.499 43s42.333 41.333 63 70s41.667 64 63 106c20.667 40.667 39 80.334 55 119.001s30.333 79.5 43 122.5s24 90.5 34 142.5h101zM145.002 487.998l70 -397c3.33301 -12 11 -18 23 -18h57l-39 -73h-65
c-14.667 0 -27 4.33301 -37 13s-16.667 19.667 -20 33l-91 442h102zM243.002 691.998c10 0 16.6689 -2 20.002 -6s4.33301 -10 3 -18l-9 -57c-0.666992 -8.66699 -3.16699 -15 -7.5 -19s-10.833 -6 -19.5 -6h-33c-16.667 0 -24 8 -22 24l8 57
c1.33301 8.66699 4.16602 15 8.49902 19s11.166 6 20.499 6h31zM414.004 691.998c10 0 16.501 -2 19.501 -6s3.83301 -10 2.5 -18l-8 -57c-0.666992 -8.66699 -3.16699 -15 -7.5 -19s-11.166 -6 -20.499 -6h-33c-16 0 -23 8 -21 24l8 58c1.33301 8 4.16602 14 8.49902 18
s11.166 6 20.499 6h31z" />
    <glyph glyph-name="Amacron" unicode="&#x100;" horiz-adv-x="625" 
d="M419 690c9.33301 0 17.165 -2.83203 23.498 -8.49902s9.83301 -12.5 10.5 -20.5l125 -661h-100l-93 554l-4 30.5c-1.33301 10.333 -2.33301 20.166 -3 29.499h-30c-4 -8.66699 -8.16699 -18.5 -12.5 -29.5s-8.83301 -21.167 -13.5 -30.5l-248 -554h-106l312 664
c2.66699 9.33301 7.33398 16 14.001 20s14.334 6 23.001 6h102zM488.999 293.001l-10 -84h-352l11 84h351zM532.999 853.001l-8 -69h-283l9 69h282z" />
    <glyph glyph-name="amacron" unicode="&#x101;" horiz-adv-x="577" 
d="M300 500c17.333 0 36.0029 -0.500977 56.0029 -1.50098s40.167 -2.66699 60.5 -5s40.333 -4.83301 60 -7.5s37.5 -5.66699 53.5 -9l-50 -58c-34.667 1.33301 -65.834 2.33301 -93.501 3s-49.5 1 -65.5 1c-31.333 0 -57.166 -2 -77.499 -6s-36.5 -12.167 -48.5 -24.5
s-21.833 -30.333 -29.5 -54s-14.167 -54.834 -19.5 -93.501c-6.66699 -47.333 -9.66699 -83.666 -9 -108.999s6.16699 -42.666 16.5 -51.999s26.166 -14 47.499 -14c23.333 0 46.333 5.33301 69 16s46.167 26.167 70.5 46.5s49.166 44.5 74.499 72.5l19 -43
c-16 -32 -37 -61 -63 -87s-55.333 -47 -88 -63s-68 -24 -106 -24c-39.333 0 -70 8.33301 -92 25s-35.833 44.334 -41.5 83.001s-3.83398 90 5.49902 154c8 55.333 18.833 99.666 32.5 132.999s30.667 58.5 51 75.5s44.333 28.167 72 33.5s59.5 8 95.5 8zM433.003 477.999
l97 -1l-67 -477h-76l6 114l-11 9zM483.003 672.999l-8 -69h-283l9 69h282z" />
    <glyph glyph-name="Abreve" unicode="&#x102;" horiz-adv-x="625" 
d="M419 690c9.33301 0 17.165 -2.83203 23.498 -8.49902s9.83301 -12.5 10.5 -20.5l125 -661h-100l-93 554l-4 30.5c-1.33301 10.333 -2.33301 20.166 -3 29.499h-30c-4 -8.66699 -8.16699 -18.5 -12.5 -29.5s-8.83301 -21.167 -13.5 -30.5l-248 -554h-106l312 664
c2.66699 9.33301 7.33398 16 14.001 20s14.334 6 23.001 6h102zM488.999 293.001l-10 -84h-352l11 84h351zM500.999 889.001l46.998 -11.001c-1.33301 -26 -9.16602 -49 -23.499 -69s-33.5 -35.667 -57.5 -47s-52.333 -17 -85 -17c-33.333 0 -61.333 5.83301 -84 17.5
s-38.834 28 -48.501 49s-11.5 44.5 -5.5 70.5l49 4c-3.33301 -24 3.16699 -42 19.5 -54s39.833 -18 70.5 -18c34.667 0 62.334 6.83301 83.001 20.5s32.334 31.834 35.001 54.501z" />
    <glyph glyph-name="abreve" unicode="&#x103;" horiz-adv-x="577" 
d="M300 500c17.333 0 36.0029 -0.500977 56.0029 -1.50098s40.167 -2.66699 60.5 -5s40.333 -4.83301 60 -7.5s37.5 -5.66699 53.5 -9l-50 -58c-34.667 1.33301 -65.834 2.33301 -93.501 3s-49.5 1 -65.5 1c-31.333 0 -57.166 -2 -77.499 -6s-36.5 -12.167 -48.5 -24.5
s-21.833 -30.333 -29.5 -54s-14.167 -54.834 -19.5 -93.501c-6.66699 -47.333 -9.66699 -83.666 -9 -108.999s6.16699 -42.666 16.5 -51.999s26.166 -14 47.499 -14c23.333 0 46.333 5.33301 69 16s46.167 26.167 70.5 46.5s49.166 44.5 74.499 72.5l19 -43
c-16 -32 -37 -61 -63 -87s-55.333 -47 -88 -63s-68 -24 -106 -24c-39.333 0 -70 8.33301 -92 25s-35.833 44.334 -41.5 83.001s-3.83398 90 5.49902 154c8 55.333 18.833 99.666 32.5 132.999s30.667 58.5 51 75.5s44.333 28.167 72 33.5s59.5 8 95.5 8zM433.003 477.999
l97 -1l-67 -477h-76l6 114l-11 9zM451.003 708.999l46.998 -11.001c-1.33301 -26 -9.16602 -49 -23.499 -69s-33.5 -35.667 -57.5 -47s-52.333 -17 -85 -17c-33.333 0 -61.333 5.83301 -84 17.5s-38.834 28 -48.501 49s-11.5 44.5 -5.5 70.5l49 4
c-3.33301 -24 3.16699 -42 19.5 -54s39.833 -18 70.5 -18c34.667 0 62.334 6.83301 83.001 20.5s32.334 31.834 35.001 54.501z" />
    <glyph glyph-name="Aogonek" unicode="&#x104;" horiz-adv-x="625" 
d="M419 690c9.33301 0 17.165 -2.83203 23.498 -8.49902s9.83301 -12.5 10.5 -20.5l125 -661h-100l-93 554l-4 30.5c-1.33301 10.333 -2.33301 20.166 -3 29.499h-30c-4 -8.66699 -8.16699 -18.5 -12.5 -29.5s-8.83301 -21.167 -13.5 -30.5l-248 -554h-106l312 664
c2.66699 9.33301 7.33398 16 14.001 20s14.334 6 23.001 6h102zM488.999 293.001l-10 -84h-352l11 84h351zM533.999 3.00098l45 -2.99902c-16.667 -16.667 -32 -34.334 -46 -53.001s-27 -39.334 -39 -62.001c-12.667 -22.667 -13 -37.167 -1 -43.5s33.333 -4.5 64 5.5
l12 -41c-34.667 -12.667 -63.5 -19.167 -86.5 -19.5s-40.333 4.33398 -52 14.001s-18 22.167 -19 37.5s2.83301 32 11.5 50c8.66699 16 21.667 33.667 39 53s41.333 40 72 62z" />
    <glyph glyph-name="aogonek" unicode="&#x105;" horiz-adv-x="577" 
d="M300 500c17.333 0 36.0029 -0.500977 56.0029 -1.50098s40.167 -2.66699 60.5 -5s40.333 -4.83301 60 -7.5s37.5 -5.66699 53.5 -9l-50 -58c-34.667 1.33301 -65.834 2.33301 -93.501 3s-49.5 1 -65.5 1c-31.333 0 -57.166 -2 -77.499 -6s-36.5 -12.167 -48.5 -24.5
s-21.833 -30.333 -29.5 -54s-14.167 -54.834 -19.5 -93.501c-6.66699 -47.333 -9.66699 -83.666 -9 -108.999s6.16699 -42.666 16.5 -51.999s26.166 -14 47.499 -14c23.333 0 46.333 5.33301 69 16s46.167 26.167 70.5 46.5s49.166 44.5 74.499 72.5l19 -43
c-16 -32 -37 -61 -63 -87s-55.333 -47 -88 -63s-68 -24 -106 -24c-39.333 0 -70 8.33301 -92 25s-35.833 44.334 -41.5 83.001s-3.83398 90 5.49902 154c8 55.333 18.833 99.666 32.5 132.999s30.667 58.5 51 75.5s44.333 28.167 72 33.5s59.5 8 95.5 8zM433.003 477.999
l97 -1l-67 -477h-76l6 114l-11 9zM417.003 2.99902l45 -2.99902c-16.667 -16.667 -32 -34.334 -46 -53.001s-27 -39.334 -39 -62.001c-12.667 -22.667 -13 -37.167 -1 -43.5s33.333 -4.5 64 5.5l12 -41c-34.667 -12.667 -63.5 -19.167 -86.5 -19.5
s-40.333 4.33398 -52 14.001s-18 22.167 -19 37.5s2.83301 32 11.5 50c8.66699 16 21.667 33.667 39 53s41.333 40 72 62z" />
    <glyph glyph-name="Cacute" unicode="&#x106;" 
d="M384 702c30 0 55.9971 -0.664062 77.9971 -1.99707s41.833 -3.5 59.5 -6.5s35.5 -7.5 53.5 -13.5l-15 -74c-19.333 2 -37.666 3.5 -54.999 4.5s-35.666 1.83301 -54.999 2.5s-42 1 -68 1c-32.667 0 -60.5 -4.16699 -83.5 -12.5s-42.833 -22.333 -59.5 -42
s-30.5 -47.334 -41.5 -83.001s-20.167 -80.5 -27.5 -134.5c-9.33301 -68 -11.833 -121.167 -7.5 -159.5s17.333 -65.5 39 -81.5s53.5 -24.333 95.5 -25c44.667 0 81.834 1 111.501 3s58.834 4.66699 87.501 8l5 -76c-30.667 -8.66699 -61.5 -14.667 -92.5 -18
s-68.833 -5 -113.5 -5c-67.333 0 -119.833 12.333 -157.5 37s-62.167 63.667 -73.5 117s-11 122 1 206c10 66 22.833 121.667 38.5 167s35.667 81.666 60 108.999s54.666 47.166 90.999 59.499s79.5 18.5 129.5 18.5zM515.997 919.003l43 -74l-212 -118l-28 44z" />
    <glyph glyph-name="cacute" unicode="&#x107;" horiz-adv-x="489" 
d="M308 500c24.667 0 51.9961 -1.66406 81.9961 -4.99707s56.667 -10 80 -20l-15 -60c-22.667 2 -46.5 3.33301 -71.5 4s-45.167 1 -60.5 1c-38 0 -69 -4.83301 -93 -14.5s-42.667 -27.334 -56 -53.001s-23 -62.834 -29 -111.501c-6.66699 -48 -7.16699 -84.167 -1.5 -108.5
s18.334 -41 38.001 -50s47.5 -13.5 83.5 -13.5c10.667 0 24.334 0.333008 41.001 1s34.334 1.66699 53.001 3s36.667 3.33301 54 6l7 -65c-26 -9.33301 -54.167 -16 -84.5 -20s-59.5 -6 -87.5 -6c-56.667 0 -101.667 8.66699 -135 26s-55.333 45.166 -66 83.499
s-11.667 88.5 -3 150.5c9.33301 62 23.833 111.5 43.5 148.5s47.334 63.5 83.001 79.5s81.5 24 137.5 24zM434.996 739.003l43 -74l-212 -118l-28 44z" />
    <glyph glyph-name="Ccircumflex" unicode="&#x108;" 
d="M384 702c30 0 55.9971 -0.664062 77.9971 -1.99707s41.833 -3.5 59.5 -6.5s35.5 -7.5 53.5 -13.5l-15 -74c-19.333 2 -37.666 3.5 -54.999 4.5s-35.666 1.83301 -54.999 2.5s-42 1 -68 1c-32.667 0 -60.5 -4.16699 -83.5 -12.5s-42.833 -22.333 -59.5 -42
s-30.5 -47.334 -41.5 -83.001s-20.167 -80.5 -27.5 -134.5c-9.33301 -68 -11.833 -121.167 -7.5 -159.5s17.333 -65.5 39 -81.5s53.5 -24.333 95.5 -25c44.667 0 81.834 1 111.501 3s58.834 4.66699 87.501 8l5 -76c-30.667 -8.66699 -61.5 -14.667 -92.5 -18
s-68.833 -5 -113.5 -5c-67.333 0 -119.833 12.333 -157.5 37s-62.167 63.667 -73.5 117s-11 122 1 206c10 66 22.833 121.667 38.5 167s35.667 81.666 60 108.999s54.666 47.166 90.999 59.499s79.5 18.5 129.5 18.5zM436.997 899.003l125 -134l-34 -36l-122 100h-8
l-150 -99l-27 41l149 128h67z" />
    <glyph glyph-name="ccircumflex" unicode="&#x109;" horiz-adv-x="489" 
d="M308 500c24.667 0 51.9961 -1.66406 81.9961 -4.99707s56.667 -10 80 -20l-15 -60c-22.667 2 -46.5 3.33301 -71.5 4s-45.167 1 -60.5 1c-38 0 -69 -4.83301 -93 -14.5s-42.667 -27.334 -56 -53.001s-23 -62.834 -29 -111.501c-6.66699 -48 -7.16699 -84.167 -1.5 -108.5
s18.334 -41 38.001 -50s47.5 -13.5 83.5 -13.5c10.667 0 24.334 0.333008 41.001 1s34.334 1.66699 53.001 3s36.667 3.33301 54 6l7 -65c-26 -9.33301 -54.167 -16 -84.5 -20s-59.5 -6 -87.5 -6c-56.667 0 -101.667 8.66699 -135 26s-55.333 45.166 -66 83.499
s-11.667 88.5 -3 150.5c9.33301 62 23.833 111.5 43.5 148.5s47.334 63.5 83.001 79.5s81.5 24 137.5 24zM355.996 718.003l125 -134l-34 -36l-122 100h-8l-150 -99l-27 41l149 128h67z" />
    <glyph glyph-name="Cdotaccent" unicode="&#x10a;" 
d="M384 702c30 0 55.9971 -0.664062 77.9971 -1.99707s41.833 -3.5 59.5 -6.5s35.5 -7.5 53.5 -13.5l-15 -74c-19.333 2 -37.666 3.5 -54.999 4.5s-35.666 1.83301 -54.999 2.5s-42 1 -68 1c-32.667 0 -60.5 -4.16699 -83.5 -12.5s-42.833 -22.333 -59.5 -42
s-30.5 -47.334 -41.5 -83.001s-20.167 -80.5 -27.5 -134.5c-9.33301 -68 -11.833 -121.167 -7.5 -159.5s17.333 -65.5 39 -81.5s53.5 -24.333 95.5 -25c44.667 0 81.834 1 111.501 3s58.834 4.66699 87.501 8l5 -76c-30.667 -8.66699 -61.5 -14.667 -92.5 -18
s-68.833 -5 -113.5 -5c-67.333 0 -119.833 12.333 -157.5 37s-62.167 63.667 -73.5 117s-11 122 1 206c10 66 22.833 121.667 38.5 167s35.667 81.666 60 108.999s54.666 47.166 90.999 59.499s79.5 18.5 129.5 18.5zM415.997 872.003
c8.66699 0 15.668 -2.66602 21.001 -7.99902s7.33301 -12.666 6 -21.999l-8 -56c-2 -18 -12 -27 -30 -27h-30c-10 0 -17.333 2.66699 -22 8s-6.33398 12.666 -5.00098 21.999l7 56c1.33301 9.33301 4.33301 16.166 9 20.499s11.667 6.5 21 6.5h31z" />
    <glyph glyph-name="cdotaccent" unicode="&#x10b;" horiz-adv-x="489" 
d="M308 500c24.667 0 51.9961 -1.66406 81.9961 -4.99707s56.667 -10 80 -20l-15 -60c-22.667 2 -46.5 3.33301 -71.5 4s-45.167 1 -60.5 1c-38 0 -69 -4.83301 -93 -14.5s-42.667 -27.334 -56 -53.001s-23 -62.834 -29 -111.501c-6.66699 -48 -7.16699 -84.167 -1.5 -108.5
s18.334 -41 38.001 -50s47.5 -13.5 83.5 -13.5c10.667 0 24.334 0.333008 41.001 1s34.334 1.66699 53.001 3s36.667 3.33301 54 6l7 -65c-26 -9.33301 -54.167 -16 -84.5 -20s-59.5 -6 -87.5 -6c-56.667 0 -101.667 8.66699 -135 26s-55.333 45.166 -66 83.499
s-11.667 88.5 -3 150.5c9.33301 62 23.833 111.5 43.5 148.5s47.334 63.5 83.001 79.5s81.5 24 137.5 24zM334.996 691.003c8.66699 0 15.668 -2.66602 21.001 -7.99902s7.33301 -12.666 6 -21.999l-8 -56c-2 -18 -12 -27 -30 -27h-30c-10 0 -17.333 2.66699 -22 8
s-6.33398 12.666 -5.00098 21.999l7 56c1.33301 9.33301 4.33301 16.166 9 20.499s11.667 6.5 21 6.5h31z" />
    <glyph glyph-name="Ccaron" unicode="&#x10c;" 
d="M384 702c30 0 55.9971 -0.664062 77.9971 -1.99707s41.833 -3.5 59.5 -6.5s35.5 -7.5 53.5 -13.5l-15 -74c-19.333 2 -37.666 3.5 -54.999 4.5s-35.666 1.83301 -54.999 2.5s-42 1 -68 1c-32.667 0 -60.5 -4.16699 -83.5 -12.5s-42.833 -22.333 -59.5 -42
s-30.5 -47.334 -41.5 -83.001s-20.167 -80.5 -27.5 -134.5c-9.33301 -68 -11.833 -121.167 -7.5 -159.5s17.333 -65.5 39 -81.5s53.5 -24.333 95.5 -25c44.667 0 81.834 1 111.501 3s58.834 4.66699 87.501 8l5 -76c-30.667 -8.66699 -61.5 -14.667 -92.5 -18
s-68.833 -5 -113.5 -5c-67.333 0 -119.833 12.333 -157.5 37s-62.167 63.667 -73.5 117s-11 122 1 206c10 66 22.833 121.667 38.5 167s35.667 81.666 60 108.999s54.666 47.166 90.999 59.499s79.5 18.5 129.5 18.5zM542.997 911.003l28 -40l-153 -128h-63l-122 134l37 34
l117 -97h8z" />
    <glyph glyph-name="ccaron" unicode="&#x10d;" horiz-adv-x="489" 
d="M308 500c24.667 0 51.9961 -1.66406 81.9961 -4.99707s56.667 -10 80 -20l-15 -60c-22.667 2 -46.5 3.33301 -71.5 4s-45.167 1 -60.5 1c-38 0 -69 -4.83301 -93 -14.5s-42.667 -27.334 -56 -53.001s-23 -62.834 -29 -111.501c-6.66699 -48 -7.16699 -84.167 -1.5 -108.5
s18.334 -41 38.001 -50s47.5 -13.5 83.5 -13.5c10.667 0 24.334 0.333008 41.001 1s34.334 1.66699 53.001 3s36.667 3.33301 54 6l7 -65c-26 -9.33301 -54.167 -16 -84.5 -20s-59.5 -6 -87.5 -6c-56.667 0 -101.667 8.66699 -135 26s-55.333 45.166 -66 83.499
s-11.667 88.5 -3 150.5c9.33301 62 23.833 111.5 43.5 148.5s47.334 63.5 83.001 79.5s81.5 24 137.5 24zM462.996 730.003l28 -40l-153 -128h-63l-122 134l37 34l117 -97h8z" />
    <glyph glyph-name="Dcaron" unicode="&#x10e;" horiz-adv-x="666" 
d="M370 699c71.333 0 127.001 -11.167 167.001 -33.5s66 -59.5 78 -111.5s11.667 -122.667 -1 -212c-10.667 -74.667 -24.334 -135 -41.001 -181s-38 -81.333 -64 -106s-58 -41.5 -96 -50.5s-83 -13.5 -135 -13.5c-36.667 0 -75.834 0.833008 -117.501 2.5
s-81.167 3.83398 -118.5 6.50098l51 80c27.333 -1.33301 58.333 -2.5 93 -3.5s65 -1.5 91 -1.5c37.333 0 69 3.66699 95 11s47.833 20.666 65.5 39.999s32.167 47 43.5 83s21 82.333 29 139c8 55.333 11.667 100.5 11 135.5s-6.33398 62 -17.001 81s-27.167 32.333 -49.5 40
s-51.166 11.5 -86.499 11.5c-17.333 0 -37.5 -0.166992 -60.5 -0.5l-70 -1c-23.667 -0.333008 -44.167 -0.833008 -61.5 -1.5l-37 77c22.667 2 47.834 3.66699 75.501 5s55 2.33301 82 3s51.5 1 73.5 1zM239.001 690l-97 -690h-100l97 690h100zM539.001 911l28 -40
l-153 -128h-63l-122 134l37 34l117 -97h8z" />
    <glyph glyph-name="dcaron" unicode="&#x10f;" horiz-adv-x="576" 
d="M280 500c37.333 0 76.668 -2.33398 118.001 -7.00098s77.666 -10.667 108.999 -18l-23 -54c-35.333 1.33301 -67.166 2.33301 -95.499 3s-51.833 1 -70.5 1c-31.333 0 -56.833 -2.16699 -76.5 -6.5s-35.667 -12.5 -48 -24.5s-22 -30 -29 -54s-13.167 -55.667 -18.5 -95
c-6.66699 -44.667 -9.66699 -79.5 -9 -104.5s5.83398 -42.833 15.501 -53.5s25.167 -16 46.5 -16c34 0.666992 67.5 11.5 100.5 32.5s70.833 52.5 113.5 94.5l19 -45c-11.333 -16.667 -25.833 -34.5 -43.5 -53.5s-38 -37 -61 -54s-47.833 -30.833 -74.5 -41.5
s-54.667 -16 -84 -16c-34 0 -61.5 8.33301 -82.5 25s-34.833 44.334 -41.5 83.001s-5.66699 90 3 154c7.33301 54.667 17.666 98.5 30.999 131.5s29.666 58 48.999 75s41.5 28.5 66.5 34.5s53.5 9 85.5 9zM560.002 699.999l-98 -700h-76l6 112l-9 8l47 344l9 16
c0 17.333 0.666992 34 2 50s3.33301 33.333 6 52l17 118h96zM680.002 698.999c10.667 0 17.998 -2.33203 21.998 -6.99902s5.33301 -12.667 4 -24l-8 -57c-2.66699 -21.333 -9.16699 -44.666 -19.5 -69.999s-21.166 -47.333 -32.499 -66l-39 13c6 15.333 12 32 18 50
s10.333 36.333 13 55c-8 -0.666992 -14.167 1.66602 -18.5 6.99902s-6.16602 11.666 -5.49902 18.999l8 52c2 10.667 5.5 18 10.5 22s13.5 6 25.5 6h22z" />
    <glyph glyph-name="Dcroat" unicode="&#x110;" horiz-adv-x="666" 
d="M345 393l-7 -54h-313l8 54h312zM370 699c71.333 0 127.001 -11.167 167.001 -33.5s66 -59.5 78 -111.5s11.667 -122.667 -1 -212c-10.667 -74.667 -24.334 -135 -41.001 -181s-38 -81.333 -64 -106s-58 -41.5 -96 -50.5s-83 -13.5 -135 -13.5
c-36.667 0 -75.834 0.833008 -117.501 2.5s-81.167 3.83398 -118.5 6.50098l51 80c27.333 -1.33301 58.333 -2.5 93 -3.5s65 -1.5 91 -1.5c37.333 0 69 3.66699 95 11s47.833 20.666 65.5 39.999s32.167 47 43.5 83s21 82.333 29 139c8 55.333 11.667 100.5 11 135.5
s-6.33398 62 -17.001 81s-27.167 32.333 -49.5 40s-51.166 11.5 -86.499 11.5c-17.333 0 -37.5 -0.166992 -60.5 -0.5l-70 -1c-23.667 -0.333008 -44.167 -0.833008 -61.5 -1.5l-37 77c22.667 2 47.834 3.66699 75.501 5s55 2.33301 82 3s51.5 1 73.5 1zM239.001 690
l-97 -690h-100l97 690h100z" />
    <glyph glyph-name="dcroat" unicode="&#x111;" horiz-adv-x="577" 
d="M622 625l-7 -52h-313l7 52h313zM280 500c37.333 0 76.668 -2.33398 118.001 -7.00098s77.666 -10.667 108.999 -18l-23 -54c-35.333 1.33301 -67.166 2.33301 -95.499 3s-51.833 1 -70.5 1c-31.333 0 -56.833 -2.16699 -76.5 -6.5s-35.667 -12.5 -48 -24.5
s-22 -30 -29 -54s-13.167 -55.667 -18.5 -95c-6.66699 -44.667 -9.66699 -79.5 -9 -104.5s5.83398 -42.833 15.501 -53.5s25.167 -16 46.5 -16c34 0.666992 67.5 11.5 100.5 32.5s70.833 52.5 113.5 94.5l19 -45c-11.333 -16.667 -25.833 -34.5 -43.5 -53.5s-38 -37 -61 -54
s-47.833 -30.833 -74.5 -41.5s-54.667 -16 -84 -16c-34 0 -61.5 8.33301 -82.5 25s-34.833 44.334 -41.5 83.001s-5.66699 90 3 154c7.33301 54.667 17.666 98.5 30.999 131.5s29.666 58 48.999 75s41.5 28.5 66.5 34.5s53.5 9 85.5 9zM560.002 699.999l-98 -700h-76l6 112
l-9 8l47 344l9 16c0 17.333 0.666992 34 2 50s3.33301 33.333 6 52l17 118h96z" />
    <glyph glyph-name="Emacron" unicode="&#x112;" horiz-adv-x="561" 
d="M264 691l103.5 -0.000976562c35 0 69.167 -0.5 102.5 -1.5s65.333 -2.5 96 -4.5l-13 -77h-272c-22 0 -38.167 -5.16699 -48.5 -15.5s-17.166 -27.166 -20.499 -50.499l-54 -397c-3.33301 -22 -0.833008 -38 7.5 -48s23.5 -15 45.5 -15h267l-2 -77
c-29.333 -2 -60 -3.33301 -92 -4s-64.333 -1.16699 -97 -1.5s-64.334 -0.5 -95.001 -0.5c-51.333 0 -88.5 12.833 -111.5 38.5s-31.167 60.167 -24.5 103.5l60 429c5.33301 38 20.333 67.667 45 89s59 32 103 32zM110 400.999h375l-10 -76h-376zM530 871.999l-8 -69h-283
l9 69h282z" />
    <glyph glyph-name="emacron" unicode="&#x113;" horiz-adv-x="542" 
d="M315 500c53.333 0 94.3369 -5.83594 123.004 -17.5029s48 -29.334 58 -53.001s12 -52.834 6 -87.501c-4.66699 -31.333 -14.334 -56.333 -29.001 -75s-34.834 -32.5 -60.501 -41.5s-58.167 -15.167 -97.5 -18.5l-240 -22l9 67l225 22c21.333 2 38.5 5.33301 51.5 10
s23.333 12.334 31 23.001s13.167 25 16.5 43c3.33301 22.667 1.66602 39.334 -5.00098 50.001s-18.167 17.334 -34.5 20.001s-37.5 3.66699 -63.5 3c-25.333 0 -46.833 -2.16699 -64.5 -6.5s-32.5 -12.5 -44.5 -24.5s-21.833 -29 -29.5 -51s-14.5 -50.667 -20.5 -86
c-8 -52 -8.5 -91.5 -1.5 -118.5s20.5 -45.167 40.5 -54.5s46.333 -14 79 -14c18 0 37.667 0.5 59 1.5s42.666 2.5 63.999 4.5s41 4 59 6l7 -63c-17.333 -7.33301 -38.166 -13.166 -62.499 -17.499s-48.833 -7.33301 -73.5 -9s-47 -2.5 -67 -2.5
c-58 0 -103.167 9.5 -135.5 28.5s-53.833 48.333 -64.5 88s-12.334 89.834 -5.00098 150.501c6.66699 48.667 16.5 88.834 29.5 120.501s30.167 56.667 51.5 75s47.5 31.166 78.5 38.499s67.833 11 110.5 11zM477.004 672.997l-8 -69h-283l9 69h282z" />
    <glyph glyph-name="Ebreve" unicode="&#x114;" horiz-adv-x="561" 
d="M264 691l103.5 -0.000976562c35 0 69.167 -0.5 102.5 -1.5s65.333 -2.5 96 -4.5l-13 -77h-272c-22 0 -38.167 -5.16699 -48.5 -15.5s-17.166 -27.166 -20.499 -50.499l-54 -397c-3.33301 -22 -0.833008 -38 7.5 -48s23.5 -15 45.5 -15h267l-2 -77
c-29.333 -2 -60 -3.33301 -92 -4s-64.333 -1.16699 -97 -1.5s-64.334 -0.5 -95.001 -0.5c-51.333 0 -88.5 12.833 -111.5 38.5s-31.167 60.167 -24.5 103.5l60 429c5.33301 38 20.333 67.667 45 89s59 32 103 32zM110 400.999h375l-10 -76h-376zM497 907.999l46.998 -11.001
c-1.33301 -26 -9.16602 -49 -23.499 -69s-33.5 -35.667 -57.5 -47s-52.333 -17 -85 -17c-33.333 0 -61.333 5.83301 -84 17.5s-38.834 28 -48.501 49s-11.5 44.5 -5.5 70.5l49 4c-3.33301 -24 3.16699 -42 19.5 -54s39.833 -18 70.5 -18
c34.667 0 62.334 6.83301 83.001 20.5s32.334 31.834 35.001 54.501z" />
    <glyph glyph-name="ebreve" unicode="&#x115;" horiz-adv-x="542" 
d="M315 500c53.333 0 94.3369 -5.83594 123.004 -17.5029s48 -29.334 58 -53.001s12 -52.834 6 -87.501c-4.66699 -31.333 -14.334 -56.333 -29.001 -75s-34.834 -32.5 -60.501 -41.5s-58.167 -15.167 -97.5 -18.5l-240 -22l9 67l225 22c21.333 2 38.5 5.33301 51.5 10
s23.333 12.334 31 23.001s13.167 25 16.5 43c3.33301 22.667 1.66602 39.334 -5.00098 50.001s-18.167 17.334 -34.5 20.001s-37.5 3.66699 -63.5 3c-25.333 0 -46.833 -2.16699 -64.5 -6.5s-32.5 -12.5 -44.5 -24.5s-21.833 -29 -29.5 -51s-14.5 -50.667 -20.5 -86
c-8 -52 -8.5 -91.5 -1.5 -118.5s20.5 -45.167 40.5 -54.5s46.333 -14 79 -14c18 0 37.667 0.5 59 1.5s42.666 2.5 63.999 4.5s41 4 59 6l7 -63c-17.333 -7.33301 -38.166 -13.166 -62.499 -17.499s-48.833 -7.33301 -73.5 -9s-47 -2.5 -67 -2.5
c-58 0 -103.167 9.5 -135.5 28.5s-53.833 48.333 -64.5 88s-12.334 89.834 -5.00098 150.501c6.66699 48.667 16.5 88.834 29.5 120.501s30.167 56.667 51.5 75s47.5 31.166 78.5 38.499s67.833 11 110.5 11zM445.004 708.997l46.998 -11.001
c-1.33301 -26 -9.16602 -49 -23.499 -69s-33.5 -35.667 -57.5 -47s-52.333 -17 -85 -17c-33.333 0 -61.333 5.83301 -84 17.5s-38.834 28 -48.501 49s-11.5 44.5 -5.5 70.5l49 4c-3.33301 -24 3.16699 -42 19.5 -54s39.833 -18 70.5 -18
c34.667 0 62.334 6.83301 83.001 20.5s32.334 31.834 35.001 54.501z" />
    <glyph glyph-name="Edotaccent" unicode="&#x116;" horiz-adv-x="561" 
d="M264 691l103.5 -0.000976562c35 0 69.167 -0.5 102.5 -1.5s65.333 -2.5 96 -4.5l-13 -77h-272c-22 0 -38.167 -5.16699 -48.5 -15.5s-17.166 -27.166 -20.499 -50.499l-54 -397c-3.33301 -22 -0.833008 -38 7.5 -48s23.5 -15 45.5 -15h267l-2 -77
c-29.333 -2 -60 -3.33301 -92 -4s-64.333 -1.16699 -97 -1.5s-64.334 -0.5 -95.001 -0.5c-51.333 0 -88.5 12.833 -111.5 38.5s-31.167 60.167 -24.5 103.5l60 429c5.33301 38 20.333 67.667 45 89s59 32 103 32zM110 400.999h375l-10 -76h-376zM405 889.999
c8.66699 0 15.668 -2.66602 21.001 -7.99902s7.33301 -12.666 6 -21.999l-8 -56c-2 -18 -12 -27 -30 -27h-30c-10 0 -17.333 2.66699 -22 8s-6.33398 12.666 -5.00098 21.999l7 56c1.33301 9.33301 4.33301 16.166 9 20.499s11.667 6.5 21 6.5h31z" />
    <glyph glyph-name="edotaccent" unicode="&#x117;" horiz-adv-x="542" 
d="M315 500c53.333 0 94.3369 -5.83594 123.004 -17.5029s48 -29.334 58 -53.001s12 -52.834 6 -87.501c-4.66699 -31.333 -14.334 -56.333 -29.001 -75s-34.834 -32.5 -60.501 -41.5s-58.167 -15.167 -97.5 -18.5l-240 -22l9 67l225 22c21.333 2 38.5 5.33301 51.5 10
s23.333 12.334 31 23.001s13.167 25 16.5 43c3.33301 22.667 1.66602 39.334 -5.00098 50.001s-18.167 17.334 -34.5 20.001s-37.5 3.66699 -63.5 3c-25.333 0 -46.833 -2.16699 -64.5 -6.5s-32.5 -12.5 -44.5 -24.5s-21.833 -29 -29.5 -51s-14.5 -50.667 -20.5 -86
c-8 -52 -8.5 -91.5 -1.5 -118.5s20.5 -45.167 40.5 -54.5s46.333 -14 79 -14c18 0 37.667 0.5 59 1.5s42.666 2.5 63.999 4.5s41 4 59 6l7 -63c-17.333 -7.33301 -38.166 -13.166 -62.499 -17.499s-48.833 -7.33301 -73.5 -9s-47 -2.5 -67 -2.5
c-58 0 -103.167 9.5 -135.5 28.5s-53.833 48.333 -64.5 88s-12.334 89.834 -5.00098 150.501c6.66699 48.667 16.5 88.834 29.5 120.501s30.167 56.667 51.5 75s47.5 31.166 78.5 38.499s67.833 11 110.5 11zM352.004 690.997c8.66699 0 15.668 -2.66602 21.001 -7.99902
s7.33301 -12.666 6 -21.999l-8 -56c-2 -18 -12 -27 -30 -27h-30c-10 0 -17.333 2.66699 -22 8s-6.33398 12.666 -5.00098 21.999l7 56c1.33301 9.33301 4.33301 16.166 9 20.499s11.667 6.5 21 6.5h31z" />
    <glyph glyph-name="Eogonek" unicode="&#x118;" horiz-adv-x="561" 
d="M264 691l103.5 -0.000976562c35 0 69.167 -0.5 102.5 -1.5s65.333 -2.5 96 -4.5l-13 -77h-272c-22 0 -38.167 -5.16699 -48.5 -15.5s-17.166 -27.166 -20.499 -50.499l-54 -397c-3.33301 -22 -0.833008 -38 7.5 -48s23.5 -15 45.5 -15h267l-2 -77
c-29.333 -2 -60 -3.33301 -92 -4s-64.333 -1.16699 -97 -1.5s-64.334 -0.5 -95.001 -0.5c-51.333 0 -88.5 12.833 -111.5 38.5s-31.167 60.167 -24.5 103.5l60 429c5.33301 38 20.333 67.667 45 89s59 32 103 32zM110 400.999h375l-10 -76h-376zM431 7.99902l45 -2.99902
c-16.667 -16.667 -32 -34.334 -46 -53.001s-27 -39.334 -39 -62.001c-12.667 -22.667 -13 -37.167 -1 -43.5s33.333 -4.5 64 5.5l12 -41c-34.667 -12.667 -63.5 -19.167 -86.5 -19.5s-40.333 4.33398 -52 14.001s-18 22.167 -19 37.5s2.83301 32 11.5 50
c8.66699 16 21.667 33.667 39 53s41.333 40 72 62z" />
    <glyph glyph-name="eogonek" unicode="&#x119;" horiz-adv-x="542" 
d="M315 500c53.333 0 94.3369 -5.83594 123.004 -17.5029s48 -29.334 58 -53.001s12 -52.834 6 -87.501c-4.66699 -31.333 -14.334 -56.333 -29.001 -75s-34.834 -32.5 -60.501 -41.5s-58.167 -15.167 -97.5 -18.5l-240 -22l9 67l225 22c21.333 2 38.5 5.33301 51.5 10
s23.333 12.334 31 23.001s13.167 25 16.5 43c3.33301 22.667 1.66602 39.334 -5.00098 50.001s-18.167 17.334 -34.5 20.001s-37.5 3.66699 -63.5 3c-25.333 0 -46.833 -2.16699 -64.5 -6.5s-32.5 -12.5 -44.5 -24.5s-21.833 -29 -29.5 -51s-14.5 -50.667 -20.5 -86
c-8 -52 -8.5 -91.5 -1.5 -118.5s20.5 -45.167 40.5 -54.5s46.333 -14 79 -14c18 0 37.667 0.5 59 1.5s42.666 2.5 63.999 4.5s41 4 59 6l7 -63c-17.333 -7.33301 -38.166 -13.166 -62.499 -17.499s-48.833 -7.33301 -73.5 -9s-47 -2.5 -67 -2.5
c-58 0 -103.167 9.5 -135.5 28.5s-53.833 48.333 -64.5 88s-12.334 89.834 -5.00098 150.501c6.66699 48.667 16.5 88.834 29.5 120.501s30.167 56.667 51.5 75s47.5 31.166 78.5 38.499s67.833 11 110.5 11zM405.004 20.9971l45 -2.99902
c-16.667 -16.667 -32 -34.334 -46 -53.001s-27 -39.334 -39 -62.001c-12.667 -22.667 -13 -37.167 -1 -43.5s33.333 -4.5 64 5.5l12 -41c-34.667 -12.667 -63.5 -19.167 -86.5 -19.5s-40.333 4.33398 -52 14.001s-18 22.167 -19 37.5s2.83301 32 11.5 50
c8.66699 16 21.667 33.667 39 53s41.333 40 72 62z" />
    <glyph glyph-name="Ecaron" unicode="&#x11a;" horiz-adv-x="561" 
d="M264 691l103.5 -0.000976562c35 0 69.167 -0.5 102.5 -1.5s65.333 -2.5 96 -4.5l-13 -77h-272c-22 0 -38.167 -5.16699 -48.5 -15.5s-17.166 -27.166 -20.499 -50.499l-54 -397c-3.33301 -22 -0.833008 -38 7.5 -48s23.5 -15 45.5 -15h267l-2 -77
c-29.333 -2 -60 -3.33301 -92 -4s-64.333 -1.16699 -97 -1.5s-64.334 -0.5 -95.001 -0.5c-51.333 0 -88.5 12.833 -111.5 38.5s-31.167 60.167 -24.5 103.5l60 429c5.33301 38 20.333 67.667 45 89s59 32 103 32zM110 400.999h375l-10 -76h-376zM532 929.999l28 -40
l-153 -128h-63l-122 134l37 34l117 -97h8z" />
    <glyph glyph-name="ecaron" unicode="&#x11b;" horiz-adv-x="542" 
d="M315 500c53.333 0 94.3369 -5.83594 123.004 -17.5029s48 -29.334 58 -53.001s12 -52.834 6 -87.501c-4.66699 -31.333 -14.334 -56.333 -29.001 -75s-34.834 -32.5 -60.501 -41.5s-58.167 -15.167 -97.5 -18.5l-240 -22l9 67l225 22c21.333 2 38.5 5.33301 51.5 10
s23.333 12.334 31 23.001s13.167 25 16.5 43c3.33301 22.667 1.66602 39.334 -5.00098 50.001s-18.167 17.334 -34.5 20.001s-37.5 3.66699 -63.5 3c-25.333 0 -46.833 -2.16699 -64.5 -6.5s-32.5 -12.5 -44.5 -24.5s-21.833 -29 -29.5 -51s-14.5 -50.667 -20.5 -86
c-8 -52 -8.5 -91.5 -1.5 -118.5s20.5 -45.167 40.5 -54.5s46.333 -14 79 -14c18 0 37.667 0.5 59 1.5s42.666 2.5 63.999 4.5s41 4 59 6l7 -63c-17.333 -7.33301 -38.166 -13.166 -62.499 -17.499s-48.833 -7.33301 -73.5 -9s-47 -2.5 -67 -2.5
c-58 0 -103.167 9.5 -135.5 28.5s-53.833 48.333 -64.5 88s-12.334 89.834 -5.00098 150.501c6.66699 48.667 16.5 88.834 29.5 120.501s30.167 56.667 51.5 75s47.5 31.166 78.5 38.499s67.833 11 110.5 11zM480.004 729.997l28 -40l-153 -128h-63l-122 134l37 34l117 -97
h8z" />
    <glyph glyph-name="Gcircumflex" unicode="&#x11c;" horiz-adv-x="628" 
d="M397 703c24 0 47.335 -0.665039 70.002 -1.99805s45.167 -3.66602 67.5 -6.99902s43.5 -8 63.5 -14l-14 -73c-20.667 2 -41.5 3.5 -62.5 4.5s-41.167 1.66699 -60.5 2s-37.666 0.5 -54.999 0.5c-38.667 0 -71.334 -3.83301 -98.001 -11.5s-48.834 -21.167 -66.501 -40.5
s-32.167 -47 -43.5 -83s-20.666 -81.667 -27.999 -137c-7.33301 -66 -9.16602 -118.667 -5.49902 -158s14.167 -67.333 31.5 -84s42.666 -25 75.999 -25c25.333 0 47.833 4.16699 67.5 12.5s39.167 20.166 58.5 35.499s39.666 33.666 60.999 54.999l11 -62
c-14.667 -18.667 -30.334 -35.834 -47.001 -51.501s-34.5 -29.5 -53.5 -41.5s-39.5 -21 -61.5 -27s-45.667 -9 -71 -9c-48 0 -86.333 12.333 -115 37s-47.667 63.667 -57 117s-9 122.333 1 207c9.33301 72 22.833 131.167 40.5 177.5s40.167 82.333 67.5 108
s59.5 43.667 96.5 54s79.167 15.5 126.5 15.5zM580.002 400.002l-57 -400h-72l1 108l-6 22l38 270h96zM446.002 899.002l125 -134l-34 -36l-122 100h-8l-150 -99l-27 41l149 128h67z" />
    <glyph glyph-name="gcircumflex" unicode="&#x11d;" horiz-adv-x="579" 
d="M436 478l97.002 -0.998047l-67 -460c-4 -36 -12.833 -68 -26.5 -96s-32 -51.667 -55 -71s-51 -34 -84 -44s-71.5 -15.333 -115.5 -16c-8.66699 0 -23.167 0.166992 -43.5 0.5s-42 2 -65 5s-43.833 6.83301 -62.5 11.5l9 63c14 -0.666992 28 -1.16699 42 -1.5
s30.167 -0.5 48.5 -0.5s39.833 0.333008 64.5 1c47.333 1.33301 88.666 11.166 123.999 29.499s57.666 50.166 66.999 95.499l15.5 65.5c5 21 13.167 40.5 24.5 58.5l-24 10zM287.002 500.002c27.333 0 55.4961 -1 84.4961 -3s57.333 -4.66699 85 -8s52.5 -7.33301 74.5 -12
l-49 -58c-35.333 1.33301 -66.833 2.33301 -94.5 3s-50.5 1 -68.5 1c-31.333 0 -56.833 -2.16699 -76.5 -6.5s-35.5 -12.5 -47.5 -24.5s-21.5 -29.833 -28.5 -53.5s-13.167 -54.834 -18.5 -93.501c-7.33301 -46.667 -10.666 -82.667 -9.99902 -108
s6.33398 -42.833 17.001 -52.5s26.334 -14.5 47.001 -14.5c23.333 0.666992 46.333 6.16699 69 16.5s46 25.5 70 45.5s49.333 44.333 76 73l19 -41c-16 -31.333 -37.167 -60.166 -63.5 -86.499s-56.166 -47.666 -89.499 -63.999s-69 -24.5 -107 -24.5
c-36 0 -65.167 8 -87.5 24s-36.833 43.167 -43.5 81.5s-5 90.166 5 155.499c8 56 18.833 100.5 32.5 133.5s30.167 58 49.5 75s42 28.167 68 33.5s55 8 87 8zM388.998 719.002l125 -134l-34 -36l-122 100h-8l-150 -99l-27 41l149 128h67z" />
    <glyph glyph-name="Gbreve" unicode="&#x11e;" horiz-adv-x="628" 
d="M397 703c24 0 47.335 -0.665039 70.002 -1.99805s45.167 -3.66602 67.5 -6.99902s43.5 -8 63.5 -14l-14 -73c-20.667 2 -41.5 3.5 -62.5 4.5s-41.167 1.66699 -60.5 2s-37.666 0.5 -54.999 0.5c-38.667 0 -71.334 -3.83301 -98.001 -11.5s-48.834 -21.167 -66.501 -40.5
s-32.167 -47 -43.5 -83s-20.666 -81.667 -27.999 -137c-7.33301 -66 -9.16602 -118.667 -5.49902 -158s14.167 -67.333 31.5 -84s42.666 -25 75.999 -25c25.333 0 47.833 4.16699 67.5 12.5s39.167 20.166 58.5 35.499s39.666 33.666 60.999 54.999l11 -62
c-14.667 -18.667 -30.334 -35.834 -47.001 -51.501s-34.5 -29.5 -53.5 -41.5s-39.5 -21 -61.5 -27s-45.667 -9 -71 -9c-48 0 -86.333 12.333 -115 37s-47.667 63.667 -57 117s-9 122.333 1 207c9.33301 72 22.833 131.167 40.5 177.5s40.167 82.333 67.5 108
s59.5 43.667 96.5 54s79.167 15.5 126.5 15.5zM580.002 400.002l-57 -400h-72l1 108l-6 22l38 270h96zM517.002 889.002l46.998 -11.001c-1.33301 -26 -9.16602 -49 -23.499 -69s-33.5 -35.667 -57.5 -47s-52.333 -17 -85 -17c-33.333 0 -61.333 5.83301 -84 17.5
s-38.834 28 -48.501 49s-11.5 44.5 -5.5 70.5l49 4c-3.33301 -24 3.16699 -42 19.5 -54s39.833 -18 70.5 -18c34.667 0 62.334 6.83301 83.001 20.5s32.334 31.834 35.001 54.501z" />
    <glyph glyph-name="gbreve" unicode="&#x11f;" horiz-adv-x="579" 
d="M436 478l97.002 -0.998047l-67 -460c-4 -36 -12.833 -68 -26.5 -96s-32 -51.667 -55 -71s-51 -34 -84 -44s-71.5 -15.333 -115.5 -16c-8.66699 0 -23.167 0.166992 -43.5 0.5s-42 2 -65 5s-43.833 6.83301 -62.5 11.5l9 63c14 -0.666992 28 -1.16699 42 -1.5
s30.167 -0.5 48.5 -0.5s39.833 0.333008 64.5 1c47.333 1.33301 88.666 11.166 123.999 29.499s57.666 50.166 66.999 95.499l15.5 65.5c5 21 13.167 40.5 24.5 58.5l-24 10zM287.002 500.002c27.333 0 55.4961 -1 84.4961 -3s57.333 -4.66699 85 -8s52.5 -7.33301 74.5 -12
l-49 -58c-35.333 1.33301 -66.833 2.33301 -94.5 3s-50.5 1 -68.5 1c-31.333 0 -56.833 -2.16699 -76.5 -6.5s-35.5 -12.5 -47.5 -24.5s-21.5 -29.833 -28.5 -53.5s-13.167 -54.834 -18.5 -93.501c-7.33301 -46.667 -10.666 -82.667 -9.99902 -108
s6.33398 -42.833 17.001 -52.5s26.334 -14.5 47.001 -14.5c23.333 0.666992 46.333 6.16699 69 16.5s46 25.5 70 45.5s49.333 44.333 76 73l19 -41c-16 -31.333 -37.167 -60.166 -63.5 -86.499s-56.166 -47.666 -89.499 -63.999s-69 -24.5 -107 -24.5
c-36 0 -65.167 8 -87.5 24s-36.833 43.167 -43.5 81.5s-5 90.166 5 155.499c8 56 18.833 100.5 32.5 133.5s30.167 58 49.5 75s42 28.167 68 33.5s55 8 87 8zM461.998 709.002l46.998 -11.001c-1.33301 -26 -9.16602 -49 -23.499 -69s-33.5 -35.667 -57.5 -47
s-52.333 -17 -85 -17c-33.333 0 -61.333 5.83301 -84 17.5s-38.834 28 -48.501 49s-11.5 44.5 -5.5 70.5l49 4c-3.33301 -24 3.16699 -42 19.5 -54s39.833 -18 70.5 -18c34.667 0 62.334 6.83301 83.001 20.5s32.334 31.834 35.001 54.501z" />
    <glyph glyph-name="Gdotaccent" unicode="&#x120;" horiz-adv-x="628" 
d="M397 703c24 0 47.335 -0.665039 70.002 -1.99805s45.167 -3.66602 67.5 -6.99902s43.5 -8 63.5 -14l-14 -73c-20.667 2 -41.5 3.5 -62.5 4.5s-41.167 1.66699 -60.5 2s-37.666 0.5 -54.999 0.5c-38.667 0 -71.334 -3.83301 -98.001 -11.5s-48.834 -21.167 -66.501 -40.5
s-32.167 -47 -43.5 -83s-20.666 -81.667 -27.999 -137c-7.33301 -66 -9.16602 -118.667 -5.49902 -158s14.167 -67.333 31.5 -84s42.666 -25 75.999 -25c25.333 0 47.833 4.16699 67.5 12.5s39.167 20.166 58.5 35.499s39.666 33.666 60.999 54.999l11 -62
c-14.667 -18.667 -30.334 -35.834 -47.001 -51.501s-34.5 -29.5 -53.5 -41.5s-39.5 -21 -61.5 -27s-45.667 -9 -71 -9c-48 0 -86.333 12.333 -115 37s-47.667 63.667 -57 117s-9 122.333 1 207c9.33301 72 22.833 131.167 40.5 177.5s40.167 82.333 67.5 108
s59.5 43.667 96.5 54s79.167 15.5 126.5 15.5zM580.002 400.002l-57 -400h-72l1 108l-6 22l38 270h96zM425.002 872.002c8.66699 0 15.668 -2.66602 21.001 -7.99902s7.33301 -12.666 6 -21.999l-8 -56c-2 -18 -12 -27 -30 -27h-30c-10 0 -17.333 2.66699 -22 8
s-6.33398 12.666 -5.00098 21.999l7 56c1.33301 9.33301 4.33301 16.166 9 20.499s11.667 6.5 21 6.5h31z" />
    <glyph glyph-name="gdotaccent" unicode="&#x121;" horiz-adv-x="579" 
d="M436 478l97.002 -0.998047l-67 -460c-4 -36 -12.833 -68 -26.5 -96s-32 -51.667 -55 -71s-51 -34 -84 -44s-71.5 -15.333 -115.5 -16c-8.66699 0 -23.167 0.166992 -43.5 0.5s-42 2 -65 5s-43.833 6.83301 -62.5 11.5l9 63c14 -0.666992 28 -1.16699 42 -1.5
s30.167 -0.5 48.5 -0.5s39.833 0.333008 64.5 1c47.333 1.33301 88.666 11.166 123.999 29.499s57.666 50.166 66.999 95.499l15.5 65.5c5 21 13.167 40.5 24.5 58.5l-24 10zM287.002 500.002c27.333 0 55.4961 -1 84.4961 -3s57.333 -4.66699 85 -8s52.5 -7.33301 74.5 -12
l-49 -58c-35.333 1.33301 -66.833 2.33301 -94.5 3s-50.5 1 -68.5 1c-31.333 0 -56.833 -2.16699 -76.5 -6.5s-35.5 -12.5 -47.5 -24.5s-21.5 -29.833 -28.5 -53.5s-13.167 -54.834 -18.5 -93.501c-7.33301 -46.667 -10.666 -82.667 -9.99902 -108
s6.33398 -42.833 17.001 -52.5s26.334 -14.5 47.001 -14.5c23.333 0.666992 46.333 6.16699 69 16.5s46 25.5 70 45.5s49.333 44.333 76 73l19 -41c-16 -31.333 -37.167 -60.166 -63.5 -86.499s-56.166 -47.666 -89.499 -63.999s-69 -24.5 -107 -24.5
c-36 0 -65.167 8 -87.5 24s-36.833 43.167 -43.5 81.5s-5 90.166 5 155.499c8 56 18.833 100.5 32.5 133.5s30.167 58 49.5 75s42 28.167 68 33.5s55 8 87 8zM368.998 691.002c8.66699 0 15.668 -2.66602 21.001 -7.99902s7.33301 -12.666 6 -21.999l-8 -56
c-2 -18 -12 -27 -30 -27h-30c-10 0 -17.333 2.66699 -22 8s-6.33398 12.666 -5.00098 21.999l7 56c1.33301 9.33301 4.33301 16.166 9 20.499s11.667 6.5 21 6.5h31z" />
    <glyph glyph-name="uni0122" unicode="&#x122;" horiz-adv-x="628" 
d="M397 703c24 0 47.335 -0.665039 70.002 -1.99805s45.167 -3.66602 67.5 -6.99902s43.5 -8 63.5 -14l-14 -73c-20.667 2 -41.5 3.5 -62.5 4.5s-41.167 1.66699 -60.5 2s-37.666 0.5 -54.999 0.5c-38.667 0 -71.334 -3.83301 -98.001 -11.5s-48.834 -21.167 -66.501 -40.5
s-32.167 -47 -43.5 -83s-20.666 -81.667 -27.999 -137c-7.33301 -66 -9.16602 -118.667 -5.49902 -158s14.167 -67.333 31.5 -84s42.666 -25 75.999 -25c25.333 0 47.833 4.16699 67.5 12.5s39.167 20.166 58.5 35.499s39.666 33.666 60.999 54.999l11 -62
c-14.667 -18.667 -30.334 -35.834 -47.001 -51.501s-34.5 -29.5 -53.5 -41.5s-39.5 -21 -61.5 -27s-45.667 -9 -71 -9c-48 0 -86.333 12.333 -115 37s-47.667 63.667 -57 117s-9 122.333 1 207c9.33301 72 22.833 131.167 40.5 177.5s40.167 82.333 67.5 108
s59.5 43.667 96.5 54s79.167 15.5 126.5 15.5zM580.002 400.002l-57 -400h-72l1 108l-6 22l38 270h96zM303.355 -56.6172c12.1201 0 20.3018 -2.42969 24.5439 -7.29102s5.4541 -13.0117 3.63574 -24.4502l-8.18066 -54.9062
c-1.81738 -14.8711 -5.30176 -30.1709 -10.4531 -45.8984c-5.15137 -15.7285 -11.3633 -31.3135 -18.6357 -46.7559s-15.4531 -30.0273 -24.543 -43.7539l-41.8135 14.584l16.8164 49.3301c5.15137 15.7285 9.84766 33.8877 14.0889 54.4775
c-9.69629 -0.572266 -16.665 1.57227 -20.9062 6.43457c-4.24219 4.86133 -6.06055 11.5811 -5.4541 20.1602l7.27148 48.9014c2.42383 11.4385 6.36328 19.1592 11.8174 23.1621c5.4541 4.00391 14.5439 6.00586 27.2695 6.00586h24.543z" />
    <glyph glyph-name="uni0123" unicode="&#x123;" horiz-adv-x="579" 
d="M436 478l97.002 -0.998047l-67 -460c-4 -36 -12.833 -68 -26.5 -96s-32 -51.667 -55 -71s-51 -34 -84 -44s-71.5 -15.333 -115.5 -16c-8.66699 0 -23.167 0.166992 -43.5 0.5s-42 2 -65 5s-43.833 6.83301 -62.5 11.5l9 63c14 -0.666992 28 -1.16699 42 -1.5
s30.167 -0.5 48.5 -0.5s39.833 0.333008 64.5 1c47.333 1.33301 88.666 11.166 123.999 29.499s57.666 50.166 66.999 95.499l15.5 65.5c5 21 13.167 40.5 24.5 58.5l-24 10zM287.002 500.002c27.333 0 55.4961 -1 84.4961 -3s57.333 -4.66699 85 -8s52.5 -7.33301 74.5 -12
l-49 -58c-35.333 1.33301 -66.833 2.33301 -94.5 3s-50.5 1 -68.5 1c-31.333 0 -56.833 -2.16699 -76.5 -6.5s-35.5 -12.5 -47.5 -24.5s-21.5 -29.833 -28.5 -53.5s-13.167 -54.834 -18.5 -93.501c-7.33301 -46.667 -10.666 -82.667 -9.99902 -108
s6.33398 -42.833 17.001 -52.5s26.334 -14.5 47.001 -14.5c23.333 0.666992 46.333 6.16699 69 16.5s46 25.5 70 45.5s49.333 44.333 76 73l19 -41c-16 -31.333 -37.167 -60.166 -63.5 -86.499s-56.166 -47.666 -89.499 -63.999s-69 -24.5 -107 -24.5
c-36 0 -65.167 8 -87.5 24s-36.833 43.167 -43.5 81.5s-5 90.166 5 155.499c8 56 18.833 100.5 32.5 133.5s30.167 58 49.5 75s42 28.167 68 33.5s55 8 87 8zM315.645 555.621c-12.1201 0 -20.3018 2.42969 -24.5439 7.29102s-5.4541 13.0117 -3.63574 24.4502
l8.18066 54.9062c1.81738 14.8711 5.30176 30.1709 10.4531 45.8984c5.15137 15.7285 11.3633 31.3135 18.6357 46.7559s15.4531 30.0273 24.543 43.7539l41.8135 -14.584l-16.8164 -49.3301c-5.15137 -15.7285 -9.84766 -33.8877 -14.0889 -54.4775
c9.69629 0.572266 16.665 -1.57227 20.9062 -6.43457c4.24219 -4.86133 6.06055 -11.5811 5.4541 -20.1602l-7.27148 -48.9014c-2.42383 -11.4385 -6.36328 -19.1592 -11.8174 -23.1621c-5.4541 -4.00391 -14.5439 -6.00586 -27.2695 -6.00586h-24.543z" />
    <glyph glyph-name="Hcircumflex" unicode="&#x124;" horiz-adv-x="670" 
d="M240 690l-97 -690h-101l97 690h101zM514 409l-11 -83h-323l12 83h322zM643 690l-97 -690h-99l97 690h99zM438 899l125 -134l-34 -36l-122 100h-8l-150 -99l-27 41l149 128h67z" />
    <glyph glyph-name="hcircumflex" unicode="&#x125;" horiz-adv-x="582" 
d="M405 500c41.333 0 72.6699 -11.332 94.0029 -33.999s29 -56.334 23 -101.001l-52 -365h-97l49 340c3.33301 30 1.33301 50.667 -6 62s-22 17 -44 17c-30.667 0 -61.834 -9.66699 -93.501 -29s-69.5 -46.333 -113.5 -81l-2 65c45.333 42 87.666 73.5 126.999 94.5
s77.666 31.5 114.999 31.5zM228.004 700.001l-27 -192c-3.33301 -27.333 -8 -54.833 -14 -82.5s-12 -49.5 -18 -65.5l8 -13l-48 -347h-97l99 700h97zM233.004 885.001l125 -134l-34 -36l-122 100h-8l-150 -99l-27 41l149 128h67z" />
    <glyph glyph-name="Hbar" unicode="&#x126;" horiz-adv-x="670" 
d="M697 569l-6 -51h-642l8 51h640zM240 690l-97 -690h-101l97 690h101zM514 409l-11 -83h-323l12 83h322zM643 690l-97 -690h-99l97 690h99z" />
    <glyph glyph-name="hbar" unicode="&#x127;" horiz-adv-x="581" 
d="M363 625l-8 -52h-312l8 52h312zM404 500c42 0 73.668 -11.332 95.001 -33.999s29 -56.334 23 -101.001l-52 -365h-97l48 340c4 30 2.33301 50.667 -5 62s-22 17 -44 17c-30.667 0 -61.834 -9.66699 -93.501 -29s-69.5 -46.333 -113.5 -81l-3 65
c46 42 88.667 73.5 128 94.5s77.333 31.5 114 31.5zM227.001 700.001l-26.002 -192c-3.33301 -27.333 -8.16602 -54.833 -14.499 -82.5s-12.166 -49.5 -17.499 -65.5l7 -13l-48 -347h-96l99 700h96z" />
    <glyph glyph-name="Itilde" unicode="&#x128;" horiz-adv-x="267" 
d="M240 690l-97 -690h-101l97 690h101zM130 883c15.333 -0.666992 29.001 -3.5 41.001 -8.5s23.333 -10.833 34 -17.5s21.167 -12.667 31.5 -18s22.166 -8.66602 35.499 -9.99902c19.333 -2.66699 33.333 0.666016 42 9.99902s14.334 23.333 17.001 42l45 -4
c-0.666992 -40 -9.5 -69.833 -26.5 -89.5s-38.167 -28.5 -63.5 -26.5c-16.667 1.33301 -31.5 4.5 -44.5 9.5s-25 10.833 -36 17.5l-31.5 18.5c-10 5.66699 -20.667 9.16699 -32 10.5c-19.333 2 -33.333 -1.83301 -42 -11.5s-14.334 -24.167 -17.001 -43.5l-44 4
c1.33301 42 10.833 72.5 28.5 91.5s38.5 27.5 62.5 25.5z" />
    <glyph glyph-name="itilde" unicode="&#x129;" horiz-adv-x="252" 
d="M202 488l-69 -488h-97l69 488h97zM97 703c15.333 -0.666992 29.001 -3.5 41.001 -8.5s23.333 -10.833 34 -17.5s21.167 -12.667 31.5 -18s22.166 -8.66602 35.499 -9.99902c19.333 -2.66699 33.333 0.666016 42 9.99902s14.334 23.333 17.001 42l45 -4
c-0.666992 -40 -9.5 -69.833 -26.5 -89.5s-38.167 -28.5 -63.5 -26.5c-16.667 1.33301 -31.5 4.5 -44.5 9.5s-25 10.833 -36 17.5l-31.5 18.5c-10 5.66699 -20.667 9.16699 -32 10.5c-19.333 2 -33.333 -1.83301 -42 -11.5s-14.334 -24.167 -17.001 -43.5l-44 4
c1.33301 42 10.833 72.5 28.5 91.5s38.5 27.5 62.5 25.5z" />
    <glyph glyph-name="Imacron" unicode="&#x12a;" horiz-adv-x="267" 
d="M240 690l-97 -690h-101l97 690h101zM352 853l-8 -69h-283l9 69h282z" />
    <glyph glyph-name="imacron" unicode="&#x12b;" horiz-adv-x="252" 
d="M202 488l-69 -488h-97l69 488h97zM319 673l-8 -69h-283l9 69h282z" />
    <glyph glyph-name="Ibreve" unicode="&#x12c;" horiz-adv-x="267" 
d="M240 690l-97 -690h-101l97 690h101zM320 889l46.998 -11.001c-1.33301 -26 -9.16602 -49 -23.499 -69s-33.5 -35.667 -57.5 -47s-52.333 -17 -85 -17c-33.333 0 -61.333 5.83301 -84 17.5s-38.834 28 -48.501 49s-11.5 44.5 -5.5 70.5l49 4
c-3.33301 -24 3.16699 -42 19.5 -54s39.833 -18 70.5 -18c34.667 0 62.334 6.83301 83.001 20.5s32.334 31.834 35.001 54.501z" />
    <glyph glyph-name="ibreve" unicode="&#x12d;" horiz-adv-x="252" 
d="M202 488l-69 -488h-97l69 488h97zM287 709l46.998 -11.001c-1.33301 -26 -9.16602 -49 -23.499 -69s-33.5 -35.667 -57.5 -47s-52.333 -17 -85 -17c-33.333 0 -61.333 5.83301 -84 17.5s-38.834 28 -48.501 49s-11.5 44.5 -5.5 70.5l49 4
c-3.33301 -24 3.16699 -42 19.5 -54s39.833 -18 70.5 -18c34.667 0 62.334 6.83301 83.001 20.5s32.334 31.834 35.001 54.501z" />
    <glyph glyph-name="Iogonek" unicode="&#x12e;" horiz-adv-x="267" 
d="M240 690l-97 -690h-101l97 690h101zM85 3l45 -2.99902c-16.667 -16.667 -32 -34.334 -46 -53.001s-27 -39.334 -39 -62.001c-12.667 -22.667 -13 -37.167 -1 -43.5s33.333 -4.5 64 5.5l12 -41c-34.667 -12.667 -63.5 -19.167 -86.5 -19.5s-40.333 4.33398 -52 14.001
s-18 22.167 -19 37.5s2.83301 32 11.5 50c8.66699 16 21.667 33.667 39 53s41.333 40 72 62z" />
    <glyph glyph-name="iogonek" unicode="&#x12f;" horiz-adv-x="252" 
d="M202 488l-69 -488h-97l69 488h97zM195 691c8.66699 0 15.668 -2.66602 21.001 -7.99902s7.33301 -12.666 6 -21.999l-8 -56c-2 -18 -12 -27 -30 -27h-30c-10 0 -17.333 2.66699 -22 8s-6.33398 12.666 -5.00098 21.999l7 56c1.33301 9.33301 4.33301 16.166 9 20.499
s11.667 6.5 21 6.5h31zM81.001 3.00098l45 -2.99902c-16.667 -16.667 -32 -34.334 -46 -53.001s-27 -39.334 -39 -62.001c-12.667 -22.667 -13 -37.167 -1 -43.5s33.333 -4.5 64 5.5l12 -41c-34.667 -12.667 -63.5 -19.167 -86.5 -19.5s-40.333 4.33398 -52 14.001
s-18 22.167 -19 37.5s2.83301 32 11.5 50c8.66699 16 21.667 33.667 39 53s41.333 40 72 62z" />
    <glyph glyph-name="Idotaccent" unicode="&#x130;" horiz-adv-x="267" 
d="M240 690l-97 -690h-101l97 690h101zM228 872c8.66699 0 15.668 -2.66602 21.001 -7.99902s7.33301 -12.666 6 -21.999l-8 -56c-2 -18 -12 -27 -30 -27h-30c-10 0 -17.333 2.66699 -22 8s-6.33398 12.666 -5.00098 21.999l7 56c1.33301 9.33301 4.33301 16.166 9 20.499
s11.667 6.5 21 6.5h31z" />
    <glyph glyph-name="dotlessi" unicode="&#x131;" horiz-adv-x="252" 
d="M202 488l-69 -488h-97l69 488h97z" />
    <glyph glyph-name="IJ" unicode="&#x132;" horiz-adv-x="611" 
d="M240 690l-97 -690h-101l97 690h101zM587 690l-77.999 -549.001c-6.66699 -49.333 -23.167 -86.666 -49.5 -111.999s-60.833 -38 -103.5 -38c-10 0 -21.333 0.666992 -34 2s-24.834 3 -36.501 5s-21.167 4.33301 -28.5 7l18 69h46c26.667 0 47.5 6.33301 62.5 19
s24.167 30.667 27.5 54l75 543h101z" />
    <glyph glyph-name="ij" unicode="&#x133;" horiz-adv-x="503" 
d="M201 488l-68 -488h-96l68 488h96zM202 697c10.667 0 18.333 -2.83301 23 -8.5s6 -13.167 4 -22.5l-7 -57c-2.66699 -18 -13 -27 -31 -27h-44c-20.667 0 -30 10.667 -28 32l8 55c2 18.667 12.333 28 31 28h44zM451.999 488l-69.001 -495.998
c-4 -26.667 -11.5 -52.167 -22.5 -76.5s-25.167 -46.5 -42.5 -66.5s-37 -37.333 -59 -52l-52 45c23.333 23.333 41.333 47.166 54 71.499s21.334 52.166 26.001 83.499l69 491h96zM452.998 697.002c10.667 0 18.334 -2.83301 23.001 -8.5s6 -13.167 4 -22.5l-7 -57
c-2.66699 -18 -13.334 -27 -32.001 -27h-43c-20.667 0 -30 10.667 -28 32l8 55c2 18.667 12.333 28 31 28h44z" />
    <glyph glyph-name="Jcircumflex" unicode="&#x134;" horiz-adv-x="344" 
d="M320 690l-77.999 -549.001c-6.66699 -49.333 -23.167 -86.666 -49.5 -111.999s-60.833 -38 -103.5 -38c-10 0 -21.333 0.666992 -34 2s-24.834 3 -36.501 5s-21.167 4.33301 -28.5 7l18 69h46c26.667 0 47.5 6.33301 62.5 19s24.167 30.667 27.5 54l75 543h101z
M323.001 898.999l125 -134l-34 -36l-122 100h-8l-150 -99l-27 41l149 128h67z" />
    <glyph glyph-name="jcircumflex" unicode="&#x135;" horiz-adv-x="252" 
d="M201 488l-69.001 -495.998c-4 -26.667 -11.5 -52.167 -22.5 -76.5s-25.167 -46.5 -42.5 -66.5s-37 -37.333 -59 -52l-52 45c23.333 23.333 41.333 47.166 54 71.499s21.334 52.166 26.001 83.499l69 491h96zM209.999 718.002l125 -134l-34 -36l-122 100h-8l-150 -99
l-27 41l149 128h67z" />
    <glyph glyph-name="uni0136" unicode="&#x136;" horiz-adv-x="600" 
d="M628 690l-236 -285.997c-6.66699 -8.66699 -14 -16.834 -22 -24.501s-17 -14.834 -27 -21.501v-4c6 -6 12.167 -13.833 18.5 -23.5s11.833 -18.834 16.5 -27.501l165 -303h-112l-192 361l270 329h119zM239 690.003l-30.999 -214.999
c-2.66699 -20.667 -6.33398 -40.334 -11.001 -59.001s-11 -38 -19 -58c2 -19.333 2.83301 -38.333 2.5 -57s-1.83301 -37 -4.5 -55l-34 -246h-100l97 690h100zM295.001 398.004l-11 -77h-130l10 77h131zM289.354 -56.6152c12.1201 0 20.3018 -2.42969 24.5439 -7.29102
s5.4541 -13.0117 3.63574 -24.4502l-8.18066 -54.9062c-1.81738 -14.8711 -5.30176 -30.1709 -10.4531 -45.8984c-5.15137 -15.7285 -11.3633 -31.3135 -18.6357 -46.7559s-15.4531 -30.0273 -24.543 -43.7539l-41.8135 14.584l16.8164 49.3301
c5.15137 15.7285 9.84766 33.8877 14.0889 54.4775c-9.69629 -0.572266 -16.665 1.57227 -20.9062 6.43457c-4.24219 4.86133 -6.06055 11.5811 -5.4541 20.1602l7.27148 48.9014c2.42383 11.4385 6.36328 19.1592 11.8174 23.1621
c5.4541 4.00391 14.5439 6.00586 27.2695 6.00586h24.543z" />
    <glyph glyph-name="uni0137" unicode="&#x137;" horiz-adv-x="529" 
d="M228 700l-44.999 -331.999c-2.66699 -22.667 -6.83398 -43.834 -12.501 -63.501s-13.167 -40.167 -22.5 -61.5c1.33301 -8.66699 3 -17.167 5 -25.5s3.66699 -16.5 5 -24.5l-29 -193h-96l98 700h97zM507.001 488.001c-15.333 -49.333 -36.832 -91.333 -64.499 -126
s-58.834 -64 -93.501 -88s-70.5 -44.5 -107.5 -61.5l-106.5 -47.5l-7 76c42 18 82.333 39.167 121 63.5s72.167 52 100.5 83s47.833 64.5 58.5 100.5h99zM329.002 284.001c8.66699 -10.667 16.833 -22.167 24.5 -34.5s14.167 -24.833 19.5 -37.5l96 -212h-103l-111 255z
M260.354 -55.6182c12.1201 0 20.3018 -2.42969 24.5439 -7.29102s5.4541 -13.0117 3.63574 -24.4502l-8.18066 -54.9062c-1.81738 -14.8711 -5.30176 -30.1709 -10.4531 -45.8984c-5.15137 -15.7285 -11.3633 -31.3135 -18.6357 -46.7559
s-15.4531 -30.0273 -24.543 -43.7539l-41.8135 14.584l16.8164 49.3301c5.15137 15.7285 9.84766 33.8877 14.0889 54.4775c-9.69629 -0.572266 -16.665 1.57227 -20.9062 6.43457c-4.24219 4.86133 -6.06055 11.5811 -5.4541 20.1602l7.27148 48.9014
c2.42383 11.4385 6.36328 19.1592 11.8174 23.1621c5.4541 4.00391 14.5439 6.00586 27.2695 6.00586h24.543z" />
    <glyph glyph-name="kgreenlandic" unicode="&#x138;" horiz-adv-x="529" 
d="M200 488l-17.999 -126.999c-2.66699 -22 -6.83398 -42.833 -12.501 -62.5s-13.167 -40.834 -22.5 -63.501c2 -7.33301 3.83301 -15.333 5.5 -24s3.16699 -17 4.5 -25l-28 -186h-96l69 488h98zM510.001 488.001c-15.333 -49.333 -36.999 -91.6631 -64.999 -126.996
s-59.667 -65.333 -95 -90s-71.5 -45.834 -108.5 -63.501s-72.5 -33.834 -106.5 -48.501l-8 75c42 17.333 82.333 38.666 121 63.999s72.667 54.166 102 86.499s49.666 66.833 60.999 103.5h99zM328.002 277.004c8.66699 -10.667 16.833 -22.332 24.5 -34.999
s14.167 -25.334 19.5 -38.001l93 -204h-102l-109 248z" />
    <glyph glyph-name="Lacute" unicode="&#x139;" horiz-adv-x="513" 
d="M237 690l-77.002 -544.001c-2 -19.333 0.833008 -34.666 8.5 -45.999s22.834 -17 45.501 -17h248l-3 -78c-43.333 -2.66699 -88.5 -4.33398 -135.5 -5.00098s-92.833 -1 -137.5 -1c-28 0 -52.333 5.5 -73 16.5s-35.667 27.333 -45 49s-11.666 47.834 -6.99902 78.501
l75 547h101zM326.998 918.999l43 -74l-212 -118l-28 44z" />
    <glyph glyph-name="lacute" unicode="&#x13a;" horiz-adv-x="299" 
d="M229 700l-80 -564.001c-3.33301 -21.333 -0.833008 -36.666 7.5 -45.999s23.833 -14 46.5 -14h48l4 -72c-6.66699 -3.33301 -16 -5.83301 -28 -7.5s-24 -3 -36 -4s-22 -1.5 -30 -1.5c-38.667 0 -68.167 11.167 -88.5 33.5s-27.833 53.5 -22.5 93.5l82 582h97z
M323 938.999l43 -74l-212 -118l-28 44z" />
    <glyph glyph-name="uni013B" unicode="&#x13b;" horiz-adv-x="513" 
d="M237 690l-77.002 -544.001c-2 -19.333 0.833008 -34.666 8.5 -45.999s22.834 -17 45.501 -17h248l-3 -78c-43.333 -2.66699 -88.5 -4.33398 -135.5 -5.00098s-92.833 -1 -137.5 -1c-28 0 -52.333 5.5 -73 16.5s-35.667 27.333 -45 49s-11.666 47.834 -6.99902 78.501
l75 547h101zM274.352 -57.6201c12.1201 0 20.3018 -2.42969 24.5439 -7.29102s5.4541 -13.0117 3.63574 -24.4502l-8.18066 -54.9062c-1.81738 -14.8711 -5.30176 -30.1709 -10.4531 -45.8984c-5.15137 -15.7285 -11.3633 -31.3135 -18.6357 -46.7559
s-15.4531 -30.0273 -24.543 -43.7539l-41.8135 14.584l16.8164 49.3301c5.15137 15.7285 9.84766 33.8877 14.0889 54.4775c-9.69629 -0.572266 -16.665 1.57227 -20.9062 6.43457c-4.24219 4.86133 -6.06055 11.5811 -5.4541 20.1602l7.27148 48.9014
c2.42383 11.4385 6.36328 19.1592 11.8174 23.1621c5.4541 4.00391 14.5439 6.00586 27.2695 6.00586h24.543z" />
    <glyph glyph-name="uni013C" unicode="&#x13c;" horiz-adv-x="299" 
d="M229 700l-80 -564.001c-3.33301 -21.333 -0.833008 -36.666 7.5 -45.999s23.833 -14 46.5 -14h48l4 -72c-6.66699 -3.33301 -16 -5.83301 -28 -7.5s-24 -3 -36 -4s-22 -1.5 -30 -1.5c-38.667 0 -68.167 11.167 -88.5 33.5s-27.833 53.5 -22.5 93.5l82 582h97z
M150.354 -57.6201c12.1201 0 20.3018 -2.42969 24.5439 -7.29102s5.4541 -13.0117 3.63574 -24.4502l-8.18066 -54.9062c-1.81738 -14.8711 -5.30176 -30.1709 -10.4531 -45.8984c-5.15137 -15.7285 -11.3633 -31.3135 -18.6357 -46.7559
s-15.4531 -30.0273 -24.543 -43.7539l-41.8135 14.584l16.8164 49.3301c5.15137 15.7285 9.84766 33.8877 14.0889 54.4775c-9.69629 -0.572266 -16.665 1.57227 -20.9062 6.43457c-4.24219 4.86133 -6.06055 11.5811 -5.4541 20.1602l7.27148 48.9014
c2.42383 11.4385 6.36328 19.1592 11.8174 23.1621c5.4541 4.00391 14.5439 6.00586 27.2695 6.00586h24.543z" />
    <glyph glyph-name="Lcaron" unicode="&#x13d;" horiz-adv-x="513" 
d="M237 690l-77.002 -544.001c-2 -19.333 0.833008 -34.666 8.5 -45.999s22.834 -17 45.501 -17h248l-3 -78c-43.333 -2.66699 -88.5 -4.33398 -135.5 -5.00098s-92.833 -1 -137.5 -1c-28 0 -52.333 5.5 -73 16.5s-35.667 27.333 -45 49s-11.666 47.834 -6.99902 78.501
l75 547h101zM404.998 688.999c10.667 0 17.998 -2.33203 21.998 -6.99902s5.33301 -12.667 4 -24l-8 -57c-2.66699 -21.333 -9.16699 -44.666 -19.5 -69.999s-21.166 -47.333 -32.499 -66l-39 13c6 15.333 12 32 18 50s10.333 36.333 13 55
c-8 -0.666992 -14.167 1.66602 -18.5 6.99902s-6.16602 11.666 -5.49902 18.999l8 52c2 10.667 5.5 18 10.5 22s13.5 6 25.5 6h22z" />
    <glyph glyph-name="lcaron" unicode="&#x13e;" horiz-adv-x="299" 
d="M229 700l-80 -564.001c-3.33301 -21.333 -0.833008 -36.666 7.5 -45.999s23.833 -14 46.5 -14h48l4 -72c-6.66699 -3.33301 -16 -5.83301 -28 -7.5s-24 -3 -36 -4s-22 -1.5 -30 -1.5c-38.667 0 -68.167 11.167 -88.5 33.5s-27.833 53.5 -22.5 93.5l82 582h97z
M348.354 701.38c12.1201 0 20.3018 -2.42969 24.5439 -7.29102s5.4541 -13.0117 3.63574 -24.4502l-8.18066 -54.9062c-1.81738 -14.8711 -5.30176 -30.1709 -10.4531 -45.8984c-5.15137 -15.7285 -11.3633 -31.3135 -18.6357 -46.7559s-15.4531 -30.0273 -24.543 -43.7539
l-41.8135 14.584l16.8164 49.3301c5.15137 15.7285 9.84766 33.8877 14.0889 54.4775c-9.69629 -0.572266 -16.665 1.57227 -20.9062 6.43457c-4.24219 4.86133 -6.06055 11.5811 -5.4541 20.1602l7.27148 48.9014c2.42383 11.4385 6.36328 19.1592 11.8174 23.1621
c5.4541 4.00391 14.5439 6.00586 27.2695 6.00586h24.543z" />
    <glyph glyph-name="Ldot" unicode="&#x13f;" horiz-adv-x="513" 
d="M237 690l-77.002 -544.001c-2 -19.333 0.833008 -34.666 8.5 -45.999s22.834 -17 45.501 -17h248l-3 -78c-43.333 -2.66699 -88.5 -4.33398 -135.5 -5.00098s-92.833 -1 -137.5 -1c-28 0 -52.333 5.5 -73 16.5s-35.667 27.333 -45 49s-11.666 47.834 -6.99902 78.501
l75 547h101zM349.998 349.999c-8.66699 0 -15.668 2.66602 -21.001 7.99902s-7.33301 12.666 -6 21.999l8 56c2 18 12 27 30 27h30c10 0 17.333 -2.66699 22 -8s6.33398 -12.666 5.00098 -21.999l-7 -56c-1.33301 -9.33301 -4.33301 -16.166 -9 -20.499
s-11.667 -6.5 -21 -6.5h-31z" />
    <glyph glyph-name="ldot" unicode="&#x140;" horiz-adv-x="350" 
d="M294 316c-8.66699 0 -15.668 2.66602 -21.001 7.99902s-7.33301 12.666 -6 21.999l8 56c2 18 12 27 30 27h30c10 0 17.333 -2.66699 22 -8s6.33398 -12.666 5.00098 -21.999l-7 -56c-1.33301 -9.33301 -4.33301 -16.166 -9 -20.499s-11.667 -6.5 -21 -6.5h-31z
M228.999 699.999l-80 -564.001c-3.33301 -21.333 -0.833008 -36.666 7.5 -45.999s23.833 -14 46.5 -14h48l4 -72c-6.66699 -3.33301 -16 -5.83301 -28 -7.5s-24 -3 -36 -4s-22 -1.5 -30 -1.5c-38.667 0 -68.167 11.167 -88.5 33.5s-27.833 53.5 -22.5 93.5l82 582h97z" />
    <glyph glyph-name="Lslash" unicode="&#x141;" horiz-adv-x="513" 
d="M325 477l-7 -58l-298 -117l6 58zM236 690l-76.001 -544.001c-2.66699 -19.333 -0.166992 -34.666 7.5 -45.999s22.834 -17 45.501 -17h248l-2 -78c-43.333 -2.66699 -88.5 -4.33398 -135.5 -5.00098s-92.833 -1 -137.5 -1c-28.667 0 -53.334 5.5 -74.001 16.5
s-35.667 27.333 -45 49s-11.666 47.834 -6.99902 78.501l75 547h101z" />
    <glyph glyph-name="lslash" unicode="&#x142;" horiz-adv-x="306" 
d="M321 477l-8 -58l-298 -117l7 58zM230 700l-80 -564.001c-3.33301 -21.333 -0.833008 -36.666 7.5 -45.999s23.833 -14 46.5 -14h48l4 -72c-6.66699 -3.33301 -16 -5.83301 -28 -7.5s-24 -3 -36 -4s-22 -1.5 -30 -1.5c-38.667 0 -68.167 11.167 -88.5 33.5
s-27.833 53.5 -22.5 93.5l82 582h97z" />
    <glyph glyph-name="Nacute" unicode="&#x143;" horiz-adv-x="706" 
d="M679 690l-93 -653.002c-1.33301 -12.667 -5 -22 -11 -28s-15.333 -9 -28 -9h-79c-11.333 0 -19.833 3 -25.5 9s-10.5 14 -14.5 24l-168 466c-4.66699 12.667 -9.5 27.334 -14.5 44.001s-9.5 32.334 -13.5 47.001h-16c0 -15.333 -0.666992 -30.833 -2 -46.5
s-3 -31.5 -5 -47.5l-69 -496h-98l91 653c2.66699 12.667 7.16699 22 13.5 28s15.5 9 27.5 9h78c11.333 0 19.833 -3 25.5 -9s10.167 -14 13.5 -24l164 -453c5.33301 -14.667 10.833 -31 16.5 -49l16.5 -53h18c0.666992 18 1.66699 35.333 3 52s3.33301 33.667 6 51l66 485
h98zM554 918.998l43 -74l-212 -118l-28 44z" />
    <glyph glyph-name="nacute" unicode="&#x144;" horiz-adv-x="582" 
d="M406 500c27.333 0 50.166 -4.99902 68.499 -14.999s31.833 -25 40.5 -45s11 -45 7 -75l-52 -365h-97l49 339c3.33301 30.667 1.33301 51.667 -6 63s-22.333 17 -45 17c-30 -0.666992 -60.833 -10.5 -92.5 -29.5s-69.5 -45.5 -113.5 -79.5l-2 64
c44.667 41.333 86.834 72.666 126.501 93.999s78.5 32 116.5 32zM178 488.001l-7 -127l6 -14l-48 -347h-97l69 488h77zM462 739.001l43 -74l-212 -118l-28 44z" />
    <glyph glyph-name="uni0145" unicode="&#x145;" horiz-adv-x="706" 
d="M679 690l-93 -653.002c-1.33301 -12.667 -5 -22 -11 -28s-15.333 -9 -28 -9h-79c-11.333 0 -19.833 3 -25.5 9s-10.5 14 -14.5 24l-168 466c-4.66699 12.667 -9.5 27.334 -14.5 44.001s-9.5 32.334 -13.5 47.001h-16c0 -15.333 -0.666992 -30.833 -2 -46.5
s-3 -31.5 -5 -47.5l-69 -496h-98l91 653c2.66699 12.667 7.16699 22 13.5 28s15.5 9 27.5 9h78c11.333 0 19.833 -3 25.5 -9s10.167 -14 13.5 -24l164 -453c5.33301 -14.667 10.833 -31 16.5 -49l16.5 -53h18c0.666992 18 1.66699 35.333 3 52s3.33301 33.667 6 51l66 485
h98zM336.354 -56.6211c12.1201 0 20.3018 -2.42969 24.5439 -7.29102s5.4541 -13.0117 3.63574 -24.4502l-8.18066 -54.9062c-1.81738 -14.8711 -5.30176 -30.1709 -10.4531 -45.8984c-5.15137 -15.7285 -11.3633 -31.3135 -18.6357 -46.7559
s-15.4531 -30.0273 -24.543 -43.7539l-41.8135 14.584l16.8164 49.3301c5.15137 15.7285 9.84766 33.8877 14.0889 54.4775c-9.69629 -0.572266 -16.665 1.57227 -20.9062 6.43457c-4.24219 4.86133 -6.06055 11.5811 -5.4541 20.1602l7.27148 48.9014
c2.42383 11.4385 6.36328 19.1592 11.8174 23.1621c5.4541 4.00391 14.5439 6.00586 27.2695 6.00586h24.543z" />
    <glyph glyph-name="uni0146" unicode="&#x146;" horiz-adv-x="582" 
d="M406 500c27.333 0 50.166 -4.99902 68.499 -14.999s31.833 -25 40.5 -45s11 -45 7 -75l-52 -365h-97l49 339c3.33301 30.667 1.33301 51.667 -6 63s-22.333 17 -45 17c-30 -0.666992 -60.833 -10.5 -92.5 -29.5s-69.5 -45.5 -113.5 -79.5l-2 64
c44.667 41.333 86.834 72.666 126.501 93.999s78.5 32 116.5 32zM178 488.001l-7 -127l6 -14l-48 -347h-97l69 488h77zM265.354 -55.6182c12.1201 0 20.3018 -2.42969 24.5439 -7.29102s5.4541 -13.0117 3.63574 -24.4502l-8.18066 -54.9062
c-1.81738 -14.8711 -5.30176 -30.1709 -10.4531 -45.8984c-5.15137 -15.7285 -11.3633 -31.3135 -18.6357 -46.7559s-15.4531 -30.0273 -24.543 -43.7539l-41.8135 14.584l16.8164 49.3301c5.15137 15.7285 9.84766 33.8877 14.0889 54.4775
c-9.69629 -0.572266 -16.665 1.57227 -20.9062 6.43457c-4.24219 4.86133 -6.06055 11.5811 -5.4541 20.1602l7.27148 48.9014c2.42383 11.4385 6.36328 19.1592 11.8174 23.1621c5.4541 4.00391 14.5439 6.00586 27.2695 6.00586h24.543z" />
    <glyph glyph-name="Ncaron" unicode="&#x147;" horiz-adv-x="706" 
d="M679 690l-93 -653.002c-1.33301 -12.667 -5 -22 -11 -28s-15.333 -9 -28 -9h-79c-11.333 0 -19.833 3 -25.5 9s-10.5 14 -14.5 24l-168 466c-4.66699 12.667 -9.5 27.334 -14.5 44.001s-9.5 32.334 -13.5 47.001h-16c0 -15.333 -0.666992 -30.833 -2 -46.5
s-3 -31.5 -5 -47.5l-69 -496h-98l91 653c2.66699 12.667 7.16699 22 13.5 28s15.5 9 27.5 9h78c11.333 0 19.833 -3 25.5 -9s10.167 -14 13.5 -24l164 -453c5.33301 -14.667 10.833 -31 16.5 -49l16.5 -53h18c0.666992 18 1.66699 35.333 3 52s3.33301 33.667 6 51l66 485
h98zM581 910.998l28 -40l-153 -128h-63l-122 134l37 34l117 -97h8z" />
    <glyph glyph-name="ncaron" unicode="&#x148;" horiz-adv-x="582" 
d="M406 500c27.333 0 50.166 -4.99902 68.499 -14.999s31.833 -25 40.5 -45s11 -45 7 -75l-52 -365h-97l49 339c3.33301 30.667 1.33301 51.667 -6 63s-22.333 17 -45 17c-30 -0.666992 -60.833 -10.5 -92.5 -29.5s-69.5 -45.5 -113.5 -79.5l-2 64
c44.667 41.333 86.834 72.666 126.501 93.999s78.5 32 116.5 32zM178 488.001l-7 -127l6 -14l-48 -347h-97l69 488h77zM489 730.001l28 -40l-153 -128h-63l-122 134l37 34l117 -97h8z" />
    <glyph glyph-name="Eng" unicode="&#x14a;" horiz-adv-x="706" 
d="M679 690l-107.994 -767.002c-6 -45.333 -22.333 -79.833 -49 -103.5s-60 -35.167 -100 -34.5c-14 0 -30.167 1.33301 -48.5 4s-33.833 6.33398 -46.5 11.001l17 62h46c26 0 46.667 6.16699 62 18.5s24.666 30.5 27.999 54.5l10 67l-25 -1
c-6.66699 -0.666992 -11.834 2.33301 -15.501 9s-7.16699 13.667 -10.5 21l-180 454c-4.66699 12.667 -9.33398 27.334 -14.001 44.001s-8.66699 33 -12 49h-15c-0.666992 -16 -1.83398 -32 -3.50098 -48s-3.83398 -32 -6.50098 -48l-68 -482h-98l91 653
c2.66699 12.667 7.16699 22 13.5 28s15.5 9 27.5 9h70c10.667 0 19 -3 25 -9s11 -14 15 -24l170 -440c5.33301 -13.333 11.166 -29 17.499 -47s12.166 -36.333 17.499 -55h16c0.666992 18 1.83398 36 3.50098 54s3.5 35.333 5.5 52l67 469h98z" />
    <glyph glyph-name="eng" unicode="&#x14b;" horiz-adv-x="582" 
d="M402 500c44.667 0 77.335 -11.668 98.002 -35.001s28 -56.666 22 -99.999l-59 -418c-6.66699 -50 -21.834 -87.667 -45.501 -113s-56.5 -38 -98.5 -38c-8.66699 0 -18.5 0.5 -29.5 1.5s-22 2.66699 -33 5s-20.833 4.83301 -29.5 7.5l17 62h39c23.333 0 42 5.5 56 16.5
s23 30.167 27 57.5l56 394c3.33301 26.667 1.33301 45.5 -6 56.5s-23.333 16.5 -48 16.5c-19.333 0 -39.5 -4.5 -60.5 -13.5s-43.167 -21.167 -66.5 -36.5s-48 -33 -74 -53l-9 60c44.667 42 87.167 74.167 127.5 96.5s79.166 33.5 116.499 33.5zM175.001 487.999l-4 -118
l6 -29l-48 -341h-97l69 488h74z" />
    <glyph glyph-name="Omacron" unicode="&#x14c;" horiz-adv-x="669" 
d="M387 703c64.667 0 116.334 -11.501 155.001 -34.501s64.167 -60.833 76.5 -113.5s12.166 -123.667 -0.500977 -213c-8.66699 -67.333 -21.167 -123.833 -37.5 -169.5s-36.833 -82.167 -61.5 -109.5s-55 -46.833 -91 -58.5s-79 -17.5 -129 -17.5
c-64.667 0 -116.334 11.333 -155.001 34s-64.5 60.334 -77.5 113.001s-13.5 124 -1.5 214c10 66 22.667 121.5 38 166.5s35.5 81.5 60.5 109.5s55.833 48.167 92.5 60.5s80.334 18.5 131.001 18.5zM382 615.999c-44 0 -79.832 -8.16699 -107.499 -24.5
s-49.5 -44.5 -65.5 -84.5s-29 -95 -39 -165c-9.33301 -68.667 -11.666 -122.334 -6.99902 -161.001s18.167 -66.167 40.5 -82.5s55.166 -24.5 98.499 -24.5c44 0 79.667 8.33301 107 25s49.166 45 65.499 85s29.5 94.667 39.5 164c10.667 70.667 13.5 125.334 8.5 164.001
s-18.833 65.667 -41.5 81s-55.667 23 -99 23zM549.001 852.999l-8 -69h-283l9 69h282z" />
    <glyph glyph-name="omacron" unicode="&#x14d;" 
d="M309 500c56 0 100.334 -8.49805 133.001 -25.498s54.667 -44.5 66 -82.5s12.333 -89 3 -153c-8.66699 -61.333 -22.834 -110.5 -42.501 -147.5s-47.334 -63.667 -83.001 -80s-81.5 -24.5 -137.5 -24.5c-55.333 0 -99.5 8.5 -132.5 25.5s-55.333 44.667 -67 83
s-13.167 88.833 -4.5 151.5c8.66699 61.333 22.834 110.666 42.501 147.999s47.5 64.166 83.5 80.499s82.333 24.5 139 24.5zM309.001 422.002c-34.667 0 -62.667 -5.16895 -84 -15.502s-38.166 -28.666 -50.499 -54.999s-22.166 -63.833 -29.499 -112.5
c-6.66699 -44.667 -8 -79.667 -4 -105s14.667 -43 32 -53s42.666 -15 75.999 -15c34.667 0 62.667 5.33301 84 16s38.166 29.334 50.499 56.001s21.833 63 28.5 109s8 81.5 4 106.5s-14.667 42.667 -32 53s-42.333 15.5 -75 15.5zM477.001 673l-8 -69h-283l9 69h282z" />
    <glyph glyph-name="Obreve" unicode="&#x14e;" horiz-adv-x="669" 
d="M387 703c64.667 0 116.334 -11.501 155.001 -34.501s64.167 -60.833 76.5 -113.5s12.166 -123.667 -0.500977 -213c-8.66699 -67.333 -21.167 -123.833 -37.5 -169.5s-36.833 -82.167 -61.5 -109.5s-55 -46.833 -91 -58.5s-79 -17.5 -129 -17.5
c-64.667 0 -116.334 11.333 -155.001 34s-64.5 60.334 -77.5 113.001s-13.5 124 -1.5 214c10 66 22.667 121.5 38 166.5s35.5 81.5 60.5 109.5s55.833 48.167 92.5 60.5s80.334 18.5 131.001 18.5zM382 615.999c-44 0 -79.832 -8.16699 -107.499 -24.5
s-49.5 -44.5 -65.5 -84.5s-29 -95 -39 -165c-9.33301 -68.667 -11.666 -122.334 -6.99902 -161.001s18.167 -66.167 40.5 -82.5s55.166 -24.5 98.499 -24.5c44 0 79.667 8.33301 107 25s49.166 45 65.499 85s29.5 94.667 39.5 164c10.667 70.667 13.5 125.334 8.5 164.001
s-18.833 65.667 -41.5 81s-55.667 23 -99 23zM517.001 888.999l46.998 -11.001c-1.33301 -26 -9.16602 -49 -23.499 -69s-33.5 -35.667 -57.5 -47s-52.333 -17 -85 -17c-33.333 0 -61.333 5.83301 -84 17.5s-38.834 28 -48.501 49s-11.5 44.5 -5.5 70.5l49 4
c-3.33301 -24 3.16699 -42 19.5 -54s39.833 -18 70.5 -18c34.667 0 62.334 6.83301 83.001 20.5s32.334 31.834 35.001 54.501z" />
    <glyph glyph-name="obreve" unicode="&#x14f;" 
d="M309 500c56 0 100.334 -8.49805 133.001 -25.498s54.667 -44.5 66 -82.5s12.333 -89 3 -153c-8.66699 -61.333 -22.834 -110.5 -42.501 -147.5s-47.334 -63.667 -83.001 -80s-81.5 -24.5 -137.5 -24.5c-55.333 0 -99.5 8.5 -132.5 25.5s-55.333 44.667 -67 83
s-13.167 88.833 -4.5 151.5c8.66699 61.333 22.834 110.666 42.501 147.999s47.5 64.166 83.5 80.499s82.333 24.5 139 24.5zM309.001 422.002c-34.667 0 -62.667 -5.16895 -84 -15.502s-38.166 -28.666 -50.499 -54.999s-22.166 -63.833 -29.499 -112.5
c-6.66699 -44.667 -8 -79.667 -4 -105s14.667 -43 32 -53s42.666 -15 75.999 -15c34.667 0 62.667 5.33301 84 16s38.166 29.334 50.499 56.001s21.833 63 28.5 109s8 81.5 4 106.5s-14.667 42.667 -32 53s-42.333 15.5 -75 15.5zM445.001 709l46.998 -11.001
c-1.33301 -26 -9.16602 -49 -23.499 -69s-33.5 -35.667 -57.5 -47s-52.333 -17 -85 -17c-33.333 0 -61.333 5.83301 -84 17.5s-38.834 28 -48.501 49s-11.5 44.5 -5.5 70.5l49 4c-3.33301 -24 3.16699 -42 19.5 -54s39.833 -18 70.5 -18
c34.667 0 62.334 6.83301 83.001 20.5s32.334 31.834 35.001 54.501z" />
    <glyph glyph-name="Ohungarumlaut" unicode="&#x150;" horiz-adv-x="669" 
d="M387 703c64.667 0 116.334 -11.501 155.001 -34.501s64.167 -60.833 76.5 -113.5s12.166 -123.667 -0.500977 -213c-8.66699 -67.333 -21.167 -123.833 -37.5 -169.5s-36.833 -82.167 -61.5 -109.5s-55 -46.833 -91 -58.5s-79 -17.5 -129 -17.5
c-64.667 0 -116.334 11.333 -155.001 34s-64.5 60.334 -77.5 113.001s-13.5 124 -1.5 214c10 66 22.667 121.5 38 166.5s35.5 81.5 60.5 109.5s55.833 48.167 92.5 60.5s80.334 18.5 131.001 18.5zM382 615.999c-44 0 -79.832 -8.16699 -107.499 -24.5
s-49.5 -44.5 -65.5 -84.5s-29 -95 -39 -165c-9.33301 -68.667 -11.666 -122.334 -6.99902 -161.001s18.167 -66.167 40.5 -82.5s55.166 -24.5 98.499 -24.5c44 0 79.667 8.33301 107 25s49.166 45 65.499 85s29.5 94.667 39.5 164c10.667 70.667 13.5 125.334 8.5 164.001
s-18.833 65.667 -41.5 81s-55.667 23 -99 23zM396.001 923.999l59 -43l-158 -159l-40 30zM565.001 923.999l59 -43l-158 -159l-40 30z" />
    <glyph glyph-name="ohungarumlaut" unicode="&#x151;" 
d="M309 500c56 0 100.334 -8.49805 133.001 -25.498s54.667 -44.5 66 -82.5s12.333 -89 3 -153c-8.66699 -61.333 -22.834 -110.5 -42.501 -147.5s-47.334 -63.667 -83.001 -80s-81.5 -24.5 -137.5 -24.5c-55.333 0 -99.5 8.5 -132.5 25.5s-55.333 44.667 -67 83
s-13.167 88.833 -4.5 151.5c8.66699 61.333 22.834 110.666 42.501 147.999s47.5 64.166 83.5 80.499s82.333 24.5 139 24.5zM309.001 422.002c-34.667 0 -62.667 -5.16895 -84 -15.502s-38.166 -28.666 -50.499 -54.999s-22.166 -63.833 -29.499 -112.5
c-6.66699 -44.667 -8 -79.667 -4 -105s14.667 -43 32 -53s42.666 -15 75.999 -15c34.667 0 62.667 5.33301 84 16s38.166 29.334 50.499 56.001s21.833 63 28.5 109s8 81.5 4 106.5s-14.667 42.667 -32 53s-42.333 15.5 -75 15.5zM324.001 744l59 -43l-158 -159l-40 30z
M493.001 744l59 -43l-158 -159l-40 30z" />
    <glyph glyph-name="OE" unicode="&#x152;" horiz-adv-x="924" 
d="M388 703c37.333 0 68.6729 -2.66602 94.0059 -7.99902s51.666 -14.333 78.999 -27l-43 -72c-20 6.66699 -39.5 11.667 -58.5 15s-42.833 5 -71.5 5c-44.667 0 -81.334 -8.16699 -110.001 -24.5s-51.334 -44.5 -68.001 -84.5s-30 -95 -40 -165
c-9.33301 -68.667 -11.833 -122.334 -7.5 -161.001s17.666 -66.167 39.999 -82.5s54.833 -24.5 97.5 -24.5c23.333 0 42.833 1 58.5 3s30 4.66699 43 8s27.167 7.33301 42.5 12l31 -71c-20 -9.33301 -38.667 -16.833 -56 -22.5s-35.5 -9.83398 -54.5 -12.501
s-40.833 -4 -65.5 -4c-52 0 -95.333 6.16699 -130 18.5s-61.167 32.333 -79.5 60s-29.333 64.667 -33 111s-0.833984 103.5 8.49902 171.5c10 68 22.833 124.833 38.5 170.5s36 81.834 61 108.501s55.667 46 92 58s80.166 18 131.499 18zM479.007 401.001l369 -1l-9 -75
h-371zM631.007 691.001h102.499c34.333 0 68 -0.5 101 -1.5s64.5 -2.5 94.5 -4.5l-12 -77h-267c-20.667 0 -36.5 -5.16699 -47.5 -15.5s-18.167 -27.166 -21.5 -50.499l-55 -398c-2.66699 -21.333 0 -37 8 -47s23 -15 45 -15h263l-2 -77
c-29.333 -2 -59.833 -3.33301 -91.5 -4s-63.5 -1.16699 -95.5 -1.5s-63.333 -0.5 -94 -0.5c-33.333 0 -60.666 5.66699 -81.999 17s-36.5 27.666 -45.5 48.999s-11.5 46 -7.5 74l60 431c5.33301 38 20.833 67.667 46.5 89s59.167 32 100.5 32z" />
    <glyph glyph-name="oe" unicode="&#x153;" horiz-adv-x="905" 
d="M308 500c40.667 0 75.168 -4.66504 103.501 -13.998s51 -24.333 68 -45s28 -47.5 33 -80.5s4.16699 -73.5 -2.5 -121.5c-8.66699 -61.333 -23.334 -110.5 -44.001 -147.5s-48.834 -63.667 -84.501 -80s-80.5 -24.5 -134.5 -24.5c-54.667 0 -98.5 8.5 -131.5 25.5
s-55.333 44.667 -67 83s-13.167 88.833 -4.5 151.5c8.66699 61.333 22.834 110.666 42.501 147.999s47.5 64.166 83.5 80.499s82 24.5 138 24.5zM308.001 422.002c-34.667 0 -62.668 -5.16895 -84.001 -15.502s-38.166 -28.666 -50.499 -54.999
s-21.833 -63.833 -28.5 -112.5c-6.66699 -44.667 -8 -79.667 -4 -105s14.667 -43 32 -53s42.333 -15 75 -15c34 0 61.833 5.33301 83.5 16s38.667 29.334 51 56.001s21.5 63 27.5 109c6.66699 46 8.16699 81.5 4.5 106.5s-14.167 42.667 -31.5 53s-42.333 15.5 -75 15.5z
M681 500c52.667 0 93.502 -5.83203 122.502 -17.499s48.333 -29.334 58 -53.001s11.834 -52.834 6.50098 -87.501c-5.33301 -31.333 -15.333 -56.333 -30 -75s-35 -32.5 -61 -41.5s-58.333 -15.167 -97 -18.5l-240 -22l11 67l223 22c20.667 2 37.667 5.33301 51 10
s23.833 12.334 31.5 23.001s12.834 25 15.501 43c3.33301 23.333 1.66602 40.166 -5.00098 50.499s-18.167 16.666 -34.5 18.999s-37.166 3.5 -62.499 3.5s-46.833 -2.33301 -64.5 -7s-32.334 -13 -44.001 -25s-21.5 -29 -29.5 -51s-14.667 -50.333 -20 -85
c-8 -51.333 -8.66699 -90.5 -2 -117.5s20 -45.333 40 -55s46.667 -14.5 80 -14.5c17.333 0 36.333 0.5 57 1.5s41.5 2.5 62.5 4.5s40.5 4 58.5 6l6 -63c-16.667 -7.33301 -36.834 -13.166 -60.501 -17.499s-47.834 -7.33301 -72.501 -9s-46.667 -2.5 -66 -2.5
c-55.333 0 -99.5 9.5 -132.5 28.5s-55 48.333 -66 88s-12.5 89.834 -4.5 150.501c6 48.667 15.667 88.834 29 120.501s30.666 56.667 51.999 75s47.5 31.166 78.5 38.499s67.5 11 109.5 11z" />
    <glyph glyph-name="Racute" unicode="&#x154;" horiz-adv-x="623" 
d="M377 699c49.333 0 90.5049 -6 123.505 -18s57 -32.833 72 -62.5s18.833 -70.834 11.5 -123.501c-4.66699 -34 -13 -63.167 -25 -87.5s-28.5 -43.666 -49.5 -57.999s-47.833 -23.5 -80.5 -27.5l-1 -5c12.667 -3.33301 24 -9.16602 34 -17.499s18.5 -19.5 25.5 -33.5
s12.167 -31 15.5 -51l42 -215h-102l-39 217c-4.66699 25.333 -12.834 43 -24.501 53s-28.5 15 -50.5 15c-42.667 0.666992 -78.834 1.16699 -108.501 1.5s-54.5 0.666016 -74.5 0.999023s-37 0.5 -51 0.5l11 80h226c32.667 0.666992 59.167 4.83398 79.5 12.501
s36.166 20.667 47.499 39s19.333 44.5 24 78.5c4 30 3.5 53.667 -1.5 71s-16 29.5 -33 36.5s-41.5 10.5 -73.5 10.5c-58 0 -107.167 -0.333008 -147.5 -1s-67.833 -1 -82.5 -1l-6 76c25.333 2.66699 49.666 4.66699 72.999 6s48.166 2.16602 74.499 2.49902
s56.5 0.5 90.5 0.5zM237.005 690l-97 -690h-98l97 690h98zM509.005 919l43 -74l-212 -118l-28 44z" />
    <glyph glyph-name="racute" unicode="&#x155;" horiz-adv-x="403" 
d="M175 488l-6 -131l7 -14l-47 -343h-97l69 488h74zM417 500l-23 -89.999h-27c-28 0 -57.333 -8.66699 -88 -26s-68.667 -42 -114 -74l-4 61c41.333 41.333 81.5 73.166 120.5 95.499s75.5 33.5 109.5 33.5h26zM402 739.001l43 -74l-212 -118l-28 44z" />
    <glyph glyph-name="uni0156" unicode="&#x156;" horiz-adv-x="623" 
d="M377 699c49.333 0 90.5049 -6 123.505 -18s57 -32.833 72 -62.5s18.833 -70.834 11.5 -123.501c-4.66699 -34 -13 -63.167 -25 -87.5s-28.5 -43.666 -49.5 -57.999s-47.833 -23.5 -80.5 -27.5l-1 -5c12.667 -3.33301 24 -9.16602 34 -17.499s18.5 -19.5 25.5 -33.5
s12.167 -31 15.5 -51l42 -215h-102l-39 217c-4.66699 25.333 -12.834 43 -24.501 53s-28.5 15 -50.5 15c-42.667 0.666992 -78.834 1.16699 -108.501 1.5s-54.5 0.666016 -74.5 0.999023s-37 0.5 -51 0.5l11 80h226c32.667 0.666992 59.167 4.83398 79.5 12.501
s36.166 20.667 47.499 39s19.333 44.5 24 78.5c4 30 3.5 53.667 -1.5 71s-16 29.5 -33 36.5s-41.5 10.5 -73.5 10.5c-58 0 -107.167 -0.333008 -147.5 -1s-67.833 -1 -82.5 -1l-6 76c25.333 2.66699 49.666 4.66699 72.999 6s48.166 2.16602 74.499 2.49902
s56.5 0.5 90.5 0.5zM237.005 690l-97 -690h-98l97 690h98zM316.358 -56.6191c12.1201 0 20.3018 -2.42969 24.5439 -7.29102s5.4541 -13.0117 3.63574 -24.4502l-8.18066 -54.9062c-1.81738 -14.8711 -5.30176 -30.1709 -10.4531 -45.8984
c-5.15137 -15.7285 -11.3633 -31.3135 -18.6357 -46.7559s-15.4531 -30.0273 -24.543 -43.7539l-41.8135 14.584l16.8164 49.3301c5.15137 15.7285 9.84766 33.8877 14.0889 54.4775c-9.69629 -0.572266 -16.665 1.57227 -20.9062 6.43457
c-4.24219 4.86133 -6.06055 11.5811 -5.4541 20.1602l7.27148 48.9014c2.42383 11.4385 6.36328 19.1592 11.8174 23.1621c5.4541 4.00391 14.5439 6.00586 27.2695 6.00586h24.543z" />
    <glyph glyph-name="uni0157" unicode="&#x157;" horiz-adv-x="403" 
d="M175 488l-6 -131l7 -14l-47 -343h-97l69 488h74zM417 500l-23 -89.999h-27c-28 0 -57.333 -8.66699 -88 -26s-68.667 -42 -114 -74l-4 61c41.333 41.333 81.5 73.166 120.5 95.499s75.5 33.5 109.5 33.5h26zM82.3535 -55.6182
c12.1201 0 20.3018 -2.42969 24.5439 -7.29102s5.4541 -13.0117 3.63574 -24.4502l-8.18066 -54.9062c-1.81738 -14.8711 -5.30176 -30.1709 -10.4531 -45.8984c-5.15137 -15.7285 -11.3633 -31.3135 -18.6357 -46.7559s-15.4531 -30.0273 -24.543 -43.7539l-41.8135 14.584
l16.8164 49.3301c5.15137 15.7285 9.84766 33.8877 14.0889 54.4775c-9.69629 -0.572266 -16.665 1.57227 -20.9062 6.43457c-4.24219 4.86133 -6.06055 11.5811 -5.4541 20.1602l7.27148 48.9014c2.42383 11.4385 6.36328 19.1592 11.8174 23.1621
c5.4541 4.00391 14.5439 6.00586 27.2695 6.00586h24.543z" />
    <glyph glyph-name="Rcaron" unicode="&#x158;" horiz-adv-x="623" 
d="M377 699c49.333 0 90.5049 -6 123.505 -18s57 -32.833 72 -62.5s18.833 -70.834 11.5 -123.501c-4.66699 -34 -13 -63.167 -25 -87.5s-28.5 -43.666 -49.5 -57.999s-47.833 -23.5 -80.5 -27.5l-1 -5c12.667 -3.33301 24 -9.16602 34 -17.499s18.5 -19.5 25.5 -33.5
s12.167 -31 15.5 -51l42 -215h-102l-39 217c-4.66699 25.333 -12.834 43 -24.501 53s-28.5 15 -50.5 15c-42.667 0.666992 -78.834 1.16699 -108.501 1.5s-54.5 0.666016 -74.5 0.999023s-37 0.5 -51 0.5l11 80h226c32.667 0.666992 59.167 4.83398 79.5 12.501
s36.166 20.667 47.499 39s19.333 44.5 24 78.5c4 30 3.5 53.667 -1.5 71s-16 29.5 -33 36.5s-41.5 10.5 -73.5 10.5c-58 0 -107.167 -0.333008 -147.5 -1s-67.833 -1 -82.5 -1l-6 76c25.333 2.66699 49.666 4.66699 72.999 6s48.166 2.16602 74.499 2.49902
s56.5 0.5 90.5 0.5zM237.005 690l-97 -690h-98l97 690h98zM537.005 911l28 -40l-153 -128h-63l-122 134l37 34l117 -97h8z" />
    <glyph glyph-name="rcaron" unicode="&#x159;" horiz-adv-x="403" 
d="M175 488l-6 -131l7 -14l-47 -343h-97l69 488h74zM417 500l-23 -89.999h-27c-28 0 -57.333 -8.66699 -88 -26s-68.667 -42 -114 -74l-4 61c41.333 41.333 81.5 73.166 120.5 95.499s75.5 33.5 109.5 33.5h26zM429 730.001l28 -40l-153 -128h-63l-122 134l37 34l117 -97h8z
" />
    <glyph glyph-name="Sacute" unicode="&#x15a;" horiz-adv-x="564" 
d="M333 702c34 -0.666992 69.002 -2.33691 105.002 -5.00391s70.333 -8 103 -16l-9 -71c-22.667 1.33301 -45.167 2.16602 -67.5 2.49902l-66.5 1c-22 0.333008 -44.667 0.5 -68 0.5c-21.333 0 -40.333 -0.5 -57 -1.5s-31 -4.16699 -43 -9.5s-21.833 -14.666 -29.5 -27.999
s-13.167 -32 -16.5 -56c-2 -21.333 -1.66699 -38.333 1 -51s9.33398 -22.667 20.001 -30s26 -14.666 46 -21.999l133 -51c35.333 -13.333 62 -28.666 80 -45.999s29.5 -38.166 34.5 -62.499s5.16699 -53.5 0.5 -87.5c-6.66699 -50 -19.834 -88 -39.501 -114
s-47.334 -43.667 -83.001 -53s-81.5 -14 -137.5 -14c-21.333 0 -50.833 1.16699 -88.5 3.5s-79.834 7.83301 -126.501 16.5l12 73c39.333 -1.33301 71.333 -2.5 96 -3.5s45.334 -1.5 62.001 -1.5h45c36.667 0 66 2.5 88 7.5s38.667 14.5 50 28.5s19 36 23 66
c2.66699 22 2.5 39.167 -0.5 51.5s-9.83301 22.333 -20.5 30s-25.667 14.834 -45 21.501l-136 52c-32.667 12.667 -58 28 -76 46s-29.667 39.333 -35 64s-6 52.667 -2 84c4.66699 38.667 13.667 69.667 27 93s30.5 40.833 51.5 52.5s45.667 19.5 74 23.5s60.166 6 95.499 6z
M471.002 918.997l43 -74l-212 -118l-28 44z" />
    <glyph glyph-name="sacute" unicode="&#x15b;" horiz-adv-x="510" 
d="M265 500c23.333 0 47.668 -0.838867 73.001 -2.50586s49.833 -3.5 73.5 -5.5s44.834 -4.33301 63.501 -7l-12 -67c-30.667 1.33301 -61.5 2.33301 -92.5 3s-64.167 1.33398 -99.5 2.00098c-27.333 0 -49.5 -0.833008 -66.5 -2.5s-29.667 -5.66699 -38 -12
s-13.166 -17.166 -14.499 -32.499c-2.66699 -18.667 1.16602 -32.167 11.499 -40.5s25.833 -17.166 46.5 -26.499l133 -57c25.333 -10 45.833 -21 61.5 -33s26.667 -26.333 33 -43s7.83301 -38 4.5 -64c-4.66699 -36.667 -16.667 -63.667 -36 -81
s-45.166 -28.666 -77.499 -33.999s-71.5 -8 -117.5 -8c-30 0 -54.5 0.666992 -73.5 2s-37.333 3 -55 5s-38.834 4.66699 -63.501 8l10 67c15.333 -1.33301 32.166 -2.16602 50.499 -2.49902l55 -1c18.333 -0.333008 35.833 -0.5 52.5 -0.5
c40.667 0.666992 72 2.33398 94 5.00098s38 7.83398 48 15.501s16.333 18.5 19 32.5c2 12.667 0.666992 22.5 -4 29.5s-11.834 12.833 -21.501 17.5l-36.5 17l-134 57c-23.333 10.667 -42.666 22.167 -57.999 34.5s-25.833 27.333 -31.5 45s-7.16699 38.5 -4.5 62.5
c4 32 14.167 56.5 30.5 73.5s39.166 28.667 68.499 35s65.333 9.16602 108 8.49902zM428.002 738.994l43 -74l-212 -118l-28 44z" />
    <glyph glyph-name="Scircumflex" unicode="&#x15c;" horiz-adv-x="564" 
d="M333 702c34 -0.666992 69.002 -2.33691 105.002 -5.00391s70.333 -8 103 -16l-9 -71c-22.667 1.33301 -45.167 2.16602 -67.5 2.49902l-66.5 1c-22 0.333008 -44.667 0.5 -68 0.5c-21.333 0 -40.333 -0.5 -57 -1.5s-31 -4.16699 -43 -9.5s-21.833 -14.666 -29.5 -27.999
s-13.167 -32 -16.5 -56c-2 -21.333 -1.66699 -38.333 1 -51s9.33398 -22.667 20.001 -30s26 -14.666 46 -21.999l133 -51c35.333 -13.333 62 -28.666 80 -45.999s29.5 -38.166 34.5 -62.499s5.16699 -53.5 0.5 -87.5c-6.66699 -50 -19.834 -88 -39.501 -114
s-47.334 -43.667 -83.001 -53s-81.5 -14 -137.5 -14c-21.333 0 -50.833 1.16699 -88.5 3.5s-79.834 7.83301 -126.501 16.5l12 73c39.333 -1.33301 71.333 -2.5 96 -3.5s45.334 -1.5 62.001 -1.5h45c36.667 0 66 2.5 88 7.5s38.667 14.5 50 28.5s19 36 23 66
c2.66699 22 2.5 39.167 -0.5 51.5s-9.83301 22.333 -20.5 30s-25.667 14.834 -45 21.501l-136 52c-32.667 12.667 -58 28 -76 46s-29.667 39.333 -35 64s-6 52.667 -2 84c4.66699 38.667 13.667 69.667 27 93s30.5 40.833 51.5 52.5s45.667 19.5 74 23.5s60.166 6 95.499 6z
M392.002 898.997l125 -134l-34 -36l-122 100h-8l-150 -99l-27 41l149 128h67z" />
    </font>
</defs>
</svg>
