<svg xmlns="http://www.w3.org/2000/svg">
<defs>
<font id="Podkova-Bold" horiz-adv-x="0" >
  <font-face 
    font-family="Podkova"
    font-weight="700"
    font-stretch="normal"
    units-per-em="1000"
    panose-1="0 0 0 0 0 0 0 0 0 0"
    ascent="800"
    descent="-200"
    x-height="447"
    cap-height="589"
    bbox="-176 -332.001 1053 1029"
    underline-thickness="50"
    underline-position="-75"
    unicode-range="U+000D-U+FB02"
  />
<missing-glyph horiz-adv-x="967" 
d="M939 570c2.66699 0 3.32715 -1.00488 1.99414 -3.00488l-64 -66l-1 1c0 -24.667 -3 -52.5 -9 -83.5s-17.167 -64 -33.5 -99s-40.333 -70.833 -72 -107.5s-73.834 -73 -126.501 -109c0 -3.33301 -1.16699 -8.16602 -3.5 -14.499s-7.16602 -9.5 -14.499 -9.5l-12 -12
c15.333 -5.33301 31.166 -11.166 47.499 -17.499s32.166 -13.166 47.499 -20.499c10.667 0 23.334 -0.166992 38.001 -0.5s29.667 -6.16602 45 -17.499c0 -2.66699 -0.333008 -4.16699 -1 -4.5s-1.66699 -1.16602 -3 -2.49902
c-9.33301 4.66699 -18.166 8.33398 -26.499 11.001s-18.833 3.33398 -31.5 2.00098c6.66699 -3.33301 13.167 -7.16602 19.5 -11.499s12.166 -10.5 17.499 -18.5c-0.666992 -2.66699 -3.66699 -4.66699 -9 -6c-9.33301 9.33301 -19.166 17.166 -29.499 23.499
s-21.833 9.16602 -34.5 8.49902c-10.667 0 -19 -1 -25 -3s-14.667 -5.66699 -26 -11c-1.33301 1.33301 -2.5 1.83301 -3.5 1.5s-1.83301 1.16699 -2.5 4.5c6.66699 7.33301 13 11.833 19 13.5s14 4.16699 24 7.5c-21.333 12 -41.166 20.333 -59.499 25s-27.5 9 -27.5 13
s3.66699 9 11 15c-5.33301 0 -9.66602 2.66699 -12.999 8s-5.33301 9 -6 11h-27c-9.33301 0 -18.5 0.333008 -27.5 1s-18.167 1.66699 -27.5 3c-1.33301 -4 -4.16602 -9.16699 -8.49902 -15.5s-10.5 -8.83301 -18.5 -7.5c-8 -4.66699 -13 -8 -15 -10l41.5 -26.5
c14.333 -9 28.5 -19.167 42.5 -30.5c11.333 -2.66699 23.333 -5 36 -7s24.667 -10.667 36 -26c0 -2.66699 -0.5 -4.16699 -1.5 -4.5s-2.16699 -1.16602 -3.5 -2.49902c-8 7.33301 -14.833 12.5 -20.5 15.5s-15.167 5.5 -28.5 7.5c13.333 -8 22.333 -21 27 -39

<glyph glyph-name="fi" unicode="fi" horiz-adv-x="740" 
d="M128 490c0 60.667 15.668 106.832 47.001 138.499s77.666 47.5 138.999 47.5c28 0 54 -3.5 78 -10.5s44.333 -17.5 61 -31.5l-39 -79c-30 18.667 -59.333 28 -88 28c-27.333 0 -48.833 -7.66699 -64.5 -23s-23.5 -39.666 -23.5 -72.999v-40h124v-90h-124v-266h90v-91
h-284v91h84v266h-84v90h84v43zM435.001 446.998h198v-356h83v-91h-281v91h83v266h-83v90zM565.001 663.998c20.667 0 37.334 -6.33301 50.001 -19s19 -29.334 19 -50.001s-6.33301 -37.334 -19 -50.001s-29.334 -19 -50.001 -19s-37.167 6.33301 -49.5 19
s-18.5 29.334 -18.5 50.001s6.16699 37.334 18.5 50.001s28.833 19 49.5 19z" />
    <glyph glyph-name="fl" unicode="fl" horiz-adv-x="702" 
d="M593 91h84.001v-91h-282v91h84v457c-18 14 -36.333 24.667 -55 32s-40 11 -64 11c-32.667 0 -60.5 -8.83301 -83.5 -26.5s-34.5 -43.5 -34.5 -77.5v-40h124v-90h-124v-266h90v-91h-288v91h84v266h-84v90h84v43c0 38 9.83301 71.667 29.5 101s47.167 52.5 82.5 69.5
s75.666 25.5 120.999 25.5c51.333 0 95.833 -8.5 133.5 -25.5s70.5 -40.5 98.5 -70.5v-499z" />
    <glyph glyph-name=".notdef" horiz-adv-x="967" 
d="M939 570c2.66699 0 3.32715 -1.00488 1.99414 -3.00488l-64 -66l-1 1c0 -24.667 -3 -52.5 -9 -83.5s-17.167 -64 -33.5 -99s-40.333 -70.833 -72 -107.5s-73.834 -73 -126.501 -109c0 -3.33301 -1.16699 -8.16602 -3.5 -14.499s-7.16602 -9.5 -14.499 -9.5l-12 -12
c15.333 -5.33301 31.166 -11.166 47.499 -17.499s32.166 -13.166 47.499 -20.499c10.667 0 23.334 -0.166992 38.001 -0.5s29.667 -6.16602 45 -17.499c0 -2.66699 -0.333008 -4.16699 -1 -4.5s-1.66699 -1.16602 -3 -2.49902
c-9.33301 4.66699 -18.166 8.33398 -26.499 11.001s-18.833 3.33398 -31.5 2.00098c6.66699 -3.33301 13.167 -7.16602 19.5 -11.499s12.166 -10.5 17.499 -18.5c-0.666992 -2.66699 -3.66699 -4.66699 -9 -6c-9.33301 9.33301 -19.166 17.166 -29.499 23.499
s-21.833 9.16602 -34.5 8.49902c-10.667 0 -19 -1 -25 -3s-14.667 -5.66699 -26 -11c-1.33301 1.33301 -2.5 1.83301 -3.5 1.5s-1.83301 1.16699 -2.5 4.5c6.66699 7.33301 13 11.833 19 13.5s14 4.16699 24 7.5c-21.333 12 -41.166 20.333 -59.499 25s-27.5 9 -27.5 13
s3.66699 9 11 15c-5.33301 0 -9.66602 2.66699 -12.999 8s-5.33301 9 -6 11h-27c-9.33301 0 -18.5 0.333008 -27.5 1s-18.167 1.66699 -27.5 3c-1.33301 -4 -4.16602 -9.16699 -8.49902 -15.5s-10.5 -8.83301 -18.5 -7.5c-8 -4.66699 -13 -8 -15 -10l41.5 -26.5
c14.333 -9 28.5 -19.167 42.5 -30.5c11.333 -2.66699 23.333 -5 36 -7s24.667 -10.667 36 -26c0 -2.66699 -0.5 -4.16699 -1.5 -4.5s-2.16699 -1.16602 -3.5 -2.49902c-8 7.33301 -14.833 12.5 -20.5 15.5s-15.167 5.5 -28.5 7.5c13.333 -8 22.333 -21 27 -39
c-1.33301 -3.33301 -4 -4.66602 -8 -3.99902c-6.66699 10.667 -14.167 20.5 -22.5 29.5s-18.5 14.833 -30.5 17.5c-20.667 2.66699 -44 1 -70 -5c-2 3.33301 -3 6 -3 8c8 5.33301 16.833 8.5 26.5 9.5s19.834 1.83301 30.501 2.5c-16.667 14 -33.334 25.667 -50.001 35
s-25 16.666 -25 21.999c0 3.33301 1.16699 5.66602 3.5 6.99902s5.5 3.66602 9.5 6.99902c-4.66699 4.66699 -7.16699 10.167 -7.5 16.5s-0.166016 11.5 0.500977 15.5c-38.667 21.333 -71.667 45.833 -99 73.5s-50.166 55.334 -68.499 83.001l-46.5 71.5l-103.5 36.5
c-33.667 12.333 -61.167 27.166 -82.5 44.499c-4.66699 4 -6.5 8.66699 -5.5 14s4.83301 8 11.5 8l256 -22l182.5 36c45.667 8.66699 80.5 17.167 104.5 25.5s40.667 19.5 50 33.5c20 35.333 40.5 60.5 61.5 75.5s45.833 22.5 74.5 22.5c9.33301 0 17.833 -0.666992 25.5 -2
s14.834 -3 21.501 -5v1l74 26c2 0 3 -0.666992 3 -2v-1l-25 -69zM657.993 187.995c2 0.666992 5.16309 3.33105 9.49609 7.99805s8.5 9.83398 12.5 15.501s5.66699 9.16699 5 10.5c-8 7.33301 -20.167 17.833 -36.5 31.5l-53.5 46.5l43.5 57.5l29.5 39.5l-16.5 13.5
c-7 5.66699 -13.833 9.83398 -20.5 12.501l-74 -93l-56.5 43.5l-40.5 29.5c-3.33301 -4 -7.66602 -9.5 -12.999 -16.5s-9.66602 -14.5 -12.999 -22.5l91 -72l-72 -93c0.666992 -2 3.33398 -5.16699 8.00098 -9.5s9.83398 -8.33301 15.501 -12s9.16699 -5.5 10.5 -5.5l78 88z
" />
    <glyph glyph-name="NULL" 
 />
    <glyph glyph-name="NULL" 
 />
    <glyph glyph-name="CR" unicode="&#xd;" horiz-adv-x="239" 
 />
    <glyph glyph-name="space" unicode=" " horiz-adv-x="239" 
 />
    <glyph glyph-name="exclam" unicode="!" horiz-adv-x="239" 
d="M54 605h131l-24 -408h-86zM119 140c20.667 0 39 -8 55 -24s24 -35 24 -57c0 -20.667 -8 -39 -24 -55s-34.333 -24 -55 -24c-22 0 -40.833 8 -56.5 24s-23.5 34.333 -23.5 55c0 22 7.83301 41 23.5 57s34.5 24 56.5 24z" />
    <glyph glyph-name="quotedbl" unicode="&#x22;" horiz-adv-x="363" 
d="M205 605h106l-26 -199h-53zM52 605h106l-26 -199h-53z" />
    <glyph glyph-name="numbersign" unicode="#" horiz-adv-x="634" 
d="M257 588h90l-51 -181h113l50 181h89l-50 -181h124v-86h-148l-35 -130h148v-86h-172l-49 -180h-90l50 180h-113l-49 -180h-90l50 180h-111v86h134l37 130h-137v86h160zM273 321l-36 -130h113l35 130h-112z" />
    <glyph glyph-name="dollar" unicode="$" horiz-adv-x="487" 
d="M126 104c14 -4.66699 26.6641 -8.33301 37.9971 -11s22.333 -4.66699 33 -6v168c-56.667 8 -99.5 27 -128.5 57s-43.5 67.667 -43.5 113c0 31.333 7.33301 58.5 22 81.5s34.834 41 60.501 54s55.5 20.167 89.5 21.5v90h83v-90c18 0 34.833 -1.83301 50.5 -5.5
s31 -8.83398 46 -15.501s29.5 -14.667 43.5 -24l17 -135l-91 -9l-13 82c-7.33301 5.33301 -15.166 9.16602 -23.499 11.499s-18.166 3.83301 -29.499 4.5v-159l17 -3c51.333 -8.66699 90.833 -25.5 118.5 -50.5s41.5 -61.5 41.5 -109.5c0 -50 -15.167 -90 -45.5 -120
s-74.5 -47 -132.5 -51v-81h-82v81c-21.333 2 -41.333 4.83301 -60 8.5s-35.667 7.83398 -51 12.501s-28.333 9.33398 -39 14.001l-17 123l87 10zM278.997 88.001c27.333 5.33301 48.333 14.833 63 28.5s22 31.167 22 52.5c0 24 -6.83301 41.5 -20.5 52.5
s-35.167 17.833 -64.5 20.5v-154zM196.997 496.001c-27.333 -1.33301 -47.833 -7.83203 -61.5 -19.499s-20.5 -27.834 -20.5 -48.501c0 -42 27.333 -69.333 82 -82v150z" />
    <glyph glyph-name="percent" unicode="%" horiz-adv-x="796" 
d="M490 619h88l-273 -641h-89zM195 621c42 0 75.833 -13.332 101.5 -39.999s38.5 -73.334 38.5 -140.001s-12.833 -113.167 -38.5 -139.5s-59.5 -39.5 -101.5 -39.5c-27.333 0 -51.5 5.66699 -72.5 17s-37.5 30 -49.5 56s-18 61.333 -18 106c0 45.333 6 81 18 107
s28.5 44.667 49.5 56s45.167 17 72.5 17zM195 539.001c-9.33301 0 -18 -2.66602 -26 -7.99902s-14.5 -15 -19.5 -29s-7.5 -34.333 -7.5 -61c0 -26 2.5 -46 7.5 -60s11.5 -23.5 19.5 -28.5s16.667 -7.5 26 -7.5c10 0 19 2.5 27 7.5s14.333 14.667 19 29s7 34.166 7 59.499
c0 26.667 -2.33301 47 -7 61s-11 23.667 -19 29s-17 8 -27 8zM601 339.002c41.333 0 75 -13.165 101 -39.498s39 -72.833 39 -139.5s-13 -113.334 -39 -140.001s-59.667 -40 -101 -40c-28 0 -52.5 5.66699 -73.5 17s-37.5 30.166 -49.5 56.499s-18 61.833 -18 106.5
s6 80.167 18 106.5s28.5 45 49.5 56s45.5 16.5 73.5 16.5zM600 257.004c-9.33301 0 -18 -2.5 -26 -7.5s-14.333 -14.667 -19 -29s-7 -34.5 -7 -60.5c0 -26.667 2.33301 -47 7 -61s11 -23.667 19 -29s16.667 -8 26 -8c10 0 18.833 2.66699 26.5 8s14 15 19 29s7.5 34 7.5 60
c0 27.333 -2.5 48 -7.5 62s-11.333 23.5 -19 28.5s-16.5 7.5 -26.5 7.5z" />
    <glyph glyph-name="ampersand" unicode="&#x26;" horiz-adv-x="736" 
d="M495 67c-24 -30.667 -53.667 -55 -89 -73s-79.666 -27 -132.999 -27c-25.333 0 -51.166 3 -77.499 9s-50.5 16.5 -72.5 31.5s-39.5 35.167 -52.5 60.5s-19.5 57 -19.5 95c0 35.333 6.33301 64.666 19 87.999s29.667 43.333 51 60s44.333 32.334 69 47.001
c-15.333 22 -27.333 43.5 -36 64.5s-13 41.5 -13 61.5c0 28.667 4.5 52 13.5 70s21 31.833 36 41.5s31 16.5 48 20.5s33.167 6 48.5 6c26.667 0 51 -4.66699 73 -14s39.5 -23.333 52.5 -42s19.5 -42.334 19.5 -71.001c0 -34.667 -9.66699 -64 -29 -88s-43 -45.667 -71 -65
c19.333 -22 40.666 -43.667 63.999 -65s47.666 -42 72.999 -62c10 26.667 19 55.334 27 86.001s15 60.667 21 90l136 44l30 -94l-79 -26l-23.5 -78.5c-9 -29 -19.833 -57.167 -32.5 -84.5l78.5 -55.5l70.5 -49.5l-52 -87l-66 47zM248 285
c-22.667 -16.667 -42.334 -34.666 -59.001 -53.999s-25 -42 -25 -68c0 -20 3.83301 -36.833 11.5 -50.5s17.334 -24.667 29.001 -33s24 -14.5 37 -18.5s25.5 -6 37.5 -6c34.667 0 62.5 6.83301 83.5 20.5s39.833 30.5 56.5 50.5c-29.333 23.333 -59 48.666 -89 75.999
s-57.333 55 -82 83zM290 548.001c-18 0 -30.833 -5.83398 -38.5 -17.501s-11.5 -26.5 -11.5 -44.5c0 -13.333 3 -26.833 9 -40.5s14.667 -29.167 26 -46.5c16.667 12 32.167 25.333 46.5 40s21.5 33 21.5 55c0 16.667 -4.33301 29.834 -13 39.501s-22 14.5 -40 14.5z" />
    <glyph glyph-name="quotesingle" unicode="'" horiz-adv-x="210" 
d="M57 605h108l-17 -219h-74z" />
    <glyph glyph-name="parenleft" unicode="(" horiz-adv-x="256" 
d="M264 602c-30 -30 -54.167 -61.0029 -72.5 -93.0029s-32.166 -63.5 -41.499 -94.5s-15.666 -59.5 -18.999 -85.5s-5 -48 -5 -66c0 -17.333 1.66699 -39.166 5 -65.499s9.66602 -55 18.999 -86s23.166 -62.333 41.499 -94s42.5 -62.5 72.5 -92.5l-59 -74
c-24 16 -47.5 37.833 -70.5 65.5s-43.833 59.667 -62.5 96s-33.5 75.833 -44.5 118.5s-16.5 86.667 -16.5 132s5.5 89.333 16.5 132s25.833 82.334 44.5 119.001s39.5 68.834 62.5 96.501s46.5 49.167 70.5 64.5z" />
    <glyph glyph-name="parenright" unicode=")" horiz-adv-x="257" 
d="M51 675c24 -15.333 47.667 -36.8301 71 -64.4971s44.333 -59.834 63 -96.501s33.5 -76.334 44.5 -119.001s16.5 -86.667 16.5 -132s-5.5 -89.333 -16.5 -132s-25.833 -82.167 -44.5 -118.5s-39.667 -68.333 -63 -96s-47 -49.5 -71 -65.5l-59 74c30 30 54 60.833 72 92.5
s31.833 63 41.5 94s16.167 59.667 19.5 86s5 48.166 5 65.499c0 18 -1.66699 40 -5 66s-9.83301 54.5 -19.5 85.5s-23.5 62.5 -41.5 94.5s-42 63 -72 93z" />
    <glyph glyph-name="asterisk" unicode="*" horiz-adv-x="442" 
d="M163 657h110l-17 -148l137 64l36 -105l-146 -30l97 -109l-89 -67l-72 125l-72 -125l-91 64l103 113l-145 27l33 107l134 -64z" />
    <glyph glyph-name="plus" unicode="+" horiz-adv-x="495" 
d="M195 500h105v-146h145v-95h-145v-145h-105v145h-145v95h145v146z" />
    <glyph glyph-name="comma" unicode="," horiz-adv-x="234" 
d="M90 -137l-37.001 38.998l8.5 12.5l20 30c7.66699 11.667 14.167 23.167 19.5 34.5c-21.333 4.66699 -36.666 13.834 -45.999 27.501s-14 28.5 -14 44.5c0 22.667 7.5 41 22.5 55s33.833 21 56.5 21c21.333 0 40.333 -8 57 -24s25 -35.333 25 -58
c0 -21.333 -4.83301 -42 -14.5 -62s-21.167 -38.167 -34.5 -54.5s-25.833 -30.166 -37.5 -41.499s-20.167 -19.333 -25.5 -24z" />
    <glyph glyph-name="hyphen" unicode="-" horiz-adv-x="419" 
d="M46 271h327v-92h-327v92z" />
    <glyph glyph-name="period" unicode="." horiz-adv-x="250" 
d="M125 140c21.333 0 40 -8 56 -24s24 -35 24 -57c0 -20.667 -8 -39 -24 -55s-34.667 -24 -56 -24c-22 0 -40.833 8 -56.5 24s-23.5 34.333 -23.5 55c0 22 7.83301 41 23.5 57s34.5 24 56.5 24z" />
    <glyph glyph-name="slash" unicode="/" horiz-adv-x="387" 
d="M300 589h113l-325 -720h-114z" />
    <glyph glyph-name="zero" unicode="0" horiz-adv-x="606" 
d="M303 609c36 0 69.167 -5 99.5 -15s57.166 -26.833 80.499 -50.5s41.333 -55.834 54 -96.501s19 -91.667 19 -153c0 -60.667 -6.33301 -111.334 -19 -152.001s-30.667 -72.834 -54 -96.501s-50.166 -40.5 -80.499 -50.5s-63.5 -15 -99.5 -15s-69.333 5 -100 15
s-57.5 26.833 -80.5 50.5s-40.833 55.834 -53.5 96.501s-19 91.334 -19 152.001c0 61.333 6.33301 112.333 19 153s30.5 72.834 53.5 96.501s49.833 40.5 80.5 50.5s64 15 100 15zM303 505c-17.333 0 -33.833 -2.5 -49.5 -7.5s-29.667 -14.667 -42 -29s-22 -35.5 -29 -63.5
s-10.5 -65 -10.5 -111c0 -45.333 3.5 -81.833 10.5 -109.5s16.667 -48.834 29 -63.501s26.333 -24.5 42 -29.5s32.167 -7.5 49.5 -7.5s33.833 2.5 49.5 7.5s29.834 14.833 42.501 29.5s22.5 35.834 29.5 63.501s10.5 64.167 10.5 109.5c0 46 -3.5 83 -10.5 111
s-16.833 49.167 -29.5 63.5s-26.834 24 -42.501 29s-32.167 7.5 -49.5 7.5z" />
    <glyph glyph-name="one" unicode="1" horiz-adv-x="494" 
d="M251 605h75v-504h150v-101h-425v101h159v333l-118 -98l-66 82z" />
    <glyph glyph-name="two" unicode="2" horiz-adv-x="546" 
d="M59 0l-26.001 84l125 115l115 107c22.667 22 39.834 43 51.501 63s17.5 40.333 17.5 61c0 24 -8.16699 43.167 -24.5 57.5s-39.166 21.5 -68.499 21.5c-24.667 0 -50 -6.16699 -76 -18.5s-49 -28.833 -69 -49.5l-70 73c36 34 71.833 58.5 107.5 73.5
s74.5 22.5 116.5 22.5c39.333 0 74.666 -7.5 105.999 -22.5s55.833 -36 73.5 -63s26.5 -58.833 26.5 -95.5c0 -31.333 -11.333 -62.333 -34 -93s-52 -61.667 -88 -93l-80 -70.5l-82 -71.5h204l49 75l84 -48l-77 -128h-381z" />
    <glyph glyph-name="three" unicode="3" horiz-adv-x="518" 
d="M246 353c27.333 0 49.668 7.50098 67.001 22.501s26 34.167 26 57.5c0 24 -9.5 42.667 -28.5 56s-43.5 20 -73.5 20c-25.333 0.666992 -50.666 -3.83301 -75.999 -13.5s-46 -22.5 -62 -38.5l-71 69c25.333 28.667 56.666 49.667 93.999 63s76.333 20 117 20
c66.667 0 118.5 -15.5 155.5 -46.5s55.5 -70.5 55.5 -118.5c0 -20.667 -4.33301 -40.334 -13 -59.001s-20.834 -34.667 -36.501 -48s-33.5 -23 -53.5 -29c40 -8.66699 71.833 -25.334 95.5 -50.001s35.5 -55.667 35.5 -93s-9.16699 -69.833 -27.5 -97.5
s-44.5 -49.167 -78.5 -64.5s-74.667 -23 -122 -23c-35.333 0 -66.5 3.33301 -93.5 10s-51.333 16.334 -73 29.001s-43.167 27.334 -64.5 44.001l67 84c25.333 -22.667 50.333 -39.334 75 -50.001s53.334 -16 86.001 -16c33.333 0 60.333 7.83301 81 23.5s31 36.5 31 62.5
s-10.833 47 -32.5 63s-50.834 24 -87.501 24h-63v99h70z" />
    <glyph glyph-name="four" unicode="4" horiz-adv-x="564" 
d="M212 0v101h118v66h-308l-1 87l229 371l90 -50l-198 -313h188v211h115v-211l79 1v-96h-79v-66h75v-101h-308z" />
    <glyph glyph-name="five" unicode="5" horiz-adv-x="534" 
d="M181 367c19.333 11.333 38.8311 19.668 58.498 25.001s39.5 8 59.5 8c36 0 68.833 -7.83301 98.5 -23.5s53.5 -38.667 71.5 -69s27 -66.833 27 -109.5c0 -70.667 -21.833 -124.5 -65.5 -161.5s-103.5 -55.5 -179.5 -55.5c-37.333 0 -74.166 6.83301 -110.499 20.5
s-69.166 33.5 -98.499 59.5l71 75c22.667 -18.667 46.5 -33 71.5 -43s48.833 -15 71.5 -15c42 0 73.667 10.167 95 30.5s32 48.833 32 85.5c0 24 -5.33301 44.5 -16 61.5s-25 29.833 -43 38.5s-37.333 13 -58 13s-42 -4.83301 -64 -14.5s-42.333 -24.834 -61 -45.501l-69 32
v310h375v-101h-266v-121z" />
    <glyph glyph-name="six" unicode="6" horiz-adv-x="564" 
d="M452 474c-8 6 -19 11.668 -33 17.001s-28.833 9.66602 -44.5 12.999s-30.5 5 -44.5 5c-26 0 -49 -5.16699 -69 -15.5s-37 -24.166 -51 -41.499s-24.333 -37 -31 -59s-10.334 -44.667 -11.001 -68c21.333 17.333 45.833 31.5 73.5 42.5s56.167 16.5 85.5 16.5
c34 0 66.333 -6 97 -18s55.834 -32.333 75.501 -61s29.5 -68.334 29.5 -119.001c0 -18.667 -3.5 -40 -10.5 -64s-19 -46.667 -36 -68s-40.833 -39 -71.5 -53s-70 -21 -118 -21c-82.667 0 -144.334 26.167 -185.001 78.5s-61 130.166 -61 233.499c0 60.667 11.5 115 34.5 163
s55.5 85.667 97.5 113s91.667 41 149 41c23.333 0 45.833 -2.66699 67.5 -8s40.834 -11.666 57.501 -18.999s29 -14 37 -20zM307 294.001c-27.333 0 -53.499 -5.1709 -78.499 -15.5039s-44.167 -23.5 -57.5 -39.5c4 -45.333 12.667 -79.666 26 -102.999
s29.166 -39.166 47.499 -47.499s36.833 -12.5 55.5 -12.5c26 0 47 5.83301 63 17.5s28 25.834 36 42.501s12 33.334 12 50.001c0 38 -9.66699 65.5 -29 82.5s-44.333 25.5 -75 25.5z" />
    <glyph glyph-name="seven" unicode="7" horiz-adv-x="504" 
d="M496 522c-47.333 -62 -86 -123.832 -116 -185.499s-51.667 -120.834 -65 -177.501s-19.333 -109.667 -18 -159h-117c2 52.667 9 104.5 21 155.5s30.833 103.667 56.5 158s59.167 112.5 100.5 174.5h-219l-14 -70l-104 23l28 148h447v-67z" />
    <glyph glyph-name="eight" unicode="8" horiz-adv-x="546" 
d="M272 609c39.333 0 75.166 -6.16699 107.499 -18.5s58.166 -31.166 77.499 -56.499s29 -58.333 29 -99c0 -16 -4 -33 -12 -51s-19.5 -34.167 -34.5 -48.5s-33.5 -24.5 -55.5 -30.5c28 -7.33301 50.5 -18.666 67.5 -33.999s29.333 -32.5 37 -51.5s11.5 -37.833 11.5 -56.5
c0 -43.333 -10.667 -78.5 -32 -105.5s-49.166 -46.667 -83.499 -59s-71.166 -18.5 -110.499 -18.5c-40 0 -77.333 6.16699 -112 18.5s-62.667 32 -84 59s-32 62.167 -32 105.5c0 18.667 3.83301 37.5 11.5 56.5s20 36.167 37 51.5s39.5 26.666 67.5 33.999
c-22 6 -40.5 16.167 -55.5 30.5s-26.5 30.5 -34.5 48.5s-12 35 -12 51c0 40.667 9.66699 73.667 29 99s45 44.166 77 56.499s67.333 18.5 106 18.5zM274 255c-36 0 -62.834 -9 -80.501 -27s-26.5 -39.667 -26.5 -65c0 -26.667 9.83301 -48.167 29.5 -64.5
s44.834 -24.5 75.501 -24.5c32 0 57.667 8.16699 77 24.5s29 37.833 29 64.5c0 25.333 -8.5 47 -25.5 65s-43.167 27 -78.5 27zM271.999 515c-30 0 -53.333 -7.33301 -70 -22s-25 -34 -25 -58s8.33301 -44.333 25 -61s40 -25 70 -25c30.667 0 54.334 8.33301 71.001 25
s25 37 25 61s-8.33301 43.333 -25 58s-40.334 22 -71.001 22z" />
    <glyph glyph-name="nine" unicode="9" horiz-adv-x="557" 
d="M114 115c8.66699 -6 20 -11.668 34 -17.001s29 -9.66602 45 -12.999s31.667 -5 47 -5c25.333 0 47.833 4.83301 67.5 14.5s36.167 22.834 49.5 39.501s23.5 35.667 30.5 57s10.5 43.333 10.5 66c-21.333 -17.333 -45.5 -31.5 -72.5 -42.5s-55.5 -16.5 -85.5 -16.5
c-34 0 -66.5 6.16699 -97.5 18.5s-56.167 33.166 -75.5 62.499s-29 70 -29 122c0 19.333 3.33301 40.833 10 64.5s18.5 46.5 35.5 68.5s40.833 40 71.5 54s70 21 118 21c83.333 0 145.5 -26.167 186.5 -78.5s61.5 -130.166 61.5 -233.499
c0 -51.333 -7.16699 -96.666 -21.5 -135.999s-34.333 -72.5 -60 -99.5s-55.5 -47.333 -89.5 -61s-71 -20.5 -111 -20.5c-22.667 0 -45 2.66699 -67 8s-41.333 11.666 -58 18.999s-29 13.666 -37 18.999zM265 511.999c-24.667 0 -45.167 -5.66602 -61.5 -16.999
s-28.333 -25.833 -36 -43.5s-11.5 -35.834 -11.5 -54.501c0 -36.667 9.66699 -64.167 29 -82.5s43.666 -27.5 72.999 -27.5c28.667 0 55.334 5.83301 80.001 17.5s43.667 25.5 57 41.5c-2.66699 34.667 -8.16699 63 -16.5 85s-18.5 38.833 -30.5 50.5s-25 19.667 -39 24
s-28.667 6.5 -44 6.5z" />
    <glyph glyph-name="colon" unicode=":" horiz-adv-x="238" 
d="M118 459c22 0 41 -7.83301 57 -23.5s24 -34.167 24 -55.5c0 -22 -8 -41 -24 -57s-34.667 -24 -56 -24c-22 0 -40.833 8 -56.5 24s-23.5 35 -23.5 57c0 21.333 7.83301 39.833 23.5 55.5s34.167 23.5 55.5 23.5zM118 140c22 0 41 -8 57 -24s24 -35 24 -57
c0 -20.667 -8 -39 -24 -55s-34.667 -24 -56 -24c-22 0 -40.833 8 -56.5 24s-23.5 34.667 -23.5 56s7.83301 40 23.5 56s34.167 24 55.5 24z" />
    <glyph glyph-name="semicolon" unicode=";" horiz-adv-x="232" 
d="M52 -97l7.99805 11.998l20 30c8 12 14.333 23.667 19 35c-21.333 4.66699 -36.666 13.834 -45.999 27.501s-14 28.167 -14 43.5c0 23.333 7.5 42 22.5 56s33.833 21 56.5 21c22 0 41.167 -8.16699 57.5 -24.5s24.5 -35.5 24.5 -57.5s-4.66699 -42.833 -14 -62.5
s-20.666 -37.667 -33.999 -54s-26 -30.166 -38 -41.499l-25 -24zM116.998 458.998c21.333 0 40 -7.83301 56 -23.5s24 -34.167 24 -55.5c0 -22 -8 -41 -24 -57s-34.667 -24 -56 -24c-22 0 -40.833 8 -56.5 24s-23.5 35 -23.5 57c0 21.333 7.83301 39.833 23.5 55.5
s34.5 23.5 56.5 23.5z" />
    <glyph glyph-name="less" unicode="&#x3c;" horiz-adv-x="495" 
d="M409 539l-367 -187v-83l367 -195l44 91l-278 142v5l278 137z" />
    <glyph glyph-name="equal" unicode="=" horiz-adv-x="495" 
d="M50 354v94h395v-94h-395zM50 167v95h395v-95h-395z" />
    <glyph glyph-name="greater" unicode="&#x3e;" horiz-adv-x="495" 
d="M86 539l367 -187v-83l-367 -195l-44 91l278 142v5l-278 137z" />
    <glyph glyph-name="question" unicode="?" horiz-adv-x="387" 
d="M20 564c16 12.667 40.167 23.3311 72.5 31.998s64.833 13 97.5 13c62 0 109.333 -12.833 142 -38.5s49 -62.167 49 -109.5c0 -28.667 -7.33301 -52.667 -22 -72s-39 -38 -73 -56c-24.667 -12.667 -43.334 -23 -56.001 -31s-21.167 -15 -25.5 -21s-6.5 -13.333 -6.5 -22
c0 -6 1.83301 -12.167 5.5 -18.5s9.83398 -14.166 18.501 -23.499l-64 -40c-21.333 16.667 -35.5 32.5 -42.5 47.5s-10.5 31.833 -10.5 50.5c0 16 3.16699 30.167 9.5 42.5s17.5 24.5 33.5 36.5s38.667 25.667 68 41c16 8.66699 28.333 16.334 37 23.001
s14.667 13.667 18 21s5 15.333 5 24c0 18.667 -7.33301 33.5 -22 44.5s-34.667 16.5 -60 16.5c-14 0 -28.667 -1.5 -44 -4.5s-29 -7.16699 -41 -12.5l-13 -82l-91 10zM190 139.997c21.333 0 40 -8 56 -24s24 -35 24 -57c0 -20.667 -8 -39 -24 -55s-34.667 -24 -56 -24
s-40 8 -56 24s-24 34.333 -24 55c0 22 7.83301 41 23.5 57s34.5 24 56.5 24z" />
    <glyph glyph-name="at" unicode="@" horiz-adv-x="791" 
d="M557 -78l-17.9951 -12.501c-12 -8.33301 -29.833 -16.666 -53.5 -24.999s-53.167 -12.5 -88.5 -12.5c-74 0 -136 15.333 -186 46s-87.5 71.667 -112.5 123s-37.5 108.666 -37.5 171.999c0 37.333 6.66699 75.833 20 115.5s33.833 76.334 61.5 110.001
s63.334 61 107.001 82s95.167 31.5 154.5 31.5c52.667 0 99.667 -8.5 141 -25.5s76 -40.333 104 -70s49.167 -64.167 63.5 -103.5s21.5 -81.666 21.5 -126.999s-7.83301 -83 -23.5 -113s-35.834 -52.5 -60.501 -67.5s-50.334 -22.5 -77.001 -22.5
c-21.333 0 -38.833 3.83301 -52.5 11.5s-26.167 17.5 -37.5 29.5c-4 -4 -10 -8.83301 -18 -14.5s-17.5 -10.667 -28.5 -15s-24.167 -6.5 -39.5 -6.5c-30 0 -56.833 5.83301 -80.5 17.5s-42.334 30.334 -56.001 56.001s-20.5 58.834 -20.5 99.501
c0 32.667 5.33301 60.667 16 84s24.667 42.166 42 56.499s36.333 24.833 57 31.5s41 10 61 10c17.333 0 34.166 -2.33301 50.499 -7s31.166 -10.334 44.499 -17.001s24 -13.334 32 -20.001v-230c4 -4 8.16699 -7 12.5 -9s9.5 -3 15.5 -3c9.33301 0 18.666 4.33301 27.999 13
s16.833 22.334 22.5 41.001s8.5 43.334 8.5 74.001c0 36.667 -4.33301 69.667 -13 99s-22.334 54.166 -41.001 74.499s-42.167 36 -70.5 47s-62.166 16.5 -101.499 16.5c-44 0 -83.667 -10.333 -119 -31s-63.333 -49.5 -84 -86.5s-31 -80.833 -31 -131.5
c0 -46 6.5 -85 19.5 -117s30.5 -57.833 52.5 -77.5s46.667 -33.834 74 -42.501s55 -13 83 -13c16.667 0 32.5 1.66699 47.5 5s28 7 39 11s18.833 7.33301 23.5 10zM458.005 297.999c-4.66699 2 -10.833 3.66699 -18.5 5s-14.834 2 -21.501 2c-24.667 0 -44.667 -8 -60 -24
s-23 -43 -23 -81c0 -34 6.83301 -58.5 20.5 -73.5s30.834 -22.5 51.501 -22.5c9.33301 0 17 0.833008 23 2.5s11.167 3.66699 15.5 6l12.5 6.5v179z" />
    <glyph glyph-name="A" unicode="A" horiz-adv-x="680" 
d="M6 0v101h99l151 387h-84v101h227l184 -488h90v-101h-259v101h53l-31 86h-199l-31 -86h58v-101h-258zM266 266h143l-70 209z" />
    <glyph glyph-name="B" unicode="B" horiz-adv-x="593" 
d="M41 0v101h85v387h-85v101h263c77.333 0 136.333 -13.667 177 -41s61 -66.333 61 -117c0 -29.333 -6.83301 -55.166 -20.5 -77.499s-33.167 -40.166 -58.5 -53.499c30 -8.66699 53.667 -24.834 71 -48.501s26 -53.5 26 -89.5c0 -50.667 -16.833 -90.334 -50.5 -119.001
s-83.5 -43 -149.5 -43h-319zM242 101h100c32 0 56.333 6.33301 73 19s25 31.667 25 57c0 24 -7.83301 42.167 -23.5 54.5s-38.5 18.5 -68.5 18.5h-106v-149zM242 340h107c24 0 42 6.5 54 19.5s18 31.167 18 54.5c0 49.333 -35.333 74 -106 74h-73v-148z" />
    <glyph glyph-name="C" unicode="C" horiz-adv-x="607" 
d="M446 494c-2 1.33301 -8.16797 3.3291 -18.501 5.99609s-22.833 5.33398 -37.5 8.00098s-30 4 -46 4c-58 0 -102.667 -18.667 -134 -56s-47 -90.666 -47 -159.999c0 -70 16 -124 48 -162s76.333 -57 133 -57c16.667 0 32.334 2 47.001 6s27 7.83301 37 11.5
s16 5.83398 18 6.50098l21 87l97 -22l-30 -142l-24 -11c-16 -7.33301 -38.333 -14.666 -67 -21.999s-61.667 -11 -99 -11c-60 0 -112.5 11.5 -157.5 34.5s-80.167 58 -105.5 105s-38 105.833 -38 176.5c0 65.333 12.333 121.333 37 168s59.667 82.5 105 107.5
s98 37.5 158 37.5c42 0 77.5 -4.16699 106.5 -12.5s50.833 -16.833 65.5 -25.5l22 -13l28 -141l-98 -22z" />
    <glyph glyph-name="D" unicode="D" horiz-adv-x="670" 
d="M315 589c98.667 0 175.667 -27 231 -81s83 -128.667 83 -224c0 -89.333 -27 -159 -81 -209s-129 -75 -225 -75h-282v101h85v387h-85v101h274zM305 101c66.667 0 117.167 15.333 151.5 46s51.5 76 51.5 136c0 67.333 -16.333 118.333 -49 153s-80.667 52 -144 52h-73v-387
h63z" />
    <glyph glyph-name="E" unicode="E" horiz-adv-x="609" 
d="M42 589h454l59 -177l-95 -32l-38 108h-179v-138h170v-100h-170v-149h204l37 100l94 -33l-58 -168h-479v101h85l1 387h-85v101z" />
    <glyph glyph-name="F" unicode="F" horiz-adv-x="583" 
d="M42 589h454l61 -183l-95 -32l-39 114h-181v-141h154v-101h-155v-145h127v-101h-327v101h86l1 387h-86v101z" />
    <glyph glyph-name="G" unicode="G" horiz-adv-x="626" 
d="M565 58c-21.333 -14.667 -42.5 -27.999 -63.5 -39.999s-44.167 -21.333 -69.5 -28s-55.333 -10 -90 -10c-58.667 0 -110.5 12.667 -155.5 38s-80.333 61.5 -106 108.5s-38.5 102.833 -38.5 167.5c0 63.333 12.167 118.5 36.5 165.5s59.166 83.5 104.499 109.5
s99.333 39 162 39c40 0 76.667 -5.16699 110 -15.5s62.333 -24.833 87 -43.5l30 -134l-95 -23l-23 96c-16 9.33301 -32.5 15.833 -49.5 19.5s-35.833 5.5 -56.5 5.5c-32 0 -62.167 -8.83301 -90.5 -26.5s-51.166 -42.834 -68.499 -75.501s-26 -71.667 -26 -117
s7.66699 -84 23 -116s36.333 -56.5 63 -73.5s57 -25.5 91 -25.5c24 0 44.667 2.5 62 7.5s35 11.833 53 20.5v104h-128v92h238v-245z" />
    <glyph glyph-name="H" unicode="H" horiz-adv-x="737" 
d="M42 589l258 -1v-100h-57l-1 -140h252l1 140h-58v101h258v-101h-84l-1 -387h85v-101h-257v101h56v147h-252v-147h56v-101h-257v101h85l1 387h-85v101z" />
    <glyph glyph-name="I" unicode="I" horiz-adv-x="389" 
d="M42 589h306v-101h-95v-387h95v-101h-307v101h97v387h-96v101z" />
    <glyph glyph-name="J" unicode="J" horiz-adv-x="528" 
d="M414 239c0 -54 -7.16797 -100.167 -21.501 -138.5s-36.5 -68 -66.5 -89s-69.667 -31.5 -119 -31.5c-31.333 0 -59.166 4.5 -83.499 13.5s-47.833 18.833 -70.5 29.5l-30 141l99 23l21 -98c10.667 -4.66699 20.667 -8 30 -10s18.333 -3 27 -3c31.333 0 55.333 13 72 39
s25 61 25 105l1 268h-125v101h326v-101h-85v-249z" />
    <glyph glyph-name="K" unicode="K" horiz-adv-x="692" 
d="M41 589h257v-101h-57v-146h74l108 146h-50v101h260v-101h-93l-138 -175l155 -212h100v-101h-295v101h70l-104 144h-87v-144h57v-101h-257v101h85v387h-85v101z" />
    <glyph glyph-name="L" unicode="L" horiz-adv-x="562" 
d="M41 589h314v-101h-103l-1 -387h159l36 100l96 -33l-59 -168h-442v101h96v387h-96v101z" />
    <glyph glyph-name="M" unicode="M" horiz-adv-x="869" 
d="M42 589h264l134 -365l121 365h267v-101h-85v-387h85v-101h-265v101h64v406l-40 -134l-106 -302h-85l-122 314l-40 115l-1 -399h66v-101h-258v101h85v387h-84v101z" />
    <glyph glyph-name="N" unicode="N" horiz-adv-x="740" 
d="M42 589h259l213 -423v322h-77v101h275v-101h-94v-488h-134l-253 489l1 -388h84v-101h-275v101h87v387h-86v101z" />
    <glyph glyph-name="O" unicode="O" horiz-adv-x="668" 
d="M333 609c58 0 109.002 -12.333 153.002 -37s78.333 -60.334 103 -107.001s37 -103.334 37 -170.001s-12.333 -123.5 -37 -170.5s-58.834 -82.833 -102.501 -107.5s-94.5 -37 -152.5 -37c-57.333 0 -107.833 12.333 -151.5 37s-77.834 60.5 -102.501 107.5
s-37 103.833 -37 170.5s12.167 123.334 36.5 170.001s58.333 82.334 102 107.001s94.167 37 151.5 37zM334.002 511c-56 0 -98.5 -18.333 -127.5 -55s-43.5 -90.334 -43.5 -161.001s14.5 -124.5 43.5 -161.5s71.5 -55.5 127.5 -55.5s98.667 18.5 128 55.5
s44 90.833 44 161.5s-14.5 124.334 -43.5 161.001s-71.833 55 -128.5 55z" />
    <glyph glyph-name="P" unicode="P" horiz-adv-x="560" 
d="M302 589c77.333 0 136.333 -16.332 177 -48.999s61 -80.334 61 -143.001c0 -64 -20.333 -112.833 -61 -146.5s-99.667 -50.5 -177 -50.5h-61v-99h101v-101h-301v101h84v387h-84v101h261zM301 291.001c78.667 0 118 34.333 118 103c0 62.667 -39.333 94 -118 94h-59v-197
h59z" />
    <glyph glyph-name="Q" unicode="Q" horiz-adv-x="691" 
d="M472 10c-41.333 -20 -87.335 -30 -138.002 -30c-56.667 0 -107 12.333 -151 37s-78.333 60.5 -103 107.5s-37 103.833 -37 170.5c0 67.333 12.333 124.333 37 171s58.834 82.167 102.501 106.5s93.834 36.5 150.501 36.5c58 0 109 -12.167 153 -36.5
s78.333 -59.833 103 -106.5s37 -103.667 37 -171c0 -48.667 -6.66699 -92 -20 -130s-32.333 -70.667 -57 -98l119 -69l-74 -91zM333.998 512c-56.667 0 -99.334 -18.5 -128.001 -55.5s-43 -90.833 -43 -161.5s14.333 -124.667 43 -162s71.334 -56 128.001 -56
c57.333 0 100.333 18.667 129 56s43 91.333 43 162s-14.333 124.5 -43 161.5s-71.667 55.5 -129 55.5z" />
    <glyph glyph-name="R" unicode="R" horiz-adv-x="628" 
d="M41 0v101h84v387h-84v101h265c60.667 0 108 -7.83301 142 -23.5s57.667 -38 71 -67s20 -63.167 20 -102.5c0 -64.667 -17.167 -113.167 -51.5 -145.5s-87.5 -48.5 -159.5 -48.5h-87v-101h52v-101h-252zM242 302l58.998 0.000976562c28.667 0 51.5 2.66699 68.5 8
s29.5 14.833 37.5 28.5s12 32.5 12 56.5c0 25.333 -4.66699 44.666 -14 57.999s-22.666 22.5 -39.999 27.5s-38.666 7.5 -63.999 7.5h-59v-186zM427.998 0.000976562l-116 214l108 18l79 -131h100v-101h-171z" />
    <glyph glyph-name="S" unicode="S" horiz-adv-x="559" 
d="M282 -20c-49.333 0 -91.835 3.83301 -127.502 11.5s-66.5 16.5 -92.5 26.5l-18 137l94 11l11 -73c19.333 -6.66699 39.333 -11.667 60 -15s42.334 -5 65.001 -5c25.333 0 48.666 3.16699 69.999 9.5s38.333 16 51 29s19 29.5 19 49.5c0 20.667 -6.5 38.667 -19.5 54
s-40.167 26.333 -81.5 33l-72 12c-60 10.667 -106 30.667 -138 60s-48 67.666 -48 114.999c0 38 10.333 70 31 96s48.667 45.5 84 58.5s75 19.5 119 19.5c22 0 43.667 -1.33301 65 -4s42 -6.66699 62 -12s40 -12.333 60 -21l19 -147l-101 -11l-13 90
c-13.333 4.66699 -28.166 8.33398 -44.499 11.001s-33.5 4 -51.5 4c-39.333 0 -70.166 -6.83301 -92.499 -20.5s-33.5 -32.167 -33.5 -55.5s8.16699 -41.5 24.5 -54.5s43.166 -22.833 80.499 -29.5l75 -12c64.667 -10 110.667 -29.5 138 -58.5s41 -66.5 41 -112.5
c0 -38.667 -7.16699 -70.667 -21.5 -96s-33.166 -45.333 -56.499 -60s-49 -25 -77 -31s-55 -9 -81 -9z" />
    <glyph glyph-name="T" unicode="T" horiz-adv-x="600" 
d="M30 589h533v-200h-103v99h-105l-1 -387h85v-101h-287v101h85l1 387h-105v-99h-103v200z" />
    <glyph glyph-name="U" unicode="U" horiz-adv-x="688" 
d="M574 213c0 -74.667 -19.1689 -132.167 -57.502 -172.5s-95.833 -60.5 -172.5 -60.5c-77.333 0 -135.166 20.167 -173.499 60.5s-57.5 97.833 -57.5 172.5v275h-85v101h259v-101h-58v-295c0 -42 10 -72 30 -90s48.333 -27 85 -27s64.834 10 84.501 30s29.5 52.333 29.5 97
v285h-57v101h259v-101h-86v-275z" />
    <glyph glyph-name="V" unicode="V" horiz-adv-x="667" 
d="M6 589h271v-101h-63l92 -235l39 -134l39 133l87 236h-67v101h257v-101h-75l-181 -488h-121l-196 488h-82v101z" />
    <glyph glyph-name="W" unicode="W" horiz-adv-x="933" 
d="M5 589h271v-101h-55l60 -236l31 -132l25 130l72 265h141l70 -263l25 -132l28 132l61 236h-62v101h256v-101h-72l-155 -488h-134l-60 265l-29 128l-32 -125l-68 -268h-133l-154 488h-86v101z" />
    <glyph glyph-name="X" unicode="X" horiz-adv-x="699" 
d="M26 0v99h100l153 193l-162 196h-83v101h269v-101h-58l102 -123l103 123h-55v101h263v-101h-90l-153 -195l157 -194h105v-99h-289v99h59l-100 121l-101 -121h50v-99h-270z" />
    <glyph glyph-name="Y" unicode="Y" horiz-adv-x="663" 
d="M6 589h272v-101h-65l126 -170l125 170h-66v101h259v-101h-72l-193 -250v-138h94v-100h-303v100h95v137l-194 251h-78v101z" />
    <glyph glyph-name="Z" unicode="Z" horiz-adv-x="567" 
d="M62 589h446v-73l-309 -415h205l35 96l96 -32l-56 -165h-432v80l304 408h-201l-19 -88l-99 14z" />
    <glyph glyph-name="bracketleft" unicode="[" horiz-adv-x="254" 
d="M56 663h197v-92h-88v-614h88v-92h-197v798z" />
    <glyph glyph-name="backslash" unicode="\" horiz-adv-x="390" 
d="M-26 589h113l329 -719h-114z" />
    <glyph glyph-name="bracketright" unicode="]" horiz-adv-x="254" 
d="M2 663h196v-798h-196v92h88v614h-88v92z" />
    <glyph glyph-name="asciicircum" unicode="^" horiz-adv-x="495" 
d="M293 718l189 -285l-79 -60l-146 226h-6l-146 -226l-79 60l189 285h78z" />
    <glyph glyph-name="underscore" unicode="_" horiz-adv-x="623" 
d="M64 -16h495v-98h-495v98z" />
    <glyph glyph-name="grave" unicode="`" horiz-adv-x="295" 
d="M202 509l-159 183l78 57l129 -207z" />
    <glyph glyph-name="a" unicode="a" horiz-adv-x="551" 
d="M370 20c-46.667 -26 -94.332 -39 -142.999 -39c-62 0 -109.167 12 -141.5 36s-48.5 59 -48.5 105c-0.666992 92.667 60.333 139 183 139h112c0 40.667 -8.33301 70.5 -25 89.5s-38.334 28.5 -65.001 28.5c-14.667 0 -28.5 -1 -41.5 -3s-25.833 -5 -38.5 -9l-9 -49l-94 13
l18 106c26.667 9.33301 53.834 16.5 81.501 21.5s56.5 7.5 86.5 7.5c65.333 0 115.166 -17.167 149.499 -51.5s51.5 -84.833 51.5 -151.5v-166l84 -27l-31 -94zM223.002 187c-22.667 0 -40.001 -5.66699 -52.001 -17s-18 -27 -18 -47c0 -38 26 -57 78 -57
c36.667 0 70.334 9.66699 101.001 29v91z" />
    <glyph glyph-name="b" unicode="b" horiz-adv-x="548" 
d="M272 -19c-39.333 0 -76.5 4.66699 -111.5 14s-66.833 23.333 -95.5 42v505l-99 34l33 96l179 -62v-174c34 20 70.333 30 109 30c73.333 0 128.333 -19.833 165 -59.5s55 -99.167 55 -178.5c0 -82 -19.667 -143.667 -59 -185s-98 -62 -176 -62zM271 72
c40 0 69.999 13 89.999 39s30 65 30 117c0 48.667 -8.66699 85 -26 109s-43.666 36 -78.999 36c-42.667 0 -78.667 -11 -108 -33v-251c25.333 -11.333 56.333 -17 93 -17z" />
    <glyph glyph-name="c" unicode="c" horiz-adv-x="497" 
d="M350 369c-12 4 -23.499 6.66699 -34.499 8s-22.167 2 -33.5 2c-40.667 0 -72 -13.333 -94 -40s-33 -66.334 -33 -119.001c0 -46 12 -82 36 -108s53.333 -39 88 -39c22 0 44.667 4.16699 68 12.5s46.333 20.5 69 36.5l46 -68c-19.333 -14.667 -38.333 -27.5 -57 -38.5
s-38.334 -19.5 -59.001 -25.5s-44 -9 -70 -9c-48 0 -89.833 9.16699 -125.5 27.5s-63.167 45.333 -82.5 81s-29 79.167 -29 130.5c0 54 9.66699 99.333 29 136s47 64.334 83 83.001s79.333 28 130 28c26 0 51.833 -2.5 77.5 -7.5s51.167 -12.167 76.5 -21.5l25 -129l-96 -21
z" />
    <glyph glyph-name="d" unicode="d" horiz-adv-x="588" 
d="M537 -24l-127.999 44c-38.667 -26 -83 -39 -133 -39c-74.667 0 -132.667 21.667 -174 65s-62 104 -62 182c0 74.667 20.667 133 62 175s99.333 63 174 63c14 0 29.167 -1.5 45.5 -4.5s32.166 -7.16699 47.499 -12.5v93l-99 34l32 96l180 -62v-508l86 -29zM277.001 72
c14 0 29.5 2.33398 46.5 7.00098s32.167 11 45.5 19v256c-12 5.33301 -26.5 9.83301 -43.5 13.5s-33.167 5.5 -48.5 5.5c-36.667 0 -66.167 -13.167 -88.5 -39.5s-33.5 -61.5 -33.5 -105.5c0 -46.667 11.167 -84.334 33.5 -113.001s51.833 -43 88.5 -43z" />
    <glyph glyph-name="e" unicode="e" horiz-adv-x="521" 
d="M474 55c-30 -25.333 -60.667 -43.9951 -92 -55.9951s-63.666 -18 -96.999 -18c-50 0 -93.833 10.167 -131.5 30.5s-66.834 48.666 -87.501 84.999s-31 78.166 -31 125.499c0 49.333 9.83301 92.166 29.5 128.499s46.834 64.666 81.501 84.999s75 30.5 121 30.5
s86 -9.33301 120 -28s60.333 -44.834 79 -78.501s28 -73.167 28 -118.5c0 -8 -0.5 -17 -1.5 -27s-2.16699 -19.667 -3.5 -29h-344c2 -26 9.66699 -47.5 23 -64.5s30.166 -29.5 50.499 -37.5s42.5 -12 66.5 -12c28 0 54.667 4.5 80 13.5s48.333 21.833 69 38.5zM381 263.005
c-0.666992 33.333 -10.832 60.166 -30.499 80.499s-46.5 30.5 -80.5 30.5c-32 0 -59.833 -10.167 -83.5 -30.5s-36.834 -47.166 -39.501 -80.499h234z" />
    <glyph glyph-name="f" unicode="f" horiz-adv-x="392" 
d="M128 490c0 60.667 15.668 106.832 47.001 138.499s77.666 47.5 138.999 47.5c28 0 54 -3.5 78 -10.5s44.333 -17.5 61 -31.5l-39 -79c-30 18.667 -59.333 28 -88 28c-27.333 0 -48.833 -7.66699 -64.5 -23s-23.5 -39.666 -23.5 -72.999v-40h124v-90h-124v-266h90v-91
h-284v91h84v266h-84v90h84v43z" />
    <glyph glyph-name="g" unicode="g" horiz-adv-x="574" 
d="M246 115c-67.333 0 -119.832 14.5 -157.499 43.5s-56.5 70.167 -56.5 123.5c0 56.667 19.5 101.5 58.5 134.5s91.167 49.5 156.5 49.5c25.333 0 47.666 -2 66.999 -6s38 -11 56 -21l151 53l35 -99l-122 -19c11.333 -12 19 -26 23 -42s6 -31 6 -45
c0 -40.667 -9.83301 -73.667 -29.5 -99s-46 -43.833 -79 -55.5s-69.167 -17.5 -108.5 -17.5zM254.001 -241c-36.667 0 -69.998 2.83301 -99.998 8.5s-56 12.667 -78 21s-39.333 15.5 -52 21.5l41 89c31.333 -13.333 62.333 -23.833 93 -31.5s62.667 -11.5 96 -11.5
c30 0 53.833 2.5 71.5 7.5s30.167 11.667 37.5 20s11 17.166 11 26.499c0 14 -5.33301 25.333 -16 34s-32.334 13 -65.001 13h-157v195l90 -20v-81h81c59.333 0 103.666 -12.167 132.999 -36.5s44 -58.833 44 -103.5c0 -36 -10.333 -65.167 -31 -87.5
s-48.5 -38.666 -83.5 -48.999s-73.5 -15.5 -115.5 -15.5zM248.003 200c34 0 60.667 8.16699 80 24.5s29 37.5 29 63.5c0 30 -9.5 52.833 -28.5 68.5s-45.833 23.5 -80.5 23.5s-61.5 -7.83301 -80.5 -23.5s-28.5 -38.5 -28.5 -68.5c0 -26 9.66699 -47.167 29 -63.5
s46 -24.5 80 -24.5z" />
    <glyph glyph-name="h" unicode="h" horiz-adv-x="638" 
d="M22 0v90.999h83v457l-95 32l30 91l179 -61v-182c42 25.333 90 38 144 38s95.333 -15.667 124 -47s43 -76.666 43 -135.999v-192h84v-91h-240v91h42v176c0 36 -7 62.167 -21 78.5s-36.333 24.5 -67 24.5c-15.333 0 -33 -2.33301 -53 -7s-38.333 -11 -55 -19v-253h41v-91
h-239z" />
    <glyph glyph-name="i" unicode="i" horiz-adv-x="345" 
d="M40 447h198v-356h83v-91h-281v91h83v266h-83v90zM170 664c20.667 0 37.334 -6.33301 50.001 -19s19 -29.334 19 -50.001s-6.33301 -37.334 -19 -50.001s-29.334 -19 -50.001 -19s-37.167 6.33301 -49.5 19s-18.5 29.334 -18.5 50.001s6.16699 37.334 18.5 50.001
s28.833 19 49.5 19z" />
    <glyph glyph-name="j" unicode="j" horiz-adv-x="281" 
d="M222 -35c0 -22.667 -1.16699 -46 -3.5 -70s-9 -46.333 -20 -67s-29.5 -37.334 -55.5 -50.001s-62.667 -19 -110 -19c-14 0 -27.667 1.16699 -41 3.5s-24.666 4.5 -33.999 6.5l12 89c8 -1.33301 17.5 -2.33301 28.5 -3s19.833 -1 26.5 -1c21.333 0 37.666 3 48.999 9
s19.5 13.833 24.5 23.5s7.83301 20.334 8.5 32.001s1 23.167 1 34.5v404h-84v90h198v-482zM157 664c20.667 0 37.334 -6.33301 50.001 -19s19 -29.334 19 -50.001s-6.33301 -37.334 -19 -50.001s-29.334 -19 -50.001 -19s-37.167 6.33301 -49.5 19
s-18.5 29.334 -18.5 50.001s6.16699 37.334 18.5 50.001s28.833 19 49.5 19z" />
    <glyph glyph-name="k" unicode="k" horiz-adv-x="586" 
d="M43 672l179 -61v-344h73l53 90h-51v90h241v-90h-76l-86 -132l90 -134h83v-91h-140l-111 177h-76v-86h34v-91h-232v91h84v457l-95 32z" />
    <glyph glyph-name="l" unicode="l" horiz-adv-x="335" 
d="M29 0v91h84v460l-96 29l28 92l182 -57v-524h84v-91h-282z" />
    <glyph glyph-name="m" unicode="m" horiz-adv-x="923" 
d="M45 0l-0.00195312 90.998h83v246l-95 30l30 92l142 -46c20.667 17.333 43.834 30.5 69.501 39.5s51.5 13.5 77.5 13.5c27.333 0 52.833 -4.66699 76.5 -14s42.834 -23.333 57.501 -42c20 16 42.833 29.333 68.5 40s52.5 16 80.5 16c62.667 0 108 -15 136 -45
s42 -80 42 -150v-180h85v-91h-238v91h39v174c0 37.333 -6 63.833 -18 79.5s-32.667 23.5 -62 23.5c-15.333 0 -31.5 -3.16699 -48.5 -9.5s-31.167 -14.166 -42.5 -23.499v-244h39v-91h-193v91h40v174c0 37.333 -6 63.833 -18 79.5s-32.667 23.5 -62 23.5
c-15.333 0 -31.5 -3.16699 -48.5 -9.5s-31.5 -14.166 -43.5 -23.499v-244h41v-91h-238z" />
    <glyph glyph-name="n" unicode="n" horiz-adv-x="661" 
d="M45 0l-0.000976562 91h85v243l-96 33l29 91l139 -48c26 17.333 52.333 31 79 41s58.334 15 95.001 15c41.333 0 74.833 -8 100.5 -24s44.667 -38.167 57 -66.5s18.5 -60.5 18.5 -96.5v-188h83v-91h-238v91h42v173c0 32 -7 57.167 -21 75.5s-37 27.5 -69 27.5
c-19.333 0 -38.5 -3.33301 -57.5 -10s-35.167 -14.667 -48.5 -24v-242h41v-91h-239z" />
    <glyph glyph-name="o" unicode="o" horiz-adv-x="555" 
d="M276 466c50 0 92.668 -9.66602 128.001 -28.999s62.333 -47.166 81 -83.499s28 -79.833 28 -130.5c0 -76 -20.833 -135.333 -62.5 -178s-99.834 -64 -174.501 -64c-48.667 0 -90.5 9.66699 -125.5 29s-61.667 47.166 -80 83.499s-27.5 79.5 -27.5 129.5
c0 50.667 9.16699 94.167 27.5 130.5s45 64.166 80 83.499s76.833 29 125.5 29zM276.001 373.001c-40 0 -70.167 -12.833 -90.5 -38.5s-30.5 -62.834 -30.5 -111.501s10.167 -86 30.5 -112s50.5 -39 90.5 -39c41.333 0 72.333 13 93 39s31 63.333 31 112
s-10.333 85.834 -31 111.501s-51.667 38.5 -93 38.5z" />
    <glyph glyph-name="p" unicode="p" horiz-adv-x="596" 
d="M31 -220l-0.000976562 89.999h84v470l-95 32l30 92l141 -48c22 15.333 45.5 27.5 70.5 36.5s48.833 13.5 71.5 13.5c70 0 124.833 -21.167 164.5 -63.5s59.5 -100.5 59.5 -174.5c0 -50 -9.66699 -93.667 -29 -131s-46.666 -66.166 -81.999 -86.499s-77 -30.5 -125 -30.5
c-34 0 -64.667 4 -92 12v-122h84v-90h-282zM319.999 70.999c38 0 67.502 13.666 88.502 40.999s31.5 65.666 31.5 114.999c0 46.667 -9.66699 82.667 -29 108s-47.333 38 -84 38c-18.667 0 -36.834 -3.16699 -54.501 -9.5s-32.834 -15.166 -45.501 -26.499v-248
c11.333 -5.33301 25.333 -9.66602 42 -12.999s33.667 -5 51 -5z" />
    <glyph glyph-name="q" unicode="q" horiz-adv-x="548" 
d="M272 -220v90h97v135c-14 -8 -30.333 -14 -49 -18s-37 -6 -55 -6c-70.667 0 -125.834 22.167 -165.501 66.5s-59.5 105.833 -59.5 184.5c0 74 21.833 131.5 65.5 172.5s103.834 61.5 180.501 61.5c32 0 65.333 -4.83301 100 -14.5s67 -23.5 97 -41.5v-540h71v-90h-282z
M273 72c15.333 0 31.8311 2.00098 49.498 6.00098s33.167 9.33301 46.5 16v254c-11.333 7.33301 -25.166 13.333 -41.499 18s-34.166 7 -53.499 7c-35.333 0 -64 -12.833 -86 -38.5s-33 -59.834 -33 -102.501c0 -47.333 11 -85.833 33 -115.5s50.333 -44.5 85 -44.5z" />
    <glyph glyph-name="r" unicode="r" horiz-adv-x="472" 
d="M211 409c27.333 18.667 54.168 32.5 80.501 41.5s52.166 13.5 77.499 13.5s49 -4.33301 71 -13l17 -124l-94 -20l-10 54c-22 -2 -42.5 -6 -61.5 -12s-35.167 -14 -48.5 -24l-1 -234h98v-91h-295v91h84v244l-96 32l30 91z" />
    <glyph glyph-name="s" unicode="s" horiz-adv-x="465" 
d="M312 370c-12 4 -24.1699 7.16699 -36.5029 9.5s-25.5 3.5 -39.5 3.5c-23.333 0 -44.166 -4.33301 -62.499 -13s-27.5 -22 -27.5 -40c0 -15.333 5.33301 -27.666 16 -36.999s31.334 -16 62.001 -20l60 -9c52 -6.66699 89.667 -21 113 -43s35 -52 35 -90
c0 -34 -9 -62.167 -27 -84.5s-41.833 -38.833 -71.5 -49.5s-62.167 -16 -97.5 -16c-37.333 0 -70.833 3.83301 -100.5 11.5s-56.834 18.834 -81.501 33.501l-18 104l95 17l11 -55c14 -6.66699 28.333 -11.667 43 -15s29.667 -5 45 -5c27.333 0 51 4.66699 71 14
s30 23.333 30 42c0 14 -5 25.333 -15 34s-30 14.667 -60 18l-57 9c-48 7.33301 -85.667 22.333 -113 45s-41 52.667 -41 90c0 29.333 8 54.666 24 75.999s38.333 37.666 67 48.999s61.334 17 98.001 17c31.333 0 60.333 -3.5 87 -10.5s51.334 -18.5 74.001 -34.5l18 -96
l-85 -16z" />
    <glyph glyph-name="t" unicode="t" horiz-adv-x="401" 
d="M272 -19c-32.667 0 -61.168 6.33203 -85.501 18.999s-43.166 32.334 -56.499 59.001s-20 61 -20 103v195h-83v90h83v86l110 33v-119h121v-90h-121v-163c0 -38 5.16699 -67.667 15.5 -89s27.5 -32 51.5 -32c18.667 0 41 6.66699 67 20l21 -84
c-15.333 -7.33301 -31.833 -13.833 -49.5 -19.5s-35.5 -8.5 -53.5 -8.5z" />
    <glyph glyph-name="u" unicode="u" horiz-adv-x="636" 
d="M448 24c-22 -12.667 -46.333 -22.999 -73 -30.999s-51.667 -12 -75 -12c-68 0 -117.833 15 -149.5 45s-47.5 76.667 -47.5 140v191h-79v90h193v-264c0 -36 6.83301 -62 20.5 -78s35.834 -24 66.501 -24c15.333 0 33.166 2.66699 53.499 8s38.833 11.666 55.5 18.999v249
h-79v90h193v-340l88 -30l-31 -98z" />
    <glyph glyph-name="v" unicode="v" horiz-adv-x="595" 
d="M4 447h244v-90h-54l69 -165l36 -93l36 93l70 165h-54v90h239v-90h-67l-162 -357h-125l-158 357h-73z" />
    <glyph glyph-name="w" unicode="w" horiz-adv-x="791" 
d="M188 0l-118 357h-65v90h241v-90h-57l41 -154l29 -107l27 107l55 179h114l56 -181l27 -106l27 105l47 157h-61v90h235v-90h-64l-129 -357h-120l-76 261l-84 -261h-125z" />
    <glyph glyph-name="x" unicode="x" horiz-adv-x="620" 
d="M32 0v91h86l123 138l-129 128h-80v90h247v-90h-36l72 -77l69 77h-37v90h230v-90h-76l-119 -136l133 -130h79v-91h-249v91h43l-80 80l-73 -80h40v-91h-243z" />
    <glyph glyph-name="y" unicode="y" horiz-adv-x="597" 
d="M150 -242c-13.333 0 -27.3301 1.5 -41.9971 4.5s-30 7.83301 -46 14.5l21 88c12 -4.66699 22.833 -8.16699 32.5 -10.5s20.167 -3.5 31.5 -3.5c16 0 29.5 3.83301 40.5 11.5s21.667 21 32 40s22.166 45.5 35.499 79.5l149 375h-52l5 90h235v-90h-77l-184 -433
c-24.667 -58.667 -51.334 -101 -80.001 -127s-62.334 -39 -101.001 -39zM276.003 -66l-198 423h-73v90h244v-90h-55l135 -319z" />
    <glyph glyph-name="z" unicode="z" horiz-adv-x="497" 
d="M50 0v77l249 280h-153l-12 -58l-100 20l25 128h376v-74l-252 -282h169l12 62l101 -19l-27 -134h-388z" />
    <glyph glyph-name="braceleft" unicode="{" horiz-adv-x="261" 
d="M45 298c8 0 13.833 3.49902 17.5 10.499s6.16699 16.333 7.5 28s2 24.834 2 39.501v90c0 34 5.5 64.5 16.5 91.5s29.5 48.833 55.5 65.5s60.667 26.334 104 29.001l13 -96c-24.667 -2.66699 -43.5 -8.33398 -56.5 -17.001s-21.833 -20.334 -26.5 -35.001
s-7 -32.667 -7 -54v-108c0 -24 -6 -42.667 -18 -56s-26.333 -23.666 -43 -30.999c16.667 -6.66699 31 -17 43 -31s18 -32.667 18 -56v-105c0 -21.333 2.33301 -39.333 7 -54s13.5 -26.334 26.5 -35.001s31.833 -14.667 56.5 -18l-13 -96c-43.333 3.33301 -78 13.333 -104 30
s-44.5 38.5 -55.5 65.5s-16.5 57.5 -16.5 91.5v87c0 18.667 -0.666992 33.834 -2 45.501s-3.83301 20.167 -7.5 25.5s-9.5 8 -17.5 8h-54v85h54z" />
    <glyph glyph-name="bar" unicode="|" horiz-adv-x="319" 
d="M106 653h107v-874h-107v874z" />
    <glyph glyph-name="braceright" unicode="}" horiz-adv-x="261" 
d="M216 213c-6.66699 0 -12 -2.66602 -16 -7.99902s-6.83301 -13.833 -8.5 -25.5s-2.5 -26.834 -2.5 -45.501v-87c0 -34 -5.5 -64.5 -16.5 -91.5s-29.333 -48.833 -55 -65.5s-60.5 -26.667 -104.5 -30l-13 96c25.333 3.33301 44.5 9.33301 57.5 18s21.667 20.334 26 35.001
s6.5 32.667 6.5 54v105c0 23.333 6 42 18 56s26.667 24.333 44 31c-17.333 7.33301 -32 17.666 -44 30.999s-18 32 -18 56v108c0 21.333 -2.16699 39.333 -6.5 54s-13 26.334 -26 35.001s-32.167 14.334 -57.5 17.001l13 96c44 -2.66699 78.833 -12.334 104.5 -29.001
s44 -38.5 55 -65.5s16.5 -57.5 16.5 -91.5v-90c0 -14.667 0.666992 -27.834 2 -39.501s4 -21 8 -28s9.66699 -10.5 17 -10.5h55v-85h-55z" />
    <glyph glyph-name="asciitilde" unicode="~" horiz-adv-x="495" 
d="M106 228l-59.999 61.999c18.667 19.333 38.667 36.833 60 52.5s45.666 23.5 72.999 23.5c18 0 36.167 -4 54.5 -12s35.5 -16 51.5 -24s30 -12 42 -12c9.33301 0 19.333 2.83301 30 8.5s23.667 16.5 39 32.5l53 -57c-17.333 -17.333 -32.833 -31.666 -46.5 -42.999
s-27 -19.833 -40 -25.5s-27.5 -8.5 -43.5 -8.5c-11.333 0 -24.833 3.83301 -40.5 11.5l-48 22.5c-16.333 7.33301 -31.833 11 -46.5 11c-11.333 0 -23 -3.5 -35 -10.5s-26.333 -17.5 -43 -31.5z" />
    <glyph glyph-name="uni00A0" unicode="&#xa0;" horiz-adv-x="239" 
 />
    <glyph glyph-name="exclamdown" unicode="&#xa1;" horiz-adv-x="241" 
d="M77 231h86l23 -421h-130zM120 448c21.333 0 40 -7.83301 56 -23.5s24 -34.5 24 -56.5c0 -21.333 -8 -40 -24 -56s-34.667 -24 -56 -24c-22 0 -40.667 8 -56 24s-23 34.667 -23 56c0 22 7.66699 40.833 23 56.5s34 23.5 56 23.5z" />
    <glyph glyph-name="cent" unicode="&#xa2;" horiz-adv-x="470" 
d="M330 432c-2 1.33301 -6.33398 3.16602 -13.001 5.49902s-14.334 3.5 -23.001 3.5v-297c17.333 4 36 10.167 56 18.5s37 17.5 51 27.5l47 -68c-27.333 -20.667 -54.166 -36.667 -80.499 -48s-50.833 -18.666 -73.5 -21.999v-77h-83v79
c-58.667 9.33301 -104.334 34.5 -137.001 75.5s-49 93.833 -49 158.5c0 66 16.333 120.333 49 163s78.334 68.667 137.001 78v85h83v-82c24 -1.33301 47.333 -4.33301 70 -9s39.334 -10 50.001 -16l26 -129l-95 -21zM210.999 436c-51.333 -18.667 -77 -68 -77 -148
c0 -76.667 25.667 -123.667 77 -141v289z" />
    <glyph glyph-name="sterling" unicode="&#xa3;" horiz-adv-x="560" 
d="M230 303c6.66699 -31.333 9.66699 -58.499 9 -81.499s-6.66699 -45 -18 -66s-30.333 -44.833 -57 -71.5l2 -3c15.333 9.33301 30 15.5 44 18.5s28 4.5 42 4.5c16.667 0 32.5 -2.5 47.5 -7.5l44.5 -15c14.667 -5 29.667 -7.5 45 -7.5c18 0 34.5 3.16699 49.5 9.5
s31.167 16.5 48.5 30.5l49 -77c-25.333 -20 -50.166 -34.5 -74.499 -43.5s-48.833 -13.5 -73.5 -13.5c-23.333 0 -43.166 2 -59.499 6s-31 8.5 -44 13.5s-26.5 9.5 -40.5 13.5s-30.333 6 -49 6c-18 0 -36.667 -3.33301 -56 -10s-40.666 -17.334 -63.999 -32.001l-51 70
c33.333 24 59.333 47.833 78 71.5s30.667 50 36 79s4 62.167 -4 99.5c-14.667 72.667 -17.334 132.167 -8.00098 178.5s30.666 80.333 63.999 102s77.666 32.5 132.999 32.5c20.667 0 40.167 -1.5 58.5 -4.5s36.666 -7.66699 54.999 -14s37.833 -14.833 58.5 -25.5l25 -142
l-80 -14l-20 100c-13.333 8 -28 13.667 -44 17s-34.333 5 -55 5c-31.333 0 -55.666 -8 -72.999 -24s-27.333 -40.833 -30 -74.5s1.33301 -77.167 12 -130.5zM389 329.001v-73h-340v73h340z" />
    <glyph glyph-name="currency" unicode="&#xa4;" horiz-adv-x="519" 
d="M93 86l-53 78.0029l64 42c-16.667 27.333 -24.667 57.166 -24 89.499s9 62.166 25 89.499l-64 44l52 79l83 -58c25.333 12.667 52.833 19.167 82.5 19.5s57.167 -5.83398 82.5 -18.501l82 56l53 -77l-62 -43c12 -18.667 20 -38.667 24 -60s4.16699 -42.5 0.5 -63.5
s-11.167 -40.5 -22.5 -58.5l61 -40l-53 -78l-81 53c-25.333 -12.667 -53.833 -18.667 -85.5 -18s-59.167 7 -82.5 19zM260 202.003c25.333 0 46.833 9.16699 64.5 27.5s26.5 40.166 26.5 65.499s-8.83301 47.166 -26.5 65.499s-39.167 27.5 -64.5 27.5
s-47 -9.16699 -65 -27.5s-27 -40.166 -27 -65.499s9 -47.166 27 -65.499s39.667 -27.5 65 -27.5z" />
    <glyph glyph-name="yen" unicode="&#xa5;" horiz-adv-x="672" 
d="M187 0v100h95v36h-146v64h146v33h-146v64h112l-159 191h-78v101h272v-101h-58l119 -165l112 165h-53v101h258v-101h-86l-147 -191h115v-64h-146v-33h146v-64h-146l-1 -36h94v-100h-303z" />
    <glyph glyph-name="brokenbar" unicode="&#xa6;" horiz-adv-x="318" 
d="M106 671h106v-378h-106v378zM106 151h106v-371h-106v371z" />
    <glyph glyph-name="section" unicode="&#xa7;" horiz-adv-x="523" 
d="M268 210c56.667 -20 99.3311 -44.166 127.998 -72.499s43 -60.833 43 -97.5c0 -28.667 -8.5 -53.667 -25.5 -75s-39.833 -38 -68.5 -50s-61 -18 -97 -18c-33.333 0 -64.166 4.66699 -92.499 14s-53.166 23 -74.499 41l-18 97l91 17l13 -60c10 -7.33301 21.5 -13 34.5 -17
s27.5 -6 43.5 -6c30 0 52.833 5.33301 68.5 16s23.5 26 23.5 46c0 18 -10.833 34.833 -32.5 50.5s-53.167 29.834 -94.5 42.501c-42 14 -74.333 32.833 -97 56.5s-34 51.167 -34 82.5c0 26.667 8 50.167 24 70.5s38.333 35.833 67 46.5l48 -31
c-18.667 -8.66699 -31.667 -18.334 -39 -29.001s-11 -23.334 -11 -38.001c0 -17.333 8.33301 -33 25 -47s41.667 -27 75 -39zM283.997 158.001c42 25.333 63.0029 53.667 63.0029 85c0 22.667 -8.5 42.667 -25.5 60s-43.833 31.333 -80.5 42
c-46.667 13.333 -82.334 32.333 -107.001 57s-37 53.334 -37 86.001c0 28 7.33301 52.167 22 72.5s35 36.166 61 47.499s55.333 17 88 17c30.667 0 60 -4.33301 88 -13s53 -21 75 -37l15 -100l-86 -15l-12 68c-22.667 12 -47.334 18 -74.001 18
s-47.334 -4.33301 -62.001 -13s-22 -22 -22 -40c0 -14 8.66699 -27.667 26 -41s44 -26 80 -38c48 -16 84.833 -37.5 110.5 -64.5s38.5 -58.167 38.5 -93.5c0 -50 -29.667 -93.333 -89 -130z" />
    <glyph glyph-name="dieresis" unicode="&#xa8;" horiz-adv-x="453" 
d="M322 660c18 0 33.833 -6.83301 47.5 -20.5s20.5 -29.834 20.5 -48.501s-6.83301 -34.667 -20.5 -48s-29.5 -20 -47.5 -20c-19.333 0 -35.666 6.66699 -48.999 20s-20 29.333 -20 48s6.66699 34.834 20 48.501s29.666 20.5 48.999 20.5zM131 660
c18 0 33.833 -6.83301 47.5 -20.5s20.5 -29.834 20.5 -48.501s-6.83301 -34.667 -20.5 -48s-29.5 -20 -47.5 -20c-18.667 0 -34.834 6.66699 -48.501 20s-20.5 29.333 -20.5 48s6.83301 34.834 20.5 48.501s29.834 20.5 48.501 20.5z" />
    <glyph glyph-name="copyright" unicode="&#xa9;" horiz-adv-x="868" 
d="M436 670c54 0 103.833 -9.33301 149.5 -28s85.167 -44.834 118.5 -78.501s59.166 -73.334 77.499 -119.001s27.5 -96.167 27.5 -151.5c0 -54 -9.16699 -103.667 -27.5 -149s-44.166 -84.833 -77.499 -118.5s-72.833 -59.834 -118.5 -78.501s-95.5 -28 -149.5 -28
c-54.667 0 -105 9.33301 -151 28s-86 44.834 -120 78.501s-60.333 73.167 -79 118.5s-28 95 -28 149c0 55.333 9.33301 105.833 28 151.5s45 85.334 79 119.001s74 59.834 120 78.501s96.333 28 151 28zM505 422c-7.33301 2 -15.333 4 -24 6s-20.334 3 -35.001 3
c-38 0 -66.667 -11.667 -86 -35s-29 -56 -29 -98s10 -75.5 30 -100.5s48.333 -37.5 85 -37.5c10.667 0 21.5 1.16699 32.5 3.5s20.167 4.5 27.5 6.5l17 62l76 -23l-24 -95l-16.5 -7.5c-11 -5 -26.333 -10 -46 -15s-42.167 -7.5 -67.5 -7.5c-61.333 0 -111 17.667 -149 53
s-57 89 -57 161c0 66.667 18.667 118 56 154s87 54 149 54c28 0 51.833 -3 71.5 -9s34.834 -12.167 45.501 -18.5l16 -9.5l20 -93l-72 -21zM432 585c-56.667 0 -106.334 -13.333 -149.001 -40s-75.834 -62.334 -99.501 -107.001s-35.5 -94.667 -35.5 -150
c0 -52.667 11.833 -100.5 35.5 -143.5s56.834 -77.167 99.501 -102.5s92.334 -38 149.001 -38c56 0 105.667 12.667 149 38s77.333 59.5 102 102.5s37 90.833 37 143.5c0 55.333 -12.333 105.333 -37 150s-58.667 80.334 -102 107.001s-93 40 -149 40z" />
    <glyph glyph-name="ordfeminine" unicode="&#xaa;" horiz-adv-x="394" 
d="M345 147l-80.0029 27.999c-16 -8.66699 -31.667 -15.5 -47 -20.5s-31.333 -7.5 -48 -7.5c-39.333 0 -70.333 9 -93 27s-34 41.667 -34 71c0 30.667 10.333 53.334 31 68.001s51.334 22 92.001 22h69c0 24 -4.33301 41.5 -13 52.5s-23.334 16.5 -44.001 16.5
c-9.33301 0 -17.666 -0.666992 -24.999 -2s-14.666 -3 -21.999 -5l-7 -33l-68 13l13 67c14 5.33301 30.833 10.333 50.5 15s38.834 7 57.501 7c26 0 48 -2.83301 66 -8.5s32.167 -14.167 42.5 -25.5s17.833 -25 22.5 -41s7 -34 7 -54v-106l52 -18zM172.997 210.999
c13.333 0 25.332 2.66699 35.999 8s19.334 10 26.001 14v44h-68c-12.667 0 -22.667 -2.5 -30 -7.5s-11 -13.167 -11 -24.5c0 -9.33301 4.5 -17.333 13.5 -24s20.167 -10 33.5 -10z" />
    <glyph glyph-name="guillemotleft" unicode="&#xab;" horiz-adv-x="348" 
d="M149 446l74 -52l-120 -177l120 -176l-74 -52l-155 229zM273 366l67 -53l-60 -97l60 -94l-67 -53l-89 149z" />
    <glyph glyph-name="logicalnot" unicode="&#xac;" horiz-adv-x="495" 
d="M50 354h395v-243h-114v148h-281v95z" />
    <glyph glyph-name="uni00AD" unicode="&#xad;" horiz-adv-x="388" 
d="M46 328h296v-104h-296v104z" />
    <glyph glyph-name="registered" unicode="&#xae;" horiz-adv-x="678" 
d="M339 61c-52.667 0 -99.832 12 -141.499 36s-74.5 56.667 -98.5 98s-36 88.333 -36 141s12 99.834 36 141.501s56.667 74.5 98 98.5s88.666 36 141.999 36s100.666 -12 141.999 -36s73.833 -56.833 97.5 -98.5s35.5 -88.834 35.5 -141.501s-11.833 -99.667 -35.5 -141
s-56.167 -74 -97.5 -98s-88.666 -36 -141.999 -36zM338.002 130c40 0 75 8.83301 105 26.5s53.5 41.834 70.5 72.501s25.5 65 25.5 103c0 39.333 -8.5 74.833 -25.5 106.5s-40.5 56.667 -70.5 75s-65 27.5 -105 27.5s-75 -9.16699 -105 -27.5s-53.333 -43.333 -70 -75
s-25 -67.167 -25 -106.5c0 -38 8.33301 -72.333 25 -103s40 -54.834 70 -72.501s65 -26.5 105 -26.5zM224.002 204l0.000976562 51.999h37v162h-37v52h119c38 0 65.167 -7.16699 81.5 -21.5s24.5 -36.166 24.5 -65.499c0 -20 -3.33301 -35.833 -10 -47.5
s-18.334 -21.167 -35.001 -28.5l27 -51h46v-52h-79l-45 92h-34v-40h23v-52h-118zM320.003 343.999l22 0.000976562c14.667 0 26.167 2.16699 34.5 6.5s12.5 14.166 12.5 29.499c0 16.667 -4 27.167 -12 31.5s-19.667 6.5 -35 6.5h-22v-74z" />
    <glyph glyph-name="macron" unicode="&#xaf;" horiz-adv-x="483" 
d="M75 618h334v-76h-334v76z" />
    <glyph glyph-name="degree" unicode="&#xb0;" horiz-adv-x="392" 
d="M195 616c30.667 0 57.5 -9.83301 80.5 -29.5s34.5 -48.167 34.5 -85.5s-11.5 -65.666 -34.5 -84.999s-49.833 -29 -80.5 -29c-29.333 0 -55.666 9.66699 -78.999 29s-35 47.666 -35 84.999s11.667 65.833 35 85.5s49.666 29.5 78.999 29.5zM195 564
c-14 0 -26.333 -5.5 -37 -16.5s-16 -26.5 -16 -46.5s5.33301 -35.167 16 -45.5s23 -15.5 37 -15.5c14.667 0 27.167 5.16699 37.5 15.5s15.5 25.5 15.5 45.5s-5.16699 35.5 -15.5 46.5s-22.833 16.5 -37.5 16.5z" />
    <glyph glyph-name="plusminus" unicode="&#xb1;" horiz-adv-x="495" 
d="M195 501h105v-125h145v-95h-145v-105h-105v105h-145v95h145v125zM445 136v-94h-395v94h395z" />
    <glyph glyph-name="uni00B2" unicode="&#xb2;" horiz-adv-x="403" 
d="M52 219l-29.9961 83.998l77.5 44c25.667 14.667 48.834 29.334 69.501 44.001c23.333 16.667 41.666 33 54.999 49s20 30.667 20 44c0 14.667 -5.33301 25.5 -16 32.5s-24 10.5 -40 10.5c-17.333 0 -36.333 -4 -57 -12s-40.334 -20.333 -59.001 -37l-55 65
c25.333 22 51.666 39.167 78.999 51.5s56 18.5 86 18.5c29.333 0 56.166 -4.5 80.499 -13.5s43.666 -22.167 57.999 -39.5s21.5 -38.666 21.5 -63.999c0 -26 -7.5 -49.333 -22.5 -70s-34.833 -39.334 -59.5 -56.001c-18 -14.667 -38.667 -28.167 -62 -40.5
s-47.333 -24.166 -72 -35.499h150l41 56l68 -45l-59 -86h-274z" />
    <glyph glyph-name="uni00B3" unicode="&#xb3;" horiz-adv-x="375" 
d="M174 439c20 0 35.666 4.49902 46.999 13.499s17 19.5 17 31.5s-6 22 -18 30s-29.667 12 -53 12c-17.333 0 -35.333 -2.66699 -54 -8s-35.334 -13.333 -50.001 -24l-46 61c22 17.333 45.5 30.333 70.5 39s50.833 13 77.5 13c52.667 0 93.167 -10.5 121.5 -31.5
s42.5 -46.833 42.5 -77.5c0 -22.667 -7 -41 -21 -55s-32 -24.333 -54 -31c27.333 -7.33301 48.833 -17.833 64.5 -31.5s23.5 -32.167 23.5 -55.5c0 -22 -7 -42.333 -21 -61s-33 -33.5 -57 -44.5s-52 -16.5 -84 -16.5c-36 0 -67.667 4.66699 -95 14s-52.666 23 -75.999 41
l44 74c17.333 -14 35.833 -25.333 55.5 -34s41.834 -13 66.501 -13c24 0 42 4.5 54 13.5s18 19.167 18 30.5c0 12.667 -5.66699 23.334 -17 32.001s-28.333 13 -51 13h-49v65h44z" />
    <glyph glyph-name="acute" unicode="&#xb4;" horiz-adv-x="295" 
d="M175 749l77 -57l-158 -183l-49 33z" />
    <glyph glyph-name="uni00B5" unicode="&#xb5;" horiz-adv-x="646" 
d="M255 -225c-55.333 0 -95.5029 18.167 -120.503 54.5s-37.5 91.5 -37.5 165.5v452h114v-259c0 -41.333 8.66699 -70.5 26 -87.5s40.666 -25.5 69.999 -25.5c16.667 0 33.834 3 51.501 9s33.834 15 48.501 27v336h113v-339l89 -31l-31 -93l-136 47
c-23.333 -15.333 -47.833 -27 -73.5 -35s-50.167 -12 -73.5 -12c-44 0 -78.667 14 -104 42v-45c0 -40.667 7.83301 -69.667 23.5 -87s36.167 -26 61.5 -26c18.667 0 39.334 4.33301 62.001 13l20 -89c-18.667 -6 -36.667 -10.333 -54 -13s-33.666 -4 -48.999 -4z" />
    <glyph glyph-name="paragraph" unicode="&#xb6;" horiz-adv-x="640" 
d="M224 276c-58 0 -101.167 12.832 -129.5 38.499s-42.5 64.167 -42.5 115.5c0 52.667 14.333 92.334 43 119.001s68.667 40 120 40h383v-96h-91v-398h87v-95h-184v493h-68v-493h-190v95h97v181h-25z" />
    <glyph glyph-name="periodcentered" unicode="&#xb7;" horiz-adv-x="250" 
d="M126 300c21.333 0 39.833 -7.83301 55.5 -23.5s23.5 -34.5 23.5 -56.5s-7.83301 -40.833 -23.5 -56.5s-34.167 -23.5 -55.5 -23.5c-22 0 -41 7.83301 -57 23.5s-24 34.5 -24 56.5s8 40.833 24 56.5s35 23.5 57 23.5z" />
    <glyph glyph-name="cedilla" unicode="&#xb8;" horiz-adv-x="345" 
d="M166 -235c-19.333 0 -37.0029 2.66504 -53.0029 7.99805s-30 11.5 -42 18.5s-22 13.167 -30 18.5l32 48c13.333 -8 27.333 -14.833 42 -20.5s31.334 -8.5 50.001 -8.5c15.333 0 26.333 3.66699 33 11s10 16.666 10 27.999c0 8.66699 -3.66699 16.167 -11 22.5
s-21.333 9.5 -42 9.5h-58v100h71v-51c42.667 0.666992 74.334 -5.66602 95.001 -18.999s31 -35.666 31 -66.999c0 -22 -5.66699 -40.167 -17 -54.5s-26.666 -25.166 -45.999 -32.499s-41 -11 -65 -11z" />
    <glyph glyph-name="uni00B9" unicode="&#xb9;" horiz-adv-x="365" 
d="M186 590h55l1 -296h115v-75h-320v75h113v179l-93 -64l-41 58z" />
    <glyph glyph-name="ordmasculine" unicode="&#xba;" horiz-adv-x="394" 
d="M196 466c46 0 82.834 -13.666 110.501 -40.999s41.5 -66 41.5 -116c0 -46 -13.5 -83.5 -40.5 -112.5s-63.833 -43.5 -110.5 -43.5c-44 0 -80.167 13.667 -108.5 41s-42.5 65.666 -42.5 114.999c0 50 14.167 88.667 42.5 116s64.166 41 107.499 41zM197.001 392.001
c-20.667 0 -36.334 -7.66699 -47.001 -23s-16 -35.333 -16 -60s5.33301 -44.5 16 -59.5s26.334 -22.5 47.001 -22.5c21.333 0 37.333 7.5 48 22.5s16 34.833 16 59.5s-5.33301 44.667 -16 60s-26.667 23 -48 23z" />
    <glyph glyph-name="guillemotright" unicode="&#xbb;" horiz-adv-x="347" 
d="M74 366l89 -148l-89 -149l-67 53l60 94l-60 97zM198 446l155 -228l-155 -229l-73 52l119 176l-119 177z" />
    <glyph glyph-name="onequarter" unicode="&#xbc;" horiz-adv-x="962" 
d="M186 590h55l1 -296h115v-75h-320v75h113v179l-93 -64l-41 58zM650 652h91l-441 -728h-91zM681 0v75h91v34h-225l-1 87l185 219l62 -63l-154 -169h133v107h92l1 -107h67v-74h-67v-34h65v-75h-249z" />
    <glyph glyph-name="onehalf" unicode="&#xbd;" horiz-adv-x="980" 
d="M186 590h55l1 -296h115v-75h-320v75h113v179l-93 -64l-41 58zM650 652h91l-441 -728h-91zM629 0l-29.9961 83.998l77.5 44c25.667 14.667 48.834 29.334 69.501 44.001c23.333 16.667 41.666 33 54.999 49s20 30.667 20 44c0 14.667 -5.33301 25.5 -16 32.5
s-24 10.5 -40 10.5c-17.333 0 -36.333 -4 -57 -12s-40.334 -20.333 -59.001 -37l-55 65c25.333 22 51.666 39.167 78.999 51.5s56 18.5 86 18.5c29.333 0 56.166 -4.5 80.499 -13.5s43.666 -22.167 57.999 -39.5s21.5 -38.666 21.5 -63.999c0 -26 -7.5 -49.333 -22.5 -70
s-34.833 -39.334 -59.5 -56.001c-18 -14.667 -38.667 -28.167 -62 -40.5s-47.333 -24.166 -72 -35.499h150l41 56l68 -45l-59 -86h-274z" />
    <glyph glyph-name="threequarters" unicode="&#xbe;" horiz-adv-x="939" 
d="M174 439c20 0 35.666 4.49902 46.999 13.499s17 19.5 17 31.5s-6 22 -18 30s-29.667 12 -53 12c-17.333 0 -35.333 -2.66699 -54 -8s-35.334 -13.333 -50.001 -24l-46 61c22 17.333 45.5 30.333 70.5 39s50.833 13 77.5 13c52.667 0 93.167 -10.5 121.5 -31.5
s42.5 -46.833 42.5 -77.5c0 -22.667 -7 -41 -21 -55s-32 -24.333 -54 -31c27.333 -7.33301 48.833 -17.833 64.5 -31.5s23.5 -32.167 23.5 -55.5c0 -22 -7 -42.333 -21 -61s-33 -33.5 -57 -44.5s-52 -16.5 -84 -16.5c-36 0 -67.667 4.66699 -95 14s-52.666 23 -75.999 41
l44 74c17.333 -14 35.833 -25.333 55.5 -34s41.834 -13 66.501 -13c24 0 42 4.5 54 13.5s18 19.167 18 30.5c0 12.667 -5.66699 23.334 -17 32.001s-28.333 13 -51 13h-49v65h44zM626.999 651.999h91l-441 -728h-91zM657.999 -0.000976562v75h91v34h-225l-1 87l185 219
l62 -63l-154 -169h133v107h92l1 -107h67v-74h-67v-34h65v-75h-249z" />
    <glyph glyph-name="questiondown" unicode="&#xbf;" horiz-adv-x="387" 
d="M367 -193c-16 -12.667 -40.167 -23.3311 -72.5 -31.998s-64.833 -13 -97.5 -13c-62 0 -109.333 12.833 -142 38.5s-49 62.167 -49 109.5c0 28.667 7.33301 52.667 22 72s39 38 73 56c24.667 12.667 43.334 23 56.001 31s21.167 15 25.5 21s6.5 13.333 6.5 22
c0 6 -1.83301 12.167 -5.5 18.5s-9.83398 14.166 -18.501 23.499l64 40c21.333 -16.667 35.5 -32.5 42.5 -47.5s10.5 -31.833 10.5 -50.5c0 -16 -3.16699 -30.167 -9.5 -42.5s-17.5 -24.5 -33.5 -36.5s-38.667 -25.667 -68 -41c-16 -8.66699 -28.333 -16.334 -37 -23.001
s-14.667 -13.667 -18 -21s-5 -15.333 -5 -24c0 -18.667 7.33301 -33.5 22 -44.5s34.667 -16.5 60 -16.5c14 0 28.667 1.5 44 4.5s29 7.16699 41 12.5l13 82l91 -10zM197 231.003c-21.333 0 -40 8 -56 24s-24 35 -24 57c0 20.667 8 39 24 55s34.667 24 56 24s40 -8 56 -24
s24 -34.333 24 -55c0 -22 -7.83301 -41 -23.5 -57s-34.5 -24 -56.5 -24z" />
    <glyph glyph-name="Agrave" unicode="&#xc0;" horiz-adv-x="680" 
d="M6 0v101h99l151 387h-84v101h227l184 -488h90v-101h-259v101h53l-31 86h-199l-31 -86h58v-101h-258zM266 266h143l-70 209zM158 793l244 -89l-15 -45l-254 40z" />
    <glyph glyph-name="Aacute" unicode="&#xc1;" horiz-adv-x="680" 
d="M6 0v101h99l151 387h-84v101h227l184 -488h90v-101h-259v101h53l-31 86h-199l-31 -86h58v-101h-258zM266 266h143l-70 209zM487 792l26 -95l-253 -39l-16 45z" />
    <glyph glyph-name="Acircumflex" unicode="&#xc2;" horiz-adv-x="680" 
d="M6 0v101h99l151 387h-84v101h227l184 -488h90v-101h-259v101h53l-31 86h-199l-31 -86h58v-101h-258zM266 266h143l-70 209zM331 794l180 -104l-31 -43l-148 59l-153 -59l-28 43z" />
    <glyph glyph-name="Atilde" unicode="&#xc3;" horiz-adv-x="680" 
d="M6 0v101h99l151 387h-84v101h227l184 -488h90v-101h-259v101h53l-31 86h-199l-31 -86h58v-101h-258zM266 266h143l-70 209zM192 672l-29 63.002c22 16.667 41.5 28.834 58.5 36.501s37.5 11.5 61.5 11.5c18.667 0 35.167 -3.33301 49.5 -10
s27.666 -13.334 39.999 -20.001s25.833 -10 40.5 -10c13.333 0 25.166 2.16699 35.499 6.5s24.5 12.166 42.5 23.499l27 -64c-18.667 -17.333 -36.167 -29.833 -52.5 -37.5s-36.5 -11.834 -60.5 -12.501c-15.333 0 -29.666 3.33301 -42.999 10l-40.5 20.5
c-13.667 7 -28.5 10.5 -44.5 10.5c-14.667 0 -27.667 -2.33301 -39 -7s-26.666 -11.667 -45.999 -21z" />
    <glyph glyph-name="Adieresis" unicode="&#xc4;" horiz-adv-x="680" 
d="M6 0v101h99l151 387h-84v101h227l184 -488h90v-101h-259v101h53l-31 86h-199l-31 -86h58v-101h-258zM266 266h143l-70 209zM426 800c18 0 33.833 -6.83301 47.5 -20.5s20.5 -29.834 20.5 -48.501s-6.83301 -34.667 -20.5 -48s-29.5 -20 -47.5 -20
c-19.333 0 -35.666 6.66699 -48.999 20s-20 29.333 -20 48s6.66699 34.834 20 48.501s29.666 20.5 48.999 20.5zM235 800c18 0 33.833 -6.83301 47.5 -20.5s20.5 -29.834 20.5 -48.501s-6.83301 -34.667 -20.5 -48s-29.5 -20 -47.5 -20
c-18.667 0 -34.834 6.66699 -48.501 20s-20.5 29.333 -20.5 48s6.83301 34.834 20.5 48.501s29.834 20.5 48.501 20.5z" />
    <glyph glyph-name="Aring" unicode="&#xc5;" horiz-adv-x="680" 
d="M6 0v101h99l151 387h-84v101h227l184 -488h90v-101h-259v101h53l-31 86h-199l-31 -86h58v-101h-258zM266 266h143l-70 209zM350 772c31.333 0 56.5 -9.5 75.5 -28.5s28.5 -44.167 28.5 -75.5s-9.5 -56.5 -28.5 -75.5s-44.167 -28.5 -75.5 -28.5s-56.5 9.5 -75.5 28.5
s-28.5 44.167 -28.5 75.5s9.5 56.5 28.5 75.5s44.167 28.5 75.5 28.5zM350 717c-14.667 0 -26.667 -4.5 -36 -13.5s-14 -20.833 -14 -35.5s4.66699 -26.5 14 -35.5s21.333 -13.5 36 -13.5s26.5 4.5 35.5 13.5s13.5 20.833 13.5 35.5s-4.5 26.5 -13.5 35.5
s-20.833 13.5 -35.5 13.5z" />
    <glyph glyph-name="AE" unicode="&#xc6;" horiz-adv-x="939" 
d="M28 0v101h95l239 387h-94v101h557l60 -177l-96 -32l-37 108h-172v-141h162v-99h-162v-147h196l37 100l95 -33l-58 -168h-472v101h86v71h-186l-43 -71h53v-101h-260zM336 272h128v216z" />
    <glyph glyph-name="Ccedilla" unicode="&#xc7;" horiz-adv-x="607" 
d="M446 494c-2 1.33301 -8.16797 3.3291 -18.501 5.99609s-22.833 5.33398 -37.5 8.00098s-30 4 -46 4c-58 0 -102.667 -18.667 -134 -56s-47 -90.666 -47 -159.999c0 -70 16 -124 48 -162s76.333 -57 133 -57c16.667 0 32.334 2 47.001 6s27 7.83301 37 11.5
s16 5.83398 18 6.50098l21 87l97 -22l-30 -142l-24 -11c-16 -7.33301 -38.333 -14.666 -67 -21.999s-61.667 -11 -99 -11c-60 0 -112.5 11.5 -157.5 34.5s-80.167 58 -105.5 105s-38 105.833 -38 176.5c0 65.333 12.333 121.333 37 168s59.667 82.5 105 107.5
s98 37.5 158 37.5c42 0 77.5 -4.16699 106.5 -12.5s50.833 -16.833 65.5 -25.5l22 -13l28 -141l-98 -22zM374.999 -235.004c-19.333 0 -37.0029 2.66504 -53.0029 7.99805s-30 11.5 -42 18.5s-22 13.167 -30 18.5l32 48c13.333 -8 27.333 -14.833 42 -20.5
s31.334 -8.5 50.001 -8.5c15.333 0 26.333 3.66699 33 11s10 16.666 10 27.999c0 8.66699 -3.66699 16.167 -11 22.5s-21.333 9.5 -42 9.5h-58v100h71v-51c42.667 0.666992 74.334 -5.66602 95.001 -18.999s31 -35.666 31 -66.999c0 -22 -5.66699 -40.167 -17 -54.5
s-26.666 -25.166 -45.999 -32.499s-41 -11 -65 -11z" />
    <glyph glyph-name="Egrave" unicode="&#xc8;" horiz-adv-x="609" 
d="M42 589h454l59 -177l-95 -32l-38 108h-179v-138h170v-100h-170v-149h204l37 100l94 -33l-58 -168h-479v101h85l1 387h-85v101zM126 793l244 -89l-15 -45l-254 40z" />
    <glyph glyph-name="Eacute" unicode="&#xc9;" horiz-adv-x="609" 
d="M42 589h454l59 -177l-95 -32l-38 108h-179v-138h170v-100h-170v-149h204l37 100l94 -33l-58 -168h-479v101h85l1 387h-85v101zM454 792l26 -95l-253 -39l-16 45z" />
    <glyph glyph-name="Ecircumflex" unicode="&#xca;" horiz-adv-x="609" 
d="M42 589h454l59 -177l-95 -32l-38 108h-179v-138h170v-100h-170v-149h204l37 100l94 -33l-58 -168h-479v101h85l1 387h-85v101zM298 794l180 -104l-31 -43l-148 59l-153 -59l-28 43z" />
    <glyph glyph-name="Edieresis" unicode="&#xcb;" horiz-adv-x="609" 
d="M42 589h454l59 -177l-95 -32l-38 108h-179v-138h170v-100h-170v-149h204l37 100l94 -33l-58 -168h-479v101h85l1 387h-85v101zM394 800c18 0 33.833 -6.83301 47.5 -20.5s20.5 -29.834 20.5 -48.501s-6.83301 -34.667 -20.5 -48s-29.5 -20 -47.5 -20
c-19.333 0 -35.666 6.66699 -48.999 20s-20 29.333 -20 48s6.66699 34.834 20 48.501s29.666 20.5 48.999 20.5zM203 800c18 0 33.833 -6.83301 47.5 -20.5s20.5 -29.834 20.5 -48.501s-6.83301 -34.667 -20.5 -48s-29.5 -20 -47.5 -20
c-18.667 0 -34.834 6.66699 -48.501 20s-20.5 29.333 -20.5 48s6.83301 34.834 20.5 48.501s29.834 20.5 48.501 20.5z" />
    <glyph glyph-name="Igrave" unicode="&#xcc;" horiz-adv-x="389" 
d="M42 589h306v-101h-95v-387h95v-101h-307v101h97v387h-96v101zM22 793l244 -89l-15 -45l-254 40z" />
    <glyph glyph-name="Iacute" unicode="&#xcd;" horiz-adv-x="389" 
d="M42 589h306v-101h-95v-387h95v-101h-307v101h97v387h-96v101zM350 792l26 -95l-253 -39l-16 45z" />
    <glyph glyph-name="Icircumflex" unicode="&#xce;" horiz-adv-x="389" 
d="M42 589h306v-101h-95v-387h95v-101h-307v101h97v387h-96v101zM194 794l180 -104l-31 -43l-148 59l-153 -59l-28 43z" />
    <glyph glyph-name="Idieresis" unicode="&#xcf;" horiz-adv-x="389" 
d="M42 589h306v-101h-95v-387h95v-101h-307v101h97v387h-96v101zM290 800c18 0 33.833 -6.83301 47.5 -20.5s20.5 -29.834 20.5 -48.501s-6.83301 -34.667 -20.5 -48s-29.5 -20 -47.5 -20c-19.333 0 -35.666 6.66699 -48.999 20s-20 29.333 -20 48s6.66699 34.834 20 48.501
s29.666 20.5 48.999 20.5zM99 800c18 0 33.833 -6.83301 47.5 -20.5s20.5 -29.834 20.5 -48.501s-6.83301 -34.667 -20.5 -48s-29.5 -20 -47.5 -20c-18.667 0 -34.834 6.66699 -48.501 20s-20.5 29.333 -20.5 48s6.83301 34.834 20.5 48.501s29.834 20.5 48.501 20.5z" />
    <glyph glyph-name="Eth" unicode="&#xd0;" horiz-adv-x="686" 
d="M330 589c64 0 119.333 -9.83398 166 -29.501s83 -51.667 109 -96s39 -104.166 39 -179.499c0 -68 -13.333 -122.833 -40 -164.5s-63 -72 -109 -91s-98.333 -28.5 -157 -28.5h-282v101h85v154h-85v99h85v134h-85v101h274zM320 100.999c46 0 83.998 5.33105 113.998 15.998
s52.333 29.334 67 56.001s22 63.334 22 110.001c0 53.333 -7.16699 94.833 -21.5 124.5s-35.666 50.5 -63.999 62.5s-64.166 18 -107.499 18h-73v-134h96v-99h-96v-154h63z" />
    <glyph glyph-name="Ntilde" unicode="&#xd1;" horiz-adv-x="740" 
d="M42 589h259l213 -423v322h-77v101h275v-101h-94v-488h-134l-253 489l1 -388h84v-101h-275v101h87v387h-86v101zM236 672l-29 63.002c22 16.667 41.5 28.834 58.5 36.501s37.5 11.5 61.5 11.5c18.667 0 35.167 -3.33301 49.5 -10s27.666 -13.334 39.999 -20.001
s25.833 -10 40.5 -10c13.333 0 25.166 2.16699 35.499 6.5s24.5 12.166 42.5 23.499l27 -64c-18.667 -17.333 -36.167 -29.833 -52.5 -37.5s-36.5 -11.834 -60.5 -12.501c-15.333 0 -29.666 3.33301 -42.999 10l-40.5 20.5c-13.667 7 -28.5 10.5 -44.5 10.5
c-14.667 0 -27.667 -2.33301 -39 -7s-26.666 -11.667 -45.999 -21z" />
    <glyph glyph-name="Ograve" unicode="&#xd2;" horiz-adv-x="668" 
d="M333 609c58 0 109.002 -12.333 153.002 -37s78.333 -60.334 103 -107.001s37 -103.334 37 -170.001s-12.333 -123.5 -37 -170.5s-58.834 -82.833 -102.501 -107.5s-94.5 -37 -152.5 -37c-57.333 0 -107.833 12.333 -151.5 37s-77.834 60.5 -102.501 107.5
s-37 103.833 -37 170.5s12.167 123.334 36.5 170.001s58.333 82.334 102 107.001s94.167 37 151.5 37zM334.002 511c-56 0 -98.5 -18.333 -127.5 -55s-43.5 -90.334 -43.5 -161.001s14.5 -124.5 43.5 -161.5s71.5 -55.5 127.5 -55.5s98.667 18.5 128 55.5
s44 90.833 44 161.5s-14.5 124.334 -43.5 161.001s-71.833 55 -128.5 55zM161.002 793l244 -89l-15 -45l-254 40z" />
    <glyph glyph-name="Oacute" unicode="&#xd3;" horiz-adv-x="668" 
d="M333 609c58 0 109.002 -12.333 153.002 -37s78.333 -60.334 103 -107.001s37 -103.334 37 -170.001s-12.333 -123.5 -37 -170.5s-58.834 -82.833 -102.501 -107.5s-94.5 -37 -152.5 -37c-57.333 0 -107.833 12.333 -151.5 37s-77.834 60.5 -102.501 107.5
s-37 103.833 -37 170.5s12.167 123.334 36.5 170.001s58.333 82.334 102 107.001s94.167 37 151.5 37zM334.002 511c-56 0 -98.5 -18.333 -127.5 -55s-43.5 -90.334 -43.5 -161.001s14.5 -124.5 43.5 -161.5s71.5 -55.5 127.5 -55.5s98.667 18.5 128 55.5
s44 90.833 44 161.5s-14.5 124.334 -43.5 161.001s-71.833 55 -128.5 55zM489.002 792l26 -95l-253 -39l-16 45z" />
    <glyph glyph-name="Ocircumflex" unicode="&#xd4;" horiz-adv-x="668" 
d="M333 609c58 0 109.002 -12.333 153.002 -37s78.333 -60.334 103 -107.001s37 -103.334 37 -170.001s-12.333 -123.5 -37 -170.5s-58.834 -82.833 -102.501 -107.5s-94.5 -37 -152.5 -37c-57.333 0 -107.833 12.333 -151.5 37s-77.834 60.5 -102.501 107.5
s-37 103.833 -37 170.5s12.167 123.334 36.5 170.001s58.333 82.334 102 107.001s94.167 37 151.5 37zM334.002 511c-56 0 -98.5 -18.333 -127.5 -55s-43.5 -90.334 -43.5 -161.001s14.5 -124.5 43.5 -161.5s71.5 -55.5 127.5 -55.5s98.667 18.5 128 55.5
s44 90.833 44 161.5s-14.5 124.334 -43.5 161.001s-71.833 55 -128.5 55zM333.002 794l180 -104l-31 -43l-148 59l-153 -59l-28 43z" />
    <glyph glyph-name="Otilde" unicode="&#xd5;" horiz-adv-x="668" 
d="M333 609c58 0 109.002 -12.333 153.002 -37s78.333 -60.334 103 -107.001s37 -103.334 37 -170.001s-12.333 -123.5 -37 -170.5s-58.834 -82.833 -102.501 -107.5s-94.5 -37 -152.5 -37c-57.333 0 -107.833 12.333 -151.5 37s-77.834 60.5 -102.501 107.5
s-37 103.833 -37 170.5s12.167 123.334 36.5 170.001s58.333 82.334 102 107.001s94.167 37 151.5 37zM334.002 511c-56 0 -98.5 -18.333 -127.5 -55s-43.5 -90.334 -43.5 -161.001s14.5 -124.5 43.5 -161.5s71.5 -55.5 127.5 -55.5s98.667 18.5 128 55.5
s44 90.833 44 161.5s-14.5 124.334 -43.5 161.001s-71.833 55 -128.5 55zM195.002 672l-29 63.002c22 16.667 41.5 28.834 58.5 36.501s37.5 11.5 61.5 11.5c18.667 0 35.167 -3.33301 49.5 -10s27.666 -13.334 39.999 -20.001s25.833 -10 40.5 -10
c13.333 0 25.166 2.16699 35.499 6.5s24.5 12.166 42.5 23.499l27 -64c-18.667 -17.333 -36.167 -29.833 -52.5 -37.5s-36.5 -11.834 -60.5 -12.501c-15.333 0 -29.666 3.33301 -42.999 10l-40.5 20.5c-13.667 7 -28.5 10.5 -44.5 10.5c-14.667 0 -27.667 -2.33301 -39 -7
s-26.666 -11.667 -45.999 -21z" />
    <glyph glyph-name="Odieresis" unicode="&#xd6;" horiz-adv-x="668" 
d="M333 609c58 0 109.002 -12.333 153.002 -37s78.333 -60.334 103 -107.001s37 -103.334 37 -170.001s-12.333 -123.5 -37 -170.5s-58.834 -82.833 -102.501 -107.5s-94.5 -37 -152.5 -37c-57.333 0 -107.833 12.333 -151.5 37s-77.834 60.5 -102.501 107.5
s-37 103.833 -37 170.5s12.167 123.334 36.5 170.001s58.333 82.334 102 107.001s94.167 37 151.5 37zM334.002 511c-56 0 -98.5 -18.333 -127.5 -55s-43.5 -90.334 -43.5 -161.001s14.5 -124.5 43.5 -161.5s71.5 -55.5 127.5 -55.5s98.667 18.5 128 55.5
s44 90.833 44 161.5s-14.5 124.334 -43.5 161.001s-71.833 55 -128.5 55zM429.002 800c18 0 33.833 -6.83301 47.5 -20.5s20.5 -29.834 20.5 -48.501s-6.83301 -34.667 -20.5 -48s-29.5 -20 -47.5 -20c-19.333 0 -35.666 6.66699 -48.999 20s-20 29.333 -20 48
s6.66699 34.834 20 48.501s29.666 20.5 48.999 20.5zM238.002 800c18 0 33.833 -6.83301 47.5 -20.5s20.5 -29.834 20.5 -48.501s-6.83301 -34.667 -20.5 -48s-29.5 -20 -47.5 -20c-18.667 0 -34.834 6.66699 -48.501 20s-20.5 29.333 -20.5 48s6.83301 34.834 20.5 48.501
s29.834 20.5 48.501 20.5z" />
    <glyph glyph-name="multiply" unicode="&#xd7;" horiz-adv-x="495" 
d="M146 479l103 -103l104 104l67 -67l-105 -104l103 -103l-71 -70l-102 102l-105 -104l-66 67l104 104l-103 103z" />
    <glyph glyph-name="Oslash" unicode="&#xd8;" horiz-adv-x="668" 
d="M131 -69l49 108l35 59l191 418l29 60l34 75h97l-54 -116l-38 -70l-189 -413l-22 -44l-36 -77h-96zM333 609c58 0 109.002 -12.333 153.002 -37s78.333 -60.334 103 -107.001s37 -103.334 37 -170.001s-12.333 -123.5 -37 -170.5s-58.834 -82.833 -102.501 -107.5
s-94.5 -37 -152.5 -37c-57.333 0 -107.833 12.333 -151.5 37s-77.834 60.5 -102.501 107.5s-37 103.833 -37 170.5s12.167 123.334 36.5 170.001s58.333 82.334 102 107.001s94.167 37 151.5 37zM334.002 511c-56 0 -98.5 -18.333 -127.5 -55s-43.5 -90.334 -43.5 -161.001
s14.5 -124.5 43.5 -161.5s71.5 -55.5 127.5 -55.5s98.667 18.5 128 55.5s44 90.833 44 161.5s-14.5 124.334 -43.5 161.001s-71.833 55 -128.5 55z" />
    <glyph glyph-name="Ugrave" unicode="&#xd9;" horiz-adv-x="688" 
d="M574 213c0 -74.667 -19.1689 -132.167 -57.502 -172.5s-95.833 -60.5 -172.5 -60.5c-77.333 0 -135.166 20.167 -173.499 60.5s-57.5 97.833 -57.5 172.5v275h-85v101h259v-101h-58v-295c0 -42 10 -72 30 -90s48.333 -27 85 -27s64.834 10 84.501 30s29.5 52.333 29.5 97
v285h-57v101h259v-101h-86v-275zM170.998 793l244 -89l-15 -45l-254 40z" />
    <glyph glyph-name="Uacute" unicode="&#xda;" horiz-adv-x="688" 
d="M574 213c0 -74.667 -19.1689 -132.167 -57.502 -172.5s-95.833 -60.5 -172.5 -60.5c-77.333 0 -135.166 20.167 -173.499 60.5s-57.5 97.833 -57.5 172.5v275h-85v101h259v-101h-58v-295c0 -42 10 -72 30 -90s48.333 -27 85 -27s64.834 10 84.501 30s29.5 52.333 29.5 97
v285h-57v101h259v-101h-86v-275zM498.998 792l26 -95l-253 -39l-16 45z" />
    <glyph glyph-name="Ucircumflex" unicode="&#xdb;" horiz-adv-x="688" 
d="M574 213c0 -74.667 -19.1689 -132.167 -57.502 -172.5s-95.833 -60.5 -172.5 -60.5c-77.333 0 -135.166 20.167 -173.499 60.5s-57.5 97.833 -57.5 172.5v275h-85v101h259v-101h-58v-295c0 -42 10 -72 30 -90s48.333 -27 85 -27s64.834 10 84.501 30s29.5 52.333 29.5 97
v285h-57v101h259v-101h-86v-275zM342.998 794l180 -104l-31 -43l-148 59l-153 -59l-28 43z" />
    <glyph glyph-name="Udieresis" unicode="&#xdc;" horiz-adv-x="688" 
d="M574 213c0 -74.667 -19.1689 -132.167 -57.502 -172.5s-95.833 -60.5 -172.5 -60.5c-77.333 0 -135.166 20.167 -173.499 60.5s-57.5 97.833 -57.5 172.5v275h-85v101h259v-101h-58v-295c0 -42 10 -72 30 -90s48.333 -27 85 -27s64.834 10 84.501 30s29.5 52.333 29.5 97
v285h-57v101h259v-101h-86v-275zM438.998 800c18 0 33.833 -6.83301 47.5 -20.5s20.5 -29.834 20.5 -48.501s-6.83301 -34.667 -20.5 -48s-29.5 -20 -47.5 -20c-19.333 0 -35.666 6.66699 -48.999 20s-20 29.333 -20 48s6.66699 34.834 20 48.501s29.666 20.5 48.999 20.5z
M247.998 800c18 0 33.833 -6.83301 47.5 -20.5s20.5 -29.834 20.5 -48.501s-6.83301 -34.667 -20.5 -48s-29.5 -20 -47.5 -20c-18.667 0 -34.834 6.66699 -48.501 20s-20.5 29.333 -20.5 48s6.83301 34.834 20.5 48.501s29.834 20.5 48.501 20.5z" />
    <glyph glyph-name="Yacute" unicode="&#xdd;" horiz-adv-x="663" 
d="M6 589h272v-101h-65l126 -170l125 170h-66v101h259v-101h-72l-193 -250v-138h94v-100h-303v100h95v137l-194 251h-78v101zM486 792l26 -95l-253 -39l-16 45z" />
    <glyph glyph-name="Thorn" unicode="&#xde;" horiz-adv-x="559" 
d="M41 0l-0.00292969 100.999h84v400h-84v88h278v-88h-78v-37h68c54.667 0 98.834 -5.66699 132.501 -17s58.334 -28 74.001 -50s23.5 -48.667 23.5 -80c0 -35.333 -8.16699 -64.666 -24.5 -87.999s-41.166 -40.5 -74.499 -51.5s-76 -16.5 -128 -16.5h-71v-60h112v-101h-312
zM241.997 253.999l65 -0.000976562c35.333 0 62.833 3.83301 82.5 11.5s29.5 23.834 29.5 48.501c0 24 -9.83301 40 -29.5 48s-47.5 12 -83.5 12h-64v-120z" />
    <glyph glyph-name="germandbls" unicode="&#xdf;" horiz-adv-x="608" 
d="M420 -16c-26.667 0 -52.668 4.5 -78.001 13.5s-43.666 20.5 -54.999 34.5l-16 87l87 18l9 -52c5.33301 -4.66699 12.833 -8.5 22.5 -11.5s19.834 -4.5 30.501 -4.5c16.667 0 30.167 4.5 40.5 13.5s15.5 20.833 15.5 35.5s-6.16699 28.5 -18.5 41.5s-30.5 24.5 -54.5 34.5
c-28 12.667 -50.333 25.167 -67 37.5s-28.667 26 -36 41s-11 32.167 -11 51.5c0 22 4.16699 40.5 12.5 55.5s18.666 28 30.999 39s24.5 21 36.5 30s22 18.667 30 29s12 22.5 12 36.5c0 18.667 -7.5 33.334 -22.5 44.001s-35.167 16 -60.5 16c-32 0 -54.5 -8.5 -67.5 -25.5
s-19.5 -47.5 -19.5 -91.5v-457h-198v99h84v250h-84v98h84v39c0 60 16.833 104 50.5 132s82.167 42 145.5 42c57.333 0 103.333 -13.333 138 -40s52 -62 52 -106c0 -22 -4 -40.5 -12 -55.5s-17.833 -27.833 -29.5 -38.5s-23.5 -20.334 -35.5 -29.001s-22 -17.334 -30 -26.001
s-12 -18.667 -12 -30c0 -14 5.16699 -25.833 15.5 -35.5s28.833 -20.167 55.5 -31.5c76.667 -34 115 -81.667 115 -143c0 -41.333 -14.833 -75.166 -44.5 -101.499s-68.167 -39.5 -115.5 -39.5z" />
    <glyph glyph-name="agrave" unicode="&#xe0;" horiz-adv-x="551" 
d="M370 20c-46.667 -26 -94.332 -39 -142.999 -39c-62 0 -109.167 12 -141.5 36s-48.5 59 -48.5 105c-0.666992 92.667 60.333 139 183 139h112c0 40.667 -8.33301 70.5 -25 89.5s-38.334 28.5 -65.001 28.5c-14.667 0 -28.5 -1 -41.5 -3s-25.833 -5 -38.5 -9l-9 -49l-94 13
l18 106c26.667 9.33301 53.834 16.5 81.501 21.5s56.5 7.5 86.5 7.5c65.333 0 115.166 -17.167 149.499 -51.5s51.5 -84.833 51.5 -151.5v-166l84 -27l-31 -94zM223.002 187c-22.667 0 -40.001 -5.66699 -52.001 -17s-18 -27 -18 -47c0 -38 26 -57 78 -57
c36.667 0 70.334 9.66699 101.001 29v91zM248.001 509l-159 183l78 57l129 -207z" />
    <glyph glyph-name="aacute" unicode="&#xe1;" horiz-adv-x="551" 
d="M370 20c-46.667 -26 -94.332 -39 -142.999 -39c-62 0 -109.167 12 -141.5 36s-48.5 59 -48.5 105c-0.666992 92.667 60.333 139 183 139h112c0 40.667 -8.33301 70.5 -25 89.5s-38.334 28.5 -65.001 28.5c-14.667 0 -28.5 -1 -41.5 -3s-25.833 -5 -38.5 -9l-9 -49l-94 13
l18 106c26.667 9.33301 53.834 16.5 81.501 21.5s56.5 7.5 86.5 7.5c65.333 0 115.166 -17.167 149.499 -51.5s51.5 -84.833 51.5 -151.5v-166l84 -27l-31 -94zM223.002 187c-22.667 0 -40.001 -5.66699 -52.001 -17s-18 -27 -18 -47c0 -38 26 -57 78 -57
c36.667 0 70.334 9.66699 101.001 29v91zM334.001 749l77 -57l-158 -183l-49 33z" />
    <glyph glyph-name="acircumflex" unicode="&#xe2;" horiz-adv-x="551" 
d="M370 20c-46.667 -26 -94.332 -39 -142.999 -39c-62 0 -109.167 12 -141.5 36s-48.5 59 -48.5 105c-0.666992 92.667 60.333 139 183 139h112c0 40.667 -8.33301 70.5 -25 89.5s-38.334 28.5 -65.001 28.5c-14.667 0 -28.5 -1 -41.5 -3s-25.833 -5 -38.5 -9l-9 -49l-94 13
l18 106c26.667 9.33301 53.834 16.5 81.501 21.5s56.5 7.5 86.5 7.5c65.333 0 115.166 -17.167 149.499 -51.5s51.5 -84.833 51.5 -151.5v-166l84 -27l-31 -94zM223.002 187c-22.667 0 -40.001 -5.66699 -52.001 -17s-18 -27 -18 -47c0 -38 26 -57 78 -57
c36.667 0 70.334 9.66699 101.001 29v91zM249.001 675l164 -115l-35 -50l-128 75l-136 -75l-33 50z" />
    <glyph glyph-name="atilde" unicode="&#xe3;" horiz-adv-x="551" 
d="M370 20c-46.667 -26 -94.332 -39 -142.999 -39c-62 0 -109.167 12 -141.5 36s-48.5 59 -48.5 105c-0.666992 92.667 60.333 139 183 139h112c0 40.667 -8.33301 70.5 -25 89.5s-38.334 28.5 -65.001 28.5c-14.667 0 -28.5 -1 -41.5 -3s-25.833 -5 -38.5 -9l-9 -49l-94 13
l18 106c26.667 9.33301 53.834 16.5 81.501 21.5s56.5 7.5 86.5 7.5c65.333 0 115.166 -17.167 149.499 -51.5s51.5 -84.833 51.5 -151.5v-166l84 -27l-31 -94zM223.002 187c-22.667 0 -40.001 -5.66699 -52.001 -17s-18 -27 -18 -47c0 -38 26 -57 78 -57
c36.667 0 70.334 9.66699 101.001 29v91zM109.001 530l-29 63.002c22 16.667 41.5 28.834 58.5 36.501s37.5 11.5 61.5 11.5c18.667 0 35.167 -3.33301 49.5 -10s27.666 -13.334 39.999 -20.001s25.833 -10 40.5 -10c13.333 0 25.166 2.16699 35.499 6.5
s24.5 12.166 42.5 23.499l27 -64c-18.667 -17.333 -36.167 -29.833 -52.5 -37.5s-36.5 -11.834 -60.5 -12.501c-15.333 0 -29.666 3.33301 -42.999 10l-40.5 20.5c-13.667 7 -28.5 10.5 -44.5 10.5c-14.667 0 -27.667 -2.33301 -39 -7s-26.666 -11.667 -45.999 -21z" />
    <glyph glyph-name="adieresis" unicode="&#xe4;" horiz-adv-x="551" 
d="M370 20c-46.667 -26 -94.332 -39 -142.999 -39c-62 0 -109.167 12 -141.5 36s-48.5 59 -48.5 105c-0.666992 92.667 60.333 139 183 139h112c0 40.667 -8.33301 70.5 -25 89.5s-38.334 28.5 -65.001 28.5c-14.667 0 -28.5 -1 -41.5 -3s-25.833 -5 -38.5 -9l-9 -49l-94 13
l18 106c26.667 9.33301 53.834 16.5 81.501 21.5s56.5 7.5 86.5 7.5c65.333 0 115.166 -17.167 149.499 -51.5s51.5 -84.833 51.5 -151.5v-166l84 -27l-31 -94zM223.002 187c-22.667 0 -40.001 -5.66699 -52.001 -17s-18 -27 -18 -47c0 -38 26 -57 78 -57
c36.667 0 70.334 9.66699 101.001 29v91zM342.001 658c18 0 33.833 -6.83301 47.5 -20.5s20.5 -29.834 20.5 -48.501s-6.83301 -34.667 -20.5 -48s-29.5 -20 -47.5 -20c-19.333 0 -35.666 6.66699 -48.999 20s-20 29.333 -20 48s6.66699 34.834 20 48.501
s29.666 20.5 48.999 20.5zM151.001 658c18 0 33.833 -6.83301 47.5 -20.5s20.5 -29.834 20.5 -48.501s-6.83301 -34.667 -20.5 -48s-29.5 -20 -47.5 -20c-18.667 0 -34.834 6.66699 -48.501 20s-20.5 29.333 -20.5 48s6.83301 34.834 20.5 48.501s29.834 20.5 48.501 20.5z
" />
    <glyph glyph-name="aring" unicode="&#xe5;" horiz-adv-x="551" 
d="M370 20c-46.667 -26 -94.332 -39 -142.999 -39c-62 0 -109.167 12 -141.5 36s-48.5 59 -48.5 105c-0.666992 92.667 60.333 139 183 139h112c0 40.667 -8.33301 70.5 -25 89.5s-38.334 28.5 -65.001 28.5c-14.667 0 -28.5 -1 -41.5 -3s-25.833 -5 -38.5 -9l-9 -49l-94 13
l18 106c26.667 9.33301 53.834 16.5 81.501 21.5s56.5 7.5 86.5 7.5c65.333 0 115.166 -17.167 149.499 -51.5s51.5 -84.833 51.5 -151.5v-166l84 -27l-31 -94zM223.002 187c-22.667 0 -40.001 -5.66699 -52.001 -17s-18 -27 -18 -47c0 -38 26 -57 78 -57
c36.667 0 70.334 9.66699 101.001 29v91zM247.001 727c31.333 0 56.5 -9.5 75.5 -28.5s28.5 -44.167 28.5 -75.5s-9.5 -56.5 -28.5 -75.5s-44.167 -28.5 -75.5 -28.5s-56.5 9.5 -75.5 28.5s-28.5 44.167 -28.5 75.5s9.5 56.5 28.5 75.5s44.167 28.5 75.5 28.5zM247.001 672
c-14.667 0 -26.667 -4.5 -36 -13.5s-14 -20.833 -14 -35.5s4.66699 -26.5 14 -35.5s21.333 -13.5 36 -13.5s26.5 4.5 35.5 13.5s13.5 20.833 13.5 35.5s-4.5 26.5 -13.5 35.5s-20.833 13.5 -35.5 13.5z" />
    <glyph glyph-name="ae" unicode="&#xe6;" horiz-adv-x="801" 
d="M77 426c24 9.33301 48.5039 17.002 73.5039 23.002s53.167 9 84.5 9c46 0 82.667 -8.16699 110 -24.5s45.666 -37.833 54.999 -64.5c21.333 28.667 46.833 50.667 76.5 66s60.5 23 92.5 23s60.833 -6.83301 86.5 -20.5s46.667 -33 63 -58s27.666 -53.833 33.999 -86.5
s6.16602 -67.667 -0.500977 -105l-311 -1c4.66699 -37.333 18.334 -66.166 41.001 -86.499s51 -30.5 85 -30.5c26.667 0 49.667 3 69 9s35.5 12.667 48.5 20s22.833 13.333 29.5 18l49 -64c0 -0.666992 -4.16699 -4.66699 -12.5 -12s-20.666 -15.833 -36.999 -25.5
s-36.833 -18 -61.5 -25s-53.334 -10.5 -86.001 -10.5s-62.834 4.16699 -90.501 12.5s-52.5 22.833 -74.5 43.5c-12 -8.66699 -28 -17.334 -48 -26.001s-41 -15.834 -63 -21.501s-42.667 -8.5 -62 -8.5c-59.333 0 -106 12.833 -140 38.5s-51 60.167 -51 103.5
c0 35.333 8.16699 63.666 24.5 84.999s38.5 36.833 66.5 46.5s59 14.5 93 14.5h119c0 18 -2.33301 33.667 -7 47s-14 24 -28 32s-36 12 -66 12c-12.667 0 -25.334 -0.833008 -38.001 -2.5s-25.667 -3.5 -39 -5.5l-8 -50l-96 18zM224.004 184.002
c-12 0 -23.499 -1.66504 -34.499 -4.99805s-19.833 -9.33301 -26.5 -18s-10 -21.334 -10 -38.001c0 -18 8 -31.167 24 -39.5s34.333 -12.5 55 -12.5c14 0 29.167 2 45.5 6s31.666 8.66699 45.999 14s25.5 10.666 33.5 15.999c-4.66699 12 -8.5 24.333 -11.5 37
s-5.16699 26 -6.5 40h-115zM661.005 272.004c0 27.333 -7.66797 49.667 -23.001 67s-40.666 26 -75.999 26c-30.667 0 -56.5 -8 -77.5 -24s-34.833 -39.333 -41.5 -70z" />
    <glyph glyph-name="ccedilla" unicode="&#xe7;" horiz-adv-x="497" 
d="M350 369c-12 4 -23.499 6.66699 -34.499 8s-22.167 2 -33.5 2c-40.667 0 -72 -13.333 -94 -40s-33 -66.334 -33 -119.001c0 -46 12 -82 36 -108s53.333 -39 88 -39c22 0 44.667 4.16699 68 12.5s46.333 20.5 69 36.5l46 -68c-19.333 -14.667 -38.333 -27.5 -57 -38.5
s-38.334 -19.5 -59.001 -25.5s-44 -9 -70 -9c-48 0 -89.833 9.16699 -125.5 27.5s-63.167 45.333 -82.5 81s-29 79.167 -29 130.5c0 54 9.66699 99.333 29 136s47 64.334 83 83.001s79.333 28 130 28c26 0 51.833 -2.5 77.5 -7.5s51.167 -12.167 76.5 -21.5l25 -129l-96 -21
zM311.001 -235c-19.333 0 -37.0029 2.66504 -53.0029 7.99805s-30 11.5 -42 18.5s-22 13.167 -30 18.5l32 48c13.333 -8 27.333 -14.833 42 -20.5s31.334 -8.5 50.001 -8.5c15.333 0 26.333 3.66699 33 11s10 16.666 10 27.999c0 8.66699 -3.66699 16.167 -11 22.5
s-21.333 9.5 -42 9.5h-58v100h71v-51c42.667 0.666992 74.334 -5.66602 95.001 -18.999s31 -35.666 31 -66.999c0 -22 -5.66699 -40.167 -17 -54.5s-26.666 -25.166 -45.999 -32.499s-41 -11 -65 -11z" />
    <glyph glyph-name="egrave" unicode="&#xe8;" horiz-adv-x="521" 
d="M474 55c-30 -25.333 -60.667 -43.9951 -92 -55.9951s-63.666 -18 -96.999 -18c-50 0 -93.833 10.167 -131.5 30.5s-66.834 48.666 -87.501 84.999s-31 78.166 -31 125.499c0 49.333 9.83301 92.166 29.5 128.499s46.834 64.666 81.501 84.999s75 30.5 121 30.5
s86 -9.33301 120 -28s60.333 -44.834 79 -78.501s28 -73.167 28 -118.5c0 -8 -0.5 -17 -1.5 -27s-2.16699 -19.667 -3.5 -29h-344c2 -26 9.66699 -47.5 23 -64.5s30.166 -29.5 50.499 -37.5s42.5 -12 66.5 -12c28 0 54.667 4.5 80 13.5s48.333 21.833 69 38.5zM381 263.005
c-0.666992 33.333 -10.832 60.166 -30.499 80.499s-46.5 30.5 -80.5 30.5c-32 0 -59.833 -10.167 -83.5 -30.5s-36.834 -47.166 -39.501 -80.499h234zM263.002 509.005l-159 183l78 57l129 -207z" />
    <glyph glyph-name="eacute" unicode="&#xe9;" horiz-adv-x="521" 
d="M474 55c-30 -25.333 -60.667 -43.9951 -92 -55.9951s-63.666 -18 -96.999 -18c-50 0 -93.833 10.167 -131.5 30.5s-66.834 48.666 -87.501 84.999s-31 78.166 -31 125.499c0 49.333 9.83301 92.166 29.5 128.499s46.834 64.666 81.501 84.999s75 30.5 121 30.5
s86 -9.33301 120 -28s60.333 -44.834 79 -78.501s28 -73.167 28 -118.5c0 -8 -0.5 -17 -1.5 -27s-2.16699 -19.667 -3.5 -29h-344c2 -26 9.66699 -47.5 23 -64.5s30.166 -29.5 50.499 -37.5s42.5 -12 66.5 -12c28 0 54.667 4.5 80 13.5s48.333 21.833 69 38.5zM381 263.005
c-0.666992 33.333 -10.832 60.166 -30.499 80.499s-46.5 30.5 -80.5 30.5c-32 0 -59.833 -10.167 -83.5 -30.5s-36.834 -47.166 -39.501 -80.499h234zM350.002 749.005l77 -57l-158 -183l-49 33z" />
    <glyph glyph-name="ecircumflex" unicode="&#xea;" horiz-adv-x="521" 
d="M474 55c-30 -25.333 -60.667 -43.9951 -92 -55.9951s-63.666 -18 -96.999 -18c-50 0 -93.833 10.167 -131.5 30.5s-66.834 48.666 -87.501 84.999s-31 78.166 -31 125.499c0 49.333 9.83301 92.166 29.5 128.499s46.834 64.666 81.501 84.999s75 30.5 121 30.5
s86 -9.33301 120 -28s60.333 -44.834 79 -78.501s28 -73.167 28 -118.5c0 -8 -0.5 -17 -1.5 -27s-2.16699 -19.667 -3.5 -29h-344c2 -26 9.66699 -47.5 23 -64.5s30.166 -29.5 50.499 -37.5s42.5 -12 66.5 -12c28 0 54.667 4.5 80 13.5s48.333 21.833 69 38.5zM381 263.005
c-0.666992 33.333 -10.832 60.166 -30.499 80.499s-46.5 30.5 -80.5 30.5c-32 0 -59.833 -10.167 -83.5 -30.5s-36.834 -47.166 -39.501 -80.499h234zM265.002 675.005l164 -115l-35 -50l-128 75l-136 -75l-33 50z" />
    <glyph glyph-name="edieresis" unicode="&#xeb;" horiz-adv-x="521" 
d="M474 55c-30 -25.333 -60.667 -43.9951 -92 -55.9951s-63.666 -18 -96.999 -18c-50 0 -93.833 10.167 -131.5 30.5s-66.834 48.666 -87.501 84.999s-31 78.166 -31 125.499c0 49.333 9.83301 92.166 29.5 128.499s46.834 64.666 81.501 84.999s75 30.5 121 30.5
s86 -9.33301 120 -28s60.333 -44.834 79 -78.501s28 -73.167 28 -118.5c0 -8 -0.5 -17 -1.5 -27s-2.16699 -19.667 -3.5 -29h-344c2 -26 9.66699 -47.5 23 -64.5s30.166 -29.5 50.499 -37.5s42.5 -12 66.5 -12c28 0 54.667 4.5 80 13.5s48.333 21.833 69 38.5zM381 263.005
c-0.666992 33.333 -10.832 60.166 -30.499 80.499s-46.5 30.5 -80.5 30.5c-32 0 -59.833 -10.167 -83.5 -30.5s-36.834 -47.166 -39.501 -80.499h234zM358.002 658.005c18 0 33.833 -6.83301 47.5 -20.5s20.5 -29.834 20.5 -48.501s-6.83301 -34.667 -20.5 -48
s-29.5 -20 -47.5 -20c-19.333 0 -35.666 6.66699 -48.999 20s-20 29.333 -20 48s6.66699 34.834 20 48.501s29.666 20.5 48.999 20.5zM167.002 658.005c18 0 33.833 -6.83301 47.5 -20.5s20.5 -29.834 20.5 -48.501s-6.83301 -34.667 -20.5 -48s-29.5 -20 -47.5 -20
c-18.667 0 -34.834 6.66699 -48.501 20s-20.5 29.333 -20.5 48s6.83301 34.834 20.5 48.501s29.834 20.5 48.501 20.5z" />
    <glyph glyph-name="igrave" unicode="&#xec;" horiz-adv-x="345" 
d="M40 447h198v-356h83v-91h-281v91h83v266h-83v90zM171 509l-159 183l78 57l129 -207z" />
    <glyph glyph-name="iacute" unicode="&#xed;" horiz-adv-x="345" 
d="M40 447h198v-356h83v-91h-281v91h83v266h-83v90zM257 749l77 -57l-158 -183l-49 33z" />
    <glyph glyph-name="icircumflex" unicode="&#xee;" horiz-adv-x="345" 
d="M40 447h198v-356h83v-91h-281v91h83v266h-83v90zM172 675l164 -115l-35 -50l-128 75l-136 -75l-33 50z" />
    <glyph glyph-name="idieresis" unicode="&#xef;" horiz-adv-x="345" 
d="M40 447h198v-356h83v-91h-281v91h83v266h-83v90zM266 658c18 0 33.833 -6.83301 47.5 -20.5s20.5 -29.834 20.5 -48.501s-6.83301 -34.667 -20.5 -48s-29.5 -20 -47.5 -20c-19.333 0 -35.666 6.66699 -48.999 20s-20 29.333 -20 48s6.66699 34.834 20 48.501
s29.666 20.5 48.999 20.5zM75 658c18 0 33.833 -6.83301 47.5 -20.5s20.5 -29.834 20.5 -48.501s-6.83301 -34.667 -20.5 -48s-29.5 -20 -47.5 -20c-18.667 0 -34.834 6.66699 -48.501 20s-20.5 29.333 -20.5 48s6.83301 34.834 20.5 48.501s29.834 20.5 48.501 20.5z" />
    <glyph glyph-name="eth" unicode="&#xf0;" horiz-adv-x="554" 
d="M318 586c39.333 -22 73.168 -49.6631 101.501 -82.9961s50.5 -70.5 66.5 -111.5s24 -83.833 24 -128.5c0 -68 -10.5 -122.667 -31.5 -164s-49.5 -71.5 -85.5 -90.5s-76 -28.5 -120 -28.5c-41.333 0 -80 7.83301 -116 23.5s-65.167 41.167 -87.5 76.5s-33.5 82 -33.5 140
c0 33.333 6.33301 63.166 19 89.499s29.667 48.666 51 66.999s45.166 32.166 71.499 41.499s52.833 14 79.5 14c24.667 0 46.5 -2 65.5 -6s33.833 -9 44.5 -15c-14 23.333 -30.333 44.166 -49 62.499s-38.334 34.166 -59.001 47.499l-43 -47l-59 54l29 34
c-11.333 5.33301 -24.333 11 -39 17s-29.667 11.667 -45 17l20 71c25.333 -7.33301 47.833 -14.166 67.5 -20.499s37.834 -13.5 54.501 -21.5l47 52l59 -56zM279.002 352.004c-40.667 0 -71.999 -11.999 -93.999 -35.999s-33 -58.333 -33 -103
c0 -46.667 10.167 -81.834 30.5 -105.501s50.833 -35.5 91.5 -35.5c28 0 51 7.83301 69 23.5s31.5 37 40.5 64s13.5 56.833 13.5 89.5c0 13.333 -0.833008 26.333 -2.5 39s-4.16699 25 -7.5 37c-12.667 8 -28.834 14.5 -48.501 19.5s-39.5 7.5 -59.5 7.5z" />
    <glyph glyph-name="ntilde" unicode="&#xf1;" horiz-adv-x="661" 
d="M45 0l-0.000976562 91h85v243l-96 33l29 91l139 -48c26 17.333 52.333 31 79 41s58.334 15 95.001 15c41.333 0 74.833 -8 100.5 -24s44.667 -38.167 57 -66.5s18.5 -60.5 18.5 -96.5v-188h83v-91h-238v91h42v173c0 32 -7 57.167 -21 75.5s-37 27.5 -69 27.5
c-19.333 0 -38.5 -3.33301 -57.5 -10s-35.167 -14.667 -48.5 -24v-242h41v-91h-239zM194.999 530l-29 63.002c22 16.667 41.5 28.834 58.5 36.501s37.5 11.5 61.5 11.5c18.667 0 35.167 -3.33301 49.5 -10s27.666 -13.334 39.999 -20.001s25.833 -10 40.5 -10
c13.333 0 25.166 2.16699 35.499 6.5s24.5 12.166 42.5 23.499l27 -64c-18.667 -17.333 -36.167 -29.833 -52.5 -37.5s-36.5 -11.834 -60.5 -12.501c-15.333 0 -29.666 3.33301 -42.999 10l-40.5 20.5c-13.667 7 -28.5 10.5 -44.5 10.5c-14.667 0 -27.667 -2.33301 -39 -7
s-26.666 -11.667 -45.999 -21z" />
    <glyph glyph-name="ograve" unicode="&#xf2;" horiz-adv-x="555" 
d="M276 466c50 0 92.668 -9.66602 128.001 -28.999s62.333 -47.166 81 -83.499s28 -79.833 28 -130.5c0 -76 -20.833 -135.333 -62.5 -178s-99.834 -64 -174.501 -64c-48.667 0 -90.5 9.66699 -125.5 29s-61.667 47.166 -80 83.499s-27.5 79.5 -27.5 129.5
c0 50.667 9.16699 94.167 27.5 130.5s45 64.166 80 83.499s76.833 29 125.5 29zM276.001 373.001c-40 0 -70.167 -12.833 -90.5 -38.5s-30.5 -62.834 -30.5 -111.501s10.167 -86 30.5 -112s50.5 -39 90.5 -39c41.333 0 72.333 13 93 39s31 63.333 31 112
s-10.333 85.834 -31 111.501s-51.667 38.5 -93 38.5zM278.001 509.001l-159 183l78 57l129 -207z" />
    <glyph glyph-name="oacute" unicode="&#xf3;" horiz-adv-x="555" 
d="M276 466c50 0 92.668 -9.66602 128.001 -28.999s62.333 -47.166 81 -83.499s28 -79.833 28 -130.5c0 -76 -20.833 -135.333 -62.5 -178s-99.834 -64 -174.501 -64c-48.667 0 -90.5 9.66699 -125.5 29s-61.667 47.166 -80 83.499s-27.5 79.5 -27.5 129.5
c0 50.667 9.16699 94.167 27.5 130.5s45 64.166 80 83.499s76.833 29 125.5 29zM276.001 373.001c-40 0 -70.167 -12.833 -90.5 -38.5s-30.5 -62.834 -30.5 -111.501s10.167 -86 30.5 -112s50.5 -39 90.5 -39c41.333 0 72.333 13 93 39s31 63.333 31 112
s-10.333 85.834 -31 111.501s-51.667 38.5 -93 38.5zM364.001 749.001l77 -57l-158 -183l-49 33z" />
    <glyph glyph-name="ocircumflex" unicode="&#xf4;" horiz-adv-x="555" 
d="M276 466c50 0 92.668 -9.66602 128.001 -28.999s62.333 -47.166 81 -83.499s28 -79.833 28 -130.5c0 -76 -20.833 -135.333 -62.5 -178s-99.834 -64 -174.501 -64c-48.667 0 -90.5 9.66699 -125.5 29s-61.667 47.166 -80 83.499s-27.5 79.5 -27.5 129.5
c0 50.667 9.16699 94.167 27.5 130.5s45 64.166 80 83.499s76.833 29 125.5 29zM276.001 373.001c-40 0 -70.167 -12.833 -90.5 -38.5s-30.5 -62.834 -30.5 -111.501s10.167 -86 30.5 -112s50.5 -39 90.5 -39c41.333 0 72.333 13 93 39s31 63.333 31 112
s-10.333 85.834 -31 111.501s-51.667 38.5 -93 38.5zM279.001 675.001l164 -115l-35 -50l-128 75l-136 -75l-33 50z" />
    <glyph glyph-name="otilde" unicode="&#xf5;" horiz-adv-x="555" 
d="M276 466c50 0 92.668 -9.66602 128.001 -28.999s62.333 -47.166 81 -83.499s28 -79.833 28 -130.5c0 -76 -20.833 -135.333 -62.5 -178s-99.834 -64 -174.501 -64c-48.667 0 -90.5 9.66699 -125.5 29s-61.667 47.166 -80 83.499s-27.5 79.5 -27.5 129.5
c0 50.667 9.16699 94.167 27.5 130.5s45 64.166 80 83.499s76.833 29 125.5 29zM276.001 373.001c-40 0 -70.167 -12.833 -90.5 -38.5s-30.5 -62.834 -30.5 -111.501s10.167 -86 30.5 -112s50.5 -39 90.5 -39c41.333 0 72.333 13 93 39s31 63.333 31 112
s-10.333 85.834 -31 111.501s-51.667 38.5 -93 38.5zM139.001 530.001l-29 63.002c22 16.667 41.5 28.834 58.5 36.501s37.5 11.5 61.5 11.5c18.667 0 35.167 -3.33301 49.5 -10s27.666 -13.334 39.999 -20.001s25.833 -10 40.5 -10c13.333 0 25.166 2.16699 35.499 6.5
s24.5 12.166 42.5 23.499l27 -64c-18.667 -17.333 -36.167 -29.833 -52.5 -37.5s-36.5 -11.834 -60.5 -12.501c-15.333 0 -29.666 3.33301 -42.999 10l-40.5 20.5c-13.667 7 -28.5 10.5 -44.5 10.5c-14.667 0 -27.667 -2.33301 -39 -7s-26.666 -11.667 -45.999 -21z" />
    <glyph glyph-name="odieresis" unicode="&#xf6;" horiz-adv-x="555" 
d="M276 466c50 0 92.668 -9.66602 128.001 -28.999s62.333 -47.166 81 -83.499s28 -79.833 28 -130.5c0 -76 -20.833 -135.333 -62.5 -178s-99.834 -64 -174.501 -64c-48.667 0 -90.5 9.66699 -125.5 29s-61.667 47.166 -80 83.499s-27.5 79.5 -27.5 129.5
c0 50.667 9.16699 94.167 27.5 130.5s45 64.166 80 83.499s76.833 29 125.5 29zM276.001 373.001c-40 0 -70.167 -12.833 -90.5 -38.5s-30.5 -62.834 -30.5 -111.501s10.167 -86 30.5 -112s50.5 -39 90.5 -39c41.333 0 72.333 13 93 39s31 63.333 31 112
s-10.333 85.834 -31 111.501s-51.667 38.5 -93 38.5zM373.001 658.001c18 0 33.833 -6.83301 47.5 -20.5s20.5 -29.834 20.5 -48.501s-6.83301 -34.667 -20.5 -48s-29.5 -20 -47.5 -20c-19.333 0 -35.666 6.66699 -48.999 20s-20 29.333 -20 48s6.66699 34.834 20 48.501
s29.666 20.5 48.999 20.5zM182.001 658.001c18 0 33.833 -6.83301 47.5 -20.5s20.5 -29.834 20.5 -48.501s-6.83301 -34.667 -20.5 -48s-29.5 -20 -47.5 -20c-18.667 0 -34.834 6.66699 -48.501 20s-20.5 29.333 -20.5 48s6.83301 34.834 20.5 48.501
s29.834 20.5 48.501 20.5z" />
    <glyph glyph-name="divide" unicode="&#xf7;" horiz-adv-x="495" 
d="M247 208c20 0 37.5 -7.66699 52.5 -23s22.5 -33 22.5 -53c0 -20.667 -7.5 -38.334 -22.5 -53.001s-32.5 -22 -52.5 -22c-21.333 0 -39.333 7.33301 -54 22s-22 32.334 -22 53.001c0 20 7.33301 37.667 22 53s32.667 23 54 23zM247 548c20 0 37.5 -7.5 52.5 -22.5
s22.5 -32.5 22.5 -52.5c0 -20.667 -7.5 -38.5 -22.5 -53.5s-32.5 -22.5 -52.5 -22.5c-21.333 0 -39.333 7.5 -54 22.5s-22 32.833 -22 53.5c0 20 7.33301 37.5 22 52.5s32.667 22.5 54 22.5zM445 354v-95h-395v95h395z" />
    <glyph glyph-name="oslash" unicode="&#xf8;" horiz-adv-x="555" 
d="M176 -76h-61l255 589h61zM276 466c50 0 92.668 -9.66602 128.001 -28.999s62.333 -47.166 81 -83.499s28 -79.833 28 -130.5c0 -76 -20.833 -135.333 -62.5 -178s-99.834 -64 -174.501 -64c-48.667 0 -90.5 9.66699 -125.5 29s-61.667 47.166 -80 83.499
s-27.5 79.5 -27.5 129.5c0 50.667 9.16699 94.167 27.5 130.5s45 64.166 80 83.499s76.833 29 125.5 29zM276.001 373.001c-40 0 -70.167 -12.833 -90.5 -38.5s-30.5 -62.834 -30.5 -111.501s10.167 -86 30.5 -112s50.5 -39 90.5 -39c41.333 0 72.333 13 93 39
s31 63.333 31 112s-10.333 85.834 -31 111.501s-51.667 38.5 -93 38.5z" />
    <glyph glyph-name="ugrave" unicode="&#xf9;" horiz-adv-x="636" 
d="M448 24c-22 -12.667 -46.333 -22.999 -73 -30.999s-51.667 -12 -75 -12c-68 0 -117.833 15 -149.5 45s-47.5 76.667 -47.5 140v191h-79v90h193v-264c0 -36 6.83301 -62 20.5 -78s35.834 -24 66.501 -24c15.333 0 33.166 2.66699 53.499 8s38.833 11.666 55.5 18.999v249
h-79v90h193v-340l88 -30l-31 -98zM294 509.001l-159 183l78 57l129 -207z" />
    <glyph glyph-name="uacute" unicode="&#xfa;" horiz-adv-x="636" 
d="M448 24c-22 -12.667 -46.333 -22.999 -73 -30.999s-51.667 -12 -75 -12c-68 0 -117.833 15 -149.5 45s-47.5 76.667 -47.5 140v191h-79v90h193v-264c0 -36 6.83301 -62 20.5 -78s35.834 -24 66.501 -24c15.333 0 33.166 2.66699 53.499 8s38.833 11.666 55.5 18.999v249
h-79v90h193v-340l88 -30l-31 -98zM380 749.001l77 -57l-158 -183l-49 33z" />
    <glyph glyph-name="ucircumflex" unicode="&#xfb;" horiz-adv-x="636" 
d="M448 24c-22 -12.667 -46.333 -22.999 -73 -30.999s-51.667 -12 -75 -12c-68 0 -117.833 15 -149.5 45s-47.5 76.667 -47.5 140v191h-79v90h193v-264c0 -36 6.83301 -62 20.5 -78s35.834 -24 66.501 -24c15.333 0 33.166 2.66699 53.499 8s38.833 11.666 55.5 18.999v249
h-79v90h193v-340l88 -30l-31 -98zM296 675.001l164 -115l-35 -50l-128 75l-136 -75l-33 50z" />
    <glyph glyph-name="udieresis" unicode="&#xfc;" horiz-adv-x="636" 
d="M448 24c-22 -12.667 -46.333 -22.999 -73 -30.999s-51.667 -12 -75 -12c-68 0 -117.833 15 -149.5 45s-47.5 76.667 -47.5 140v191h-79v90h193v-264c0 -36 6.83301 -62 20.5 -78s35.834 -24 66.501 -24c15.333 0 33.166 2.66699 53.499 8s38.833 11.666 55.5 18.999v249
h-79v90h193v-340l88 -30l-31 -98zM389 658.001c18 0 33.833 -6.83301 47.5 -20.5s20.5 -29.834 20.5 -48.501s-6.83301 -34.667 -20.5 -48s-29.5 -20 -47.5 -20c-19.333 0 -35.666 6.66699 -48.999 20s-20 29.333 -20 48s6.66699 34.834 20 48.501s29.666 20.5 48.999 20.5z
M198 658.001c18 0 33.833 -6.83301 47.5 -20.5s20.5 -29.834 20.5 -48.501s-6.83301 -34.667 -20.5 -48s-29.5 -20 -47.5 -20c-18.667 0 -34.834 6.66699 -48.501 20s-20.5 29.333 -20.5 48s6.83301 34.834 20.5 48.501s29.834 20.5 48.501 20.5z" />
    <glyph glyph-name="yacute" unicode="&#xfd;" horiz-adv-x="597" 
d="M150 -242c-13.333 0 -27.3301 1.5 -41.9971 4.5s-30 7.83301 -46 14.5l21 88c12 -4.66699 22.833 -8.16699 32.5 -10.5s20.167 -3.5 31.5 -3.5c16 0 29.5 3.83301 40.5 11.5s21.667 21 32 40s22.166 45.5 35.499 79.5l149 375h-52l5 90h235v-90h-77l-184 -433
c-24.667 -58.667 -51.334 -101 -80.001 -127s-62.334 -39 -101.001 -39zM276.003 -66l-198 423h-73v90h244v-90h-55l135 -319zM389.003 749l77 -57l-158 -183l-49 33z" />
    <glyph glyph-name="thorn" unicode="&#xfe;" horiz-adv-x="550" 
d="M182 436c13.333 8 28.998 14.3311 46.998 18.998s36.333 7 55 7c70 0 125.333 -20.667 166 -62s61 -98.666 61 -171.999c0 -50 -9.66699 -93.667 -29 -131s-46.666 -66.166 -81.999 -86.499s-77 -30.5 -125 -30.5c-17.333 0 -33.666 1 -48.999 3s-30 5 -44 9v-122h84v-90
h-281v90h84v672l-100 34l33 97l180 -62v-175zM181.998 88.998c8 -3.33301 20.166 -7.16504 36.499 -11.498s34.5 -6.5 54.5 -6.5c40 0 70.333 13.833 91 41.5s31 65.5 31 113.5c0 46 -10.167 81.333 -30.5 106s-49.5 37 -87.5 37c-12 0 -24.167 -1.83301 -36.5 -5.5
s-23.666 -7.83398 -33.999 -12.501s-18.5 -9.33398 -24.5 -14.001v-248z" />
    <glyph glyph-name="ydieresis" unicode="&#xff;" horiz-adv-x="597" 
d="M150 -242c-13.333 0 -27.3301 1.5 -41.9971 4.5s-30 7.83301 -46 14.5l21 88c12 -4.66699 22.833 -8.16699 32.5 -10.5s20.167 -3.5 31.5 -3.5c16 0 29.5 3.83301 40.5 11.5s21.667 21 32 40s22.166 45.5 35.499 79.5l149 375h-52l5 90h235v-90h-77l-184 -433
c-24.667 -58.667 -51.334 -101 -80.001 -127s-62.334 -39 -101.001 -39zM276.003 -66l-198 423h-73v90h244v-90h-55l135 -319zM398.003 658c18 0 33.833 -6.83301 47.5 -20.5s20.5 -29.834 20.5 -48.501s-6.83301 -34.667 -20.5 -48s-29.5 -20 -47.5 -20
c-19.333 0 -35.666 6.66699 -48.999 20s-20 29.333 -20 48s6.66699 34.834 20 48.501s29.666 20.5 48.999 20.5zM207.003 658c18 0 33.833 -6.83301 47.5 -20.5s20.5 -29.834 20.5 -48.501s-6.83301 -34.667 -20.5 -48s-29.5 -20 -47.5 -20
c-18.667 0 -34.834 6.66699 -48.501 20s-20.5 29.333 -20.5 48s6.83301 34.834 20.5 48.501s29.834 20.5 48.501 20.5z" />
    <glyph glyph-name="Amacron" unicode="&#x100;" horiz-adv-x="680" 
d="M6 0v101h99l151 387h-84v101h227l184 -488h90v-101h-259v101h53l-31 86h-199l-31 -86h58v-101h-258zM266 266h143l-70 209zM163 760h334v-76h-334v76z" />
    <glyph glyph-name="amacron" unicode="&#x101;" horiz-adv-x="551" 
d="M370 20c-46.667 -26 -94.332 -39 -142.999 -39c-62 0 -109.167 12 -141.5 36s-48.5 59 -48.5 105c-0.666992 92.667 60.333 139 183 139h112c0 40.667 -8.33301 70.5 -25 89.5s-38.334 28.5 -65.001 28.5c-14.667 0 -28.5 -1 -41.5 -3s-25.833 -5 -38.5 -9l-9 -49l-94 13
l18 106c26.667 9.33301 53.834 16.5 81.501 21.5s56.5 7.5 86.5 7.5c65.333 0 115.166 -17.167 149.499 -51.5s51.5 -84.833 51.5 -151.5v-166l84 -27l-31 -94zM223.002 187c-22.667 0 -40.001 -5.66699 -52.001 -17s-18 -27 -18 -47c0 -38 26 -57 78 -57
c36.667 0 70.334 9.66699 101.001 29v91zM80.001 618h334v-76h-334v76z" />
    <glyph glyph-name="Abreve" unicode="&#x102;" horiz-adv-x="680" 
d="M6 0v101h99l151 387h-84v101h227l184 -488h90v-101h-259v101h53l-31 86h-199l-31 -86h58v-101h-258zM266 266h143l-70 209zM330 658c-102.667 0 -160.333 46.667 -173 140l78 11c4 -50.667 35.667 -76 95 -76c60.667 0 93 25.333 97 76l78 -11
c-12.667 -93.333 -71 -140 -175 -140z" />
    <glyph glyph-name="abreve" unicode="&#x103;" horiz-adv-x="551" 
d="M370 20c-46.667 -26 -94.332 -39 -142.999 -39c-62 0 -109.167 12 -141.5 36s-48.5 59 -48.5 105c-0.666992 92.667 60.333 139 183 139h112c0 40.667 -8.33301 70.5 -25 89.5s-38.334 28.5 -65.001 28.5c-14.667 0 -28.5 -1 -41.5 -3s-25.833 -5 -38.5 -9l-9 -49l-94 13
l18 106c26.667 9.33301 53.834 16.5 81.501 21.5s56.5 7.5 86.5 7.5c65.333 0 115.166 -17.167 149.499 -51.5s51.5 -84.833 51.5 -151.5v-166l84 -27l-31 -94zM223.002 187c-22.667 0 -40.001 -5.66699 -52.001 -17s-18 -27 -18 -47c0 -38 26 -57 78 -57
c36.667 0 70.334 9.66699 101.001 29v91zM246.001 516c-102.667 0 -160.333 46.667 -173 140l78 11c4 -50.667 35.667 -76 95 -76c60.667 0 93 25.333 97 76l78 -11c-12.667 -93.333 -71 -140 -175 -140z" />
    <glyph glyph-name="Aogonek" unicode="&#x104;" horiz-adv-x="680" 
d="M6 0v101h99l151 387h-84v101h227l184 -488h90v-101h-259v101h53l-31 86h-199l-31 -86h58v-101h-258zM266 266h143l-70 209zM533 30l32.0039 -29.999c-30.667 -16 -52.334 -33 -65.001 -51s-19 -37.333 -19 -58c0 -14.667 5.66699 -26.334 17 -35.001
s25.666 -13 42.999 -13c15.333 0 31.666 3.33301 48.999 10v-72c-16 -7.33301 -31.5 -12.333 -46.5 -15s-29.167 -4 -42.5 -4c-40 0 -71.167 8.83301 -93.5 26.5s-33.5 40.167 -33.5 67.5c0 35.333 12.667 67.5 38 96.5s65.666 54.833 120.999 77.5z" />
    <glyph glyph-name="aogonek" unicode="&#x105;" horiz-adv-x="551" 
d="M370 20c-46.667 -26 -94.332 -39 -142.999 -39c-62 0 -109.167 12 -141.5 36s-48.5 59 -48.5 105c-0.666992 92.667 60.333 139 183 139h112c0 40.667 -8.33301 70.5 -25 89.5s-38.334 28.5 -65.001 28.5c-14.667 0 -28.5 -1 -41.5 -3s-25.833 -5 -38.5 -9l-9 -49l-94 13
l18 106c26.667 9.33301 53.834 16.5 81.501 21.5s56.5 7.5 86.5 7.5c65.333 0 115.166 -17.167 149.499 -51.5s51.5 -84.833 51.5 -151.5v-166l84 -27l-31 -94zM223.002 187c-22.667 0 -40.001 -5.66699 -52.001 -17s-18 -27 -18 -47c0 -38 26 -57 78 -57
c36.667 0 70.334 9.66699 101.001 29v91zM467.001 6l32.0039 -29.999c-30.667 -16 -52.334 -33 -65.001 -51s-19 -37.333 -19 -58c0 -14.667 5.66699 -26.334 17 -35.001s25.666 -13 42.999 -13c15.333 0 31.666 3.33301 48.999 10v-72
c-16 -7.33301 -31.5 -12.333 -46.5 -15s-29.167 -4 -42.5 -4c-40 0 -71.167 8.83301 -93.5 26.5s-33.5 40.167 -33.5 67.5c0 35.333 12.667 67.5 38 96.5s65.666 54.833 120.999 77.5z" />
    <glyph glyph-name="Cacute" unicode="&#x106;" horiz-adv-x="607" 
d="M446 494c-2 1.33301 -8.16797 3.3291 -18.501 5.99609s-22.833 5.33398 -37.5 8.00098s-30 4 -46 4c-58 0 -102.667 -18.667 -134 -56s-47 -90.666 -47 -159.999c0 -70 16 -124 48 -162s76.333 -57 133 -57c16.667 0 32.334 2 47.001 6s27 7.83301 37 11.5
s16 5.83398 18 6.50098l21 87l97 -22l-30 -142l-24 -11c-16 -7.33301 -38.333 -14.666 -67 -21.999s-61.667 -11 -99 -11c-60 0 -112.5 11.5 -157.5 34.5s-80.167 58 -105.5 105s-38 105.833 -38 176.5c0 65.333 12.333 121.333 37 168s59.667 82.5 105 107.5
s98 37.5 158 37.5c42 0 77.5 -4.16699 106.5 -12.5s50.833 -16.833 65.5 -25.5l22 -13l28 -141l-98 -22zM495.999 791.996l26 -95l-253 -39l-16 45z" />
    <glyph glyph-name="cacute" unicode="&#x107;" horiz-adv-x="497" 
d="M350 369c-12 4 -23.499 6.66699 -34.499 8s-22.167 2 -33.5 2c-40.667 0 -72 -13.333 -94 -40s-33 -66.334 -33 -119.001c0 -46 12 -82 36 -108s53.333 -39 88 -39c22 0 44.667 4.16699 68 12.5s46.333 20.5 69 36.5l46 -68c-19.333 -14.667 -38.333 -27.5 -57 -38.5
s-38.334 -19.5 -59.001 -25.5s-44 -9 -70 -9c-48 0 -89.833 9.16699 -125.5 27.5s-63.167 45.333 -82.5 81s-29 79.167 -29 130.5c0 54 9.66699 99.333 29 136s47 64.334 83 83.001s79.333 28 130 28c26 0 51.833 -2.5 77.5 -7.5s51.167 -12.167 76.5 -21.5l25 -129l-96 -21
zM368.001 749l77 -57l-158 -183l-49 33z" />
    <glyph glyph-name="Ccircumflex" unicode="&#x108;" horiz-adv-x="607" 
d="M446 494c-2 1.33301 -8.16797 3.3291 -18.501 5.99609s-22.833 5.33398 -37.5 8.00098s-30 4 -46 4c-58 0 -102.667 -18.667 -134 -56s-47 -90.666 -47 -159.999c0 -70 16 -124 48 -162s76.333 -57 133 -57c16.667 0 32.334 2 47.001 6s27 7.83301 37 11.5
s16 5.83398 18 6.50098l21 87l97 -22l-30 -142l-24 -11c-16 -7.33301 -38.333 -14.666 -67 -21.999s-61.667 -11 -99 -11c-60 0 -112.5 11.5 -157.5 34.5s-80.167 58 -105.5 105s-38 105.833 -38 176.5c0 65.333 12.333 121.333 37 168s59.667 82.5 105 107.5
s98 37.5 158 37.5c42 0 77.5 -4.16699 106.5 -12.5s50.833 -16.833 65.5 -25.5l22 -13l28 -141l-98 -22zM339.999 793.996l180 -104l-31 -43l-148 59l-153 -59l-28 43z" />
    <glyph glyph-name="ccircumflex" unicode="&#x109;" horiz-adv-x="497" 
d="M350 369c-12 4 -23.499 6.66699 -34.499 8s-22.167 2 -33.5 2c-40.667 0 -72 -13.333 -94 -40s-33 -66.334 -33 -119.001c0 -46 12 -82 36 -108s53.333 -39 88 -39c22 0 44.667 4.16699 68 12.5s46.333 20.5 69 36.5l46 -68c-19.333 -14.667 -38.333 -27.5 -57 -38.5
s-38.334 -19.5 -59.001 -25.5s-44 -9 -70 -9c-48 0 -89.833 9.16699 -125.5 27.5s-63.167 45.333 -82.5 81s-29 79.167 -29 130.5c0 54 9.66699 99.333 29 136s47 64.334 83 83.001s79.333 28 130 28c26 0 51.833 -2.5 77.5 -7.5s51.167 -12.167 76.5 -21.5l25 -129l-96 -21
zM283.001 675l164 -115l-35 -50l-128 75l-136 -75l-33 50z" />
    <glyph glyph-name="Cdotaccent" unicode="&#x10a;" horiz-adv-x="607" 
d="M446 494c-2 1.33301 -8.16797 3.3291 -18.501 5.99609s-22.833 5.33398 -37.5 8.00098s-30 4 -46 4c-58 0 -102.667 -18.667 -134 -56s-47 -90.666 -47 -159.999c0 -70 16 -124 48 -162s76.333 -57 133 -57c16.667 0 32.334 2 47.001 6s27 7.83301 37 11.5
s16 5.83398 18 6.50098l21 87l97 -22l-30 -142l-24 -11c-16 -7.33301 -38.333 -14.666 -67 -21.999s-61.667 -11 -99 -11c-60 0 -112.5 11.5 -157.5 34.5s-80.167 58 -105.5 105s-38 105.833 -38 176.5c0 65.333 12.333 121.333 37 168s59.667 82.5 105 107.5
s98 37.5 158 37.5c42 0 77.5 -4.16699 106.5 -12.5s50.833 -16.833 65.5 -25.5l22 -13l28 -141l-98 -22zM339.999 805.996c20.667 0 37.334 -6.33301 50.001 -19s19 -29.334 19 -50.001s-6.33301 -37.334 -19 -50.001s-29.334 -19 -50.001 -19s-37.167 6.33301 -49.5 19
s-18.5 29.334 -18.5 50.001s6.16699 37.334 18.5 50.001s28.833 19 49.5 19z" />
    <glyph glyph-name="cdotaccent" unicode="&#x10b;" horiz-adv-x="497" 
d="M350 369c-12 4 -23.499 6.66699 -34.499 8s-22.167 2 -33.5 2c-40.667 0 -72 -13.333 -94 -40s-33 -66.334 -33 -119.001c0 -46 12 -82 36 -108s53.333 -39 88 -39c22 0 44.667 4.16699 68 12.5s46.333 20.5 69 36.5l46 -68c-19.333 -14.667 -38.333 -27.5 -57 -38.5
s-38.334 -19.5 -59.001 -25.5s-44 -9 -70 -9c-48 0 -89.833 9.16699 -125.5 27.5s-63.167 45.333 -82.5 81s-29 79.167 -29 130.5c0 54 9.66699 99.333 29 136s47 64.334 83 83.001s79.333 28 130 28c26 0 51.833 -2.5 77.5 -7.5s51.167 -12.167 76.5 -21.5l25 -129l-96 -21
zM281.001 664c20.667 0 37.334 -6.33301 50.001 -19s19 -29.334 19 -50.001s-6.33301 -37.334 -19 -50.001s-29.334 -19 -50.001 -19s-37.167 6.33301 -49.5 19s-18.5 29.334 -18.5 50.001s6.16699 37.334 18.5 50.001s28.833 19 49.5 19z" />
    <glyph glyph-name="Ccaron" unicode="&#x10c;" horiz-adv-x="607" 
d="M446 494c-2 1.33301 -8.16797 3.3291 -18.501 5.99609s-22.833 5.33398 -37.5 8.00098s-30 4 -46 4c-58 0 -102.667 -18.667 -134 -56s-47 -90.666 -47 -159.999c0 -70 16 -124 48 -162s76.333 -57 133 -57c16.667 0 32.334 2 47.001 6s27 7.83301 37 11.5
s16 5.83398 18 6.50098l21 87l97 -22l-30 -142l-24 -11c-16 -7.33301 -38.333 -14.666 -67 -21.999s-61.667 -11 -99 -11c-60 0 -112.5 11.5 -157.5 34.5s-80.167 58 -105.5 105s-38 105.833 -38 176.5c0 65.333 12.333 121.333 37 168s59.667 82.5 105 107.5
s98 37.5 158 37.5c42 0 77.5 -4.16699 106.5 -12.5s50.833 -16.833 65.5 -25.5l22 -13l28 -141l-98 -22zM341.999 641.996l-168 115l33 50l136 -75l128 75l35 -50z" />
    <glyph glyph-name="ccaron" unicode="&#x10d;" horiz-adv-x="497" 
d="M350 369c-12 4 -23.499 6.66699 -34.499 8s-22.167 2 -33.5 2c-40.667 0 -72 -13.333 -94 -40s-33 -66.334 -33 -119.001c0 -46 12 -82 36 -108s53.333 -39 88 -39c22 0 44.667 4.16699 68 12.5s46.333 20.5 69 36.5l46 -68c-19.333 -14.667 -38.333 -27.5 -57 -38.5
s-38.334 -19.5 -59.001 -25.5s-44 -9 -70 -9c-48 0 -89.833 9.16699 -125.5 27.5s-63.167 45.333 -82.5 81s-29 79.167 -29 130.5c0 54 9.66699 99.333 29 136s47 64.334 83 83.001s79.333 28 130 28c26 0 51.833 -2.5 77.5 -7.5s51.167 -12.167 76.5 -21.5l25 -129l-96 -21
zM282.001 500l-168 115l33 50l136 -75l128 75l35 -50z" />
    <glyph glyph-name="Dcaron" unicode="&#x10e;" horiz-adv-x="670" 
d="M315 589c98.667 0 175.667 -27 231 -81s83 -128.667 83 -224c0 -89.333 -27 -159 -81 -209s-129 -75 -225 -75h-282v101h85v387h-85v101h274zM305 101c66.667 0 117.167 15.333 151.5 46s51.5 76 51.5 136c0 67.333 -16.333 118.333 -49 153s-80.667 52 -144 52h-73v-387
h63zM299 638l-180 104l28 43l153 -59l148 59l31 -43z" />
    <glyph glyph-name="dcaron" unicode="&#x10f;" horiz-adv-x="588" 
d="M537 -24l-127.999 44c-38.667 -26 -83 -39 -133 -39c-74.667 0 -132.667 21.667 -174 65s-62 104 -62 182c0 74.667 20.667 133 62 175s99.333 63 174 63c14 0 29.167 -1.5 45.5 -4.5s32.166 -7.16699 47.499 -12.5v93l-99 34l32 96l180 -62v-508l86 -29zM277.001 72
c14 0 29.5 2.33398 46.5 7.00098s32.167 11 45.5 19v256c-12 5.33301 -26.5 9.83301 -43.5 13.5s-33.167 5.5 -48.5 5.5c-36.667 0 -66.167 -13.167 -88.5 -39.5s-33.5 -61.5 -33.5 -105.5c0 -46.667 11.167 -84.334 33.5 -113.001s51.833 -43 88.5 -43zM421.001 675.001
l-168 115l33 50l136 -75l128 75l35 -50z" />
    <glyph glyph-name="Dcroat" unicode="&#x110;" horiz-adv-x="686" 
d="M330 589c64 0 119.333 -9.83398 166 -29.501s83 -51.667 109 -96s39 -104.166 39 -179.499c0 -68 -13.333 -122.833 -40 -164.5s-63 -72 -109 -91s-98.333 -28.5 -157 -28.5h-282v101h85v154h-85v99h85v134h-85v101h274zM320 100.999c46 0 83.998 5.33105 113.998 15.998
s52.333 29.334 67 56.001s22 63.334 22 110.001c0 53.333 -7.16699 94.833 -21.5 124.5s-35.666 50.5 -63.999 62.5s-64.166 18 -107.499 18h-73v-134h96v-99h-96v-154h63z" />
    <glyph glyph-name="dcroat" unicode="&#x111;" horiz-adv-x="588" 
d="M537 -24l-127.999 44c-38.667 -26 -83 -39 -133 -39c-74.667 0 -132.667 20.167 -174 60.5s-62 96.5 -62 168.5c0 69.333 20.667 123.833 62 163.5s99.333 59.5 174 59.5c14 0 29.167 -1.5 45.5 -4.5s32.166 -7.16699 47.499 -12.5v126l-99 34l32 96l180 -62v-508l86 -29
zM277.001 72c15.333 0 31.168 2.33301 47.501 7s31.166 11 44.499 19v222c-12 6 -26.5 10.833 -43.5 14.5s-33.167 5.5 -48.5 5.5c-36.667 0 -66.167 -12 -88.5 -36s-33.5 -55 -33.5 -93c0 -42 11.167 -75.667 33.5 -101s51.833 -38 88.5 -38zM236.003 523h327v-61h-327v61z
" />
    <glyph glyph-name="Emacron" unicode="&#x112;" horiz-adv-x="609" 
d="M42 589h454l59 -177l-95 -32l-38 108h-179v-138h170v-100h-170v-149h204l37 100l94 -33l-58 -168h-479v101h85l1 387h-85v101zM131 760h334v-76h-334v76z" />
    <glyph glyph-name="emacron" unicode="&#x113;" horiz-adv-x="521" 
d="M474 55c-30 -25.333 -60.667 -43.9951 -92 -55.9951s-63.666 -18 -96.999 -18c-50 0 -93.833 10.167 -131.5 30.5s-66.834 48.666 -87.501 84.999s-31 78.166 -31 125.499c0 49.333 9.83301 92.166 29.5 128.499s46.834 64.666 81.501 84.999s75 30.5 121 30.5
s86 -9.33301 120 -28s60.333 -44.834 79 -78.501s28 -73.167 28 -118.5c0 -8 -0.5 -17 -1.5 -27s-2.16699 -19.667 -3.5 -29h-344c2 -26 9.66699 -47.5 23 -64.5s30.166 -29.5 50.499 -37.5s42.5 -12 66.5 -12c28 0 54.667 4.5 80 13.5s48.333 21.833 69 38.5zM381 263.005
c-0.666992 33.333 -10.832 60.166 -30.499 80.499s-46.5 30.5 -80.5 30.5c-32 0 -59.833 -10.167 -83.5 -30.5s-36.834 -47.166 -39.501 -80.499h234zM96.002 618.005h334v-76h-334v76z" />
    <glyph glyph-name="Ebreve" unicode="&#x114;" horiz-adv-x="609" 
d="M42 589h454l59 -177l-95 -32l-38 108h-179v-138h170v-100h-170v-149h204l37 100l94 -33l-58 -168h-479v101h85l1 387h-85v101zM298 658c-102.667 0 -160.333 46.667 -173 140l78 11c4 -50.667 35.667 -76 95 -76c60.667 0 93 25.333 97 76l78 -11
c-12.667 -93.333 -71 -140 -175 -140z" />
    <glyph glyph-name="ebreve" unicode="&#x115;" horiz-adv-x="521" 
d="M474 55c-30 -25.333 -60.667 -43.9951 -92 -55.9951s-63.666 -18 -96.999 -18c-50 0 -93.833 10.167 -131.5 30.5s-66.834 48.666 -87.501 84.999s-31 78.166 -31 125.499c0 49.333 9.83301 92.166 29.5 128.499s46.834 64.666 81.501 84.999s75 30.5 121 30.5
s86 -9.33301 120 -28s60.333 -44.834 79 -78.501s28 -73.167 28 -118.5c0 -8 -0.5 -17 -1.5 -27s-2.16699 -19.667 -3.5 -29h-344c2 -26 9.66699 -47.5 23 -64.5s30.166 -29.5 50.499 -37.5s42.5 -12 66.5 -12c28 0 54.667 4.5 80 13.5s48.333 21.833 69 38.5zM381 263.005
c-0.666992 33.333 -10.832 60.166 -30.499 80.499s-46.5 30.5 -80.5 30.5c-32 0 -59.833 -10.167 -83.5 -30.5s-36.834 -47.166 -39.501 -80.499h234zM262.002 516.005c-102.667 0 -160.333 46.667 -173 140l78 11c4 -50.667 35.667 -76 95 -76c60.667 0 93 25.333 97 76
l78 -11c-12.667 -93.333 -71 -140 -175 -140z" />
    <glyph glyph-name="Edotaccent" unicode="&#x116;" horiz-adv-x="609" 
d="M42 589h454l59 -177l-95 -32l-38 108h-179v-138h170v-100h-170v-149h204l37 100l94 -33l-58 -168h-479v101h85l1 387h-85v101zM298 806c20.667 0 37.334 -6.33301 50.001 -19s19 -29.334 19 -50.001s-6.33301 -37.334 -19 -50.001s-29.334 -19 -50.001 -19
s-37.167 6.33301 -49.5 19s-18.5 29.334 -18.5 50.001s6.16699 37.334 18.5 50.001s28.833 19 49.5 19z" />
    <glyph glyph-name="edotaccent" unicode="&#x117;" horiz-adv-x="521" 
d="M474 55c-30 -25.333 -60.667 -43.9951 -92 -55.9951s-63.666 -18 -96.999 -18c-50 0 -93.833 10.167 -131.5 30.5s-66.834 48.666 -87.501 84.999s-31 78.166 -31 125.499c0 49.333 9.83301 92.166 29.5 128.499s46.834 64.666 81.501 84.999s75 30.5 121 30.5
s86 -9.33301 120 -28s60.333 -44.834 79 -78.501s28 -73.167 28 -118.5c0 -8 -0.5 -17 -1.5 -27s-2.16699 -19.667 -3.5 -29h-344c2 -26 9.66699 -47.5 23 -64.5s30.166 -29.5 50.499 -37.5s42.5 -12 66.5 -12c28 0 54.667 4.5 80 13.5s48.333 21.833 69 38.5zM381 263.005
c-0.666992 33.333 -10.832 60.166 -30.499 80.499s-46.5 30.5 -80.5 30.5c-32 0 -59.833 -10.167 -83.5 -30.5s-36.834 -47.166 -39.501 -80.499h234zM263.002 664.005c20.667 0 37.334 -6.33301 50.001 -19s19 -29.334 19 -50.001s-6.33301 -37.334 -19 -50.001
s-29.334 -19 -50.001 -19s-37.167 6.33301 -49.5 19s-18.5 29.334 -18.5 50.001s6.16699 37.334 18.5 50.001s28.833 19 49.5 19z" />
    <glyph glyph-name="Eogonek" unicode="&#x118;" horiz-adv-x="609" 
d="M42 589h454l59 -177l-95 -32l-38 108h-179v-138h170v-100h-170v-149h204l37 100l94 -33l-58 -168h-479v101h85l1 387h-85v101zM488 30l32.0039 -29.999c-30.667 -16 -52.334 -33 -65.001 -51s-19 -37.333 -19 -58c0 -14.667 5.66699 -26.334 17 -35.001
s25.666 -13 42.999 -13c15.333 0 31.666 3.33301 48.999 10v-72c-16 -7.33301 -31.5 -12.333 -46.5 -15s-29.167 -4 -42.5 -4c-40 0 -71.167 8.83301 -93.5 26.5s-33.5 40.167 -33.5 67.5c0 35.333 12.667 67.5 38 96.5s65.666 54.833 120.999 77.5z" />
    <glyph glyph-name="eogonek" unicode="&#x119;" horiz-adv-x="521" 
d="M474 55c-30 -25.333 -60.667 -43.9951 -92 -55.9951s-63.666 -18 -96.999 -18c-50 0 -93.833 10.167 -131.5 30.5s-66.834 48.666 -87.501 84.999s-31 78.166 -31 125.499c0 49.333 9.83301 92.166 29.5 128.499s46.834 64.666 81.501 84.999s75 30.5 121 30.5
s86 -9.33301 120 -28s60.333 -44.834 79 -78.501s28 -73.167 28 -118.5c0 -8 -0.5 -17 -1.5 -27s-2.16699 -19.667 -3.5 -29h-344c2 -26 9.66699 -47.5 23 -64.5s30.166 -29.5 50.499 -37.5s42.5 -12 66.5 -12c28 0 54.667 4.5 80 13.5s48.333 21.833 69 38.5zM381 263.005
c-0.666992 33.333 -10.832 60.166 -30.499 80.499s-46.5 30.5 -80.5 30.5c-32 0 -59.833 -10.167 -83.5 -30.5s-36.834 -47.166 -39.501 -80.499h234zM400.002 55.0049l32.0039 -29.999c-30.667 -16 -52.334 -33 -65.001 -51s-19 -37.333 -19 -58
c0 -14.667 5.66699 -26.334 17 -35.001s25.666 -13 42.999 -13c15.333 0 31.666 3.33301 48.999 10v-72c-16 -7.33301 -31.5 -12.333 -46.5 -15s-29.167 -4 -42.5 -4c-40 0 -71.167 8.83301 -93.5 26.5s-33.5 40.167 -33.5 67.5c0 35.333 12.667 67.5 38 96.5
s65.666 54.833 120.999 77.5z" />
    <glyph glyph-name="Ecaron" unicode="&#x11a;" horiz-adv-x="609" 
d="M42 589h454l59 -177l-95 -32l-38 108h-179v-138h170v-100h-170v-149h204l37 100l94 -33l-58 -168h-479v101h85l1 387h-85v101zM299 642l-168 115l33 50l136 -75l128 75l35 -50z" />
    <glyph glyph-name="ecaron" unicode="&#x11b;" horiz-adv-x="521" 
d="M474 55c-30 -25.333 -60.667 -43.9951 -92 -55.9951s-63.666 -18 -96.999 -18c-50 0 -93.833 10.167 -131.5 30.5s-66.834 48.666 -87.501 84.999s-31 78.166 -31 125.499c0 49.333 9.83301 92.166 29.5 128.499s46.834 64.666 81.501 84.999s75 30.5 121 30.5
s86 -9.33301 120 -28s60.333 -44.834 79 -78.501s28 -73.167 28 -118.5c0 -8 -0.5 -17 -1.5 -27s-2.16699 -19.667 -3.5 -29h-344c2 -26 9.66699 -47.5 23 -64.5s30.166 -29.5 50.499 -37.5s42.5 -12 66.5 -12c28 0 54.667 4.5 80 13.5s48.333 21.833 69 38.5zM381 263.005
c-0.666992 33.333 -10.832 60.166 -30.499 80.499s-46.5 30.5 -80.5 30.5c-32 0 -59.833 -10.167 -83.5 -30.5s-36.834 -47.166 -39.501 -80.499h234zM264.002 500.005l-168 115l33 50l136 -75l128 75l35 -50z" />
    <glyph glyph-name="Gcircumflex" unicode="&#x11c;" horiz-adv-x="626" 
d="M565 58c-21.333 -14.667 -42.5 -27.999 -63.5 -39.999s-44.167 -21.333 -69.5 -28s-55.333 -10 -90 -10c-58.667 0 -110.5 12.667 -155.5 38s-80.333 61.5 -106 108.5s-38.5 102.833 -38.5 167.5c0 63.333 12.167 118.5 36.5 165.5s59.166 83.5 104.499 109.5
s99.333 39 162 39c40 0 76.667 -5.16699 110 -15.5s62.333 -24.833 87 -43.5l30 -134l-95 -23l-23 96c-16 9.33301 -32.5 15.833 -49.5 19.5s-35.833 5.5 -56.5 5.5c-32 0 -62.167 -8.83301 -90.5 -26.5s-51.166 -42.834 -68.499 -75.501s-26 -71.667 -26 -117
s7.66699 -84 23 -116s36.333 -56.5 63 -73.5s57 -25.5 91 -25.5c24 0 44.667 2.5 62 7.5s35 11.833 53 20.5v104h-128v92h238v-245zM348 794.001l180 -104l-31 -43l-148 59l-153 -59l-28 43z" />
    <glyph glyph-name="gcircumflex" unicode="&#x11d;" horiz-adv-x="574" 
d="M246 115c-67.333 0 -119.832 14.5 -157.499 43.5s-56.5 70.167 -56.5 123.5c0 56.667 19.5 101.5 58.5 134.5s91.167 49.5 156.5 49.5c25.333 0 47.666 -2 66.999 -6s38 -11 56 -21l151 53l35 -99l-122 -19c11.333 -12 19 -26 23 -42s6 -31 6 -45
c0 -40.667 -9.83301 -73.667 -29.5 -99s-46 -43.833 -79 -55.5s-69.167 -17.5 -108.5 -17.5zM254.001 -241c-36.667 0 -69.998 2.83301 -99.998 8.5s-56 12.667 -78 21s-39.333 15.5 -52 21.5l41 89c31.333 -13.333 62.333 -23.833 93 -31.5s62.667 -11.5 96 -11.5
c30 0 53.833 2.5 71.5 7.5s30.167 11.667 37.5 20s11 17.166 11 26.499c0 14 -5.33301 25.333 -16 34s-32.334 13 -65.001 13h-157v195l90 -20v-81h81c59.333 0 103.666 -12.167 132.999 -36.5s44 -58.833 44 -103.5c0 -36 -10.333 -65.167 -31 -87.5
s-48.5 -38.666 -83.5 -48.999s-73.5 -15.5 -115.5 -15.5zM248.003 200c34 0 60.667 8.16699 80 24.5s29 37.5 29 63.5c0 30 -9.5 52.833 -28.5 68.5s-45.833 23.5 -80.5 23.5s-61.5 -7.83301 -80.5 -23.5s-28.5 -38.5 -28.5 -68.5c0 -26 9.66699 -47.167 29 -63.5
s46 -24.5 80 -24.5zM249.003 675l164 -115l-35 -50l-128 75l-136 -75l-33 50z" />
    <glyph glyph-name="Gbreve" unicode="&#x11e;" horiz-adv-x="626" 
d="M565 58c-21.333 -14.667 -42.5 -27.999 -63.5 -39.999s-44.167 -21.333 -69.5 -28s-55.333 -10 -90 -10c-58.667 0 -110.5 12.667 -155.5 38s-80.333 61.5 -106 108.5s-38.5 102.833 -38.5 167.5c0 63.333 12.167 118.5 36.5 165.5s59.166 83.5 104.499 109.5
s99.333 39 162 39c40 0 76.667 -5.16699 110 -15.5s62.333 -24.833 87 -43.5l30 -134l-95 -23l-23 96c-16 9.33301 -32.5 15.833 -49.5 19.5s-35.833 5.5 -56.5 5.5c-32 0 -62.167 -8.83301 -90.5 -26.5s-51.166 -42.834 -68.499 -75.501s-26 -71.667 -26 -117
s7.66699 -84 23 -116s36.333 -56.5 63 -73.5s57 -25.5 91 -25.5c24 0 44.667 2.5 62 7.5s35 11.833 53 20.5v104h-128v92h238v-245zM347 658.001c-102.667 0 -160.333 46.667 -173 140l78 11c4 -50.667 35.667 -76 95 -76c60.667 0 93 25.333 97 76l78 -11
c-12.667 -93.333 -71 -140 -175 -140z" />
    <glyph glyph-name="gbreve" unicode="&#x11f;" horiz-adv-x="574" 
d="M246 115c-67.333 0 -119.832 14.5 -157.499 43.5s-56.5 70.167 -56.5 123.5c0 56.667 19.5 101.5 58.5 134.5s91.167 49.5 156.5 49.5c25.333 0 47.666 -2 66.999 -6s38 -11 56 -21l151 53l35 -99l-122 -19c11.333 -12 19 -26 23 -42s6 -31 6 -45
c0 -40.667 -9.83301 -73.667 -29.5 -99s-46 -43.833 -79 -55.5s-69.167 -17.5 -108.5 -17.5zM254.001 -241c-36.667 0 -69.998 2.83301 -99.998 8.5s-56 12.667 -78 21s-39.333 15.5 -52 21.5l41 89c31.333 -13.333 62.333 -23.833 93 -31.5s62.667 -11.5 96 -11.5
c30 0 53.833 2.5 71.5 7.5s30.167 11.667 37.5 20s11 17.166 11 26.499c0 14 -5.33301 25.333 -16 34s-32.334 13 -65.001 13h-157v195l90 -20v-81h81c59.333 0 103.666 -12.167 132.999 -36.5s44 -58.833 44 -103.5c0 -36 -10.333 -65.167 -31 -87.5
s-48.5 -38.666 -83.5 -48.999s-73.5 -15.5 -115.5 -15.5zM248.003 200c34 0 60.667 8.16699 80 24.5s29 37.5 29 63.5c0 30 -9.5 52.833 -28.5 68.5s-45.833 23.5 -80.5 23.5s-61.5 -7.83301 -80.5 -23.5s-28.5 -38.5 -28.5 -68.5c0 -26 9.66699 -47.167 29 -63.5
s46 -24.5 80 -24.5zM246.003 516c-102.667 0 -160.333 46.667 -173 140l78 11c4 -50.667 35.667 -76 95 -76c60.667 0 93 25.333 97 76l78 -11c-12.667 -93.333 -71 -140 -175 -140z" />
    <glyph glyph-name="Gdotaccent" unicode="&#x120;" horiz-adv-x="626" 
d="M565 58c-21.333 -14.667 -42.5 -27.999 -63.5 -39.999s-44.167 -21.333 -69.5 -28s-55.333 -10 -90 -10c-58.667 0 -110.5 12.667 -155.5 38s-80.333 61.5 -106 108.5s-38.5 102.833 -38.5 167.5c0 63.333 12.167 118.5 36.5 165.5s59.166 83.5 104.499 109.5
s99.333 39 162 39c40 0 76.667 -5.16699 110 -15.5s62.333 -24.833 87 -43.5l30 -134l-95 -23l-23 96c-16 9.33301 -32.5 15.833 -49.5 19.5s-35.833 5.5 -56.5 5.5c-32 0 -62.167 -8.83301 -90.5 -26.5s-51.166 -42.834 -68.499 -75.501s-26 -71.667 -26 -117
s7.66699 -84 23 -116s36.333 -56.5 63 -73.5s57 -25.5 91 -25.5c24 0 44.667 2.5 62 7.5s35 11.833 53 20.5v104h-128v92h238v-245zM347 806.001c20.667 0 37.334 -6.33301 50.001 -19s19 -29.334 19 -50.001s-6.33301 -37.334 -19 -50.001s-29.334 -19 -50.001 -19
s-37.167 6.33301 -49.5 19s-18.5 29.334 -18.5 50.001s6.16699 37.334 18.5 50.001s28.833 19 49.5 19z" />
    <glyph glyph-name="gdotaccent" unicode="&#x121;" horiz-adv-x="574" 
d="M246 115c-67.333 0 -119.832 14.5 -157.499 43.5s-56.5 70.167 -56.5 123.5c0 56.667 19.5 101.5 58.5 134.5s91.167 49.5 156.5 49.5c25.333 0 47.666 -2 66.999 -6s38 -11 56 -21l151 53l35 -99l-122 -19c11.333 -12 19 -26 23 -42s6 -31 6 -45
c0 -40.667 -9.83301 -73.667 -29.5 -99s-46 -43.833 -79 -55.5s-69.167 -17.5 -108.5 -17.5zM254.001 -241c-36.667 0 -69.998 2.83301 -99.998 8.5s-56 12.667 -78 21s-39.333 15.5 -52 21.5l41 89c31.333 -13.333 62.333 -23.833 93 -31.5s62.667 -11.5 96 -11.5
c30 0 53.833 2.5 71.5 7.5s30.167 11.667 37.5 20s11 17.166 11 26.499c0 14 -5.33301 25.333 -16 34s-32.334 13 -65.001 13h-157v195l90 -20v-81h81c59.333 0 103.666 -12.167 132.999 -36.5s44 -58.833 44 -103.5c0 -36 -10.333 -65.167 -31 -87.5
s-48.5 -38.666 -83.5 -48.999s-73.5 -15.5 -115.5 -15.5zM248.003 200c34 0 60.667 8.16699 80 24.5s29 37.5 29 63.5c0 30 -9.5 52.833 -28.5 68.5s-45.833 23.5 -80.5 23.5s-61.5 -7.83301 -80.5 -23.5s-28.5 -38.5 -28.5 -68.5c0 -26 9.66699 -47.167 29 -63.5
s46 -24.5 80 -24.5zM246.003 664c20.667 0 37.334 -6.33301 50.001 -19s19 -29.334 19 -50.001s-6.33301 -37.334 -19 -50.001s-29.334 -19 -50.001 -19s-37.167 6.33301 -49.5 19s-18.5 29.334 -18.5 50.001s6.16699 37.334 18.5 50.001s28.833 19 49.5 19z" />
    <glyph glyph-name="uni0122" unicode="&#x122;" horiz-adv-x="626" 
d="M565 58c-21.333 -14.667 -42.5 -27.999 -63.5 -39.999s-44.167 -21.333 -69.5 -28s-55.333 -10 -90 -10c-58.667 0 -110.5 12.667 -155.5 38s-80.333 61.5 -106 108.5s-38.5 102.833 -38.5 167.5c0 63.333 12.167 118.5 36.5 165.5s59.166 83.5 104.499 109.5
s99.333 39 162 39c40 0 76.667 -5.16699 110 -15.5s62.333 -24.833 87 -43.5l30 -134l-95 -23l-23 96c-16 9.33301 -32.5 15.833 -49.5 19.5s-35.833 5.5 -56.5 5.5c-32 0 -62.167 -8.83301 -90.5 -26.5s-51.166 -42.834 -68.499 -75.501s-26 -71.667 -26 -117
s7.66699 -84 23 -116s36.333 -56.5 63 -73.5s57 -25.5 91 -25.5c24 0 44.667 2.5 62 7.5s35 11.833 53 20.5v104h-128v92h238v-245zM316 -331.999l-37.001 38.998l8.5 12.5l20 30c7.66699 11.667 14.167 23.167 19.5 34.5c-21.333 4.66699 -36.666 13.834 -45.999 27.501
s-14 28.5 -14 44.5c0 22.667 7.5 41 22.5 55s33.833 21 56.5 21c21.333 0 40.333 -8 57 -24s25 -35.333 25 -58c0 -21.333 -4.83301 -42 -14.5 -62s-21.167 -38.167 -34.5 -54.5s-25.833 -30.166 -37.5 -41.499s-20.167 -19.333 -25.5 -24z" />
    <glyph glyph-name="uni0123" unicode="&#x123;" horiz-adv-x="574" 
d="M246 115c-67.333 0 -119.832 14.5 -157.499 43.5s-56.5 70.167 -56.5 123.5c0 56.667 19.5 101.5 58.5 134.5s91.167 49.5 156.5 49.5c25.333 0 47.666 -2 66.999 -6s38 -11 56 -21l151 53l35 -99l-122 -19c11.333 -12 19 -26 23 -42s6 -31 6 -45
c0 -40.667 -9.83301 -73.667 -29.5 -99s-46 -43.833 -79 -55.5s-69.167 -17.5 -108.5 -17.5zM254.001 -241c-36.667 0 -69.998 2.83301 -99.998 8.5s-56 12.667 -78 21s-39.333 15.5 -52 21.5l41 89c31.333 -13.333 62.333 -23.833 93 -31.5s62.667 -11.5 96 -11.5
c30 0 53.833 2.5 71.5 7.5s30.167 11.667 37.5 20s11 17.166 11 26.499c0 14 -5.33301 25.333 -16 34s-32.334 13 -65.001 13h-157v195l90 -20v-81h81c59.333 0 103.666 -12.167 132.999 -36.5s44 -58.833 44 -103.5c0 -36 -10.333 -65.167 -31 -87.5
s-48.5 -38.666 -83.5 -48.999s-73.5 -15.5 -115.5 -15.5zM248.003 200c34 0 60.667 8.16699 80 24.5s29 37.5 29 63.5c0 30 -9.5 52.833 -28.5 68.5s-45.833 23.5 -80.5 23.5s-61.5 -7.83301 -80.5 -23.5s-28.5 -38.5 -28.5 -68.5c0 -26 9.66699 -47.167 29 -63.5
s46 -24.5 80 -24.5zM279.003 777l37.001 -38.998l-8.5 -12.5l-20 -30c-7.66699 -11.667 -14.167 -23.167 -19.5 -34.5c21.333 -4.66699 36.666 -13.834 45.999 -27.501s14 -28.5 14 -44.5c0 -22.667 -7.5 -41 -22.5 -55s-33.833 -21 -56.5 -21c-21.333 0 -40.333 8 -57 24
s-25 35.333 -25 58c0 21.333 4.83301 42 14.5 62s21.167 38.167 34.5 54.5s25.833 30.166 37.5 41.499s20.167 19.333 25.5 24z" />
    <glyph glyph-name="Hcircumflex" unicode="&#x124;" horiz-adv-x="737" 
d="M42 589l258 -1v-100h-57l-1 -140h252l1 140h-58v101h258v-101h-84l-1 -387h85v-101h-257v101h56v147h-252v-147h56v-101h-257v101h85l1 387h-85v101zM368 794l180 -104l-31 -43l-148 59l-153 -59l-28 43z" />
    <glyph glyph-name="hcircumflex" unicode="&#x125;" horiz-adv-x="638" 
d="M22 0v90.999h83v457l-95 32l30 91l179 -61v-182c42 25.333 90 38 144 38s95.333 -15.667 124 -47s43 -76.666 43 -135.999v-192h84v-91h-240v91h42v176c0 36 -7 62.167 -21 78.5s-36.333 24.5 -67 24.5c-15.333 0 -33 -2.33301 -53 -7s-38.333 -11 -55 -19v-253h41v-91
h-239zM119 820.999l180 -104l-31 -43l-148 59l-153 -59l-28 43z" />
    <glyph glyph-name="Hbar" unicode="&#x126;" horiz-adv-x="737" 
d="M51 452h629v-58h-629v58zM42 589l258 -1v-100h-57l-1 -140h252l1 140h-58v101h258v-101h-84l-1 -387h85v-101h-257v101h56v147h-252v-147h56v-101h-257v101h85l1 387h-85v101z" />
    <glyph glyph-name="hbar" unicode="&#x127;" horiz-adv-x="638" 
d="M22 0v90.999h83v457l-95 32l30 91l179 -61v-230c42 25.333 90 38 144 38s95.333 -15.667 124 -47s43 -76.666 43 -135.999v-144h84v-91h-240v91h42v128c0 36 -7 62.167 -21 78.5s-36.333 24.5 -67 24.5c-15.333 0 -33 -2.33301 -53 -7s-38.333 -11 -55 -19v-205h41v-91
h-239zM16 522.999h320v-61h-320v61z" />
    <glyph glyph-name="Itilde" unicode="&#x128;" horiz-adv-x="389" 
d="M42 589h306v-101h-95v-387h95v-101h-307v101h97v387h-96v101zM56 672l-29 63.002c22 16.667 41.5 28.834 58.5 36.501s37.5 11.5 61.5 11.5c18.667 0 35.167 -3.33301 49.5 -10s27.666 -13.334 39.999 -20.001s25.833 -10 40.5 -10c13.333 0 25.166 2.16699 35.499 6.5
s24.5 12.166 42.5 23.499l27 -64c-18.667 -17.333 -36.167 -29.833 -52.5 -37.5s-36.5 -11.834 -60.5 -12.501c-15.333 0 -29.666 3.33301 -42.999 10l-40.5 20.5c-13.667 7 -28.5 10.5 -44.5 10.5c-14.667 0 -27.667 -2.33301 -39 -7s-26.666 -11.667 -45.999 -21z" />
    <glyph glyph-name="itilde" unicode="&#x129;" horiz-adv-x="345" 
d="M40 447h198v-356h83v-91h-281v91h83v266h-83v90zM46 530l-28.002 63.001c18.667 16.667 35.834 28.834 51.501 36.501s33.5 11.5 53.5 11.5c14.667 0 27.834 -3.33301 39.501 -10l34.5 -20c11.333 -6.66699 23 -10 35 -10c12.667 0 24 2.16699 34 6.5
s22.667 12.166 38 23.499l23 -64c-15.333 -17.333 -30.5 -29.833 -45.5 -37.5s-34.5 -11.834 -58.5 -12.501c-12.667 0 -24.667 3.33301 -36 10l-34.5 20.5c-11.667 7 -24.5 10.5 -38.5 10.5c-10.667 0 -20.667 -2.33301 -30 -7s-22 -11.667 -38 -21z" />
    <glyph glyph-name="Imacron" unicode="&#x12a;" horiz-adv-x="389" 
d="M42 589h306v-101h-95v-387h95v-101h-307v101h97v387h-96v101zM27 760h334v-76h-334v76z" />
    <glyph glyph-name="imacron" unicode="&#x12b;" horiz-adv-x="345" 
d="M40 447h198v-356h83v-91h-281v91h83v266h-83v90zM33 618h274v-76h-274v76z" />
    <glyph glyph-name="Ibreve" unicode="&#x12c;" horiz-adv-x="389" 
d="M42 589h306v-101h-95v-387h95v-101h-307v101h97v387h-96v101zM194 658c-102.667 0 -160.333 46.667 -173 140l78 11c4 -50.667 35.667 -76 95 -76c60.667 0 93 25.333 97 76l78 -11c-12.667 -93.333 -71 -140 -175 -140z" />
    <glyph glyph-name="ibreve" unicode="&#x12d;" horiz-adv-x="345" 
d="M40 447h198v-356h83v-91h-281v91h83v266h-83v90zM170 516c-90 0 -141 46.667 -153 140l77 11c4 -50.667 29.333 -76 76 -76c48 0 73.667 25.333 77 76l77 -11c-12 -93.333 -63.333 -140 -154 -140z" />
    <glyph glyph-name="Iogonek" unicode="&#x12e;" horiz-adv-x="389" 
d="M42 589h306v-101h-95v-387h95v-101h-307v101h97v387h-96v101zM316 30l32.0039 -29.999c-30.667 -16 -52.334 -33 -65.001 -51s-19 -37.333 -19 -58c0 -14.667 5.66699 -26.334 17 -35.001s25.666 -13 42.999 -13c15.333 0 31.666 3.33301 48.999 10v-72
c-16 -7.33301 -31.5 -12.333 -46.5 -15s-29.167 -4 -42.5 -4c-40 0 -71.167 8.83301 -93.5 26.5s-33.5 40.167 -33.5 67.5c0 35.333 12.667 67.5 38 96.5s65.666 54.833 120.999 77.5z" />
    <glyph glyph-name="iogonek" unicode="&#x12f;" horiz-adv-x="345" 
d="M40 447h198v-356h83v-91h-281v91h83v266h-83v90zM170 664c20.667 0 37.334 -6.33301 50.001 -19s19 -29.334 19 -50.001s-6.33301 -37.334 -19 -50.001s-29.334 -19 -50.001 -19s-37.167 6.33301 -49.5 19s-18.5 29.334 -18.5 50.001s6.16699 37.334 18.5 50.001
s28.833 19 49.5 19zM233 30l32.0039 -29.999c-30.667 -16 -52.334 -33 -65.001 -51s-19 -37.333 -19 -58c0 -14.667 5.66699 -26.334 17 -35.001s25.666 -13 42.999 -13c15.333 0 31.666 3.33301 48.999 10v-72c-16 -7.33301 -31.5 -12.333 -46.5 -15s-29.167 -4 -42.5 -4
c-40 0 -71.167 8.83301 -93.5 26.5s-33.5 40.167 -33.5 67.5c0 35.333 12.667 67.5 38 96.5s65.666 54.833 120.999 77.5z" />
    <glyph glyph-name="Idotaccent" unicode="&#x130;" horiz-adv-x="389" 
d="M42 589h306v-101h-95v-387h95v-101h-307v101h97v387h-96v101zM194 806c20.667 0 37.334 -6.33301 50.001 -19s19 -29.334 19 -50.001s-6.33301 -37.334 -19 -50.001s-29.334 -19 -50.001 -19s-37.167 6.33301 -49.5 19s-18.5 29.334 -18.5 50.001
s6.16699 37.334 18.5 50.001s28.833 19 49.5 19z" />
    <glyph glyph-name="dotlessi" unicode="&#x131;" horiz-adv-x="345" 
d="M40 447h198v-356h83v-91h-281v91h83v266h-83v90z" />
    <glyph glyph-name="Jcircumflex" unicode="&#x134;" horiz-adv-x="528" 
d="M414 239c0 -54 -7.16797 -100.167 -21.501 -138.5s-36.5 -68 -66.5 -89s-69.667 -31.5 -119 -31.5c-31.333 0 -59.166 4.5 -83.499 13.5s-47.833 18.833 -70.5 29.5l-30 141l99 23l21 -98c10.667 -4.66699 20.667 -8 30 -10s18.333 -3 27 -3c31.333 0 55.333 13 72 39
s25 61 25 105l1 268h-125v101h326v-101h-85v-249zM346.999 794l180 -104l-31 -43l-148 59l-153 -59l-28 43z" />
    <glyph glyph-name="jcircumflex" unicode="&#x135;" horiz-adv-x="281" 
d="M222 -35c0 -22.667 -1.16699 -46 -3.5 -70s-9 -46.333 -20 -67s-29.5 -37.334 -55.5 -50.001s-62.667 -19 -110 -19c-14 0 -27.667 1.16699 -41 3.5s-24.666 4.5 -33.999 6.5l12 89c8 -1.33301 17.5 -2.33301 28.5 -3s19.833 -1 26.5 -1c21.333 0 37.666 3 48.999 9
s19.5 13.833 24.5 23.5s7.83301 20.334 8.5 32.001s1 23.167 1 34.5v404h-84v90h198v-482zM159 675l164 -115l-35 -50l-128 75l-136 -75l-33 50z" />
    <glyph glyph-name="uni0136" unicode="&#x136;" horiz-adv-x="692" 
d="M41 589h257v-101h-57v-146h74l108 146h-50v101h260v-101h-93l-138 -175l155 -212h100v-101h-295v101h70l-104 144h-87v-144h57v-101h-257v101h85v387h-85v101zM301 -332l-37.001 38.998l8.5 12.5l20 30c7.66699 11.667 14.167 23.167 19.5 34.5
c-21.333 4.66699 -36.666 13.834 -45.999 27.501s-14 28.5 -14 44.5c0 22.667 7.5 41 22.5 55s33.833 21 56.5 21c21.333 0 40.333 -8 57 -24s25 -35.333 25 -58c0 -21.333 -4.83301 -42 -14.5 -62s-21.167 -38.167 -34.5 -54.5s-25.833 -30.166 -37.5 -41.499
s-20.167 -19.333 -25.5 -24z" />
    <glyph glyph-name="uni0137" unicode="&#x137;" horiz-adv-x="586" 
d="M43 672l179 -61v-344h73l53 90h-51v90h241v-90h-76l-86 -132l90 -134h83v-91h-140l-111 177h-76v-86h34v-91h-232v91h84v457l-95 32zM277 -332l-37.001 38.998l8.5 12.5l20 30c7.66699 11.667 14.167 23.167 19.5 34.5c-21.333 4.66699 -36.666 13.834 -45.999 27.501
s-14 28.5 -14 44.5c0 22.667 7.5 41 22.5 55s33.833 21 56.5 21c21.333 0 40.333 -8 57 -24s25 -35.333 25 -58c0 -21.333 -4.83301 -42 -14.5 -62s-21.167 -38.167 -34.5 -54.5s-25.833 -30.166 -37.5 -41.499s-20.167 -19.333 -25.5 -24z" />
    <glyph glyph-name="kgreenlandic" unicode="&#x138;" horiz-adv-x="615" 
d="M46 447h232v-90h-34v-92h77l62 92h-51v90h241v-90h-76l-96 -134l94 -132h83v-91h-148l-121 175h-65v-84h34v-91h-232v91h84v266h-84v90z" />
    <glyph glyph-name="Lacute" unicode="&#x139;" horiz-adv-x="562" 
d="M41 589h314v-101h-103l-1 -387h159l36 100l96 -33l-59 -168h-442v101h96v387h-96v101zM367 792l26 -95l-253 -39l-16 45z" />
    <glyph glyph-name="lacute" unicode="&#x13a;" horiz-adv-x="335" 
d="M29 0v91h84v460l-96 29l28 92l182 -57v-524h84v-91h-282zM309 836l26 -95l-253 -39l-16 45z" />
    <glyph glyph-name="uni013B" unicode="&#x13b;" horiz-adv-x="562" 
d="M41 589h314v-101h-103l-1 -387h159l36 100l96 -33l-59 -168h-442v101h96v387h-96v101zM243 -332l-37.001 38.998l8.5 12.5l20 30c7.66699 11.667 14.167 23.167 19.5 34.5c-21.333 4.66699 -36.666 13.834 -45.999 27.501s-14 28.5 -14 44.5c0 22.667 7.5 41 22.5 55
s33.833 21 56.5 21c21.333 0 40.333 -8 57 -24s25 -35.333 25 -58c0 -21.333 -4.83301 -42 -14.5 -62s-21.167 -38.167 -34.5 -54.5s-25.833 -30.166 -37.5 -41.499s-20.167 -19.333 -25.5 -24z" />
    <glyph glyph-name="uni013C" unicode="&#x13c;" horiz-adv-x="335" 
d="M29 0v91h84v460l-96 29l28 92l182 -57v-524h84v-91h-282zM133 -332l-37.001 38.998l8.5 12.5l20 30c7.66699 11.667 14.167 23.167 19.5 34.5c-21.333 4.66699 -36.666 13.834 -45.999 27.501s-14 28.5 -14 44.5c0 22.667 7.5 41 22.5 55s33.833 21 56.5 21
c21.333 0 40.333 -8 57 -24s25 -35.333 25 -58c0 -21.333 -4.83301 -42 -14.5 -62s-21.167 -38.167 -34.5 -54.5s-25.833 -30.166 -37.5 -41.499s-20.167 -19.333 -25.5 -24z" />
    <glyph glyph-name="Lcaron" unicode="&#x13d;" horiz-adv-x="562" 
d="M41 589h314v-101h-103l-1 -387h159l36 100l96 -33l-59 -168h-442v101h96v387h-96v101zM445 630l94 -21l-72 -232l-57 11z" />
    <glyph glyph-name="lcaron" unicode="&#x13e;" horiz-adv-x="335" 
d="M29 0v91h84v375l-96 29l28 92l182 -57v-439h84v-91h-282zM25 764l129 -63l131 63l38 -51l-169 -113l-171 113z" />
    <glyph glyph-name="Ldot" unicode="&#x13f;" horiz-adv-x="600" 
d="M41 589h314v-101h-103l-1 -387h159l36 100l96 -33l-59 -168h-442v101h96v387h-96v101zM375 413c21.333 0 39.833 -7.83301 55.5 -23.5s23.5 -34.5 23.5 -56.5s-7.83301 -40.833 -23.5 -56.5s-34.167 -23.5 -55.5 -23.5c-22 0 -41 7.83301 -57 23.5s-24 34.5 -24 56.5
s8 40.833 24 56.5s35 23.5 57 23.5z" />
    <glyph glyph-name="ldot" unicode="&#x140;" horiz-adv-x="439" 
d="M29 0v91h84v460l-96 29l28 92l182 -57v-524h84v-91h-282zM340 372c21.333 0 39.833 -7.83301 55.5 -23.5s23.5 -34.5 23.5 -56.5s-7.83301 -40.833 -23.5 -56.5s-34.167 -23.5 -55.5 -23.5c-22 0 -41 7.83301 -57 23.5s-24 34.5 -24 56.5s8 40.833 24 56.5
s35 23.5 57 23.5z" />
    <glyph glyph-name="Lslash" unicode="&#x141;" horiz-adv-x="562" 
d="M74 248l371 195v-86l-371 -195v86zM41 589h314v-101h-103l-1 -387h159l36 100l96 -33l-59 -168h-442v101h96v387h-96v101z" />
    <glyph glyph-name="lslash" unicode="&#x142;" horiz-adv-x="335" 
d="M41 270l264 232v-93l-264 -232v93zM29 0v91h84v460l-96 29l28 92l182 -57v-524h84v-91h-282z" />
    <glyph glyph-name="Nacute" unicode="&#x143;" horiz-adv-x="740" 
d="M42 589h259l213 -423v322h-77v101h275v-101h-94v-488h-134l-253 489l1 -388h84v-101h-275v101h87v387h-86v101zM530 792l26 -95l-253 -39l-16 45z" />
    <glyph glyph-name="nacute" unicode="&#x144;" horiz-adv-x="661" 
d="M45 0l-0.000976562 91h85v243l-96 33l29 91l139 -48c26 17.333 52.333 31 79 41s58.334 15 95.001 15c41.333 0 74.833 -8 100.5 -24s44.667 -38.167 57 -66.5s18.5 -60.5 18.5 -96.5v-188h83v-91h-238v91h42v173c0 32 -7 57.167 -21 75.5s-37 27.5 -69 27.5
c-19.333 0 -38.5 -3.33301 -57.5 -10s-35.167 -14.667 -48.5 -24v-242h41v-91h-239zM419.999 749l77 -57l-158 -183l-49 33z" />
    <glyph glyph-name="uni0145" unicode="&#x145;" horiz-adv-x="740" 
d="M42 589h259l213 -423v322h-77v101h275v-101h-94v-488h-134l-253 489l1 -388h84v-101h-275v101h87v387h-86v101zM343 -332l-37.001 38.998l8.5 12.5l20 30c7.66699 11.667 14.167 23.167 19.5 34.5c-21.333 4.66699 -36.666 13.834 -45.999 27.501s-14 28.5 -14 44.5
c0 22.667 7.5 41 22.5 55s33.833 21 56.5 21c21.333 0 40.333 -8 57 -24s25 -35.333 25 -58c0 -21.333 -4.83301 -42 -14.5 -62s-21.167 -38.167 -34.5 -54.5s-25.833 -30.166 -37.5 -41.499s-20.167 -19.333 -25.5 -24z" />
    <glyph glyph-name="uni0146" unicode="&#x146;" horiz-adv-x="661" 
d="M45 0l-0.000976562 91h85v243l-96 33l29 91l139 -48c26 17.333 52.333 31 79 41s58.334 15 95.001 15c41.333 0 74.833 -8 100.5 -24s44.667 -38.167 57 -66.5s18.5 -60.5 18.5 -96.5v-188h83v-91h-238v91h42v173c0 32 -7 57.167 -21 75.5s-37 27.5 -69 27.5
c-19.333 0 -38.5 -3.33301 -57.5 -10s-35.167 -14.667 -48.5 -24v-242h41v-91h-239zM301.999 -332l-37.001 38.998l8.5 12.5l20 30c7.66699 11.667 14.167 23.167 19.5 34.5c-21.333 4.66699 -36.666 13.834 -45.999 27.501s-14 28.5 -14 44.5c0 22.667 7.5 41 22.5 55
s33.833 21 56.5 21c21.333 0 40.333 -8 57 -24s25 -35.333 25 -58c0 -21.333 -4.83301 -42 -14.5 -62s-21.167 -38.167 -34.5 -54.5s-25.833 -30.166 -37.5 -41.499s-20.167 -19.333 -25.5 -24z" />
    <glyph glyph-name="Ncaron" unicode="&#x147;" horiz-adv-x="740" 
d="M42 589h259l213 -423v322h-77v101h275v-101h-94v-488h-134l-253 489l1 -388h84v-101h-275v101h87v387h-86v101zM375 642l-168 115l33 50l136 -75l128 75l35 -50z" />
    <glyph glyph-name="ncaron" unicode="&#x148;" horiz-adv-x="661" 
d="M45 0l-0.000976562 91h85v243l-96 33l29 91l139 -48c26 17.333 52.333 31 79 41s58.334 15 95.001 15c41.333 0 74.833 -8 100.5 -24s44.667 -38.167 57 -66.5s18.5 -60.5 18.5 -96.5v-188h83v-91h-238v91h42v173c0 32 -7 57.167 -21 75.5s-37 27.5 -69 27.5
c-19.333 0 -38.5 -3.33301 -57.5 -10s-35.167 -14.667 -48.5 -24v-242h41v-91h-239zM333.999 500l-168 115l33 50l136 -75l128 75l35 -50z" />
    <glyph glyph-name="Eng" unicode="&#x14a;" horiz-adv-x="740" 
d="M427 -241c-26.667 0 -52.166 2.33203 -76.499 6.99902s-49.5 12.334 -75.5 23.001l28 82c18.667 -7.33301 36.5 -12.5 53.5 -15.5s32.5 -4.5 46.5 -4.5c30 0 54.667 8.33301 74 25s31 41.667 35 75l-281 538l1 -388h84v-101h-275v101h87v387h-86v101h259l213 -423v322
h-77v101h275v-101h-94v-495c-0.666992 -76 -17.834 -134 -51.501 -174s-80.167 -60 -139.5 -60z" />
    <glyph glyph-name="eng" unicode="&#x14b;" horiz-adv-x="602" 
d="M376 466c56.667 0 100.164 -16.168 130.497 -48.501s45.5 -78.5 45.5 -138.5v-280c0 -78 -16.833 -137.5 -50.5 -178.5s-80.167 -61.5 -139.5 -61.5c-27.333 0 -53 2.33301 -77 7s-49.333 12.334 -76 23.001l29 82c18.667 -7.33301 36.334 -12.5 53.001 -15.5
s32 -4.5 46 -4.5c32 0 57 10.833 75 32.5s27 53.5 27 95.5v285c0 34.667 -7.5 60.5 -22.5 77.5s-37.5 25.5 -67.5 25.5c-16.667 0 -34.667 -3.16699 -54 -9.5s-36.666 -14.5 -51.999 -24.5v-242h41v-91h-239v91h85v243l-96 33l29 91l139 -48
c30 20.667 58.333 35.167 85 43.5s56.334 12.5 89.001 12.5z" />
    <glyph glyph-name="Omacron" unicode="&#x14c;" horiz-adv-x="668" 
d="M333 609c58 0 109.002 -12.333 153.002 -37s78.333 -60.334 103 -107.001s37 -103.334 37 -170.001s-12.333 -123.5 -37 -170.5s-58.834 -82.833 -102.501 -107.5s-94.5 -37 -152.5 -37c-57.333 0 -107.833 12.333 -151.5 37s-77.834 60.5 -102.501 107.5
s-37 103.833 -37 170.5s12.167 123.334 36.5 170.001s58.333 82.334 102 107.001s94.167 37 151.5 37zM334.002 511c-56 0 -98.5 -18.333 -127.5 -55s-43.5 -90.334 -43.5 -161.001s14.5 -124.5 43.5 -161.5s71.5 -55.5 127.5 -55.5s98.667 18.5 128 55.5
s44 90.833 44 161.5s-14.5 124.334 -43.5 161.001s-71.833 55 -128.5 55zM166.002 760h334v-76h-334v76z" />
    <glyph glyph-name="omacron" unicode="&#x14d;" horiz-adv-x="555" 
d="M276 466c50 0 92.668 -9.66602 128.001 -28.999s62.333 -47.166 81 -83.499s28 -79.833 28 -130.5c0 -76 -20.833 -135.333 -62.5 -178s-99.834 -64 -174.501 -64c-48.667 0 -90.5 9.66699 -125.5 29s-61.667 47.166 -80 83.499s-27.5 79.5 -27.5 129.5
c0 50.667 9.16699 94.167 27.5 130.5s45 64.166 80 83.499s76.833 29 125.5 29zM276.001 373.001c-40 0 -70.167 -12.833 -90.5 -38.5s-30.5 -62.834 -30.5 -111.501s10.167 -86 30.5 -112s50.5 -39 90.5 -39c41.333 0 72.333 13 93 39s31 63.333 31 112
s-10.333 85.834 -31 111.501s-51.667 38.5 -93 38.5zM110.001 618.001h334v-76h-334v76z" />
    <glyph glyph-name="Obreve" unicode="&#x14e;" horiz-adv-x="668" 
d="M333 609c58 0 109.002 -12.333 153.002 -37s78.333 -60.334 103 -107.001s37 -103.334 37 -170.001s-12.333 -123.5 -37 -170.5s-58.834 -82.833 -102.501 -107.5s-94.5 -37 -152.5 -37c-57.333 0 -107.833 12.333 -151.5 37s-77.834 60.5 -102.501 107.5
s-37 103.833 -37 170.5s12.167 123.334 36.5 170.001s58.333 82.334 102 107.001s94.167 37 151.5 37zM334.002 511c-56 0 -98.5 -18.333 -127.5 -55s-43.5 -90.334 -43.5 -161.001s14.5 -124.5 43.5 -161.5s71.5 -55.5 127.5 -55.5s98.667 18.5 128 55.5
s44 90.833 44 161.5s-14.5 124.334 -43.5 161.001s-71.833 55 -128.5 55zM333.002 658c-102.667 0 -160.333 46.667 -173 140l78 11c4 -50.667 35.667 -76 95 -76c60.667 0 93 25.333 97 76l78 -11c-12.667 -93.333 -71 -140 -175 -140z" />
    <glyph glyph-name="obreve" unicode="&#x14f;" horiz-adv-x="555" 
d="M276 466c50 0 92.668 -9.66602 128.001 -28.999s62.333 -47.166 81 -83.499s28 -79.833 28 -130.5c0 -76 -20.833 -135.333 -62.5 -178s-99.834 -64 -174.501 -64c-48.667 0 -90.5 9.66699 -125.5 29s-61.667 47.166 -80 83.499s-27.5 79.5 -27.5 129.5
c0 50.667 9.16699 94.167 27.5 130.5s45 64.166 80 83.499s76.833 29 125.5 29zM276.001 373.001c-40 0 -70.167 -12.833 -90.5 -38.5s-30.5 -62.834 -30.5 -111.501s10.167 -86 30.5 -112s50.5 -39 90.5 -39c41.333 0 72.333 13 93 39s31 63.333 31 112
s-10.333 85.834 -31 111.501s-51.667 38.5 -93 38.5zM277.001 516.001c-102.667 0 -160.333 46.667 -173 140l78 11c4 -50.667 35.667 -76 95 -76c60.667 0 93 25.333 97 76l78 -11c-12.667 -93.333 -71 -140 -175 -140z" />
    <glyph glyph-name="Ohungarumlaut" unicode="&#x150;" horiz-adv-x="668" 
d="M333 609c58 0 109.002 -12.333 153.002 -37s78.333 -60.334 103 -107.001s37 -103.334 37 -170.001s-12.333 -123.5 -37 -170.5s-58.834 -82.833 -102.501 -107.5s-94.5 -37 -152.5 -37c-57.333 0 -107.833 12.333 -151.5 37s-77.834 60.5 -102.501 107.5
s-37 103.833 -37 170.5s12.167 123.334 36.5 170.001s58.333 82.334 102 107.001s94.167 37 151.5 37zM334.002 511c-56 0 -98.5 -18.333 -127.5 -55s-43.5 -90.334 -43.5 -161.001s14.5 -124.5 43.5 -161.5s71.5 -55.5 127.5 -55.5s98.667 18.5 128 55.5
s44 90.833 44 161.5s-14.5 124.334 -43.5 161.001s-71.833 55 -128.5 55zM385.002 833l58 -68l-168 -112l-30 32zM556.002 791l37 -81l-195 -54l-21 38z" />
    <glyph glyph-name="ohungarumlaut" unicode="&#x151;" horiz-adv-x="555" 
d="M276 466c50 0 92.668 -9.66602 128.001 -28.999s62.333 -47.166 81 -83.499s28 -79.833 28 -130.5c0 -76 -20.833 -135.333 -62.5 -178s-99.834 -64 -174.501 -64c-48.667 0 -90.5 9.66699 -125.5 29s-61.667 47.166 -80 83.499s-27.5 79.5 -27.5 129.5
c0 50.667 9.16699 94.167 27.5 130.5s45 64.166 80 83.499s76.833 29 125.5 29zM276.001 373.001c-40 0 -70.167 -12.833 -90.5 -38.5s-30.5 -62.834 -30.5 -111.501s10.167 -86 30.5 -112s50.5 -39 90.5 -39c41.333 0 72.333 13 93 39s31 63.333 31 112
s-10.333 85.834 -31 111.501s-51.667 38.5 -93 38.5zM277.001 749.001l77 -57l-158 -183l-49 33zM474.001 728.001l63 -69l-189 -150l-42 42z" />
    <glyph glyph-name="OE" unicode="&#x152;" horiz-adv-x="902" 
d="M339 0c-58 0 -109.334 10.5 -154.001 31.5s-79.5 53.5 -104.5 97.5s-37.5 100.667 -37.5 170c0 68.667 12.333 124.167 37 166.5s59.334 73.5 104.001 93.5s97 30 157 30h447l60 -177l-96 -33l-37 109h-179v-139h169v-99h-170v-149h205l36 100l95 -33l-58 -168h-474z
M342.999 489c-28.667 0 -54.002 -3 -76.002 -9s-40.667 -16 -56 -30s-27.166 -33.333 -35.499 -58s-12.5 -55.667 -12.5 -93c0 -68.667 15.833 -119 47.5 -151s76.834 -48 135.501 -48l74 1v388h-77z" />
    <glyph glyph-name="oe" unicode="&#x153;" horiz-adv-x="775" 
d="M728 53c-0.666992 -0.666992 -5.33203 -4.66992 -13.999 -12.0029s-21.167 -15.833 -37.5 -25.5s-36.833 -18 -61.5 -25s-53.334 -10.5 -86.001 -10.5c-43.333 0 -83 12.333 -119 37c-16.667 -10.667 -36.5 -19.5 -59.5 -26.5s-48.167 -10.5 -75.5 -10.5
c-46.667 0 -87.667 9.33301 -123 28s-63 45.834 -83 81.501s-30 79.167 -30 130.5c0 50 10 92.833 30 128.5s47.833 62.834 83.5 81.501s76.5 28 122.5 28c29.333 0 56.166 -3.66699 80.499 -11s44.166 -16.333 59.499 -27c18.667 12.667 38 22.167 58 28.5s40 9.5 60 9.5
c41.333 0 77 -7.66699 107 -23s53.333 -39.166 70 -71.499s25 -73.5 25 -123.5c0 -14.667 -0.666992 -26.667 -2 -36s-2.66602 -17 -3.99902 -23l-313 -1c4 -34.667 15.5 -61.667 34.5 -81s45.5 -29 79.5 -29c26.667 0 49.834 3 69.501 9s36 12.667 49 20
s22.833 13.333 29.5 18zM276.002 364.997c-39.333 0 -69.5 -12.999 -90.5 -38.999s-31.5 -61.333 -31.5 -106c0 -46.667 10.333 -83.334 31 -110.001s51 -40 91 -40c12.667 0 25.167 1.5 37.5 4.5s23.5 6.83301 33.5 11.5c-10 16.667 -17.833 36.167 -23.5 58.5
s-8.5 46.833 -8.5 73.5c0 27.333 3.16699 52.333 9.5 75s14.5 42 24.5 58c-9.33301 4.66699 -20.333 8.16699 -33 10.5s-26 3.5 -40 3.5zM632.002 271.998c0.666992 27.333 -7.33105 49.667 -23.998 67s-42.667 26 -78 26c-30.667 0 -55.334 -8 -74.001 -24
s-31.334 -39.333 -38.001 -70z" />
    <glyph glyph-name="Racute" unicode="&#x154;" horiz-adv-x="628" 
d="M41 0v101h84v387h-84v101h265c60.667 0 108 -7.83301 142 -23.5s57.667 -38 71 -67s20 -63.167 20 -102.5c0 -64.667 -17.167 -113.167 -51.5 -145.5s-87.5 -48.5 -159.5 -48.5h-87v-101h52v-101h-252zM242 302l58.998 0.000976562c28.667 0 51.5 2.66699 68.5 8
s29.5 14.833 37.5 28.5s12 32.5 12 56.5c0 25.333 -4.66699 44.666 -14 57.999s-22.666 22.5 -39.999 27.5s-38.666 7.5 -63.999 7.5h-59v-186zM427.998 0.000976562l-116 214l108 18l79 -131h100v-101h-171zM431.998 792.001l26 -95l-253 -39l-16 45z" />
    <glyph glyph-name="racute" unicode="&#x155;" horiz-adv-x="472" 
d="M211 409c27.333 18.667 54.168 32.5 80.501 41.5s52.166 13.5 77.499 13.5s49 -4.33301 71 -13l17 -124l-94 -20l-10 54c-22 -2 -42.5 -6 -61.5 -12s-35.167 -14 -48.5 -24l-1 -234h98v-91h-295v91h84v244l-96 32l30 91zM314.002 749l77 -57l-158 -183l-49 33z" />
    <glyph glyph-name="uni0156" unicode="&#x156;" horiz-adv-x="628" 
d="M41 0v101h84v387h-84v101h265c60.667 0 108 -7.83301 142 -23.5s57.667 -38 71 -67s20 -63.167 20 -102.5c0 -64.667 -17.167 -113.167 -51.5 -145.5s-87.5 -48.5 -159.5 -48.5h-87v-101h52v-101h-252zM242 302l58.998 0.000976562c28.667 0 51.5 2.66699 68.5 8
s29.5 14.833 37.5 28.5s12 32.5 12 56.5c0 25.333 -4.66699 44.666 -14 57.999s-22.666 22.5 -39.999 27.5s-38.666 7.5 -63.999 7.5h-59v-186zM427.998 0.000976562l-116 214l108 18l79 -131h100v-101h-171zM282.998 -331.999l-37.001 38.998l8.5 12.5l20 30
c7.66699 11.667 14.167 23.167 19.5 34.5c-21.333 4.66699 -36.666 13.834 -45.999 27.501s-14 28.5 -14 44.5c0 22.667 7.5 41 22.5 55s33.833 21 56.5 21c21.333 0 40.333 -8 57 -24s25 -35.333 25 -58c0 -21.333 -4.83301 -42 -14.5 -62s-21.167 -38.167 -34.5 -54.5
s-25.833 -30.166 -37.5 -41.499s-20.167 -19.333 -25.5 -24z" />
    <glyph glyph-name="uni0157" unicode="&#x157;" horiz-adv-x="472" 
d="M211 409c27.333 18.667 54.168 32.5 80.501 41.5s52.166 13.5 77.499 13.5s49 -4.33301 71 -13l17 -124l-94 -20l-10 54c-22 -2 -42.5 -6 -61.5 -12s-35.167 -14 -48.5 -24l-1 -234h98v-91h-295v91h84v244l-96 32l30 91zM148.002 -332l-37.001 38.998l8.5 12.5l20 30
c7.66699 11.667 14.167 23.167 19.5 34.5c-21.333 4.66699 -36.666 13.834 -45.999 27.501s-14 28.5 -14 44.5c0 22.667 7.5 41 22.5 55s33.833 21 56.5 21c21.333 0 40.333 -8 57 -24s25 -35.333 25 -58c0 -21.333 -4.83301 -42 -14.5 -62s-21.167 -38.167 -34.5 -54.5
s-25.833 -30.166 -37.5 -41.499s-20.167 -19.333 -25.5 -24z" />
    <glyph glyph-name="Rcaron" unicode="&#x158;" horiz-adv-x="628" 
d="M41 0v101h84v387h-84v101h265c60.667 0 108 -7.83301 142 -23.5s57.667 -38 71 -67s20 -63.167 20 -102.5c0 -64.667 -17.167 -113.167 -51.5 -145.5s-87.5 -48.5 -159.5 -48.5h-87v-101h52v-101h-252zM242 302l58.998 0.000976562c28.667 0 51.5 2.66699 68.5 8
s29.5 14.833 37.5 28.5s12 32.5 12 56.5c0 25.333 -4.66699 44.666 -14 57.999s-22.666 22.5 -39.999 27.5s-38.666 7.5 -63.999 7.5h-59v-186zM427.998 0.000976562l-116 214l108 18l79 -131h100v-101h-171zM277.998 642.001l-168 115l33 50l136 -75l128 75l35 -50z" />
    <glyph glyph-name="rcaron" unicode="&#x159;" horiz-adv-x="472" 
d="M211 409c27.333 18.667 54.168 32.5 80.501 41.5s52.166 13.5 77.499 13.5s49 -4.33301 71 -13l17 -124l-94 -20l-10 54c-22 -2 -42.5 -6 -61.5 -12s-35.167 -14 -48.5 -24l-1 -234h98v-91h-295v91h84v244l-96 32l30 91zM228.002 500l-168 115l33 50l136 -75l128 75
l35 -50z" />
    <glyph glyph-name="Sacute" unicode="&#x15a;" horiz-adv-x="559" 
d="M282 -20c-49.333 0 -91.835 3.83301 -127.502 11.5s-66.5 16.5 -92.5 26.5l-18 137l94 11l11 -73c19.333 -6.66699 39.333 -11.667 60 -15s42.334 -5 65.001 -5c25.333 0 48.666 3.16699 69.999 9.5s38.333 16 51 29s19 29.5 19 49.5c0 20.667 -6.5 38.667 -19.5 54
s-40.167 26.333 -81.5 33l-72 12c-60 10.667 -106 30.667 -138 60s-48 67.666 -48 114.999c0 38 10.333 70 31 96s48.667 45.5 84 58.5s75 19.5 119 19.5c22 0 43.667 -1.33301 65 -4s42 -6.66699 62 -12s40 -12.333 60 -21l19 -147l-101 -11l-13 90
c-13.333 4.66699 -28.166 8.33398 -44.499 11.001s-33.5 4 -51.5 4c-39.333 0 -70.166 -6.83301 -92.499 -20.5s-33.5 -32.167 -33.5 -55.5s8.16699 -41.5 24.5 -54.5s43.166 -22.833 80.499 -29.5l75 -12c64.667 -10 110.667 -29.5 138 -58.5s41 -66.5 41 -112.5
c0 -38.667 -7.16699 -70.667 -21.5 -96s-33.166 -45.333 -56.499 -60s-49 -25 -77 -31s-55 -9 -81 -9zM434.998 792l26 -95l-253 -39l-16 45z" />
    <glyph glyph-name="sacute" unicode="&#x15b;" horiz-adv-x="465" 
d="M312 370c-12 4 -24.1699 7.16699 -36.5029 9.5s-25.5 3.5 -39.5 3.5c-23.333 0 -44.166 -4.33301 -62.499 -13s-27.5 -22 -27.5 -40c0 -15.333 5.33301 -27.666 16 -36.999s31.334 -16 62.001 -20l60 -9c52 -6.66699 89.667 -21 113 -43s35 -52 35 -90
c0 -34 -9 -62.167 -27 -84.5s-41.833 -38.833 -71.5 -49.5s-62.167 -16 -97.5 -16c-37.333 0 -70.833 3.83301 -100.5 11.5s-56.834 18.834 -81.501 33.501l-18 104l95 17l11 -55c14 -6.66699 28.333 -11.667 43 -15s29.667 -5 45 -5c27.333 0 51 4.66699 71 14
s30 23.333 30 42c0 14 -5 25.333 -15 34s-30 14.667 -60 18l-57 9c-48 7.33301 -85.667 22.333 -113 45s-41 52.667 -41 90c0 29.333 8 54.666 24 75.999s38.333 37.666 67 48.999s61.334 17 98.001 17c31.333 0 60.333 -3.5 87 -10.5s51.334 -18.5 74.001 -34.5l18 -96
l-85 -16zM315.997 749l77 -57l-158 -183l-49 33z" />
    <glyph glyph-name="Scircumflex" unicode="&#x15c;" horiz-adv-x="559" 
d="M282 -20c-49.333 0 -91.835 3.83301 -127.502 11.5s-66.5 16.5 -92.5 26.5l-18 137l94 11l11 -73c19.333 -6.66699 39.333 -11.667 60 -15s42.334 -5 65.001 -5c25.333 0 48.666 3.16699 69.999 9.5s38.333 16 51 29s19 29.5 19 49.5c0 20.667 -6.5 38.667 -19.5 54
s-40.167 26.333 -81.5 33l-72 12c-60 10.667 -106 30.667 -138 60s-48 67.666 -48 114.999c0 38 10.333 70 31 96s48.667 45.5 84 58.5s75 19.5 119 19.5c22 0 43.667 -1.33301 65 -4s42 -6.66699 62 -12s40 -12.333 60 -21l19 -147l-101 -11l-13 90
c-13.333 4.66699 -28.166 8.33398 -44.499 11.001s-33.5 4 -51.5 4c-39.333 0 -70.166 -6.83301 -92.499 -20.5s-33.5 -32.167 -33.5 -55.5s8.16699 -41.5 24.5 -54.5s43.166 -22.833 80.499 -29.5l75 -12c64.667 -10 110.667 -29.5 138 -58.5s41 -66.5 41 -112.5
c0 -38.667 -7.16699 -70.667 -21.5 -96s-33.166 -45.333 -56.499 -60s-49 -25 -77 -31s-55 -9 -81 -9zM278.998 794l180 -104l-31 -43l-148 59l-153 -59l-28 43z" />
    <glyph glyph-name="scircumflex" unicode="&#x15d;" horiz-adv-x="465" 
d="M312 370c-12 4 -24.1699 7.16699 -36.5029 9.5s-25.5 3.5 -39.5 3.5c-23.333 0 -44.166 -4.33301 -62.499 -13s-27.5 -22 -27.5 -40c0 -15.333 5.33301 -27.666 16 -36.999s31.334 -16 62.001 -20l60 -9c52 -6.66699 89.667 -21 113 -43s35 -52 35 -90
c0 -34 -9 -62.167 -27 -84.5s-41.833 -38.833 -71.5 -49.5s-62.167 -16 -97.5 -16c-37.333 0 -70.833 3.83301 -100.5 11.5s-56.834 18.834 -81.501 33.501l-18 104l95 17l11 -55c14 -6.66699 28.333 -11.667 43 -15s29.667 -5 45 -5c27.333 0 51 4.66699 71 14
s30 23.333 30 42c0 14 -5 25.333 -15 34s-30 14.667 -60 18l-57 9c-48 7.33301 -85.667 22.333 -113 45s-41 52.667 -41 90c0 29.333 8 54.666 24 75.999s38.333 37.666 67 48.999s61.334 17 98.001 17c31.333 0 60.333 -3.5 87 -10.5s51.334 -18.5 74.001 -34.5l18 -96
l-85 -16zM231.997 675l164 -115l-35 -50l-128 75l-136 -75l-33 50z" />
    <glyph glyph-name="Scedilla" unicode="&#x15e;" horiz-adv-x="559" 
d="M282 -20c-49.333 0 -91.835 3.83301 -127.502 11.5s-66.5 16.5 -92.5 26.5l-18 137l94 11l11 -73c19.333 -6.66699 39.333 -11.667 60 -15s42.334 -5 65.001 -5c25.333 0 48.666 3.16699 69.999 9.5s38.333 16 51 29s19 29.5 19 49.5c0 20.667 -6.5 38.667 -19.5 54
s-40.167 26.333 -81.5 33l-72 12c-60 10.667 -106 30.667 -138 60s-48 67.666 -48 114.999c0 38 10.333 70 31 96s48.667 45.5 84 58.5s75 19.5 119 19.5c22 0 43.667 -1.33301 65 -4s42 -6.66699 62 -12s40 -12.333 60 -21l19 -147l-101 -11l-13 90
c-13.333 4.66699 -28.166 8.33398 -44.499 11.001s-33.5 4 -51.5 4c-39.333 0 -70.166 -6.83301 -92.499 -20.5s-33.5 -32.167 -33.5 -55.5s8.16699 -41.5 24.5 -54.5s43.166 -22.833 80.499 -29.5l75 -12c64.667 -10 110.667 -29.5 138 -58.5s41 -66.5 41 -112.5
c0 -38.667 -7.16699 -70.667 -21.5 -96s-33.166 -45.333 -56.499 -60s-49 -25 -77 -31s-55 -9 -81 -9zM347.998 -235c-19.333 0 -37.0029 2.66504 -53.0029 7.99805s-30 11.5 -42 18.5s-22 13.167 -30 18.5l32 48c13.333 -8 27.333 -14.833 42 -20.5
s31.334 -8.5 50.001 -8.5c15.333 0 26.333 3.66699 33 11s10 16.666 10 27.999c0 8.66699 -3.66699 16.167 -11 22.5s-21.333 9.5 -42 9.5h-58v100h71v-51c42.667 0.666992 74.334 -5.66602 95.001 -18.999s31 -35.666 31 -66.999c0 -22 -5.66699 -40.167 -17 -54.5
s-26.666 -25.166 -45.999 -32.499s-41 -11 -65 -11z" />
    <glyph glyph-name="scedilla" unicode="&#x15f;" horiz-adv-x="465" 
d="M312 370c-12 4 -24.1699 7.16699 -36.5029 9.5s-25.5 3.5 -39.5 3.5c-23.333 0 -44.166 -4.33301 -62.499 -13s-27.5 -22 -27.5 -40c0 -15.333 5.33301 -27.666 16 -36.999s31.334 -16 62.001 -20l60 -9c52 -6.66699 89.667 -21 113 -43s35 -52 35 -90
c0 -34 -9 -62.167 -27 -84.5s-41.833 -38.833 -71.5 -49.5s-62.167 -16 -97.5 -16c-37.333 0 -70.833 3.83301 -100.5 11.5s-56.834 18.834 -81.501 33.501l-18 104l95 17l11 -55c14 -6.66699 28.333 -11.667 43 -15s29.667 -5 45 -5c27.333 0 51 4.66699 71 14
s30 23.333 30 42c0 14 -5 25.333 -15 34s-30 14.667 -60 18l-57 9c-48 7.33301 -85.667 22.333 -113 45s-41 52.667 -41 90c0 29.333 8 54.666 24 75.999s38.333 37.666 67 48.999s61.334 17 98.001 17c31.333 0 60.333 -3.5 87 -10.5s51.334 -18.5 74.001 -34.5l18 -96
l-85 -16zM298.997 -235c-19.333 0 -37.0029 2.66504 -53.0029 7.99805s-30 11.5 -42 18.5s-22 13.167 -30 18.5l32 48c13.333 -8 27.333 -14.833 42 -20.5s31.334 -8.5 50.001 -8.5c15.333 0 26.333 3.66699 33 11s10 16.666 10 27.999c0 8.66699 -3.66699 16.167 -11 22.5
s-21.333 9.5 -42 9.5h-58v100h71v-51c42.667 0.666992 74.334 -5.66602 95.001 -18.999s31 -35.666 31 -66.999c0 -22 -5.66699 -40.167 -17 -54.5s-26.666 -25.166 -45.999 -32.499s-41 -11 -65 -11z" />
    <glyph glyph-name="Scaron" unicode="&#x160;" horiz-adv-x="559" 
d="M282 -20c-49.333 0 -91.835 3.83301 -127.502 11.5s-66.5 16.5 -92.5 26.5l-18 137l94 11l11 -73c19.333 -6.66699 39.333 -11.667 60 -15s42.334 -5 65.001 -5c25.333 0 48.666 3.16699 69.999 9.5s38.333 16 51 29s19 29.5 19 49.5c0 20.667 -6.5 38.667 -19.5 54
s-40.167 26.333 -81.5 33l-72 12c-60 10.667 -106 30.667 -138 60s-48 67.666 -48 114.999c0 38 10.333 70 31 96s48.667 45.5 84 58.5s75 19.5 119 19.5c22 0 43.667 -1.33301 65 -4s42 -6.66699 62 -12s40 -12.333 60 -21l19 -147l-101 -11l-13 90
c-13.333 4.66699 -28.166 8.33398 -44.499 11.001s-33.5 4 -51.5 4c-39.333 0 -70.166 -6.83301 -92.499 -20.5s-33.5 -32.167 -33.5 -55.5s8.16699 -41.5 24.5 -54.5s43.166 -22.833 80.499 -29.5l75 -12c64.667 -10 110.667 -29.5 138 -58.5s41 -66.5 41 -112.5
c0 -38.667 -7.16699 -70.667 -21.5 -96s-33.166 -45.333 -56.499 -60s-49 -25 -77 -31s-55 -9 -81 -9zM279.998 642l-168 115l33 50l136 -75l128 75l35 -50z" />
    <glyph glyph-name="scaron" unicode="&#x161;" horiz-adv-x="465" 
d="M312 370c-12 4 -24.1699 7.16699 -36.5029 9.5s-25.5 3.5 -39.5 3.5c-23.333 0 -44.166 -4.33301 -62.499 -13s-27.5 -22 -27.5 -40c0 -15.333 5.33301 -27.666 16 -36.999s31.334 -16 62.001 -20l60 -9c52 -6.66699 89.667 -21 113 -43s35 -52 35 -90
c0 -34 -9 -62.167 -27 -84.5s-41.833 -38.833 -71.5 -49.5s-62.167 -16 -97.5 -16c-37.333 0 -70.833 3.83301 -100.5 11.5s-56.834 18.834 -81.501 33.501l-18 104l95 17l11 -55c14 -6.66699 28.333 -11.667 43 -15s29.667 -5 45 -5c27.333 0 51 4.66699 71 14
s30 23.333 30 42c0 14 -5 25.333 -15 34s-30 14.667 -60 18l-57 9c-48 7.33301 -85.667 22.333 -113 45s-41 52.667 -41 90c0 29.333 8 54.666 24 75.999s38.333 37.666 67 48.999s61.334 17 98.001 17c31.333 0 60.333 -3.5 87 -10.5s51.334 -18.5 74.001 -34.5l18 -96
l-85 -16zM230.997 500l-168 115l33 50l136 -75l128 75l35 -50z" />
    <glyph glyph-name="uni0162" unicode="&#x162;" horiz-adv-x="600" 
d="M30 589h533v-200h-103v99h-105l-1 -387h85v-101h-287v101h85l1 387h-105v-99h-103v200zM365 -235c-19.333 0 -37.0029 2.66504 -53.0029 7.99805s-30 11.5 -42 18.5s-22 13.167 -30 18.5l32 48c13.333 -8 27.333 -14.833 42 -20.5s31.334 -8.5 50.001 -8.5
c15.333 0 26.333 3.66699 33 11s10 16.666 10 27.999c0 8.66699 -3.66699 16.167 -11 22.5s-21.333 9.5 -42 9.5h-58v100h71v-51c42.667 0.666992 74.334 -5.66602 95.001 -18.999s31 -35.666 31 -66.999c0 -22 -5.66699 -40.167 -17 -54.5s-26.666 -25.166 -45.999 -32.499
s-41 -11 -65 -11z" />
    <glyph glyph-name="uni0163" unicode="&#x163;" horiz-adv-x="401" 
d="M272 -19c-32.667 0 -61.168 6.33203 -85.501 18.999s-43.166 32.334 -56.499 59.001s-20 61 -20 103v195h-83v90h83v86l110 33v-119h121v-90h-121v-163c0 -38 5.16699 -67.667 15.5 -89s27.5 -32 51.5 -32c18.667 0 41 6.66699 67 20l21 -84
c-15.333 -7.33301 -31.833 -13.833 -49.5 -19.5s-35.5 -8.5 -53.5 -8.5zM264.999 -235.001c-19.333 0 -37.0029 2.66504 -53.0029 7.99805s-30 11.5 -42 18.5s-22 13.167 -30 18.5l32 48c13.333 -8 27.333 -14.833 42 -20.5s31.334 -8.5 50.001 -8.5
c15.333 0 26.333 3.66699 33 11s10 16.666 10 27.999c0 8.66699 -3.66699 16.167 -11 22.5s-21.333 9.5 -42 9.5h-58v100h71v-51c42.667 0.666992 74.334 -5.66602 95.001 -18.999s31 -35.666 31 -66.999c0 -22 -5.66699 -40.167 -17 -54.5s-26.666 -25.166 -45.999 -32.499
s-41 -11 -65 -11z" />
    <glyph glyph-name="Tcaron" unicode="&#x164;" horiz-adv-x="600" 
d="M30 589h533v-200h-103v99h-105l-1 -387h85v-101h-287v101h85l1 387h-105v-99h-103v200zM298 642l-168 115l33 50l136 -75l128 75l35 -50z" />
    <glyph glyph-name="tcaron" unicode="&#x165;" horiz-adv-x="401" 
d="M272 -19c-32.667 0 -61.168 6.33203 -85.501 18.999s-43.166 32.334 -56.499 59.001s-20 61 -20 103v195h-83v90h83v86l110 33v-119h121v-90h-121v-163c0 -38 5.16699 -67.667 15.5 -89s27.5 -32 51.5 -32c18.667 0 41 6.66699 67 20l21 -84
c-15.333 -7.33301 -31.833 -13.833 -49.5 -19.5s-35.5 -8.5 -53.5 -8.5zM175.999 570.999l-168 115l33 50l136 -75l128 75l35 -50z" />
    <glyph glyph-name="Tbar" unicode="&#x166;" horiz-adv-x="600" 
d="M30 589h533v-200h-103v99h-105l-1 -387h85v-101h-287v101h85l1 387h-105v-99h-103v200zM133 333h327v-76h-327v76z" />
    <glyph glyph-name="tbar" unicode="&#x167;" horiz-adv-x="401" 
d="M272 -19c-32.667 0 -61.168 6.33203 -85.501 18.999s-43.166 32.334 -56.499 59.001s-20 61 -20 103v195h-83v90h83v86l110 33v-119h121v-90h-121v-163c0 -38 5.16699 -67.667 15.5 -89s27.5 -32 51.5 -32c18.667 0 41 6.66699 67 20l21 -84
c-15.333 -7.33301 -31.833 -13.833 -49.5 -19.5s-35.5 -8.5 -53.5 -8.5zM17.999 311.999h327v-76h-327v76z" />
    <glyph glyph-name="Utilde" unicode="&#x168;" horiz-adv-x="688" 
d="M574 213c0 -74.667 -19.1689 -132.167 -57.502 -172.5s-95.833 -60.5 -172.5 -60.5c-77.333 0 -135.166 20.167 -173.499 60.5s-57.5 97.833 -57.5 172.5v275h-85v101h259v-101h-58v-295c0 -42 10 -72 30 -90s48.333 -27 85 -27s64.834 10 84.501 30s29.5 52.333 29.5 97
v285h-57v101h259v-101h-86v-275zM204.998 672l-29 63.002c22 16.667 41.5 28.834 58.5 36.501s37.5 11.5 61.5 11.5c18.667 0 35.167 -3.33301 49.5 -10s27.666 -13.334 39.999 -20.001s25.833 -10 40.5 -10c13.333 0 25.166 2.16699 35.499 6.5s24.5 12.166 42.5 23.499
l27 -64c-18.667 -17.333 -36.167 -29.833 -52.5 -37.5s-36.5 -11.834 -60.5 -12.501c-15.333 0 -29.666 3.33301 -42.999 10l-40.5 20.5c-13.667 7 -28.5 10.5 -44.5 10.5c-14.667 0 -27.667 -2.33301 -39 -7s-26.666 -11.667 -45.999 -21z" />
    <glyph glyph-name="utilde" unicode="&#x169;" horiz-adv-x="636" 
d="M448 24c-22 -12.667 -46.333 -22.999 -73 -30.999s-51.667 -12 -75 -12c-68 0 -117.833 15 -149.5 45s-47.5 76.667 -47.5 140v191h-79v90h193v-264c0 -36 6.83301 -62 20.5 -78s35.834 -24 66.501 -24c15.333 0 33.166 2.66699 53.499 8s38.833 11.666 55.5 18.999v249
h-79v90h193v-340l88 -30l-31 -98zM155 530.001l-29 63.002c22 16.667 41.5 28.834 58.5 36.501s37.5 11.5 61.5 11.5c18.667 0 35.167 -3.33301 49.5 -10s27.666 -13.334 39.999 -20.001s25.833 -10 40.5 -10c13.333 0 25.166 2.16699 35.499 6.5s24.5 12.166 42.5 23.499
l27 -64c-18.667 -17.333 -36.167 -29.833 -52.5 -37.5s-36.5 -11.834 -60.5 -12.501c-15.333 0 -29.666 3.33301 -42.999 10l-40.5 20.5c-13.667 7 -28.5 10.5 -44.5 10.5c-14.667 0 -27.667 -2.33301 -39 -7s-26.666 -11.667 -45.999 -21z" />
    <glyph glyph-name="Umacron" unicode="&#x16a;" horiz-adv-x="688" 
d="M574 213c0 -74.667 -19.1689 -132.167 -57.502 -172.5s-95.833 -60.5 -172.5 -60.5c-77.333 0 -135.166 20.167 -173.499 60.5s-57.5 97.833 -57.5 172.5v275h-85v101h259v-101h-58v-295c0 -42 10 -72 30 -90s48.333 -27 85 -27s64.834 10 84.501 30s29.5 52.333 29.5 97
v285h-57v101h259v-101h-86v-275zM175.998 760h334v-76h-334v76z" />
    <glyph glyph-name="umacron" unicode="&#x16b;" horiz-adv-x="636" 
d="M448 24c-22 -12.667 -46.333 -22.999 -73 -30.999s-51.667 -12 -75 -12c-68 0 -117.833 15 -149.5 45s-47.5 76.667 -47.5 140v191h-79v90h193v-264c0 -36 6.83301 -62 20.5 -78s35.834 -24 66.501 -24c15.333 0 33.166 2.66699 53.499 8s38.833 11.666 55.5 18.999v249
h-79v90h193v-340l88 -30l-31 -98zM126 618.001h334v-76h-334v76z" />
    <glyph glyph-name="Ubreve" unicode="&#x16c;" horiz-adv-x="688" 
d="M574 213c0 -74.667 -19.1689 -132.167 -57.502 -172.5s-95.833 -60.5 -172.5 -60.5c-77.333 0 -135.166 20.167 -173.499 60.5s-57.5 97.833 -57.5 172.5v275h-85v101h259v-101h-58v-295c0 -42 10 -72 30 -90s48.333 -27 85 -27s64.834 10 84.501 30s29.5 52.333 29.5 97
v285h-57v101h259v-101h-86v-275zM342.998 658c-102.667 0 -160.333 46.667 -173 140l78 11c4 -50.667 35.667 -76 95 -76c60.667 0 93 25.333 97 76l78 -11c-12.667 -93.333 -71 -140 -175 -140z" />
    <glyph glyph-name="ubreve" unicode="&#x16d;" horiz-adv-x="636" 
d="M448 24c-22 -12.667 -46.333 -22.999 -73 -30.999s-51.667 -12 -75 -12c-68 0 -117.833 15 -149.5 45s-47.5 76.667 -47.5 140v191h-79v90h193v-264c0 -36 6.83301 -62 20.5 -78s35.834 -24 66.501 -24c15.333 0 33.166 2.66699 53.499 8s38.833 11.666 55.5 18.999v249
h-79v90h193v-340l88 -30l-31 -98zM293 516.001c-102.667 0 -160.333 46.667 -173 140l78 11c4 -50.667 35.667 -76 95 -76c60.667 0 93 25.333 97 76l78 -11c-12.667 -93.333 -71 -140 -175 -140z" />
    <glyph glyph-name="Uring" unicode="&#x16e;" horiz-adv-x="688" 
d="M574 213c0 -74.667 -19.1689 -132.167 -57.502 -172.5s-95.833 -60.5 -172.5 -60.5c-77.333 0 -135.166 20.167 -173.499 60.5s-57.5 97.833 -57.5 172.5v275h-85v101h259v-101h-58v-295c0 -42 10 -72 30 -90s48.333 -27 85 -27s64.834 10 84.501 30s29.5 52.333 29.5 97
v285h-57v101h259v-101h-86v-275zM342.998 869c31.333 0 56.5 -9.5 75.5 -28.5s28.5 -44.167 28.5 -75.5s-9.5 -56.5 -28.5 -75.5s-44.167 -28.5 -75.5 -28.5s-56.5 9.5 -75.5 28.5s-28.5 44.167 -28.5 75.5s9.5 56.5 28.5 75.5s44.167 28.5 75.5 28.5zM342.998 814
c-14.667 0 -26.667 -4.5 -36 -13.5s-14 -20.833 -14 -35.5s4.66699 -26.5 14 -35.5s21.333 -13.5 36 -13.5s26.5 4.5 35.5 13.5s13.5 20.833 13.5 35.5s-4.5 26.5 -13.5 35.5s-20.833 13.5 -35.5 13.5z" />
    <glyph glyph-name="uring" unicode="&#x16f;" horiz-adv-x="636" 
d="M448 24c-22 -12.667 -46.333 -22.999 -73 -30.999s-51.667 -12 -75 -12c-68 0 -117.833 15 -149.5 45s-47.5 76.667 -47.5 140v191h-79v90h193v-264c0 -36 6.83301 -62 20.5 -78s35.834 -24 66.501 -24c15.333 0 33.166 2.66699 53.499 8s38.833 11.666 55.5 18.999v249
h-79v90h193v-340l88 -30l-31 -98zM293 727.001c31.333 0 56.5 -9.5 75.5 -28.5s28.5 -44.167 28.5 -75.5s-9.5 -56.5 -28.5 -75.5s-44.167 -28.5 -75.5 -28.5s-56.5 9.5 -75.5 28.5s-28.5 44.167 -28.5 75.5s9.5 56.5 28.5 75.5s44.167 28.5 75.5 28.5zM293 672.001
c-14.667 0 -26.667 -4.5 -36 -13.5s-14 -20.833 -14 -35.5s4.66699 -26.5 14 -35.5s21.333 -13.5 36 -13.5s26.5 4.5 35.5 13.5s13.5 20.833 13.5 35.5s-4.5 26.5 -13.5 35.5s-20.833 13.5 -35.5 13.5z" />
    <glyph glyph-name="Uhungarumlaut" unicode="&#x170;" horiz-adv-x="688" 
d="M574 213c0 -74.667 -19.1689 -132.167 -57.502 -172.5s-95.833 -60.5 -172.5 -60.5c-77.333 0 -135.166 20.167 -173.499 60.5s-57.5 97.833 -57.5 172.5v275h-85v101h259v-101h-58v-295c0 -42 10 -72 30 -90s48.333 -27 85 -27s64.834 10 84.501 30s29.5 52.333 29.5 97
v285h-57v101h259v-101h-86v-275zM394.998 833l58 -68l-168 -112l-30 32zM565.998 791l37 -81l-195 -54l-21 38z" />
    <glyph glyph-name="uhungarumlaut" unicode="&#x171;" horiz-adv-x="636" 
d="M448 24c-22 -12.667 -46.333 -22.999 -73 -30.999s-51.667 -12 -75 -12c-68 0 -117.833 15 -149.5 45s-47.5 76.667 -47.5 140v191h-79v90h193v-264c0 -36 6.83301 -62 20.5 -78s35.834 -24 66.501 -24c15.333 0 33.166 2.66699 53.499 8s38.833 11.666 55.5 18.999v249
h-79v90h193v-340l88 -30l-31 -98zM294 749.001l77 -57l-158 -183l-49 33zM491 728.001l63 -69l-189 -150l-42 42z" />
    <glyph glyph-name="Uogonek" unicode="&#x172;" horiz-adv-x="688" 
d="M574 213c0 -74.667 -19.1689 -132.167 -57.502 -172.5s-95.833 -60.5 -172.5 -60.5c-77.333 0 -135.166 20.167 -173.499 60.5s-57.5 97.833 -57.5 172.5v275h-85v101h259v-101h-58v-295c0 -42 10 -72 30 -90s48.333 -27 85 -27s64.834 10 84.501 30s29.5 52.333 29.5 97
v285h-57v101h259v-101h-86v-275zM438.998 40l32.0039 -29.999c-30.667 -16 -52.334 -33 -65.001 -51s-19 -37.333 -19 -58c0 -14.667 5.66699 -26.334 17 -35.001s25.666 -13 42.999 -13c15.333 0 31.666 3.33301 48.999 10v-72c-16 -7.33301 -31.5 -12.333 -46.5 -15
s-29.167 -4 -42.5 -4c-40 0 -71.167 8.83301 -93.5 26.5s-33.5 40.167 -33.5 67.5c0 35.333 12.667 67.5 38 96.5s65.666 54.833 120.999 77.5z" />
    <glyph glyph-name="uogonek" unicode="&#x173;" horiz-adv-x="636" 
d="M448 24c-22 -12.667 -46.333 -22.999 -73 -30.999s-51.667 -12 -75 -12c-68 0 -117.833 15 -149.5 45s-47.5 76.667 -47.5 140v191h-79v90h193v-264c0 -36 6.83301 -62 20.5 -78s35.834 -24 66.501 -24c15.333 0 33.166 2.66699 53.499 8s38.833 11.666 55.5 18.999v249
h-79v90h193v-340l88 -30l-31 -98zM552 9.00098l32.0039 -29.999c-30.667 -16 -52.334 -33 -65.001 -51s-19 -37.333 -19 -58c0 -14.667 5.66699 -26.334 17 -35.001s25.666 -13 42.999 -13c15.333 0 31.666 3.33301 48.999 10v-72c-16 -7.33301 -31.5 -12.333 -46.5 -15
s-29.167 -4 -42.5 -4c-40 0 -71.167 8.83301 -93.5 26.5s-33.5 40.167 -33.5 67.5c0 35.333 12.667 67.5 38 96.5s65.666 54.833 120.999 77.5z" />
    <glyph glyph-name="Wcircumflex" unicode="&#x174;" horiz-adv-x="933" 
d="M5 589h271v-101h-55l60 -236l31 -132l25 130l72 265h141l70 -263l25 -132l28 132l61 236h-62v101h256v-101h-72l-155 -488h-134l-60 265l-29 128l-32 -125l-68 -268h-133l-154 488h-86v101zM478 794l180 -104l-31 -43l-148 59l-153 -59l-28 43z" />
    <glyph glyph-name="wcircumflex" unicode="&#x175;" horiz-adv-x="791" 
d="M188 0l-118 357h-65v90h241v-90h-57l41 -154l29 -107l27 107l55 179h114l56 -181l27 -106l27 105l47 157h-61v90h235v-90h-64l-129 -357h-120l-76 261l-84 -261h-125zM394 675l164 -115l-35 -50l-128 75l-136 -75l-33 50z" />
    <glyph glyph-name="Ycircumflex" unicode="&#x176;" horiz-adv-x="663" 
d="M6 589h272v-101h-65l126 -170l125 170h-66v101h259v-101h-72l-193 -250v-138h94v-100h-303v100h95v137l-194 251h-78v101zM330 794l180 -104l-31 -43l-148 59l-153 -59l-28 43z" />
    <glyph glyph-name="ycircumflex" unicode="&#x177;" horiz-adv-x="597" 
d="M150 -242c-13.333 0 -27.3301 1.5 -41.9971 4.5s-30 7.83301 -46 14.5l21 88c12 -4.66699 22.833 -8.16699 32.5 -10.5s20.167 -3.5 31.5 -3.5c16 0 29.5 3.83301 40.5 11.5s21.667 21 32 40s22.166 45.5 35.499 79.5l149 375h-52l5 90h235v-90h-77l-184 -433
c-24.667 -58.667 -51.334 -101 -80.001 -127s-62.334 -39 -101.001 -39zM276.003 -66l-198 423h-73v90h244v-90h-55l135 -319zM304.003 675l164 -115l-35 -50l-128 75l-136 -75l-33 50z" />
    <glyph glyph-name="Ydieresis" unicode="&#x178;" horiz-adv-x="663" 
d="M6 589h272v-101h-65l126 -170l125 170h-66v101h259v-101h-72l-193 -250v-138h94v-100h-303v100h95v137l-194 251h-78v101zM426 800c18 0 33.833 -6.83301 47.5 -20.5s20.5 -29.834 20.5 -48.501s-6.83301 -34.667 -20.5 -48s-29.5 -20 -47.5 -20
c-19.333 0 -35.666 6.66699 -48.999 20s-20 29.333 -20 48s6.66699 34.834 20 48.501s29.666 20.5 48.999 20.5zM235 800c18 0 33.833 -6.83301 47.5 -20.5s20.5 -29.834 20.5 -48.501s-6.83301 -34.667 -20.5 -48s-29.5 -20 -47.5 -20
c-18.667 0 -34.834 6.66699 -48.501 20s-20.5 29.333 -20.5 48s6.83301 34.834 20.5 48.501s29.834 20.5 48.501 20.5z" />
    <glyph glyph-name="Zacute" unicode="&#x179;" horiz-adv-x="567" 
d="M62 589h446v-73l-309 -415h205l35 96l96 -32l-56 -165h-432v80l304 408h-201l-19 -88l-99 14zM442 792l26 -95l-253 -39l-16 45z" />
    <glyph glyph-name="zacute" unicode="&#x17a;" horiz-adv-x="497" 
d="M50 0v77l249 280h-153l-12 -58l-100 20l25 128h376v-74l-252 -282h169l12 62l101 -19l-27 -134h-388zM335 749l77 -57l-158 -183l-49 33z" />
    <glyph glyph-name="Zdotaccent" unicode="&#x17b;" horiz-adv-x="567" 
d="M62 589h446v-73l-309 -415h205l35 96l96 -32l-56 -165h-432v80l304 408h-201l-19 -88l-99 14zM286 806c20.667 0 37.334 -6.33301 50.001 -19s19 -29.334 19 -50.001s-6.33301 -37.334 -19 -50.001s-29.334 -19 -50.001 -19s-37.167 6.33301 -49.5 19
s-18.5 29.334 -18.5 50.001s6.16699 37.334 18.5 50.001s28.833 19 49.5 19z" />
    <glyph glyph-name="zdotaccent" unicode="&#x17c;" horiz-adv-x="497" 
d="M50 0v77l249 280h-153l-12 -58l-100 20l25 128h376v-74l-252 -282h169l12 62l101 -19l-27 -134h-388zM248 664c20.667 0 37.334 -6.33301 50.001 -19s19 -29.334 19 -50.001s-6.33301 -37.334 -19 -50.001s-29.334 -19 -50.001 -19s-37.167 6.33301 -49.5 19
s-18.5 29.334 -18.5 50.001s6.16699 37.334 18.5 50.001s28.833 19 49.5 19z" />
    <glyph glyph-name="Zcaron" unicode="&#x17d;" horiz-adv-x="567" 
d="M62 589h446v-73l-309 -415h205l35 96l96 -32l-56 -165h-432v80l304 408h-201l-19 -88l-99 14zM287 642l-168 115l33 50l136 -75l128 75l35 -50z" />
    <glyph glyph-name="zcaron" unicode="&#x17e;" horiz-adv-x="497" 
d="M50 0v77l249 280h-153l-12 -58l-100 20l25 128h376v-74l-252 -282h169l12 62l101 -19l-27 -134h-388zM249 500l-168 115l33 50l136 -75l128 75l35 -50z" />
    <glyph glyph-name="uni018F" unicode="&#x18f;" horiz-adv-x="621" 
d="M271 609c60.667 0 113.498 -12.5 158.498 -37.5s80 -60.833 105 -107.5s37.5 -102.667 37.5 -168c0 -66.667 -11.833 -123.5 -35.5 -170.5s-56.5 -83 -98.5 -108s-90.333 -37.5 -145 -37.5c-50.667 0 -96 11.5 -136 34.5s-71.5 56.5 -94.5 100.5s-34.5 97.333 -34.5 160
v47h429c-4.66699 62.667 -23 110 -55 142s-76 48 -132 48c-21.333 0 -41.166 -1.83301 -59.499 -5.5s-34.166 -8.16699 -47.499 -13.5l-18 -84l-98 22l24 127c12.667 8 28 15.833 46 23.5s39.667 14.167 65 19.5s55 8 89 8zM290.998 78
c30.667 0 58.332 5.99902 82.999 17.999s44.334 30 59.001 54s22 53 22 87h-315c0 -55.333 14.333 -95.666 43 -120.999s64.667 -38 108 -38z" />
    <glyph glyph-name="florin" unicode="&#x192;" horiz-adv-x="574" 
d="M162 -6c-25.333 0 -49.0039 3.49902 -71.0039 10.499s-40.333 17.5 -55 31.5l51 86c24.667 -20 50 -30 76 -30c22.667 0 42.334 8 59.001 24s27.334 40.333 32.001 73l24 168h-84l13 90h84l5 43c9.33301 59.333 33.5 106.5 72.5 141.5s89.167 52.5 150.5 52.5
c23.333 0 45.5 -4.16699 66.5 -12.5s37.5 -20.833 49.5 -37.5l-49 -73c-12.667 10 -25 16.833 -37 20.5s-26 5.5 -42 5.5c-25.333 0 -46.666 -8.66699 -63.999 -26s-28 -39.666 -32 -66.999l-6 -47h116l-13 -90h-116l-25 -179c-8.66699 -62.667 -30.667 -109 -66 -139
s-81.666 -45 -138.999 -45z" />
    <glyph glyph-name="Ohorn" unicode="&#x1a0;" horiz-adv-x="668" 
d="M333 609c58 0 109.002 -12.333 153.002 -37s78.333 -60.334 103 -107.001s37 -103.334 37 -170.001s-12.333 -123.5 -37 -170.5s-58.834 -82.833 -102.501 -107.5s-94.5 -37 -152.5 -37c-57.333 0 -107.833 12.333 -151.5 37s-77.834 60.5 -102.501 107.5
s-37 103.833 -37 170.5s12.167 123.334 36.5 170.001s58.333 82.334 102 107.001s94.167 37 151.5 37zM334.002 511c-56 0 -98.5 -18.333 -127.5 -55s-43.5 -90.334 -43.5 -161.001s14.5 -124.5 43.5 -161.5s71.5 -55.5 127.5 -55.5s98.667 18.5 128 55.5
s44 90.833 44 161.5s-14.5 124.334 -43.5 161.001s-71.833 55 -128.5 55zM438.002 499v90c46 0 69 26.333 69 79h91c0 -55.333 -13.667 -97.333 -41 -126s-67 -43 -119 -43z" />
    <glyph glyph-name="ohorn" unicode="&#x1a1;" horiz-adv-x="555" 
d="M276 466c50 0 92.668 -9.66602 128.001 -28.999s62.333 -47.166 81 -83.499s28 -79.833 28 -130.5c0 -76 -20.833 -135.333 -62.5 -178s-99.834 -64 -174.501 -64c-48.667 0 -90.5 9.66699 -125.5 29s-61.667 47.166 -80 83.499s-27.5 79.5 -27.5 129.5
c0 50.667 9.16699 94.167 27.5 130.5s45 64.166 80 83.499s76.833 29 125.5 29zM276.001 373.001c-40 0 -70.167 -12.833 -90.5 -38.5s-30.5 -62.834 -30.5 -111.501s10.167 -86 30.5 -112s50.5 -39 90.5 -39c41.333 0 72.333 13 93 39s31 63.333 31 112
s-10.333 85.834 -31 111.501s-51.667 38.5 -93 38.5zM366.001 357.001v90c46 0 69 26.333 69 79h91c0 -55.333 -13.667 -97.333 -41 -126s-67 -43 -119 -43z" />
    <glyph glyph-name="Uhorn" unicode="&#x1af;" horiz-adv-x="734" 
d="M574 213c0 -74.667 -19.1689 -132.167 -57.502 -172.5s-95.833 -60.5 -172.5 -60.5c-77.333 0 -135.166 20.167 -173.499 60.5s-57.5 97.833 -57.5 172.5v275h-85v101h259v-101h-58v-295c0 -42 10 -72 30 -90s48.333 -27 85 -27s64.834 10 84.501 30s29.5 52.333 29.5 97
v285h-57v101h173v-376zM518.998 488v100.999c46 0 69 26.333 69 79h92c0 -59.333 -13.667 -104.166 -41 -134.499s-67.333 -45.5 -120 -45.5z" />
    <glyph glyph-name="uhorn" unicode="&#x1b0;" horiz-adv-x="661" 
d="M448 24c-22 -12.667 -46.333 -22.999 -73 -30.999s-51.667 -12 -75 -12c-68 0 -117.833 15 -149.5 45s-47.5 76.667 -47.5 140v191h-79v90h193v-264c0 -36 6.83301 -62 20.5 -78s35.834 -24 66.501 -24c15.333 0 33.166 2.66699 53.499 8s38.833 11.666 55.5 18.999v249
h-79v90h193v-340l88 -30l-31 -98zM474 357.001v90c46 0 69 26.333 69 79h91c0 -55.333 -13.667 -97.333 -41 -126s-67 -43 -119 -43z" />
    <glyph glyph-name="Gcaron" unicode="&#x1e6;" horiz-adv-x="626" 
d="M565 58c-21.333 -14.667 -42.5 -27.999 -63.5 -39.999s-44.167 -21.333 -69.5 -28s-55.333 -10 -90 -10c-58.667 0 -110.5 12.667 -155.5 38s-80.333 61.5 -106 108.5s-38.5 102.833 -38.5 167.5c0 63.333 12.167 118.5 36.5 165.5s59.166 83.5 104.499 109.5
s99.333 39 162 39c40 0 76.667 -5.16699 110 -15.5s62.333 -24.833 87 -43.5l30 -134l-95 -23l-23 96c-16 9.33301 -32.5 15.833 -49.5 19.5s-35.833 5.5 -56.5 5.5c-32 0 -62.167 -8.83301 -90.5 -26.5s-51.166 -42.834 -68.499 -75.501s-26 -71.667 -26 -117
s7.66699 -84 23 -116s36.333 -56.5 63 -73.5s57 -25.5 91 -25.5c24 0 44.667 2.5 62 7.5s35 11.833 53 20.5v104h-128v92h238v-245zM349 642.001l-168 115l33 50l136 -75l128 75l35 -50z" />
    <glyph glyph-name="gcaron" unicode="&#x1e7;" horiz-adv-x="574" 
d="M246 115c-67.333 0 -119.832 14.5 -157.499 43.5s-56.5 70.167 -56.5 123.5c0 56.667 19.5 101.5 58.5 134.5s91.167 49.5 156.5 49.5c25.333 0 47.666 -2 66.999 -6s38 -11 56 -21l151 53l35 -99l-122 -19c11.333 -12 19 -26 23 -42s6 -31 6 -45
c0 -40.667 -9.83301 -73.667 -29.5 -99s-46 -43.833 -79 -55.5s-69.167 -17.5 -108.5 -17.5zM254.001 -241c-36.667 0 -69.998 2.83301 -99.998 8.5s-56 12.667 -78 21s-39.333 15.5 -52 21.5l41 89c31.333 -13.333 62.333 -23.833 93 -31.5s62.667 -11.5 96 -11.5
c30 0 53.833 2.5 71.5 7.5s30.167 11.667 37.5 20s11 17.166 11 26.499c0 14 -5.33301 25.333 -16 34s-32.334 13 -65.001 13h-157v195l90 -20v-81h81c59.333 0 103.666 -12.167 132.999 -36.5s44 -58.833 44 -103.5c0 -36 -10.333 -65.167 -31 -87.5
s-48.5 -38.666 -83.5 -48.999s-73.5 -15.5 -115.5 -15.5zM248.003 200c34 0 60.667 8.16699 80 24.5s29 37.5 29 63.5c0 30 -9.5 52.833 -28.5 68.5s-45.833 23.5 -80.5 23.5s-61.5 -7.83301 -80.5 -23.5s-28.5 -38.5 -28.5 -68.5c0 -26 9.66699 -47.167 29 -63.5
s46 -24.5 80 -24.5zM248.003 500l-168 115l33 50l136 -75l128 75l35 -50z" />
    <glyph glyph-name="uni01EA" unicode="&#x1ea;" horiz-adv-x="668" 
d="M333 609c58 0 109.002 -12.333 153.002 -37s78.333 -60.334 103 -107.001s37 -103.334 37 -170.001s-12.333 -123.5 -37 -170.5s-58.834 -82.833 -102.501 -107.5s-94.5 -37 -152.5 -37c-57.333 0 -107.833 12.333 -151.5 37s-77.834 60.5 -102.501 107.5
s-37 103.833 -37 170.5s12.167 123.334 36.5 170.001s58.333 82.334 102 107.001s94.167 37 151.5 37zM334.002 511c-56 0 -98.5 -18.333 -127.5 -55s-43.5 -90.334 -43.5 -161.001s14.5 -124.5 43.5 -161.5s71.5 -55.5 127.5 -55.5s98.667 18.5 128 55.5
s44 90.833 44 161.5s-14.5 124.334 -43.5 161.001s-71.833 55 -128.5 55zM438.002 40l32.0039 -29.999c-30.667 -16 -52.334 -33 -65.001 -51s-19 -37.333 -19 -58c0 -14.667 5.66699 -26.334 17 -35.001s25.666 -13 42.999 -13c15.333 0 31.666 3.33301 48.999 10v-72
c-16 -7.33301 -31.5 -12.333 -46.5 -15s-29.167 -4 -42.5 -4c-40 0 -71.167 8.83301 -93.5 26.5s-33.5 40.167 -33.5 67.5c0 35.333 12.667 67.5 38 96.5s65.666 54.833 120.999 77.5z" />
    <glyph glyph-name="uni01EB" unicode="&#x1eb;" horiz-adv-x="555" 
d="M276 466c50 0 92.668 -9.66602 128.001 -28.999s62.333 -47.166 81 -83.499s28 -79.833 28 -130.5c0 -76 -20.833 -135.333 -62.5 -178s-99.834 -64 -174.501 -64c-48.667 0 -90.5 9.66699 -125.5 29s-61.667 47.166 -80 83.499s-27.5 79.5 -27.5 129.5
c0 50.667 9.16699 94.167 27.5 130.5s45 64.166 80 83.499s76.833 29 125.5 29zM276.001 373.001c-40 0 -70.167 -12.833 -90.5 -38.5s-30.5 -62.834 -30.5 -111.501s10.167 -86 30.5 -112s50.5 -39 90.5 -39c41.333 0 72.333 13 93 39s31 63.333 31 112
s-10.333 85.834 -31 111.501s-51.667 38.5 -93 38.5zM384.001 47.001l32.0039 -29.999c-30.667 -16 -52.334 -33 -65.001 -51s-19 -37.333 -19 -58c0 -14.667 5.66699 -26.334 17 -35.001s25.666 -13 42.999 -13c15.333 0 31.666 3.33301 48.999 10v-72
c-16 -7.33301 -31.5 -12.333 -46.5 -15s-29.167 -4 -42.5 -4c-40 0 -71.167 8.83301 -93.5 26.5s-33.5 40.167 -33.5 67.5c0 35.333 12.667 67.5 38 96.5s65.666 54.833 120.999 77.5z" />
    <glyph glyph-name="Aringacute" unicode="&#x1fa;" horiz-adv-x="680" 
d="M6 0v101h99l151 387h-84v101h227l184 -488h90v-101h-259v101h53l-31 86h-199l-31 -86h58v-101h-258zM266 266h143l-70 209zM350 772c31.333 0 56.5 -9.5 75.5 -28.5s28.5 -44.167 28.5 -75.5s-9.5 -56.5 -28.5 -75.5s-44.167 -28.5 -75.5 -28.5s-56.5 9.5 -75.5 28.5
s-28.5 44.167 -28.5 75.5s9.5 56.5 28.5 75.5s44.167 28.5 75.5 28.5zM350 717c-14.667 0 -26.667 -4.5 -36 -13.5s-14 -20.833 -14 -35.5s4.66699 -26.5 14 -35.5s21.333 -13.5 36 -13.5s26.5 4.5 35.5 13.5s13.5 20.833 13.5 35.5s-4.5 26.5 -13.5 35.5
s-20.833 13.5 -35.5 13.5zM505 941l26 -95l-253 -39l-16 45z" />
    <glyph glyph-name="aringacute" unicode="&#x1fb;" horiz-adv-x="551" 
d="M370 20c-46.667 -26 -94.332 -39 -142.999 -39c-62 0 -109.167 12 -141.5 36s-48.5 59 -48.5 105c-0.666992 92.667 60.333 139 183 139h112c0 40.667 -8.33301 70.5 -25 89.5s-38.334 28.5 -65.001 28.5c-14.667 0 -28.5 -1 -41.5 -3s-25.833 -5 -38.5 -9l-9 -49l-94 13
l18 106c26.667 9.33301 53.834 16.5 81.501 21.5s56.5 7.5 86.5 7.5c65.333 0 115.166 -17.167 149.499 -51.5s51.5 -84.833 51.5 -151.5v-166l84 -27l-31 -94zM223.002 187c-22.667 0 -40.001 -5.66699 -52.001 -17s-18 -27 -18 -47c0 -38 26 -57 78 -57
c36.667 0 70.334 9.66699 101.001 29v91zM247.001 727c31.333 0 56.5 -9.5 75.5 -28.5s28.5 -44.167 28.5 -75.5s-9.5 -56.5 -28.5 -75.5s-44.167 -28.5 -75.5 -28.5s-56.5 9.5 -75.5 28.5s-28.5 44.167 -28.5 75.5s9.5 56.5 28.5 75.5s44.167 28.5 75.5 28.5zM247.001 672
c-14.667 0 -26.667 -4.5 -36 -13.5s-14 -20.833 -14 -35.5s4.66699 -26.5 14 -35.5s21.333 -13.5 36 -13.5s26.5 4.5 35.5 13.5s13.5 20.833 13.5 35.5s-4.5 26.5 -13.5 35.5s-20.833 13.5 -35.5 13.5zM334.001 1029l77 -57l-158 -183l-49 33z" />
    <glyph glyph-name="AEacute" unicode="&#x1fc;" horiz-adv-x="939" 
d="M28 0v101h95l239 387h-94v101h557l60 -177l-96 -32l-37 108h-172v-141h162v-99h-162v-147h196l37 100l95 -33l-58 -168h-472v101h86v71h-186l-43 -71h53v-101h-260zM336 272h128v216zM685 792l26 -95l-253 -39l-16 45z" />
    <glyph glyph-name="aeacute" unicode="&#x1fd;" horiz-adv-x="801" 
d="M77 426c24 9.33301 48.5039 17.002 73.5039 23.002s53.167 9 84.5 9c46 0 82.667 -8.16699 110 -24.5s45.666 -37.833 54.999 -64.5c21.333 28.667 46.833 50.667 76.5 66s60.5 23 92.5 23s60.833 -6.83301 86.5 -20.5s46.667 -33 63 -58s27.666 -53.833 33.999 -86.5
s6.16602 -67.667 -0.500977 -105l-311 -1c4.66699 -37.333 18.334 -66.166 41.001 -86.499s51 -30.5 85 -30.5c26.667 0 49.667 3 69 9s35.5 12.667 48.5 20s22.833 13.333 29.5 18l49 -64c0 -0.666992 -4.16699 -4.66699 -12.5 -12s-20.666 -15.833 -36.999 -25.5
s-36.833 -18 -61.5 -25s-53.334 -10.5 -86.001 -10.5s-62.834 4.16699 -90.501 12.5s-52.5 22.833 -74.5 43.5c-12 -8.66699 -28 -17.334 -48 -26.001s-41 -15.834 -63 -21.501s-42.667 -8.5 -62 -8.5c-59.333 0 -106 12.833 -140 38.5s-51 60.167 -51 103.5
c0 35.333 8.16699 63.666 24.5 84.999s38.5 36.833 66.5 46.5s59 14.5 93 14.5h119c0 18 -2.33301 33.667 -7 47s-14 24 -28 32s-36 12 -66 12c-12.667 0 -25.334 -0.833008 -38.001 -2.5s-25.667 -3.5 -39 -5.5l-8 -50l-96 18zM224.004 184.002
c-12 0 -23.499 -1.66504 -34.499 -4.99805s-19.833 -9.33301 -26.5 -18s-10 -21.334 -10 -38.001c0 -18 8 -31.167 24 -39.5s34.333 -12.5 55 -12.5c14 0 29.167 2 45.5 6s31.666 8.66699 45.999 14s25.5 10.666 33.5 15.999c-4.66699 12 -8.5 24.333 -11.5 37
s-5.16699 26 -6.5 40h-115zM661.005 272.004c0 27.333 -7.66797 49.667 -23.001 67s-40.666 26 -75.999 26c-30.667 0 -56.5 -8 -77.5 -24s-34.833 -39.333 -41.5 -70zM494.004 749.005l77 -57l-158 -183l-49 33z" />
    <glyph glyph-name="Oslashacute" unicode="&#x1fe;" horiz-adv-x="668" 
d="M131 -69l49 108l35 59l191 418l29 60l34 75h97l-54 -116l-38 -70l-189 -413l-22 -44l-36 -77h-96zM333 609c58 0 109.002 -12.333 153.002 -37s78.333 -60.334 103 -107.001s37 -103.334 37 -170.001s-12.333 -123.5 -37 -170.5s-58.834 -82.833 -102.501 -107.5
s-94.5 -37 -152.5 -37c-57.333 0 -107.833 12.333 -151.5 37s-77.834 60.5 -102.501 107.5s-37 103.833 -37 170.5s12.167 123.334 36.5 170.001s58.333 82.334 102 107.001s94.167 37 151.5 37zM334.002 511c-56 0 -98.5 -18.333 -127.5 -55s-43.5 -90.334 -43.5 -161.001
s14.5 -124.5 43.5 -161.5s71.5 -55.5 127.5 -55.5s98.667 18.5 128 55.5s44 90.833 44 161.5s-14.5 124.334 -43.5 161.001s-71.833 55 -128.5 55zM489.002 792l26 -95l-253 -39l-16 45z" />
    <glyph glyph-name="oslashacute" unicode="&#x1ff;" horiz-adv-x="555" 
d="M176 -76h-61l255 589h61zM276 466c50 0 92.668 -9.66602 128.001 -28.999s62.333 -47.166 81 -83.499s28 -79.833 28 -130.5c0 -76 -20.833 -135.333 -62.5 -178s-99.834 -64 -174.501 -64c-48.667 0 -90.5 9.66699 -125.5 29s-61.667 47.166 -80 83.499
s-27.5 79.5 -27.5 129.5c0 50.667 9.16699 94.167 27.5 130.5s45 64.166 80 83.499s76.833 29 125.5 29zM276.001 373.001c-40 0 -70.167 -12.833 -90.5 -38.5s-30.5 -62.834 -30.5 -111.501s10.167 -86 30.5 -112s50.5 -39 90.5 -39c41.333 0 72.333 13 93 39
s31 63.333 31 112s-10.333 85.834 -31 111.501s-51.667 38.5 -93 38.5zM364.001 749.001l77 -57l-158 -183l-49 33z" />
    <glyph glyph-name="uni0200" unicode="&#x200;" horiz-adv-x="680" 
d="M6 0v101h99l151 387h-84v101h227l184 -488h90v-101h-259v101h53l-31 86h-199l-31 -86h58v-101h-258zM266 266h143l-70 209zM280 833l141 -148l-31 -32l-167 112zM110 791l179 -97l-21 -38l-195 54z" />
    <glyph glyph-name="uni0201" unicode="&#x201;" horiz-adv-x="551" 
d="M370 20c-46.667 -26 -94.332 -39 -142.999 -39c-62 0 -109.167 12 -141.5 36s-48.5 59 -48.5 105c-0.666992 92.667 60.333 139 183 139h112c0 40.667 -8.33301 70.5 -25 89.5s-38.334 28.5 -65.001 28.5c-14.667 0 -28.5 -1 -41.5 -3s-25.833 -5 -38.5 -9l-9 -49l-94 13
l18 106c26.667 9.33301 53.834 16.5 81.501 21.5s56.5 7.5 86.5 7.5c65.333 0 115.166 -17.167 149.499 -51.5s51.5 -84.833 51.5 -151.5v-166l84 -27l-31 -94zM223.002 187c-22.667 0 -40.001 -5.66699 -52.001 -17s-18 -27 -18 -47c0 -38 26 -57 78 -57
c36.667 0 70.334 9.66699 101.001 29v91zM239.001 749l129 -207l-48 -33l-159 183zM42.001 728l167 -177l-41 -42l-190 150z" />
    <glyph glyph-name="uni0202" unicode="&#x202;" horiz-adv-x="680" 
d="M6 0v101h99l151 387h-84v101h227l184 -488h90v-101h-259v101h53l-31 86h-199l-31 -86h58v-101h-258zM266 266h143l-70 209zM330 819c-102.667 0 -160.333 -46.667 -173 -140l78 -11c4 50.667 35.667 76 95 76c60.667 0 93 -25.333 97 -76l78 11
c-12.667 93.333 -71 140 -175 140z" />
    <glyph glyph-name="uni0203" unicode="&#x203;" horiz-adv-x="551" 
d="M370 20c-46.667 -26 -94.332 -39 -142.999 -39c-62 0 -109.167 12 -141.5 36s-48.5 59 -48.5 105c-0.666992 92.667 60.333 139 183 139h112c0 40.667 -8.33301 70.5 -25 89.5s-38.334 28.5 -65.001 28.5c-14.667 0 -28.5 -1 -41.5 -3s-25.833 -5 -38.5 -9l-9 -49l-94 13
l18 106c26.667 9.33301 53.834 16.5 81.501 21.5s56.5 7.5 86.5 7.5c65.333 0 115.166 -17.167 149.499 -51.5s51.5 -84.833 51.5 -151.5v-166l84 -27l-31 -94zM223.002 187c-22.667 0 -40.001 -5.66699 -52.001 -17s-18 -27 -18 -47c0 -38 26 -57 78 -57
c36.667 0 70.334 9.66699 101.001 29v91zM246.001 677c-102.667 0 -160.333 -46.667 -173 -140l78 -11c4 50.667 35.667 76 95 76c60.667 0 93 -25.333 97 -76l78 11c-12.667 93.333 -71 140 -175 140z" />
    <glyph glyph-name="uni0204" unicode="&#x204;" horiz-adv-x="609" 
d="M42 589h454l59 -177l-95 -32l-38 108h-179v-138h170v-100h-170v-149h204l37 100l94 -33l-58 -168h-479v101h85l1 387h-85v101zM290 891l129 -207l-48 -33l-159 183zM93 870l167 -177l-41 -42l-190 150z" />
    <glyph glyph-name="uni0205" unicode="&#x205;" horiz-adv-x="521" 
d="M474 55c-30 -25.333 -60.667 -43.9951 -92 -55.9951s-63.666 -18 -96.999 -18c-50 0 -93.833 10.167 -131.5 30.5s-66.834 48.666 -87.501 84.999s-31 78.166 -31 125.499c0 49.333 9.83301 92.166 29.5 128.499s46.834 64.666 81.501 84.999s75 30.5 121 30.5
s86 -9.33301 120 -28s60.333 -44.834 79 -78.501s28 -73.167 28 -118.5c0 -8 -0.5 -17 -1.5 -27s-2.16699 -19.667 -3.5 -29h-344c2 -26 9.66699 -47.5 23 -64.5s30.166 -29.5 50.499 -37.5s42.5 -12 66.5 -12c28 0 54.667 4.5 80 13.5s48.333 21.833 69 38.5zM381 263.005
c-0.666992 33.333 -10.832 60.166 -30.499 80.499s-46.5 30.5 -80.5 30.5c-32 0 -59.833 -10.167 -83.5 -30.5s-36.834 -47.166 -39.501 -80.499h234zM255.002 749.005l129 -207l-48 -33l-159 183zM58.002 728.005l167 -177l-41 -42l-190 150z" />
    <glyph glyph-name="uni0206" unicode="&#x206;" horiz-adv-x="609" 
d="M42 589h454l59 -177l-95 -32l-38 108h-179v-138h170v-100h-170v-149h204l37 100l94 -33l-58 -168h-479v101h85l1 387h-85v101zM298 819c-102.667 0 -160.333 -46.667 -173 -140l78 -11c4 50.667 35.667 76 95 76c60.667 0 93 -25.333 97 -76l78 11
c-12.667 93.333 -71 140 -175 140z" />
    <glyph glyph-name="uni0207" unicode="&#x207;" horiz-adv-x="521" 
d="M474 55c-30 -25.333 -60.667 -43.9951 -92 -55.9951s-63.666 -18 -96.999 -18c-50 0 -93.833 10.167 -131.5 30.5s-66.834 48.666 -87.501 84.999s-31 78.166 -31 125.499c0 49.333 9.83301 92.166 29.5 128.499s46.834 64.666 81.501 84.999s75 30.5 121 30.5
s86 -9.33301 120 -28s60.333 -44.834 79 -78.501s28 -73.167 28 -118.5c0 -8 -0.5 -17 -1.5 -27s-2.16699 -19.667 -3.5 -29h-344c2 -26 9.66699 -47.5 23 -64.5s30.166 -29.5 50.499 -37.5s42.5 -12 66.5 -12c28 0 54.667 4.5 80 13.5s48.333 21.833 69 38.5zM381 263.005
c-0.666992 33.333 -10.832 60.166 -30.499 80.499s-46.5 30.5 -80.5 30.5c-32 0 -59.833 -10.167 -83.5 -30.5s-36.834 -47.166 -39.501 -80.499h234zM262.002 677.005c-102.667 0 -160.333 -46.667 -173 -140l78 -11c4 50.667 35.667 76 95 76c60.667 0 93 -25.333 97 -76
l78 11c-12.667 93.333 -71 140 -175 140z" />
    <glyph glyph-name="uni0208" unicode="&#x208;" horiz-adv-x="389" 
d="M42 589h306v-101h-95v-387h95v-101h-307v101h97v387h-96v101zM186 891l129 -207l-48 -33l-159 183zM-11 870l167 -177l-41 -42l-190 150z" />
    <glyph glyph-name="uni0209" unicode="&#x209;" horiz-adv-x="345" 
d="M40 447h198v-356h83v-91h-281v91h83v266h-83v90zM162 749l129 -207l-48 -33l-159 183zM-35 728l167 -177l-41 -42l-190 150z" />
    <glyph glyph-name="uni020A" unicode="&#x20a;" horiz-adv-x="389" 
d="M42 589h306v-101h-95v-387h95v-101h-307v101h97v387h-96v101zM194 819c-102.667 0 -160.333 -46.667 -173 -140l78 -11c4 50.667 35.667 76 95 76c60.667 0 93 -25.333 97 -76l78 11c-12.667 93.333 -71 140 -175 140z" />
    <glyph glyph-name="uni020B" unicode="&#x20b;" horiz-adv-x="345" 
d="M40 447h198v-356h83v-91h-281v91h83v266h-83v90zM170 677c92.667 0 142.668 -46.667 150.001 -140l-70 -11c-2 50.667 -28.667 76 -80 76c-24 0 -42.833 -6.33301 -56.5 -19s-20.834 -31.667 -21.501 -57l-70 11c4 46 18.667 80.833 44 104.5s60 35.5 104 35.5z" />
    <glyph glyph-name="uni020C" unicode="&#x20c;" horiz-adv-x="668" 
d="M333 609c58 0 109.002 -12.333 153.002 -37s78.333 -60.334 103 -107.001s37 -103.334 37 -170.001s-12.333 -123.5 -37 -170.5s-58.834 -82.833 -102.501 -107.5s-94.5 -37 -152.5 -37c-57.333 0 -107.833 12.333 -151.5 37s-77.834 60.5 -102.501 107.5
s-37 103.833 -37 170.5s12.167 123.334 36.5 170.001s58.333 82.334 102 107.001s94.167 37 151.5 37zM334.002 511c-56 0 -98.5 -18.333 -127.5 -55s-43.5 -90.334 -43.5 -161.001s14.5 -124.5 43.5 -161.5s71.5 -55.5 127.5 -55.5s98.667 18.5 128 55.5
s44 90.833 44 161.5s-14.5 124.334 -43.5 161.001s-71.833 55 -128.5 55zM325.002 891l129 -207l-48 -33l-159 183zM128.002 870l167 -177l-41 -42l-190 150z" />
    <glyph glyph-name="uni020D" unicode="&#x20d;" horiz-adv-x="555" 
d="M276 466c50 0 92.668 -9.66602 128.001 -28.999s62.333 -47.166 81 -83.499s28 -79.833 28 -130.5c0 -76 -20.833 -135.333 -62.5 -178s-99.834 -64 -174.501 -64c-48.667 0 -90.5 9.66699 -125.5 29s-61.667 47.166 -80 83.499s-27.5 79.5 -27.5 129.5
c0 50.667 9.16699 94.167 27.5 130.5s45 64.166 80 83.499s76.833 29 125.5 29zM276.001 373.001c-40 0 -70.167 -12.833 -90.5 -38.5s-30.5 -62.834 -30.5 -111.501s10.167 -86 30.5 -112s50.5 -39 90.5 -39c41.333 0 72.333 13 93 39s31 63.333 31 112
s-10.333 85.834 -31 111.501s-51.667 38.5 -93 38.5zM269.001 749.001l129 -207l-48 -33l-159 183zM72.001 728.001l167 -177l-41 -42l-190 150z" />
    <glyph glyph-name="uni020E" unicode="&#x20e;" horiz-adv-x="668" 
d="M333 609c58 0 109.002 -12.333 153.002 -37s78.333 -60.334 103 -107.001s37 -103.334 37 -170.001s-12.333 -123.5 -37 -170.5s-58.834 -82.833 -102.501 -107.5s-94.5 -37 -152.5 -37c-57.333 0 -107.833 12.333 -151.5 37s-77.834 60.5 -102.501 107.5
s-37 103.833 -37 170.5s12.167 123.334 36.5 170.001s58.333 82.334 102 107.001s94.167 37 151.5 37zM334.002 511c-56 0 -98.5 -18.333 -127.5 -55s-43.5 -90.334 -43.5 -161.001s14.5 -124.5 43.5 -161.5s71.5 -55.5 127.5 -55.5s98.667 18.5 128 55.5
s44 90.833 44 161.5s-14.5 124.334 -43.5 161.001s-71.833 55 -128.5 55zM333.002 819c-102.667 0 -160.333 -46.667 -173 -140l78 -11c4 50.667 35.667 76 95 76c60.667 0 93 -25.333 97 -76l78 11c-12.667 93.333 -71 140 -175 140z" />
    <glyph glyph-name="uni020F" unicode="&#x20f;" horiz-adv-x="555" 
d="M276 466c50 0 92.668 -9.66602 128.001 -28.999s62.333 -47.166 81 -83.499s28 -79.833 28 -130.5c0 -76 -20.833 -135.333 -62.5 -178s-99.834 -64 -174.501 -64c-48.667 0 -90.5 9.66699 -125.5 29s-61.667 47.166 -80 83.499s-27.5 79.5 -27.5 129.5
c0 50.667 9.16699 94.167 27.5 130.5s45 64.166 80 83.499s76.833 29 125.5 29zM276.001 373.001c-40 0 -70.167 -12.833 -90.5 -38.5s-30.5 -62.834 -30.5 -111.501s10.167 -86 30.5 -112s50.5 -39 90.5 -39c41.333 0 72.333 13 93 39s31 63.333 31 112
s-10.333 85.834 -31 111.501s-51.667 38.5 -93 38.5zM277.001 677.001c-102.667 0 -160.333 -46.667 -173 -140l78 -11c4 50.667 35.667 76 95 76c60.667 0 93 -25.333 97 -76l78 11c-12.667 93.333 -71 140 -175 140z" />
    <glyph glyph-name="uni0210" unicode="&#x210;" horiz-adv-x="628" 
d="M41 0v101h84v387h-84v101h265c60.667 0 108 -7.83301 142 -23.5s57.667 -38 71 -67s20 -63.167 20 -102.5c0 -64.667 -17.167 -113.167 -51.5 -145.5s-87.5 -48.5 -159.5 -48.5h-87v-101h52v-101h-252zM242 302l58.998 0.000976562c28.667 0 51.5 2.66699 68.5 8
s29.5 14.833 37.5 28.5s12 32.5 12 56.5c0 25.333 -4.66699 44.666 -14 57.999s-22.666 22.5 -39.999 27.5s-38.666 7.5 -63.999 7.5h-59v-186zM427.998 0.000976562l-116 214l108 18l79 -131h100v-101h-171zM267.998 891.001l129 -207l-48 -33l-159 183zM70.998 870.001
l167 -177l-41 -42l-190 150z" />
    <glyph glyph-name="uni0211" unicode="&#x211;" horiz-adv-x="472" 
d="M211 409c27.333 18.667 54.168 32.5 80.501 41.5s52.166 13.5 77.499 13.5s49 -4.33301 71 -13l17 -124l-94 -20l-10 54c-22 -2 -42.5 -6 -61.5 -12s-35.167 -14 -48.5 -24l-1 -234h98v-91h-295v91h84v244l-96 32l30 91zM219.002 749l129 -207l-48 -33l-159 183z
M22.002 728l167 -177l-41 -42l-190 150z" />
    <glyph glyph-name="uni0212" unicode="&#x212;" horiz-adv-x="628" 
d="M41 0v101h84v387h-84v101h265c60.667 0 108 -7.83301 142 -23.5s57.667 -38 71 -67s20 -63.167 20 -102.5c0 -64.667 -17.167 -113.167 -51.5 -145.5s-87.5 -48.5 -159.5 -48.5h-87v-101h52v-101h-252zM242 302l58.998 0.000976562c28.667 0 51.5 2.66699 68.5 8
s29.5 14.833 37.5 28.5s12 32.5 12 56.5c0 25.333 -4.66699 44.666 -14 57.999s-22.666 22.5 -39.999 27.5s-38.666 7.5 -63.999 7.5h-59v-186zM427.998 0.000976562l-116 214l108 18l79 -131h100v-101h-171zM275.998 819.001c-102.667 0 -160.333 -46.667 -173 -140l78 -11
c4 50.667 35.667 76 95 76c60.667 0 93 -25.333 97 -76l78 11c-12.667 93.333 -71 140 -175 140z" />
    <glyph glyph-name="uni0213" unicode="&#x213;" horiz-adv-x="472" 
d="M211 409c27.333 18.667 54.168 32.5 80.501 41.5s52.166 13.5 77.499 13.5s49 -4.33301 71 -13l17 -124l-94 -20l-10 54c-22 -2 -42.5 -6 -61.5 -12s-35.167 -14 -48.5 -24l-1 -234h98v-91h-295v91h84v244l-96 32l30 91zM226.002 677
c-102.667 0 -160.333 -46.667 -173 -140l78 -11c4 50.667 35.667 76 95 76c60.667 0 93 -25.333 97 -76l78 11c-12.667 93.333 -71 140 -175 140z" />
    <glyph glyph-name="uni0214" unicode="&#x214;" horiz-adv-x="688" 
d="M574 213c0 -74.667 -19.1689 -132.167 -57.502 -172.5s-95.833 -60.5 -172.5 -60.5c-77.333 0 -135.166 20.167 -173.499 60.5s-57.5 97.833 -57.5 172.5v275h-85v101h259v-101h-58v-295c0 -42 10 -72 30 -90s48.333 -27 85 -27s64.834 10 84.501 30s29.5 52.333 29.5 97
v285h-57v101h259v-101h-86v-275zM334.998 891l129 -207l-48 -33l-159 183zM137.998 870l167 -177l-41 -42l-190 150z" />
    <glyph glyph-name="uni0215" unicode="&#x215;" horiz-adv-x="636" 
d="M448 24c-22 -12.667 -46.333 -22.999 -73 -30.999s-51.667 -12 -75 -12c-68 0 -117.833 15 -149.5 45s-47.5 76.667 -47.5 140v191h-79v90h193v-264c0 -36 6.83301 -62 20.5 -78s35.834 -24 66.501 -24c15.333 0 33.166 2.66699 53.499 8s38.833 11.666 55.5 18.999v249
h-79v90h193v-340l88 -30l-31 -98zM285 749.001l129 -207l-48 -33l-159 183zM88 728.001l167 -177l-41 -42l-190 150z" />
    <glyph glyph-name="uni0216" unicode="&#x216;" horiz-adv-x="688" 
d="M574 213c0 -74.667 -19.1689 -132.167 -57.502 -172.5s-95.833 -60.5 -172.5 -60.5c-77.333 0 -135.166 20.167 -173.499 60.5s-57.5 97.833 -57.5 172.5v275h-85v101h259v-101h-58v-295c0 -42 10 -72 30 -90s48.333 -27 85 -27s64.834 10 84.501 30s29.5 52.333 29.5 97
v285h-57v101h259v-101h-86v-275zM342.998 819c-102.667 0 -160.333 -46.667 -173 -140l78 -11c4 50.667 35.667 76 95 76c60.667 0 93 -25.333 97 -76l78 11c-12.667 93.333 -71 140 -175 140z" />
    <glyph glyph-name="uni0217" unicode="&#x217;" horiz-adv-x="636" 
d="M448 24c-22 -12.667 -46.333 -22.999 -73 -30.999s-51.667 -12 -75 -12c-68 0 -117.833 15 -149.5 45s-47.5 76.667 -47.5 140v191h-79v90h193v-264c0 -36 6.83301 -62 20.5 -78s35.834 -24 66.501 -24c15.333 0 33.166 2.66699 53.499 8s38.833 11.666 55.5 18.999v249
h-79v90h193v-340l88 -30l-31 -98zM293 677.001c-102.667 0 -160.333 -46.667 -173 -140l78 -11c4 50.667 35.667 76 95 76c60.667 0 93 -25.333 97 -76l78 11c-12.667 93.333 -71 140 -175 140z" />
    <glyph glyph-name="uni0218" unicode="&#x218;" horiz-adv-x="559" 
d="M282 -20c-49.333 0 -91.835 3.83301 -127.502 11.5s-66.5 16.5 -92.5 26.5l-18 137l94 11l11 -73c19.333 -6.66699 39.333 -11.667 60 -15s42.334 -5 65.001 -5c25.333 0 48.666 3.16699 69.999 9.5s38.333 16 51 29s19 29.5 19 49.5c0 20.667 -6.5 38.667 -19.5 54
s-40.167 26.333 -81.5 33l-72 12c-60 10.667 -106 30.667 -138 60s-48 67.666 -48 114.999c0 38 10.333 70 31 96s48.667 45.5 84 58.5s75 19.5 119 19.5c22 0 43.667 -1.33301 65 -4s42 -6.66699 62 -12s40 -12.333 60 -21l19 -147l-101 -11l-13 90
c-13.333 4.66699 -28.166 8.33398 -44.499 11.001s-33.5 4 -51.5 4c-39.333 0 -70.166 -6.83301 -92.499 -20.5s-33.5 -32.167 -33.5 -55.5s8.16699 -41.5 24.5 -54.5s43.166 -22.833 80.499 -29.5l75 -12c64.667 -10 110.667 -29.5 138 -58.5s41 -66.5 41 -112.5
c0 -38.667 -7.16699 -70.667 -21.5 -96s-33.166 -45.333 -56.499 -60s-49 -25 -77 -31s-55 -9 -81 -9zM247.998 -332l-37.001 38.998l8.5 12.5l20 30c7.66699 11.667 14.167 23.167 19.5 34.5c-21.333 4.66699 -36.666 13.834 -45.999 27.501s-14 28.5 -14 44.5
c0 22.667 7.5 41 22.5 55s33.833 21 56.5 21c21.333 0 40.333 -8 57 -24s25 -35.333 25 -58c0 -21.333 -4.83301 -42 -14.5 -62s-21.167 -38.167 -34.5 -54.5s-25.833 -30.166 -37.5 -41.499s-20.167 -19.333 -25.5 -24z" />
    <glyph glyph-name="uni0219" unicode="&#x219;" horiz-adv-x="465" 
d="M312 370c-12 4 -24.1699 7.16699 -36.5029 9.5s-25.5 3.5 -39.5 3.5c-23.333 0 -44.166 -4.33301 -62.499 -13s-27.5 -22 -27.5 -40c0 -15.333 5.33301 -27.666 16 -36.999s31.334 -16 62.001 -20l60 -9c52 -6.66699 89.667 -21 113 -43s35 -52 35 -90
c0 -34 -9 -62.167 -27 -84.5s-41.833 -38.833 -71.5 -49.5s-62.167 -16 -97.5 -16c-37.333 0 -70.833 3.83301 -100.5 11.5s-56.834 18.834 -81.501 33.501l-18 104l95 17l11 -55c14 -6.66699 28.333 -11.667 43 -15s29.667 -5 45 -5c27.333 0 51 4.66699 71 14
s30 23.333 30 42c0 14 -5 25.333 -15 34s-30 14.667 -60 18l-57 9c-48 7.33301 -85.667 22.333 -113 45s-41 52.667 -41 90c0 29.333 8 54.666 24 75.999s38.333 37.666 67 48.999s61.334 17 98.001 17c31.333 0 60.333 -3.5 87 -10.5s51.334 -18.5 74.001 -34.5l18 -96
l-85 -16zM198.997 -332l-37.001 38.998l8.5 12.5l20 30c7.66699 11.667 14.167 23.167 19.5 34.5c-21.333 4.66699 -36.666 13.834 -45.999 27.501s-14 28.5 -14 44.5c0 22.667 7.5 41 22.5 55s33.833 21 56.5 21c21.333 0 40.333 -8 57 -24s25 -35.333 25 -58
c0 -21.333 -4.83301 -42 -14.5 -62s-21.167 -38.167 -34.5 -54.5s-25.833 -30.166 -37.5 -41.499s-20.167 -19.333 -25.5 -24z" />
    <glyph glyph-name="uni021A" unicode="&#x21a;" horiz-adv-x="600" 
d="M30 589h533v-200h-103v99h-105l-1 -387h85v-101h-287v101h85l1 387h-105v-99h-103v200zM265 -332l-37.001 38.998l8.5 12.5l20 30c7.66699 11.667 14.167 23.167 19.5 34.5c-21.333 4.66699 -36.666 13.834 -45.999 27.501s-14 28.5 -14 44.5c0 22.667 7.5 41 22.5 55
s33.833 21 56.5 21c21.333 0 40.333 -8 57 -24s25 -35.333 25 -58c0 -21.333 -4.83301 -42 -14.5 -62s-21.167 -38.167 -34.5 -54.5s-25.833 -30.166 -37.5 -41.499s-20.167 -19.333 -25.5 -24z" />
    <glyph glyph-name="uni021B" unicode="&#x21b;" horiz-adv-x="401" 
d="M272 -19c-32.667 0 -61.168 6.33203 -85.501 18.999s-43.166 32.334 -56.499 59.001s-20 61 -20 103v195h-83v90h83v86l110 33v-119h121v-90h-121v-163c0 -38 5.16699 -67.667 15.5 -89s27.5 -32 51.5 -32c18.667 0 41 6.66699 67 20l21 -84
c-15.333 -7.33301 -31.833 -13.833 -49.5 -19.5s-35.5 -8.5 -53.5 -8.5zM164.999 -332.001l-37.001 38.998l8.5 12.5l20 30c7.66699 11.667 14.167 23.167 19.5 34.5c-21.333 4.66699 -36.666 13.834 -45.999 27.501s-14 28.5 -14 44.5c0 22.667 7.5 41 22.5 55
s33.833 21 56.5 21c21.333 0 40.333 -8 57 -24s25 -35.333 25 -58c0 -21.333 -4.83301 -42 -14.5 -62s-21.167 -38.167 -34.5 -54.5s-25.833 -30.166 -37.5 -41.499s-20.167 -19.333 -25.5 -24z" />
    <glyph glyph-name="uni022A" unicode="&#x22a;" horiz-adv-x="668" 
d="M333 609c58 0 109.002 -12.333 153.002 -37s78.333 -60.334 103 -107.001s37 -103.334 37 -170.001s-12.333 -123.5 -37 -170.5s-58.834 -82.833 -102.501 -107.5s-94.5 -37 -152.5 -37c-57.333 0 -107.833 12.333 -151.5 37s-77.834 60.5 -102.501 107.5
s-37 103.833 -37 170.5s12.167 123.334 36.5 170.001s58.333 82.334 102 107.001s94.167 37 151.5 37zM334.002 511c-56 0 -98.5 -18.333 -127.5 -55s-43.5 -90.334 -43.5 -161.001s14.5 -124.5 43.5 -161.5s71.5 -55.5 127.5 -55.5s98.667 18.5 128 55.5
s44 90.833 44 161.5s-14.5 124.334 -43.5 161.001s-71.833 55 -128.5 55zM429.002 800c18 0 33.833 -6.83301 47.5 -20.5s20.5 -29.834 20.5 -48.501s-6.83301 -34.667 -20.5 -48s-29.5 -20 -47.5 -20c-19.333 0 -35.666 6.66699 -48.999 20s-20 29.333 -20 48
s6.66699 34.834 20 48.501s29.666 20.5 48.999 20.5zM238.002 800c18 0 33.833 -6.83301 47.5 -20.5s20.5 -29.834 20.5 -48.501s-6.83301 -34.667 -20.5 -48s-29.5 -20 -47.5 -20c-18.667 0 -34.834 6.66699 -48.501 20s-20.5 29.333 -20.5 48s6.83301 34.834 20.5 48.501
s29.834 20.5 48.501 20.5zM166.002 918h334v-76h-334v76z" />
    </font>
</defs>
</svg>
