<?xml version="1.0" standalone="no"?>
<!DOCTYPE svg PUBLIC "-//W3C//DTD SVG 20010904//EN"
 "http://www.w3.org/TR/2001/REC-SVG-20010904/DTD/svg10.dtd">
<svg version="1.0" xmlns="http://www.w3.org/2000/svg"
 width="300.000000pt" height="300.000000pt" viewBox="0 0 300.000000 300.000000"
 preserveAspectRatio="xMidYMid meet">
<metadata>
Created by potrace 1.11, written by Peter Selinger 2001-2013
</metadata>
<g transform="translate(0.000000,300.000000) scale(0.100000,-0.100000)"
fill="#000000" stroke="none">
<path d="M1666 2878 c3 -5 10 -6 15 -3 13 9 11 12 -6 12 -8 0 -12 -4 -9 -9z"/>
<path d="M1450 2859 c0 -5 5 -7 10 -4 6 3 10 8 10 11 0 2 -4 4 -10 4 -5 0 -10
-5 -10 -11z"/>
<path d="M1528 2858 c-3 -7 -30 -13 -68 -14 -42 -2 -59 0 -50 6 9 6 10 10 3
10 -6 0 -15 -4 -18 -10 -3 -5 -14 -10 -23 -10 -15 0 -15 2 -2 10 9 6 10 10 3
10 -6 0 -15 -5 -18 -11 -4 -6 -28 -9 -54 -8 -92 5 -129 -43 -126 -164 1 -42
-2 -54 -12 -50 -10 4 -11 9 -2 19 7 9 8 14 1 14 -10 0 -26 -29 -24 -42 1 -5
-7 -8 -18 -8 -29 0 -25 -15 4 -16 19 -1 24 2 21 18 -4 20 -4 20 15 3 21 -19
25 -26 13 -24 -5 1 -10 0 -13 -1 -5 -3 -65 -10 -112 -13 -16 -1 -28 -5 -28 -9
0 -3 -8 -5 -17 -3 -10 1 -24 -3 -32 -9 -12 -9 -13 -8 -6 4 7 12 6 13 -6 3 -12
-10 -18 -10 -29 0 -10 9 -11 9 -6 0 4 -7 4 -13 -1 -14 -25 -2 -164 -42 -208
-59 -16 -6 -31 -11 -32 -11 -7 1 -43 -13 -93 -37 -30 -15 -61 -25 -69 -24 -7
2 -11 0 -8 -5 3 -5 -8 -16 -24 -26 -18 -10 -28 -12 -24 -4 3 6 -2 2 -11 -10
-9 -13 -21 -23 -26 -23 -5 0 -16 -7 -25 -15 -8 -8 -19 -13 -24 -9 -5 3 -8 1
-7 -4 2 -5 -11 -24 -29 -43 -57 -61 -88 -97 -90 -105 -6 -30 -52 -112 -59
-106 -5 3 -4 1 2 -6 13 -16 6 -62 -10 -62 -6 0 -4 -5 4 -10 13 -8 13 -11 1
-19 -8 -5 -10 -14 -5 -22 4 -7 9 -31 10 -54 1 -22 3 -41 4 -42 2 -2 4 -7 5
-13 1 -5 4 -13 5 -17 1 -5 2 -12 1 -17 -1 -5 4 -13 11 -17 8 -6 9 -9 2 -9 -16
0 -42 41 -38 63 1 9 -2 15 -7 11 -5 -3 -6 -10 -3 -16 5 -8 1 -9 -12 -5 -16 6
-15 4 4 -12 12 -11 22 -26 22 -35 0 -16 9 -19 40 -17 11 0 11 -1 2 -5 -10 -5
-9 -10 4 -25 9 -10 14 -19 11 -19 -3 0 -15 9 -26 21 -15 17 -19 18 -17 5 3
-21 16 -33 40 -38 11 -2 20 -12 21 -24 1 -16 -3 -20 -19 -17 -20 4 -20 4 -2
-11 10 -9 15 -20 10 -27 -5 -9 -2 -10 11 -5 18 7 18 6 0 -14 -22 -24 -26 -25
-18 -3 5 13 3 15 -12 9 -11 -4 -16 -4 -12 0 4 4 1 17 -6 28 -7 12 -13 28 -12
36 0 8 -4 18 -10 22 -6 5 -5 8 4 8 11 0 11 3 1 15 -7 8 -10 15 -6 15 4 0 0 13
-9 30 -14 26 -18 28 -35 18 -10 -7 -17 -14 -15 -17 3 -2 11 1 19 8 11 9 15 8
20 -5 9 -23 8 -24 -12 -17 -11 4 -8 -1 8 -14 22 -19 23 -23 10 -39 -12 -15
-13 -16 -1 -9 11 6 13 4 8 -8 -3 -9 0 -23 8 -31 8 -7 11 -16 8 -20 -4 -3 -1
-6 5 -6 16 0 10 -23 -8 -33 -10 -5 -8 -6 7 -3 12 2 28 -3 35 -11 11 -14 10
-15 -12 -8 -24 7 -24 7 4 -16 27 -21 27 -23 10 -31 -18 -7 -18 -8 1 -6 11 2
26 -1 32 -5 7 -5 13 -5 13 -1 0 3 7 0 17 -7 14 -12 16 -12 11 1 -3 8 -12 14
-21 14 -9 -1 -14 3 -10 9 3 6 1 7 -6 3 -7 -5 -10 -2 -9 6 2 7 -3 12 -9 10 -7
-1 -13 2 -13 8 0 16 27 12 34 -5 3 -8 11 -15 17 -15 8 0 9 4 0 13 -6 8 -8 17
-4 20 7 7 -12 11 -37 7 -8 -1 -13 0 -10 2 3 2 14 10 24 18 11 8 17 10 13 4 -4
-7 0 -15 9 -18 9 -4 14 -9 11 -13 -11 -11 14 -32 31 -27 15 5 15 5 1 -5 -11
-7 -15 -20 -12 -38 2 -16 5 -33 5 -40 1 -7 11 -11 22 -10 15 1 21 -4 22 -20 1
-15 -3 -20 -13 -16 -12 5 -12 7 -2 14 8 4 10 11 6 16 -5 4 -12 1 -16 -6 -11
-17 -34 -4 -27 16 3 8 1 11 -4 8 -6 -4 -7 2 -4 12 5 15 4 16 -6 3 -10 -13 -11
-12 -6 3 4 12 2 16 -6 11 -6 -4 -9 -3 -6 2 4 5 -4 10 -16 10 -13 1 -23 -4 -23
-11 0 -7 8 -10 19 -7 16 4 23 -7 19 -31 -1 -5 3 -6 8 -3 5 3 11 -1 15 -9 3 -8
-3 -19 -12 -24 -9 -6 -12 -11 -5 -11 6 0 15 4 18 10 10 16 65 -17 59 -35 -4
-8 -10 -12 -15 -9 -5 3 -6 10 -3 16 4 7 2 8 -5 4 -9 -6 -9 -11 0 -23 11 -13
14 -13 26 3 7 10 14 15 14 11 5 -25 3 -33 -6 -39 -6 -5 -2 -8 8 -8 11 0 17 6
15 16 -2 10 3 19 10 21 8 3 10 -2 6 -14 -5 -17 -5 -17 6 0 14 22 5 37 -20 32
-13 -3 -18 0 -14 7 5 7 2 8 -6 3 -10 -6 -10 -4 -2 11 6 11 7 25 1 35 -7 14 -5
16 12 12 11 -3 17 -9 12 -12 -5 -3 -8 -12 -7 -18 1 -7 2 -18 3 -24 0 -5 5 -8
10 -4 5 3 13 1 16 -5 5 -8 12 -7 23 2 14 10 15 10 5 -2 -19 -21 -16 -34 4 -19
15 11 16 11 6 -1 -17 -18 -17 -35 0 -22 8 7 18 7 27 2 13 -8 13 -10 1 -10 -15
0 -6 -14 10 -16 5 -1 13 -2 19 -3 11 -1 8 -37 -5 -48 -4 -5 -5 -2 0 6 6 10 4
12 -6 6 -11 -7 -11 -5 1 11 14 18 14 18 -4 4 -16 -12 -18 -12 -11 -1 6 10 4
12 -5 6 -9 -6 -11 -4 -5 6 7 12 6 12 -7 1 -11 -9 -18 -10 -23 -2 -3 5 1 10 10
10 9 0 13 5 10 10 -4 6 -10 8 -15 5 -5 -3 -14 3 -20 12 -11 17 -11 17 -6 1 3
-10 2 -18 -2 -18 -5 0 -17 -7 -28 -15 -13 -11 -14 -14 -4 -13 8 2 18 7 22 12
3 5 14 2 23 -7 9 -10 22 -14 28 -10 6 4 8 0 4 -10 -4 -12 -2 -14 11 -10 15 6
16 5 2 -13 -14 -17 -14 -18 1 -6 15 11 20 9 40 -15 12 -15 19 -20 16 -10 -4
10 -1 17 6 17 8 0 7 4 -3 11 -13 9 -12 10 2 5 11 -3 19 2 23 15 7 20 25 27 25
9 0 -5 -4 -10 -8 -10 -17 0 -33 -51 -21 -66 6 -7 8 -18 4 -24 -4 -6 -2 -17 4
-24 8 -10 6 -17 -7 -28 -30 -27 -87 -14 -76 17 8 21 -12 27 -27 7 -13 -16 -13
-16 5 -2 18 14 19 13 13 -2 -8 -21 20 -51 40 -44 8 3 12 2 9 -2 -3 -5 1 -9 9
-9 8 0 15 5 15 11 0 5 7 1 16 -10 8 -10 13 -14 10 -8 -3 6 1 11 9 11 8 0 12
-5 9 -11 -3 -6 1 -3 9 6 8 10 17 15 20 11 4 -3 2 -12 -3 -18 -8 -9 -4 -12 12
-11 13 1 29 -2 36 -7 6 -5 12 -6 12 -1 0 5 5 2 10 -6 9 -13 10 -13 10 0 0 13
1 13 10 0 8 -13 10 -13 10 -1 0 11 4 9 16 -5 15 -18 15 -18 5 3 -15 30 -14 38
3 24 8 -6 20 -10 27 -9 8 2 13 -5 13 -14 -1 -11 5 -15 16 -13 10 2 26 -5 35
-15 16 -18 5 -23 -20 -9 -5 4 -20 5 -32 4 -19 -1 -20 1 -12 18 6 10 8 21 5 25
-3 3 -6 0 -6 -7 0 -7 -5 -9 -10 -6 -6 4 -9 1 -8 -6 3 -14 -19 -19 -37 -10 -14
7 -36 12 -62 14 -13 0 -23 4 -23 7 0 4 -6 7 -12 8 -19 1 -59 9 -88 17 -14 4
-31 7 -37 7 -7 1 -13 4 -13 8 0 3 -8 6 -18 7 -9 1 -30 7 -47 14 -16 7 -37 13
-45 13 -8 1 -21 5 -27 9 -8 5 -13 3 -13 -4 0 -6 -8 -9 -20 -6 -11 3 -18 2 -15
-3 5 -9 -24 -25 -40 -21 -5 2 -7 0 -3 -4 4 -4 2 -19 -3 -33 -8 -20 -22 -211
-19 -257 0 -5 1 -46 3 -91 1 -48 7 -87 15 -97 10 -12 10 -17 1 -23 -7 -4 -9
-3 -5 4 3 6 2 13 -4 17 -6 4 -10 -5 -10 -19 0 -18 4 -24 15 -20 8 4 15 1 15
-4 0 -6 -9 -9 -19 -7 -14 3 -18 -1 -14 -11 4 -10 0 -12 -11 -8 -11 4 -13 11
-6 23 5 10 6 28 3 41 -4 13 -2 21 3 17 6 -3 10 3 11 13 1 11 -3 23 -9 26 -7 4
-6 9 2 14 8 5 6 9 -6 14 -10 4 -15 4 -11 0 4 -4 2 -13 -4 -21 -7 -8 -8 -18 -3
-25 10 -14 10 -57 1 -95 -4 -15 -2 -20 8 -17 7 3 16 1 20 -5 8 -14 25 -14 25
0 0 5 -5 7 -12 3 -7 -4 -8 -3 -4 5 4 6 12 9 17 6 5 -4 13 4 18 17 6 13 10 17
10 10 1 -7 -7 -24 -16 -39 -17 -25 -16 -25 4 -19 17 5 21 3 19 -11 -2 -10 2
-21 8 -25 8 -5 7 -8 -2 -8 -7 0 -10 -5 -7 -10 4 -6 11 -7 17 -4 6 4 8 2 5 -3
-4 -6 -1 -13 7 -16 7 -3 24 -20 37 -38 12 -18 18 -30 12 -26 -6 4 -13 0 -17
-8 -3 -8 0 -17 6 -21 7 -4 8 -3 4 4 -5 8 1 12 14 12 12 0 18 4 15 10 -3 5 -2
10 4 10 5 0 13 -4 16 -10 3 -5 1 -10 -5 -10 -6 0 -8 -5 -4 -12 5 -8 11 -6 19
6 9 12 14 13 17 4 7 -17 -1 -38 -13 -38 -6 0 -8 4 -4 9 3 6 -4 8 -15 6 -11 -2
-18 0 -15 6 10 15 -5 11 -22 -7 -14 -14 -14 -15 -1 -12 9 2 24 -6 34 -17 11
-11 16 -16 12 -11 -13 17 -9 23 14 21 12 -1 24 -7 26 -13 2 -7 8 -10 13 -6 5
3 9 0 9 -5 0 -6 5 -11 11 -11 8 0 8 5 -1 15 -9 11 -9 15 -1 15 7 0 9 5 5 12
-4 7 -3 8 4 4 7 -4 12 -2 12 3 0 6 5 11 11 11 5 0 7 -4 4 -10 -3 -5 -1 -10 4
-10 6 0 11 5 11 12 0 6 7 3 16 -8 14 -18 15 -18 10 6 -3 14 -3 19 0 12 3 -6
10 -10 15 -7 5 4 6 -2 2 -11 -4 -12 -3 -15 5 -10 7 4 12 2 12 -4 0 -6 5 -8 10
-5 8 5 8 11 0 20 -8 9 -8 15 0 20 6 4 9 1 8 -7 -2 -7 2 -12 7 -11 13 2 17 -35
4 -42 -5 -4 -6 2 -2 12 5 14 3 15 -7 6 -17 -15 -5 -32 19 -26 13 3 18 12 16
24 -3 16 -1 17 14 9 10 -5 21 -6 25 -2 4 3 4 -2 0 -12 -5 -13 -4 -17 4 -12 6
3 13 2 16 -3 3 -5 -7 -7 -23 -6 -38 3 -53 -6 -41 -25 8 -12 10 -11 10 4 0 15
3 17 12 8 8 -8 8 -15 0 -25 -9 -10 -8 -14 3 -14 7 0 14 3 13 6 -2 19 4 28 17
28 18 0 20 -14 3 -20 -7 -2 -10 -8 -6 -12 4 -4 17 3 29 16 15 18 19 20 15 6
-3 -10 -2 -15 3 -12 5 3 12 1 16 -5 3 -5 15 -10 25 -10 10 0 21 -6 23 -12 4
-10 6 -10 6 0 1 8 -8 16 -19 19 -11 3 -18 9 -15 13 3 5 0 12 -6 16 -8 4 -9 3
-5 -4 4 -7 2 -12 -4 -12 -7 0 -10 6 -7 13 2 6 10 11 17 9 14 -3 42 17 36 27
-3 4 6 7 20 7 13 0 24 -4 24 -9 0 -5 -6 -7 -14 -4 -8 3 -19 0 -25 -7 -9 -11
-6 -13 14 -13 14 0 28 4 31 9 3 5 12 1 19 -9 13 -17 14 -17 20 -1 6 16 9 16
24 -4 17 -20 18 -20 39 -3 11 10 18 23 15 29 -4 6 -2 7 3 3 5 -5 9 -21 10 -36
1 -20 -4 -27 -18 -28 -10 -1 -16 3 -12 9 4 6 -3 5 -16 -2 -15 -8 -20 -8 -16
-1 10 15 -7 14 -22 -1 -7 -7 -12 -8 -12 -2 0 6 -6 11 -12 11 -23 1 -43 8 -50
18 -5 6 -8 5 -8 -4 0 -11 -3 -11 -15 -1 -10 9 -15 9 -15 1 0 -10 14 -15 34
-12 5 1 6 -5 3 -13 -4 -9 -1 -18 5 -22 6 -4 8 -3 5 3 -7 11 22 28 31 18 3 -3
1 -5 -5 -5 -20 0 -9 -26 11 -27 12 -1 15 1 9 4 -22 8 -14 21 12 21 13 0 22 -4
19 -9 -3 -5 -1 -9 5 -9 5 0 11 6 14 13 2 6 8 9 12 4 5 -4 3 -13 -3 -19 -17
-17 -15 -28 6 -27 11 0 12 2 4 6 -10 4 -9 9 4 24 16 18 34 17 34 -2 0 -6 -4
-7 -10 -4 -5 3 -10 1 -10 -4 0 -14 6 -14 31 -1 13 7 19 7 19 0 0 -5 -4 -10 -8
-10 -5 0 -16 -6 -26 -13 -16 -12 -16 -13 3 -13 11 0 17 5 14 10 -4 5 1 7 11 3
9 -4 15 -3 12 1 -2 4 2 18 10 32 l15 25 -4 -27 c-3 -18 0 -25 9 -21 7 2 11 13
9 24 -4 18 8 32 33 35 6 1 10 -1 7 -6 -3 -5 1 -11 7 -13 8 -3 6 -6 -4 -6 -10
-1 -18 4 -18 10 0 5 -4 8 -9 5 -5 -4 -8 -13 -7 -21 2 -17 16 -33 16 -18 0 5 7
10 15 10 14 0 19 -10 16 -29 0 -5 8 -8 18 -8 11 0 23 -5 27 -11 4 -8 -1 -9
-17 -4 -20 7 -22 6 -12 -6 8 -10 9 -20 3 -29 -14 -22 -12 -31 6 -28 10 2 19
-3 22 -11 3 -8 0 -11 -6 -7 -6 3 -14 1 -18 -5 -5 -8 -9 -8 -14 1 -5 8 -7 3 -7
-13 2 -26 2 -27 17 -6 9 11 19 17 23 13 12 -12 8 -26 -5 -18 -10 6 -10 5 -1
-8 7 -8 9 -19 5 -23 -4 -5 9 1 30 12 31 19 39 19 56 7 11 -7 23 -10 28 -6 5 4
0 -3 -10 -15 -11 -13 -21 -23 -24 -23 -2 0 1 6 7 13 6 8 8 17 4 20 -12 13 -20
7 -19 -15 1 -20 7 -22 69 -23 57 -1 67 1 62 14 -4 12 -2 12 9 -1 14 -19 31
-25 21 -7 -4 6 3 5 14 -3 18 -11 23 -11 31 2 5 8 10 10 10 4 0 -15 190 -14
190 0 0 7 3 8 8 1 10 -14 65 -17 56 -3 -5 7 -2 8 7 3 7 -5 30 -10 51 -10 33
-1 36 1 26 18 -6 12 -6 17 0 13 13 -8 23 19 15 40 -4 12 2 10 20 -7 29 -25 37
-40 10 -18 -14 12 -16 12 -8 0 5 -9 4 -12 -2 -8 -6 4 -14 0 -17 -9 -3 -9 -2
-12 5 -9 5 4 17 1 26 -7 14 -11 16 -11 8 1 -6 11 -4 13 8 8 11 -4 14 -2 11 7
-3 7 10 28 28 46 22 23 26 30 11 22 -30 -17 -35 -15 -21 7 7 11 16 17 20 15 4
-3 8 0 8 6 0 6 5 8 13 4 8 -5 8 -3 -2 9 -11 14 -11 18 3 23 9 3 14 10 11 14
-3 4 2 14 11 21 13 10 17 10 24 -1 5 -8 11 -12 14 -10 2 3 -8 24 -24 47 -20
29 -24 40 -13 36 11 -4 14 -2 9 5 -11 18 2 14 23 -7 11 -11 17 -22 14 -25 -3
-3 -12 2 -19 12 -7 9 -14 12 -14 6 0 -6 7 -17 15 -24 12 -10 19 -8 36 11 12
15 19 18 16 8 -3 -9 -1 -22 4 -30 7 -11 9 -11 9 -1 0 8 5 10 13 6 10 -6 10 -4
0 7 -16 16 -17 33 -1 23 7 -4 8 -3 4 4 -4 7 -1 12 6 12 10 0 10 2 -1 9 -8 5
-9 11 -3 15 13 8 23 -19 15 -41 -4 -11 -3 -14 5 -9 7 4 12 14 12 22 0 15 21
15 33 -1 4 -6 11 -4 17 5 9 14 15 7 10 -15 -1 -5 4 -4 12 3 11 11 11 14 0 21
-10 6 -5 18 23 47 20 22 33 30 29 20 -5 -13 -4 -17 4 -12 6 3 14 1 18 -5 4 -8
3 -9 -4 -5 -8 5 -10 2 -6 -8 3 -9 1 -16 -6 -16 -6 0 -9 4 -5 9 3 5 0 13 -6 17
-8 5 -9 3 -4 -6 6 -9 4 -11 -5 -5 -9 5 -11 4 -6 -3 5 -8 2 -10 -8 -6 -23 9
-19 -10 6 -32 16 -13 19 -14 10 -2 -9 11 -10 18 -2 23 5 3 10 1 10 -4 0 -18
18 -12 24 7 3 10 15 18 26 19 11 1 18 -2 15 -8 -4 -5 6 -14 20 -19 37 -14 46
-11 12 4 -27 12 -27 13 -8 30 12 11 21 14 26 7 3 -6 1 -11 -5 -11 -6 0 -8 -5
-5 -11 5 -6 13 -3 22 10 8 12 19 21 25 21 6 0 3 -10 -8 -22 l-19 -23 22 19
c13 10 20 22 18 26 -8 13 22 19 33 8 6 -6 15 -7 22 -3 8 5 6 11 -7 21 -17 14
-17 14 4 12 12 -2 21 1 20 7 -4 17 -30 11 -54 -13 -13 -13 -28 -20 -33 -17 -6
3 -10 0 -10 -7 0 -9 -3 -9 -10 2 -9 13 -10 13 -10 0 0 -13 -1 -13 -10 0 -7 11
-10 11 -10 2 0 -7 -4 -11 -9 -8 -4 3 -16 -1 -27 -8 -16 -12 -20 -12 -31 3 -7
9 -13 20 -13 25 0 6 6 1 14 -10 8 -11 18 -15 23 -10 4 5 2 11 -4 13 -7 3 -13
9 -13 15 0 6 9 3 20 -7 12 -11 20 -13 20 -6 0 7 4 10 9 7 5 -3 11 1 14 8 3 8
2 17 -4 20 -5 2 -4 3 3 2 7 -2 12 -11 10 -21 -3 -15 2 -13 28 9 17 14 36 23
41 20 6 -3 17 0 26 8 12 9 15 9 9 1 -4 -7 -3 -13 3 -13 15 0 23 18 11 25 -5 3
-10 12 -10 18 0 7 5 4 11 -6 13 -21 25 -22 33 -1 5 12 2 15 -9 10 -9 -3 -13
-2 -10 4 3 6 1 10 -6 10 -7 0 -10 3 -7 6 13 12 47 -16 41 -33 -9 -23 14 -8 28
19 10 18 9 20 -5 15 -9 -4 -16 -2 -16 3 0 16 30 11 36 -5 4 -8 10 -15 16 -15
5 0 6 5 2 12 -4 6 -3 8 4 4 5 -3 12 0 15 6 3 10 7 10 20 -1 24 -19 21 -34 -4
-20 -16 8 -20 8 -14 0 3 -6 3 -11 -2 -10 -20 3 -30 -2 -30 -16 0 -8 4 -15 9
-15 4 0 8 7 8 16 0 8 5 12 10 9 6 -4 7 -11 4 -17 -4 -7 -2 -8 5 -4 6 4 9 12 6
17 -11 16 7 10 22 -8 8 -10 12 -13 9 -6 -7 14 3 45 13 39 4 -3 8 5 8 17 2 20
1 21 -11 5 -7 -10 -16 -15 -20 -11 -4 4 3 16 16 26 20 16 20 18 3 12 -11 -4
-28 -8 -37 -9 -10 -1 -21 -5 -24 -9 -11 -10 -24 -8 -24 3 0 6 6 9 13 8 6 -2
11 5 11 14 -1 10 4 14 12 11 8 -3 11 -9 8 -14 -3 -5 -2 -9 3 -9 13 0 29 14 42
35 9 14 11 15 7 3 -3 -10 -1 -20 5 -23 5 -4 7 -10 4 -15 -6 -9 42 -6 52 4 4 4
-1 14 -10 23 -16 16 -16 15 -12 -5 2 -12 0 -22 -6 -22 -9 0 -11 5 -12 38 -1 9
-8 23 -17 30 -13 11 -12 11 7 2 18 -8 24 -7 32 9 6 10 7 21 3 25 -3 4 2 4 12
0 15 -6 17 -4 11 7 -7 11 -6 12 7 2 15 -13 28 -8 28 9 0 5 -4 6 -10 3 -6 -4
-7 1 -3 11 5 13 3 15 -7 9 -9 -6 -11 -4 -5 5 6 10 10 10 19 -2 6 -8 19 -14 28
-12 10 1 20 -2 23 -6 3 -5 -4 -7 -15 -5 -11 2 -19 1 -17 -3 2 -4 -4 -15 -14
-24 -11 -10 -19 -13 -21 -6 -2 6 -14 1 -26 -13 -21 -22 -22 -25 -6 -36 10 -8
23 -9 33 -4 25 14 33 14 43 -1 8 -10 9 -10 5 2 -2 10 -16 15 -39 14 -23 0 -34
4 -31 12 2 6 16 10 30 8 38 -4 55 6 48 27 -5 14 -2 17 9 13 28 -11 17 16 -14
35 -16 10 -27 21 -23 24 10 11 25 8 18 -3 -3 -6 -2 -10 4 -10 14 0 23 18 12
25 -5 3 -9 14 -8 25 1 10 5 16 10 13 5 -3 6 5 3 18 l-7 24 14 -23 c7 -12 16
-20 20 -16 4 4 2 13 -4 21 -15 17 6 44 28 36 10 -4 14 -2 9 5 -3 6 -2 13 3 16
5 4 13 1 17 -5 5 -8 3 -9 -6 -4 -8 5 -11 4 -7 -2 4 -6 -3 -26 -16 -44 -22 -33
-22 -35 -5 -51 22 -21 35 -24 19 -4 -10 11 -8 17 6 25 10 6 13 11 8 11 -6 0
-16 -5 -23 -12 -9 -9 -12 -9 -12 0 0 14 35 34 44 25 3 -3 6 -1 6 5 0 5 -6 12
-12 14 -9 3 -3 16 15 37 15 18 27 38 27 44 -1 7 -7 1 -14 -12 -7 -13 -16 -19
-19 -14 -9 14 23 55 38 49 7 -2 16 1 18 8 4 10 -1 12 -14 9 -17 -5 -19 -1 -15
21 2 14 7 29 10 34 2 4 1 14 -5 22 -5 10 -9 11 -9 3 0 -7 -6 -10 -14 -7 -8 3
-17 1 -21 -5 -3 -6 -12 -11 -18 -11 -7 0 -4 6 5 14 10 7 15 16 11 20 -4 4 0 4
10 0 14 -5 16 -2 11 12 -6 16 -5 17 7 7 16 -16 29 -17 29 -1 0 6 -3 8 -7 5 -8
-8 -33 11 -33 25 0 6 8 4 18 -3 9 -7 14 -9 10 -5 -4 5 -2 16 5 24 10 13 9 14
-3 7 -8 -6 -23 -10 -32 -11 -31 -3 -32 -4 -13 -17 12 -9 14 -16 7 -21 -6 -3
-16 3 -22 14 -6 11 -7 20 -3 21 4 0 1 3 -9 7 -14 6 -12 10 10 26 15 11 21 13
15 6 -7 -8 -13 -19 -13 -24 0 -6 9 0 20 14 11 14 20 20 20 14 0 -5 -6 -16 -12
-23 -11 -10 -10 -11 5 -6 18 8 23 40 7 50 -5 3 -10 1 -10 -5 0 -6 -5 -8 -10
-5 -7 4 -8 11 -2 18 8 10 10 46 3 67 -1 3 -8 -4 -16 -14 -10 -13 -15 -15 -15
-6 0 7 -3 10 -6 7 -4 -4 -1 -14 7 -24 9 -11 10 -14 2 -9 -9 5 -11 2 -6 -9 4
-13 8 -14 14 -4 4 7 5 17 2 23 -3 5 -1 6 5 2 9 -5 9 -13 2 -27 -6 -10 -7 -19
-3 -19 4 0 -2 -7 -13 -15 -10 -8 -23 -14 -29 -14 -5 0 -2 4 8 10 21 12 22 29
3 29 -21 0 -30 20 -17 33 6 6 11 15 11 21 0 6 -5 5 -12 -2 -7 -7 -17 -12 -23
-12 -5 0 -1 7 9 15 10 8 23 12 27 9 5 -3 9 0 9 6 0 6 4 9 8 6 4 -2 14 -1 22 5
11 6 12 9 2 9 -7 0 -11 4 -7 9 3 6 -4 8 -15 6 -25 -5 -26 8 -2 31 15 16 15 17
0 12 -18 -7 -33 16 -21 34 3 7 1 8 -5 4 -7 -4 -12 -2 -12 3 0 6 -5 11 -11 11
-5 0 -8 -4 -5 -9 3 -5 -2 -12 -12 -16 -16 -6 -16 -7 1 -16 9 -6 21 -8 26 -5 5
3 12 -1 15 -10 9 -24 7 -29 -6 -16 -7 7 -17 12 -23 12 -5 0 -2 -5 8 -11 9 -6
15 -14 12 -20 -6 -9 9 -14 30 -9 5 1 6 -2 2 -7 -5 -4 -12 -8 -15 -8 -4 0 -13
-4 -19 -8 -9 -6 -11 -3 -7 8 4 9 3 15 -2 14 -26 -4 -36 1 -25 14 13 16 5 27
-20 27 -21 0 -31 24 -16 39 9 9 6 13 -11 18 -14 3 -21 11 -18 19 3 7 1 16 -3
19 -5 3 -12 -2 -15 -11 -5 -12 -10 -14 -20 -5 -7 6 -16 8 -19 4 -4 -3 -7 -1
-7 5 0 16 13 15 29 0 11 -11 13 -10 8 5 -4 11 -3 16 3 12 6 -3 10 1 10 9 0 9
-6 13 -14 10 -8 -3 -17 -1 -20 5 -4 6 -13 8 -21 4 -8 -3 -15 0 -15 7 0 6 -5 8
-10 5 -6 -4 -9 -1 -8 6 2 6 -3 14 -11 17 -9 3 -11 0 -6 -9 5 -8 4 -11 -1 -6
-5 5 -9 13 -9 18 0 5 -3 8 -6 7 -14 -6 -47 35 -42 50 5 13 3 14 -7 5 -12 -11
-46 6 -88 45 -8 7 -18 10 -23 7 -5 -4 -9 -2 -9 3 0 13 26 33 33 26 4 -4 1 5
-6 19 -10 22 -13 24 -19 9 -4 -9 -7 -13 -7 -8 -1 5 -7 3 -14 -3 -8 -6 -17 -8
-21 -4 -4 4 -5 1 -3 -7 2 -8 2 -12 0 -7 -3 4 -9 5 -14 1 -5 -3 -8 0 -7 7 2 6
-3 14 -11 17 -10 3 -11 0 -5 -9 7 -12 5 -12 -9 0 -9 7 -17 10 -17 6 0 -5 -8
-1 -18 8 -10 10 -22 14 -27 10 -4 -5 -5 -3 -1 4 3 6 2 14 -4 18 -5 3 -10 1
-10 -5 0 -6 -4 -8 -10 -5 -5 3 -10 10 -10 14 0 9 46 8 55 -1 4 -4 14 -4 23 -1
11 5 14 2 9 -10 -4 -12 -1 -15 14 -12 10 2 19 0 19 -4 0 -7 20 -8 53 -2 4 0 7
5 7 10 0 4 -14 7 -31 5 -26 -3 -29 -1 -20 10 7 8 22 12 34 9 18 -3 19 -2 7 6
-9 5 -28 8 -43 7 -15 -2 -32 2 -37 9 -8 10 -2 12 29 11 22 0 43 -4 47 -8 4 -5
11 -8 16 -8 4 0 -1 9 -12 20 -12 12 -18 25 -15 30 4 6 1 10 -5 10 -7 0 -10 -6
-7 -13 3 -8 -1 -14 -9 -14 -7 0 -11 4 -8 9 3 4 0 16 -6 25 -11 17 -11 17 -6 1
8 -26 -3 -48 -21 -41 -13 5 -13 7 0 15 19 10 13 35 -8 35 -8 0 -12 -4 -9 -9 3
-4 0 -8 -5 -8 -16 0 -13 16 4 30 8 7 12 16 9 21 -3 5 -1 9 5 9 5 0 11 -6 14
-12 3 -10 7 -10 17 -1 7 6 20 9 29 5 14 -5 14 -3 3 10 -9 11 -10 18 -2 23 6 4
10 3 9 -2 -3 -20 2 -25 16 -13 13 11 14 10 9 -4 -3 -9 -11 -16 -18 -16 -6 0
-3 -5 7 -11 17 -10 17 -13 3 -34 -14 -21 -14 -24 1 -37 12 -9 15 -9 9 0 -4 6
-2 12 3 12 6 0 11 -8 11 -17 0 -15 2 -16 10 -3 6 9 5 17 -3 22 -7 4 -10 8 -7
9 3 0 13 2 23 4 14 3 17 -1 12 -13 -11 -28 -10 -34 3 -38 7 -1 8 0 3 2 -6 3
-7 12 -4 20 5 13 7 13 15 2 6 -8 7 -5 2 12 -6 22 -5 23 9 11 9 -7 23 -11 31
-8 8 3 17 2 20 -4 2 -5 3 -4 2 3 -2 7 -10 12 -18 10 -8 -1 -15 5 -15 13 0 21
29 14 44 -10 12 -19 13 -19 10 4 -1 17 5 28 21 37 17 8 20 13 10 17 -9 4 -7 6
5 6 9 1 17 5 17 11 0 16 -24 7 -37 -15 -9 -15 -12 -16 -13 -5 0 12 -2 12 -10
-2 -6 -10 -19 -15 -30 -13 -18 3 -25 -5 -21 -27 0 -5 -4 -8 -9 -8 -12 0 -13
11 0 30 7 11 3 20 -13 34 -22 18 -22 18 5 2 18 -10 29 -12 33 -5 4 6 13 8 21
5 9 -3 17 2 20 12 3 9 8 24 12 32 3 8 4 20 3 25 -1 6 3 4 10 -2 22 -22 33 -14
13 9 -15 19 -16 20 -1 9 19 -15 22 -9 7 19 -7 13 -7 21 2 26 6 4 8 3 5 -2 -3
-6 -2 -16 4 -24 7 -13 9 -12 9 2 0 10 7 16 19 15 16 -1 18 -5 10 -19 -6 -10
-14 -16 -20 -13 -5 4 -9 2 -9 -3 0 -6 11 -9 23 -8 18 1 23 6 20 21 -4 17 -3
17 6 5 7 -9 11 -10 11 -3 0 6 -4 14 -8 17 -10 6 -9 42 1 52 4 4 7 2 7 -4 0 -7
5 -12 11 -12 8 0 7 6 -2 17 -12 15 -12 16 4 10 31 -12 18 2 -23 23 -22 11 -40
17 -40 13 -1 -10 -29 39 -30 50 0 4 4 7 10 7 5 0 9 -3 9 -7 -3 -19 2 -33 11
-33 14 0 6 40 -11 51 -12 7 -11 9 2 9 15 0 34 -25 31 -40 0 -3 12 -6 26 -6 15
-1 21 1 15 3 -7 3 -13 9 -13 14 0 4 6 7 13 5 6 -1 9 -1 4 1 -4 3 -4 10 0 16 4
7 0 6 -10 -1 -21 -18 -37 -7 -35 23 1 13 5 22 9 19 10 -6 39 6 39 16 0 8 -61
36 -71 33 -3 -1 -11 10 -18 25 -10 25 -10 26 4 8 8 -11 18 -17 21 -13 4 4 1
13 -5 21 -10 12 -8 19 7 34 11 11 23 17 27 14 3 -4 3 2 -1 11 -3 10 -3 17 2
16 18 -3 34 1 34 9 0 13 -34 11 -42 -2 -5 -8 -8 -7 -8 2 0 10 -5 10 -21 2 -18
-10 -19 -9 -11 7 6 10 10 22 10 26 0 5 4 12 8 15 4 4 4 1 -1 -7 -5 -9 -4 -12
3 -7 6 4 8 14 5 24 -6 15 -5 15 11 3 17 -14 16 -16 -4 -31 -17 -13 -18 -17 -6
-17 9 0 16 4 16 9 0 5 4 7 8 4 4 -2 8 6 8 19 0 13 -5 23 -10 22 -6 -1 -10 9
-11 23 0 18 -6 25 -20 26 -11 0 -28 4 -38 8 -12 6 -23 4 -30 -4 -9 -10 -7 -11
10 -6 12 4 24 2 29 -5 4 -8 3 -9 -4 -5 -6 4 -22 2 -34 -5 -13 -6 -20 -8 -16
-4 4 4 1 14 -7 21 -16 17 -29 19 -20 3 4 -6 -2 -5 -14 3 -11 7 -23 19 -26 26
-2 7 0 10 5 7 17 -10 11 7 -7 22 -10 8 -12 11 -4 7 9 -5 12 -3 7 4 -4 6 -2 22
4 34 9 17 5 15 -14 -7 -14 -16 -25 -24 -26 -17 0 6 -7 12 -16 12 -11 0 -14 5
-10 16 6 15 4 15 -11 3 -15 -12 -16 -12 -11 2 4 9 1 16 -8 16 -7 0 -11 -4 -9
-8 6 -9 -22 -6 -31 4 -4 4 -1 7 6 7 7 0 10 3 7 6 -4 4 -12 2 -19 -4 -13 -11
-71 -5 -64 7 2 3 -10 6 -27 7 -58 1 -97 8 -97 17 0 4 -4 6 -9 3 -5 -4 -12 0
-14 6 -4 9 -6 9 -6 1 -1 -7 -12 -9 -33 -6 -18 3 -43 6 -55 7 -21 0 -28 8 -24
29 1 5 -3 5 -9 2 -6 -4 -9 -13 -6 -21 4 -11 1 -12 -12 -5 -9 5 -31 8 -49 6
-18 -1 -31 2 -30 8 1 5 -4 12 -12 15 -8 3 -11 0 -7 -7 4 -6 2 -11 -3 -11 -14
0 -14 6 -1 31 6 10 16 19 23 19 8 0 8 -3 -2 -9 -8 -5 -9 -11 -3 -15 9 -5 17 6
23 32 1 4 9 12 17 18 13 9 13 12 1 19 -8 5 -11 5 -7 0 9 -10 -21 -34 -43 -35
-9 0 -19 -9 -22 -20 -3 -11 -11 -20 -19 -20 -8 0 -9 3 -2 8 15 10 25 42 14 42
-6 0 -10 -7 -10 -15 0 -8 -4 -15 -10 -15 -5 0 -9 6 -7 13 1 7 -6 11 -18 9 -20
-3 -20 -3 -1 11 13 9 17 20 13 32 -6 15 -10 15 -24 4 -14 -12 -16 -12 -9 0 7
10 3 12 -15 7 l-24 -7 24 14 c13 8 19 17 14 20 -6 4 -23 -3 -39 -15 l-28 -23
23 32 c13 17 20 36 17 42 -5 7 -1 8 9 5 12 -5 13 -10 4 -20 -8 -10 -6 -12 10
-9 14 2 19 0 15 -7 -5 -7 -2 -8 6 -3 9 6 11 4 5 -5 -6 -9 -4 -11 5 -5 9 6 11
4 5 -5 -6 -9 -4 -11 5 -5 9 6 11 4 5 -5 -5 -9 -4 -11 3 -6 7 4 12 1 12 -6 0
-10 3 -9 11 2 9 13 10 13 6 0 -2 -8 -9 -14 -15 -13 -5 1 -12 -4 -15 -11 -7
-18 59 -15 76 4 10 10 7 10 -11 0 -13 -6 -27 -8 -30 -4 -4 4 -1 9 6 11 10 4
10 8 1 19 -6 8 -15 12 -19 9 -4 -3 -14 3 -21 12 -12 14 -11 15 11 9 l25 -7
-23 13 c-18 11 -20 16 -10 26 11 11 10 12 -4 7 -10 -4 -18 -11 -18 -17 0 -5
-5 -6 -10 -3 -6 4 -7 11 -4 17 4 6 2 8 -3 5 -6 -4 -16 6 -22 23 -5 17 -12 30
-15 30 -3 0 -1 -11 4 -25 7 -19 6 -23 -5 -18 -8 3 -12 10 -9 15 4 6 -3 5 -15
-1 -23 -13 -29 -23 -7 -15 16 6 27 -18 17 -35 -10 -15 -44 -2 -37 14 5 15 -37
65 -54 65 -6 0 -9 4 -6 9 4 5 -7 7 -24 5 -18 -3 -30 -1 -30 6 0 6 5 8 12 4 7
-5 8 -3 3 6 -7 11 -10 10 -19 -1 -15 -20 -87 -23 -79 -3 3 8 3 14 0 14 -3 0
-7 -5 -9 -12z m259 -188 c-1 -21 -10 -18 -13 5 -1 8 2 15 6 15 5 0 8 -9 7 -20z
m869 -295 c-1 -9 -11 -26 -21 -38 -11 -12 -18 -28 -17 -35 2 -8 -4 -6 -15 5
-18 17 -10 39 9 27 4 -2 12 5 18 16 6 11 8 20 5 20 -4 0 -3 5 0 10 10 15 23
12 21 -5z m-91 -24 c-6 -5 -25 10 -25 20 0 5 6 4 14 -3 8 -7 12 -15 11 -17z
m58 6 c-5 -8 -8 -7 -11 2 -4 11 -6 11 -13 0 -4 -7 -11 -10 -16 -6 -10 11 17
27 34 20 7 -3 10 -10 6 -16z m-56 -62 c0 -8 -4 -12 -9 -9 -5 3 -6 10 -3 15 9
13 12 11 12 -6z m91 -36 c-2 -6 -7 -10 -12 -9 -5 1 -12 -4 -17 -11 -4 -8 -11
-10 -15 -6 -4 4 1 14 12 22 23 17 37 19 32 4z m-64 -17 c3 -5 -1 -9 -9 -9 -8
0 -12 4 -9 9 3 4 7 8 9 8 2 0 6 -4 9 -8z m33 -106 c4 -4 4 -7 -2 -6 -21 5 -25
-1 -16 -18 7 -13 6 -19 -2 -19 -7 0 -12 13 -12 27 -1 27 14 34 32 16z m61 -11
c3 -3 2 -8 -3 -12 -4 -5 -10 -2 -12 5 -4 10 -8 10 -18 2 -8 -6 -11 -18 -8 -26
3 -8 1 -14 -4 -14 -5 0 -9 9 -10 20 -1 11 3 20 8 20 6 0 8 4 4 9 -6 10 33 6
43 -4z m-98 -65 c0 -5 -5 -10 -11 -10 -5 0 -7 5 -4 10 3 6 8 10 11 10 2 0 4
-4 4 -10z m0 -40 c0 -5 -2 -10 -4 -10 -3 0 -8 5 -11 10 -3 6 -1 10 4 10 6 0
11 -4 11 -10z m37 -45 c4 -4 2 -5 -6 0 -9 5 -12 3 -9 -6 3 -8 11 -13 18 -11
11 3 11 0 0 -12 -7 -9 -18 -16 -24 -15 -7 0 -7 2 1 6 9 3 9 10 -3 28 -14 21
-14 23 0 21 9 -1 19 -6 23 -11z m60 -8 c2 -2 -3 -10 -11 -16 -12 -10 -17 -8
-25 8 -10 17 -8 19 10 16 12 -3 23 -6 26 -8z m-17 -48 c0 -5 -9 -9 -20 -9 -19
0 -26 11 -14 23 8 8 34 -3 34 -14z m-76 3 c3 -5 -1 -9 -9 -9 -8 0 -12 4 -9 9
3 4 7 8 9 8 2 0 6 -4 9 -8z m-501 -44 c-10 -11 -16 -22 -15 -25 2 -3 1 -7 -1
-10 -11 -10 -1 26 11 39 6 8 8 19 4 23 -4 5 -1 5 6 1 11 -6 10 -12 -5 -28z
m52 14 c-3 -3 -11 0 -18 7 -9 10 -8 11 6 5 10 -3 15 -9 12 -12z m120 -32 c3
-5 1 -10 -4 -10 -6 0 -11 5 -11 10 0 6 2 10 4 10 3 0 8 -4 11 -10z m40 1 c3
-5 2 -12 -3 -15 -5 -3 -9 1 -9 9 0 17 3 19 12 6z m240 0 c3 -5 2 -12 -3 -15
-5 -3 -9 1 -9 9 0 17 3 19 12 6z m-602 -16 c-3 -9 -8 -14 -10 -11 -3 3 -2 9 2
15 9 16 15 13 8 -4z m283 -12 c-5 -11 -2 -13 11 -9 10 4 14 4 10 0 -4 -4 5
-16 20 -27 16 -10 20 -17 11 -13 -20 6 -21 5 -12 -18 3 -9 10 -16 16 -16 5 0
6 5 3 10 -3 6 -1 10 5 10 8 0 9 -7 5 -17 -15 -36 -11 -48 15 -46 22 2 23 1 7
-8 -9 -6 -14 -15 -11 -21 4 -6 1 -9 -7 -6 -8 3 -14 10 -14 16 0 5 -4 14 -8 19
-5 4 -8 4 -7 -2 4 -19 0 -38 -7 -31 -11 10 -12 36 -2 36 5 0 9 4 9 8 0 5 -7 9
-15 9 -8 0 -12 -4 -9 -9 3 -4 0 -8 -6 -8 -7 0 -10 6 -7 13 3 8 -1 14 -8 14 -7
0 -11 -7 -8 -16 4 -13 3 -14 -5 -2 -8 12 -14 12 -25 3 -11 -10 -17 -9 -26 2
-7 9 -25 13 -44 11 -18 -2 -36 -4 -41 -4 -6 -1 -1 -7 9 -15 11 -8 23 -12 27
-10 4 2 9 0 13 -6 3 -5 -3 -10 -14 -10 -12 0 -21 -4 -21 -8 0 -4 9 -8 20 -8
11 0 20 5 20 10 0 5 7 1 16 -10 15 -17 15 -17 0 8 -15 25 -15 27 4 25 13 -1
19 -6 15 -15 -2 -7 0 -10 5 -7 17 11 11 -11 -9 -29 -16 -15 -19 -15 -31 -1 -7
9 -19 14 -26 11 -8 -3 -18 3 -23 12 -8 14 -11 14 -11 2 0 -12 -3 -11 -11 3 -5
9 -15 17 -21 17 -6 0 -5 -7 3 -17 12 -16 12 -17 -2 -6 -9 7 -20 9 -24 5 -5 -4
-5 -2 -1 5 8 14 -10 27 -19 13 -4 -6 -11 -8 -16 -5 -12 8 -12 45 0 45 5 0 7
-10 4 -22 -4 -22 -4 -22 11 -4 15 18 14 21 -5 39 -20 18 -20 21 -6 32 9 7 15
14 12 17 -10 9 30 5 43 -5 11 -8 11 -12 0 -18 -7 -5 -8 -9 -3 -9 6 0 16 4 23
9 11 6 7 13 -14 30 -14 11 -21 21 -15 21 7 0 9 4 6 10 -3 6 1 7 10 3 11 -4 13
-8 6 -13 -7 -4 -3 -14 11 -27 l23 -21 18 24 c12 16 14 24 6 24 -7 0 -10 3 -7
6 4 3 16 0 28 -6 17 -9 19 -14 9 -26 -7 -9 -8 -14 -1 -14 6 0 14 5 17 10 4 7
13 6 26 -1 11 -6 27 -8 35 -5 11 4 12 2 4 -14 -16 -31 -12 -34 14 -9 l25 24
-21 11 c-12 6 -22 21 -23 32 -1 12 2 19 7 16 5 -4 7 -13 4 -21z m-342 1 c3 -8
2 -12 -4 -9 -6 3 -10 10 -10 16 0 14 7 11 14 -7z m82 0 c-5 -12 -2 -15 11 -10
14 6 15 4 6 -5 -14 -14 -34 -3 -26 16 3 8 7 15 10 15 3 0 2 -7 -1 -16z m204
12 c0 -3 -4 -8 -10 -11 -5 -3 -10 -1 -10 4 0 6 5 11 10 11 6 0 10 -2 10 -4z
m17 -8 c-2 -7 3 -19 12 -26 14 -11 13 -12 -6 -2 -14 6 -20 16 -17 25 7 18 17
20 11 3z m203 6 c0 -8 -19 -13 -24 -6 -3 5 1 9 9 9 8 0 15 -2 15 -3z m-300
-24 c0 -5 -4 -10 -10 -10 -5 0 -10 5 -10 10 0 6 5 10 10 10 6 0 10 -4 10 -10z
m240 -2 c0 -11 -12 -10 -30 2 -12 7 -10 9 8 7 12 0 22 -5 22 -9z m35 3 c3 -5
2 -12 -3 -15 -5 -3 -9 1 -9 9 0 17 3 19 12 6z m164 2 c-3 -19 2 -27 10 -15 6
11 10 10 15 -4 4 -10 4 -15 0 -12 -4 4 -14 3 -24 -2 -13 -7 -16 -5 -14 13 3
27 3 27 9 27 3 0 4 -3 4 -7z m-599 -23 c0 -5 -2 -10 -4 -10 -3 0 -8 5 -11 10
-3 6 -1 10 4 10 6 0 11 -4 11 -10z m422 -14 c7 4 8 2 4 -5 -9 -13 -26 -5 -25
12 0 9 2 8 6 -1 2 -6 10 -9 15 -6z m103 -4 c-3 -3 -11 0 -18 7 -9 10 -8 11 6
5 10 -3 15 -9 12 -12z m-560 -2 c3 -6 -1 -7 -9 -4 -18 7 -21 14 -7 14 6 0 13
-4 16 -10z m69 -17 c4 -10 4 -14 0 -10 -4 4 -12 0 -19 -9 -10 -14 -13 -14 -26
3 -13 16 -12 17 3 5 14 -11 17 -10 23 7 8 25 11 26 19 4z m499 -26 c4 3 2 12
-4 20 -9 9 -8 13 0 13 6 0 11 -5 11 -11 0 -5 4 -8 9 -4 6 3 8 -4 6 -16 -5 -26
-15 -38 -15 -18 0 11 -2 11 -10 -1 -6 -10 -10 -11 -10 -2 0 6 -5 12 -11 12 -5
0 -8 -4 -4 -9 3 -6 -4 -15 -15 -21 -21 -11 -21 -11 -5 13 9 14 13 32 9 43 -6
16 -4 16 13 -3 11 -13 23 -20 26 -16z m-583 7 c0 -8 -19 -13 -24 -6 -3 5 1 9
9 9 8 0 15 -2 15 -3z m274 -24 c3 -3 -8 -5 -24 -5 -16 0 -31 3 -34 6 -3 3 7 5
23 5 16 -1 32 -3 35 -6z m45 -21 c-8 -5 -9 -9 -3 -9 5 0 15 5 21 11 9 9 12 7
10 -10 -1 -13 -6 -20 -15 -16 -7 2 -11 1 -8 -3 3 -4 -4 -14 -15 -20 -18 -12
-19 -11 -9 7 5 11 10 24 9 28 -4 21 2 34 12 27 8 -4 7 -9 -2 -15z m49 -6 c0
-5 2 -16 7 -26 6 -14 10 -15 16 -6 6 10 14 8 36 -6 15 -11 35 -18 42 -16 13 2
13 0 1 -14 -10 -13 -15 -13 -21 -3 -5 7 -14 14 -21 14 -7 1 -15 3 -18 4 -3 1
-22 3 -43 4 -27 2 -36 -1 -33 -10 3 -8 -1 -11 -10 -7 -27 10 -13 29 19 24 4 0
8 4 8 9 1 6 3 15 4 20 1 6 3 12 4 15 2 8 11 6 9 -2z m-1927 -100 c13 -16 12
-17 -3 -4 -10 7 -18 15 -18 17 0 8 8 3 21 -13z m2094 -30 c-19 -13 -31 -11
-21 5 3 5 13 9 22 9 15 0 15 -2 -1 -14z m-2045 -27 c0 -2 -8 -10 -17 -17 -16
-13 -17 -12 -4 4 13 16 21 21 21 13z m34 -34 c3 -5 -1 -9 -9 -9 -8 0 -12 4 -9
9 3 4 7 8 9 8 2 0 6 -4 9 -8z m-34 -23 c0 -14 -17 -10 -23 5 -4 10 -1 13 9 9
7 -3 14 -9 14 -14z m92 -34 c2 3 5 -2 5 -10 0 -19 0 -19 -23 7 -12 14 -13 18
-3 10 9 -6 18 -10 21 -7z m-17 -25 c3 -6 -1 -7 -9 -4 -18 7 -21 14 -7 14 6 0
13 -4 16 -10z m70 -48 c-3 -3 -11 0 -18 7 -9 10 -8 11 6 5 10 -3 15 -9 12 -12z
m2142 -8 c-3 -3 -12 -4 -19 -1 -8 3 -5 6 6 6 11 1 17 -2 13 -5z m-2112 -14 c3
-6 -1 -7 -9 -4 -18 7 -21 14 -7 14 6 0 13 -4 16 -10z m45 -10 c0 -5 -2 -10 -4
-10 -3 0 -8 5 -11 10 -3 6 -1 10 4 10 6 0 11 -4 11 -10z m78 -2 c-2 -7 5 -12
16 -11 13 1 15 -2 7 -10 -12 -12 -44 9 -35 24 8 13 14 11 12 -3z m-93 -18 c3
-5 -3 -17 -14 -27 -11 -9 -17 -21 -14 -26 3 -6 1 -7 -5 -3 -13 8 6 46 23 46 5
0 3 5 -5 10 -9 6 -10 10 -3 10 6 0 15 -4 18 -10z m2130 -20 c3 -6 -1 -7 -9 -4
-18 7 -21 14 -7 14 6 0 13 -4 16 -10z m-1939 -24 c0 -14 -3 -23 -7 -20 -6 3
-6 22 0 42 3 10 7 -2 7 -22z m-123 4 c-13 -5 -23 -14 -23 -20 0 -7 6 -8 19 -1
15 8 20 7 25 -5 3 -8 11 -12 17 -8 8 5 9 3 4 -6 -6 -10 -4 -12 8 -7 12 4 14 2
10 -11 -6 -15 -5 -15 10 -3 15 12 20 11 35 -3 10 -9 21 -13 25 -10 3 4 -4 15
-16 26 l-22 19 28 -17 c22 -13 25 -19 16 -30 -10 -12 -7 -14 12 -11 12 2 25
10 27 17 3 8 0 10 -8 5 -9 -6 -11 -4 -5 5 6 10 11 9 21 -4 7 -10 10 -24 7 -32
-3 -8 0 -14 6 -14 6 0 11 6 11 13 0 6 5 4 11 -6 8 -13 7 -22 -1 -33 -14 -15
-10 -17 14 -8 9 3 13 11 9 18 -4 6 5 3 20 -6 14 -10 29 -18 33 -18 3 0 0 8 -7
18 -11 14 -10 14 8 -2 19 -15 25 -16 38 -6 10 8 15 9 15 1 0 -6 -5 -11 -12
-11 -18 0 0 -13 23 -17 12 -2 18 1 14 7 -3 5 -1 10 4 10 15 0 14 -13 -5 -36
-8 -10 -13 -14 -10 -7 4 6 2 14 -3 17 -5 3 -11 0 -14 -7 -5 -14 6 -39 17 -38
14 1 35 -12 31 -19 -3 -5 5 -16 17 -24 12 -9 17 -16 11 -16 -6 0 -21 12 -32
26 -13 16 -21 21 -21 12 0 -8 6 -20 13 -28 10 -12 9 -12 -5 -1 -9 7 -23 9 -29
5 -7 -4 -9 -3 -6 3 5 7 -7 10 -33 8 -22 -1 -43 1 -46 6 -3 5 -10 6 -16 3 -6
-4 -8 -3 -5 3 6 9 -40 38 -55 35 -4 -1 -10 8 -13 19 -5 14 -13 19 -26 16 -10
-3 -22 -1 -25 4 -3 5 -9 7 -14 4 -4 -3 -10 2 -14 10 -6 17 9 21 19 5 4 -6 11
-7 17 -4 7 5 8 2 3 -6 -5 -9 -4 -11 4 -6 9 6 9 11 0 22 -13 15 -9 17 15 8 9
-3 14 -10 11 -14 -3 -5 0 -12 6 -16 8 -5 9 -3 4 7 -7 11 -5 11 11 -1 29 -22
30 -24 12 -17 -23 8 -23 5 4 -17 17 -15 20 -15 15 -3 -3 9 -2 19 3 22 6 4 11
1 11 -4 1 -6 3 -15 4 -21 1 -5 3 -13 4 -17 0 -3 10 2 21 12 11 10 17 22 14 26
-3 5 0 9 6 9 6 0 8 5 5 11 -5 6 -12 4 -22 -8 -8 -10 -12 -13 -9 -7 3 7 -4 10
-19 8 -14 -1 -25 2 -25 7 0 5 -6 8 -12 6 -7 -1 -12 4 -10 11 1 8 -1 11 -6 8
-4 -2 -14 -1 -21 3 -9 6 -10 11 -2 15 6 4 11 2 11 -4 0 -6 4 -9 10 -5 12 7 1
35 -13 32 -6 -1 -20 -11 -30 -22 -10 -11 -15 -14 -11 -6 4 9 3 12 -4 7 -6 -3
-13 -2 -16 3 -4 5 -2 12 4 16 11 7 4 25 -9 25 -11 0 -10 -33 2 -47 6 -9 6 -13
-1 -13 -15 0 -30 23 -26 43 2 18 2 18 -18 0 -15 -12 -19 -13 -14 -3 4 8 0 6
-8 -4 -9 -11 -16 -16 -16 -11 0 5 8 17 18 28 12 15 13 18 2 12 -8 -5 -24 -11
-35 -12 -16 -3 -17 -1 -5 7 20 13 4 13 -21 -1 -23 -12 -15 -33 9 -24 8 3 19 0
24 -7 13 -21 9 -31 -7 -18 -9 7 -17 11 -18 9 -1 -2 -9 -13 -17 -24 -14 -19
-14 -20 6 -2 20 17 22 17 37 -5 9 -13 14 -16 12 -8 -4 11 4 15 31 16 25 1 32
-2 25 -9 -6 -6 -11 -16 -11 -21 0 -6 4 -5 9 2 6 11 9 9 13 -5 4 -15 0 -19 -18
-19 -13 0 -24 4 -24 9 0 5 -9 7 -21 4 -12 -3 -18 -3 -15 0 12 13 -16 33 -33
23 -25 -13 -47 3 -26 20 11 9 12 16 4 26 -6 7 -8 18 -4 24 4 6 1 18 -6 27 -11
13 -10 17 4 28 9 6 13 16 9 20 -4 5 -1 5 6 1 6 -4 12 -2 12 3 0 6 10 11 23 10
l22 0 -22 -9z m2167 0 c0 -5 -5 -10 -11 -10 -5 0 -7 5 -4 10 3 6 8 10 11 10 2
0 4 -4 4 -10z m-2103 -7 c-4 -3 1 -12 11 -20 15 -13 15 -13 -6 -3 -19 9 -23
30 -5 30 4 0 3 -3 0 -7z m103 -13 c0 -5 -8 -10 -17 -10 -15 0 -16 2 -3 10 19
12 20 12 20 0z m120 0 c0 -5 -5 -10 -11 -10 -5 0 -7 5 -4 10 3 6 8 10 11 10 2
0 4 -4 4 -10z m-80 -45 c0 -5 -5 -3 -10 5 -5 8 -10 20 -10 25 0 6 5 3 10 -5 5
-8 10 -19 10 -25z m51 18 c13 -16 12 -17 -3 -4 -10 7 -18 15 -18 17 0 8 8 3
21 -13z m154 -13 c-3 -5 -12 -10 -18 -10 -7 0 -6 4 3 10 19 12 23 12 15 0z
m-165 -21 c0 -15 -18 -19 -23 -6 -3 8 1 14 9 14 8 0 14 -4 14 -8z m71 -26
c-11 -5 -11 -7 0 -14 9 -6 10 -9 2 -9 -17 0 -25 17 -13 25 8 5 7 12 -1 23 -9
11 -6 11 7 -2 15 -14 16 -20 5 -23z m1805 12 c-1 -8 -5 -17 -8 -21 -5 -4 -4
16 1 34 3 9 9 -1 7 -13z m-2059 -17 c0 -13 -1 -17 -4 -9 -5 11 -7 11 -14 0 -4
-7 -11 -10 -15 -6 -4 4 1 14 12 22 10 8 19 15 19 15 1 0 1 -10 2 -22z m227 10
c-3 -4 -12 -4 -21 -1 -12 5 -14 3 -8 -7 5 -9 4 -11 -4 -6 -16 10 -4 25 19 23
10 -1 17 -5 14 -9z m78 -15 c-3 -16 -7 -22 -10 -15 -4 13 4 42 11 42 2 0 2
-12 -1 -27z m42 19 c3 -5 -1 -9 -9 -9 -8 0 -12 4 -9 9 3 4 7 8 9 8 2 0 6 -4 9
-8z m-10 -38 c3 -8 2 -12 -4 -9 -6 3 -10 10 -10 16 0 14 7 11 14 -7z m41 -36
l-27 -32 23 -19 24 -20 -22 7 c-14 5 -23 3 -23 -3 0 -6 5 -12 10 -12 6 -1 15
-3 20 -4 6 -1 13 -3 16 -4 3 0 2 -5 -1 -11 -11 -17 -56 20 -50 41 5 14 2 17
-8 13 -21 -8 -30 12 -13 29 8 8 12 18 8 23 -4 5 0 3 9 -4 13 -10 19 -8 34 8
29 32 29 23 0 -12z m1725 -8 c0 -5 -2 -10 -4 -10 -3 0 -8 5 -11 10 -3 6 -1 10
4 10 6 0 11 -4 11 -10z m-1900 -5 c0 -2 -6 -8 -13 -14 -10 -8 -14 -7 -14 2 0
8 6 14 14 14 7 0 13 -1 13 -2z m190 -10 c0 -8 -4 -15 -10 -15 -5 0 -7 7 -4 15
4 8 8 15 10 15 2 0 4 -7 4 -15z m25 -4 c3 -5 2 -12 -3 -15 -5 -3 -9 1 -9 9 0
17 3 19 12 6z m1680 -19 c-3 -3 0 -10 5 -17 7 -8 5 -12 -4 -12 -8 0 -13 7 -11
16 1 9 -3 23 -9 31 -10 13 -9 13 7 1 9 -8 15 -16 12 -19z m-1654 -19 c8 -9 9
-14 2 -10 -6 4 -13 1 -16 -5 -3 -7 -4 -3 -4 10 1 26 1 26 18 5z m1709 -53 c0
-4 -10 -15 -22 -26 l-23 -19 18 21 c20 25 13 55 -11 47 -15 -4 -15 -3 -2 6 11
8 18 7 28 -6 6 -9 12 -20 12 -23z m51 -50 c-5 -8 -7 -25 -6 -38 1 -13 -6 -29
-15 -35 -21 -14 -22 -27 -7 -47 10 -12 9 -13 -3 -4 -21 15 -62 16 -54 1 4 -7
3 -8 -1 -4 -5 4 -10 14 -11 22 -2 12 2 12 17 5 15 -9 19 -7 19 5 0 9 -4 13
-10 10 -5 -3 -10 -1 -10 5 0 6 8 9 18 6 13 -4 18 0 19 14 1 13 -2 18 -10 13
-7 -4 -6 0 2 10 12 15 10 18 -10 27 -21 8 -21 10 -4 9 35 -2 46 1 40 10 -3 6
3 9 14 8 14 -1 17 -5 12 -17z m-110 -27 c13 -16 12 -17 -3 -4 -17 13 -22 21
-14 21 2 0 10 -8 17 -17z m13 -31 c2 -4 -4 -8 -14 -8 -10 0 -16 4 -14 8 3 4 9
8 14 8 5 0 11 -4 14 -8z m-10 -92 c-6 -6 -10 -3 -10 10 0 13 4 16 10 10 7 -7
7 -13 0 -20z m-29 -10 c-3 -5 -12 -10 -18 -10 -7 0 -6 4 3 10 19 12 23 12 15
0z m-5 -38 c0 -5 -7 -9 -15 -9 -8 0 -12 4 -9 9 3 4 9 8 15 8 5 0 9 -4 9 -8z
m-2530 -63 c0 -6 -4 -7 -10 -4 -5 3 -10 11 -10 16 0 6 5 7 10 4 6 -3 10 -11
10 -16z m2441 -52 c-10 -9 -11 -8 -5 6 3 10 9 15 12 12 3 -3 0 -11 -7 -18z
m-31 -7 c0 -5 -5 -10 -11 -10 -5 0 -7 5 -4 10 3 6 8 10 11 10 2 0 4 -4 4 -10z
m125 -20 c-3 -5 -10 -10 -16 -10 -5 0 -9 5 -9 10 0 6 7 10 16 10 8 0 12 -4 9
-10z m-2431 -41 c-4 -7 -44 0 -44 7 0 2 11 3 24 2 14 -1 23 -5 20 -9z m2286 0
c0 -4 -9 -7 -19 -6 -11 0 -18 4 -16 7 6 9 35 8 35 -1z m-2285 -29 c-3 -5 -12
-10 -18 -10 -7 0 -6 4 3 10 19 12 23 12 15 0z m13 -26 c-12 -12 -17 -13 -23
-3 -5 8 -4 10 4 5 6 -4 14 0 17 9 4 9 9 13 12 10 3 -3 -1 -13 -10 -21z m2049
11 c0 -8 -4 -12 -9 -9 -5 3 -6 10 -3 15 9 13 12 11 12 -6z m34 -8 c-10 -9 -11
-8 -5 6 3 10 9 15 12 12 3 -3 0 -11 -7 -18z m79 19 c0 -2 -8 -10 -17 -17 -16
-13 -17 -12 -4 4 13 16 21 21 21 13z m-2123 -98 c-3 -8 -6 -5 -6 6 -1 11 2 17
5 13 3 -3 4 -12 1 -19z m123 18 c0 -2 -8 -10 -17 -17 -16 -13 -17 -12 -4 4 13
16 21 21 21 13z m1784 -12 c3 -8 2 -12 -4 -9 -6 3 -10 10 -10 16 0 14 7 11 14
-7z m66 6 c0 -5 -5 -10 -11 -10 -5 0 -7 5 -4 10 3 6 8 10 11 10 2 0 4 -4 4
-10z m55 0 c3 -5 1 -10 -4 -10 -6 0 -11 5 -11 10 0 6 2 10 4 10 3 0 8 -4 11
-10z m-1975 -20 c0 -5 -4 -10 -10 -10 -5 0 -10 5 -10 10 0 6 5 10 10 10 6 0
10 -4 10 -10z m137 -5 c0 -8 -4 -12 -9 -9 -5 3 -6 10 -3 15 9 13 12 11 12 -6z
m1577 -1 c3 -8 2 -12 -4 -9 -6 3 -10 10 -10 16 0 14 7 11 14 -7z m81 7 c3 -5
2 -12 -3 -15 -5 -3 -9 1 -9 9 0 17 3 19 12 6z m-1699 -20 c0 -12 -6 -17 -18
-13 -10 2 -18 9 -18 14 0 5 4 7 9 3 5 -3 12 -1 16 5 9 14 11 13 11 -9z m-39
-28 c-8 -7 -35 9 -41 23 -4 11 0 11 20 -2 13 -9 23 -18 21 -21z m1712 23 c9
-11 9 -16 0 -22 -7 -4 -9 -3 -5 4 3 6 -2 15 -11 21 -10 6 -13 11 -7 11 6 0 17
-6 23 -14z m91 2 c0 -4 -4 -8 -9 -8 -6 0 -12 4 -15 8 -3 5 1 9 9 9 8 0 15 -4
15 -9z m-1405 -7 c3 -5 2 -12 -3 -15 -5 -3 -9 1 -9 9 0 17 3 19 12 6z m1270
-10 c-9 -8 -36 -10 -30 -2 2 4 11 8 20 8 8 0 13 -3 10 -6z m-1688 -37 c-9 -9
-28 6 -21 18 4 6 10 6 17 -1 6 -6 8 -13 4 -17z m597 10 c3 -8 2 -12 -4 -9 -6
3 -10 10 -10 16 0 14 7 11 14 -7z m840 0 c3 -8 2 -12 -4 -9 -6 3 -10 10 -10
16 0 14 7 11 14 -7z m273 -6 c-3 -8 -6 -5 -6 6 -1 11 2 17 5 13 3 -3 4 -12 1
-19z m-1430 -3 c0 -8 -4 -12 -9 -9 -5 3 -6 10 -3 15 9 13 12 11 12 -6z m1403
-29 c-8 -24 -67 -32 -67 -9 0 7 2 11 4 9 2 -2 16 8 30 22 19 19 27 22 33 12 5
-7 5 -23 0 -34z m-90 4 c-8 -5 -15 -17 -15 -27 0 -10 -3 -16 -6 -13 -3 3 -13
-1 -21 -8 -13 -10 -18 -9 -29 5 -13 17 -13 17 5 3 18 -14 18 -13 13 10 -4 14
-4 19 -1 13 8 -17 27 -17 21 0 -3 8 -1 20 4 28 7 11 9 11 9 1 0 -7 5 -10 10
-7 6 4 7 12 4 18 -4 8 -2 7 7 -1 12 -11 12 -14 -1 -22z m-1336 -1 c-8 -14 13
-11 28 4 11 12 16 12 27 0 11 -12 11 -14 0 -12 -25 3 -40 -1 -35 -9 2 -4 -5
-9 -16 -9 -11 -1 -18 1 -14 4 3 3 1 14 -5 24 -7 15 -6 17 6 13 8 -3 12 -10 9
-15z m230 -4 c-19 -29 -20 -29 -30 -13 -5 7 -3 8 6 3 10 -6 12 -4 7 9 -4 9 -3
14 2 11 5 -3 12 -1 16 5 3 5 8 10 11 10 2 0 -3 -11 -12 -25z m1035 10 c7 3 8
0 5 -9 -8 -22 -17 -20 -33 7 -13 20 -13 21 2 9 9 -8 21 -11 26 -7z m-1099 -10
c0 -8 -2 -15 -4 -15 -2 0 -6 7 -10 15 -3 8 -1 15 4 15 6 0 10 -7 10 -15z m191
-8 c-10 -9 -11 -8 -5 6 3 10 9 15 12 12 3 -3 0 -11 -7 -18z m763 -16 c-5 -6
-34 20 -34 30 0 5 8 1 18 -8 10 -10 17 -20 16 -22z m100 8 c-3 -5 -11 -9 -17
-8 -8 0 -8 2 1 6 10 4 10 8 0 21 -12 15 -11 16 4 3 10 -7 15 -17 12 -22z
m-911 -22 c-13 -5 -23 -14 -23 -19 0 -5 5 -6 10 -3 6 3 10 0 10 -9 0 -8 -7
-13 -17 -11 -10 1 -16 9 -14 16 2 8 4 19 4 24 0 6 12 11 26 11 26 2 26 2 4 -9z
m32 -6 c-3 -6 -11 -11 -16 -11 -5 0 -4 6 3 14 14 16 24 13 13 -3z m785 -11 c0
-5 -5 -10 -11 -10 -5 0 -7 5 -4 10 3 6 8 10 11 10 2 0 4 -4 4 -10z m89 -13
l22 -24 -25 -18 c-14 -11 -23 -22 -20 -26 2 -4 -4 -12 -13 -18 -10 -6 -13 -11
-6 -11 7 0 1 -11 -11 -25 -14 -15 -22 -33 -19 -44 3 -10 0 -22 -7 -26 -7 -4
-14 1 -17 14 -3 12 -10 18 -17 14 -6 -3 -3 3 8 15 10 12 23 19 27 16 5 -3 9 0
9 5 0 6 -6 11 -14 11 -8 0 -18 5 -22 11 -4 8 1 9 16 4 16 -5 20 -4 15 5 -4 6
1 21 12 32 18 20 18 21 -7 14 -19 -5 -21 -5 -9 3 9 6 26 9 38 6 28 -5 27 3 -1
15 -16 6 -18 9 -7 9 23 1 32 29 11 34 -14 4 -14 5 -1 6 8 0 25 -10 38 -22z
m-789 -17 c0 -5 -5 -10 -11 -10 -5 0 -7 5 -4 10 3 6 8 10 11 10 2 0 4 -4 4
-10z m655 -10 c3 -5 1 -10 -4 -10 -6 0 -11 5 -11 10 0 6 2 10 4 10 3 0 8 -4
11 -10z m65 6 c0 -3 -4 -8 -10 -11 -5 -3 -10 -1 -10 4 0 6 5 11 10 11 6 0 10
-2 10 -4z m-662 -51 c-3 -3 -9 2 -12 12 -6 14 -5 15 5 6 7 -7 10 -15 7 -18z
m640 -10 c-3 -3 -9 2 -12 12 -6 14 -5 15 5 6 7 -7 10 -15 7 -18z m-638 -10 c0
-1 -12 -2 -26 -2 -17 0 -22 2 -13 7 10 7 39 3 39 -5z m60 9 c0 -8 -19 -13 -24
-6 -3 5 1 9 9 9 8 0 15 -2 15 -3z m491 -17 c-10 -9 -11 -8 -5 6 3 10 9 15 12
12 3 -3 0 -11 -7 -18z m69 17 c0 -8 -19 -13 -24 -6 -3 5 1 9 9 9 8 0 15 -2 15
-3z m-640 -45 c0 -13 4 -18 13 -13 10 6 10 4 0 -7 -7 -7 -13 -17 -13 -22 0 -6
5 -5 13 0 22 18 44 22 44 8 0 -7 -7 -11 -14 -8 -8 3 -23 -3 -33 -12 -11 -10
-23 -15 -27 -12 -3 4 -1 7 7 7 10 0 10 3 0 15 -7 9 -8 15 -2 15 5 0 8 9 5 19
-3 13 -12 18 -24 16 -11 -2 -18 -1 -15 3 2 4 14 8 25 9 15 1 21 -4 21 -18z
m80 17 c0 -2 -8 -10 -17 -17 -16 -13 -17 -12 -4 4 13 16 21 21 21 13z m556
-25 c-4 -6 -13 -11 -19 -11 -8 0 -7 3 2 9 8 5 10 14 6 22 -6 11 -5 11 5 2 7
-6 9 -16 6 -22z m-39 -33 c1 -31 -6 -32 -12 -1 -1 10 -8 17 -15 15 -6 -1 -9 1
-6 6 12 19 31 7 33 -20z m-509 -13 c-3 -3 -9 2 -12 12 -6 14 -5 15 5 6 7 -7
10 -15 7 -18z m462 19 c0 -8 -19 -13 -24 -6 -3 5 1 9 9 9 8 0 15 -2 15 -3z
m-55 -23 c3 -5 2 -12 -3 -15 -5 -3 -9 1 -9 9 0 17 3 19 12 6z m46 -18 c13 -16
12 -17 -3 -4 -17 13 -22 21 -14 21 2 0 10 -8 17 -17z m37 -9 c0 -17 -3 -22 -8
-13 -5 6 -6 18 -3 26 8 19 11 16 11 -13z m-455 1 c-3 -9 -8 -14 -10 -11 -3 3
-2 9 2 15 9 16 15 13 8 -4z m32 -5 c3 -5 1 -10 -4 -10 -6 0 -11 5 -11 10 0 6
2 10 4 10 3 0 8 -4 11 -10z m282 -5 c0 -8 -4 -12 -9 -9 -5 3 -6 10 -3 15 9 13
12 11 12 -6z"/>
<path d="M2113 1809 c-6 -6 -9 -17 -6 -25 3 -9 -2 -12 -16 -9 -12 2 -21 0 -21
-4 0 -5 -10 -8 -22 -7 -16 1 -22 7 -20 19 2 9 -2 17 -8 17 -5 0 -10 -4 -10
-10 0 -5 -8 -10 -17 -10 -15 -1 -14 -4 5 -20 13 -10 29 -17 36 -14 8 3 17 1
21 -5 3 -6 0 -9 -7 -6 -18 7 -42 -10 -33 -24 5 -9 11 -7 22 6 8 10 12 13 9 6
-6 -12 9 -26 32 -29 18 -3 15 13 -5 20 -12 5 -13 10 -6 17 17 17 76 19 93 4
13 -11 18 -11 34 1 19 13 11 20 -17 15 -5 -1 -5 4 -1 11 6 9 3 9 -9 -1 -9 -7
-17 -9 -17 -3 0 15 26 22 38 10 6 -6 12 -6 16 0 3 5 -6 14 -20 20 -20 10 -26
9 -31 -3 -4 -12 -8 -13 -19 -4 -11 9 -11 15 -3 25 14 17 -2 19 -18 3z m22 -49
c-3 -4 -13 -7 -23 -5 -9 1 -25 -2 -34 -6 -9 -5 -19 -5 -22 -1 -3 5 0 9 7 10
24 2 47 8 53 15 9 9 26 -2 19 -13z m55 -16 c0 -8 -19 -13 -24 -6 -3 5 1 9 9 9
8 0 15 -2 15 -3z"/>
<path d="M2230 1754 c-8 -8 -9 -14 -4 -13 5 1 11 0 14 -1 3 -1 13 -3 22 -5 14
-3 15 0 5 16 -14 23 -21 24 -37 3z"/>
<path d="M593 1238 c2 -7 15 -13 28 -13 13 0 29 -3 35 -7 16 -11 26 3 13 19
-14 16 -36 17 -42 1 -4 -10 -6 -10 -6 0 -1 6 -8 12 -17 12 -9 0 -14 -6 -11
-12z"/>
<path d="M756 1182 c-3 -5 1 -9 9 -9 8 0 12 4 9 9 -3 4 -7 8 -9 8 -2 0 -6 -4
-9 -8z"/>
<path d="M850 1161 c0 -7 -4 -10 -8 -7 -5 3 -9 -2 -9 -10 0 -13 2 -13 16 0 8
9 12 19 8 22 -4 4 -7 2 -7 -5z"/>
<path d="M880 1130 c-8 -5 -10 -10 -5 -10 6 0 17 5 25 10 8 5 11 10 5 10 -5 0
-17 -5 -25 -10z"/>
<path d="M685 1120 c3 -5 8 -10 11 -10 2 0 4 5 4 10 0 6 -5 10 -11 10 -5 0 -7
-4 -4 -10z"/>
<path d="M940 1121 c0 -5 -11 -23 -25 -39 -19 -23 -22 -32 -13 -38 20 -13 67
-14 74 -2 4 7 9 6 14 -2 5 -8 9 -8 13 3 4 11 0 15 -13 12 -14 -3 -19 2 -18 18
2 45 -1 50 -17 37 -13 -11 -14 -10 -9 4 3 9 3 16 0 16 -3 0 -6 -4 -6 -9z m26
-33 c-1 -7 -5 -18 -9 -25 -4 -6 -1 -13 5 -16 10 -4 -42 -2 -61 2 -2 1 4 10 14
21 10 11 21 17 26 15 4 -3 10 -1 14 5 8 14 14 13 11 -2z"/>
<path d="M919 1064 c-7 -9 -6 -12 6 -10 22 3 40 23 20 23 -8 0 -20 -6 -26 -13z"/>
<path d="M1040 1085 c-8 -9 -8 -15 -2 -15 12 0 26 19 19 26 -2 2 -10 -2 -17
-11z"/>
<path d="M2880 930 c-13 -9 -13 -10 0 -10 13 0 13 -1 0 -11 -12 -8 -12 -10 -1
-7 8 2 15 12 17 21 3 20 3 19 -16 7z"/>
<path d="M2875 880 c-3 -5 -1 -10 4 -10 6 0 11 5 11 10 0 6 -2 10 -4 10 -3 0
-8 -4 -11 -10z"/>
<path d="M2131 321 c-9 -16 -8 -18 8 -14 24 6 36 33 16 33 -8 0 -19 -9 -24
-19z"/>
<path d="M1936 235 c-6 -17 5 -26 21 -17 8 5 7 11 -2 19 -10 10 -14 9 -19 -2z"/>
<path d="M1909 182 c-16 -19 -22 -55 -7 -46 5 3 6 10 3 15 -4 5 0 12 8 15 7 2
14 11 14 19 0 18 1 19 -18 -3z"/>
<path d="M1865 101 c-3 -5 -2 -12 3 -15 5 -3 9 1 9 9 0 17 -3 19 -12 6z"/>
<path d="M1570 2859 c0 -5 5 -7 10 -4 6 3 10 8 10 11 0 2 -4 4 -10 4 -5 0 -10
-5 -10 -11z"/>
<path d="M1722 2810 c9 -14 14 -16 20 -7 4 7 8 17 8 22 0 6 -5 3 -10 -5 -6
-10 -10 -11 -10 -2 0 6 -5 12 -10 12 -6 0 -5 -8 2 -20z"/>
<path d="M1828 2793 c7 -3 16 -2 19 1 4 3 -2 6 -13 5 -11 0 -14 -3 -6 -6z"/>
<path d="M1746 2771 c-4 -5 -2 -12 3 -15 5 -4 12 -2 15 3 4 5 2 12 -3 15 -5 4
-12 2 -15 -3z"/>
<path d="M1909 2743 c-13 -16 -12 -17 4 -4 16 13 21 21 13 21 -2 0 -10 -8 -17
-17z"/>
<path d="M1950 2736 c0 -2 8 -10 18 -17 15 -13 16 -12 3 4 -13 16 -21 21 -21
13z"/>
<path d="M1915 2721 c-3 -5 -2 -12 3 -15 5 -3 9 1 9 9 0 17 -3 19 -12 6z"/>
<path d="M1130 2682 c0 -4 9 -8 20 -9 11 -1 20 2 20 5 0 4 -9 8 -20 9 -11 1
-20 -2 -20 -5z"/>
<path d="M1977 2639 c7 -7 15 -10 18 -7 3 3 -2 9 -12 12 -14 6 -15 5 -6 -5z"/>
<path d="M1941 2616 c-8 -10 -9 -16 -1 -21 5 -3 10 1 10 10 0 9 5 13 10 10 6
-3 10 -1 10 4 0 15 -15 14 -29 -3z"/>
<path d="M1995 2617 c-15 -12 -16 -15 -4 -22 8 -5 10 -4 6 0 -4 5 3 15 15 22
13 7 18 12 12 13 -5 0 -18 -6 -29 -13z"/>
<path d="M1059 2618 c-8 -27 -5 -36 9 -30 10 4 12 7 4 10 -7 2 -10 8 -6 13 3
5 3 9 0 9 -3 0 -6 -1 -7 -2z"/>
<path d="M2053 2596 c-3 -6 -3 -8 2 -4 4 4 13 3 20 -2 8 -7 12 -5 12 3 0 16
-25 18 -34 3z"/>
<path d="M2155 2601 c-3 -5 -2 -12 3 -15 5 -3 9 1 9 9 0 17 -3 19 -12 6z"/>
<path d="M2316 2573 c-6 -14 -5 -15 5 -6 7 7 10 15 7 18 -3 3 -9 -2 -12 -12z"/>
<path d="M2350 2576 c0 -2 8 -10 18 -17 15 -13 16 -12 3 4 -13 16 -21 21 -21
13z"/>
<path d="M2260 2560 c-9 -6 -10 -10 -3 -10 6 0 15 5 18 10 8 12 4 12 -15 0z"/>
<path d="M2330 2539 c0 -5 5 -7 10 -4 6 3 10 8 10 11 0 2 -4 4 -10 4 -5 0 -10
-5 -10 -11z"/>
<path d="M2451 2518 c-1 -21 15 -32 25 -17 4 7 3 9 -4 5 -6 -3 -13 2 -15 11
-4 16 -5 16 -6 1z"/>
<path d="M2523 2498 c-11 -14 -11 -74 0 -84 7 -7 8 -4 11 34 1 9 5 24 11 32 8
13 7 13 -8 1 -10 -8 -17 -9 -17 -3 0 6 8 16 18 21 9 6 12 11 6 11 -6 0 -16 -6
-21 -12z"/>
<path d="M2579 2473 c-13 -16 -12 -17 4 -4 16 13 21 21 13 21 -2 0 -10 -8 -17
-17z"/>
<path d="M2549 2465 c0 -5 -2 -18 -4 -27 -2 -9 3 -22 11 -29 11 -9 14 -8 14 5
0 11 5 14 12 10 7 -4 8 -3 4 4 -4 7 -3 12 3 12 5 0 12 -5 14 -10 3 -6 4 -5 3
2 -2 7 -10 13 -20 13 -9 0 -21 7 -26 15 -5 8 -10 11 -11 5z m16 -24 c3 -5 2
-12 -3 -15 -5 -3 -9 1 -9 9 0 17 3 19 12 6z"/>
<path d="M2690 2238 c-5 -13 -9 -19 -9 -15 -1 4 -10 3 -22 -3 -20 -11 -20 -12
-3 -31 12 -14 13 -19 4 -19 -19 0 -6 -10 19 -15 12 -2 19 0 16 6 -4 5 -1 9 4
9 6 0 11 5 11 11 0 8 -4 8 -14 0 -10 -8 -16 -9 -21 -1 -3 5 -1 10 6 10 7 0 9
3 6 7 -4 3 -3 11 2 17 11 15 22 46 15 46 -2 0 -9 -10 -14 -22z m-17 -33 c-3
-9 -8 -14 -10 -11 -3 3 -2 9 2 15 9 16 15 13 8 -4z"/>
<path d="M2708 2203 c7 -3 16 -2 19 1 4 3 -2 6 -13 5 -11 0 -14 -3 -6 -6z"/>
<path d="M2710 2149 c0 -5 5 -7 10 -4 6 3 10 8 10 11 0 2 -4 4 -10 4 -5 0 -10
-5 -10 -11z"/>
<path d="M210 2139 c0 -5 5 -7 10 -4 6 3 10 8 10 11 0 2 -4 4 -10 4 -5 0 -10
-5 -10 -11z"/>
<path d="M2710 2089 c0 -5 5 -7 10 -4 6 3 10 8 10 11 0 2 -4 4 -10 4 -5 0 -10
-5 -10 -11z"/>
<path d="M2673 2073 c0 -9 4 -10 14 -2 7 6 13 12 13 14 0 1 -6 2 -13 2 -8 0
-14 -6 -14 -14z"/>
<path d="M2660 2009 c-10 -6 -11 -9 -2 -9 22 0 27 -2 41 -13 12 -10 13 -9 6 2
-6 11 -3 13 13 9 13 -4 20 -2 16 3 -3 6 -13 9 -22 7 -10 -1 -22 0 -27 4 -6 4
-17 3 -25 -3z"/>
<path d="M155 1980 c-3 -5 -1 -10 4 -10 6 0 11 5 11 10 0 6 -2 10 -4 10 -3 0
-8 -4 -11 -10z"/>
<path d="M177 1923 c-10 -9 -9 -23 1 -23 5 0 9 7 9 15 0 17 -1 18 -10 8z"/>
<path d="M2694 1909 c1 -7 10 -13 19 -15 9 -1 15 2 11 7 -3 5 -9 7 -14 4 -4
-3 -11 0 -13 5 -3 6 -4 5 -3 -1z"/>
<path d="M158 1888 c11 -14 10 -18 -5 -27 -10 -6 -13 -10 -8 -10 16 0 49 28
42 36 -4 3 -7 3 -7 -2 0 -4 -8 -1 -17 6 -16 13 -17 12 -5 -3z"/>
<path d="M2691 1844 c0 -11 3 -14 6 -6 3 7 2 16 -1 19 -3 4 -6 -2 -5 -13z"/>
<path d="M2625 1828 c4 -19 -10 -25 -20 -8 -8 13 -25 3 -25 -15 0 -9 8 -12 25
-9 23 4 30 -3 27 -28 -1 -3 5 -9 14 -12 12 -4 12 -2 4 14 -14 26 -13 30 8 23
11 -4 8 1 -8 15 -30 25 -20 28 18 6 15 -9 20 -10 11 -3 -9 8 -18 18 -20 24 -8
18 -37 12 -34 -7z"/>
<path d="M130 1820 c0 -5 5 -10 11 -10 5 0 7 5 4 10 -3 6 -8 10 -11 10 -2 0
-4 -4 -4 -10z"/>
<path d="M2526 1762 c-3 -5 1 -9 9 -9 8 0 15 4 15 9 0 4 -4 8 -9 8 -6 0 -12
-4 -15 -8z"/>
<path d="M2355 1751 c-8 -13 6 -42 17 -35 5 3 5 11 1 18 -4 7 -1 4 8 -6 13
-14 18 -15 22 -4 6 15 -39 40 -48 27z"/>
<path d="M2316 1742 c-3 -5 1 -9 9 -9 8 0 12 4 9 9 -3 4 -7 8 -9 8 -2 0 -6 -4
-9 -8z"/>
<path d="M2615 1740 c-3 -6 1 -7 9 -4 18 7 21 14 7 14 -6 0 -13 -4 -16 -10z"/>
<path d="M152 1726 c7 -8 15 -12 17 -11 5 6 -10 25 -20 25 -5 0 -4 -6 3 -14z"/>
<path d="M2580 1722 c0 -5 7 -9 15 -9 8 0 12 4 9 9 -3 4 -9 8 -15 8 -5 0 -9
-4 -9 -8z"/>
<path d="M225 1692 c-17 -11 -2 -62 18 -62 5 0 3 8 -7 19 -16 17 -15 19 6 34
16 11 18 16 8 16 -8 1 -20 -3 -25 -7z"/>
<path d="M145 1660 c-3 -6 1 -7 9 -4 18 7 21 14 7 14 -6 0 -13 -4 -16 -10z"/>
<path d="M166 1642 c-3 -5 1 -9 9 -9 8 0 12 4 9 9 -3 4 -7 8 -9 8 -2 0 -6 -4
-9 -8z"/>
<path d="M2490 1638 c0 -4 4 -8 9 -8 6 0 12 4 15 8 3 5 -1 9 -9 9 -8 0 -15 -4
-15 -9z"/>
<path d="M2284 1612 c23 -26 23 -26 23 -7 0 8 -3 13 -5 10 -3 -3 -12 1 -21 7
-10 8 -9 4 3 -10z"/>
<path d="M2428 1623 c6 -2 18 -2 25 0 6 3 1 5 -13 5 -14 0 -19 -2 -12 -5z"/>
<path d="M2556 1607 c3 -10 9 -15 12 -12 3 3 0 11 -7 18 -10 9 -11 8 -5 -6z"/>
<path d="M2450 1595 c0 -8 2 -15 4 -15 2 0 6 7 10 15 3 8 1 15 -4 15 -6 0 -10
-7 -10 -15z"/>
<path d="M2476 1593 c-6 -14 -5 -15 5 -6 7 7 10 15 7 18 -3 3 -9 -2 -12 -12z"/>
<path d="M166 1558 c3 -5 9 -7 12 -4 3 3 13 -1 23 -10 14 -12 18 -13 25 -2 4
7 4 10 -1 6 -4 -4 -15 -2 -23 4 -18 15 -44 20 -36 6z"/>
<path d="M2465 1548 c6 -19 5 -21 -6 -10 -7 6 -17 12 -22 12 -6 0 10 -15 34
-34 42 -32 45 -33 68 -17 24 15 25 15 18 -2 -4 -10 -3 -16 2 -12 12 6 10 45
-1 45 -4 0 -8 -4 -8 -10 0 -5 -10 -8 -22 -6 -13 3 -25 5 -28 5 -3 1 2 6 10 12
13 9 13 10 -2 6 -17 -6 -42 15 -31 26 3 4 1 7 -6 7 -8 0 -10 -8 -6 -22z m35
-33 c7 -8 17 -12 23 -8 6 4 7 1 3 -6 -6 -9 -13 -8 -29 6 -12 10 -24 19 -26 20
-2 2 0 3 6 3 6 0 16 -7 23 -15z"/>
<path d="M2586 1522 c-3 -5 1 -9 9 -9 8 0 12 4 9 9 -3 4 -7 8 -9 8 -2 0 -6 -4
-9 -8z"/>
<path d="M2633 1495 c0 -8 4 -12 9 -9 5 3 6 10 3 15 -9 13 -12 11 -12 -6z"/>
<path d="M2574 1476 c-3 -9 -12 -12 -22 -8 -15 5 -15 4 -2 -12 8 -11 16 -14
18 -7 2 6 8 11 13 11 6 0 8 -4 5 -8 -5 -8 50 -56 64 -57 3 0 10 -4 17 -8 6 -4
14 -3 18 2 3 6 13 7 22 4 15 -6 16 -5 3 9 -8 9 -18 12 -21 7 -3 -5 -13 -1 -23
10 -11 12 -14 21 -7 26 6 3 11 11 11 18 0 6 -7 1 -16 -12 l-16 -23 -19 31
c-20 34 -36 39 -45 17z m41 -26 c9 -17 20 -28 24 -26 5 3 17 -4 27 -17 12 -13
13 -17 3 -9 -9 6 -18 9 -21 6 -3 -3 -15 6 -26 20 -10 14 -23 22 -28 18 -5 -4
-6 -3 -2 2 4 5 3 15 -3 23 -8 9 -8 13 0 13 6 0 18 -14 26 -30z"/>
<path d="M2675 1440 c-3 -5 -1 -10 4 -10 6 0 11 5 11 10 0 6 -2 10 -4 10 -3 0
-8 -4 -11 -10z"/>
<path d="M2715 1429 c-4 -6 -5 -12 -2 -15 2 -3 7 2 10 11 7 17 1 20 -8 4z"/>
<path d="M315 1400 c-3 -5 -2 -10 4 -10 5 0 13 5 16 10 3 6 2 10 -4 10 -5 0
-13 -4 -16 -10z"/>
<path d="M2731 1403 c3 -19 -2 -34 -10 -29 -8 5 -8 -15 -1 -34 1 -3 2 -8 1
-12 0 -4 7 -4 16 -1 10 4 14 2 9 -5 -3 -6 -2 -14 4 -17 8 -5 8 -11 1 -19 -6
-7 -8 -16 -4 -19 9 -10 25 -9 19 1 -3 5 2 21 10 36 18 36 19 32 -17 45 -26 9
-29 13 -20 30 8 14 8 22 1 26 -6 4 -10 3 -9 -2z m41 -78 c0 -5 -5 -11 -10 -13
-5 -1 -9 4 -9 13 0 9 4 14 9 13 5 -2 10 -8 10 -13z"/>
<path d="M350 1339 c0 -5 5 -7 10 -4 6 3 10 8 10 11 0 2 -4 4 -10 4 -5 0 -10
-5 -10 -11z"/>
<path d="M2855 1300 c-3 -5 -1 -10 4 -10 6 0 11 5 11 10 0 6 -2 10 -4 10 -3 0
-8 -4 -11 -10z"/>
<path d="M430 1296 c0 -2 6 -9 14 -15 11 -9 16 -9 22 0 4 8 3 9 -4 5 -7 -4
-12 -2 -12 3 0 6 -4 11 -10 11 -5 0 -10 -2 -10 -4z"/>
<path d="M460 1260 c-9 -6 -10 -10 -3 -10 6 0 15 5 18 10 8 12 4 12 -15 0z"/>
<path d="M500 1250 c-12 -7 -10 -9 7 -7 12 0 19 5 17 9 -6 10 -6 10 -24 -2z"/>
<path d="M406 1218 c3 -5 10 -6 15 -3 13 9 11 12 -6 12 -8 0 -12 -4 -9 -9z"/>
<path d="M508 1223 c6 -2 18 -2 25 0 6 3 1 5 -13 5 -14 0 -19 -2 -12 -5z"/>
<path d="M2790 1219 c0 -5 5 -7 10 -4 6 3 10 8 10 11 0 2 -4 4 -10 4 -5 0 -10
-5 -10 -11z"/>
<path d="M550 1210 c0 -5 5 -10 10 -10 6 0 10 5 10 10 0 6 -4 10 -10 10 -5 0
-10 -4 -10 -10z"/>
<path d="M504 1198 c10 -6 22 -6 26 -2 5 5 -3 10 -18 11 -22 1 -24 0 -8 -9z"/>
<path d="M2899 1193 c-13 -16 -12 -17 4 -4 9 7 17 15 17 17 0 8 -8 3 -21 -13z"/>
<path d="M430 1196 c0 -2 8 -10 18 -17 15 -13 16 -12 3 4 -13 16 -21 21 -21
13z"/>
<path d="M529 1168 c-6 -12 -6 -18 1 -18 5 0 10 7 10 16 0 8 5 12 10 9 6 -4 8
-11 5 -16 -4 -5 -2 -9 4 -9 5 0 13 5 16 10 3 6 1 10 -5 10 -6 0 -9 4 -6 8 3 5
-2 9 -10 9 -8 0 -19 -9 -25 -19z"/>
<path d="M430 1160 c0 -5 5 -10 11 -10 5 0 7 5 4 10 -3 6 -8 10 -11 10 -2 0
-4 -4 -4 -10z"/>
<path d="M460 1146 c0 -2 7 -7 16 -10 8 -3 12 -2 9 4 -6 10 -25 14 -25 6z"/>
<path d="M2827 1143 c-10 -9 -9 -23 1 -23 5 0 9 7 9 15 0 17 -1 18 -10 8z"/>
<path d="M2908 1128 c2 -10 6 -18 7 -18 1 0 5 8 7 18 3 11 0 19 -7 19 -7 0
-10 -8 -7 -19z"/>
<path d="M2936 1033 c-6 -14 -5 -15 5 -6 7 7 10 15 7 18 -3 3 -9 -2 -12 -12z"/>
<path d="M227 1019 c7 -7 15 -10 18 -7 3 3 -2 9 -12 12 -14 6 -15 5 -6 -5z"/>
<path d="M2935 981 c-4 -7 -1 -10 7 -9 7 2 12 -5 11 -16 -1 -13 2 -15 10 -7 8
8 7 15 -5 27 -11 11 -18 13 -23 5z"/>
<path d="M228 973 c7 -3 16 -2 19 1 4 3 -2 6 -13 5 -11 0 -14 -3 -6 -6z"/>
<path d="M196 962 c-3 -5 1 -9 9 -9 8 0 12 4 9 9 -3 4 -7 8 -9 8 -2 0 -6 -4
-9 -8z"/>
<path d="M232 955 c4 -4 3 -16 -3 -27 -7 -13 -7 -23 0 -32 6 -7 7 -17 3 -22
-4 -5 -3 -5 2 -1 13 10 17 39 5 31 -12 -7 -11 3 1 26 7 13 6 21 -2 26 -7 4
-10 4 -6 -1z"/>
<path d="M2931 924 c0 -11 3 -14 6 -6 3 7 2 16 -1 19 -3 4 -6 -2 -5 -13z"/>
<path d="M186 878 c3 -4 12 -8 20 -8 8 0 14 4 14 8 0 4 -9 8 -19 8 -11 0 -17
-4 -15 -8z"/>
<path d="M210 856 c0 -2 7 -7 16 -10 8 -3 12 -2 9 4 -6 10 -25 14 -25 6z"/>
<path d="M213 822 c1 -14 5 -18 11 -12 7 7 6 14 -1 21 -9 9 -12 7 -10 -9z"/>
<path d="M176 802 c-3 -5 1 -9 9 -9 8 0 12 4 9 9 -3 4 -7 8 -9 8 -2 0 -6 -4
-9 -8z"/>
<path d="M230 797 c-18 -14 -25 -47 -10 -47 5 0 13 -1 18 -2 4 -2 7 12 8 30 0
17 0 32 0 32 -1 0 -8 -6 -16 -13z m10 -37 c0 -5 -2 -10 -4 -10 -3 0 -8 5 -11
10 -3 6 -1 10 4 10 6 0 11 -4 11 -10z"/>
<path d="M2911 797 c-1 -11 -6 -15 -13 -11 -7 5 -8 3 -3 -5 10 -16 29 2 22 21
-4 8 -6 7 -6 -5z"/>
<path d="M2825 779 c-4 -6 -3 -15 3 -21 6 -6 11 -4 15 6 7 18 -9 31 -18 15z"/>
<path d="M196 725 c4 -8 8 -15 10 -15 2 0 4 7 4 15 0 8 -4 15 -10 15 -5 0 -7
-7 -4 -15z"/>
<path d="M2796 722 c-9 -14 2 -34 14 -27 5 3 13 -3 19 -12 5 -10 12 -15 15
-13 3 3 -5 19 -18 35 -15 19 -25 24 -30 17z"/>
<path d="M2870 716 c0 -2 8 -10 18 -17 15 -13 16 -12 3 4 -13 16 -21 21 -21
13z"/>
<path d="M2800 675 c-11 -13 -10 -14 4 -9 9 3 16 10 16 15 0 13 -6 11 -20 -6z"/>
<path d="M2815 650 c3 -5 8 -10 11 -10 2 0 4 5 4 10 0 6 -5 10 -11 10 -5 0 -7
-4 -4 -10z"/>
<path d="M2853 645 c0 -8 4 -15 9 -15 4 0 8 4 8 9 0 6 -4 12 -8 15 -5 3 -9 -1
-9 -9z"/>
<path d="M199 628 c-5 -18 -6 -38 -1 -34 7 8 12 36 6 36 -2 0 -4 -1 -5 -2z"/>
<path d="M2795 579 c-4 -6 -4 -13 -1 -16 3 -4 6 -1 6 6 0 8 6 11 16 7 8 -3 12
-2 9 4 -8 13 -22 13 -30 -1z"/>
<path d="M220 540 c0 -5 5 -9 11 -7 6 1 14 -4 17 -12 3 -9 0 -11 -8 -6 -9 5
-11 4 -6 -3 4 -7 2 -12 -5 -12 -7 0 -10 -3 -7 -6 4 -3 17 2 31 11 19 12 27 13
33 4 4 -7 3 -9 -3 -6 -6 4 -16 1 -22 -6 -8 -10 -5 -20 12 -38 12 -13 21 -28
19 -34 -2 -5 -1 -7 3 -3 8 8 35 -15 35 -30 0 -6 -3 -12 -7 -15 -5 -2 -3 -3 3
-1 6 1 17 -3 24 -9 7 -7 6 1 -3 19 -9 17 -13 35 -9 39 4 5 1 5 -7 0 -9 -5 -12
-4 -7 3 10 17 16 15 25 -10 5 -14 10 -18 15 -10 4 8 -8 26 -33 48 -26 23 -38
43 -36 55 2 11 -2 20 -11 20 -27 3 -32 4 -40 12 -11 10 -24 9 -24 -3z m70 -67
c0 -9 3 -13 7 -10 9 10 34 -13 27 -25 -3 -5 -19 3 -35 18 -15 15 -26 31 -23
36 8 12 24 -1 24 -19z"/>
<path d="M2720 526 c0 -2 7 -7 16 -10 8 -3 12 -2 9 4 -6 10 -25 14 -25 6z"/>
<path d="M2525 440 c-9 -10 -20 -19 -24 -18 -3 0 -13 0 -21 -1 -13 -1 -13 -2
0 -11 13 -8 13 -13 2 -31 -11 -17 -11 -20 0 -13 7 5 22 10 32 11 11 2 22 6 25
10 3 3 -4 3 -16 0 -15 -3 -23 -1 -23 7 0 18 31 16 55 -3 19 -16 20 -15 3 5
-10 11 -16 30 -13 42 5 27 3 27 -20 2z m15 -4 c0 -2 -8 -10 -17 -17 -16 -13
-17 -12 -4 4 13 16 21 21 21 13z"/>
<path d="M2650 450 c-9 -6 -10 -10 -3 -10 6 0 15 5 18 10 8 12 4 12 -15 0z"/>
<path d="M240 439 c0 -5 5 -7 10 -4 6 3 10 8 10 11 0 2 -4 4 -10 4 -5 0 -10
-5 -10 -11z"/>
<path d="M285 400 c3 -5 8 -10 11 -10 2 0 4 5 4 10 0 6 -5 10 -11 10 -5 0 -7
-4 -4 -10z"/>
<path d="M2380 390 l-25 -19 24 4 c28 5 47 20 34 28 -5 3 -20 -3 -33 -13z"/>
<path d="M2526 358 c3 -5 10 -6 15 -3 13 9 11 12 -6 12 -8 0 -12 -4 -9 -9z"/>
<path d="M315 351 c-3 -5 -2 -12 3 -15 5 -3 9 1 9 9 0 17 -3 19 -12 6z"/>
<path d="M353 335 c0 -8 4 -12 9 -9 5 3 6 10 3 15 -9 13 -12 11 -12 -6z"/>
<path d="M516 341 c-4 -5 -1 -13 5 -17 9 -5 6 -11 -7 -21 -17 -13 -17 -13 6
-9 14 2 27 5 30 6 3 2 8 2 13 1 4 0 7 3 7 8 0 10 26 9 36 -2 4 -4 0 -7 -9 -7
-9 0 -18 -3 -20 -7 -3 -5 7 -8 23 -8 25 0 26 2 17 23 -6 12 -14 23 -19 23 -19
3 -24 5 -35 12 -8 5 -13 3 -13 -4 0 -9 -3 -9 -14 0 -9 8 -16 8 -20 2z m43 -14
c18 7 16 4 -14 -17 -11 -8 -17 -10 -13 -6 4 5 2 16 -4 25 -10 13 -10 14 1 4 7
-6 21 -9 30 -6z"/>
<path d="M2414 342 c3 -5 0 -13 -6 -15 -9 -4 -10 -6 -1 -6 17 -1 25 16 12 25
-7 4 -9 3 -5 -4z"/>
<path d="M2455 340 c-3 -5 -1 -10 4 -10 6 0 11 5 11 10 0 6 -2 10 -4 10 -3 0
-8 -4 -11 -10z"/>
<path d="M675 320 c3 -5 8 -10 11 -10 2 0 4 5 4 10 0 6 -5 10 -11 10 -5 0 -7
-4 -4 -10z"/>
<path d="M460 300 c-12 -7 -10 -9 7 -7 12 0 19 5 17 9 -6 10 -6 10 -24 -2z"/>
<path d="M2274 302 c3 -5 0 -13 -6 -15 -9 -4 -10 -6 -1 -6 17 -1 25 16 12 25
-7 4 -9 3 -5 -4z"/>
<path d="M2390 300 c0 -5 5 -10 11 -10 5 0 7 5 4 10 -3 6 -8 10 -11 10 -2 0
-4 -4 -4 -10z"/>
<path d="M870 286 c0 -2 7 -7 16 -10 8 -3 12 -2 9 4 -6 10 -25 14 -25 6z"/>
<path d="M915 280 c-3 -5 -1 -10 4 -10 6 0 11 5 11 10 0 6 -2 10 -4 10 -3 0
-8 -4 -11 -10z"/>
<path d="M985 280 c-3 -5 -1 -10 4 -10 6 0 11 5 11 10 0 6 -2 10 -4 10 -3 0
-8 -4 -11 -10z"/>
<path d="M2296 282 c-3 -5 1 -9 9 -9 8 0 12 4 9 9 -3 4 -7 8 -9 8 -2 0 -6 -4
-9 -8z"/>
<path d="M597 269 c7 -7 15 -10 18 -7 3 3 -2 9 -12 12 -14 6 -15 5 -6 -5z"/>
<path d="M636 271 c-3 -5 1 -11 9 -14 9 -4 12 -1 8 9 -6 16 -10 17 -17 5z"/>
<path d="M2116 253 c-6 -14 -5 -15 5 -6 7 7 10 15 7 18 -3 3 -9 -2 -12 -12z"/>
<path d="M2196 253 c-6 -14 -5 -15 5 -6 7 7 10 15 7 18 -3 3 -9 -2 -12 -12z"/>
<path d="M736 234 c-6 -15 -4 -15 11 -3 10 7 20 15 22 16 2 2 -3 3 -11 3 -9 0
-19 -7 -22 -16z"/>
<path d="M2135 240 c-2 -3 5 -6 15 -7 11 -1 22 2 24 5 3 4 -4 8 -15 8 -11 0
-22 -3 -24 -6z"/>
<path d="M670 236 c0 -2 8 -10 18 -17 15 -13 16 -12 3 4 -13 16 -21 21 -21 13z"/>
<path d="M790 230 c-9 -6 -10 -10 -3 -10 6 0 15 5 18 10 8 12 4 12 -15 0z"/>
<path d="M2093 225 c0 -8 4 -12 9 -9 5 3 6 10 3 15 -9 13 -12 11 -12 -6z"/>
<path d="M1085 201 c-7 -7 35 -55 50 -57 21 -3 30 15 11 22 -8 3 -13 14 -11
25 3 15 -2 18 -21 17 -14 -2 -27 -4 -29 -7z m42 -31 c2 -13 2 -22 1 -19 -2 2
-11 14 -21 26 -18 20 -18 21 -1 19 9 -2 19 -13 21 -26z"/>
<path d="M1056 182 c-9 -15 9 -31 24 -22 13 8 12 10 -3 10 -10 0 -15 5 -12 10
3 6 4 10 1 10 -3 0 -7 -4 -10 -8z"/>
<path d="M2033 175 c0 -8 4 -12 9 -9 5 3 6 10 3 15 -9 13 -12 11 -12 -6z"/>
<path d="M1080 140 c-12 -7 -10 -9 7 -7 12 0 19 5 17 9 -6 10 -6 10 -24 -2z"/>
<path d="M1117 115 c-4 -8 -1 -17 5 -21 7 -4 8 -3 4 4 -4 7 -2 12 3 12 6 0 11
5 11 10 0 15 -17 12 -23 -5z"/>
<path d="M1910 66 c0 -2 7 -7 16 -10 8 -3 12 -2 9 4 -6 10 -25 14 -25 6z"/>
<path d="M1222 35 c-11 -13 -22 -21 -26 -18 -3 3 -6 1 -6 -5 0 -18 18 -14 29
5 5 10 13 18 18 18 4 0 8 6 9 13 3 18 -2 15 -24 -13z"/>
<path d="M1156 33 c-6 -14 -5 -15 5 -6 7 7 10 15 7 18 -3 3 -9 -2 -12 -12z"/>
</g>
</svg>
